<?xml version="1.0" encoding="utf-8"?>
<!-- Generator: Adobe Illustrator 25.1.0, SVG Export Plug-In . SVG Version: 6.00 Build 0)  -->
<svg version="1.1" id="Layer_1" xmlns="http://www.w3.org/2000/svg" xmlns:xlink="http://www.w3.org/1999/xlink" x="0px" y="0px"
	 viewBox="0 0 593.1 585.6" style="enable-background:new 0 0 593.1 585.6;" xml:space="preserve">
<style type="text/css">
	.st0{fill:#2DC6D6;}
	.st1{fill:none;stroke:#FFFFFF;stroke-width:3;stroke-miterlimit:10;}
	.st2{fill:#FFFFFF;}
</style>
<path class="st0" d="M219.9,303.9v92.2h69.7v-92.2H219.9z M235.1,312.2h39.4v2h-39.4V312.2z M265.4,318.4v2h-21.3v-2H265.4z
	 M250.5,387.8h-23.3v-2h23.3V387.8z M250.5,378.5h-23.3v-2h23.3V378.5z M250.5,369.3h-23.3v-2h23.3V369.3z M250.5,360.1h-23.3v-2
	h23.3V360.1z M250.5,350.9h-23.3v-2h23.3V350.9z M250.5,341.7h-23.3v-2h23.3V341.7z M252,326.5h-11v-2h11V326.5z M257.5,324.5h11v2
	h-11V324.5z M282.4,387.8h-23.3v-2h23.3V387.8z M282.4,378.5h-23.3v-2h23.3V378.5z M282.4,369.3h-23.3v-2h23.3V369.3z M282.4,360.1
	h-23.3v-2h23.3V360.1z M282.4,350.9h-23.3v-2h23.3V350.9z M282.4,341.7h-23.3v-2h23.3V341.7z"/>
<path class="st0" d="M424.6,228.1v92.2h69.7v-92.2H424.6z M439.8,236.5h39.4v2h-39.4V236.5z M470.1,242.7v2h-21.3v-2H470.1z
	 M455.2,312h-23.3v-2h23.3V312z M455.2,302.8h-23.3v-2h23.3V302.8z M455.2,293.6h-23.3v-2h23.3V293.6z M455.2,284.4h-23.3v-2h23.3
	V284.4z M455.2,275.1h-23.3v-2h23.3V275.1z M455.2,265.9h-23.3v-2h23.3V265.9z M456.7,250.8h-11v-2h11V250.8z M462.3,248.8h11v2h-11
	V248.8z M487.1,312h-23.3v-2h23.3V312z M487.1,302.8h-23.3v-2h23.3V302.8z M487.1,293.6h-23.3v-2h23.3V293.6z M487.1,284.4h-23.3v-2
	h23.3V284.4z M487.1,275.1h-23.3v-2h23.3V275.1z M487.1,265.9h-23.3v-2h23.3V265.9z"/>
<path class="st0" d="M72.9,103.9v92.3h69.7v-92.3H72.9z M88,112.2h39.4v2H88V112.2z M118.4,118.4v2H97.1v-2H118.4z M103.4,187.8
	H80.1v-2h23.3V187.8z M103.4,178.5H80.1v-2h23.3V178.5z M103.4,169.3H80.1v-2h23.3V169.3z M103.4,160.1H80.1v-2h23.3V160.1z
	 M103.4,150.9H80.1v-2h23.3V150.9z M103.4,141.7H80.1v-2h23.3V141.7z M105,126.5H94v-2h11V126.5z M110.5,124.5h11v2h-11V124.5z
	 M135.3,187.8H112v-2h23.3V187.8z M135.3,178.5H112v-2h23.3V178.5z M135.3,169.3H112v-2h23.3V169.3z M135.3,160.1H112v-2h23.3V160.1
	z M135.3,150.9H112v-2h23.3V150.9z M135.3,141.7H112v-2h23.3V141.7z"/>
<path class="st0" d="M307,34.3v92.2h69.7V34.3H307z M322.1,42.7h39.4v2h-39.4V42.7z M352.5,48.8v2h-21.3v-2H352.5z M337.6,118.2
	h-23.3v-2h23.3V118.2z M337.6,108.9h-23.3v-2h23.3V108.9z M337.6,99.7h-23.3v-2h23.3V99.7z M337.6,90.5h-23.3v-2h23.3V90.5z
	 M337.6,81.3h-23.3v-2h23.3V81.3z M337.6,72.1h-23.3v-2h23.3V72.1z M339.1,57h-11v-2h11V57z M344.6,55h11v2h-11V55z M369.4,118.2
	h-23.3v-2h23.3V118.2z M369.4,108.9h-23.3v-2h23.3V108.9z M369.4,99.7h-23.3v-2h23.3V99.7z M369.4,90.5h-23.3v-2h23.3V90.5z
	 M369.4,81.3h-23.3v-2h23.3V81.3z M369.4,72.1h-23.3v-2h23.3V72.1z"/>
<path class="st0" d="M3.2,358.1v92.2h69.7v-92.2H3.2z M18.3,366.5h39.4v2H18.3V366.5z M48.7,372.6v2H27.4v-2H48.7z M33.7,442H10.4
	v-2h23.3V442z M33.7,432.7H10.4v-2h23.3V432.7z M33.7,423.5H10.4v-2h23.3V423.5z M33.7,414.3H10.4v-2h23.3V414.3z M33.7,405.1H10.4
	v-2h23.3V405.1z M33.7,395.9H10.4v-2h23.3V395.9z M35.3,380.8h-11v-2h11V380.8z M40.8,378.8h11v2h-11V378.8z M65.6,442H42.3v-2h23.3
	V442z M65.6,432.7H42.3v-2h23.3V432.7z M65.6,423.5H42.3v-2h23.3V423.5z M65.6,414.3H42.3v-2h23.3V414.3z M65.6,405.1H42.3v-2h23.3
	V405.1z M65.6,395.9H42.3v-2h23.3V395.9z"/>
<path class="st0" d="M254.8,487.4v92.2h69.7v-92.2H254.8z M269.9,495.8h39.4v2h-39.4V495.8z M300.3,501.9v2H279v-2H300.3z
	 M285.4,571.3h-23.3v-2h23.3V571.3z M285.4,562.1h-23.3v-2h23.3V562.1z M285.4,552.8h-23.3v-2h23.3V552.8z M285.4,543.6h-23.3v-2
	h23.3V543.6z M285.4,534.4h-23.3v-2h23.3V534.4z M285.4,525.2h-23.3v-2h23.3V525.2z M286.9,510.1h-11v-2h11V510.1z M292.4,508.1h11
	v2h-11V508.1z M317.2,571.3h-23.3v-2h23.3V571.3z M317.2,562.1h-23.3v-2h23.3V562.1z M317.2,552.8h-23.3v-2h23.3V552.8z
	 M317.2,543.6h-23.3v-2h23.3V543.6z M317.2,534.4h-23.3v-2h23.3V534.4z M317.2,525.2h-23.3v-2h23.3V525.2z"/>
<g>
	<g>
		<line class="st1" x1="282.4" y1="81.3" x2="188.1" y2="138.2"/>
		<g>
			<path class="st2" d="M192.7,135.4l11.2,5.9l-0.2,0.4l-18.7,3.1c-6,2-11.9,4-17.9,6.1c4.6-4.3,9.1-8.7,13.7-13l11.5-15.1l0.4,0
				L192.7,135.4z"/>
		</g>
	</g>
</g>
<g>
	<g>
		<line class="st1" x1="206" y1="6.5" x2="255.1" y2="266.5"/>
		<g>
			<path class="st2" d="M254.1,261.2l9.4-8.5l0.3,0.3l-3.6,18.6c-0.2,6.3-0.4,12.6-0.6,18.9c-2.5-5.8-4.9-11.6-7.4-17.3l-10.1-16
				l0.1-0.4L254.1,261.2z"/>
		</g>
	</g>
</g>
<g>
	<g>
		<line class="st1" x1="553" y1="0.6" x2="469.1" y2="198.1"/>
		<g>
			<path class="st2" d="M471.2,193.1l12.5-1.8l0.1,0.4l-13.3,13.5c-3.6,5.1-7.3,10.2-10.9,15.4c1.2-6.2,2.3-12.4,3.5-18.5l0.5-19
				l0.3-0.3L471.2,193.1z"/>
		</g>
	</g>
</g>
<g>
	<g>
		<line class="st1" x1="341.9" y1="139.7" x2="271.3" y2="269.1"/>
		<g>
			<path class="st2" d="M273.9,264.3l12.6-0.6l0,0.4L272,276.3c-4.1,4.7-8.2,9.5-12.4,14.2c1.8-6,3.5-12.1,5.3-18.1l2.3-18.8
				l0.3-0.2L273.9,264.3z"/>
		</g>
	</g>
</g>
<g>
	<g>
		<line class="st1" x1="341.9" y1="139.7" x2="296" y2="452.9"/>
		<g>
			<path class="st2" d="M296.7,447.5l11.6-4.9l0.2,0.4l-9.5,16.4c-2.2,5.9-4.5,11.8-6.7,17.6c-0.4-6.3-0.9-12.5-1.3-18.8l-4.4-18.5
				l0.2-0.3L296.7,447.5z"/>
		</g>
	</g>
</g>
<g>
	<g>
		<line class="st1" x1="341.9" y1="139.7" x2="439.4" y2="206.7"/>
		<g>
			<path class="st2" d="M434.9,203.7l0.7-12.6l0.4,0l10.6,15.8c4.3,4.6,8.6,9.2,12.9,13.8c-5.8-2.4-11.6-4.7-17.5-7.1l-18.5-4.2
				l-0.2-0.4L434.9,203.7z"/>
		</g>
	</g>
</g>
<g>
	<g>
		<line class="st1" x1="459.5" y1="332.4" x2="576.7" y2="462.3"/>
		<g>
			<path class="st2" d="M573.1,458.3l3.6-12.1l0.4,0.1l6.6,17.8c3.1,5.5,6.2,10.9,9.3,16.4c-5.1-3.7-10.2-7.3-15.3-11l-17-8.4
				l-0.1-0.4L573.1,458.3z"/>
		</g>
	</g>
</g>
<g>
	<g>
		<line class="st1" x1="459.5" y1="332.4" x2="310.9" y2="461"/>
		<g>
			<path class="st2" d="M315,457.5l12,3.9l-0.1,0.4l-17.9,6.2c-5.5,3-11.1,6-16.6,9c3.8-5,7.5-10.1,11.3-15.1l8.7-16.8l0.4-0.1
				L315,457.5z"/>
		</g>
	</g>
</g>
<g>
	<g>
		<line class="st1" x1="38" y1="460.6" x2="7.2" y2="562.2"/>
		<g>
			<path class="st2" d="M8.8,557.1l12.3-3.2l0.1,0.4L9.3,569.2c-3.1,5.5-6.1,11-9.2,16.5c0.5-6.3,1-12.5,1.5-18.8L0,547.9l0.3-0.3
				L8.8,557.1z"/>
		</g>
	</g>
</g>
<g>
	<g>
		<line class="st1" x1="38" y1="460.6" x2="268" y2="475.5"/>
		<g>
			<path class="st2" d="M262.6,475.1l-5.9-11.2l0.4-0.2l17.1,8.1c6,1.7,12.1,3.5,18.1,5.2c-6.2,1-12.4,1.9-18.6,2.9l-18,5.8
				l-0.4-0.2L262.6,475.1z"/>
		</g>
	</g>
</g>
<g>
	<g>
		<line class="st1" x1="259.1" y1="405.1" x2="282.1" y2="454.9"/>
		<g>
			<path class="st2" d="M279.9,450l7-10.5l0.4,0.2l1.1,18.9c1.4,6.1,2.7,12.3,4.1,18.4c-3.8-5-7.6-10-11.4-15L267.2,449l0-0.4
				L279.9,450z"/>
		</g>
	</g>
</g>
<g>
</g>
<g>
</g>
<g>
</g>
<g>
</g>
<g>
</g>
<g>
</g>
<g>
</g>
<g>
</g>
<g>
</g>
<g>
</g>
<g>
</g>
<g>
</g>
<g>
</g>
<g>
</g>
<g>
</g>
<g>
</g>
</svg>
