<?xml version="1.0" encoding="utf-8"?>
<!-- Generator: Adobe Illustrator 25.1.0, SVG Export Plug-In . SVG Version: 6.00 Build 0)  -->
<svg version="1.1" id="Layer_1" xmlns="http://www.w3.org/2000/svg" xmlns:xlink="http://www.w3.org/1999/xlink" x="0px" y="0px"
	 viewBox="0 0 425.7 277.3" style="enable-background:new 0 0 425.7 277.3;" xml:space="preserve">
<style type="text/css">
	.st0{fill:none;stroke:#FFFFFF;stroke-width:3;stroke-miterlimit:10;}
	.st1{fill:#2DC6D6;}
</style>
<line class="st0" x1="73.1" y1="33.2" x2="21.8" y2="141.5"/>
<line class="st0" x1="215.7" y1="21.8" x2="21.8" y2="141.5"/>
<line class="st0" x1="73.1" y1="33.2" x2="153" y2="170"/>
<line class="st0" x1="21.8" y1="141.5" x2="90.2" y2="249.8"/>
<line class="st0" x1="329.8" y1="56" x2="255.6" y2="141.5"/>
<line class="st0" x1="403.9" y1="147.2" x2="301.2" y2="255.5"/>
<line class="st0" x1="90.2" y1="249.8" x2="153" y2="170"/>
<line class="st0" x1="21.8" y1="141.5" x2="153" y2="170"/>
<line class="st0" x1="255.6" y1="141.5" x2="153" y2="170"/>
<line class="st0" x1="329.8" y1="56" x2="403.9" y2="147.2"/>
<line class="st0" x1="255.6" y1="141.5" x2="301.2" y2="255.5"/>
<line class="st0" x1="90.2" y1="249.8" x2="301.2" y2="255.5"/>
<line class="st0" x1="255.6" y1="141.5" x2="403.9" y2="147.2"/>
<line class="st0" x1="215.7" y1="21.8" x2="153" y2="170"/>
<circle class="st1" cx="73.1" cy="33.2" r="21.8"/>
<circle class="st1" cx="215.7" cy="21.8" r="21.8"/>
<circle class="st1" cx="329.8" cy="56" r="21.8"/>
<circle class="st1" cx="403.9" cy="147.2" r="21.8"/>
<ellipse transform="matrix(0.1602 -0.9871 0.9871 0.1602 74.9845 371.1338)" class="st1" cx="255.6" cy="141.5" rx="21.8" ry="21.8"/>
<circle class="st1" cx="21.8" cy="141.5" r="21.8"/>
<circle class="st1" cx="153" cy="170" r="21.8"/>
<circle class="st1" cx="90.2" cy="249.8" r="21.8"/>
<circle class="st1" cx="301.2" cy="255.5" r="21.8"/>
</svg>
