<?xml version="1.0" encoding="utf-8"?>
<!-- Generator: Adobe Illustrator 25.1.0, SVG Export Plug-In . SVG Version: 6.00 Build 0)  -->
<svg version="1.1" id="Layer_1" xmlns="http://www.w3.org/2000/svg" xmlns:xlink="http://www.w3.org/1999/xlink" x="0px" y="0px"
	 viewBox="0 0 342 486" style="enable-background:new 0 0 342 486;" xml:space="preserve">
<style type="text/css">
	.st0{fill:none;stroke:#FFFFFF;stroke-width:3;stroke-linecap:round;stroke-miterlimit:12;}
	.st1{fill:none;stroke:#FFFFFF;stroke-width:3;stroke-miterlimit:12;}
	.st2{fill:#FFFFFF;}
	.st3{enable-background:new    ;}
</style>
<g>
	<line class="st0" x1="119.6" y1="312" x2="119.6" y2="371.5"/>
	<line class="st0" x1="171.1" y1="282.2" x2="119.6" y2="312"/>
	<line class="st1" x1="108.6" y1="367.4" x2="69.9" y2="389.8"/>
	<line class="st1" x1="108.6" y1="316" x2="69.9" y2="293.7"/>
	<line class="st1" x1="180.1" y1="230.1" x2="180.1" y2="274.8"/>
	<line class="st1" x1="227.2" y1="135.9" x2="187" y2="112.7"/>
	<line class="st1" x1="222.7" y1="312" x2="258.3" y2="291.3"/>
	<line class="st1" x1="25.3" y1="364.1" x2="25.3" y2="319.4"/>
	<line class="st0" x1="222.7" y1="312" x2="171.1" y2="282.2"/>
	<line class="st1" x1="218.2" y1="130.7" x2="259.4" y2="106.9"/>
	<line class="st1" x1="227.2" y1="135.9" x2="262.9" y2="115.2"/>
	<line class="st1" x1="290.2" y1="291.3" x2="325.8" y2="311.9"/>
	<line class="st1" x1="159.6" y1="405.6" x2="144.8" y2="448.1"/>
	<line class="st1" x1="80.6" y1="437.9" x2="67.9" y2="401.3"/>
	<polyline class="st1" points="171.2,401.3 151.5,458 102.7,458 	"/>
	<polyline class="st1" points="274.3,265 274.3,222.6 222.7,192.8 	"/>
	<polyline class="st0" points="222.7,192.8 171.1,222.7 171.1,282.2 	"/>
	<polyline class="st0" points="119.6,371.5 171.1,401.2 222.7,371.5 222.7,312 	"/>
	<polyline class="st1" points="171.1,86.4 171.1,44 222.7,14.2 	"/>
	<polyline class="st1" points="155.2,112.7 119.5,133.3 68,103.5 	"/>
	<polyline class="st0" points="119.6,371.5 67.9,401.3 16.3,371.5 16.3,312 67.9,282.1 119.6,312 	"/>
</g>
<g>
	<polygon class="st2" points="221.3,192.8 215.3,129 227.2,135.9 229.6,134.5 224.1,192.8 	"/>
	<polygon class="st2" points="228.2,268.3 224.1,312 221.3,312 217.2,268.3 	"/>
	<g class="st3">
		<path class="st2" d="M54.3,467.2v-23.6h3.1v9.7h12.3v-9.7h3.1v23.6h-3.1V456H57.4v11.1H54.3z"/>
		<path class="st2" d="M78,467.2v-23.6h3.2l12.4,18.5v-18.5h3v23.6h-3.2L81,448.6v18.6H78z"/>
	</g>
	<g class="st3">
		<path class="st2" d="M264.8,293.1v-23.6h3.2l12.4,18.5v-18.5h3v23.6h-3.2l-12.4-18.6v18.6H264.8z"/>
	</g>
	<g class="st3">
		<path class="st2" d="M213.4,263.1v-23.6h3.1v9.7h12.3v-9.7h3.1v23.6h-3.1v-11.1h-12.3v11.1H213.4z"/>
	</g>
	<g class="st3">
		<path class="st2" d="M266,102.9c0-3.9,1.1-7,3.2-9.2c2.1-2.2,4.8-3.3,8.2-3.3c2.2,0,4.1,0.5,5.9,1.6s3.1,2.5,4,4.4
			c0.9,1.9,1.4,4,1.4,6.3c0,2.4-0.5,4.5-1.5,6.4s-2.3,3.3-4.1,4.3c-1.8,1-3.7,1.5-5.7,1.5c-2.2,0-4.2-0.5-6-1.6s-3.1-2.5-4-4.4
			S266,105,266,102.9z M269.2,103c0,2.8,0.8,5.1,2.3,6.7c1.5,1.6,3.5,2.5,5.8,2.5c2.4,0,4.3-0.8,5.8-2.5c1.5-1.7,2.3-4,2.3-7
			c0-1.9-0.3-3.6-1-5c-0.6-1.4-1.6-2.5-2.9-3.3c-1.3-0.8-2.7-1.2-4.2-1.2c-2.2,0-4.1,0.8-5.7,2.3C270,96.9,269.2,99.4,269.2,103z"/>
	</g>
	<g class="st3">
		<path class="st2" d="M161.7,114.5V90.8h3.2l12.4,18.5V90.8h3v23.6h-3.2l-12.4-18.6v18.6H161.7z"/>
	</g>
</g>
</svg>
