<?xml version="1.0" encoding="utf-8"?>
<!-- Generator: Adobe Illustrator 25.1.0, SVG Export Plug-In . SVG Version: 6.00 Build 0)  -->
<svg version="1.1" xmlns="http://www.w3.org/2000/svg" xmlns:xlink="http://www.w3.org/1999/xlink" x="0px" y="0px"
	 viewBox="0 0 1635.22 1224.79" style="enable-background:new 0 0 1635.22 1224.79;" xml:space="preserve">
<style type="text/css">
	.st0{fill:none;stroke:#4C4C4C;stroke-width:2;stroke-miterlimit:10;}
	.st1{fill:none;stroke:#4C4C4C;stroke-width:2;stroke-miterlimit:10;stroke-dasharray:12.0796,12.0796;}
	.st2{fill:#4C4C4C;}
	.st3{fill:none;stroke:#2DC6D6;stroke-width:2;stroke-linecap:round;stroke-miterlimit:10;}
	.st4{fill:#2DC6D6;}
	.st5{fill:#CCCC33;}
	.st6{fill:none;stroke:#406ADD;stroke-width:2;stroke-linecap:round;stroke-miterlimit:10;}
	.st7{fill:#406ADD;}
	.st8{fill:none;stroke:#FFBD33;stroke-width:2;stroke-linecap:round;stroke-miterlimit:10;}
	.st9{fill:#FFBD33;}
	.st10{fill:none;stroke:#FFBD33;stroke-width:2;stroke-miterlimit:10;}
	.st11{fill:#98A6AD;}
	.st12{fill:#FFBD33;stroke:#4C4C4C;stroke-linecap:round;stroke-miterlimit:10;}
	.st13{fill:#D63D2D;}
	.st14{fill:#2DC6D6;stroke:#4C4C4C;stroke-linecap:round;stroke-miterlimit:10;}
	.st15{fill:#406ADD;stroke:#4C4C4C;stroke-linecap:round;stroke-miterlimit:10;}
	.st16{fill:none;stroke:#406ADD;stroke-width:2;stroke-miterlimit:10;}
	.st17{fill:none;stroke:#2DC6D6;stroke-width:2;stroke-miterlimit:10;}
	.st18{fill:#FCFCFC;stroke:#4C4C4C;stroke-width:2;stroke-miterlimit:10;}
	.st19{fill:none;stroke:#FFFFFF;stroke-width:2;stroke-linecap:round;stroke-miterlimit:10;}
	.st20{fill:#FFFFFF;}
	.st21{fill:none;stroke:#FFFFFF;stroke-width:2;stroke-miterlimit:10;}
	.st22{fill:#FFFFFF;stroke:#FFFFFF;stroke-miterlimit:10;}
	.st23{fill:none;stroke:#98A6AD;stroke-width:2;stroke-miterlimit:10;}
</style>
<g id="Separators">
	<g id="separator_x5F_left">
		<g>
			<line class="st0" x1="595.31" y1="119.2" x2="595.31" y2="125.2"/>
			<line class="st1" x1="595.31" y1="137.28" x2="595.31" y2="1170.08"/>
			<line class="st0" x1="595.31" y1="1176.12" x2="595.31" y2="1182.12"/>
		</g>
	</g>
	<g id="separator_x5F_left_1_">
		<g>
			<line class="st0" x1="1113.57" y1="119.2" x2="1113.57" y2="125.2"/>
			<line class="st1" x1="1113.57" y1="137.28" x2="1113.57" y2="1170.08"/>
			<line class="st0" x1="1113.57" y1="1176.12" x2="1113.57" y2="1182.12"/>
		</g>
	</g>
</g>
<g id="Section_x5F_Left">
	<g id="Arrows_1_">
		<g>
			<line class="st2" x1="448.06" y1="901.42" x2="373.44" y2="793.11"/>
			<g>
				<line class="st3" x1="448.06" y1="901.42" x2="380.22" y2="802.94"/>
				<g>
					<polygon class="st4" points="389.5,803.37 381.62,804.98 377.3,811.77 373.44,793.11 					"/>
				</g>
			</g>
		</g>
		<g>
			<line class="st5" x1="293.45" y1="468.17" x2="218.83" y2="251.55"/>
			<g>
				<line class="st3" x1="293.45" y1="468.17" x2="222.72" y2="262.84"/>
				<g>
					<polygon class="st4" points="231.55,265.74 223.52,265.17 217.55,270.56 218.83,251.55 					"/>
				</g>
			</g>
		</g>
		<g>
			<line class="st5" x1="293.45" y1="468.17" x2="218.83" y2="359.86"/>
			<g>
				<line class="st3" x1="293.45" y1="468.17" x2="225.6" y2="369.69"/>
				<g>
					<polygon class="st4" points="234.89,370.12 227.01,371.73 222.69,378.52 218.83,359.86 					"/>
				</g>
			</g>
		</g>
		<g>
			<line class="st5" x1="293.45" y1="793.11" x2="218.83" y2="359.86"/>
			<g>
				<line class="st3" x1="293.45" y1="793.11" x2="220.86" y2="371.63"/>
				<g>
					<polygon class="st4" points="229.11,375.91 221.28,374.06 214.51,378.42 218.83,359.86 					"/>
				</g>
			</g>
		</g>
		<g>
			<line class="st2" x1="217.28" y1="1009.74" x2="291.9" y2="793.11"/>
			<g>
				<line class="st3" x1="217.28" y1="1009.74" x2="288.01" y2="804.4"/>
				<g>
					<polygon class="st4" points="293.18,812.12 287.2,806.74 279.17,807.3 291.9,793.11 					"/>
				</g>
			</g>
		</g>
		<g>
			<line class="st5" x1="293.45" y1="793.11" x2="218.83" y2="576.49"/>
			<g>
				<line class="st3" x1="293.45" y1="793.11" x2="222.72" y2="587.77"/>
				<g>
					<polygon class="st4" points="231.55,590.67 223.52,590.11 217.55,595.5 218.83,576.49 					"/>
				</g>
			</g>
		</g>
		<g>
			<line class="st5" x1="217.28" y1="576.49" x2="291.9" y2="468.17"/>
			<g>
				<line class="st3" x1="217.28" y1="576.49" x2="285.12" y2="478.01"/>
				<g>
					<polygon class="st4" points="288.03,486.83 283.72,480.04 275.84,478.43 291.9,468.17 					"/>
				</g>
			</g>
		</g>
		<g>
			<g>
				<line class="st3" x1="293.45" y1="1118.05" x2="225.6" y2="1019.57"/>
				<g>
					<polygon class="st4" points="234.89,1019.99 227.01,1021.6 222.69,1028.4 218.83,1009.74 					"/>
				</g>
			</g>
		</g>
		<g>
			<g>
				<path class="st3" d="M293.32,793.18c-9.2-54.22-15.15-103.03-23.65-161.96c-12.4-85.97-13.04-90.46,16.89-152.13"/>
				<g>
					<polygon class="st4" points="290.83,487.39 285.53,481.33 277.49,480.94 291.8,468.36 					"/>
				</g>
			</g>
		</g>
		<g>
			<g>
				<path class="st6" d="M371.68,576.43c9.2-54.22,15.15-103.03,23.65-161.96c12.4-85.97,13.04-90.46-16.89-152.13"/>
				<g>
					<polygon class="st7" points="387.51,264.19 379.47,264.58 374.17,270.64 373.2,251.61 					"/>
				</g>
			</g>
		</g>
		<g>
			<g>
				<path class="st6" d="M371.68,576.43c10.12-65.33,16.41-124.49,17.65-142.98c1.14-17.07-1.12-37.05-11.38-62.63"/>
				<g>
					<polygon class="st7" points="386.88,373.13 378.83,373.13 373.25,378.92 373.2,359.86 					"/>
				</g>
			</g>
		</g>
		<g>
			<line class="st5" x1="371.89" y1="684.8" x2="446.51" y2="468.17"/>
			<g>
				<line class="st8" x1="371.89" y1="684.8" x2="442.62" y2="479.46"/>
				<g>
					<polygon class="st9" points="447.79,487.19 441.81,481.8 433.79,482.36 446.51,468.17 					"/>
				</g>
			</g>
		</g>
		<g>
			<line class="st5" x1="371.89" y1="684.8" x2="446.51" y2="359.86"/>
			<g>
				<line class="st8" x1="371.89" y1="684.8" x2="443.83" y2="371.5"/>
				<g>
					<polygon class="st9" points="449.79,378.63 443.28,373.91 435.36,375.31 446.51,359.86 					"/>
				</g>
			</g>
		</g>
		<g>
			<line class="st5" x1="217.28" y1="901.42" x2="291.9" y2="684.8"/>
			<g>
				<line class="st8" x1="217.28" y1="901.42" x2="288.01" y2="696.09"/>
				<g>
					<polygon class="st9" points="293.18,703.81 287.2,698.42 279.17,698.99 291.9,684.8 					"/>
				</g>
			</g>
		</g>
		<g>
			<line class="st2" x1="217.28" y1="1118.05" x2="291.9" y2="359.86"/>
			<g>
				<line class="st6" x1="217.28" y1="1118.05" x2="290.73" y2="371.74"/>
				<g>
					<polygon class="st7" points="297.55,378.06 290.48,374.2 282.81,376.61 291.9,359.86 					"/>
				</g>
			</g>
		</g>
		<g>
			<line class="st2" x1="448.06" y1="1118.05" x2="373.44" y2="576.49"/>
			<g>
				<line class="st6" x1="448.06" y1="1118.05" x2="375.07" y2="588.31"/>
				<g>
					<polygon class="st7" points="383.18,592.87 375.41,590.76 368.5,594.89 373.44,576.49 					"/>
				</g>
			</g>
		</g>
		<g>
			<g>
				<path class="st8" d="M258.86,929.51c23.28,13.87,86.71,44.57,114.11,25.97c23.4-15.89,44.78-148.65,55.92-263.67
					c8.9-91.79,14.39-180.39,16.21-211.73"/>
				<g>
					<polygon class="st9" points="452.16,486.12 444.95,482.56 437.38,485.28 445.77,468.17 					"/>
				</g>
			</g>
		</g>
		<g>
			<g>
				<path class="st8" d="M447.96,1009.2c-80.6-18.52-155-53.27-219.57-100.62"/>
				<g>
					<polygon class="st9" points="237.34,905.96 230.39,910.02 228.5,917.84 218.83,901.42 					"/>
				</g>
			</g>
		</g>
		<g>
			<g>
				<path class="st8" d="M371.89,900.89C382,835.56,388.3,776.4,389.53,757.91c1.14-17.07-1.12-37.05-11.38-62.63"/>
				<g>
					<polygon class="st9" points="387.09,697.59 379.04,697.59 373.45,703.38 373.41,684.32 					"/>
				</g>
			</g>
		</g>
		<g>
			<path class="st9" d="M546.88,421.72c10.51-8.71,11.84-10.69,11.84-13.79c0-2.77-1.87-4.5-4.5-4.5c-1.51,0-2.77,0.54-4.9,2.38
				l-2.41-2.81c2.48-2.23,4.68-3.31,8.03-3.31c4.97,0,8.6,3.06,8.6,8.03c0,4.86-3.89,8.6-9.79,13.07v0.07h9.75v3.74h-15.62
				L546.88,421.72z"/>
		</g>
		<g>
			<path class="st4" d="M426,854.97c10.51-8.71,11.84-10.69,11.84-13.79c0-2.77-1.87-4.5-4.5-4.5c-1.51,0-2.77,0.54-4.9,2.38
				l-2.41-2.81c2.48-2.23,4.68-3.31,8.03-3.31c4.97,0,8.6,3.06,8.6,8.03c0,4.86-3.89,8.6-9.79,13.07v0.07h9.75v3.74h-15.62
				L426,854.97z"/>
		</g>
		<g>
			<path class="st7" d="M411.07,1076.78c10.51-8.71,11.84-10.69,11.84-13.79c0-2.77-1.87-4.5-4.5-4.5c-1.51,0-2.77,0.54-4.9,2.38
				l-2.41-2.81c2.48-2.23,4.68-3.31,8.03-3.31c4.97,0,8.6,3.06,8.6,8.03c0,4.86-3.89,8.6-9.79,13.07v0.07h9.75v3.74h-15.62
				L411.07,1076.78z"/>
		</g>
		<g>
			<g>
				<path class="st10" d="M531.64,371.25c3.43,12.57,5.36,25.9,5.36,39.75c0,20.36-3.46,39.85-10.5,57.17"/>
				<g>
					<polygon class="st9" points="526.12,378.82 532.28,373.64 540.28,374.47 528.05,359.86 					"/>
				</g>
			</g>
		</g>
		<g>
			<g>
				<line class="st8" x1="448.06" y1="1009.74" x2="380.22" y2="911.26"/>
				<g>
					<polygon class="st9" points="389.5,911.68 381.62,913.29 377.3,920.08 373.44,901.42 					"/>
				</g>
			</g>
		</g>
	</g>
	<g id="time_x5F_lines">
		<line class="st0" x1="485.59" y1="187.47" x2="485.59" y2="325.8"/>
		<line class="st0" x1="485.59" y1="393.92" x2="485.59" y2="434.12"/>
		<line class="st0" x1="485.59" y1="502.23" x2="485.59" y2="867.37"/>
		<g>
			<g>
				<line class="st0" x1="485.59" y1="1152.11" x2="485.59" y2="1170.18"/>
				<g>
					<polygon class="st2" points="478.18,1164.57 485.59,1167.71 492.99,1164.57 485.59,1182.12 					"/>
				</g>
			</g>
		</g>
		<line class="st0" x1="485.59" y1="935.48" x2="485.59" y2="975.68"/>
		<line class="st0" x1="485.59" y1="1043.79" x2="485.59" y2="1083.99"/>
		<g>
			<path class="st11" d="M485.59,78.43c-22.52,0-40.77,18.25-40.77,40.77c0,22.52,18.25,40.77,40.77,40.77
				c22.52,0,40.77-18.25,40.77-40.77C526.36,96.68,508.11,78.43,485.59,78.43z M489.43,134.2c5.28,0,7.92-1.26,10.44-2.7l3.06,5.28
				c-3.84,2.7-8.52,4.02-13.2,4.02c-12.36,0-21.54-9.06-21.54-21.48c0-12.78,8.88-21.72,21.24-21.72c4.92,0,9.78,1.62,13.56,4.8
				l-3.36,5.34c-2.52-2.16-6.66-3.54-9.96-3.54c-8.1,0-13.44,6.48-13.44,14.76C476.23,126.88,481.69,134.2,489.43,134.2z"/>
		</g>
		<line class="st0" x1="330.98" y1="187.47" x2="330.98" y2="217.47"/>
		<line class="st0" x1="330.98" y1="285.61" x2="330.98" y2="325.8"/>
		<line class="st0" x1="330.98" y1="393.92" x2="330.98" y2="434.12"/>
		<line class="st0" x1="330.98" y1="502.23" x2="330.98" y2="542.43"/>
		<line class="st0" x1="330.98" y1="610.54" x2="330.98" y2="650.74"/>
		<line class="st0" x1="330.98" y1="718.86" x2="330.98" y2="759.05"/>
		<line class="st0" x1="330.98" y1="827.17" x2="330.98" y2="867.37"/>
		<g>
			<g>
				<line class="st0" x1="330.98" y1="1152.11" x2="330.98" y2="1170.18"/>
				<g>
					<polygon class="st2" points="323.57,1164.57 330.98,1167.71 338.38,1164.57 330.98,1182.12 					"/>
				</g>
			</g>
		</g>
		<line class="st0" x1="330.98" y1="935.48" x2="330.98" y2="1083.99"/>
		<g>
			<g>
				<path class="st11" d="M337.07,110.08c0-3.78-2.7-5.76-7.26-5.76h-4.86l-0.06,11.76h4.5
					C333.41,116.08,337.07,114.28,337.07,110.08z"/>
			</g>
			<g>
				<path class="st11" d="M329.09,121.96h-4.26l-0.18,12.12h5.22c4.98,0.06,7.56-2.22,7.56-5.76
					C337.43,124.12,334.73,121.96,329.09,121.96z"/>
			</g>
			<g>
				<path class="st11" d="M330.98,78.43c-22.52,0-40.77,18.25-40.77,40.77c0,22.52,18.25,40.77,40.77,40.77
					c22.52,0,40.77-18.25,40.77-40.77C371.75,96.68,353.5,78.43,330.98,78.43z M331.97,139.96h-15.12l0.42-41.52h14.16
					c7.92,0,12.96,4.44,12.96,10.68c0,5.64-3.18,9.24-7.26,9.72v0.12c5.04,0.78,7.98,4.68,7.98,9.72
					C345.11,135.58,339.83,139.96,331.97,139.96z"/>
			</g>
		</g>
		<g>
			<g>
				<polygon class="st11" points="181.59,106.06 176.37,122.26 186.51,122.26 181.71,106.06 				"/>
			</g>
			<g>
				<path class="st11" d="M181.26,78.43c-22.52,0-40.77,18.25-40.77,40.77c0,22.52,18.25,40.77,40.77,40.77s40.77-18.25,40.77-40.77
					C222.03,96.68,203.78,78.43,181.26,78.43z M192.69,140.38l-4.08-11.88h-14.46l-4.68,11.88l-7.14-2.16l15.96-40.2h7.08
					l14.82,40.2L192.69,140.38z"/>
			</g>
		</g>
		<line class="st0" x1="176.37" y1="187.47" x2="176.37" y2="217.47"/>
		<line class="st0" x1="176.37" y1="285.61" x2="176.37" y2="325.8"/>
		<line class="st0" x1="176.37" y1="393.92" x2="176.37" y2="542.43"/>
		<line class="st0" x1="176.37" y1="610.54" x2="176.37" y2="867.37"/>
		<g>
			<g>
				<line class="st0" x1="176.37" y1="1152.11" x2="176.37" y2="1170.18"/>
				<g>
					<polygon class="st2" points="168.96,1164.57 176.37,1167.71 183.77,1164.57 176.37,1182.12 					"/>
				</g>
			</g>
		</g>
		<line class="st0" x1="176.37" y1="935.48" x2="176.37" y2="975.68"/>
		<line class="st0" x1="176.37" y1="1043.79" x2="176.37" y2="1083.99"/>
	</g>
	<g id="Files">
		<g>
			<path class="st12" d="M443.13,359.86"/>
			<path class="st9" d="M446.51,333.57v52.57c0,4.28,3.49,7.77,7.77,7.77h66c4.28,0,7.77-3.49,7.77-7.77v-38.54
				c0-0.37-0.13-0.73-0.37-1.01l-20.62-20.25c-0.02-0.02-0.04-0.04-0.06-0.06c-0.02-0.02-0.04-0.04-0.07-0.06
				c-0.13-0.12-0.27-0.22-0.43-0.29c-0.02-0.01-0.04-0.01-0.06-0.02c-0.18-0.07-0.37-0.11-0.56-0.11h-51.6
				C449.99,325.8,446.5,329.29,446.51,333.57z M523.18,346.1H512.1c-2.58,0-4.66-2.09-4.66-4.66v-9.86L523.18,346.1z M449.61,333.57
				c0-2.58,2.09-4.66,4.66-4.66h50.05v12.53c0,4.29,3.48,7.77,7.77,7.77h12.85c0,1.31,0,5.47,0,10.65c0,8.88,0,20.75,0,26.29
				c0,0.31-0.03,1.96-1.37,3.3c-0.84,0.84-2.01,1.37-3.3,1.37h-66c-2.58,0-4.66-2.09-4.66-4.66V333.57z"/>
			<path class="st13" d="M514.07,363.86h-53.59c-2.21,0-4-1.79-4-4s1.79-4,4-4h53.59c2.21,0,4,1.79,4,4S516.28,363.86,514.07,363.86
				z"/>
			<path class="st13" d="M514.07,380.14h-53.59c-2.21,0-4-1.79-4-4s1.79-4,4-4h53.59c2.21,0,4,1.79,4,4S516.28,380.14,514.07,380.14
				z"/>
			<polyline class="st9" points="528.05,359.86 526.5,359.86 524.94,359.86 			"/>
			<polyline class="st9" points="449.61,359.86 448.06,359.86 446.51,359.86 			"/>
			<path class="st13" d="M471.07,339.58C471.07,339.58,471.07,339.58,471.07,339.58l-10.59,0c-2.21,0-4,1.79-4,4s1.79,4,4,4h10.59
				c0,0,0,0,0,0v0h36.27c-1.84-1.42-3.02-3.64-3.02-6.14v-1.86L471.07,339.58L471.07,339.58z"/>
		</g>
		<g>
			<path class="st12" d="M443.13,468.17"/>
			<path class="st9" d="M446.51,441.89v52.57c0,4.28,3.49,7.77,7.77,7.77h66c4.28,0,7.77-3.49,7.77-7.77v-38.54
				c0-0.37-0.13-0.73-0.37-1.01l-20.62-20.25c-0.02-0.02-0.04-0.04-0.06-0.06c-0.02-0.02-0.04-0.04-0.07-0.06
				c-0.13-0.12-0.27-0.22-0.43-0.29c-0.02-0.01-0.04-0.01-0.06-0.02c-0.18-0.07-0.37-0.11-0.56-0.11h-51.6
				C449.99,434.12,446.5,437.6,446.51,441.89z M523.18,454.41H512.1c-2.58,0-4.66-2.09-4.66-4.66v-9.86L523.18,454.41z
				 M449.61,441.89c0-2.58,2.09-4.66,4.66-4.66h50.05v12.53c0,4.29,3.48,7.77,7.77,7.77h12.85c0,1.31,0,5.47,0,10.65
				c0,8.88,0,20.75,0,26.29c0,0.31-0.03,1.96-1.37,3.3c-0.84,0.84-2.01,1.37-3.3,1.37h-66c-2.58,0-4.66-2.09-4.66-4.66V441.89z"/>
			<path class="st13" d="M514.07,472.17h-53.59c-2.21,0-4-1.79-4-4s1.79-4,4-4h53.59c2.21,0,4,1.79,4,4S516.28,472.17,514.07,472.17
				z"/>
			<path class="st13" d="M514.07,488.45h-53.59c-2.21,0-4-1.79-4-4s1.79-4,4-4h53.59c2.21,0,4,1.79,4,4S516.28,488.45,514.07,488.45
				z"/>
			<polyline class="st9" points="528.05,468.17 526.5,468.17 524.94,468.17 			"/>
			<polyline class="st9" points="449.61,468.17 448.06,468.17 446.51,468.17 			"/>
			<path class="st9" d="M471.07,447.89C471.07,447.89,471.07,447.89,471.07,447.89l-10.59,0c-2.21,0-4,1.79-4,4s1.79,4,4,4h10.59
				c0,0,0,0,0,0v0h36.27c-1.84-1.42-3.02-3.64-3.02-6.14v-1.86L471.07,447.89L471.07,447.89z"/>
		</g>
		<g>
			<path class="st14" d="M443.13,901.42"/>
			<path class="st4" d="M446.51,875.14v52.57c0,4.28,3.49,7.77,7.77,7.77h66c4.28,0,7.77-3.49,7.77-7.77v-38.54
				c0-0.37-0.13-0.73-0.37-1.01l-20.62-20.25c-0.02-0.02-0.04-0.04-0.06-0.06c-0.02-0.02-0.04-0.04-0.07-0.06
				c-0.13-0.12-0.27-0.22-0.43-0.29c-0.02-0.01-0.04-0.01-0.06-0.02c-0.18-0.07-0.37-0.11-0.56-0.11h-51.6
				C449.99,867.37,446.5,870.85,446.51,875.14z M523.18,887.66H512.1c-2.58,0-4.66-2.09-4.66-4.66v-9.86L523.18,887.66z
				 M449.61,875.14c0-2.58,2.09-4.66,4.66-4.66h50.05V883c0,4.29,3.48,7.77,7.77,7.77h12.85c0,1.31,0,5.47,0,10.65
				c0,8.88,0,20.75,0,26.29c0,0.31-0.03,1.96-1.37,3.3c-0.84,0.84-2.01,1.37-3.3,1.37h-66c-2.58,0-4.66-2.09-4.66-4.66V875.14z"/>
			<path class="st4" d="M514.07,905.42h-53.59c-2.21,0-4-1.79-4-4s1.79-4,4-4h53.59c2.21,0,4,1.79,4,4S516.28,905.42,514.07,905.42z
				"/>
			<path class="st13" d="M514.07,921.7h-53.59c-2.21,0-4-1.79-4-4s1.79-4,4-4h53.59c2.21,0,4,1.79,4,4S516.28,921.7,514.07,921.7z"
				/>
			<polyline class="st4" points="528.05,901.42 526.5,901.42 524.94,901.42 			"/>
			<polyline class="st4" points="449.61,901.42 448.06,901.42 446.51,901.42 			"/>
			<path class="st13" d="M471.07,881.14C471.07,881.14,471.07,881.14,471.07,881.14l-10.59,0c-2.21,0-4,1.79-4,4s1.79,4,4,4h10.59
				c0,0,0,0,0,0v0h36.27c-1.84-1.42-3.02-3.64-3.02-6.14v-1.86L471.07,881.14L471.07,881.14z"/>
		</g>
		<g>
			<path class="st12" d="M443.13,1009.74"/>
			<path class="st9" d="M446.51,983.45v52.57c0,4.28,3.49,7.77,7.77,7.77h66c4.28,0,7.77-3.49,7.77-7.77v-38.54
				c0-0.37-0.13-0.73-0.37-1.01l-20.62-20.25c-0.02-0.02-0.04-0.04-0.06-0.06c-0.02-0.02-0.04-0.04-0.07-0.06
				c-0.13-0.12-0.27-0.22-0.43-0.29c-0.02-0.01-0.04-0.01-0.06-0.02c-0.18-0.07-0.37-0.11-0.56-0.11h-51.6
				C449.99,975.68,446.5,979.17,446.51,983.45z M523.18,995.98H512.1c-2.58,0-4.66-2.09-4.66-4.66v-9.86L523.18,995.98z
				 M449.61,983.45c0-2.58,2.09-4.66,4.66-4.66h50.05v12.53c0,4.29,3.48,7.77,7.77,7.77h12.85c0,1.31,0,5.47,0,10.65
				c0,8.88,0,20.75,0,26.29c0,0.31-0.03,1.96-1.37,3.3c-0.84,0.84-2.01,1.37-3.3,1.37h-66c-2.58,0-4.66-2.09-4.66-4.66V983.45z"/>
			<path class="st13" d="M514.07,1013.74h-53.59c-2.21,0-4-1.79-4-4s1.79-4,4-4h53.59c2.21,0,4,1.79,4,4
				S516.28,1013.74,514.07,1013.74z"/>
			<path class="st9" d="M514.07,1030.02h-53.59c-2.21,0-4-1.79-4-4c0-2.21,1.79-4,4-4h53.59c2.21,0,4,1.79,4,4
				C518.07,1028.22,516.28,1030.02,514.07,1030.02z"/>
			<polyline class="st9" points="528.05,1009.74 526.5,1009.74 524.94,1009.74 			"/>
			<polyline class="st9" points="449.61,1009.74 448.06,1009.74 446.51,1009.74 			"/>
			<path class="st13" d="M471.07,989.46C471.07,989.46,471.07,989.46,471.07,989.46l-10.59,0c-2.21,0-4,1.79-4,4s1.79,4,4,4h10.59
				c0,0,0,0,0,0v0h36.27c-1.84-1.42-3.02-3.64-3.02-6.14v-1.86L471.07,989.46L471.07,989.46z"/>
		</g>
		<g>
			<path class="st15" d="M443.13,1118.05"/>
			<path class="st7" d="M446.51,1091.76v52.57c0,4.28,3.49,7.77,7.77,7.77h66c4.28,0,7.77-3.49,7.77-7.77v-38.54
				c0-0.37-0.13-0.73-0.37-1.01l-20.62-20.25c-0.02-0.02-0.04-0.04-0.06-0.06c-0.02-0.02-0.04-0.04-0.07-0.06
				c-0.13-0.12-0.27-0.22-0.43-0.29c-0.02-0.01-0.04-0.01-0.06-0.02c-0.18-0.07-0.37-0.11-0.56-0.11h-51.6
				C449.99,1083.99,446.5,1087.48,446.51,1091.76z M523.18,1104.29H512.1c-2.58,0-4.66-2.09-4.66-4.66v-9.86L523.18,1104.29z
				 M449.61,1091.76c0-2.58,2.09-4.66,4.66-4.66h50.05v12.53c0,4.29,3.48,7.77,7.77,7.77h12.85c0,1.31,0,5.47,0,10.65
				c0,8.88,0,20.75,0,26.29c0,0.31-0.03,1.96-1.37,3.3c-0.84,0.84-2.01,1.37-3.3,1.37h-66c-2.58,0-4.66-2.09-4.66-4.66V1091.76z"/>
			<path class="st13" d="M514.07,1122.05h-53.59c-2.21,0-4-1.79-4-4s1.79-4,4-4h53.59c2.21,0,4,1.79,4,4
				S516.28,1122.05,514.07,1122.05z"/>
			<path class="st7" d="M514.07,1138.33h-53.59c-2.21,0-4-1.79-4-4s1.79-4,4-4h53.59c2.21,0,4,1.79,4,4
				S516.28,1138.33,514.07,1138.33z"/>
			<polyline class="st7" points="528.05,1118.05 526.5,1118.05 524.94,1118.05 			"/>
			<polyline class="st7" points="449.61,1118.05 448.06,1118.05 446.51,1118.05 			"/>
			<path class="st13" d="M471.07,1097.77C471.07,1097.77,471.07,1097.77,471.07,1097.77l-10.59,0c-2.21,0-4,1.79-4,4s1.79,4,4,4
				h10.59c0,0,0,0,0,0v0h36.27c-1.84-1.42-3.02-3.64-3.02-6.14v-1.86L471.07,1097.77L471.07,1097.77z"/>
		</g>
		<g>
			<path class="st14" d="M133.9,359.86"/>
			<path class="st4" d="M137.29,333.57v52.57c0,4.28,3.49,7.77,7.77,7.77h66c4.28,0,7.77-3.49,7.77-7.77v-38.54
				c0-0.37-0.13-0.73-0.37-1.01l-20.62-20.25c-0.02-0.02-0.04-0.04-0.06-0.06c-0.02-0.02-0.04-0.04-0.07-0.06
				c-0.13-0.12-0.27-0.22-0.43-0.29c-0.02-0.01-0.04-0.01-0.06-0.02c-0.18-0.07-0.37-0.11-0.56-0.11h-51.6
				C140.77,325.8,137.28,329.29,137.29,333.57z M213.96,346.1h-11.08c-2.58,0-4.66-2.09-4.66-4.66v-9.86L213.96,346.1z
				 M140.39,333.57c0-2.58,2.09-4.66,4.66-4.66h50.05v12.53c0,4.29,3.48,7.77,7.77,7.77h12.85c0,1.31,0,5.47,0,10.65
				c0,8.88,0,20.75,0,26.29c0,0.31-0.03,1.96-1.37,3.3c-0.84,0.84-2.01,1.37-3.3,1.37h-66c-2.58,0-4.66-2.09-4.66-4.66V333.57z"/>
			<path class="st4" d="M204.85,363.86h-53.59c-2.21,0-4-1.79-4-4s1.79-4,4-4h53.59c2.21,0,4,1.79,4,4S207.06,363.86,204.85,363.86z
				"/>
			<path class="st13" d="M204.85,380.14h-53.59c-2.21,0-4-1.79-4-4s1.79-4,4-4h53.59c2.21,0,4,1.79,4,4S207.06,380.14,204.85,380.14
				z"/>
			<polyline class="st4" points="218.83,359.86 217.28,359.86 215.72,359.86 			"/>
			<polyline class="st4" points="140.39,359.86 138.84,359.86 137.29,359.86 			"/>
			<path class="st13" d="M161.85,339.58C161.85,339.58,161.85,339.58,161.85,339.58l-10.59,0c-2.21,0-4,1.79-4,4s1.79,4,4,4h10.59
				c0,0,0,0,0,0v0h36.27c-1.84-1.42-3.02-3.64-3.02-6.14v-1.86L161.85,339.58L161.85,339.58z"/>
		</g>
		<g>
			<path class="st14" d="M133.9,576.49"/>
			<path class="st4" d="M137.29,550.2v52.57c0,4.28,3.49,7.77,7.77,7.77h66c4.28,0,7.77-3.49,7.77-7.77v-38.54
				c0-0.37-0.13-0.73-0.37-1.01l-20.62-20.25c-0.02-0.02-0.04-0.04-0.06-0.06c-0.02-0.02-0.04-0.04-0.07-0.06
				c-0.13-0.12-0.27-0.22-0.43-0.29c-0.02-0.01-0.04-0.01-0.06-0.02c-0.18-0.07-0.37-0.11-0.56-0.11h-51.6
				C140.77,542.43,137.28,545.91,137.29,550.2z M213.96,562.73h-11.08c-2.58,0-4.66-2.09-4.66-4.66v-9.86L213.96,562.73z
				 M140.39,550.2c0-2.58,2.09-4.66,4.66-4.66h50.05v12.53c0,4.29,3.48,7.77,7.77,7.77h12.85c0,1.31,0,5.47,0,10.65
				c0,8.88,0,20.75,0,26.29c0,0.31-0.03,1.96-1.37,3.3c-0.84,0.84-2.01,1.37-3.3,1.37h-66c-2.58,0-4.66-2.09-4.66-4.66V550.2z"/>
			<path class="st13" d="M204.85,580.49h-53.59c-2.21,0-4-1.79-4-4s1.79-4,4-4h53.59c2.21,0,4,1.79,4,4S207.06,580.49,204.85,580.49
				z"/>
			<path class="st4" d="M204.85,596.77h-53.59c-2.21,0-4-1.79-4-4s1.79-4,4-4h53.59c2.21,0,4,1.79,4,4S207.06,596.77,204.85,596.77z
				"/>
			<polyline class="st4" points="218.83,576.49 217.28,576.49 215.72,576.49 			"/>
			<polyline class="st4" points="140.39,576.49 138.84,576.49 137.29,576.49 			"/>
			<path class="st4" d="M161.85,556.21C161.85,556.21,161.85,556.21,161.85,556.21l-10.59,0c-2.21,0-4,1.79-4,4s1.79,4,4,4h10.59
				c0,0,0,0,0,0v0h36.27c-1.84-1.42-3.02-3.64-3.02-6.14v-1.86L161.85,556.21L161.85,556.21z"/>
		</g>
		<g>
			<path class="st12" d="M133.9,901.42"/>
			<path class="st9" d="M137.29,875.14v52.57c0,4.28,3.49,7.77,7.77,7.77h66c4.28,0,7.77-3.49,7.77-7.77v-38.54
				c0-0.37-0.13-0.73-0.37-1.01l-20.62-20.25c-0.02-0.02-0.04-0.04-0.06-0.06c-0.02-0.02-0.04-0.04-0.07-0.06
				c-0.13-0.12-0.27-0.22-0.43-0.29c-0.02-0.01-0.04-0.01-0.06-0.02c-0.18-0.07-0.37-0.11-0.56-0.11h-51.6
				C140.77,867.37,137.28,870.85,137.29,875.14z M213.96,887.66h-11.08c-2.58,0-4.66-2.09-4.66-4.66v-9.86L213.96,887.66z
				 M140.39,875.14c0-2.58,2.09-4.66,4.66-4.66h50.05V883c0,4.29,3.48,7.77,7.77,7.77h12.85c0,1.31,0,5.47,0,10.65
				c0,8.88,0,20.75,0,26.29c0,0.31-0.03,1.96-1.37,3.3c-0.84,0.84-2.01,1.37-3.3,1.37h-66c-2.58,0-4.66-2.09-4.66-4.66V875.14z"/>
			<path class="st13" d="M204.85,905.42h-53.59c-2.21,0-4-1.79-4-4s1.79-4,4-4h53.59c2.21,0,4,1.79,4,4S207.06,905.42,204.85,905.42
				z"/>
			<path class="st13" d="M204.85,921.7h-53.59c-2.21,0-4-1.79-4-4s1.79-4,4-4h53.59c2.21,0,4,1.79,4,4S207.06,921.7,204.85,921.7z"
				/>
			<polyline class="st9" points="218.83,901.42 217.28,901.42 215.72,901.42 			"/>
			<polyline class="st9" points="140.39,901.42 138.84,901.42 137.29,901.42 			"/>
			<path class="st9" d="M161.85,881.14C161.85,881.14,161.85,881.14,161.85,881.14l-10.59,0c-2.21,0-4,1.79-4,4s1.79,4,4,4h10.59
				c0,0,0,0,0,0v0h36.27c-1.84-1.42-3.02-3.64-3.02-6.14v-1.86L161.85,881.14L161.85,881.14z"/>
		</g>
		<g>
			<path class="st14" d="M133.9,1009.74"/>
			<path class="st4" d="M137.29,983.45v52.57c0,4.28,3.49,7.77,7.77,7.77h66c4.28,0,7.77-3.49,7.77-7.77v-38.54
				c0-0.37-0.13-0.73-0.37-1.01l-20.62-20.25c-0.02-0.02-0.04-0.04-0.06-0.06c-0.02-0.02-0.04-0.04-0.07-0.06
				c-0.13-0.12-0.27-0.22-0.43-0.29c-0.02-0.01-0.04-0.01-0.06-0.02c-0.18-0.07-0.37-0.11-0.56-0.11h-51.6
				C140.77,975.68,137.28,979.17,137.29,983.45z M213.96,995.98h-11.08c-2.58,0-4.66-2.09-4.66-4.66v-9.86L213.96,995.98z
				 M140.39,983.45c0-2.58,2.09-4.66,4.66-4.66h50.05v12.53c0,4.29,3.48,7.77,7.77,7.77h12.85c0,1.31,0,5.47,0,10.65
				c0,8.88,0,20.75,0,26.29c0,0.31-0.03,1.96-1.37,3.3c-0.84,0.84-2.01,1.37-3.3,1.37h-66c-2.58,0-4.66-2.09-4.66-4.66V983.45z"/>
			<path class="st13" d="M204.85,1013.74h-53.59c-2.21,0-4-1.79-4-4s1.79-4,4-4h53.59c2.21,0,4,1.79,4,4
				S207.06,1013.74,204.85,1013.74z"/>
			<path class="st4" d="M204.85,1030.02h-53.59c-2.21,0-4-1.79-4-4c0-2.21,1.79-4,4-4h53.59c2.21,0,4,1.79,4,4
				C208.85,1028.22,207.06,1030.02,204.85,1030.02z"/>
			<polyline class="st4" points="218.83,1009.74 217.28,1009.74 215.72,1009.74 			"/>
			<polyline class="st4" points="140.39,1009.74 138.84,1009.74 137.29,1009.74 			"/>
			<path class="st4" d="M161.85,989.46C161.85,989.46,161.85,989.46,161.85,989.46l-10.59,0c-2.21,0-4,1.79-4,4s1.79,4,4,4h10.59
				c0,0,0,0,0,0v0h36.27c-1.84-1.42-3.02-3.64-3.02-6.14v-1.86L161.85,989.46L161.85,989.46z"/>
		</g>
		<g>
			<path class="st15" d="M133.9,1118.05"/>
			<path class="st7" d="M137.29,1091.76v52.57c0,4.28,3.49,7.77,7.77,7.77h66c4.28,0,7.77-3.49,7.77-7.77v-38.54
				c0-0.37-0.13-0.73-0.37-1.01l-20.62-20.25c-0.02-0.02-0.04-0.04-0.06-0.06c-0.02-0.02-0.04-0.04-0.07-0.06
				c-0.13-0.12-0.27-0.22-0.43-0.29c-0.02-0.01-0.04-0.01-0.06-0.02c-0.18-0.07-0.37-0.11-0.56-0.11h-51.6
				C140.77,1083.99,137.28,1087.48,137.29,1091.76z M213.96,1104.29h-11.08c-2.58,0-4.66-2.09-4.66-4.66v-9.86L213.96,1104.29z
				 M140.39,1091.76c0-2.58,2.09-4.66,4.66-4.66h50.05v12.53c0,4.29,3.48,7.77,7.77,7.77h12.85c0,1.31,0,5.47,0,10.65
				c0,8.88,0,20.75,0,26.29c0,0.31-0.03,1.96-1.37,3.3c-0.84,0.84-2.01,1.37-3.3,1.37h-66c-2.58,0-4.66-2.09-4.66-4.66V1091.76z"/>
			<path class="st7" d="M204.85,1122.05h-53.59c-2.21,0-4-1.79-4-4s1.79-4,4-4h53.59c2.21,0,4,1.79,4,4
				S207.06,1122.05,204.85,1122.05z"/>
			<path class="st13" d="M204.85,1138.33h-53.59c-2.21,0-4-1.79-4-4s1.79-4,4-4h53.59c2.21,0,4,1.79,4,4
				S207.06,1138.33,204.85,1138.33z"/>
			<polyline class="st7" points="218.83,1118.05 217.28,1118.05 215.72,1118.05 			"/>
			<polyline class="st7" points="140.39,1118.05 138.84,1118.05 137.29,1118.05 			"/>
			<path class="st7" d="M161.85,1097.77C161.85,1097.77,161.85,1097.77,161.85,1097.77l-10.59,0c-2.21,0-4,1.79-4,4s1.79,4,4,4
				h10.59c0,0,0,0,0,0v0h36.27c-1.84-1.42-3.02-3.64-3.02-6.14v-1.86L161.85,1097.77L161.85,1097.77z"/>
		</g>
		<g>
			<path class="st14" d="M133.9,251.55"/>
			<path class="st4" d="M137.29,225.26v52.57c0,4.28,3.49,7.77,7.77,7.77h66c4.28,0,7.77-3.49,7.77-7.77v-38.54
				c0-0.37-0.13-0.73-0.37-1.01l-20.62-20.25c-0.02-0.02-0.04-0.04-0.06-0.06c-0.02-0.02-0.04-0.04-0.07-0.06
				c-0.13-0.12-0.27-0.22-0.43-0.29c-0.02-0.01-0.04-0.01-0.06-0.02c-0.18-0.07-0.37-0.11-0.56-0.11h-51.6
				C140.77,217.49,137.28,220.98,137.29,225.26z M213.96,237.79h-11.08c-2.58,0-4.66-2.09-4.66-4.66v-9.86L213.96,237.79z
				 M140.39,225.26c0-2.58,2.09-4.66,4.66-4.66h50.05v12.53c0,4.29,3.48,7.77,7.77,7.77h12.85c0,1.31,0,5.47,0,10.65
				c0,8.88,0,20.75,0,26.29c0,0.31-0.03,1.96-1.37,3.3c-0.84,0.84-2.01,1.37-3.3,1.37h-66c-2.58,0-4.66-2.09-4.66-4.66V225.26z"/>
			<path class="st13" d="M204.85,255.55h-53.59c-2.21,0-4-1.79-4-4s1.79-4,4-4h53.59c2.21,0,4,1.79,4,4S207.06,255.55,204.85,255.55
				z"/>
			<path class="st4" d="M204.85,271.83h-53.59c-2.21,0-4-1.79-4-4s1.79-4,4-4h53.59c2.21,0,4,1.79,4,4S207.06,271.83,204.85,271.83z
				"/>
			<polyline class="st4" points="218.83,251.55 217.28,251.55 215.72,251.55 			"/>
			<polyline class="st4" points="140.39,251.55 138.84,251.55 137.29,251.55 			"/>
			<path class="st4" d="M161.85,231.27C161.85,231.27,161.85,231.27,161.85,231.27l-10.59,0c-2.21,0-4,1.79-4,4s1.79,4,4,4h10.59
				c0,0,0,0,0,0v0h36.27c-1.84-1.42-3.02-3.64-3.02-6.14v-1.86L161.85,231.27L161.85,231.27z"/>
		</g>
		<g>
			<path class="st15" d="M288.52,359.86"/>
			<path class="st7" d="M291.9,333.57v52.57c0,4.28,3.49,7.77,7.77,7.77h66c4.28,0,7.77-3.49,7.77-7.77v-38.54
				c0-0.37-0.13-0.73-0.37-1.01l-20.62-20.25c-0.02-0.02-0.04-0.04-0.06-0.06c-0.02-0.02-0.04-0.04-0.07-0.06
				c-0.13-0.12-0.27-0.22-0.43-0.29c-0.02-0.01-0.04-0.01-0.06-0.02c-0.18-0.07-0.37-0.11-0.56-0.11h-51.6
				C295.38,325.8,291.89,329.29,291.9,333.57z M368.57,346.1h-11.08c-2.58,0-4.66-2.09-4.66-4.66v-9.86L368.57,346.1z M295,333.57
				c0-2.58,2.09-4.66,4.66-4.66h50.05v12.53c0,4.29,3.48,7.77,7.77,7.77h12.85c0,1.31,0,5.47,0,10.65c0,8.88,0,20.75,0,26.29
				c0,0.31-0.03,1.96-1.37,3.3c-0.84,0.84-2.01,1.37-3.3,1.37h-66c-2.58,0-4.66-2.09-4.66-4.66V333.57z"/>
			<path class="st13" d="M359.46,363.86h-53.59c-2.21,0-4-1.79-4-4s1.79-4,4-4h53.59c2.21,0,4,1.79,4,4S361.67,363.86,359.46,363.86
				z"/>
			<path class="st13" d="M359.46,380.14h-53.59c-2.21,0-4-1.79-4-4s1.79-4,4-4h53.59c2.21,0,4,1.79,4,4S361.67,380.14,359.46,380.14
				z"/>
			<polyline class="st7" points="373.44,359.86 371.89,359.86 370.33,359.86 			"/>
			<polyline class="st7" points="295,359.86 293.45,359.86 291.9,359.86 			"/>
			<path class="st7" d="M316.46,339.58C316.46,339.58,316.46,339.58,316.46,339.58l-10.59,0c-2.21,0-4,1.79-4,4s1.79,4,4,4h10.59
				c0,0,0,0,0,0v0h36.27c-1.84-1.42-3.02-3.64-3.02-6.14v-1.86L316.46,339.58L316.46,339.58z"/>
		</g>
		<g>
			<path class="st4" d="M288.52,468.17"/>
			<path class="st4" d="M291.9,441.89v52.57c0,4.28,3.49,7.77,7.77,7.77h66c4.28,0,7.77-3.49,7.77-7.77v-38.54
				c0-0.37-0.13-0.73-0.37-1.01l-20.62-20.25c-0.02-0.02-0.04-0.04-0.06-0.06c-0.02-0.02-0.04-0.04-0.07-0.06
				c-0.13-0.12-0.27-0.22-0.43-0.29c-0.02-0.01-0.04-0.01-0.06-0.02c-0.18-0.07-0.37-0.11-0.56-0.11h-51.6
				C295.38,434.12,291.89,437.6,291.9,441.89z M368.57,454.41h-11.08c-2.58,0-4.66-2.09-4.66-4.66v-9.86L368.57,454.41z M295,441.89
				c0-2.58,2.09-4.66,4.66-4.66h50.05v12.53c0,4.29,3.48,7.77,7.77,7.77h12.85c0,1.31,0,5.47,0,10.65c0,8.88,0,20.75,0,26.29
				c0,0.31-0.03,1.96-1.37,3.3c-0.84,0.84-2.01,1.37-3.3,1.37h-66c-2.58,0-4.66-2.09-4.66-4.66V441.89z"/>
			<path class="st13" d="M359.46,472.17h-53.59c-2.21,0-4-1.79-4-4s1.79-4,4-4h53.59c2.21,0,4,1.79,4,4S361.67,472.17,359.46,472.17
				z"/>
			<path class="st4" d="M359.46,488.45h-53.59c-2.21,0-4-1.79-4-4s1.79-4,4-4h53.59c2.21,0,4,1.79,4,4S361.67,488.45,359.46,488.45z
				"/>
			<polyline class="st4" points="373.44,468.17 371.89,468.17 370.33,468.17 			"/>
			<polyline class="st4" points="295,468.17 293.45,468.17 291.9,468.17 			"/>
			<path class="st13" d="M316.46,447.89C316.46,447.89,316.46,447.89,316.46,447.89l-10.59,0c-2.21,0-4,1.79-4,4s1.79,4,4,4h10.59
				c0,0,0,0,0,0v0h36.27c-1.84-1.42-3.02-3.64-3.02-6.14v-1.86L316.46,447.89L316.46,447.89z"/>
		</g>
		<g>
			<path class="st15" d="M288.52,576.49"/>
			<path class="st7" d="M291.9,550.2v52.57c0,4.28,3.49,7.77,7.77,7.77h66c4.28,0,7.77-3.49,7.77-7.77v-38.54
				c0-0.37-0.13-0.73-0.37-1.01l-20.62-20.25c-0.02-0.02-0.04-0.04-0.06-0.06c-0.02-0.02-0.04-0.04-0.07-0.06
				c-0.13-0.12-0.27-0.22-0.43-0.29c-0.02-0.01-0.04-0.01-0.06-0.02c-0.18-0.07-0.37-0.11-0.56-0.11h-51.6
				C295.38,542.43,291.89,545.91,291.9,550.2z M368.57,562.73h-11.08c-2.58,0-4.66-2.09-4.66-4.66v-9.86L368.57,562.73z M295,550.2
				c0-2.58,2.09-4.66,4.66-4.66h50.05v12.53c0,4.29,3.48,7.77,7.77,7.77h12.85c0,1.31,0,5.47,0,10.65c0,8.88,0,20.75,0,26.29
				c0,0.31-0.03,1.96-1.37,3.3c-0.84,0.84-2.01,1.37-3.3,1.37h-66c-2.58,0-4.66-2.09-4.66-4.66V550.2z"/>
			<path class="st13" d="M359.46,580.49h-53.59c-2.21,0-4-1.79-4-4s1.79-4,4-4h53.59c2.21,0,4,1.79,4,4S361.67,580.49,359.46,580.49
				z"/>
			<path class="st7" d="M359.46,596.77h-53.59c-2.21,0-4-1.79-4-4s1.79-4,4-4h53.59c2.21,0,4,1.79,4,4S361.67,596.77,359.46,596.77z
				"/>
			<polyline class="st7" points="373.44,576.49 371.89,576.49 370.33,576.49 			"/>
			<polyline class="st7" points="295,576.49 293.45,576.49 291.9,576.49 			"/>
			<path class="st13" d="M316.46,556.21C316.46,556.21,316.46,556.21,316.46,556.21l-10.59,0c-2.21,0-4,1.79-4,4s1.79,4,4,4h10.59
				c0,0,0,0,0,0v0h36.27c-1.84-1.42-3.02-3.64-3.02-6.14v-1.86L316.46,556.21L316.46,556.21z"/>
		</g>
		<g>
			<path class="st12" d="M288.52,684.8"/>
			<path class="st9" d="M291.9,658.51v52.57c0,4.28,3.49,7.77,7.77,7.77h66c4.28,0,7.77-3.49,7.77-7.77v-38.54
				c0-0.37-0.13-0.73-0.37-1.01l-20.62-20.25c-0.02-0.02-0.04-0.04-0.06-0.06c-0.02-0.02-0.04-0.04-0.07-0.06
				c-0.13-0.12-0.27-0.22-0.43-0.29c-0.02-0.01-0.04-0.01-0.06-0.02c-0.18-0.07-0.37-0.11-0.56-0.11h-51.6
				C295.38,650.74,291.89,654.23,291.9,658.51z M368.57,671.04h-11.08c-2.58,0-4.66-2.09-4.66-4.66v-9.86L368.57,671.04z
				 M295,658.51c0-2.58,2.09-4.66,4.66-4.66h50.05v12.53c0,4.29,3.48,7.77,7.77,7.77h12.85c0,1.31,0,5.47,0,10.65
				c0,8.88,0,20.75,0,26.29c0,0.31-0.03,1.96-1.37,3.3c-0.84,0.84-2.01,1.37-3.3,1.37h-66c-2.58,0-4.66-2.09-4.66-4.66V658.51z"/>
			<path class="st9" d="M359.46,688.8h-53.59c-2.21,0-4-1.79-4-4s1.79-4,4-4h53.59c2.21,0,4,1.79,4,4S361.67,688.8,359.46,688.8z"/>
			<path class="st13" d="M359.46,705.08h-53.59c-2.21,0-4-1.79-4-4s1.79-4,4-4h53.59c2.21,0,4,1.79,4,4S361.67,705.08,359.46,705.08
				z"/>
			<polyline class="st9" points="373.44,684.8 371.89,684.8 370.33,684.8 			"/>
			<polyline class="st9" points="295,684.8 293.45,684.8 291.9,684.8 			"/>
			<path class="st13" d="M316.46,664.52C316.46,664.52,316.46,664.52,316.46,664.52l-10.59,0c-2.21,0-4,1.79-4,4s1.79,4,4,4h10.59
				c0,0,0,0,0,0v0h36.27c-1.84-1.42-3.02-3.64-3.02-6.14v-1.86L316.46,664.52L316.46,664.52z"/>
		</g>
		<g>
			<path class="st14" d="M288.52,793.11"/>
			<path class="st4" d="M291.9,766.82v52.57c0,4.28,3.49,7.77,7.77,7.77h66c4.28,0,7.77-3.49,7.77-7.77v-38.54
				c0-0.37-0.13-0.73-0.37-1.01l-20.62-20.25c-0.02-0.02-0.04-0.04-0.06-0.06c-0.02-0.02-0.04-0.04-0.07-0.06
				c-0.13-0.12-0.27-0.22-0.43-0.29c-0.02-0.01-0.04-0.01-0.06-0.02c-0.18-0.07-0.37-0.11-0.56-0.11h-51.6
				C295.38,759.05,291.89,762.54,291.9,766.82z M368.57,779.35h-11.08c-2.58,0-4.66-2.09-4.66-4.66v-9.86L368.57,779.35z
				 M295,766.82c0-2.58,2.09-4.66,4.66-4.66h50.05v12.53c0,4.29,3.48,7.77,7.77,7.77h12.85c0,1.31,0,5.47,0,10.65
				c0,8.88,0,20.75,0,26.29c0,0.31-0.03,1.96-1.37,3.3c-0.84,0.84-2.01,1.37-3.3,1.37h-66c-2.58,0-4.66-2.09-4.66-4.66V766.82z"/>
			<path class="st13" d="M359.46,797.11h-53.59c-2.21,0-4-1.79-4-4s1.79-4,4-4h53.59c2.21,0,4,1.79,4,4S361.67,797.11,359.46,797.11
				z"/>
			<path class="st13" d="M359.46,813.39h-53.59c-2.21,0-4-1.79-4-4s1.79-4,4-4h53.59c2.21,0,4,1.79,4,4S361.67,813.39,359.46,813.39
				z"/>
			<polyline class="st4" points="373.44,793.11 371.89,793.11 370.33,793.11 			"/>
			<polyline class="st4" points="295,793.11 293.45,793.11 291.9,793.11 			"/>
			<path class="st13" d="M316.46,772.83C316.46,772.83,316.46,772.83,316.46,772.83l-10.59,0c-2.21,0-4,1.79-4,4s1.79,4,4,4h10.59
				c0,0,0,0,0,0v0h36.27c-1.84-1.42-3.02-3.64-3.02-6.14v-1.86L316.46,772.83L316.46,772.83z"/>
		</g>
		<g>
			<path class="st12" d="M288.52,901.42"/>
			<path class="st9" d="M291.9,875.14v52.57c0,4.28,3.49,7.77,7.77,7.77h66c4.28,0,7.77-3.49,7.77-7.77v-38.54
				c0-0.37-0.13-0.73-0.37-1.01l-20.62-20.25c-0.02-0.02-0.04-0.04-0.06-0.06c-0.02-0.02-0.04-0.04-0.07-0.06
				c-0.13-0.12-0.27-0.22-0.43-0.29c-0.02-0.01-0.04-0.01-0.06-0.02c-0.18-0.07-0.37-0.11-0.56-0.11h-51.6
				C295.38,867.37,291.89,870.85,291.9,875.14z M368.57,887.66h-11.08c-2.58,0-4.66-2.09-4.66-4.66v-9.86L368.57,887.66z
				 M295,875.14c0-2.58,2.09-4.66,4.66-4.66h50.05V883c0,4.29,3.48,7.77,7.77,7.77h12.85c0,1.31,0,5.47,0,10.65
				c0,8.88,0,20.75,0,26.29c0,0.31-0.03,1.96-1.37,3.3c-0.84,0.84-2.01,1.37-3.3,1.37h-66c-2.58,0-4.66-2.09-4.66-4.66V875.14z"/>
			<path class="st9" d="M359.46,905.42h-53.59c-2.21,0-4-1.79-4-4s1.79-4,4-4h53.59c2.21,0,4,1.79,4,4S361.67,905.42,359.46,905.42z
				"/>
			<path class="st9" d="M359.46,921.7h-53.59c-2.21,0-4-1.79-4-4s1.79-4,4-4h53.59c2.21,0,4,1.79,4,4S361.67,921.7,359.46,921.7z"/>
			<polyline class="st9" points="373.44,901.42 371.89,901.42 370.33,901.42 			"/>
			<polyline class="st9" points="295,901.42 293.45,901.42 291.9,901.42 			"/>
			<path class="st13" d="M316.46,881.14C316.46,881.14,316.46,881.14,316.46,881.14l-10.59,0c-2.21,0-4,1.79-4,4s1.79,4,4,4h10.59
				c0,0,0,0,0,0v0h36.27c-1.84-1.42-3.02-3.64-3.02-6.14v-1.86L316.46,881.14L316.46,881.14z"/>
		</g>
		<g>
			<path class="st14" d="M288.52,1118.05"/>
			<path class="st4" d="M291.9,1091.76v52.57c0,4.28,3.49,7.77,7.77,7.77h66c4.28,0,7.77-3.49,7.77-7.77v-38.54
				c0-0.37-0.13-0.73-0.37-1.01l-20.62-20.25c-0.02-0.02-0.04-0.04-0.06-0.06c-0.02-0.02-0.04-0.04-0.07-0.06
				c-0.13-0.12-0.27-0.22-0.43-0.29c-0.02-0.01-0.04-0.01-0.06-0.02c-0.18-0.07-0.37-0.11-0.56-0.11h-51.6
				C295.38,1083.99,291.89,1087.48,291.9,1091.76z M368.57,1104.29h-11.08c-2.58,0-4.66-2.09-4.66-4.66v-9.86L368.57,1104.29z
				 M295,1091.76c0-2.58,2.09-4.66,4.66-4.66h50.05v12.53c0,4.29,3.48,7.77,7.77,7.77h12.85c0,1.31,0,5.47,0,10.65
				c0,8.88,0,20.75,0,26.29c0,0.31-0.03,1.96-1.37,3.3c-0.84,0.84-2.01,1.37-3.3,1.37h-66c-2.58,0-4.66-2.09-4.66-4.66V1091.76z"/>
			<path class="st13" d="M359.46,1122.05h-53.59c-2.21,0-4-1.79-4-4s1.79-4,4-4h53.59c2.21,0,4,1.79,4,4
				S361.67,1122.05,359.46,1122.05z"/>
			<path class="st4" d="M359.46,1138.33h-53.59c-2.21,0-4-1.79-4-4s1.79-4,4-4h53.59c2.21,0,4,1.79,4,4
				S361.67,1138.33,359.46,1138.33z"/>
			<polyline class="st4" points="373.44,1118.05 371.89,1118.05 370.33,1118.05 			"/>
			<polyline class="st4" points="295,1118.05 293.45,1118.05 291.9,1118.05 			"/>
			<path class="st4" d="M316.46,1097.77C316.46,1097.77,316.46,1097.77,316.46,1097.77l-10.59,0c-2.21,0-4,1.79-4,4s1.79,4,4,4
				h10.59c0,0,0,0,0,0v0h36.27c-1.84-1.42-3.02-3.64-3.02-6.14v-1.86L316.46,1097.77L316.46,1097.77z"/>
		</g>
		<g>
			<path class="st15" d="M288.52,251.55"/>
			<path class="st7" d="M291.9,225.26v52.57c0,4.28,3.49,7.77,7.77,7.77h66c4.28,0,7.77-3.49,7.77-7.77v-38.54
				c0-0.37-0.13-0.73-0.37-1.01l-20.62-20.25c-0.02-0.02-0.04-0.04-0.06-0.06c-0.02-0.02-0.04-0.04-0.07-0.06
				c-0.13-0.12-0.27-0.22-0.43-0.29c-0.02-0.01-0.04-0.01-0.06-0.02c-0.18-0.07-0.37-0.11-0.56-0.11h-51.6
				C295.38,217.49,291.89,220.98,291.9,225.26z M368.57,237.79h-11.08c-2.58,0-4.66-2.09-4.66-4.66v-9.86L368.57,237.79z
				 M295,225.26c0-2.58,2.09-4.66,4.66-4.66h50.05v12.53c0,4.29,3.48,7.77,7.77,7.77h12.85c0,1.31,0,5.47,0,10.65
				c0,8.88,0,20.75,0,26.29c0,0.31-0.03,1.96-1.37,3.3c-0.84,0.84-2.01,1.37-3.3,1.37h-66c-2.58,0-4.66-2.09-4.66-4.66V225.26z"/>
			<path class="st7" d="M359.46,255.55h-53.59c-2.21,0-4-1.79-4-4s1.79-4,4-4h53.59c2.21,0,4,1.79,4,4S361.67,255.55,359.46,255.55z
				"/>
			<path class="st7" d="M359.46,271.83h-53.59c-2.21,0-4-1.79-4-4s1.79-4,4-4h53.59c2.21,0,4,1.79,4,4S361.67,271.83,359.46,271.83z
				"/>
			<polyline class="st7" points="373.44,251.55 371.89,251.55 370.33,251.55 			"/>
			<polyline class="st7" points="295,251.55 293.45,251.55 291.9,251.55 			"/>
			<path class="st13" d="M316.46,231.27C316.46,231.27,316.46,231.27,316.46,231.27l-10.59,0c-2.21,0-4,1.79-4,4s1.79,4,4,4h10.59
				c0,0,0,0,0,0v0h36.27c-1.84-1.42-3.02-3.64-3.02-6.14v-1.86L316.46,231.27L316.46,231.27z"/>
		</g>
	</g>
</g>
<g id="Section_x5F_Middle">
	<path class="st11" d="M1048.93,961.31H659.95c-13.81,0-25-11.19-25-25V547.33c0-13.81,11.19-25,25-25h388.98
		c13.81,0,25,11.19,25,25v388.98C1073.93,950.11,1062.73,961.31,1048.93,961.31z"/>
	<g id="Time_x5F_lines">
		<line class="st0" x1="1009.36" y1="187.47" x2="1009.36" y2="236.55"/>
		<line class="st0" x1="1009.54" y1="266.55" x2="1009.54" y2="344.86"/>
		<line class="st0" x1="1009.54" y1="374.86" x2="1009.54" y2="453.17"/>
		<line class="st0" x1="1009.54" y1="483.17" x2="1009.54" y2="561.49"/>
		<line class="st0" x1="1009.54" y1="591.49" x2="1009.54" y2="669.8"/>
		<line class="st0" x1="1009.54" y1="699.8" x2="1009.54" y2="778.11"/>
		<line class="st0" x1="1009.54" y1="916.42" x2="1009.54" y2="994.74"/>
		<line class="st0" x1="1009.36" y1="808.11" x2="1009.36" y2="886.42"/>
		<line class="st0" x1="1009.54" y1="1024.74" x2="1009.54" y2="1103.05"/>
		<g>
			<g>
				<line class="st0" x1="1009.54" y1="1133.05" x2="1009.54" y2="1170.18"/>
				<g>
					<polygon class="st2" points="1002.13,1164.57 1009.54,1167.71 1016.94,1164.57 1009.54,1182.12 					"/>
				</g>
			</g>
		</g>
		<g>
			<path class="st11" d="M1009.36,78.43c-22.52,0-40.77,18.25-40.77,40.77c0,22.52,18.25,40.77,40.77,40.77
				c22.52,0,40.77-18.25,40.77-40.77C1050.13,96.68,1031.88,78.43,1009.36,78.43z M1013.2,134.2c5.28,0,7.92-1.26,10.44-2.7
				l3.06,5.28c-3.84,2.7-8.52,4.02-13.2,4.02c-12.36,0-21.54-9.06-21.54-21.48c0-12.78,8.88-21.72,21.24-21.72
				c4.92,0,9.78,1.62,13.56,4.8l-3.36,5.34c-2.52-2.16-6.66-3.54-9.96-3.54c-8.1,0-13.44,6.48-13.44,14.76
				C1000,126.88,1005.46,134.2,1013.2,134.2z"/>
		</g>
		<path class="st0" d="M854.81,1182.12"/>
		<path class="st0" d="M854.81,187.47"/>
		<line class="st0" x1="854.44" y1="187.47" x2="854.44" y2="236.55"/>
		<line class="st0" x1="854.62" y1="266.55" x2="854.62" y2="344.86"/>
		<line class="st0" x1="854.56" y1="374.86" x2="854.56" y2="453.17"/>
		<line class="st0" x1="854.56" y1="483.17" x2="854.56" y2="561.49"/>
		<line class="st0" x1="854.62" y1="591.49" x2="854.62" y2="669.8"/>
		<line class="st0" x1="854.62" y1="699.8" x2="854.62" y2="778.11"/>
		<line class="st0" x1="854.62" y1="916.42" x2="854.62" y2="994.74"/>
		<line class="st0" x1="854.44" y1="808.11" x2="854.44" y2="886.42"/>
		<line class="st0" x1="854.62" y1="1024.74" x2="854.62" y2="1103.05"/>
		<g>
			<g>
				<line class="st0" x1="854.62" y1="1133.05" x2="854.62" y2="1170.18"/>
				<g>
					<polygon class="st2" points="847.21,1164.57 854.62,1167.71 862.02,1164.57 854.62,1182.12 					"/>
				</g>
			</g>
		</g>
		<g>
			<g>
				<path class="st11" d="M860.84,110.08c0-3.78-2.7-5.76-7.26-5.76h-4.86l-0.06,11.76h4.5
					C857.18,116.08,860.84,114.28,860.84,110.08z"/>
			</g>
			<g>
				<path class="st11" d="M852.86,121.96h-4.26l-0.18,12.12h5.22c4.98,0.06,7.56-2.22,7.56-5.76
					C861.2,124.12,858.5,121.96,852.86,121.96z"/>
			</g>
			<g>
				<path class="st11" d="M854.75,78.43c-22.52,0-40.77,18.25-40.77,40.77c0,22.52,18.25,40.77,40.77,40.77
					c22.52,0,40.77-18.25,40.77-40.77C895.52,96.68,877.27,78.43,854.75,78.43z M855.74,139.96h-15.12l0.42-41.52h14.16
					c7.92,0,12.96,4.44,12.96,10.68c0,5.64-3.18,9.24-7.26,9.72v0.12c5.04,0.78,7.98,4.68,7.98,9.72
					C868.88,135.58,863.6,139.96,855.74,139.96z"/>
			</g>
		</g>
		<g id="A_x5F_left">
			<g>
				<g>
					<line class="st0" x1="705.21" y1="1133.05" x2="705.21" y2="1170.18"/>
					<g>
						<polygon class="st2" points="697.81,1164.57 705.21,1167.71 712.62,1164.57 705.21,1182.12 						"/>
					</g>
				</g>
			</g>
			<line class="st0" x1="705.21" y1="266.55" x2="705.21" y2="344.86"/>
			<line class="st0" x1="705.21" y1="374.86" x2="705.21" y2="453.17"/>
			<line class="st0" x1="705.21" y1="483.17" x2="705.21" y2="561.49"/>
			<line class="st0" x1="705.21" y1="591.49" x2="705.21" y2="669.8"/>
			<line class="st0" x1="705.21" y1="699.8" x2="705.21" y2="778.11"/>
			<line class="st0" x1="705.21" y1="916.42" x2="705.21" y2="994.74"/>
			<line class="st0" x1="705.03" y1="808.11" x2="705.03" y2="886.42"/>
			<line class="st0" x1="705.21" y1="1024.74" x2="705.21" y2="1103.05"/>
			<line class="st0" x1="705.03" y1="187.47" x2="705.03" y2="236.55"/>
			<g>
				<g>
					<polygon class="st11" points="705.36,106.06 700.14,122.26 710.28,122.26 705.48,106.06 					"/>
				</g>
				<g>
					<path class="st11" d="M705.03,78.43c-22.52,0-40.77,18.25-40.77,40.77c0,22.52,18.25,40.77,40.77,40.77
						s40.77-18.25,40.77-40.77C745.81,96.68,727.55,78.43,705.03,78.43z M716.46,140.38l-4.08-11.88h-14.46l-4.68,11.88l-7.14-2.16
						l15.96-40.2h7.08l14.82,40.2L716.46,140.38z"/>
				</g>
			</g>
		</g>
	</g>
	<g id="Arrows">
		<g>
			<line class="st5" x1="839.44" y1="468.17" x2="720.03" y2="468.17"/>
			<g>
				<line class="st3" x1="839.44" y1="468.17" x2="731.97" y2="468.17"/>
				<g>
					<polygon class="st4" points="737.59,460.77 734.44,468.17 737.59,475.58 720.03,468.17 					"/>
				</g>
			</g>
		</g>
		<g>
			<line class="st5" x1="720.03" y1="576.49" x2="839.44" y2="576.49"/>
			<g>
				<line class="st3" x1="720.03" y1="576.49" x2="827.5" y2="576.49"/>
				<g>
					<polygon class="st4" points="821.88,583.89 825.03,576.49 821.88,569.08 839.44,576.49 					"/>
				</g>
			</g>
		</g>
		<g>
			<line class="st5" x1="839.44" y1="793.11" x2="720.03" y2="793.11"/>
			<g>
				<line class="st3" x1="839.44" y1="793.11" x2="731.97" y2="793.11"/>
				<g>
					<polygon class="st4" points="737.59,785.7 734.44,793.11 737.59,800.52 720.03,793.11 					"/>
				</g>
			</g>
		</g>
		<g>
			<line class="st5" x1="994.36" y1="901.42" x2="869.44" y2="901.42"/>
			<g>
				<line class="st3" x1="994.36" y1="901.42" x2="881.38" y2="901.42"/>
				<g>
					<polygon class="st4" points="886.99,894.02 883.85,901.42 886.99,908.83 869.44,901.42 					"/>
				</g>
			</g>
		</g>
		<g>
			<line class="st5" x1="720.03" y1="1009.74" x2="839.44" y2="1009.74"/>
			<g>
				<line class="st3" x1="720.03" y1="1009.74" x2="827.5" y2="1009.74"/>
				<g>
					<polygon class="st4" points="821.88,1017.14 825.03,1009.74 821.88,1002.33 839.44,1009.74 					"/>
				</g>
			</g>
		</g>
		<g>
			<line class="st5" x1="869.44" y1="684.8" x2="994.36" y2="684.8"/>
			<g>
				<line class="st8" x1="869.44" y1="684.8" x2="982.42" y2="684.8"/>
				<g>
					<polygon class="st9" points="976.8,692.2 979.95,684.8 976.8,677.39 994.36,684.8 					"/>
				</g>
			</g>
		</g>
		<g>
			<line class="st5" x1="720.03" y1="901.42" x2="839.44" y2="901.42"/>
			<g>
				<line class="st8" x1="720.03" y1="901.42" x2="827.5" y2="901.42"/>
				<g>
					<polygon class="st9" points="821.88,908.83 825.03,901.42 821.88,894.02 839.44,901.42 					"/>
				</g>
			</g>
		</g>
		<g>
			<line class="st5" x1="994.36" y1="1009.74" x2="869.44" y2="1009.74"/>
			<g>
				<line class="st8" x1="994.36" y1="1009.74" x2="881.38" y2="1009.74"/>
				<g>
					<polygon class="st9" points="886.99,1002.33 883.85,1009.74 886.99,1017.14 869.44,1009.74 					"/>
				</g>
			</g>
		</g>
		<g>
			<line class="st5" x1="994.36" y1="1118.05" x2="869.44" y2="1118.05"/>
			<g>
				<line class="st6" x1="994.36" y1="1118.05" x2="881.38" y2="1118.05"/>
				<g>
					<polygon class="st7" points="886.99,1110.64 883.85,1118.05 886.99,1125.46 869.44,1118.05 					"/>
				</g>
			</g>
		</g>
		<path class="st16" d="M866.56,565.88c8.81-11.68,11.9-11.68,15.52-11.68c3.63,0,6.91,2.49,9.28,6.53
			c2.38,4.03,3.85,9.6,3.85,15.76c0,6.15-1.47,11.72-3.85,15.76c-2.38,4.03-5.66,6.53-9.28,6.53c-3.63,0-6.71,0-15.52-11.68"/>
		<path class="st10" d="M1019.96,457.57c8.81-11.68,11.9-11.68,15.52-11.68s6.91,2.49,9.28,6.53s3.85,9.6,3.85,15.76
			c0,6.15-1.47,11.72-3.85,15.76s-5.66,6.53-9.28,6.53s-6.71,0-15.52-11.68"/>
		<path class="st17" d="M866.56,782.5c8.81-11.68,11.9-11.68,15.52-11.68c3.63,0,6.91,2.49,9.28,6.53c2.38,4.03,3.85,9.6,3.85,15.76
			s-1.47,11.72-3.85,15.76c-2.38,4.03-5.66,6.53-9.28,6.53c-3.63,0-6.71,0-15.52-11.68"/>
		<path class="st10" d="M843.83,889.5c-11.68-8.81-11.68-11.9-11.68-15.52c0-3.63,2.49-6.91,6.53-9.28
			c4.03-2.38,9.6-3.85,15.76-3.85s11.72,1.47,15.76,3.85s6.53,5.66,6.53,9.28c0,3.63,0,6.71-11.68,15.52"/>
		<g>
			<g>
				<path class="st10" d="M994.3,1009.31c-40.35,20.96-88.35,33.12-139.86,33.12c-44.73,0-86.82-9.17-123.54-25.31"/>
				<g>
					<polygon class="st9" points="739.12,1012.62 733.18,1018.06 732.98,1026.11 720.07,1012.09 					"/>
				</g>
			</g>
		</g>
		<g>
			<g>
				<path class="st10" d="M720.07,901.31c40.35,20.96,88.35,33.12,139.86,33.12c44.73,0,86.82-9.17,123.54-25.31"/>
				<g>
					<polygon class="st9" points="981.39,918.11 981.19,910.06 975.25,904.62 994.3,904.09 					"/>
				</g>
			</g>
		</g>
		<g>
			<g>
				<path class="st17" d="M839.44,1121.28c-15.72,8.33-36.21,13.37-58.62,13.37c-18.54,0-35.76-3.45-50.06-9.35"/>
				<g>
					<polygon class="st4" points="739.05,1120.89 733.04,1126.24 732.72,1134.29 720.01,1120.09 					"/>
				</g>
			</g>
		</g>
		<g>
			<g>
				<path class="st16" d="M720.01,1115.46c15.72-8.33,36.21-13.37,58.62-13.37c18.54,0,35.76,3.45,50.06,9.35"/>
				<g>
					<polygon class="st7" points="820.4,1115.86 826.41,1110.5 826.72,1102.46 839.44,1116.66 					"/>
				</g>
			</g>
		</g>
		<g>
			<path class="st7" d="M922.21,1104.89c10.51-8.71,11.84-10.69,11.84-13.79c0-2.77-1.87-4.5-4.5-4.5c-1.51,0-2.77,0.54-4.9,2.38
				l-2.41-2.81c2.48-2.23,4.68-3.31,8.03-3.31c4.97,0,8.6,3.06,8.6,8.03c0,4.86-3.89,8.6-9.79,13.07v0.07h9.75v3.74h-15.62
				L922.21,1104.89z"/>
		</g>
		<g>
			<path class="st4" d="M922.21,887.86c10.51-8.71,11.84-10.69,11.84-13.79c0-2.77-1.87-4.5-4.5-4.5c-1.51,0-2.77,0.54-4.9,2.38
				l-2.41-2.81c2.48-2.23,4.68-3.31,8.03-3.31c4.97,0,8.6,3.06,8.6,8.03c0,4.86-3.89,8.6-9.79,13.07v0.07h9.75v3.74h-15.62
				L922.21,887.86z"/>
		</g>
		<g>
			<path class="st4" d="M770.05,779.88c10.51-8.71,11.84-10.69,11.84-13.79c0-2.77-1.87-4.5-4.5-4.5c-1.51,0-2.77,0.54-4.9,2.38
				l-2.41-2.81c2.48-2.23,4.68-3.31,8.03-3.31c4.97,0,8.6,3.06,8.6,8.03c0,4.86-3.89,8.6-9.79,13.07v0.07h9.75v3.74h-15.62
				L770.05,779.88z"/>
		</g>
		<g>
			<path class="st9" d="M922.21,671.91c10.51-8.71,11.84-10.69,11.84-13.79c0-2.77-1.87-4.5-4.5-4.5c-1.51,0-2.77,0.54-4.9,2.38
				l-2.41-2.81c2.48-2.23,4.68-3.31,8.03-3.31c4.97,0,8.6,3.06,8.6,8.03c0,4.86-3.89,8.6-9.79,13.07v0.07h9.75v3.74h-15.62
				L922.21,671.91z"/>
		</g>
		<g>
			<path class="st7" d="M899.09,584.61c10.51-8.71,11.84-10.69,11.84-13.79c0-2.77-1.87-4.5-4.5-4.5c-1.51,0-2.77,0.54-4.9,2.38
				l-2.41-2.81c2.48-2.23,4.68-3.31,8.03-3.31c4.97,0,8.6,3.06,8.6,8.03c0,4.86-3.89,8.6-9.79,13.07v0.07h9.75v3.74H900.1
				L899.09,584.61z"/>
		</g>
		<g>
			<path class="st9" d="M1055.2,476.3c10.51-8.71,11.84-10.69,11.84-13.79c0-2.77-1.87-4.5-4.5-4.5c-1.51,0-2.77,0.54-4.9,2.38
				l-2.41-2.81c2.48-2.23,4.68-3.31,8.03-3.31c4.97,0,8.6,3.06,8.6,8.03c0,4.86-3.89,8.6-9.79,13.07v0.07h9.75v3.74h-15.62
				L1055.2,476.3z"/>
		</g>
		<g>
			<path class="st4" d="M770.05,454.77c10.51-8.71,11.84-10.69,11.84-13.79c0-2.77-1.87-4.5-4.5-4.5c-1.51,0-2.77,0.54-4.9,2.38
				l-2.41-2.81c2.48-2.23,4.68-3.31,8.03-3.31c4.97,0,8.6,3.06,8.6,8.03c0,4.86-3.89,8.6-9.79,13.07v0.07h9.75v3.74h-15.62
				L770.05,454.77z"/>
		</g>
	</g>
	<g id="Time_x5F_Bubbles">
		<g id="Right">
			<circle class="st18" cx="1009.36" cy="468.16" r="15"/>
			<circle class="st18" cx="1009.36" cy="359.86" r="15"/>
			<circle class="st18" cx="1009.36" cy="251.55" r="15"/>
			<circle class="st18" cx="1009.36" cy="576.49" r="15"/>
			<circle class="st18" cx="1009.36" cy="684.8" r="15"/>
			<circle class="st18" cx="1009.36" cy="793.11" r="15"/>
			<circle class="st18" cx="1009.36" cy="901.42" r="15"/>
			<circle class="st18" cx="1009.36" cy="1009.74" r="15"/>
			<circle class="st18" cx="1009.36" cy="1118.05" r="15"/>
		</g>
		<g id="Left">
			<circle class="st18" cx="705.03" cy="359.86" r="15"/>
			<circle class="st18" cx="705.03" cy="251.55" r="15"/>
			<circle class="st18" cx="705.03" cy="468.17" r="15"/>
			<circle class="st18" cx="705.03" cy="576.49" r="15"/>
			<circle class="st18" cx="705.03" cy="684.8" r="15"/>
			<circle class="st18" cx="705.03" cy="793.11" r="15"/>
			<circle class="st18" cx="705.03" cy="901.42" r="15"/>
			<circle class="st18" cx="705.03" cy="1009.74" r="15"/>
			<circle class="st18" cx="705.03" cy="1118.05" r="15"/>
		</g>
		<g id="Middle">
			<circle class="st18" cx="854.44" cy="359.86" r="15"/>
			<circle class="st18" cx="854.44" cy="251.55" r="15"/>
			<circle class="st18" cx="854.44" cy="576.49" r="15"/>
			<circle class="st18" cx="854.44" cy="684.8" r="15"/>
			<circle class="st18" cx="854.44" cy="793.11" r="15"/>
			<circle class="st18" cx="854.44" cy="901.42" r="15"/>
			<circle class="st18" cx="854.44" cy="1009.74" r="15"/>
			<circle class="st18" cx="854.44" cy="1118.05" r="15"/>
			<circle class="st18" cx="854.56" cy="468.17" r="15"/>
		</g>
	</g>
</g>
<g id="Section_x5F_Right">
	<g id="Arrows_2_">
		<g>
			<g>
				<path class="st19" d="M1345.64,546.03c-6.41-11.11-11.38-21.36-11.38-34.41c0-22.09,17.79-40,38.5-40
					c20.71,0,38.5,17.91,38.5,40c0,15.94-8.62,29.18-17.5,44.71"/>
				<g>
					<polygon class="st20" points="1349.23,537.43 1344.41,543.88 1336.43,544.9 1351.68,556.33 					"/>
				</g>
			</g>
		</g>
		<g>
			<g>
				<g>
					<path class="st21" d="M1504,857.71c5.66-42.66-1.74-89.73-23.91-133.92c-19.13-38.11-46.54-68.68-77.84-89.82"/>
					<g>
						<polygon class="st20" points="1410.95,630.86 1404.29,635.38 1402.93,643.31 1392.17,627.58 						"/>
					</g>
				</g>
			</g>
			<g>
				<g>
					<path class="st21" d="M1387.86,628.58c-5.66,42.66,1.74,89.73,23.91,133.92c19.13,38.11,46.54,68.68,77.84,89.82"/>
					<g>
						<polygon class="st20" points="1480.92,855.44 1487.57,850.91 1488.94,842.98 1499.69,858.71 						"/>
					</g>
				</g>
			</g>
		</g>
		<g>
			<g>
				<g>
					<path class="st21" d="M1242.14,857.71c-5.66-42.66,1.74-89.73,23.91-133.92c19.13-38.11,46.54-68.68,77.84-89.82"/>
					<g>
						<polygon class="st20" points="1343.21,643.31 1341.85,635.38 1335.19,630.86 1353.96,627.58 						"/>
					</g>
				</g>
			</g>
			<g>
				<g>
					<path class="st21" d="M1358.28,628.58c5.66,42.66-1.74,89.73-23.91,133.92c-19.13,38.11-46.54,68.68-77.84,89.82"/>
					<g>
						<polygon class="st20" points="1257.2,842.98 1258.56,850.91 1265.22,855.44 1246.45,858.71 						"/>
					</g>
				</g>
			</g>
		</g>
		<g>
			<line class="st5" x1="1263.52" y1="892.31" x2="1481.87" y2="892.31"/>
			<g>
				<line class="st19" x1="1263.52" y1="892.31" x2="1469.93" y2="892.31"/>
				<g>
					<polygon class="st20" points="1464.32,899.71 1467.46,892.31 1464.32,884.9 1481.87,892.31 					"/>
				</g>
			</g>
		</g>
	</g>
	<g id="ABC">
		<g>
			<path class="st11" d="M1522.65,851.53c-11.26,0-21.45,4.56-28.83,11.94c-7.38,7.38-11.94,17.57-11.94,28.83
				s4.56,21.45,11.94,28.83c7.38,7.38,17.57,11.94,28.83,11.94c11.26,0,21.45-4.56,28.83-11.94c7.38-7.38,11.94-17.57,11.94-28.83
				s-4.56-21.45-11.94-28.83C1544.1,856.1,1533.91,851.53,1522.65,851.53z M1526.49,907.31c2.64,0,4.62-0.31,6.25-0.81
				s2.92-1.17,4.18-1.89l1.53,2.64l1.53,2.64c-1.92,1.35-4.05,2.35-6.28,3.02s-4.57,1-6.91,1c-6.18,0-11.56-2.26-15.4-6.08
				s-6.13-9.19-6.13-15.4c0-6.39,2.22-11.82,5.98-15.65c3.76-3.83,9.07-6.07,15.25-6.07c2.46,0,4.9,0.41,7.21,1.21s4.46,2,6.35,3.59
				l-1.68,2.67l-1.68,2.67c-1.26-1.08-2.93-1.96-4.69-2.58c-1.76-0.62-3.62-0.96-5.27-0.96c-4.05,0-7.41,1.62-9.76,4.27
				s-3.68,6.34-3.68,10.48c0,3.96,1.36,7.77,3.7,10.59C1519.32,905.48,1522.62,907.31,1526.49,907.31z"/>
		</g>
		<g>
			<g>
				<path class="st11" d="M1378.79,582.21c0-1.89-0.67-3.33-1.92-4.3s-3.06-1.46-5.34-1.46h-2.43h-2.43l-0.03,5.88l-0.03,5.88h2.25
					h2.25c2.01,0,3.93-0.45,5.35-1.42C1377.87,585.81,1378.79,584.31,1378.79,582.21z"/>
			</g>
			<g>
				<path class="st11" d="M1370.81,594.09h-2.13h-2.13l-0.09,6.06l-0.09,6.06h2.61h2.61c2.49,0.03,4.38-0.52,5.65-1.53
					c1.27-1,1.91-2.46,1.91-4.23c0-2.1-0.68-3.69-2.06-4.75S1373.63,594.09,1370.81,594.09z"/>
			</g>
			<g>
				<path class="st11" d="M1372.7,550.56c-11.26,0-21.45,4.56-28.83,11.94c-7.38,7.38-11.94,17.57-11.94,28.83
					s4.56,21.45,11.94,28.83s17.57,11.94,28.83,11.94c11.26,0,21.45-4.56,28.83-11.94c7.38-7.38,11.94-17.57,11.94-28.83
					s-4.56-21.45-11.94-28.83C1394.15,555.12,1383.96,550.56,1372.7,550.56z M1373.69,612.09h-7.56h-7.56l0.21-20.76l0.21-20.76
					h7.08h7.08c3.96,0,7.2,1.11,9.45,3s3.51,4.56,3.51,7.68c0,2.82-0.79,5.13-2.1,6.79s-3.12,2.68-5.16,2.92v0.06v0.06
					c2.52,0.39,4.52,1.56,5.88,3.26s2.1,3.94,2.1,6.46c0,3.45-1.32,6.27-3.62,8.23C1380.9,610.99,1377.62,612.09,1373.69,612.09z"/>
			</g>
		</g>
		<g>
			<g>
				<polygon class="st11" points="1223.07,879.17 1220.46,887.27 1217.85,895.37 1222.92,895.37 1227.99,895.37 1225.59,887.27 
					1223.19,879.17 1223.13,879.17 				"/>
			</g>
			<g>
				<path class="st11" d="M1222.74,851.53c-11.26,0-21.45,4.56-28.83,11.94c-7.38,7.38-11.94,17.57-11.94,28.83
					c0,11.26,4.56,21.45,11.94,28.83c7.38,7.38,17.57,11.94,28.83,11.94c11.26,0,21.45-4.56,28.83-11.94
					c7.38-7.38,11.94-17.57,11.94-28.83c0-11.26-4.56-21.45-11.94-28.83C1244.2,856.1,1234,851.53,1222.74,851.53z M1234.17,913.49
					l-2.04-5.94l-2.04-5.94h-7.23h-7.23l-2.34,5.94l-2.34,5.94l-3.57-1.08l-3.57-1.08l7.98-20.1l7.98-20.1h3.54h3.54l7.41,20.1
					l7.41,20.1l-3.75,1.08L1234.17,913.49z"/>
			</g>
		</g>
	</g>
	<g>
		<path class="st22" d="M1374.12,457.33h-10.19l-1.22-3.31l11.37-15.73h4.61l-0.14,15.3h2.3v3.74h-2.34l-0.04,5.51h-4.39
			L1374.12,457.33z M1374.3,443.54l-0.07-0.07l-6.84,10.11h6.77L1374.3,443.54z"/>
	</g>
	<g>
		<path class="st20" d="M1344.98,774.53c10.51-8.71,11.84-10.69,11.84-13.79c0-2.77-1.87-4.5-4.5-4.5c-1.51,0-2.77,0.54-4.9,2.38
			l-2.41-2.81c2.48-2.23,4.68-3.31,8.03-3.31c4.97,0,8.6,3.06,8.6,8.03c0,4.86-3.89,8.6-9.79,13.07v0.07h9.75v3.74h-15.62
			L1344.98,774.53z"/>
	</g>
	<g>
		<path class="st20" d="M1386.36,774.53c10.51-8.71,11.84-10.69,11.84-13.79c0-2.77-1.87-4.5-4.5-4.5c-1.51,0-2.77,0.54-4.9,2.38
			l-2.41-2.81c2.48-2.23,4.68-3.31,8.03-3.31c4.97,0,8.6,3.06,8.6,8.03c0,4.86-3.89,8.6-9.79,13.07v0.07h9.75v3.74h-15.62
			L1386.36,774.53z"/>
	</g>
	<g>
		<path class="st20" d="M1245.45,716.41c10.51-8.71,11.84-10.69,11.84-13.79c0-2.77-1.87-4.5-4.5-4.5c-1.51,0-2.77,0.54-4.9,2.38
			l-2.41-2.81c2.48-2.23,4.68-3.31,8.03-3.31c4.97,0,8.6,3.06,8.6,8.03c0,4.86-3.89,8.6-9.79,13.07v0.07h9.75v3.74h-15.62
			L1245.45,716.41z"/>
	</g>
	<g>
		<path class="st20" d="M1482.2,715.68c10.51-8.71,11.84-10.69,11.84-13.79c0-2.77-1.87-4.5-4.5-4.5c-1.51,0-2.77,0.54-4.9,2.38
			l-2.41-2.81c2.48-2.23,4.68-3.31,8.03-3.31c4.97,0,8.6,3.06,8.6,8.03c0,4.86-3.89,8.6-9.79,13.07v0.07h9.75v3.74h-15.62
			L1482.2,715.68z"/>
	</g>
	<g>
		<g>
			<line class="st23" x1="1073.93" y1="738.95" x2="1135.53" y2="738.95"/>
			<g>
				<polygon class="st11" points="1129.92,746.36 1133.06,738.95 1129.92,731.55 1147.47,738.95 				"/>
			</g>
		</g>
	</g>
	<g>
	</g>
	<g>
	</g>
	<g>
	</g>
	<g>
	</g>
	<g>
	</g>
	<g>
	</g>
	<g>
	</g>
	<g>
	</g>
	<g>
	</g>
	<g>
	</g>
	<g>
	</g>
	<g>
	</g>
	<g>
	</g>
	<g>
	</g>
	<g>
	</g>
	<g>
	</g>
</g>
</svg>
