<svg xmlns="http://www.w3.org/2000/svg" xmlns:xlink="http://www.w3.org/1999/xlink" version="1.1" x="0px" y="0px" viewBox="0 0 64 80" style="enable-background:new 0 0 64 64;" xml:space="preserve"><path fill="#2dc6d6" d="M53,2c-4.962,0-9,4.037-9,9c0,2.08,0.716,3.993,1.906,5.519L33.029,29.548C31.121,27.959,28.671,27,26,27  c-2.049,0-3.961,0.573-5.606,1.553l-5.952-11.904C16.586,15.212,18,12.768,18,10c0-4.411-3.589-8-8-8s-8,3.589-8,8s3.589,8,8,8  c0.93,0,1.82-0.168,2.651-0.461l6.103,12.206C16.459,31.762,15,34.711,15,38c0,2.673,0.961,5.125,2.552,7.034l-6.081,6.081  C10.49,50.416,9.294,50,8,50c-3.309,0-6,2.691-6,6s2.691,6,6,6s6-2.691,6-6c0-1.294-0.416-2.49-1.115-3.471l6.081-6.081  C20.875,48.039,23.327,49,26,49c4.101,0,7.679-2.26,9.57-5.597l8.448,4.224C44.014,47.752,44,47.874,44,48c0,4.963,4.038,9,9,9  s9-4.037,9-9s-4.038-9-9-9c-4.114,0-7.585,2.778-8.654,6.555l-7.955-3.978C36.779,40.454,37,39.254,37,38  c0-2.675-0.962-5.129-2.556-7.038l12.853-13.005C48.851,19.232,50.837,20,53,20c4.962,0,9-4.037,9-9S57.962,2,53,2z M4,10  c0-3.309,2.691-6,6-6s6,2.691,6,6s-2.691,6-6,6S4,13.309,4,10z M53,41c3.86,0,7,3.141,7,7s-3.14,7-7,7s-7-3.141-7-7S49.14,41,53,41z   M8,60c-2.206,0-4-1.794-4-4s1.794-4,4-4s4,1.794,4,4S10.206,60,8,60z M26,47c-4.962,0-9-4.037-9-9s4.038-9,9-9s9,4.037,9,9  S30.962,47,26,47z M53,18c-3.86,0-7-3.141-7-7s3.14-7,7-7s7,3.141,7,7S56.86,18,53,18z"/><path fill="#2dc6d6" d="M40,7c0-2.757-2.243-5-5-5s-5,2.243-5,5s2.243,5,5,5S40,9.757,40,7z M32,7c0-1.654,1.346-3,3-3s3,1.346,3,3s-1.346,3-3,3  S32,8.654,32,7z"/><path fill="#2dc6d6" d="M30,19c0-2.757-2.243-5-5-5s-5,2.243-5,5s2.243,5,5,5S30,21.757,30,19z M22,19c0-1.654,1.346-3,3-3s3,1.346,3,3  s-1.346,3-3,3S22,20.654,22,19z"/><path fill="#2dc6d6" d="M4,40.5C4,42.981,6.019,45,8.5,45s4.5-2.019,4.5-4.5S10.981,36,8.5,36S4,38.019,4,40.5z M8.5,38c1.378,0,2.5,1.121,2.5,2.5  S9.878,43,8.5,43S6,41.879,6,40.5S7.122,38,8.5,38z"/><path fill="#2dc6d6" d="M5,24c-1.654,0-3,1.346-3,3s1.346,3,3,3s3-1.346,3-3S6.654,24,5,24z M5,28c-0.551,0-1-0.448-1-1s0.449-1,1-1s1,0.448,1,1  S5.551,28,5,28z"/><path fill="#2dc6d6" d="M41,32c0,3.309,2.691,6,6,6s6-2.691,6-6s-2.691-6-6-6S41,28.691,41,32z M51,32c0,2.206-1.794,4-4,4s-4-1.794-4-4  s1.794-4,4-4S51,29.794,51,32z"/><path fill="#2dc6d6" d="M33,50c-3.309,0-6,2.691-6,6s2.691,6,6,6s6-2.691,6-6S36.309,50,33,50z M33,60c-2.206,0-4-1.794-4-4s1.794-4,4-4  s4,1.794,4,4S35.206,60,33,60z"/><path fill="#2dc6d6" d="M54,25c0,2.206,1.794,4,4,4s4-1.794,4-4s-1.794-4-4-4S54,22.794,54,25z M60,25c0,1.103-0.897,2-2,2s-2-0.897-2-2  s0.897-2,2-2S60,23.897,60,25z"/></svg>