<?xml version="1.0" encoding="utf-8"?>
<!-- Generator: Adobe Illustrator 25.1.0, SVG Export Plug-In . SVG Version: 6.00 Build 0)  -->
<svg version="1.1" xmlns="http://www.w3.org/2000/svg" xmlns:xlink="http://www.w3.org/1999/xlink" x="0px" y="0px"
	 viewBox="0 0 1319.52 622.76" style="enable-background:new 0 0 1319.52 622.76;" xml:space="preserve">
<style type="text/css">
	.st0{fill:#2DC6D6;}
	.st1{fill-rule:evenodd;clip-rule:evenodd;fill:#2DC6D6;}
</style>
<g id="GitHub">
	<g>
		<g>
			<path class="st0" d="M157.65,34.24h-24.86c-0.64,0-1.16,0.52-1.16,1.16v12.15c0,0.64,0.52,1.16,1.16,1.16h9.7v15.1
				c0,0-2.18,0.74-8.2,0.74c-7.1,0-17.02-2.6-17.02-24.41c0-21.82,10.33-24.69,20.03-24.69c8.4,0,12.01,1.48,14.31,2.19
				c0.72,0.22,1.39-0.5,1.39-1.14l2.77-11.74c0-0.3-0.1-0.66-0.44-0.91C154.4,3.19,148.7,0,134.29,0c-16.6,0-33.62,7.06-33.62,41
				c0,33.94,19.49,39,35.91,39c13.6,0,21.85-5.81,21.85-5.81c0.34-0.19,0.38-0.66,0.38-0.88V35.4
				C158.81,34.76,158.29,34.24,157.65,34.24z"/>
			<path class="st0" d="M285.76,4.07c0-0.65-0.51-1.17-1.15-1.17h-14c-0.64,0-1.16,0.52-1.16,1.17c0,0,0,27.05,0,27.05h-21.82V4.07
				c0-0.65-0.51-1.17-1.15-1.17h-14c-0.64,0-1.16,0.52-1.16,1.17v73.24c0,0.65,0.52,1.17,1.16,1.17h14c0.64,0,1.15-0.53,1.15-1.17
				V45.98h21.82c0,0-0.04,31.33-0.04,31.33c0,0.65,0.52,1.17,1.16,1.17h14.03c0.64,0,1.15-0.53,1.15-1.17V4.07z"/>
			<g>
				<g>
					<path class="st0" d="M184.06,13.68c0-5.04-4.04-9.11-9.03-9.11c-4.98,0-9.02,4.07-9.02,9.11c0,5.03,4.04,9.12,9.02,9.12
						C180.02,22.8,184.06,18.71,184.06,13.68z"/>
					<path class="st0" d="M183.06,61.86c0-1.88,0-33.81,0-33.81c0-0.64-0.52-1.17-1.16-1.17h-13.95c-0.64,0-1.21,0.66-1.21,1.3
						c0,0,0,40.68,0,48.44c0,1.42,0.89,1.85,2.03,1.85c0,0,5.96,0,12.57,0c1.38,0,1.72-0.68,1.72-1.87
						C183.06,74,183.06,63.83,183.06,61.86z"/>
				</g>
			</g>
			<path class="st0" d="M338.96,26.99h-13.89c-0.64,0-1.16,0.53-1.16,1.17v35.91c0,0-3.53,2.58-8.54,2.58
				c-5.01,0-6.34-2.27-6.34-7.18c0-4.91,0-31.32,0-31.32c0-0.65-0.52-1.17-1.15-1.17h-14.1c-0.64,0-1.16,0.53-1.16,1.17
				c0,0,0,19.12,0,33.69c0,14.57,8.12,18.13,19.29,18.13c9.16,0,16.55-5.06,16.55-5.06s0.35,2.67,0.51,2.98
				c0.16,0.32,0.57,0.63,1.02,0.63l8.97-0.04c0.64,0,1.16-0.53,1.16-1.17l0-49.17C340.11,27.52,339.6,26.99,338.96,26.99z"/>
			<path class="st0" d="M376.92,25.35c-7.89,0-13.25,3.52-13.25,3.52V4.07c0-0.65-0.52-1.17-1.16-1.17h-14.04
				c-0.64,0-1.16,0.52-1.16,1.17v73.24c0,0.65,0.52,1.17,1.16,1.17c0,0,9.74,0,9.74,0c0.44,0,0.77-0.23,1.02-0.62
				c0.24-0.39,0.59-3.38,0.59-3.38s5.74,5.44,16.61,5.44c12.76,0,20.07-6.47,20.07-29.05C396.5,28.3,384.81,25.35,376.92,25.35z
				 M371.44,66.61c-4.82-0.15-8.09-2.33-8.09-2.33V41.09c0,0,3.22-1.98,7.18-2.33c5-0.45,9.82,1.06,9.82,12.99
				C380.35,64.33,378.18,66.82,371.44,66.61z"/>
			<path class="st0" d="M223.29,26.88h-10.5c0,0-0.02-13.87-0.02-13.87c0-0.53-0.27-0.79-0.88-0.79h-14.31
				c-0.56,0-0.85,0.24-0.85,0.78v14.33c0,0-7.17,1.73-7.66,1.87c-0.48,0.14-0.84,0.59-0.84,1.12v9.01c0,0.65,0.52,1.17,1.16,1.17
				h7.34c0,0,0,9.42,0,21.67c0,16.09,11.29,17.68,18.91,17.68c3.48,0,7.64-1.12,8.33-1.37c0.42-0.15,0.66-0.58,0.66-1.05l0.01-9.91
				c0-0.65-0.55-1.17-1.16-1.17c-0.61,0-2.18,0.25-3.79,0.25c-5.16,0-6.9-2.4-6.9-5.5c0-3.1,0-20.59,0-20.59h10.5
				c0.64,0,1.16-0.52,1.16-1.17V28.04C224.45,27.4,223.93,26.88,223.29,26.88z"/>
		</g>
		<g>
			<path class="st1" d="M41.01,0C18.37,0,0,18.36,0,41.01c0,18.12,11.75,33.49,28.05,38.92c2.05,0.38,2.8-0.89,2.8-1.97
				c0-0.98-0.04-4.21-0.06-7.64c-11.41,2.48-13.82-4.84-13.82-4.84c-1.87-4.74-4.55-6-4.55-6c-3.72-2.55,0.28-2.49,0.28-2.49
				c4.12,0.29,6.29,4.23,6.29,4.23c3.66,6.27,9.59,4.46,11.93,3.41c0.37-2.65,1.43-4.46,2.6-5.48c-9.11-1.04-18.69-4.55-18.69-20.27
				c0-4.48,1.6-8.14,4.23-11.01c-0.43-1.03-1.83-5.2,0.4-10.85c0,0,3.44-1.1,11.28,4.2c3.27-0.91,6.78-1.36,10.27-1.38
				c3.49,0.02,7,0.47,10.27,1.38c7.83-5.31,11.27-4.2,11.27-4.2c2.23,5.65,0.83,9.82,0.4,10.85c2.63,2.87,4.22,6.53,4.22,11.01
				c0,15.75-9.59,19.22-18.73,20.24c1.47,1.27,2.78,3.77,2.78,7.59c0,5.49-0.05,9.9-0.05,11.26c0,1.09,0.74,2.37,2.82,1.97
				c16.29-5.43,28.02-20.8,28.02-38.91C82.03,18.36,63.66,0,41.01,0z"/>
			<path class="st0" d="M15.53,58.88c-0.09,0.2-0.41,0.27-0.7,0.13c-0.3-0.13-0.46-0.41-0.37-0.62c0.09-0.21,0.41-0.27,0.71-0.13
				C15.47,58.4,15.64,58.68,15.53,58.88L15.53,58.88z M15.03,58.51"/>
			<path class="st0" d="M17.2,60.74c-0.2,0.18-0.58,0.1-0.84-0.19c-0.27-0.29-0.32-0.67-0.12-0.85c0.2-0.18,0.57-0.1,0.84,0.19
				C17.35,60.17,17.4,60.55,17.2,60.74L17.2,60.74z M16.8,60.32"/>
			<path class="st0" d="M18.81,63.1c-0.25,0.18-0.66,0.01-0.92-0.35c-0.25-0.36-0.25-0.8,0.01-0.98c0.25-0.18,0.66-0.02,0.92,0.34
				C19.07,62.48,19.07,62.92,18.81,63.1L18.81,63.1z M18.81,63.1"/>
			<path class="st0" d="M21.03,65.38c-0.22,0.25-0.7,0.18-1.05-0.16c-0.36-0.33-0.46-0.8-0.23-1.05c0.23-0.25,0.71-0.18,1.06,0.16
				C21.16,64.66,21.27,65.14,21.03,65.38L21.03,65.38z M21.03,65.38"/>
			<path class="st0" d="M24.08,66.71c-0.1,0.32-0.56,0.47-1.02,0.33c-0.46-0.14-0.77-0.52-0.67-0.84c0.1-0.32,0.56-0.48,1.03-0.33
				C23.88,66.01,24.18,66.38,24.08,66.71L24.08,66.71z M24.08,66.71"/>
			<path class="st0" d="M27.44,66.95c0.01,0.34-0.38,0.62-0.87,0.62c-0.49,0.01-0.89-0.26-0.89-0.6c0-0.34,0.39-0.62,0.88-0.63
				C27.04,66.34,27.44,66.62,27.44,66.95L27.44,66.95z M27.44,66.95"/>
			<path class="st0" d="M30.56,66.42c0.06,0.33-0.28,0.67-0.76,0.76c-0.48,0.09-0.92-0.12-0.98-0.44c-0.06-0.34,0.29-0.68,0.76-0.76
				C30.07,65.89,30.5,66.09,30.56,66.42L30.56,66.42z M30.56,66.42"/>
		</g>
	</g>
</g>
<g id="Stackoverflow">
	<g id="A_5">
		<g>
			<path class="st0" d="M1004.28,49.52c5.07,0.49,8.57,2.34,8.48,7.99c0,5.54-4.77,8.75-11.78,8.75c-4.89,0-8.67-1.17-11.89-4.19
				l2.83-2.83c2.24,2.34,5.36,3.31,8.96,3.31c4.77,0,7.7-1.66,7.7-5.07c0-2.54-1.46-3.9-4.77-4.19l-4.77-0.39
				c-5.65-0.49-8.67-3.02-8.67-7.79c0-5.26,4.48-8.48,10.62-8.48c4.19,0,7.8,0.98,10.43,3.12l-2.73,2.73
				c-2.05-1.66-4.68-2.34-7.7-2.34c-4.19,0-6.43,1.85-6.43,4.77c0,2.44,1.46,3.9,5.07,4.19l4.68,0.39L1004.28,49.52z M1040.54,36.44
				c7.7,0,11.5,3.41,11.59,9.65v19.69h-4.19v-2.83c-2.44,2.32-4.48,3.12-8.38,3.12c-3.99,0-6.33-0.78-8.18-2.63
				c-1.35-1.36-2.14-3.51-2.14-5.85c0-5.07,3.51-8.38,9.94-8.38h8.67v-2.83c0-4.19-2.14-6.33-7.4-6.33c-3.7,0-5.65,0.88-7.31,3.31
				l-2.73-2.73C1032.94,37.32,1035.87,36.44,1040.54,36.44L1040.54,36.44z M1047.85,55.54v-3.12h-8.09c-4.29,0-6.43,1.75-6.43,5.07
				c0,3.41,2.05,4.97,6.63,4.97c2.45,0,4.58-0.2,6.43-1.95C1047.37,59.63,1047.85,57.97,1047.85,55.54L1047.85,55.54z
				 M1068.61,40.24c-2.82,0-5.16,1.07-6.72,3.31c-1.36,1.95-1.85,4.19-1.85,7.79c0,3.7,0.49,5.94,1.85,7.79
				c1.56,2.24,3.9,3.31,6.72,3.31c2.73,0,4.48-0.88,6.63-3.31l2.92,2.73c-3.02,3.21-5.57,4.29-9.55,4.29
				c-7.19,0-12.76-4.97-12.76-14.81s5.46-14.81,12.76-14.81c3.99,0,6.53,0.98,9.45,4.19l-2.83,2.73
				C1073.09,41.04,1071.34,40.24,1068.61,40.24L1068.61,40.24z M1104.87,36.82l-10.34,10.34l11.98,18.61h-5.26l-9.65-15.69
				l-5.16,5.16v10.52h-4.19v-41.8h4.19v25.62l13.15-12.76h5.26L1104.87,36.82z M1134.1,38.98c2.73,2.83,3.41,6.24,3.41,11.69
				s-0.68,8.87-3.41,11.69c-1.85,1.95-4.87,3.7-9.35,3.7c-4.39,0-7.41-1.75-9.26-3.7c-2.73-2.83-3.41-6.24-3.41-11.69
				s0.68-8.87,3.41-11.69c1.85-1.95,4.77-3.7,9.26-3.7C1129.13,35.27,1132.25,37.03,1134.1,38.98z M1130.01,50.67
				c0-3.12-0.19-5.75-1.75-7.31c-0.88-0.88-2.05-1.36-3.51-1.36c-1.56,0-2.63,0.49-3.51,1.36c-1.56,1.56-1.75,4.19-1.75,7.31
				c0,3.12,0.19,5.75,1.75,7.31c0.88,0.88,2.05,1.36,3.51,1.36s2.63-0.49,3.51-1.36C1129.82,56.42,1130.01,53.78,1130.01,50.67z
				 M1157.49,35.66h7.89l-11.01,30.11h-5.85l-11.11-30.11h7.89l6.14,18.61L1157.49,35.66L1157.49,35.66z M1178.24,35.27
				c8.28,0,13.06,6.14,12.96,14.32v3.31h-18.81c0,3.9,2.44,6.72,6.63,6.72c3.31,0,4.87-0.88,6.82-2.83l4.58,4.48
				c-3.02,3.12-5.94,4.77-11.4,4.77c-7.11,0-13.93-3.21-13.93-15.4C1165.09,40.84,1170.45,35.27,1178.24,35.27L1178.24,35.27z
				 M1172.5,47.84h11.5c0.03-1.11-0.21-2.21-0.68-3.21c-0.88-1.76-2.53-3.12-5.07-3.12c-2.63,0-4.27,1.37-5.07,3.12
				C1172.69,45.7,1172.59,46.48,1172.5,47.84L1172.5,47.84z M1202.38,38.46c1.46-1.66,4.29-3.21,7.6-3.12
				c2.92,0,5.07,0.78,7.11,2.83l-5.65,5.65c-1.15-1.17-2.13-1.75-3.98-1.75c-2.34,0-4.87,1.77-4.87,5.57v18.14h-7.5v-30.2h7.32v2.92
				L1202.38,38.46z M1219.38,32.54c0-4.29,2.71-8.67,8.75-8.67h4.29v6.35h-2.92c-1.76,0-2.63,0.97-2.63,2.73v3.31h5.57v5.75h-5.57
				v23.76h-7.5V32.54L1219.38,32.54z M1272.76,38.98c2.73,2.83,3.41,6.24,3.41,11.69s-0.68,8.87-3.41,11.69
				c-1.85,1.95-4.87,3.7-9.35,3.7c-4.39,0-7.41-1.75-9.26-3.7c-2.73-2.83-3.41-6.24-3.41-11.69s0.68-8.87,3.41-11.69
				c1.85-1.95,4.77-3.7,9.26-3.7C1267.79,35.27,1270.91,37.03,1272.76,38.98z M1268.67,50.67c0-3.12-0.19-5.75-1.75-7.31
				c-0.88-0.88-2.05-1.36-3.51-1.36c-1.56,0-2.63,0.49-3.51,1.36c-1.56,1.56-1.75,4.19-1.75,7.31c0,3.12,0.19,5.75,1.75,7.31
				c0.88,0.88,2.05,1.36,3.51,1.36c1.46,0,2.63-0.49,3.51-1.36C1268.47,56.42,1268.67,53.78,1268.67,50.67z M1319.52,35.65
				l-9.16,30.11h-6.14l-6.33-18.9l-6.33,18.9h-6.14l-9.26-30.11h7.99l4.87,18.61l6.14-18.61h5.46l6.14,18.61l4.87-18.61H1319.52z
				 M1243.5,56.71c0,1.76,0.78,2.63,2.63,2.63h2.92v6.33h-4.29c-6.12,0-8.75-4.29-8.75-8.57V23.87h7.5V56.7L1243.5,56.71z
				 M1024.55,41.43h-3.98v16.55c0,2.63,1.17,4.19,3.9,4.19h2.26v3.6h-3.02c-4.97,0-7.4-3.51-7.4-7.79V27.96h4.19v9.55h7.97l-3.9,3.9
				L1024.55,41.43z"/>
			<path class="st0" d="M976.33,80V51.45h-7.21v21.44h-49.89V51.45h-7.11V80L976.33,80z"/>
			<path class="st0" d="M928.59,42.5l34.98,7.31l-1.46,7l-34.98-7.31C927.13,49.5,928.59,42.5,928.59,42.5z M931.71,32.76l3.02-6.53
				l32.35,15.2l-3.02,6.43l-32.35-15.12V32.76z M940.67,16.86l4.58-5.46l27.48,22.8l-4.58,5.46L940.67,16.86L940.67,16.86z
				 M979.74,28.65l-5.77,4.29L952.65,4.29L958.4,0L979.74,28.65z M926.35,58.56h35.65v7.11h-35.65V58.56z"/>
		</g>
	</g>
</g>
<g id="crunchbase">
	<g id="A_2">
		<path class="st0" d="M665.81,578.15l-0.12,4.38h-41.08c0,6.76,6.73,13.86,15.79,13.86c6.7,0,11.44-2.33,14.1-7.1h10.84
			c-1.44,5.49-5.03,10.17-9.96,12.99c-4.76,2.65-10.12,4-15.56,3.92c-7.21,0.17-14.18-2.65-19.23-7.8s-7.75-12.17-7.43-19.38
			c-0.32-7.19,2.39-14.18,7.45-19.28c5.06-5.11,12.03-7.87,19.22-7.6c14.77,0,25.97,9.58,25.97,26.01L665.81,578.15z M624.63,572.98
			h29.87c-0.96-6.59-7.34-11.24-15.1-11.24c-7.06-0.44-13.39,4.33-14.92,11.24H624.63z M139.99,585.81h12.08
			c-3,12.07-13.81,20.57-26.25,20.63c-15.02,0.08-27.27-12.03-27.35-27.05c0.07-12.44,8.56-23.24,20.63-26.25
			c14.58-3.63,29.34,5.25,32.96,19.83h-12.08c-2.93-6.74-10.16-10.52-17.36-9.07c-6.06,1.18-10.85,5.84-12.21,11.87
			c-1.89,8.39,3.38,16.72,11.77,18.61c7.16,1.64,14.49-1.93,17.61-8.58H139.99z M190.24,565.12c-3.68-2.35-8.4-2.35-12.08,0
			c-2,1.06-3.5,2.88-4.17,5.05v0.24c-0.63,3.23-0.86,6.53-0.69,9.82v24.16h-11.17v-50.4h11.12v1.51c3.25-2.15,7.04-3.31,10.93-3.35
			c3.75-0.09,7.48,0.7,10.87,2.29L190.24,565.12z M248.26,553.98v50.4h-11.02v-1.66c-3.25,2.15-7.04,3.31-10.93,3.35
			c-3.75,0.09-7.48-0.7-10.87-2.29c-4.08-1.73-7.32-4.98-9.06-9.06c-1.52-4.25-2.17-8.76-1.9-13.26v-27.48h11.09v24.16
			c-0.17,3.29,0.06,6.59,0.69,9.82v0.24c0.66,2.15,2.13,3.95,4.11,5.01c3.68,2.35,8.4,2.35,12.08,0c1.98-1.06,3.45-2.87,4.11-5.01
			v-0.24c0.63-3.23,0.86-6.53,0.69-9.82v-24.16H248.26z M262.15,604.46V554.2h11.17v1.51c3.25-2.15,7.04-3.31,10.93-3.35
			c3.75-0.09,7.48,0.7,10.87,2.29c4.08,1.73,7.32,4.98,9.06,9.06c1.48,4.25,2.1,8.76,1.81,13.26v27.48h-11.09v-24.16
			c0.19-3.3-0.02-6.6-0.64-9.85v-0.24c-0.66-2.15-2.13-3.95-4.11-5.01c-3.68-2.35-8.4-2.35-12.08,0c-1.98,1.06-3.45,2.87-4.11,5.01
			v0.24c-0.65,3.24-0.91,6.55-0.76,9.85v24.16L262.15,604.46z M357.61,585.87h12.1c-3,12.07-13.81,20.57-26.25,20.63
			c-15.02,0.08-27.27-12.03-27.35-27.05c0.07-12.44,8.56-23.24,20.63-26.25c14.58-3.63,29.34,5.25,32.96,19.83h-12.08
			c-2.93-6.74-10.16-10.52-17.36-9.07c-6.06,1.18-10.85,5.84-12.21,11.87c-1.89,8.39,3.38,16.72,11.77,18.61
			c7.16,1.64,14.49-1.93,17.61-8.58H357.61z M379.91,604.45v-77.89h11.14v29.06c3.25-2.15,7.04-3.31,10.93-3.35
			c3.75-0.09,7.48,0.7,10.87,2.29c4.08,1.73,7.32,4.98,9.06,9.06c1.52,4.25,2.17,8.76,1.9,13.26v27.54h-11.09v-24.16
			c0.17-3.29-0.06-6.59-0.69-9.82v-0.24c-0.66-2.15-2.13-3.95-4.11-5.01c-3.68-2.35-8.4-2.35-12.08,0c-2,1.06-3.5,2.88-4.17,5.05
			v0.24c-0.63,3.23-0.86,6.53-0.69,9.82v24.16H379.91z M463.68,552.2c11.77-0.19,22.32,7.24,26.14,18.38
			c3.81,11.14,0.01,23.48-9.41,30.54c-9.42,7.07-22.32,7.27-31.95,0.49v2.84h-11.09v-77.89h11.02v30.26
			c3.93-2.72,8.52-4.33,13.29-4.68h2V552.2z M479.28,581.25c0.05-0.69,0.05-1.39,0-2.08c-0.25-8.36-7.04-15.05-15.4-15.16h-1.6
			c-5.43,0.56-10.17,3.92-12.51,8.85c-1.92,4.05-1.98,8.73-0.18,12.84c0.28,0.67,0.62,1.31,0.99,1.93c0.76,1.22,1.68,2.33,2.75,3.29
			c1.06,0.94,2.24,1.74,3.5,2.36h0.3c1.26,0.58,2.59,0.99,3.96,1.21h0.48c0.7,0.1,1.4,0.15,2.11,0.15c0.56,0.03,1.12,0.03,1.68,0
			h0.33l1.47-0.24c4.76-1,8.79-4.16,10.9-8.55v-0.24c0.3-0.64,0.55-1.29,0.76-1.96c0.18-0.63,0.32-1.26,0.42-1.9v-0.48H479.28z
			 M604.2,569.09h-10.96v-0.27c0-4.02-4.86-6.52-9.39-6.52c-4.53,0-9.39,1.7-9.39,6.47c0,3.05,4.75,4.44,6.86,4.89l9.36,2.11
			c10.69,2.48,13.29,8.61,13.53,13.42v0.16c0,8.24-6.31,16.88-20.39,16.73c-14.07-0.15-20.39-8.51-20.39-16.73v-0.16h10.92v0.18
			c0,4.02,4.87,6.52,9.39,6.52c3.92,0,9.39-2.28,9.39-6.49c-0.33-3.08-4.44-4.44-6.86-4.98l-9.36-2.12
			c-10.51-2.47-13.23-8.52-13.53-13.26v-0.61c0.18-8.1,6.29-16.52,20.36-16.37c14.07,0.15,20.39,8.51,20.39,16.73v0.24L604.2,569.09
			z M499.8,579.17c0.19-14.83,12.23-26.78,27.06-26.85h2c4.77,0.35,9.36,1.97,13.29,4.68v-3.02h11.02v50.4h-11.09v-2.87
			c-8.3,5.54-18.98,6.09-27.81,1.43C505.45,598.28,499.9,589.15,499.8,579.17L499.8,579.17z M511.27,579.17
			c0.15,0.58,0.33,1.16,0.54,1.72v0.48c0.1,0.64,0.24,1.28,0.42,1.9c0.21,0.67,0.46,1.33,0.76,1.96v0.24
			c2.08,4.31,6,7.43,10.66,8.49l1.47,0.24h0.21c0.56,0.03,1.12,0.03,1.68,0c0.71-0.01,1.42-0.05,2.11-0.15h0.48
			c1.37-0.23,2.69-0.68,3.96-1.21h0.3c1.27-0.62,2.45-1.41,3.5-2.36c1.06-0.97,1.99-2.08,2.75-3.29c0.37-0.62,0.71-1.26,0.99-1.93
			c1.8-4.1,1.74-8.79-0.18-12.84c-2.34-4.93-7.08-8.29-12.51-8.85h-1.6c-8.6,0.02-15.56,6.99-15.58,15.58L511.27,579.17z"/>
	</g>
	<g id="A_3">
		<g>
			<path class="st1" d="M58.26,560.1c-0.3-0.02-0.61-0.02-0.91,0c-3.08,0.32-5.76,2.22-7.09,5.02c-1.08,2.3-1.12,4.95-0.1,7.27
				c0.16,0.38,0.35,0.74,0.57,1.1c0.43,0.69,0.96,1.32,1.56,1.86c0.6,0.53,1.27,0.98,1.98,1.34h0.17c0.71,0.33,1.47,0.56,2.24,0.68
				h0.28c0.4,0.05,0.8,0.08,1.2,0.08c0.32,0.02,0.64,0.02,0.96,0h0.19l0.84-0.12c2.7-0.56,4.99-2.35,6.18-4.84v-0.12
				c0.16-0.37,0.31-0.74,0.43-1.12c0.1-0.35,0.18-0.71,0.24-1.08v-0.28v-0.01c0.03-0.39,0.03-0.79,0-1.18
				C66.85,563.95,63,560.16,58.26,560.1z"/>
			<path class="st1" d="M70,526.56H10c-5.52,0-10,4.48-10,10v60c0,5.52,4.48,10,10,10h60c5.52,0,10-4.48,10-10v-60
				C80,531.04,75.52,526.56,70,526.56z M19.65,577.32c4.05,0.93,8.21-1.09,9.98-4.85h0.1h6.85c-1.7,6.85-7.83,11.67-14.88,11.7
				c-8.51,0.04-15.45-6.83-15.49-15.34c0-7.8,5.83-14.36,13.57-15.29c7.74-0.93,14.96,4.08,16.8,11.66h-6.85
				c-1.66-3.82-5.76-5.96-9.84-5.13c-4.09,0.82-7.03,4.37-7.09,8.53C12.74,572.75,15.59,576.39,19.65,577.32z M67.64,581.11
				c-5.34,4-12.65,4.11-18.11,0.28v1.61h-6.28v-44.1h6.25v17.15c2.23-1.54,4.83-2.46,7.53-2.65h1.13l0,0
				c6.69-0.1,12.65,4.1,14.81,10.42C75.13,570.11,72.97,577.1,67.64,581.11z"/>
		</g>
	</g>
</g>
<g id="angellist">
	<g>
		<path class="st0" d="M918.57,569.77l-0.02,0c1.96-5.49,3.42-9.93,4.39-13.32c0.97-3.39,1.46-5.72,1.46-6.99
			c0-1.68-0.44-3.02-1.31-4.02c-0.9-1-2.2-1.55-3.54-1.5c-3.01,0-6.61,6.03-10.79,18.08c-0.58,1.65-1.03,2.93-1.35,3.82
			c-0.38-1.13-0.93-2.74-1.65-4.83c-4.17-12.17-7.61-18.25-10.33-18.25c-1.43-0.07-2.82,0.52-3.78,1.59
			c-0.91,1.06-1.37,2.48-1.37,4.28c0,1.3,0.5,3.66,1.52,7.1c1.01,3.44,2.64,8.31,4.87,14.63c-0.63-0.38-1.3-0.69-2-0.94
			c-0.53-0.18-1.09-0.28-1.65-0.28c-1.22,0-2.51,0.68-3.89,2.04c-1.38,1.36-2.06,2.69-2.06,4c0.03,0.55,0.13,1.09,0.3,1.61
			c0.27,0.87,0.59,1.73,0.96,2.57c-2.31,0.51-4.01,1.44-5.08,2.81c-1.07,1.36-1.61,3.29-1.61,5.78c0.01,2.27,0.55,4.5,1.56,6.53
			c1.17,2.3,2.76,4.35,4.69,6.06c1.88,1.78,4.11,3.16,6.53,4.06c2.5,0.96,5.16,1.46,7.84,1.45c6.84,0,12.45-2.32,16.84-6.97
			c4.39-4.65,6.58-10.62,6.58-17.93c-0.01-3.68-0.54-6.38-1.61-8.08C923.04,571.36,921.2,570.26,918.57,569.77z M914.3,555.49
			c1.01-2.98,1.94-5.15,2.78-6.5c0.85-1.35,1.68-2.02,2.48-2.02c0.58-0.02,1.14,0.24,1.5,0.7c0.4,0.57,0.59,1.26,0.54,1.96
			c0,0.79-0.54,2.9-1.63,6.32c-1.09,3.44-2.6,7.79-4.54,13.07l-5.46-0.95L914.3,555.49z M894.55,555.17
			c-1.01-3.31-1.52-5.64-1.52-6.97c-0.03-0.67,0.17-1.33,0.57-1.87c0.35-0.45,0.89-0.71,1.46-0.7c0.78,0,1.51,0.53,2.17,1.59
			c0.67,1.06,1.61,3.31,2.83,6.76l4.69,13.56c-1.18-0.11-2.03-0.18-2.55-0.2c-0.52-0.03-0.87-0.04-1.04-0.04
			c-0.44-0.02-0.89,0.05-1.31,0.2c-0.32,0.13-0.58,0.37-0.74,0.67C897.08,562.81,895.56,558.48,894.55,555.17z M891.3,573.4
			c0.74-0.76,1.41-1.15,2.02-1.15c0.75,0,1.55,0.37,2.39,1.11c1.02,0.96,1.88,2.06,2.57,3.28c1.16,1.89,2.16,3.87,2.98,5.93
			c0.8,2.02,1.19,3.3,1.19,3.84c-0.01,0.54-0.23,1.07-0.61,1.45c-0.33,0.41-0.82,0.66-1.35,0.67v-0.01c-0.66,0-1.55-0.47-2.7-1.42
			c-1.35-1.19-2.56-2.53-3.61-4c-1.1-1.39-2.08-2.87-2.91-4.43c-0.72-1.39-1.08-2.43-1.08-3.13
			C890.19,574.88,890.56,574.16,891.3,573.4z M916.96,596.79c-3.56,4.1-8.76,6.42-14.19,6.32c-2.91,0.04-5.79-0.58-8.42-1.83
			c-2.52-1.22-4.7-3.03-6.37-5.28c-1.06-1.35-1.93-2.83-2.59-4.41c-0.54-1.26-0.84-2.61-0.87-3.98c-0.03-1.39,0.42-2.75,1.28-3.84
			c0.86-1.08,1.79-1.63,2.81-1.63c0.47,0,1.08,0.34,1.85,1.02c1.05,1,2.02,2.08,2.89,3.24c0.88,1.08,1.68,2.23,2.39,3.43
			c0.57,1.02,0.86,1.74,0.86,2.17c-0.04,0.44-0.28,0.84-0.65,1.08c-0.42,0.34-0.94,0.53-1.48,0.52c-1.62,0-3.39-1.31-5.3-3.94
			c-0.73-0.95-1.3-1.67-1.7-2.16c-0.16,0.17-0.28,0.37-0.34,0.59c-0.08,0.28-0.11,0.56-0.11,0.85c0,1.7,0.94,3.45,2.83,5.23
			c1.88,1.78,3.73,2.67,5.56,2.67c1.11,0.02,2.19-0.39,3-1.15c0.8-0.69,1.26-1.7,1.26-2.76c-0.01-0.24-0.03-0.48-0.07-0.72
			c-0.05-0.32-0.11-0.63-0.2-0.94c0.26,0.08,0.52,0.14,0.78,0.2c0.24,0.04,0.49,0.06,0.74,0.07c0.24,0,0.49-0.04,0.72-0.13
			c0.25-0.11,0.48-0.25,0.67-0.43v0.39c0,2.35,0.37,4.22,1.11,5.63c0.74,1.41,1.74,2.15,3.02,2.24l0.09-0.39v-0.3
			c-0.14-0.85-0.36-1.69-0.67-2.5c-0.41-1.11-0.63-2.27-0.67-3.45c0.06-1.77,0.61-3.5,1.59-4.98c1.07-1.79,2.49-3.35,4.17-4.59
			c1.1-0.72,2.28-1.3,3.52-1.74c1.54-0.59,2.56-1.12,3.05-1.59c-0.04-0.49-0.22-0.96-0.5-1.37c-0.24-0.29-0.6-0.45-0.98-0.43h-1.78
			c-4.93,0.01-8.49-0.42-10.69-1.31c-2.2-0.88-3.3-2.31-3.3-4.28c0-0.84,0.22-1.43,0.65-1.78c0.44-0.35,1.17-0.52,2.22-0.52
			c3.62-0.01,7.23,0.38,10.76,1.17c3.43,0.79,5.75,1.67,6.93,2.65c0.74,0.65,1.25,1.53,1.43,2.5c0.33,1.52,0.47,3.07,0.44,4.63
			C922.67,587.29,920.77,592.57,916.96,596.79z M902.93,579.44c1.04,0.38,2.1,0.68,3.19,0.87c1.17,0.21,2.35,0.34,3.54,0.39
			c-0.87,0.56-1.69,1.19-2.45,1.89c-0.78,0.73-1.51,1.53-2.18,2.37c-0.24-0.93-0.53-1.84-0.87-2.74
			C903.8,581.3,903.39,580.37,902.93,579.44z"/>
		<path class="st0" d="M1283.44,582.05c-1.41-1-2.97-1.79-4.62-2.33c-1.75-0.59-3.53-1.09-5.32-1.49c-1.75-0.42-3.48-0.8-5.18-1.15
			c-1.54-0.32-3.05-0.72-4.54-1.22c-1.17-0.36-2.26-0.94-3.21-1.71c-0.8-0.67-1.25-1.67-1.22-2.72c-0.05-0.81,0.21-1.61,0.7-2.25
			c0.47-0.53,1.06-0.95,1.71-1.22c0.72-0.3,1.47-0.49,2.25-0.57c0.76-0.08,1.53-0.13,2.28-0.13c2-0.06,3.99,0.35,5.8,1.22
			c1.74,1,2.78,2.88,2.72,4.89h11.88c-0.12-2.47-0.86-4.87-2.15-6.99c-1.16-1.8-2.71-3.32-4.54-4.44c-1.92-1.16-4.02-1.95-6.21-2.38
			c-2.36-0.47-4.76-0.71-7.17-0.7c-2.42,0-4.83,0.22-7.21,0.66c-2.22,0.39-4.36,1.17-6.33,2.28c-1.86,1.07-3.42,2.6-4.53,4.44
			c-1.22,2.2-1.82,4.69-1.71,7.21c-0.07,1.77,0.35,3.52,1.22,5.05c0.81,1.37,1.92,2.55,3.25,3.43c1.43,0.94,2.98,1.68,4.62,2.2
			c1.74,0.57,3.51,1.05,5.32,1.46c3.54,0.69,7.01,1.62,10.42,2.81c2.49,0.95,3.74,2.36,3.74,4.23c0.04,0.98-0.24,1.96-0.79,2.77
			c-0.52,0.73-1.19,1.33-1.98,1.76c-0.83,0.45-1.72,0.78-2.64,0.97c-0.91,0.2-1.84,0.3-2.77,0.31c-1.2,0.01-2.4-0.13-3.56-0.43
			c-1.08-0.27-2.11-0.73-3.03-1.37c-0.88-0.63-1.61-1.44-2.15-2.38l0.08-0.02c-0.62-1.06-0.94-2.27-0.93-3.49h-11.88
			c0.01,2.62,0.71,5.25,2.06,7.56c1.23,1.99,2.9,3.66,4.89,4.89c2.05,1.32,4.33,2.23,6.73,2.7c2.55,0.53,5.14,0.79,7.74,0.79
			c2.54,0,5.07-0.25,7.56-0.75c2.35-0.44,4.61-1.32,6.64-2.59c4.24-2.62,6.73-7.32,6.53-12.3c0.07-1.85-0.35-3.69-1.22-5.32
			C1285.89,584.27,1284.78,583.02,1283.44,582.05z"/>
		<path class="st0" d="M1147.03,575.76c-0.77-3.11-2.13-6.03-4.01-8.62c-1.86-2.53-4.28-4.59-7.07-6.02
			c-3.14-1.56-6.6-2.33-10.11-2.25c-3.24-0.04-6.46,0.59-9.45,1.85c-5.61,2.37-9.99,6.95-12.09,12.67
			c-1.15,3.03-1.73,6.25-1.72,9.49c-0.04,3.29,0.51,6.57,1.62,9.66c1.01,2.81,2.58,5.38,4.62,7.56c2.05,2.15,4.55,3.82,7.33,4.89
			c3.09,1.18,6.37,1.76,9.67,1.71c4.65,0.14,9.23-1.08,13.19-3.51c3.59-2.35,6.28-6.25,8.08-11.7h-10.99
			c-0.63,1.68-1.81,3.09-3.35,4.01c-1.92,1.35-4.19,1.94-6.51,1.89c-3.52,0-6.21-0.91-8.08-2.72h0.02c-1.87-1.81-2.9-4.74-3.08-8.78
			h32.83C1148.15,582.48,1147.85,579.06,1147.03,575.76z M1115.07,577.96c0.08-1.01,0.28-2.02,0.57-2.99
			c0.35-1.15,0.92-2.22,1.67-3.15c0.86-1.05,1.94-1.97,3.16-2.51c1.55-0.73,3.26-1.07,4.97-1.02c3.04,0,5.32,0.81,6.81,2.44
			l-0.01,0.01c1.68,2.07,2.76,4.52,3.12,7.22H1115.07z"/>
		<path class="st0" d="M1317.67,596.16l-2.02,0.09c-2.11,0.01-3.52-0.34-4.23-1.05c-0.71-0.71-1.06-2.12-1.06-4.23v-22.51h9.15
			v-8.35l-9.14-0.01v-13.63h-12.48v13.64h-7.56v8.35h7.56v26.87c-0.08,1.91,0.31,3.82,1.15,5.54c0.72,1.36,1.8,2.48,3.13,3.25
			c1.41,0.79,2.96,1.32,4.57,1.54c1.82,0.26,3.66,0.39,5.5,0.39c1.22,0,2.48-0.03,3.78-0.09c1.18-0.05,2.35-0.17,3.51-0.36v-9.72
			C1318.91,596.01,1318.29,596.1,1317.67,596.16z"/>
		<path class="st0" d="M1083.86,566.13h-0.17c-1.28-2.4-3.26-4.36-5.67-5.63c-2.47-1.12-5.16-1.67-7.87-1.62
			c-2.91-0.06-5.79,0.57-8.4,1.85c-2.37,1.19-4.46,2.88-6.1,4.97c-1.68,2.15-2.94,4.59-3.74,7.21c-0.83,2.75-1.25,5.61-1.22,8.49
			c-0.02,2.99,0.36,5.96,1.1,8.84c0.66,2.65,1.84,5.14,3.47,7.33c1.62,2.09,3.71,3.76,6.1,4.89c2.76,1.27,5.77,1.88,8.8,1.81
			c2.72,0.01,5.4-0.63,7.87-1.71c2.45-1.1,4.47-2.97,5.77-5.32h0.17v6.03c0.17,2.86-0.66,5.68-2.33,8
			c-1.61,2.11-4.18,3.16-7.69,3.16c-2.04,0.04-4.07-0.43-5.89-1.37c-1.8-1.05-3.06-2.83-3.43-4.89h-12.4
			c0.1,2.37,0.85,4.66,2.15,6.64c1.24,1.83,2.86,3.38,4.75,4.53c1.97,1.17,4.1,2.05,6.33,2.59c2.23,0.55,4.52,0.83,6.81,0.83
			c4.27,0.12,8.51-0.54,12.48-2.16c2.81-1.14,5.18-2.9,7.13-5.14c1.58-1.89,2.68-4.14,3.21-6.54l-0.01-0.01
			c0.43-2.05,0.65-4.1,0.66-6.26v-42.56h-11.88V566.13z M1083.31,586.97c-0.39,1.45-1.06,2.81-1.98,4.01
			c-0.89,1.18-2.03,2.14-3.35,2.81h-0.01c-1.42,0.71-3,1.06-4.59,1.04c-1.71,0.08-3.41-0.35-4.89-1.22
			c-1.27-0.8-2.34-1.88-3.13-3.16c-0.81-1.34-1.38-2.81-1.67-4.35c-0.32-1.61-0.49-3.25-0.49-4.89c-0.01-1.65,0.18-3.29,0.57-4.89
			c0.35-1.48,0.98-2.88,1.85-4.13c0.82-1.18,1.91-2.16,3.16-2.86c1.4-0.74,2.96-1.11,4.54-1.05c1.77-0.06,3.53,0.33,5.1,1.15
			c1.32,0.74,2.44,1.8,3.25,3.08c0.85,1.37,1.45,2.87,1.76,4.44c0.36,1.75,0.53,3.54,0.52,5.32
			C1083.97,583.87,1083.75,585.45,1083.31,586.97z"/>
		<rect x="1154.51" y="542.77" class="st0" width="12.49" height="62.78"/>
		<polygon class="st0" points="1190.76,542.76 1176.96,542.77 1176.96,605.54 1221.35,605.54 1221.35,593.93 1190.76,593.93 		"/>
		<rect x="1226.53" y="560.1" class="st0" width="12.48" height="45.46"/>
		<path class="st0" d="M1040.41,563.99c-1.32-1.68-3.07-2.99-5.05-3.78c-2.62-0.99-5.42-1.46-8.22-1.37
			c-2.68,0.01-5.33,0.63-7.74,1.81c-2.56,1.27-4.69,3.28-6.1,5.77h-0.27v-6.32l-11.88,0.1v45.35h12.55v-23.83
			c0.04-4.64,0.8-7.96,2.28-9.98c1.48-2.02,3.93-3.02,7.33-3.02c2.99,0,5.07,0.92,6.24,2.77c1.17,1.85,1.76,4.65,1.76,8.4v25.7
			h12.43v-27.97c0.02-2.59-0.23-5.16-0.75-7.69C1042.6,567.78,1041.71,565.75,1040.41,563.99z"/>
		<path class="st0" d="M959.5,542.77l-23.74,62.78h13.93l4.89-14.04h23.47l4.75,14.04h14.29l-23.47-62.78H959.5z M958.17,581.28
			l8.18-23.03h0.17l7.88,23.04L958.17,581.28z"/>
	</g>
</g>
<g id="database">
	<g>
		<path class="st0" d="M548.87,247.75c-0.49-5.54-0.17-11.12,0.96-16.56c1.51-6.84,4.48-12.51,8.84-16.86
			c6.09-6.1,14.65-9.44,25.39-9.94c5.18-0.2,10.36,0.16,15.46,1.05l1.18-6.71c-5.59-0.98-11.26-1.36-16.93-1.15
			c-12.53,0.57-22.6,4.59-29.93,11.92c-5.29,5.29-8.88,12.09-10.69,20.26c-1.27,6.11-1.63,12.37-1.08,18.58L548.87,247.75z"/>
		<path class="st0" d="M544.32,262.65c0.97,4.16,2.16,8.27,3.55,12.31l6.45-2.2c-1.31-3.82-2.43-7.7-3.35-11.64L544.32,262.65z"/>
		<path class="st0" d="M566.01,298.86c-2.35-4.29-4.51-8.61-6.41-12.83l-6.22,2.8c1.97,4.38,4.21,8.86,6.65,13.3L566.01,298.86z"/>
		<path class="st0" d="M572.19,321.8c2.22,3.22,4.58,6.48,7.02,9.69c0.57,0.75,1.15,1.5,1.73,2.25l5.38-4.18
			c-0.57-0.73-1.13-1.46-1.68-2.19c-2.38-3.13-4.67-6.3-6.84-9.43L572.19,321.8z"/>
		<path class="st0" d="M596.5,341.86c-0.34-0.39-0.68-0.78-1.02-1.16l-5.15,4.47c0.34,0.4,0.69,0.79,1.04,1.19
			c1.97,2.25,4.03,4.52,6.11,6.74c0.93,1,1.87,1.99,2.83,2.98l4.91-4.73c-0.93-0.97-1.85-1.94-2.76-2.91
			C600.43,346.27,598.43,344.05,596.5,341.86z"/>
		<path class="st0" d="M756,332.77l-6.24,2.74c4.64,10.58,7.75,20.67,9.25,29.99c2.81,17.58-0.29,31.47-8.99,40.17
			c-4.32,4.32-9.92,7.27-16.67,8.8c-5.43,1.22-11.58,1.51-18.28,0.87c-1.65-0.16-3.35-0.37-5.06-0.64l-1.07,6.73
			c1.84,0.29,3.68,0.53,5.47,0.7c2.52,0.24,4.97,0.36,7.36,0.36c4.39,0.03,8.78-0.43,13.07-1.37c8.02-1.81,14.75-5.38,19.99-10.62
			c10.31-10.31,14.08-26.24,10.9-46.07C764.15,354.53,760.88,343.88,756,332.77z"/>
		<path class="st0" d="M746.91,314.77l-5.92,3.38c1.88,3.3,3.66,6.62,5.27,9.88l6.11-3.03
			C750.69,321.63,748.85,318.18,746.91,314.77z"/>
		<path class="st0" d="M731.88,303.58l5.63-3.84c-2.76-4.06-5.68-8.09-8.66-11.99l-5.42,4.14
			C726.35,295.69,729.19,299.62,731.88,303.58z"/>
		<path class="st0" d="M714.37,280.67l5.18-4.43c-3.19-3.73-6.53-7.42-9.92-10.98l-4.93,4.71
			C708,273.43,711.26,277.04,714.37,280.67z"/>
		<path class="st0" d="M699.11,397.2l-6.56,1.88l3.55,12.39c-9.64-2.98-18.97-6.88-27.86-11.65c-11.94-6.38-23.3-13.8-33.94-22.18
			c-7.89-6.18-15.44-12.79-22.61-19.78l-4.76,4.88c7.35,7.17,15.08,13.94,23.17,20.27c10.96,8.63,22.65,16.27,34.95,22.84
			c7.63,4.07,15.55,7.55,23.71,10.42l-8.59,2.46l1.88,6.56l19.92-5.7c1.81-0.52,2.86-2.41,2.34-4.22L699.11,397.2z"/>
		<path class="st0" d="M613.9,224.34l6.67-1.42l-2.7-12.61c7.46,2.6,14.71,5.76,21.7,9.45c11.79,6.22,23.01,13.47,33.53,21.65
			c4.96,3.83,9.96,7.98,14.85,12.34c2.71,2.42,5.44,4.96,8.12,7.54c1.16,1.12,2.35,2.28,3.52,3.46l4.82-4.82
			c-1.2-1.2-2.42-2.4-3.6-3.54c-2.74-2.64-5.53-5.24-8.32-7.73c-5.01-4.47-10.14-8.73-15.21-12.65c-5.15-4-10.47-7.79-15.97-11.37
			c3.23-1.84,6.47-3.57,9.65-5.15l-3.03-6.11c-3.49,1.73-7.05,3.64-10.58,5.66l2.75,4.8c-5.64-3.62-11.41-6.99-17.33-10.12
			c-5.49-2.9-11.14-5.49-16.92-7.75l8.43-1.8l-1.42-6.67l-20.26,4.33c-1.84,0.39-3.02,2.2-2.62,4.04L613.9,224.34z"/>
		<path class="st0" d="M572.69,422.59c4.27,0.88,8.61,1.33,12.97,1.33c1.87,0,3.75-0.08,5.62-0.25l-0.6-6.79
			c-5.54,0.49-11.11,0.17-16.56-0.96c-6.83-1.51-12.51-4.48-16.86-8.84c-6.1-6.1-9.44-14.65-9.94-25.39
			c-0.19-5.18,0.16-10.36,1.05-15.46l-6.71-1.18c-0.98,5.59-1.37,11.26-1.15,16.93c0.57,12.53,4.59,22.59,11.92,29.93
			C557.72,417.2,564.52,420.79,572.69,422.59z"/>
		<path class="st0" d="M617.88,417.87l-2.2-6.45c-3.82,1.31-7.71,2.43-11.64,3.36l1.54,6.64
			C609.74,420.44,613.85,419.26,617.88,417.87z"/>
		<path class="st0" d="M641.78,399.74c-4.29,2.35-8.61,4.51-12.83,6.41l2.8,6.22c4.38-1.97,8.86-4.21,13.3-6.65L641.78,399.74z"/>
		<path class="st0" d="M660.85,387.94l3.87,5.62c3.22-2.22,6.48-4.58,9.69-7.02c0.75-0.57,1.5-1.15,2.25-1.73l-4.19-5.38
			c-0.73,0.57-1.46,1.13-2.19,1.68C667.16,383.48,663.98,385.78,660.85,387.94z"/>
		<path class="st0" d="M696.02,368.26c0.99-0.93,1.99-1.87,2.98-2.83l-4.73-4.91c-0.97,0.93-1.93,1.85-2.91,2.76
			c-2.17,2.03-4.38,4.04-6.58,5.97c-0.39,0.34-0.77,0.68-1.16,1.01l4.47,5.15c0.4-0.35,0.8-0.69,1.19-1.04
			C691.53,372.39,693.8,370.34,696.02,368.26z"/>
		<path class="st0" d="M760.86,261.74c-0.79-0.44-1.72-0.55-2.59-0.3l-18.15,5.19l1.88,6.56l12.39-3.55
			c-2.98,9.64-6.88,18.96-11.65,27.85c-6.38,11.94-13.8,23.3-22.18,33.94c-6.18,7.89-12.78,15.44-19.78,22.61l4.88,4.76
			c7.17-7.35,13.94-15.08,20.27-23.17c8.63-10.96,16.27-22.65,22.84-34.95c4.07-7.63,7.55-15.55,10.41-23.71l2.46,8.59l6.55-1.88
			l-5.7-19.92C762.24,262.91,761.66,262.18,760.86,261.74z"/>
		<path class="st0" d="M708.43,206.74c17.58-2.81,31.47,0.3,40.17,8.99c4.31,4.32,7.27,9.92,8.79,16.67
			c1.22,5.43,1.51,11.58,0.87,18.28c-0.16,1.65-0.37,3.35-0.64,5.06l6.73,1.07c0.29-1.85,0.53-3.69,0.7-5.47
			c0.71-7.42,0.37-14.29-1.01-20.43c-1.81-8.02-5.38-14.75-10.62-19.99c-10.31-10.31-26.24-14.08-46.07-10.9
			c-9.9,1.58-20.55,4.86-31.66,9.74l2.74,6.24C689.02,211.35,699.11,208.23,708.43,206.74z"/>
		<path class="st0" d="M623.6,251.38l-4.43-5.18c-3.73,3.19-7.42,6.53-10.98,9.92l4.71,4.93
			C616.36,257.74,619.96,254.49,623.6,251.38z"/>
		<path class="st0" d="M646.5,233.86l-3.84-5.63c-4.06,2.77-8.09,5.68-11.99,8.66l4.14,5.42
			C638.61,239.4,642.55,236.56,646.5,233.86z"/>
		<path class="st0" d="M548.09,355.86c0.24,0,0.48-0.02,0.72-0.08l18.46-3.94l-1.42-6.67l-12.61,2.7c2.6-7.46,5.76-14.71,9.45-21.7
			c6.22-11.79,13.47-23.01,21.65-33.53c3.83-4.96,7.98-9.96,12.34-14.85c2.42-2.71,4.96-5.44,7.54-8.12
			c1.13-1.17,2.3-2.36,3.46-3.52l-4.82-4.82c-1.19,1.19-2.39,2.41-3.54,3.6c-2.64,2.74-5.24,5.54-7.72,8.32
			c-4.47,5.02-8.73,10.14-12.65,15.22c-8.42,10.83-15.88,22.39-22.28,34.52c-2.9,5.49-5.49,11.14-7.75,16.92l-1.8-8.43l-6.67,1.42
			l4.33,20.26C545.09,354.73,546.48,355.86,548.09,355.86z"/>
		<path class="st0" d="M681.09,321.19v-11.16c-6.82,3.49-16.51,5.29-26.54,5.29c-10.04,0-20.21-1.8-26.54-5.29v11.58
			c0,0.81,1.68,2.75,6.43,4.47c5.3,1.92,12.32,2.97,19.94,2.97s14.79-1.05,20.08-2.97c4.76-1.72,6.62-3.65,6.62-4.47V321.19z"/>
		<path class="st0" d="M681.09,289.48c-6.82,3.49-16.51,5.29-26.54,5.29c-10.04,0-20.21-1.8-26.54-5.29v11.58
			c0,0.81,1.68,2.75,6.43,4.47c5.3,1.92,12.32,2.97,19.94,2.97s14.79-1.06,20.08-2.97c4.76-1.72,6.62-3.65,6.62-4.47V289.48z"/>
		<path class="st0" d="M627.77,280.51c0,0.81,1.77,2.74,6.53,4.46c5.3,1.92,12.41,2.98,20.04,2.98c7.62,0,14.74-1.06,20.04-2.98
			c4.76-1.72,6.53-3.65,6.53-4.46s-1.77-2.74-6.53-4.47c-5.3-1.92-12.41-2.97-20.04-2.97c-7.62,0-14.74,1.06-20.04,2.97
			C629.54,277.76,627.77,279.69,627.77,280.51z"/>
		<path class="st0" d="M681.09,342.31v-11.73c-6.82,3.49-16.51,5.28-26.54,5.28c-10.04,0-20.21-1.8-26.54-5.28v11.73
			c0,0.81,1.68,2.75,6.43,4.47c5.37,1.94,12.52,2.99,20.25,2.97c4.41,0,8.81-0.4,13.15-1.2
			C677.13,346.77,681.09,343.61,681.09,342.31z"/>
	</g>
	<g>
	</g>
	<g>
	</g>
	<g>
	</g>
	<g>
	</g>
	<g>
	</g>
	<g>
	</g>
	<g>
	</g>
	<g>
	</g>
	<g>
	</g>
	<g>
	</g>
	<g>
	</g>
	<g>
	</g>
	<g>
	</g>
	<g>
	</g>
	<g>
	</g>
	<g>
	</g>
	<g>
	</g>
	<g>
	</g>
	<g>
	</g>
	<g>
	</g>
</g>
</svg>
