<?xml version="1.0" encoding="utf-8"?>
<!-- Generator: Adobe Illustrator 25.1.0, SVG Export Plug-In . SVG Version: 6.00 Build 0)  -->
<svg version="1.1" xmlns="http://www.w3.org/2000/svg" xmlns:xlink="http://www.w3.org/1999/xlink" x="0px" y="0px"
	 viewBox="0 0 1384.16 886.74" style="enable-background:new 0 0 1384.16 886.74;" xml:space="preserve">
<style type="text/css">
	.st0{fill:none;stroke:#2DC6D6;stroke-width:3;stroke-miterlimit:10;}
	.st1{fill:#2DC6D6;}
	.st2{fill:none;stroke:#2DC6D6;stroke-width:5;stroke-miterlimit:10;}
	.st3{fill:#FFFFFF;}
	.st4{fill:#2CC6D6;}
	.st5{fill:#2ABBCC;}
	.st6{fill-rule:evenodd;clip-rule:evenodd;fill:#2DC6D6;}
	.st7{fill:none;}
	.st8{fill-rule:evenodd;clip-rule:evenodd;fill:#2ABBCC;}
	.st9{fill-rule:evenodd;clip-rule:evenodd;fill:#FFFFFF;}
	.st10{fill:#98A6AD;}
	.st11{fill:none;stroke:#2DC6D6;stroke-width:5;stroke-miterlimit:10;stroke-dasharray:12;}
	.st12{fill:none;stroke:#2DC6D6;stroke-width:5;stroke-miterlimit:10;stroke-dasharray:12.2368,12.2368;}
	.st13{fill:none;stroke:#2DC6D6;stroke-width:5;stroke-miterlimit:10;stroke-dasharray:12.0835,12.0835;}
	.st14{fill:none;stroke:#2DC6D6;stroke-width:5;stroke-miterlimit:10;stroke-dasharray:11.811,11.811;}
</style>
<g id="Layer_4">
	<g>
		<g>
			<line class="st0" x1="698.66" y1="99.66" x2="933.66" y2="426.88"/>
			<g>
				<polygon class="st1" points="926.04,424.99 933.14,426.16 934.31,419.06 936.82,422.56 935.66,429.66 928.56,428.5 				"/>
			</g>
		</g>
	</g>
	<g>
		<g>
			<line class="st0" x1="698.66" y1="102.66" x2="934.52" y2="768.43"/>
			<g>
				<polygon class="st1" points="927.73,764.49 934.22,767.59 937.31,761.1 938.76,765.17 935.66,771.66 929.17,768.57 				"/>
			</g>
		</g>
	</g>
	<g>
		<g>
			<line class="st0" x1="698.66" y1="429.66" x2="933.65" y2="105.44"/>
			<g>
				<polygon class="st1" points="934.26,113.26 933.13,106.15 926.02,107.29 928.56,103.79 935.66,102.66 936.79,109.76 				"/>
			</g>
		</g>
	</g>
	<g>
		<g>
			<line class="st0" x1="698.66" y1="429.66" x2="933.72" y2="771.83"/>
			<g>
				<polygon class="st1" points="926.14,769.79 933.22,771.1 934.53,764.03 936.97,767.59 935.66,774.66 928.59,773.35 				"/>
			</g>
		</g>
	</g>
	<g>
		<g>
			<line class="st0" x1="698.66" y1="774.66" x2="934.52" y2="105.89"/>
			<g>
				<polygon class="st1" points="937.33,113.22 934.22,106.73 927.74,109.84 929.17,105.77 935.66,102.66 938.76,109.15 				"/>
			</g>
		</g>
	</g>
	<g>
		<g>
			<line class="st0" x1="698.66" y1="774.66" x2="933.72" y2="432.49"/>
			<g>
				<polygon class="st1" points="934.53,440.29 933.22,433.22 926.14,434.53 928.59,430.97 935.66,429.66 936.97,436.73 				"/>
			</g>
		</g>
	</g>
</g>
<g id="Layer_3">
	<g>
		<rect x="935.66" y="703.91" class="st2" width="446" height="135"/>
		<g>
			<path class="st3" d="M1042.63,735.48h13.32v3.96h-8.71l-0.07,6.41h8.64v3.74h-8.67l-0.04,6.84h8.86v3.96h-13.57L1042.63,735.48z"
				/>
			<path class="st3" d="M1060.2,742.25h4.32v2.2h0.07c1.4-1.58,3.46-2.7,5.87-2.7c3.82,0,4.82,2.66,4.82,5.47
				c0,1.8-0.04,2.92-0.04,4.07l-0.11,9.11h-4.39l0.04-4.54c0.04-2.81,0.07-4.97,0.07-7.13c0-2.23-0.54-3.02-2.38-3.02
				c-1.37,0-2.88,1.3-3.99,2.38l-0.07,12.31h-4.39L1060.2,742.25z"/>
			<path class="st3" d="M1089.9,759.39l-1.47,0.79c-1.15,0.65-2.2,0.72-2.74,0.72c-3.02,0-4.93-1.58-4.93-5.44
				c0-0.83,0-2.77,0.04-4.36l0.11-5.54h-2.45v-3.31l2.45,0.07l0.14-6.48h4.39l-0.14,6.48l4.03-0.07v3.31h-4.03l-0.11,5.33
				c-0.04,1.8-0.04,3.46-0.04,4.79c0,1.19,0.4,1.91,1.48,1.91c0.76,0,1.4-0.43,2.02-0.86L1089.9,759.39z"/>
			<path class="st3" d="M1092.2,742.25h4.39v3.31l0.04,0.07c0.87-2.09,1.98-3.82,4.21-3.89c0.43,0,0.86,0.07,1.29,0.18l-0.72,4.21
				c-0.36-0.07-0.72-0.14-1.04-0.14c-1.69,0-2.92,1.26-3.82,3.17l-0.11,11.23h-4.43L1092.2,742.25z"/>
			<path class="st3" d="M1107.36,751.86c0.04,2.48,1.15,5.51,4.18,5.51c1.73,0,3.09-1.15,4.21-2.34l2.52,2.3
				c-1.91,2.12-4.43,3.56-7.38,3.56c-4.61,0-7.92-3.82-7.92-9.5c0-4.82,2.99-9.65,8.28-9.65c5.11,0,7.49,3.78,7.49,10.11H1107.36z
				 M1114.56,748.77c-0.11-1.94-1.01-3.92-3.31-3.92c-1.98,0-3.49,2.12-3.67,3.92H1114.56z"/>
			<path class="st3" d="M1121.76,742.25h4.21v1.91h0.07c0.9-1.37,2.66-2.41,4.57-2.41c4.54,0,7.7,3.85,7.7,9.32
				c0,4.9-2.81,9.75-7.99,9.75c-1.48,0-3.1-0.43-4.1-1.73h-0.07l-0.11,10.01h-4.39L1121.76,742.25z M1126.22,755.43
				c0.61,0.76,1.55,1.66,3.13,1.66c2.23,0,4.57-2.16,4.57-5.79c0-3.42-1.84-5.8-4.46-5.8c-1.84,0-2.99,1.3-3.24,2.84V755.43z"/>
			<path class="st3" d="M1142.21,742.25h4.39v3.31l0.04,0.07c0.86-2.09,1.98-3.82,4.21-3.89c0.43,0,0.86,0.07,1.3,0.18l-0.72,4.21
				c-0.36-0.07-0.72-0.14-1.04-0.14c-1.69,0-2.92,1.26-3.82,3.17l-0.11,11.23h-4.43L1142.21,742.25z"/>
			<path class="st3" d="M1157.36,751.86c0.04,2.48,1.15,5.51,4.18,5.51c1.73,0,3.09-1.15,4.21-2.34l2.52,2.3
				c-1.91,2.12-4.43,3.56-7.38,3.56c-4.61,0-7.92-3.82-7.92-9.5c0-4.82,2.99-9.65,8.28-9.65c5.11,0,7.49,3.78,7.49,10.11H1157.36z
				 M1164.56,748.77c-0.11-1.94-1.01-3.92-3.31-3.92c-1.98,0-3.49,2.12-3.67,3.92H1164.56z"/>
			<path class="st3" d="M1172.2,742.25h4.32v2.2h0.07c1.4-1.58,3.46-2.7,5.87-2.7c3.82,0,4.82,2.66,4.82,5.47
				c0,1.8-0.04,2.92-0.04,4.07l-0.11,9.11h-4.39l0.04-4.54c0.04-2.81,0.07-4.97,0.07-7.13c0-2.23-0.54-3.02-2.38-3.02
				c-1.37,0-2.88,1.3-4,2.38l-0.07,12.31h-4.39L1172.2,742.25z"/>
			<path class="st3" d="M1195.38,751.86c0.04,2.48,1.15,5.51,4.18,5.51c1.73,0,3.1-1.15,4.21-2.34l2.52,2.3
				c-1.91,2.12-4.43,3.56-7.38,3.56c-4.61,0-7.92-3.82-7.92-9.5c0-4.82,2.99-9.65,8.28-9.65c5.11,0,7.49,3.78,7.49,10.11H1195.38z
				 M1202.58,748.77c-0.11-1.94-1.01-3.92-3.31-3.92c-1.98,0-3.49,2.12-3.67,3.92H1202.58z"/>
			<path class="st3" d="M1225.19,760.39h-4.39v-2.2h-0.07c-1.37,1.58-3.42,2.7-5.62,2.7c-4,0-5.04-2.63-5.04-6.16
				c0-1.12,0.04-2.23,0.04-3.38l0.11-9.11h4.39l-0.04,4.54c-0.04,2.63-0.07,5.18-0.07,7.16c0,2.12,0.54,2.99,2.38,2.99
				c1.37,0,2.88-1.29,4-2.38l0.07-12.31h4.39L1225.19,760.39z"/>
			<path class="st3" d="M1230.23,742.25h4.39v3.31l0.04,0.07c0.87-2.09,1.98-3.82,4.21-3.89c0.43,0,0.86,0.07,1.29,0.18l-0.72,4.21
				c-0.36-0.07-0.72-0.14-1.04-0.14c-1.69,0-2.92,1.26-3.82,3.17l-0.11,11.23h-4.43L1230.23,742.25z"/>
			<path class="st3" d="M1242.54,742.25h4.39l-0.18,18.14h-4.39L1242.54,742.25z M1242.57,735.48h4.39l-0.04,4.25h-4.39
				L1242.57,735.48z"/>
			<path class="st3" d="M1251.61,745.42c3.96-3.24,5.97-3.67,7.92-3.67c2.7,0,5.18,1.69,5.18,5.22c0,0.65,0,1.04-0.04,1.51
				l-0.14,5.22c-0.04,0.83-0.07,1.51-0.07,2.27c0,1.01,0.5,1.73,0.97,1.73c0.22,0,0.54-0.11,1.3-0.47l1.04,2.2
				c-1.91,1.26-2.95,1.48-3.78,1.48c-1.55,0-2.81-0.9-3.13-2.41c-1.3,1.51-2.92,2.41-4.64,2.41c-3.24,0-5.44-2.05-5.44-5.29
				c0-2.92,1.87-5.44,9.72-6.73v-1.19c0-2.02-0.86-2.41-2.09-2.41c-0.9,0-1.98,0.36-4.71,2.48L1251.61,745.42z M1260.47,751.68
				c-4.18,0.94-5.51,1.94-5.51,3.78c0,1.33,0.94,2.12,2.3,2.12c0.9,0,2.09-0.58,3.13-1.69L1260.47,751.68z"/>
			<path class="st3" d="M1270.58,733.4h4.39l-0.22,27h-4.39L1270.58,733.4z"/>
			<path class="st3" d="M1101.89,798.66c1.15,0.79,3.02,1.69,4.39,1.69c2.56,0,4-1.62,4-3.6c-0.04-4.97-10.22-2.84-10.22-11.34
				c0-4.07,3.31-7.24,8.31-7.24c2.48,0,4.9,0.86,7.02,2.09l-1.94,3.31c-1.51-0.83-2.92-1.66-4.72-1.66c-2.09,0-4.07,1.12-4.07,3.35
				c0,4.89,10.44,3.35,10.44,11.3c0,4.25-3.42,7.52-8.24,7.52c-2.41,0-4.68-0.68-6.77-1.91L1101.89,798.66z"/>
			<path class="st3" d="M1134.25,803.59h-4.39v-2.2h-0.07c-1.37,1.58-3.42,2.7-5.62,2.7c-4,0-5.04-2.63-5.04-6.16
				c0-1.12,0.04-2.23,0.04-3.38l0.11-9.11h4.39l-0.04,4.54c-0.04,2.63-0.07,5.18-0.07,7.16c0,2.12,0.54,2.99,2.38,2.99
				c1.37,0,2.88-1.3,4-2.38l0.07-12.31h4.39L1134.25,803.59z"/>
			<path class="st3" d="M1152.72,800.64c-1.76,2.16-3.89,3.46-6.77,3.46c-5.18,0-7.88-4.9-7.88-9.29c0-5,3.13-9.86,8.53-9.86
				c2.66,0,4.71,1.26,6.33,3.06l-2.48,2.41c-1.12-0.9-2.12-1.73-3.67-1.73c-2.74,0-4.1,2.95-4.1,5.72c0,3.82,1.69,5.94,3.89,5.94
				c1.62,0,2.7-0.97,3.71-2.02L1152.72,800.64z"/>
			<path class="st3" d="M1168.7,800.64c-1.76,2.16-3.89,3.46-6.77,3.46c-5.18,0-7.88-4.9-7.88-9.29c0-5,3.13-9.86,8.53-9.86
				c2.66,0,4.72,1.26,6.33,3.06l-2.48,2.41c-1.12-0.9-2.12-1.73-3.67-1.73c-2.74,0-4.1,2.95-4.1,5.72c0,3.82,1.69,5.94,3.89,5.94
				c1.62,0,2.7-0.97,3.71-2.02L1168.7,800.64z"/>
			<path class="st3" d="M1174.43,795.06c0.04,2.48,1.15,5.51,4.18,5.51c1.73,0,3.09-1.15,4.21-2.34l2.52,2.3
				c-1.91,2.12-4.43,3.56-7.38,3.56c-4.61,0-7.92-3.82-7.92-9.5c0-4.82,2.99-9.65,8.28-9.65c5.11,0,7.49,3.78,7.49,10.11H1174.43z
				 M1181.63,791.97c-0.11-1.94-1.01-3.92-3.31-3.92c-1.98,0-3.49,2.12-3.67,3.92H1181.63z"/>
			<path class="st3" d="M1189.76,799.27c1.4,0.83,2.88,1.51,4.54,1.51c1.33,0,2.52-0.65,2.52-2.12c0-3.64-8.46-0.83-8.46-8.1
				c0-3.74,3.17-5.62,6.7-5.62c2.09,0,4.54,0.61,6.16,1.98l-1.87,2.77c-1.04-0.79-2.66-1.44-4-1.44c-1.26,0-2.81,0.68-2.81,2.16
				c0,3.46,8.67,1.3,8.67,7.88c0,3.89-3.31,5.79-6.84,5.79c-2.2,0-4.36-0.61-6.23-1.73L1189.76,799.27z"/>
			<path class="st3" d="M1205.71,799.27c1.4,0.83,2.88,1.51,4.54,1.51c1.33,0,2.52-0.65,2.52-2.12c0-3.64-8.46-0.83-8.46-8.1
				c0-3.74,3.17-5.62,6.7-5.62c2.09,0,4.54,0.61,6.16,1.98l-1.87,2.77c-1.04-0.79-2.66-1.44-4-1.44c-1.26,0-2.81,0.68-2.81,2.16
				c0,3.46,8.68,1.3,8.68,7.88c0,3.89-3.31,5.79-6.84,5.79c-2.2,0-4.36-0.61-6.23-1.73L1205.71,799.27z"/>
		</g>
	</g>
	<g>
		<rect x="252.66" y="703.91" class="st2" width="446" height="135"/>
		<g>
			<path class="st3" d="M392.63,757.09h7.88c6.01,0,8.46,3.24,8.46,7.2c0,3.17-1.91,5.44-4.82,6.48l7.09,9.29l-4.1,2.45l-6.91-9.61
				c-0.43-0.61-0.97-0.86-1.66-0.86h-1.44l-0.04,9.97h-4.72L392.63,757.09z M400.04,768.28c1.37,0,4.1-0.61,4.1-3.85
				c0-2.38-1.87-3.6-4.21-3.6h-2.66l-0.07,7.45H400.04z"/>
			<path class="st3" d="M417.36,773.46c0.04,2.48,1.15,5.51,4.18,5.51c1.73,0,3.1-1.15,4.21-2.34l2.52,2.3
				c-1.91,2.12-4.43,3.56-7.38,3.56c-4.61,0-7.92-3.82-7.92-9.5c0-4.82,2.99-9.65,8.28-9.65c5.11,0,7.49,3.78,7.49,10.11H417.36z
				 M424.56,770.37c-0.11-1.94-1.01-3.92-3.31-3.92c-1.98,0-3.49,2.12-3.67,3.92H424.56z"/>
			<path class="st3" d="M431.76,763.85h4.21v1.91h0.07c0.9-1.37,2.66-2.41,4.57-2.41c4.54,0,7.7,3.85,7.7,9.32
				c0,4.9-2.81,9.75-7.99,9.75c-1.48,0-3.1-0.43-4.1-1.73h-0.07l-0.11,10.01h-4.39L431.76,763.85z M436.22,777.03
				c0.61,0.76,1.55,1.66,3.13,1.66c2.23,0,4.57-2.16,4.57-5.79c0-3.42-1.84-5.8-4.46-5.8c-1.84,0-2.99,1.3-3.24,2.84V777.03z"/>
			<path class="st3" d="M467.18,781.99h-4.39v-2.2h-0.07c-1.37,1.58-3.42,2.7-5.62,2.7c-4,0-5.04-2.63-5.04-6.16
				c0-1.12,0.04-2.23,0.04-3.38l0.11-9.11h4.39l-0.04,4.54c-0.04,2.63-0.07,5.18-0.07,7.16c0,2.12,0.54,2.99,2.38,2.99
				c1.37,0,2.88-1.29,4-2.38l0.07-12.31h4.39L467.18,781.99z"/>
			<path class="st3" d="M481.9,780.99l-1.48,0.79c-1.15,0.65-2.2,0.72-2.74,0.72c-3.02,0-4.93-1.58-4.93-5.44
				c0-0.83,0-2.77,0.04-4.36l0.11-5.54h-2.45v-3.31l2.45,0.07l0.14-6.48h4.39l-0.14,6.48l4.03-0.07v3.31h-4.03l-0.11,5.33
				c-0.04,1.8-0.04,3.46-0.04,4.79c0,1.19,0.4,1.91,1.48,1.91c0.76,0,1.4-0.43,2.02-0.86L481.9,780.99z"/>
			<path class="st3" d="M483.6,767.02c3.96-3.24,5.98-3.67,7.92-3.67c2.7,0,5.18,1.69,5.18,5.22c0,0.65,0,1.04-0.04,1.51l-0.14,5.22
				c-0.04,0.83-0.07,1.51-0.07,2.27c0,1.01,0.5,1.73,0.97,1.73c0.22,0,0.54-0.11,1.3-0.47l1.04,2.2c-1.91,1.26-2.95,1.48-3.78,1.48
				c-1.55,0-2.81-0.9-3.13-2.41c-1.3,1.51-2.92,2.41-4.64,2.41c-3.24,0-5.44-2.05-5.44-5.29c0-2.92,1.87-5.44,9.72-6.73v-1.19
				c0-2.02-0.86-2.41-2.09-2.41c-0.9,0-1.98,0.36-4.72,2.48L483.6,767.02z M492.45,773.28c-4.18,0.94-5.51,1.94-5.51,3.78
				c0,1.33,0.94,2.12,2.3,2.12c0.9,0,2.09-0.58,3.13-1.69L492.45,773.28z"/>
			<path class="st3" d="M511.89,780.99l-1.48,0.79c-1.15,0.65-2.2,0.72-2.74,0.72c-3.02,0-4.93-1.58-4.93-5.44
				c0-0.83,0-2.77,0.04-4.36l0.11-5.54h-2.45v-3.31l2.45,0.07l0.14-6.48h4.39l-0.14,6.48l4.03-0.07v3.31h-4.03l-0.11,5.33
				c-0.04,1.8-0.04,3.46-0.04,4.79c0,1.19,0.4,1.91,1.48,1.91c0.76,0,1.4-0.43,2.02-0.86L511.89,780.99z"/>
			<path class="st3" d="M514.52,763.85h4.39l-0.18,18.14h-4.39L514.52,763.85z M514.56,757.09h4.39l-0.04,4.25h-4.39L514.56,757.09z
				"/>
			<path class="st3" d="M531.66,763.35c5.76,0,8.67,4.21,8.67,9.57c0,5.15-3.2,9.58-8.67,9.58c-5.9,0-8.67-4.43-8.67-9.58
				C522.98,768.14,526.33,763.35,531.66,763.35z M531.66,778.97c3.17,0,4.28-3.38,4.28-5.9c0-3.78-1.33-6.19-4.28-6.19
				c-3.28,0-4.28,3.67-4.28,6.19C527.37,775.26,528.38,778.97,531.66,778.97z"/>
			<path class="st3" d="M544.22,763.85h4.32v2.2h0.07c1.4-1.58,3.46-2.7,5.87-2.7c3.82,0,4.82,2.66,4.82,5.47
				c0,1.8-0.04,2.92-0.04,4.07l-0.11,9.11h-4.39l0.04-4.54c0.04-2.81,0.07-4.97,0.07-7.13c0-2.23-0.54-3.02-2.38-3.02
				c-1.37,0-2.88,1.3-4,2.38l-0.07,12.31h-4.39L544.22,763.85z"/>
		</g>
	</g>
	<g>
		<g>
			<line class="st0" x1="698.66" y1="771.41" x2="932.23" y2="771.41"/>
			<g>
				<polygon class="st1" points="926.26,776.5 931.34,771.41 926.26,766.32 930.57,766.32 935.66,771.41 930.57,776.5 				"/>
			</g>
		</g>
	</g>
	<g>
		<ellipse class="st4" cx="77.66" cy="696.08" rx="41.33" ry="40"/>
		<ellipse class="st5" cx="147.66" cy="766.74" rx="40.67" ry="40"/>
		<g>
			<path class="st4" d="M111.97,803.7c-0.65-0.92-0.79-1.85-0.82-2.47c-1.13-3.88-3.17-6.55-6.97-9.11
				c-3.42-1.98-7.3-4.97-7.45-10.6c-0.52-2.53,0.09-4.87,0.61-6.44l0.08-0.25l0.13-0.23c2.05-3.77,2.14-7.79,0.29-13.41
				c-2.73-6.69-1.07-11.95,5.23-16.55l0.2-0.15l0.22-0.11c0.22-0.11,0.6-0.4,0.94-0.65c0.49-0.37,1.03-0.78,1.65-1.11
				c1.01-0.7,1.89-1.59,2.6-2.63c-10.71-4.78-22.79-7.16-35.43-6.43c-40.43,2.32-71.23,35.48-68.8,74.07l109.06-0.83
				C112.93,805.87,112.42,804.84,111.97,803.7z"/>
			<path class="st4" d="M123.01,748.41c-3.99,5.43-6.33,12.21-6.33,19.67c-0.21,8.31,3.06,16.49,8.95,22.53
				c5.98,6.14,13.97,9.52,22.47,9.52c0.33,0.01,0.59,0.01,0.85,0.01c0,0,0,0,0,0c0.65,0,1.3-0.03,1.95-0.07
				c-0.01-0.29-0.01-0.57-0.03-0.86C149.56,778.44,138.88,760.35,123.01,748.41z"/>
		</g>
		<path class="st6" d="M113.68,768.08c-0.47,18.69,14.88,35.05,34.42,35.05c19.07,0.47,35.35-14.95,35.35-34.58
			c0.47-19.63-14.88-35.51-34.88-35.98C129.03,732.56,113.68,748.45,113.68,768.08z M168.56,809.67c-3.72-0.47-7.91,0.93-11.63,4.21
			c-0.93,0.93-2.33,1.87-3.72,2.34c-3.72,1.87-7.44,1.4-11.16-0.93c-2.79-1.87-6.05-3.74-9.3-5.14c-2.33-0.93-5.12,0-7.44-0.47
			c-5.58,0-8.84-2.34-10.7-7.48c-0.47-0.47-0.47-0.93-0.47-1.4c-1.4-5.14-4.19-8.41-8.37-11.21c-3.26-1.87-6.05-4.21-6.05-8.41
			c-0.47-1.87,0-3.74,0.47-5.14c2.79-5.14,2.33-10.28,0.47-15.89c-2.33-5.61-0.93-9.35,4.19-13.08c0.93-0.47,1.86-1.4,2.79-1.87
			c2.79-1.87,4.65-4.67,5.58-7.94c0.47-1.4,0.93-2.34,1.4-3.74c1.86-4.67,5.12-7.01,10.23-7.48c1.86,0,3.26,0,5.12,0
			c3.26,0.47,6.05-0.47,8.37-2.8c1.4-0.93,2.79-1.87,4.19-2.8c3.72-2.34,7.91-2.34,12.09,0c0,0,0.47,0.47,0.93,0.47
			c4.19,4.21,9.77,5.61,15.81,5.14c6.05,0,9.3,2.34,11.16,8.41c0.47,0.93,0.93,1.87,0.93,2.8c0.93,3.27,3.26,6.07,6.05,7.94
			c1.86,0.93,3.72,2.34,5.12,3.74c2.79,2.34,3.72,5.61,2.79,9.35c-0.47,1.87-1.4,3.74-1.86,5.61c-1.4,2.8-0.93,5.61,0,8.41
			c0.47,1.87,1.4,3.74,1.86,5.14c0.93,3.74,0,7.01-2.79,9.81c-0.93,0.93-2.33,1.87-3.26,2.34c-4.65,2.8-6.98,6.07-8.37,11.21
			C181.59,806.39,178.8,810.6,168.56,809.67z"/>
		<path class="st7" d="M113.68,768.08c-0.47,18.69,14.88,35.05,34.42,35.05c19.07,0.47,35.35-14.95,35.35-34.58
			c0.47-19.63-14.88-35.51-34.88-35.98C129.03,732.56,113.68,748.45,113.68,768.08z M168.56,809.67c-3.72-0.47-7.91,0.93-11.63,4.21
			c-0.93,0.93-2.33,1.87-3.72,2.34c-3.72,1.87-7.44,1.4-11.16-0.93c-2.79-1.87-6.05-3.74-9.3-5.14c-2.33-0.93-5.12,0-7.44-0.47
			c-5.58,0-8.84-2.34-10.7-7.48c-0.47-0.47-0.47-0.93-0.47-1.4c-1.4-5.14-4.19-8.41-8.37-11.21c-3.26-1.87-6.05-4.21-6.05-8.41
			c-0.47-1.87,0-3.74,0.47-5.14c2.79-5.14,2.33-10.28,0.47-15.89c-2.33-5.61-0.93-9.35,4.19-13.08c0.93-0.47,1.86-1.4,2.79-1.87
			c2.79-1.87,4.65-4.67,5.58-7.94c0.47-1.4,0.93-2.34,1.4-3.74c1.86-4.67,5.12-7.01,10.23-7.48c1.86,0,3.26,0,5.12,0
			c3.26,0.47,6.05-0.47,8.37-2.8c1.4-0.93,2.79-1.87,4.19-2.8c3.72-2.34,7.91-2.34,12.09,0c0,0,0.47,0.47,0.93,0.47
			c4.19,4.21,9.77,5.61,15.81,5.14c6.05,0,9.3,2.34,11.16,8.41c0.47,0.93,0.93,1.87,0.93,2.8c0.93,3.27,3.26,6.07,6.05,7.94
			c1.86,0.93,3.72,2.34,5.12,3.74c2.79,2.34,3.72,5.61,2.79,9.35c-0.47,1.87-1.4,3.74-1.86,5.61c-1.4,2.8-0.93,5.61,0,8.41
			c0.47,1.87,1.4,3.74,1.86,5.14c0.93,3.74,0,7.01-2.79,9.81c-0.93,0.93-2.33,1.87-3.26,2.34c-4.65,2.8-6.98,6.07-8.37,11.21
			C181.59,806.39,178.8,810.6,168.56,809.67z"/>
		<path class="st8" d="M178.56,886.74c-8.9-19.01-17.33-37.56-26.23-56.12c5.15-0.93,9.37-3.71,13.12-6.49
			c0.47-0.46,0.94-0.46,1.87-0.46c3.75-0.46,7.96-0.46,12.18-0.93c7.96,17.16,16.4,34.32,24.83,52.41
			c-6.56-2.32-12.65-4.64-18.74-6.96C183.25,874.68,180.91,880.71,178.56,886.74z"/>
		<path class="st8" d="M144.33,830.63c-9.05,18.55-18.1,37.56-27.14,56.12c-2.38-6.03-4.76-12.06-7.14-18.55
			c-6.19,2.32-12.38,4.64-19.05,6.96c0.48-0.93,0.95-1.86,0.95-2.32c8.1-16.23,15.71-32.46,23.81-48.7
			c0.48-1.39,0.95-1.39,2.38-1.39c2.86,0.46,6.19,0.46,9.52,0.93c0.95,0,2.38,0,3.33,0.93C134.81,826.92,139.09,829.7,144.33,830.63
			z"/>
		<path class="st9" d="M111,768.74c0-20.44,15.89-36.07,36.67-36.07c20.17-0.6,36.67,16.23,36.67,36.07
			c0,19.84-16.5,36.67-36.67,36.07C126.89,804.81,111,788.58,111,768.74z"/>
	</g>
</g>
<g id="Layer_2">
	<g>
		<rect x="935.66" y="361.79" class="st2" width="446" height="135"/>
		<g>
			<path class="st3" d="M1042.63,393.36h13.32v3.96h-8.71l-0.07,6.41h8.64v3.74h-8.67l-0.04,6.84h8.86v3.96h-13.57L1042.63,393.36z"
				/>
			<path class="st3" d="M1060.2,400.13h4.32v2.2h0.07c1.4-1.58,3.46-2.7,5.87-2.7c3.82,0,4.82,2.66,4.82,5.47
				c0,1.8-0.04,2.92-0.04,4.07l-0.11,9.11h-4.39l0.04-4.54c0.04-2.81,0.07-4.97,0.07-7.13c0-2.23-0.54-3.02-2.38-3.02
				c-1.37,0-2.88,1.3-3.99,2.38l-0.07,12.31h-4.39L1060.2,400.13z"/>
			<path class="st3" d="M1089.9,417.27l-1.47,0.79c-1.15,0.65-2.2,0.72-2.74,0.72c-3.02,0-4.93-1.58-4.93-5.44
				c0-0.83,0-2.77,0.04-4.36l0.11-5.54h-2.45v-3.31l2.45,0.07l0.14-6.48h4.39l-0.14,6.48l4.03-0.07v3.31h-4.03l-0.11,5.33
				c-0.04,1.8-0.04,3.46-0.04,4.79c0,1.19,0.4,1.91,1.48,1.91c0.76,0,1.4-0.43,2.02-0.86L1089.9,417.27z"/>
			<path class="st3" d="M1092.2,400.13h4.39v3.31l0.04,0.07c0.87-2.09,1.98-3.82,4.21-3.89c0.43,0,0.86,0.07,1.29,0.18l-0.72,4.21
				c-0.36-0.07-0.72-0.14-1.04-0.14c-1.69,0-2.92,1.26-3.82,3.17l-0.11,11.23h-4.43L1092.2,400.13z"/>
			<path class="st3" d="M1107.36,409.74c0.04,2.48,1.15,5.51,4.18,5.51c1.73,0,3.09-1.15,4.21-2.34l2.52,2.3
				c-1.91,2.12-4.43,3.56-7.38,3.56c-4.61,0-7.92-3.82-7.92-9.5c0-4.82,2.99-9.65,8.28-9.65c5.11,0,7.49,3.78,7.49,10.11H1107.36z
				 M1114.56,406.65c-0.11-1.94-1.01-3.92-3.31-3.92c-1.98,0-3.49,2.12-3.67,3.92H1114.56z"/>
			<path class="st3" d="M1121.76,400.13h4.21v1.91h0.07c0.9-1.37,2.66-2.41,4.57-2.41c4.54,0,7.7,3.85,7.7,9.32
				c0,4.9-2.81,9.75-7.99,9.75c-1.48,0-3.1-0.43-4.1-1.73h-0.07l-0.11,10.01h-4.39L1121.76,400.13z M1126.22,413.31
				c0.61,0.76,1.55,1.66,3.13,1.66c2.23,0,4.57-2.16,4.57-5.79c0-3.42-1.84-5.8-4.46-5.8c-1.84,0-2.99,1.3-3.24,2.84V413.31z"/>
			<path class="st3" d="M1142.21,400.13h4.39v3.31l0.04,0.07c0.86-2.09,1.98-3.82,4.21-3.89c0.43,0,0.86,0.07,1.3,0.18l-0.72,4.21
				c-0.36-0.07-0.72-0.14-1.04-0.14c-1.69,0-2.92,1.26-3.82,3.17l-0.11,11.23h-4.43L1142.21,400.13z"/>
			<path class="st3" d="M1157.36,409.74c0.04,2.48,1.15,5.51,4.18,5.51c1.73,0,3.09-1.15,4.21-2.34l2.52,2.3
				c-1.91,2.12-4.43,3.56-7.38,3.56c-4.61,0-7.92-3.82-7.92-9.5c0-4.82,2.99-9.65,8.28-9.65c5.11,0,7.49,3.78,7.49,10.11H1157.36z
				 M1164.56,406.65c-0.11-1.94-1.01-3.92-3.31-3.92c-1.98,0-3.49,2.12-3.67,3.92H1164.56z"/>
			<path class="st3" d="M1172.2,400.13h4.32v2.2h0.07c1.4-1.58,3.46-2.7,5.87-2.7c3.82,0,4.82,2.66,4.82,5.47
				c0,1.8-0.04,2.92-0.04,4.07l-0.11,9.11h-4.39l0.04-4.54c0.04-2.81,0.07-4.97,0.07-7.13c0-2.23-0.54-3.02-2.38-3.02
				c-1.37,0-2.88,1.3-4,2.38l-0.07,12.31h-4.39L1172.2,400.13z"/>
			<path class="st3" d="M1195.38,409.74c0.04,2.48,1.15,5.51,4.18,5.51c1.73,0,3.1-1.15,4.21-2.34l2.52,2.3
				c-1.91,2.12-4.43,3.56-7.38,3.56c-4.61,0-7.92-3.82-7.92-9.5c0-4.82,2.99-9.65,8.28-9.65c5.11,0,7.49,3.78,7.49,10.11H1195.38z
				 M1202.58,406.65c-0.11-1.94-1.01-3.92-3.31-3.92c-1.98,0-3.49,2.12-3.67,3.92H1202.58z"/>
			<path class="st3" d="M1225.19,418.27h-4.39v-2.2h-0.07c-1.37,1.58-3.42,2.7-5.62,2.7c-4,0-5.04-2.63-5.04-6.16
				c0-1.12,0.04-2.23,0.04-3.38l0.11-9.11h4.39l-0.04,4.54c-0.04,2.63-0.07,5.18-0.07,7.16c0,2.12,0.54,2.99,2.38,2.99
				c1.37,0,2.88-1.29,4-2.38l0.07-12.31h4.39L1225.19,418.27z"/>
			<path class="st3" d="M1230.23,400.13h4.39v3.31l0.04,0.07c0.87-2.09,1.98-3.82,4.21-3.89c0.43,0,0.86,0.07,1.29,0.18l-0.72,4.21
				c-0.36-0.07-0.72-0.14-1.04-0.14c-1.69,0-2.92,1.26-3.82,3.17l-0.11,11.23h-4.43L1230.23,400.13z"/>
			<path class="st3" d="M1242.54,400.13h4.39l-0.18,18.14h-4.39L1242.54,400.13z M1242.57,393.36h4.39l-0.04,4.25h-4.39
				L1242.57,393.36z"/>
			<path class="st3" d="M1251.61,403.3c3.96-3.24,5.97-3.67,7.92-3.67c2.7,0,5.18,1.69,5.18,5.22c0,0.65,0,1.04-0.04,1.51
				l-0.14,5.22c-0.04,0.83-0.07,1.51-0.07,2.27c0,1.01,0.5,1.73,0.97,1.73c0.22,0,0.54-0.11,1.3-0.47l1.04,2.2
				c-1.91,1.26-2.95,1.48-3.78,1.48c-1.55,0-2.81-0.9-3.13-2.41c-1.3,1.51-2.92,2.41-4.64,2.41c-3.24,0-5.44-2.05-5.44-5.29
				c0-2.92,1.87-5.44,9.72-6.73v-1.19c0-2.02-0.86-2.41-2.09-2.41c-0.9,0-1.98,0.36-4.71,2.48L1251.61,403.3z M1260.47,409.56
				c-4.18,0.94-5.51,1.94-5.51,3.78c0,1.33,0.94,2.12,2.3,2.12c0.9,0,2.09-0.58,3.13-1.69L1260.47,409.56z"/>
			<path class="st3" d="M1270.58,391.28h4.39l-0.22,27h-4.39L1270.58,391.28z"/>
			<path class="st3" d="M1079.66,436.56h7.02c6.52,0,9.11,2.95,9.11,7.6c0,5.11-4.25,7.56-9.07,7.56h-2.56l-0.04,9.75h-4.72
				L1079.66,436.56z M1086.57,447.98c2.48,0,4.39-1.51,4.39-3.85c0-1.51-0.86-3.82-4.21-3.82h-2.45l-0.07,7.67H1086.57z"/>
			<path class="st3" d="M1099.24,443.33h4.39v3.31l0.04,0.07c0.86-2.09,1.98-3.82,4.21-3.89c0.43,0,0.86,0.07,1.3,0.18l-0.72,4.21
				c-0.36-0.07-0.72-0.14-1.04-0.14c-1.69,0-2.92,1.26-3.82,3.17l-0.11,11.23h-4.43L1099.24,443.33z"/>
			<path class="st3" d="M1114.4,452.94c0.04,2.48,1.15,5.51,4.18,5.51c1.73,0,3.09-1.15,4.21-2.34l2.52,2.3
				c-1.91,2.12-4.43,3.56-7.38,3.56c-4.61,0-7.92-3.82-7.92-9.5c0-4.82,2.99-9.65,8.28-9.65c5.11,0,7.49,3.78,7.49,10.11H1114.4z
				 M1121.6,449.85c-0.11-1.94-1.01-3.92-3.31-3.92c-1.98,0-3.49,2.12-3.67,3.92H1121.6z"/>
			<path class="st3" d="M1130.35,446.64h-2.88v-3.31h2.88v-2.34c0-3.92,2.38-6.8,6.84-6.8h1.4v3.53h-1.01
				c-1.62,0-2.77,0.86-2.77,3.13v2.48h3.74v3.31h-3.85v14.83h-4.43L1130.35,446.64z"/>
			<path class="st3" d="M1144.38,452.94c0.04,2.48,1.15,5.51,4.18,5.51c1.73,0,3.1-1.15,4.21-2.34l2.52,2.3
				c-1.91,2.12-4.43,3.56-7.38,3.56c-4.61,0-7.92-3.82-7.92-9.5c0-4.82,2.99-9.65,8.28-9.65c5.11,0,7.49,3.78,7.49,10.11H1144.38z
				 M1151.58,449.85c-0.11-1.94-1.01-3.92-3.31-3.92c-1.98,0-3.49,2.12-3.67,3.92H1151.58z"/>
			<path class="st3" d="M1159.22,443.33h4.39v3.31l0.04,0.07c0.87-2.09,1.98-3.82,4.21-3.89c0.43,0,0.86,0.07,1.29,0.18l-0.72,4.21
				c-0.36-0.07-0.72-0.14-1.04-0.14c-1.69,0-2.92,1.26-3.82,3.17l-0.11,11.23h-4.43L1159.22,443.33z"/>
			<path class="st3" d="M1174.37,452.94c0.04,2.48,1.15,5.51,4.18,5.51c1.73,0,3.1-1.15,4.21-2.34l2.52,2.3
				c-1.91,2.12-4.43,3.56-7.38,3.56c-4.61,0-7.92-3.82-7.92-9.5c0-4.82,2.99-9.65,8.28-9.65c5.11,0,7.49,3.78,7.49,10.11H1174.37z
				 M1181.57,449.85c-0.11-1.94-1.01-3.92-3.31-3.92c-1.98,0-3.49,2.12-3.67,3.92H1181.57z"/>
			<path class="st3" d="M1189.2,443.33h4.32v2.2h0.07c1.4-1.58,3.46-2.7,5.87-2.7c3.81,0,4.82,2.66,4.82,5.47
				c0,1.8-0.04,2.92-0.04,4.07l-0.11,9.11h-4.39l0.04-4.54c0.04-2.81,0.07-4.97,0.07-7.13c0-2.23-0.54-3.02-2.38-3.02
				c-1.37,0-2.88,1.3-4,2.38l-0.07,12.31h-4.39L1189.2,443.33z"/>
			<path class="st3" d="M1222.65,458.52c-1.76,2.16-3.89,3.46-6.77,3.46c-5.18,0-7.88-4.9-7.88-9.29c0-5,3.13-9.86,8.53-9.86
				c2.66,0,4.71,1.26,6.33,3.06l-2.48,2.41c-1.12-0.9-2.12-1.73-3.67-1.73c-2.74,0-4.1,2.95-4.1,5.72c0,3.82,1.69,5.94,3.89,5.94
				c1.62,0,2.7-0.97,3.71-2.02L1222.65,458.52z"/>
			<path class="st3" d="M1228.37,452.94c0.04,2.48,1.15,5.51,4.18,5.51c1.73,0,3.09-1.15,4.21-2.34l2.52,2.3
				c-1.91,2.12-4.43,3.56-7.38,3.56c-4.61,0-7.92-3.82-7.92-9.5c0-4.82,2.99-9.65,8.28-9.65c5.11,0,7.49,3.78,7.49,10.11H1228.37z
				 M1235.57,449.85c-0.11-1.94-1.01-3.92-3.31-3.92c-1.98,0-3.49,2.12-3.67,3.92H1235.57z"/>
		</g>
	</g>
	<g>
		<rect x="252.66" y="361.79" class="st2" width="446" height="135"/>
		<g>
			<path class="st3" d="M379.85,434.94c1.15,0.79,3.02,1.69,4.39,1.69c2.56,0,4-1.62,4-3.6c-0.04-4.97-10.22-2.84-10.22-11.34
				c0-4.07,3.31-7.24,8.31-7.24c2.48,0,4.9,0.86,7.02,2.09l-1.94,3.31c-1.51-0.83-2.92-1.66-4.72-1.66c-2.09,0-4.07,1.12-4.07,3.35
				c0,4.89,10.44,3.35,10.44,11.3c0,4.25-3.42,7.52-8.24,7.52c-2.41,0-4.68-0.68-6.77-1.91L379.85,434.94z"/>
			<path class="st3" d="M404.69,421.23c5.76,0,8.67,4.21,8.67,9.57c0,5.15-3.2,9.58-8.67,9.58c-5.9,0-8.67-4.43-8.67-9.58
				C396.01,426.02,399.36,421.23,404.69,421.23z M404.69,436.85c3.17,0,4.28-3.38,4.28-5.9c0-3.78-1.33-6.19-4.28-6.19
				c-3.28,0-4.28,3.67-4.28,6.19C400.4,433.14,401.41,436.85,404.69,436.85z"/>
			<path class="st3" d="M430.68,436.92c-1.76,2.16-3.89,3.46-6.77,3.46c-5.18,0-7.88-4.9-7.88-9.29c0-5,3.13-9.86,8.53-9.86
				c2.66,0,4.72,1.26,6.33,3.06l-2.48,2.41c-1.12-0.9-2.12-1.73-3.67-1.73c-2.74,0-4.1,2.95-4.1,5.72c0,3.82,1.69,5.94,3.89,5.94
				c1.62,0,2.7-0.97,3.71-2.02L430.68,436.92z"/>
			<path class="st3" d="M433.56,421.73h4.39l-0.18,18.14h-4.39L433.56,421.73z M433.59,414.96h4.39l-0.04,4.25h-4.39L433.59,414.96z
				"/>
			<path class="st3" d="M442.63,424.9c3.96-3.24,5.98-3.67,7.92-3.67c2.7,0,5.18,1.69,5.18,5.22c0,0.65,0,1.04-0.04,1.51l-0.14,5.22
				c-0.04,0.83-0.07,1.51-0.07,2.27c0,1.01,0.5,1.73,0.97,1.73c0.22,0,0.54-0.11,1.3-0.47l1.04,2.2c-1.91,1.26-2.95,1.48-3.78,1.48
				c-1.55,0-2.81-0.9-3.13-2.41c-1.3,1.51-2.92,2.41-4.64,2.41c-3.24,0-5.44-2.05-5.44-5.29c0-2.92,1.87-5.44,9.72-6.73v-1.19
				c0-2.02-0.86-2.41-2.09-2.41c-0.9,0-1.98,0.36-4.72,2.48L442.63,424.9z M451.48,431.16c-4.18,0.94-5.51,1.94-5.51,3.78
				c0,1.33,0.94,2.12,2.3,2.12c0.9,0,2.09-0.58,3.13-1.69L451.48,431.16z"/>
			<path class="st3" d="M461.6,412.88h4.39l-0.22,27h-4.39L461.6,412.88z"/>
			<path class="st3" d="M481.87,434.94c1.15,0.79,3.02,1.69,4.39,1.69c2.56,0,4-1.62,4-3.6c-0.04-4.97-10.22-2.84-10.22-11.34
				c0-4.07,3.31-7.24,8.31-7.24c2.48,0,4.9,0.86,7.02,2.09l-1.94,3.31c-1.51-0.83-2.92-1.66-4.72-1.66c-2.09,0-4.07,1.12-4.07,3.35
				c0,4.89,10.44,3.35,10.44,11.3c0,4.25-3.42,7.52-8.24,7.52c-2.41,0-4.68-0.68-6.77-1.91L481.87,434.94z"/>
			<path class="st3" d="M508.94,438.87l-1.48,0.79c-1.15,0.65-2.2,0.72-2.74,0.72c-3.02,0-4.93-1.58-4.93-5.44
				c0-0.83,0-2.77,0.04-4.36l0.11-5.54h-2.45v-3.31l2.45,0.07l0.14-6.48h4.39l-0.14,6.48l4.03-0.07v3.31h-4.03l-0.11,5.33
				c-0.04,1.8-0.04,3.46-0.04,4.79c0,1.19,0.4,1.91,1.48,1.91c0.76,0,1.4-0.43,2.02-0.86L508.94,438.87z"/>
			<path class="st3" d="M510.63,424.9c3.96-3.24,5.98-3.67,7.92-3.67c2.7,0,5.18,1.69,5.18,5.22c0,0.65,0,1.04-0.04,1.51l-0.14,5.22
				c-0.04,0.83-0.07,1.51-0.07,2.27c0,1.01,0.5,1.73,0.97,1.73c0.22,0,0.54-0.11,1.3-0.47l1.04,2.2c-1.91,1.26-2.95,1.48-3.78,1.48
				c-1.55,0-2.81-0.9-3.13-2.41c-1.3,1.51-2.92,2.41-4.64,2.41c-3.24,0-5.44-2.05-5.44-5.29c0-2.92,1.87-5.44,9.72-6.73v-1.19
				c0-2.02-0.86-2.41-2.09-2.41c-0.9,0-1.98,0.36-4.72,2.48L510.63,424.9z M519.49,431.16c-4.18,0.94-5.51,1.94-5.51,3.78
				c0,1.33,0.94,2.12,2.3,2.12c0.9,0,2.09-0.58,3.13-1.69L519.49,431.16z"/>
			<path class="st3" d="M538.93,438.87l-1.48,0.79c-1.15,0.65-2.2,0.72-2.74,0.72c-3.02,0-4.93-1.58-4.93-5.44
				c0-0.83,0-2.77,0.04-4.36l0.11-5.54h-2.45v-3.31l2.45,0.07l0.14-6.48h4.39l-0.14,6.48l4.03-0.07v3.31h-4.03l-0.11,5.33
				c-0.04,1.8-0.04,3.46-0.04,4.79c0,1.19,0.4,1.91,1.48,1.91c0.76,0,1.4-0.43,2.02-0.86L538.93,438.87z"/>
			<path class="st3" d="M556.21,439.87h-4.39v-2.2h-0.07c-1.37,1.58-3.42,2.7-5.62,2.7c-4,0-5.04-2.63-5.04-6.16
				c0-1.12,0.04-2.23,0.04-3.38l0.11-9.11h4.39l-0.04,4.54c-0.04,2.63-0.07,5.18-0.07,7.16c0,2.12,0.54,2.99,2.38,2.99
				c1.37,0,2.88-1.29,4-2.38l0.07-12.31h4.39L556.21,439.87z"/>
			<path class="st3" d="M561.75,435.55c1.4,0.83,2.88,1.51,4.54,1.51c1.33,0,2.52-0.65,2.52-2.12c0-3.64-8.46-0.83-8.46-8.1
				c0-3.74,3.17-5.62,6.7-5.62c2.09,0,4.54,0.61,6.16,1.98l-1.87,2.77c-1.04-0.79-2.66-1.44-4-1.44c-1.26,0-2.81,0.68-2.81,2.16
				c0,3.46,8.68,1.3,8.68,7.88c0,3.89-3.31,5.79-6.84,5.79c-2.2,0-4.36-0.61-6.23-1.73L561.75,435.55z"/>
		</g>
	</g>
	<g>
		<g>
			<line class="st0" x1="698.66" y1="429.29" x2="932.23" y2="429.29"/>
			<g>
				<polygon class="st1" points="926.26,434.38 931.34,429.29 926.26,424.2 930.57,424.2 935.66,429.29 930.57,434.38 				"/>
			</g>
		</g>
	</g>
	<g>
		<g>
			<circle class="st10" cx="104.33" cy="372" r="5.57"/>
			<path class="st10" d="M104.33,380.34c-5.57,0-10.09,4.52-10.09,10.09h20.17C114.42,384.86,109.9,380.34,104.33,380.34z"/>
		</g>
		<polygon class="st11" points="104.33,342.69 4.33,515.89 204.33,515.89 		"/>
		<line class="st11" x1="71.07" y1="400.31" x2="137.59" y2="400.31"/>
		<line class="st11" x1="37.61" y1="457.96" x2="171.05" y2="457.96"/>
		<g>
			<circle class="st3" cx="81.26" cy="423.1" r="5.57"/>
			<path class="st3" d="M81.26,431.45c-5.57,0-10.09,4.52-10.09,10.09h20.17C91.35,435.96,86.83,431.45,81.26,431.45z"/>
		</g>
		<g>
			<circle class="st10" cx="127.62" cy="422.29" r="5.57"/>
			<path class="st10" d="M127.62,430.64c-5.57,0-10.09,4.52-10.09,10.09h20.17C137.71,435.16,133.19,430.64,127.62,430.64z"/>
		</g>
		<g>
			<g>
				<circle class="st10" cx="47.84" cy="480.55" r="5.57"/>
				<path class="st10" d="M47.84,488.89c-5.57,0-10.09,4.52-10.09,10.09h20.17C57.93,493.41,53.42,488.89,47.84,488.89z"/>
			</g>
			<g>
				<circle class="st10" cx="104.49" cy="480.55" r="5.57"/>
				<path class="st10" d="M104.49,488.89c-5.57,0-10.09,4.52-10.09,10.09h20.17C114.57,493.41,110.06,488.89,104.49,488.89z"/>
			</g>
			<g>
				<circle class="st10" cx="161.13" cy="480.55" r="5.57"/>
				<path class="st10" d="M161.13,488.89c-5.57,0-10.09,4.52-10.09,10.09h20.17C171.21,493.41,166.7,488.89,161.13,488.89z"/>
			</g>
		</g>
	</g>
</g>
<g id="Social_Influence">
	<g>
		<rect x="935.66" y="35" class="st2" width="446" height="135"/>
		<g>
			<path class="st3" d="M1042.63,66.57h13.32v3.96h-8.71l-0.07,6.41h8.64v3.74h-8.67l-0.04,6.84h8.86v3.96h-13.57L1042.63,66.57z"/>
			<path class="st3" d="M1060.2,73.34h4.32v2.2h0.07c1.4-1.58,3.46-2.7,5.87-2.7c3.82,0,4.82,2.66,4.82,5.47
				c0,1.8-0.04,2.92-0.04,4.07l-0.11,9.11h-4.39l0.04-4.54c0.04-2.81,0.07-4.97,0.07-7.13c0-2.23-0.54-3.02-2.38-3.02
				c-1.37,0-2.88,1.3-3.99,2.38l-0.07,12.31h-4.39L1060.2,73.34z"/>
			<path class="st3" d="M1089.9,90.48l-1.47,0.79c-1.15,0.65-2.2,0.72-2.74,0.72c-3.02,0-4.93-1.58-4.93-5.44
				c0-0.83,0-2.77,0.04-4.36l0.11-5.54h-2.45v-3.31l2.45,0.07l0.14-6.48h4.39l-0.14,6.48l4.03-0.07v3.31h-4.03l-0.11,5.33
				c-0.04,1.8-0.04,3.46-0.04,4.79c0,1.19,0.4,1.91,1.48,1.91c0.76,0,1.4-0.43,2.02-0.86L1089.9,90.48z"/>
			<path class="st3" d="M1092.2,73.34h4.39v3.31l0.04,0.07c0.87-2.09,1.98-3.82,4.21-3.89c0.43,0,0.86,0.07,1.29,0.18l-0.72,4.21
				c-0.36-0.07-0.72-0.14-1.04-0.14c-1.69,0-2.92,1.26-3.82,3.17l-0.11,11.23h-4.43L1092.2,73.34z"/>
			<path class="st3" d="M1107.36,82.95c0.04,2.48,1.15,5.51,4.18,5.51c1.73,0,3.09-1.15,4.21-2.34l2.52,2.3
				c-1.91,2.12-4.43,3.56-7.38,3.56c-4.61,0-7.92-3.82-7.92-9.5c0-4.82,2.99-9.65,8.28-9.65c5.11,0,7.49,3.78,7.49,10.11H1107.36z
				 M1114.56,79.86c-0.11-1.94-1.01-3.92-3.31-3.92c-1.98,0-3.49,2.12-3.67,3.92H1114.56z"/>
			<path class="st3" d="M1121.76,73.34h4.21v1.91h0.07c0.9-1.37,2.66-2.41,4.57-2.41c4.54,0,7.7,3.85,7.7,9.32
				c0,4.9-2.81,9.75-7.99,9.75c-1.48,0-3.1-0.43-4.1-1.73h-0.07l-0.11,10.01h-4.39L1121.76,73.34z M1126.22,86.52
				c0.61,0.76,1.55,1.66,3.13,1.66c2.23,0,4.57-2.16,4.57-5.79c0-3.42-1.84-5.8-4.46-5.8c-1.84,0-2.99,1.3-3.24,2.84V86.52z"/>
			<path class="st3" d="M1142.21,73.34h4.39v3.31l0.04,0.07c0.86-2.09,1.98-3.82,4.21-3.89c0.43,0,0.86,0.07,1.3,0.18l-0.72,4.21
				c-0.36-0.07-0.72-0.14-1.04-0.14c-1.69,0-2.92,1.26-3.82,3.17l-0.11,11.23h-4.43L1142.21,73.34z"/>
			<path class="st3" d="M1157.36,82.95c0.04,2.48,1.15,5.51,4.18,5.51c1.73,0,3.09-1.15,4.21-2.34l2.52,2.3
				c-1.91,2.12-4.43,3.56-7.38,3.56c-4.61,0-7.92-3.82-7.92-9.5c0-4.82,2.99-9.65,8.28-9.65c5.11,0,7.49,3.78,7.49,10.11H1157.36z
				 M1164.56,79.86c-0.11-1.94-1.01-3.92-3.31-3.92c-1.98,0-3.49,2.12-3.67,3.92H1164.56z"/>
			<path class="st3" d="M1172.2,73.34h4.32v2.2h0.07c1.4-1.58,3.46-2.7,5.87-2.7c3.82,0,4.82,2.66,4.82,5.47
				c0,1.8-0.04,2.92-0.04,4.07l-0.11,9.11h-4.39l0.04-4.54c0.04-2.81,0.07-4.97,0.07-7.13c0-2.23-0.54-3.02-2.38-3.02
				c-1.37,0-2.88,1.3-4,2.38l-0.07,12.31h-4.39L1172.2,73.34z"/>
			<path class="st3" d="M1195.38,82.95c0.04,2.48,1.15,5.51,4.18,5.51c1.73,0,3.1-1.15,4.21-2.34l2.52,2.3
				c-1.91,2.12-4.43,3.56-7.38,3.56c-4.61,0-7.92-3.82-7.92-9.5c0-4.82,2.99-9.65,8.28-9.65c5.11,0,7.49,3.78,7.49,10.11H1195.38z
				 M1202.58,79.86c-0.11-1.94-1.01-3.92-3.31-3.92c-1.98,0-3.49,2.12-3.67,3.92H1202.58z"/>
			<path class="st3" d="M1225.19,91.48h-4.39v-2.2h-0.07c-1.37,1.58-3.42,2.7-5.62,2.7c-4,0-5.04-2.63-5.04-6.16
				c0-1.12,0.04-2.23,0.04-3.38l0.11-9.11h4.39l-0.04,4.54c-0.04,2.63-0.07,5.18-0.07,7.16c0,2.12,0.54,2.99,2.38,2.99
				c1.37,0,2.88-1.29,4-2.38l0.07-12.31h4.39L1225.19,91.48z"/>
			<path class="st3" d="M1230.23,73.34h4.39v3.31l0.04,0.07c0.87-2.09,1.98-3.82,4.21-3.89c0.43,0,0.86,0.07,1.29,0.18l-0.72,4.21
				c-0.36-0.07-0.72-0.14-1.04-0.14c-1.69,0-2.92,1.26-3.82,3.17l-0.11,11.23h-4.43L1230.23,73.34z"/>
			<path class="st3" d="M1242.54,73.34h4.39l-0.18,18.14h-4.39L1242.54,73.34z M1242.57,66.57h4.39l-0.04,4.25h-4.39L1242.57,66.57z
				"/>
			<path class="st3" d="M1251.61,76.51c3.96-3.24,5.97-3.67,7.92-3.67c2.7,0,5.18,1.69,5.18,5.22c0,0.65,0,1.04-0.04,1.51
				l-0.14,5.22c-0.04,0.83-0.07,1.51-0.07,2.27c0,1.01,0.5,1.73,0.97,1.73c0.22,0,0.54-0.11,1.3-0.47l1.04,2.2
				c-1.91,1.26-2.95,1.48-3.78,1.48c-1.55,0-2.81-0.9-3.13-2.41c-1.3,1.51-2.92,2.41-4.64,2.41c-3.24,0-5.44-2.05-5.44-5.29
				c0-2.92,1.87-5.44,9.72-6.73v-1.19c0-2.02-0.86-2.41-2.09-2.41c-0.9,0-1.98,0.36-4.71,2.48L1251.61,76.51z M1260.47,82.77
				c-4.18,0.94-5.51,1.94-5.51,3.78c0,1.33,0.94,2.12,2.3,2.12c0.9,0,2.09-0.58,3.13-1.69L1260.47,82.77z"/>
			<path class="st3" d="M1270.58,64.49h4.39l-0.22,27h-4.39L1270.58,64.49z"/>
			<path class="st3" d="M1121.65,109.77h13.32v3.96h-8.71l-0.07,6.41h8.64v3.74h-8.67l-0.04,6.84h8.86v3.96h-13.57L1121.65,109.77z"
				/>
			<path class="st3" d="M1139.22,116.54h4.32v2.2h0.07c1.4-1.58,3.46-2.7,5.87-2.7c3.82,0,4.82,2.66,4.82,5.47
				c0,1.8-0.04,2.92-0.04,4.07l-0.11,9.11h-4.39l0.04-4.54c0.04-2.81,0.07-4.97,0.07-7.13c0-2.23-0.54-3.02-2.38-3.02
				c-1.37,0-2.88,1.3-4,2.38l-0.07,12.31h-4.39L1139.22,116.54z"/>
			<path class="st3" d="M1168.92,133.68l-1.48,0.79c-1.15,0.65-2.2,0.72-2.74,0.72c-3.02,0-4.93-1.58-4.93-5.44
				c0-0.83,0-2.77,0.04-4.36l0.11-5.54h-2.45v-3.31l2.45,0.07l0.14-6.48h4.39l-0.14,6.48l4.03-0.07v3.31h-4.03l-0.11,5.33
				c-0.04,1.8-0.04,3.46-0.04,4.79c0,1.19,0.4,1.91,1.48,1.91c0.76,0,1.4-0.43,2.02-0.86L1168.92,133.68z"/>
			<path class="st3" d="M1171.22,116.54h4.39v3.31l0.04,0.07c0.86-2.09,1.98-3.82,4.21-3.89c0.43,0,0.86,0.07,1.29,0.18l-0.72,4.21
				c-0.36-0.07-0.72-0.14-1.04-0.14c-1.69,0-2.92,1.26-3.81,3.17l-0.11,11.23h-4.43L1171.22,116.54z"/>
			<path class="st3" d="M1181.41,139.87h0.65c0.68,0,2.66-0.07,3.78-2.41l1.29-2.77l-6.12-17.39l4.39-1.26l3.92,13.17h0.07
				l4.72-13.17l4.17,1.26l-7.85,19.65c-1.69,4.21-3.53,6.44-8.21,6.44h-0.83V139.87z"/>
		</g>
	</g>
	<g>
		<rect x="252.66" y="35" class="st2" width="446" height="135"/>
		<g>
			<path class="st3" d="M355.8,108.15c1.15,0.79,3.02,1.69,4.39,1.69c2.56,0,4-1.62,4-3.6c-0.04-4.97-10.22-2.84-10.22-11.34
				c0-4.07,3.31-7.24,8.31-7.24c2.48,0,4.9,0.86,7.02,2.09l-1.94,3.31c-1.51-0.83-2.92-1.66-4.72-1.66c-2.09,0-4.07,1.12-4.07,3.35
				c0,4.89,10.44,3.35,10.44,11.3c0,4.25-3.42,7.52-8.24,7.52c-2.41,0-4.68-0.68-6.77-1.91L355.8,108.15z"/>
			<path class="st3" d="M380.64,94.44c5.76,0,8.67,4.21,8.67,9.57c0,5.15-3.2,9.58-8.67,9.58c-5.9,0-8.67-4.43-8.67-9.58
				C371.96,99.23,375.31,94.44,380.64,94.44z M380.64,110.06c3.17,0,4.28-3.38,4.28-5.9c0-3.78-1.33-6.19-4.28-6.19
				c-3.28,0-4.28,3.67-4.28,6.19C376.35,106.35,377.36,110.06,380.64,110.06z"/>
			<path class="st3" d="M406.63,110.13c-1.76,2.16-3.89,3.46-6.77,3.46c-5.18,0-7.88-4.9-7.88-9.29c0-5,3.13-9.86,8.53-9.86
				c2.66,0,4.72,1.26,6.33,3.06l-2.48,2.41c-1.12-0.9-2.12-1.73-3.67-1.73c-2.74,0-4.1,2.95-4.1,5.72c0,3.82,1.69,5.94,3.89,5.94
				c1.62,0,2.7-0.97,3.71-2.02L406.63,110.13z"/>
			<path class="st3" d="M409.51,94.94h4.39l-0.18,18.14h-4.39L409.51,94.94z M409.55,88.18h4.39l-0.04,4.25h-4.39L409.55,88.18z"/>
			<path class="st3" d="M418.58,98.11c3.96-3.24,5.98-3.67,7.92-3.67c2.7,0,5.18,1.69,5.18,5.22c0,0.65,0,1.04-0.04,1.51l-0.14,5.22
				c-0.04,0.83-0.07,1.51-0.07,2.27c0,1.01,0.5,1.73,0.97,1.73c0.22,0,0.54-0.11,1.3-0.47l1.04,2.2c-1.91,1.26-2.95,1.48-3.78,1.48
				c-1.55,0-2.81-0.9-3.13-2.41c-1.3,1.51-2.92,2.41-4.64,2.41c-3.24,0-5.44-2.05-5.44-5.29c0-2.92,1.87-5.44,9.72-6.73v-1.19
				c0-2.02-0.86-2.41-2.09-2.41c-0.9,0-1.98,0.36-4.72,2.48L418.58,98.11z M427.44,104.37c-4.18,0.94-5.51,1.94-5.51,3.78
				c0,1.33,0.94,2.12,2.3,2.12c0.9,0,2.09-0.58,3.13-1.69L427.44,104.37z"/>
			<path class="st3" d="M437.55,86.09h4.39l-0.22,27h-4.39L437.55,86.09z"/>
			<path class="st3" d="M457.46,88.18h4.61l-0.22,24.91h-4.61L457.46,88.18z"/>
			<path class="st3" d="M467.22,94.94h4.32v2.2h0.07c1.4-1.58,3.46-2.7,5.87-2.7c3.82,0,4.82,2.66,4.82,5.47
				c0,1.8-0.04,2.92-0.04,4.07l-0.11,9.11h-4.39l0.04-4.54c0.04-2.81,0.07-4.97,0.07-7.13c0-2.23-0.54-3.02-2.38-3.02
				c-1.37,0-2.88,1.3-4,2.38l-0.07,12.31h-4.39L467.22,94.94z"/>
			<path class="st3" d="M488.35,98.25h-2.88v-3.31h2.88V92.6c0-3.92,2.38-6.8,6.84-6.8h1.4v3.53h-1.01c-1.62,0-2.77,0.86-2.77,3.13
				v2.48h3.74v3.31h-3.85v14.83h-4.43L488.35,98.25z M499.58,86.09h4.39l-0.22,27h-4.39L499.58,86.09z"/>
			<path class="st3" d="M524.2,113.08h-4.39v-2.2h-0.07c-1.37,1.58-3.42,2.7-5.62,2.7c-4,0-5.04-2.63-5.04-6.16
				c0-1.12,0.04-2.23,0.04-3.38l0.11-9.11h4.39l-0.04,4.54c-0.04,2.63-0.07,5.18-0.07,7.16c0,2.12,0.54,2.99,2.38,2.99
				c1.37,0,2.88-1.29,4-2.38l0.07-12.31h4.39L524.2,113.08z"/>
			<path class="st3" d="M532.41,104.55c0.04,2.48,1.15,5.51,4.18,5.51c1.73,0,3.1-1.15,4.21-2.34l2.52,2.3
				c-1.91,2.12-4.43,3.56-7.38,3.56c-4.61,0-7.92-3.82-7.92-9.5c0-4.82,2.99-9.65,8.28-9.65c5.11,0,7.49,3.78,7.49,10.11H532.41z
				 M539.61,101.46c-0.11-1.94-1.01-3.92-3.31-3.92c-1.98,0-3.49,2.12-3.67,3.92H539.61z"/>
			<path class="st3" d="M547.25,94.94h4.32v2.2h0.07c1.4-1.58,3.46-2.7,5.87-2.7c3.82,0,4.82,2.66,4.82,5.47
				c0,1.8-0.04,2.92-0.04,4.07l-0.11,9.11h-4.39l0.04-4.54c0.04-2.81,0.07-4.97,0.07-7.13c0-2.23-0.54-3.02-2.38-3.02
				c-1.37,0-2.88,1.3-4,2.38l-0.07,12.31h-4.39L547.25,94.94z"/>
			<path class="st3" d="M580.69,110.13c-1.76,2.16-3.89,3.46-6.77,3.46c-5.18,0-7.88-4.9-7.88-9.29c0-5,3.13-9.86,8.53-9.86
				c2.66,0,4.72,1.26,6.33,3.06l-2.48,2.41c-1.12-0.9-2.12-1.73-3.67-1.73c-2.74,0-4.1,2.95-4.1,5.72c0,3.82,1.69,5.94,3.89,5.94
				c1.62,0,2.7-0.97,3.71-2.02L580.69,110.13z"/>
			<path class="st3" d="M586.41,104.55c0.04,2.48,1.15,5.51,4.18,5.51c1.73,0,3.1-1.15,4.21-2.34l2.52,2.3
				c-1.91,2.12-4.43,3.56-7.38,3.56c-4.61,0-7.92-3.82-7.92-9.5c0-4.82,2.99-9.65,8.28-9.65c5.11,0,7.49,3.78,7.49,10.11H586.41z
				 M593.61,101.46c-0.11-1.94-1.01-3.92-3.31-3.92c-1.98,0-3.49,2.12-3.67,3.92H593.61z"/>
		</g>
	</g>
	<g>
		<g>
			<line class="st0" x1="698.66" y1="102.5" x2="932.23" y2="102.5"/>
			<g>
				<polygon class="st1" points="926.26,107.59 931.34,102.5 926.26,97.41 930.57,97.41 935.66,102.5 930.57,107.59 				"/>
			</g>
		</g>
	</g>
	<g>
		<g>
			<circle class="st3" cx="47.19" cy="92.75" r="8.43"/>
			<path class="st3" d="M47.19,105.4c-8.44,0-15.28,6.84-15.28,15.28h30.56C62.47,112.24,55.63,105.4,47.19,105.4z"/>
		</g>
		<g>
			<circle class="st12" cx="47.19" cy="102.5" r="42.86"/>
		</g>
		<g>
			<circle class="st13" cx="104.33" cy="102.5" r="100"/>
		</g>
		<g>
			<circle class="st14" cx="75.76" cy="102.5" r="71.43"/>
		</g>
		<g>
			<circle class="st1" cx="111.29" cy="92.75" r="8.43"/>
			<path class="st1" d="M111.29,105.4c-8.44,0-15.28,6.84-15.28,15.28h30.56C126.57,112.24,119.73,105.4,111.29,105.4z"/>
		</g>
		<g>
			<circle class="st10" cx="175.39" cy="92.75" r="8.43"/>
			<path class="st10" d="M175.39,105.4c-8.44,0-15.28,6.84-15.28,15.28h30.56C190.67,112.24,183.83,105.4,175.39,105.4z"/>
		</g>
	</g>
	<g>
	</g>
	<g>
	</g>
	<g>
	</g>
	<g>
	</g>
	<g>
	</g>
	<g>
	</g>
	<g>
	</g>
	<g>
	</g>
	<g>
	</g>
	<g>
	</g>
	<g>
	</g>
	<g>
	</g>
	<g>
	</g>
	<g>
	</g>
	<g>
	</g>
	<g>
	</g>
</g>
</svg>
