<svg xmlns="http://www.w3.org/2000/svg" xmlns:xlink="http://www.w3.org/1999/xlink" version="1.1" x="0px" y="0px" viewBox="0 0 66 82.5" enable-background="new 0 0 66 66" xml:space="preserve"><g><g><path fill="#2dc6d6" d="M30.4,15.3v10.4h19.2V9.9H35.8v5c0,0.3-0.2,0.5-0.5,0.5H30.4z M46.4,25.1H33.7c-0.3,0-0.5-0.2-0.5-0.5s0.2-0.5,0.5-0.5    h12.7c0.3,0,0.5,0.2,0.5,0.5S46.6,25.1,46.4,25.1z M46.4,21.4H33.7c-0.3,0-0.5-0.2-0.5-0.5s0.2-0.5,0.5-0.5h12.7    c0.3,0,0.5,0.2,0.5,0.5S46.6,21.4,46.4,21.4z M46.4,16.7c0.3,0,0.5,0.2,0.5,0.5s-0.2,0.5-0.5,0.5H33.7c-0.3,0-0.5-0.2-0.5-0.5    s0.2-0.5,0.5-0.5H46.4z"/><polygon fill="#2dc6d6" points="20.8,3 17.1,6.7 20.8,6.7   "/><polygon fill="#2dc6d6" points="31.1,14.3 34.8,14.3 34.8,10.6   "/><path fill="#2dc6d6" d="M29.4,21.3h-9.8c-0.3,0-0.5-0.2-0.5-0.5s0.2-0.5,0.5-0.5h9.8v-2.7h-9.8c-0.3,0-0.5-0.2-0.5-0.5s0.2-0.5,0.5-0.5h9.8v-1.7    c0,0,0,0,0-0.1c0,0,0,0,0-0.1c0-0.1,0.1-0.2,0.1-0.2l0.6-0.7H19.6c-0.3,0-0.5-0.2-0.5-0.5s0.2-0.5,0.5-0.5h11.6L35,9    c0.1-0.1,0.1-0.1,0.2-0.1c0,0,0,0,0,0c0,0,0,0,0.1,0h0.2V7.4V2.2H21.8v4.9c0,0.3-0.2,0.5-0.5,0.5h-4.9v18h13.1V21.3z M19.6,9.1    h12.7c0.3,0,0.5,0.2,0.5,0.5s-0.2,0.5-0.5,0.5H19.6c-0.3,0-0.5-0.2-0.5-0.5S19.4,9.1,19.6,9.1z"/><path fill="#2dc6d6" d="M55.7,27.9c0-0.7-0.5-1.2-1.2-1.2h-43c-0.7,0-1.2,0.5-1.2,1.2v4.6h45.4V27.9z"/><path fill="#2dc6d6" d="M11.1,33.5l18.9,17c0.1,0.1,0.2,0.2,0.2,0.4v12.4h5.7V50.9c0-0.1,0.1-0.3,0.2-0.4l18.9-17H11.1z"/><polygon fill="#2dc6d6" points="18.1,45.5 11.5,45.5 11.5,56.5 7.6,56.5 14.8,63.8 22,56.5 18.1,56.5   "/><polygon fill="#2dc6d6" points="54.5,56.5 54.5,45.5 47.8,45.5 47.8,56.5 44,56.5 51.2,63.8 58.4,56.5   "/></g></g></svg>