<?xml version="1.0" encoding="utf-8"?>
<!-- Svg Vector Icons : http://www.onlinewebfonts.com/icon -->
<!DOCTYPE svg PUBLIC "-//W3C//DTD SVG 1.1//EN" "http://www.w3.org/Graphics/SVG/1.1/DTD/svg11.dtd">
<svg version="1.1" xmlns="http://www.w3.org/2000/svg" xmlns:xlink="http://www.w3.org/1999/xlink" x="0px" y="0px" viewBox="0 0 1000 1000" enable-background="new 0 0 1000 1000" xml:space="preserve">
<metadata> Svg Vector Icons : http://www.onlinewebfonts.com/icon </metadata>
<g><g transform="translate(0.000000,512.000000) scale(0.100000,-0.100000)"><path fill="#2dc6d6" d="M7947.7,4531.9v-488.1h-689.1h-689.1v-593.4v-593.4h-488.1h-488.1v392.4v392.4h-985.7h-985.7v-396.2v-394.3l-488.1,13.4l-488.1,13.4V1593.8V309.5l-290.9,5.7l-292.8,5.7l-5.7,589.5l-3.8,587.6h-976.2H100V120v-1378.1h976.2h976.2l3.8,589.5l5.7,587.6l292.8,5.7l290.9,5.7v-1284.3v-1284.3l488.1,13.4l488.1,13.4v-394.3v-396.2h985.7h985.7v392.4v392.4h488.1h488.1v-593.4v-593.4h689.1h689.1v-488.1V-4780h976.2H9900v976.2v976.2h-976.2h-976.2v-287.1v-287.1H7450h-497.7v976.2v976.2H7450h497.7v-296.7v-296.7h976.2H9900v985.7v985.7h-976.2h-976.2v-488.1v-488.1h-689.1h-689.1v-593.4v-593.4h-488.1h-488.1v392.4v392.4h-985.7h-985.7v-392.4v-392.4h-287.1h-287.1V120v2354.3h287.1h287.1v-392.4v-392.4h985.7h985.7v392.4v392.4h488.1h488.1v-593.4v-593.4h689.1h689.1V799.5V311.4h976.2H9900v985.7v985.7h-976.2h-976.2v-296.7v-296.7H7450h-497.7v976.2v976.2H7450h497.7v-287.1v-287.1h976.2H9900v976.2V5020h-976.2h-976.2V4531.9z M9507.6,4043.8V3460l-587.6-5.7l-589.5-3.8v580c0,319.7,5.7,587.6,13.4,593.4c7.6,7.7,271.8,11.5,587.6,9.6l576.1-5.7V4043.8z M5191.4,2665.7v-593.4h-583.8h-583.8v593.4v593.4h583.8h583.8V2665.7z M9517.2,1297.1V713.4h-593.4h-593.4v583.8v583.8h593.4h593.4V1297.1z M1669.5,120v-976.2h-593.4H482.8V120v976.2h593.4h593.4V120z M9517.2-1057.1v-583.8h-593.4h-593.4v583.8v583.8h593.4h593.4V-1057.1z M5191.4-2425.7v-593.4h-583.8h-583.8v593.4v593.4h583.8h583.8V-2425.7z M9507.6-3803.8v-583.8h-583.8H8340l-5.7,589.5l-3.8,587.6l587.6-3.8l589.5-5.7V-3803.8z"/></g></g>
</svg>