<svg xmlns="http://www.w3.org/2000/svg" xmlns:xlink="http://www.w3.org/1999/xlink" version="1.1" x="0px" y="0px" viewBox="0 0 499 293.75" style="enable-background:new 0 0 499 235;" xml:space="preserve"><rect fill="#2dc6d6" x="244.1" y="44.2" width="16.6" height="163.1"/><rect fill="#2dc6d6" x="262.7" y="59" width="16.6" height="148.3"/><rect fill="#2dc6d6" x="281.3" y="87.2" width="16.6" height="120.2"/><rect fill="#2dc6d6" x="299.9" y="118.3" width="16.6" height="89"/><rect fill="#2dc6d6" x="318.5" y="148.7" width="16.6" height="58.6"/><rect fill="#2dc6d6" x="337.1" y="167.3" width="16.6" height="40"/><path fill="#2dc6d6" d="M487.8,209.6c-58.6,0-103.3-15.7-136.5-47.9c-28.3-27.5-43.1-62.2-55.1-90.2c-12.8-30.1-22.1-51.8-40.6-51.8  c-18.7,0-30.1,23.2-44.4,52.6c-13.6,27.8-30.5,62.5-60,89.8c-34.6,32-79.3,47.6-136.6,47.6v-7c125.1,0,162.8-77.1,190.3-133.4  c15.4-31.6,27.6-56.5,50.7-56.5c23.1,0,33.7,24.7,47,56.1c24.1,56.5,57.1,133.8,185.2,133.8V209.6z"/><rect fill="#2dc6d6" x="355.8" y="188.6" width="16.6" height="18.7"/><rect fill="#2dc6d6" x="225.4" y="59" width="16.6" height="148.3"/><rect fill="#2dc6d6" x="206.8" y="87.2" width="16.6" height="120.2"/><rect fill="#2dc6d6" x="188.2" y="118.3" width="16.6" height="89"/><rect fill="#2dc6d6" x="169.6" y="148.7" width="16.6" height="58.6"/><rect fill="#2dc6d6" x="151" y="167.3" width="16.6" height="40"/><rect fill="#2dc6d6" x="132.3" y="188.6" width="16.6" height="18.7"/><rect fill="#2dc6d6" x="14.2" y="211.7" width="473.8" height="4"/></svg>