<svg id="svg_symbol_default_logo" viewBox="0 0 155 38" width="100%" height="100%" xmlns="http://www.w3.org/2000/svg">
	<style type="text/css" >
    .st0 {
        fill: rgb(5,22,77);
    }
	</style>
	<path class="st0" d="M93.9,16.3c-2.4,0-3.5,0.9-3.6,2.6h2.3c0-0.4,0.3-0.8,1.3-0.8c0.9,0,1.3,0.3,1.3,0.7c0,0.4-0.2,0.5-0.8,0.6 l-1.5,0.2c-2.1,0.2-3,1.1-3,2.7c0,1.5,0.9,2.6,2.8,2.6c1.3,0,2.1-0.4,2.7-1.3v1h2.2v-5.3C97.5,17.1,96.2,16.3,93.9,16.3z M95.2,21.5 c0,0.9-0.8,1.5-2.1,1.5c-0.6,0-1-0.3-1-0.8c0-0.4,0.3-0.8,1.1-0.9l1.4-0.2c0.2,0,0.5-0.1,0.6-0.1V21.5z"></path>
	<path class="st0" d="M84.4,18.8c0-0.4,0.3-0.6,1.1-0.6c0.8,0,1.1,0.3,1.1,0.8H89c-0.1-1.7-1.3-2.6-3.5-2.6c-2.4,0-3.5,1.1-3.5,2.7 c0,1.6,1,2.3,2.8,2.5l0.8,0.1c0.8,0.1,1.1,0.3,1.1,0.7c0,0.4-0.4,0.7-1.3,0.7c-0.9,0-1.3-0.3-1.4-0.9h-2.4c0,1.6,1,2.7,3.8,2.7 c2.5,0,3.7-1,3.7-2.7c0-1.7-1-2.3-3.1-2.6l-0.8-0.1C84.6,19.3,84.4,19.1,84.4,18.8"></path>
	<path class="st0" d="M78.7,24.6h2.4v-4.7c0-2.7-1.1-3.6-3.2-3.6c-1.3,0-2,0.5-2.3,1.2v-0.9h-2.3v8.1h2.4V20c0-1.1,0.5-1.6,1.4-1.6 c1,0,1.5,0.5,1.5,1.6V24.6z"></path>
	<path class="st0" d="M68.7,16.3c-2.4,0-3.5,0.9-3.6,2.6h2.3c0-0.4,0.3-0.8,1.3-0.8c0.9,0,1.3,0.3,1.3,0.7c0,0.4-0.2,0.5-0.8,0.6 l-1.5,0.2c-2.1,0.2-3,1.1-3,2.7c0,1.5,0.9,2.6,2.8,2.6c1.3,0,2.1-0.4,2.7-1.3l0,1h2.2v-5.3C72.4,17.1,71.1,16.3,68.7,16.3z M70.1,21.5c0,0.9-0.8,1.5-2.1,1.5c-0.6,0-1-0.3-1-0.8c0-0.4,0.3-0.8,1.1-0.9l1.4-0.2c0.2,0,0.5-0.1,0.6-0.1V21.5z"></path>
	<path class="st0" d="M61.5,24.6H64v-4.7c0-2.7-1.1-3.6-3.1-3.6c-1.1,0-1.8,0.4-2.2,1v-3.9h-2.4v11.2h2.4V20c0-1.1,0.5-1.6,1.4-1.6 c1,0,1.5,0.5,1.5,1.6V24.6z"></path>
	<path class="st0" d="M54.4,24.8c0.6,0,1.1-0.1,1.1-0.1v-1.9c0,0-0.4,0-0.7,0c-0.7,0-1.1-0.2-1.1-1.1v-3.1h1.8v-2h-1.8v-2.4h-2.4v2.4 h-1.2v2h1.2v3.4C51.3,23.9,52.5,24.8,54.4,24.8"></path>
	<path class="st0" d="M47.7,18.5h1.8v-2h-1.8v-0.3c0-0.7,0.4-1,1.1-1c0.3,0,0.6,0,0.6,0v-2c0,0-0.4-0.1-1-0.1c-1.9,0-3.2,1-3.2,3v0.3 h-1.2v2h1.2v6.1h2.4L47.7,18.5z"></path>
	<path class="st0" d="M41.2,24.6h2.3v-8.1H41v4.6c0,1.1-0.5,1.6-1.4,1.6c-1,0-1.4-0.5-1.4-1.6v-4.6h-2.4v4.7c0,2.7,1.1,3.6,3.1,3.6 c1.3,0,1.9-0.5,2.3-1.2L41.2,24.6z"></path>
	<polyline class="st0" points="27.9,24.6 35.2,24.6 35.2,22.3 30.4,22.3 30.4,13.4 27.9,13.4 27.9,24.6 "></polyline>
	<path class="st0" d="M8.5,10.6c-4.6-0.1-8.4,3.7-8.5,8.3c-0.1,4.6,3.6,8.5,8.2,8.5c4.6,0.1,8.4-3.7,8.5-8.3 C16.8,14.5,13.1,10.6,8.5,10.6z M8.3,27c-4.4-0.1-7.9-3.7-7.9-8.1c0.1-4.4,3.7-8,8.1-7.9c4.4,0.1,7.9,3.7,7.9,8.1 C16.3,23.5,12.7,27.1,8.3,27z"></path>
	<path class="st0" d="M15.5,17.3c-1.5-0.3-2.8-0.4-3.7-0.4c-0.8,0-1.4,0-2.1,0.1c-0.7,1.5-1.7,2.3-3,2.3c-0.5,0-1-0.2-1.8-0.6 c0,0-0.8-0.4-0.9-0.5c0.1-0.1,0.2-0.1,0.2-0.1c0,0,1.7,0.8,1.7,0.8l0.2-0.2l-3.4-1.5l-0.3,0.3l-1-0.4l0,0.4c1.5,0.7,2.2,1,4.2,2.4 c1.7,1.1,3.1,1.8,5.1,2.4c0.5,0.2,1.3,0.4,1.7,0.4l0.6-0.5c-0.5,0-1.1,0-1.8-0.2c-1.4-0.4-2.3-1.2-2.6-1.5c0.9-0.6,1.7-0.8,2.2-0.9 c0.4-0.1,0.7-0.1,1-0.1c0.7,0,1.3,0,1.7,0.1l0.3-0.3c-0.6-0.1-1.2-0.1-1.9-0.1c-0.5,0-1,0-1.5,0.1c0.1-0.1,0.2-0.2,0.3-0.3 c0.4,0,0.9,0,1.4,0c0.7,0,1.4,0.1,2,0.2l0.3-0.3c-0.6-0.1-1.4-0.2-2.2-0.2c-0.6,0-1.1,0-1.3,0c0.1-0.1,0.2-0.3,0.2-0.3 c0.3,0,1,0,1.4,0c0.8,0,1.4,0.1,2,0.2l0.3-0.3c-0.6-0.1-1.3-0.2-2.2-0.3c-0.6,0-1.2,0-1.3,0c0.1-0.1,0.2-0.2,0.2-0.3 c0.2,0,1,0,1.3,0c0.9,0.1,2.1,0.2,2.3,0.3L15.5,17.3"></path>
	<path id="path22" class="st0" d="M109.9,13.4v2.3h-3.1v9h-2.6v-9h-3.1v-2.3H109.9"></path>
	<path id="path26" class="st0" d="M114,19.6c-0.1-0.8-0.4-1.4-1.6-1.4c-1,0-1.5,0.4-1.7,1.4H114z M116.4,21.2h-5.7 c0.1,1.2,0.6,1.7,1.8,1.7c0.9,0,1.3-0.3,1.4-0.8h2.4c-0.1,1.6-1.4,2.7-3.8,2.7c-3,0-4.2-1.7-4.2-4.3c0-2.2,1-4.3,4.1-4.3 c2.9,0,4.1,1.7,4.1,4.3C116.5,20.7,116.5,21,116.4,21.2"></path>
	<path id="path30" class="st0" d="M125.1,19.4h-2.4c-0.2-0.7-0.6-1-1.6-1c-1.1,0-1.8,0.7-1.8,2.1c0,1.4,0.7,2.1,1.8,2.1 c0.9,0,1.4-0.3,1.6-1h2.4c-0.2,2-1.4,3.2-4,3.2c-3,0-4.2-1.9-4.2-4.3c0-2.4,1.2-4.3,4.2-4.3C123.7,16.3,124.9,17.5,125.1,19.4"></path>
	<path id="path34" class="st0" d="M130.4,16.3c2,0,3.1,0.9,3.1,3.6v4.7h-2.4V20c0-1.1-0.5-1.6-1.5-1.6c-0.9,0-1.4,0.5-1.4,1.6v4.6 h-2.4V13.4h2.4v3.9C128.6,16.7,129.3,16.3,130.4,16.3"></path>
	<path id="path38" class="st0" d="M139,16.3c2.1,0,3.2,0.9,3.2,3.6v4.7h-2.4V20c0-1.1-0.5-1.6-1.5-1.6c-0.9,0-1.4,0.5-1.4,1.6v4.6 h-2.4v-8.1h2.3v0.9C137,16.8,137.7,16.3,139,16.3"></path>
	<rect x="143.1" y="16.5" class="st0" width="2.4" height="8.1"></rect>
	<polyline class="st0" points="145.5,15.4 143.1,15.4 143.1,13.4 145.5,13.4 145.5,15.4 "></polyline>
	<path id="path46" class="st0" d="M151.7,19.8l3.3,4.8h-2.8l-2.1-3.2l-1,1v2.2h-2.4V13.4h2.4v6.1l2.9-3h3.1L151.7,19.8"></path>
</svg>