<?xml version="1.0" encoding="utf-8"?>
<!-- Generator: Adobe Illustrator 25.1.0, SVG Export Plug-In . SVG Version: 6.00 Build 0)  -->
<svg version="1.1" id="Layer_1" xmlns="http://www.w3.org/2000/svg" xmlns:xlink="http://www.w3.org/1999/xlink" x="0px" y="0px"
	 viewBox="0 0 3440.5 986.8" style="enable-background:new 0 0 3440.5 986.8;" xml:space="preserve">
<style type="text/css">
	.st0{display:none;fill:#EF0F6A;}
	.st1{fill:#FFFFFF;}
	.st2{fill:none;stroke:#2DC6D6;stroke-width:12;stroke-linecap:round;stroke-linejoin:round;}
	.st3{fill:none;stroke:#FFFFFF;stroke-width:2;stroke-miterlimit:10;}
	.st4{opacity:0.9;}
	.st5{fill:none;stroke:#2DC6D6;stroke-width:6;stroke-linecap:round;stroke-linejoin:round;}
	.st6{fill:#EF0F6A;stroke:#FFFFFF;stroke-width:3;stroke-miterlimit:10;}
	.st7{fill:none;stroke:#FFFFFF;stroke-width:3;stroke-miterlimit:10;}
</style>
<rect x="-204.9" y="-110.1" class="st0" width="3917.9" height="1333.9"/>
<g>
	<path class="st1" d="M3.4,374.7c-0.6-1-1.1-2-1.5-3.2s-0.5-2.4-0.5-3.7s0.1-2.5,0.3-3.5c0.2-1.1,0.4-2,0.7-2.7
		c0.3-0.7,0.7-1.4,1.1-2c0.4-0.6,0.9-1,1.3-1.4c0.5-0.4,1-0.6,1.5-0.9c0.9-0.4,1.8-0.6,2.6-0.6c0.8,0,1.5,0.1,2.1,0.2
		c0.6,0.1,1.2,0.5,1.9,0.9c0.7,0.5,1.2,1.1,1.7,1.8c1.1,1.8,1.7,4.4,1.7,7.8H4c0,3.5,0.9,5.8,2.6,7.1c0.9,0.6,1.8,0.9,2.9,0.9
		c2,0,3.7-1.2,5.1-3.7l1.8,1.2c-0.5,0.9-1.2,1.8-2,2.5c-1.6,1.4-3.1,2.1-4.6,2.1S7,377.6,6,377C4.9,376.4,4.1,375.7,3.4,374.7z
		 M4.2,365.4h9.7c0-1.9-0.4-3.5-1.3-4.8c-0.8-1.1-1.8-1.6-3.2-1.6c-2.3,0-3.8,1.1-4.6,3.2C4.3,363.1,4.2,364.2,4.2,365.4z"/>
	<path class="st1" d="M32.6,374.4c-1.3,2.3-3.2,3.5-5.5,3.5c-1.2,0-2.3-0.3-3.2-0.9c-1-0.6-1.8-1.4-2.4-2.4c-1.2-2-1.9-4.4-1.9-6.9
		c0-1.9,0.3-3.7,0.9-5.3c0.6-1.6,1.5-3,2.7-4c1.2-1,2.5-1.5,3.8-1.5c1.4,0,2.6,0.4,3.6,1.1c1,0.7,1.7,1.3,1.9,1.9V348h2.6v26.7
		c0,0.4,0.1,0.9,0.2,1.5c0.1,0.6,0.2,1.1,0.3,1.3H33C32.7,377.5,32.6,376.4,32.6,374.4z M22.1,367.7c0,2.3,0.4,4.2,1.2,5.7
		c0.9,1.5,2.2,2.3,4.1,2.3c1.2,0,2.3-0.4,3-1.1c0.6-0.6,1.3-1.4,2.1-2.4v-10.3c-1.4-2-2.9-2.9-4.6-2.9C24,359,22.1,361.9,22.1,367.7
		z"/>
	<path class="st1" d="M38.9,383.4c-0.5-0.7-0.8-1.4-0.8-2.1s0.1-1.2,0.3-1.6s0.5-0.7,0.9-1.1c0.4-0.3,0.7-0.6,1-0.8
		c0.3-0.2,0.7-0.4,1.2-0.7s0.8-0.4,0.9-0.5c-1.1-0.2-1.9-0.6-2.4-1.2c-0.5-0.6-0.8-1.1-0.8-1.5c0-0.5,0.1-0.9,0.3-1.3
		c0.2-0.4,0.4-0.7,0.8-1.1c0.6-0.5,1-0.9,1.4-1.1c0.4-0.2,0.6-0.4,0.6-0.4c-0.8-0.7-1.5-1.5-2.1-2.6c-0.6-1.1-0.9-2.3-0.9-3.5
		c0-1.3,0.4-2.5,1.1-3.6c0.7-1.1,1.7-2,2.9-2.7c1.2-0.6,2.3-1,3.5-1c1.1,0,2,0.1,2.7,0.4s1.4,0.7,2.2,1.2c1-0.8,1.8-1.3,2.4-1.4
		c0.8-0.2,1.5-0.3,2.2-0.3v2.3h0c-2.2,0-3.3,0.2-3.3,0.6c0.7,1.2,1.1,2.1,1.2,2.7c0.2,0.6,0.2,1.2,0.2,1.7c0,2.1-0.7,3.9-2,5.3
		c-1.3,1.5-3.1,2.2-5.2,2.2c-1.1,0-2.3-0.2-3.5-0.7c-0.1,0.1-0.3,0.3-0.7,0.5c-0.8,0.5-1.2,1.1-1.2,1.6c0,0.6,0.3,1,0.8,1.2
		c0.4,0.2,0.9,0.3,1.6,0.4c0.6,0.1,1.1,0.2,1.3,0.2c0.3,0,0.7,0.1,1.3,0.1c1.5,0,3.2,0.3,5.2,0.7c1.3,0.3,2.3,0.9,3.1,1.8
		s1.2,2,1.2,3.2c0,3.7-3.1,5.6-9.4,5.6c-2.2,0-4.2-0.4-5.9-1.2C40.1,384.7,39.4,384.2,38.9,383.4z M40.7,380.9
		c0,1.3,0.7,2.1,2.1,2.6c1.2,0.4,2.3,0.6,3.3,0.6s1.7,0,2.1,0c0.3,0,0.8,0,1.3-0.1c0.5,0,1-0.1,1.3-0.2c0.3-0.1,0.7-0.2,1.1-0.4
		c0.4-0.2,0.7-0.4,1-0.6c0.5-0.5,0.8-1.2,0.8-2s-0.3-1.4-0.8-1.9c-0.5-0.5-1.2-0.8-2-1s-1.6-0.3-2.4-0.4s-1.5-0.1-2.2-0.2
		c-0.7,0-1.1-0.1-1.3-0.1c-1.4,0.5-2.3,0.9-2.7,1.2C41.2,379.1,40.7,379.9,40.7,380.9z M43.4,360.4c-1,1-1.5,2.2-1.5,3.7
		s0.5,2.8,1.4,3.8c0.9,1,2.2,1.5,3.7,1.5c1.6,0,2.8-0.5,3.6-1.5c0.8-1,1.2-2.3,1.2-3.8c0-1.5-0.4-2.7-1.2-3.7s-2-1.5-3.5-1.5
		S44.4,359.5,43.4,360.4z"/>
	<path class="st1" d="M60.3,374.7c-0.6-1-1.1-2-1.5-3.2s-0.5-2.4-0.5-3.7s0.1-2.5,0.3-3.5c0.2-1.1,0.4-2,0.7-2.7
		c0.3-0.7,0.7-1.4,1.1-2c0.4-0.6,0.9-1,1.3-1.4c0.5-0.4,1-0.6,1.5-0.9c0.9-0.4,1.8-0.6,2.6-0.6c0.8,0,1.5,0.1,2.1,0.2
		c0.6,0.1,1.2,0.5,1.9,0.9c0.7,0.5,1.2,1.1,1.7,1.8c1.1,1.8,1.7,4.4,1.7,7.8H61c0,3.5,0.9,5.8,2.6,7.1c0.9,0.6,1.8,0.9,2.9,0.9
		c2,0,3.7-1.2,5.1-3.7l1.8,1.2c-0.5,0.9-1.2,1.8-2,2.5c-1.6,1.4-3.1,2.1-4.6,2.1s-2.8-0.3-3.9-0.8C61.8,376.4,61,375.7,60.3,374.7z
		 M61.1,365.4h9.7c0-1.9-0.4-3.5-1.3-4.8c-0.8-1.1-1.8-1.6-3.2-1.6c-2.3,0-3.8,1.1-4.6,3.2C61.3,363.1,61.1,364.2,61.1,365.4z"/>
	<path class="st1" d="M88.1,374.7c0-0.5,0.1-1,0.3-1.6l3.2-8.6c0.4-1,0.5-1.8,0.5-2.4c0-0.8-0.3-1.2-0.9-1.2c-1.1,0-1.9,0.5-2.6,1.6
		s-1.2,2.3-1.5,3.6c-0.1,0.2-0.2,0.3-0.3,0.3h-0.5c-0.2,0-0.3-0.1-0.3-0.4V366c0.4-1.6,1.1-3,2-4.2c0.9-1.2,2-1.8,3.4-1.8
		c1,0,1.8,0.3,2.4,0.9c0.7,0.6,1,1.4,1,2.4c0,0.5-0.1,1-0.3,1.6l-3.2,8.6c-0.4,0.9-0.5,1.7-0.5,2.4c0,0.8,0.3,1.2,0.9,1.2
		c1,0,1.9-0.6,2.6-1.7c0.7-1.1,1.2-2.3,1.5-3.6c0.1-0.2,0.2-0.2,0.3-0.2h0.5c0.1,0,0.2,0,0.3,0.1c0.1,0.1,0.1,0.2,0.1,0.2
		c0,0,0,0.1,0,0.1c-0.4,1.5-1,2.9-1.9,4.2c-0.9,1.3-2,1.9-3.4,1.9c-0.9,0-1.7-0.3-2.4-1S88.1,375.7,88.1,374.7z M92.6,353.4
		c0-0.6,0.2-1.1,0.7-1.5s1-0.7,1.5-0.7c0.5,0,0.8,0.1,1.1,0.4s0.4,0.6,0.4,1.1c0,0.6-0.2,1.1-0.7,1.6c-0.5,0.4-1,0.7-1.6,0.7
		c-0.4,0-0.8-0.1-1.1-0.4S92.6,353.8,92.6,353.4z"/>
	<path class="st1" d="M102.6,368.5l1.9-2.1c1-1,2-1.5,3.1-1.5c0.4,0,0.9,0.1,1.4,0.2c0.5,0.1,1.1,0.3,1.7,0.5
		c0.6,0.2,1.1,0.4,1.6,0.5c0.5,0.1,0.9,0.2,1.3,0.2c1.1,0,2.1-0.5,3.1-1.5l1.2,1.1l-1.9,2.1c-1,1-2,1.5-3.1,1.5
		c-0.6,0-1.2-0.1-1.9-0.4c-0.7-0.2-1.4-0.5-2.2-0.7c-0.7-0.2-1.4-0.4-1.9-0.4c-1.1,0-2.2,0.5-3,1.5L102.6,368.5z"/>
	<path class="st1" d="M121.2,383.3c0-0.7,0.2-1.2,0.7-1.7c0.4-0.5,1-0.7,1.7-0.7c0.4,0,0.8,0.1,1.1,0.4c0.3,0.3,0.4,0.6,0.4,1
		c0,0.5-0.2,1-0.5,1.4c-0.3,0.4-0.7,0.7-1.2,0.8c0.5,0.2,0.9,0.3,1.4,0.3c1.1,0,2.1-0.5,2.9-1.6c0.8-1,1.4-2.2,1.8-3.5l3.8-15
		c0.2-0.8,0.3-1.4,0.3-2c0-1.1-0.4-1.7-1.2-1.7c-1.2,0-2.2,0.5-3.1,1.6c-0.9,1.1-1.6,2.3-2.1,3.7c-0.1,0.2-0.2,0.3-0.3,0.3h-0.5
		c-0.2,0-0.3-0.1-0.3-0.4V366c0.6-1.6,1.5-3,2.6-4.2c1.1-1.2,2.4-1.8,3.8-1.8c1.1,0,2,0.3,2.7,1c0.7,0.7,1.1,1.6,1.1,2.6
		c0,0.4,0,0.8-0.1,1.1l-3.8,15.2c-0.3,1.1-0.8,2.1-1.6,3c-0.8,0.9-1.7,1.6-2.8,2.1c-1.1,0.5-2.2,0.8-3.3,0.8c-0.9,0-1.7-0.2-2.4-0.6
		C121.6,384.7,121.2,384.1,121.2,383.3z M133.9,353.4c0-0.6,0.2-1.1,0.7-1.5s1-0.7,1.6-0.7c0.5,0,0.8,0.1,1.1,0.4s0.4,0.6,0.4,1.1
		c0,0.6-0.2,1.1-0.7,1.6c-0.5,0.4-1,0.7-1.6,0.7c-0.4,0-0.8-0.1-1.1-0.4S133.9,353.8,133.9,353.4z"/>
</g>
<g>
	<path class="st1" d="M114.4,215.2v-20.6h2.6v3.4c1.1-1.1,2.2-2,3.3-2.6c1-0.6,2.2-0.9,3.6-0.9c1.4,0,2.6,0.5,3.5,1.4
		c1,0.9,1.4,2.3,1.4,4.1v15.4h-2.6v-15.4c0-1-0.3-1.8-1-2.4c-0.7-0.6-1.4-0.9-2.3-0.9c-1.9,0-3.9,1.1-6,3.4v15.3H114.4z"/>
	<path class="st1" d="M132.5,204.8c0-3.1,0.7-5.7,2.1-7.5c1.4-1.9,3.4-2.8,5.9-2.8s4.5,1,5.9,2.9c1.4,1.9,2.1,4.4,2.1,7.6
		c0,3.2-0.7,5.7-2.1,7.7c-1.4,1.9-3.4,2.9-5.9,2.9c-2.6,0-4.6-1-6-3C133.1,210.5,132.5,207.9,132.5,204.8z M135,204.9
		c0,4.1,1.1,6.7,3.2,7.9c0.7,0.3,1.4,0.5,2.2,0.5c0.8,0,1.6-0.2,2.3-0.5c0.7-0.3,1.2-0.8,1.6-1.3c0.4-0.5,0.7-1.2,1-1.9
		c0.4-1.3,0.6-2.8,0.6-4.6c0-5.6-1.8-8.3-5.4-8.3S135,199.3,135,204.9z"/>
	<path class="st1" d="M164.5,212c-1.3,2.3-3.2,3.5-5.5,3.5c-1.2,0-2.3-0.3-3.2-0.9c-1-0.6-1.8-1.4-2.4-2.4c-1.2-2-1.9-4.4-1.9-6.9
		c0-1.9,0.3-3.7,0.9-5.3c0.6-1.6,1.5-3,2.7-4c1.2-1,2.5-1.5,3.8-1.5c1.4,0,2.6,0.4,3.6,1.1c1,0.7,1.7,1.3,1.9,1.9v-11.7h2.6v26.7
		c0,0.4,0.1,0.9,0.2,1.5c0.1,0.6,0.2,1.1,0.3,1.3H165C164.6,215,164.5,214,164.5,212z M154,205.2c0,2.3,0.4,4.2,1.2,5.7
		c0.9,1.5,2.2,2.3,4.1,2.3c1.2,0,2.3-0.4,3-1.1c0.6-0.6,1.3-1.4,2.1-2.4v-10.3c-1.4-2-2.9-2.9-4.6-2.9
		C156,196.6,154,199.5,154,205.2z"/>
	<path class="st1" d="M172.6,212.3c-0.6-1-1.1-2-1.5-3.2s-0.5-2.4-0.5-3.7s0.1-2.5,0.3-3.5c0.2-1.1,0.4-2,0.7-2.7
		c0.3-0.7,0.7-1.4,1.1-2c0.4-0.6,0.9-1,1.3-1.4c0.5-0.4,1-0.6,1.5-0.9c0.9-0.4,1.8-0.6,2.6-0.6c0.8,0,1.5,0.1,2.1,0.2
		c0.6,0.1,1.2,0.5,1.9,0.9c0.7,0.5,1.2,1.1,1.7,1.8c1.1,1.8,1.7,4.4,1.7,7.8h-12.4c0,3.5,0.9,5.8,2.6,7.1c0.9,0.6,1.8,0.9,2.9,0.9
		c2,0,3.7-1.2,5.1-3.7l1.8,1.2c-0.5,0.9-1.2,1.8-2,2.5c-1.6,1.4-3.1,2.1-4.6,2.1s-2.8-0.3-3.9-0.8
		C174.1,214,173.2,213.3,172.6,212.3z M173.4,203h9.7c0-1.9-0.4-3.5-1.3-4.8c-0.8-1.1-1.8-1.6-3.2-1.6c-2.3,0-3.8,1.1-4.6,3.2
		C173.5,200.7,173.4,201.8,173.4,203z"/>
</g>
<g>
	<g>
		<g>
			<path class="st1" d="M314.3,239.5c46.8-4.4,93.6-8.7,140.4-13.1c6.6-0.6,13.1-1.2,19.7-1.8c4.7-0.4,6.1-10,0.3-9.4
				c-46.8,4.4-93.6,8.7-140.4,13.1c-6.6,0.6-13.1,1.2-19.7,1.8C310,230.5,308.5,240,314.3,239.5L314.3,239.5z"/>
		</g>
	</g>
	<g>
		<g>
			<path class="st1" d="M363.4,899.4c17.9,1.1,35.8,2.3,53.7,3.4c43,2.7,86,5.5,129,8.2c51.8,3.3,103.7,6.6,155.5,9.9
				c44.8,2.8,89.7,5.7,134.5,8.5c21.8,1.4,43.8,3.8,65.6,4.2c0.3,0,0.6,0,0.9,0.1c4.7,0.3,8.3-8.7,2.6-9.1
				c-17.9-1.1-35.8-2.3-53.7-3.4c-43-2.7-86-5.5-129-8.2c-51.8-3.3-103.7-6.6-155.5-9.9c-44.8-2.8-89.7-5.7-134.5-8.5
				c-21.8-1.4-43.8-3.8-65.6-4.2c-0.3,0-0.6,0-0.9-0.1C361.3,890.1,357.6,899.1,363.4,899.4L363.4,899.4z"/>
		</g>
	</g>
	<g>
		<g>
			<path class="st1" d="M1015,553.8c-7.2-0.4-14.5-0.7-21.7-1.1c-19.6-1-39.2-2-58.8-3c-29.1-1.5-58.2-3-87.3-4.5
				c-35.4-1.8-70.7-3.6-106.1-5.5c-38.9-2-77.8-4-116.7-6c-39.3-2-78.5-4.1-117.8-6.1c-36.5-1.9-72.9-3.8-109.4-5.6
				c-30.9-1.6-61.9-3.2-92.8-4.8c-22.2-1.1-44.3-2.3-66.5-3.4c-10.5-0.5-21.1-1.3-31.7-1.6c-0.5,0-0.9,0-1.4-0.1
				c-6.5-0.3-4.9,7.4,0.8,7.7c7.2,0.4,14.5,0.7,21.7,1.1c19.6,1,39.2,2,58.8,3c29.1,1.5,58.2,3,87.3,4.5
				c35.4,1.8,70.7,3.6,106.1,5.5c38.9,2,77.8,4,116.7,6c39.3,2,78.5,4.1,117.8,6.1c36.5,1.9,72.9,3.8,109.4,5.6
				c30.9,1.6,61.9,3.2,92.8,4.8c22.2,1.1,44.3,2.3,66.5,3.4c10.5,0.5,21.1,1.3,31.7,1.6c0.5,0,0.9,0,1.4,0.1
				C1022.3,561.8,1020.6,554.1,1015,553.8L1015,553.8z"/>
		</g>
	</g>
	<g>
		<g>
			<path class="st1" d="M553.1,564.8c16.7-10.7,33.5-21.4,50.2-32.1c26.6-17,53.1-34,79.7-51c6.2-3.9,12.3-7.9,18.5-11.8
				c2.1-1.3,3.6-3.9,3-6.4c-0.5-2.1-2.7-3.6-4.8-2.3c-16.7,10.7-33.5,21.4-50.2,32.1c-26.6,17-53.1,34-79.7,51
				c-6.2,3.9-12.3,7.9-18.5,11.8c-2.1,1.3-3.6,3.9-3,6.4C548.8,564.6,551,566.1,553.1,564.8L553.1,564.8z"/>
		</g>
	</g>
	<g>
		<g>
			<path class="st1" d="M1018.9,573.7c-41,17.7-82,35.3-122.9,53c-5.7,2.5-11.4,4.9-17.1,7.4c-2,0.9-4.6,2.7-4.1,5.3
				c0.4,2.3,3.3,3.2,5.3,2.3c41-17.7,82-35.3,122.9-53c5.7-2.5,11.4-4.9,17.1-7.4c2-0.9,4.6-2.7,4.1-5.3
				C1023.7,573.7,1020.8,572.8,1018.9,573.7L1018.9,573.7z"/>
		</g>
	</g>
	<g>
		<g>
			<path class="st1" d="M965.7,283.7c-3.9,10.8-7.9,21.6-11.8,32.4c-9.4,25.7-18.8,51.5-28.2,77.2c-11.4,31.3-22.9,62.6-34.3,93.9
				c-9.8,26.9-19.7,53.9-29.5,80.8c-4.8,13.1-10.5,26.2-14.5,39.5c-0.1,0.2-0.1,0.4-0.2,0.6c-1.7,4.5,4.9,11.2,7,5.3
				c3.9-10.8,7.9-21.6,11.8-32.4c9.4-25.7,18.8-51.5,28.2-77.2c11.4-31.3,22.9-62.6,34.3-93.9c9.8-26.9,19.7-53.9,29.5-80.8
				c4.8-13.1,10.5-26.2,14.5-39.5c0.1-0.2,0.1-0.4,0.2-0.6C974.4,284.5,967.9,277.8,965.7,283.7L965.7,283.7z"/>
		</g>
	</g>
	<g>
		<g>
			<path class="st1" d="M573.1,219.7c12,0.8,23.9,1.6,35.9,2.4c28.9,1.9,57.8,3.9,86.6,5.8c34.8,2.3,69.6,4.7,104.4,7
				c30.1,2,60.2,4,90.3,6c14.6,1,29.5,3,44.1,2.9c0.2,0,0.4,0,0.6,0c4.7,0.3,8.8-8.5,3-8.9c-12-0.8-23.9-1.6-35.9-2.4
				c-28.9-1.9-57.8-3.9-86.6-5.8c-34.8-2.3-69.6-4.7-104.4-7c-30.1-2-60.2-4-90.3-6c-14.6-1-29.5-3-44.1-2.9c-0.2,0-0.4,0-0.6,0
				C571.4,210.4,567.3,219.3,573.1,219.7L573.1,219.7z"/>
		</g>
	</g>
	<g>
		<g>
			<path class="st1" d="M710,399c-16.7-17.1-33.4-34.2-50.1-51.3c-26.6-27.3-53.2-54.5-79.9-81.8c-6.1-6.2-12.2-12.5-18.3-18.7
				c-4.3-4.5-7.8,4.2-4.5,7.6c16.7,17.1,33.4,34.2,50.1,51.3c26.6,27.3,53.2,54.5,79.9,81.8c6.1,6.2,12.2,12.5,18.3,18.7
				C709.9,411.1,713.4,402.5,710,399L710,399z"/>
		</g>
	</g>
	<g>
		<g>
			<path class="st1" d="M943.9,268.8c-18.7,15.3-37.5,30.6-56.2,45.9c-29.9,24.4-59.7,48.8-89.6,73.2c-6.9,5.6-13.7,11.2-20.6,16.8
				c-1.9,1.5-1.2,4.1,0.6,5.3c2.2,1.4,5.1,0.7,7-0.9c18.7-15.3,37.5-30.6,56.2-45.9c29.9-24.4,59.7-48.8,89.6-73.2
				c6.9-5.6,13.7-11.2,20.6-16.8c1.9-1.5,1.2-4.1-0.6-5.3C948.7,266.6,945.8,267.3,943.9,268.8L943.9,268.8z"/>
		</g>
	</g>
	<g>
		<g>
			<path class="st1" d="M958.8,882.5c1-19.7,2.1-39.3,3.1-59c2.5-47.2,5-94.5,7.5-141.7c3-57.1,6-114.3,9.1-171.4
				c2.6-49.4,5.2-98.7,7.8-148.1c1.3-23.9,3.2-47.9,3.8-71.8c0-0.3,0-0.6,0.1-1c0.3-6.2-7.2-6.6-7.5-0.3c-1,19.7-2.1,39.3-3.1,59
				c-2.5,47.2-5,94.5-7.5,141.7c-3,57.1-6,114.3-9.1,171.4c-2.6,49.4-5.2,98.7-7.8,148.1c-1.3,23.9-3.2,47.9-3.8,71.8
				c0,0.3,0,0.6-0.1,1C951,888.4,958.5,888.7,958.8,882.5L958.8,882.5z"/>
		</g>
	</g>
	<g>
		<g>
			<path class="st1" d="M788.3,460.7c25.8,9.5,51.7,19.1,77.5,28.6c41,15.1,82,30.3,123,45.4c9.4,3.5,18.9,7,28.3,10.5
				c5,1.9,7.1-7.8,2.6-9.5c-25.8-9.5-51.7-19.1-77.5-28.6c-41-15.1-82-30.3-123-45.4c-9.4-3.5-18.9-7-28.3-10.5
				C785.9,449.3,783.8,459,788.3,460.7L788.3,460.7z"/>
		</g>
	</g>
	<g>
		<g>
			<path class="st1" d="M785.7,642.3c-25.4-5.5-50.9-11.1-76.3-16.6c-40.5-8.8-81-17.6-121.6-26.4c-9.2-2-18.5-4-27.7-6
				c-5.2-1.1-6.8,8.6-2.2,9.6c25.4,5.5,50.9,11.1,76.3,16.6c40.5,8.8,81,17.6,121.6,26.4c9.2,2,18.5,4,27.7,6
				C788.7,653,790.3,643.3,785.7,642.3L785.7,642.3z"/>
		</g>
	</g>
	<g>
		<g>
			<path class="st1" d="M204,530.5c28.8,5.8,57.6,11.6,86.5,17.4c45.9,9.3,91.8,18.5,137.7,27.8c10.5,2.1,21,4.2,31.5,6.4
				c5.7,1.1,5.4-8.5,0.8-9.4c-28.8-5.8-57.6-11.6-86.5-17.4c-45.9-9.3-91.8-18.5-137.7-27.8c-10.5-2.1-21-4.2-31.5-6.4
				C199.1,519.9,199.4,529.5,204,530.5L204,530.5z"/>
		</g>
	</g>
	<g>
		<g>
			<path class="st1" d="M241.5,284.5c-8.2,20.7-16.3,41.3-24.5,62c-13,32.9-26,65.9-39.1,98.8c-3,7.6-6,15.1-9,22.7
				c-1.8,4.6,7.8,7.4,9.6,2.8c8.2-20.7,16.3-41.3,24.5-62c13-32.9,26-65.9,39.1-98.8c3-7.6,6-15.1,9-22.7
				C252.9,282.7,243.4,279.8,241.5,284.5L241.5,284.5z"/>
		</g>
	</g>
	<g>
		<g>
			<path class="st1" d="M263.6,289.4c1.4,18.4,2.8,36.7,4.2,55.1c3.4,44.1,6.8,88.2,10.1,132.2c4.1,53.1,8.1,106.2,12.2,159.3
				c3.5,45.9,7,91.8,10.6,137.7c1.2,15.1,2.3,30.2,3.5,45.4c0.5,7.1,0.4,14.6,1.7,21.5c0.1,0.3,0,0.6,0.1,0.9
				c0.4,4.7,10.3,5.1,9.8-0.3c-1.4-18.4-2.8-36.7-4.2-55.1c-3.4-44.1-6.8-88.2-10.1-132.2c-4.1-53.1-8.1-106.2-12.2-159.3
				c-3.5-45.9-7-91.8-10.6-137.7c-1.2-15.1-2.3-30.2-3.5-45.4c-0.5-7.1-0.4-14.6-1.7-21.5c-0.1-0.3,0-0.6-0.1-0.9
				C273.1,284.4,263.2,284,263.6,289.4L263.6,289.4z"/>
		</g>
	</g>
	<g>
		<g>
			<path class="st1" d="M193.6,545.9c12,7.9,23.9,15.7,35.9,23.6c28.7,18.9,57.5,37.8,86.2,56.7c34.8,22.8,69.5,45.7,104.3,68.5
				c30,19.7,60.1,39.5,90.1,59.2c14.6,9.6,28.9,19.7,43.8,28.8c0.2,0.1,0.4,0.3,0.6,0.4c2,1.3,5,1.7,7.1,0.2c1.7-1.3,2.2-4,0.1-5.3
				c-12-7.9-23.9-15.7-35.9-23.6c-28.7-18.9-57.5-37.8-86.2-56.7c-34.8-22.8-69.5-45.7-104.3-68.5c-30-19.7-60.1-39.5-90.1-59.2
				c-14.6-9.6-28.9-19.7-43.8-28.8c-0.2-0.1-0.4-0.3-0.6-0.4c-2-1.3-5-1.7-7.1-0.2C192,541.9,191.5,544.6,193.6,545.9L193.6,545.9z"
				/>
		</g>
	</g>
	<g>
		<g>
			<path class="st1" d="M364.4,880.8c21.3-6.2,42.6-12.5,63.9-18.7c34-9.9,67.9-19.9,101.9-29.8c7.8-2.3,15.6-4.6,23.4-6.8
				c6.3-1.8,2-8.5-3.4-6.9c-21.3,6.2-42.6,12.5-63.9,18.7c-34,9.9-67.9,19.9-101.9,29.8c-7.8,2.3-15.6,4.6-23.4,6.8
				C354.7,875.8,359,882.4,364.4,880.8L364.4,880.8z"/>
		</g>
	</g>
	<g>
		<g>
			<path class="st1" d="M910.8,912.1c-29.4-10.3-58.8-20.6-88.2-30.9c-46.8-16.4-93.7-32.8-140.5-49.2c-10.7-3.7-21.4-7.5-32.1-11.2
				c-4.4-1.5-11.2,5.6-5.8,7.4c29.4,10.3,58.8,20.6,88.2,30.9c46.8,16.4,93.7,32.8,140.5,49.2c10.7,3.7,21.4,7.5,32.1,11.2
				C909.4,921.1,916.1,914,910.8,912.1L910.8,912.1z"/>
		</g>
	</g>
	<g>
		<g>
			<path class="st1" d="M788.5,681.9c-16.8,10.8-33.6,21.6-50.4,32.4c-26.8,17.3-53.6,34.5-80.5,51.8c-6.2,4-12.5,8-18.7,12
				c-5.5,3.5,1.6,8.5,6,5.7c16.8-10.8,33.6-21.6,50.4-32.4c26.8-17.3,53.6-34.5,80.5-51.8c6.2-4,12.5-8,18.7-12
				C799.9,684,792.8,679.1,788.5,681.9L788.5,681.9z"/>
		</g>
	</g>
	<g>
		<g>
			<path class="st1" d="M525.6,635.7c15.2,37.3,30.4,74.6,45.6,111.9c2.2,5.3,4.3,10.7,6.5,16c2.5,6.1,8.8,1.4,6.7-3.9
				c-15.2-37.3-30.4-74.6-45.6-111.9c-2.2-5.3-4.3-10.7-6.5-16C529.8,625.7,523.5,630.4,525.6,635.7L525.6,635.7z"/>
		</g>
	</g>
	<g>
		<g>
			<path class="st1" d="M758.1,487.2c15.4,37.1,30.7,74.1,46.1,111.2c2.1,5.2,4.3,10.3,6.4,15.5c2.4,5.8,9.3-0.2,7.5-4.7
				C802.7,572,787.3,535,772,497.9c-2.1-5.2-4.3-10.3-6.4-15.5C763.2,476.7,756.3,482.7,758.1,487.2L758.1,487.2z"/>
		</g>
	</g>
	<g>
		<g>
			<g>
				<path class="st2" d="M112,94.9l11.7-5.4c0.2,0.4-11.8,17.7-11.8,17.7c1.2,2.5,38.1-19.1,38.6-18l-44.6,29.8l59.3-27.6
					c2,4.4-58.9,28.2-56.2,34l74-34.5c3.7,8-75.1,41.3-72.8,46.2c0,0,98.1-47.5,98.8-46.1c0.8,1.7-90.5,57.9-90.5,57.9
					c1.4,3,123.7-63.7,126-58.8c4.1,8.7-111.2,59-111.2,59c2.3,5,125.3-58.4,125.3-58.4c3.2,6.9-106.2,60.8-106.2,60.8
					c4.8,10.2,128.5-59.9,128.5-59.9c3.2,6.9-114.2,51.9-111.3,58.1l124-57.8l-96.8,58.8c0.1,0.2,132.8-61.9,132.8-61.9
					c5.5,11.7-110.7,61.3-110.7,61.3c4.1,8.8,127.2-67,130.1-60.7c2.9,6.2-109.2,59.6-108.6,61c0,0,130.2-61.2,130.4-60.8
					c4.5,9.7-108.1,50-103,61c0,0,120.7-69.7,125.8-58.7l-94.2,57.9c0,0,92.2-52.4,95.8-44.7c0,0-69.8,44-69.8,44
					c2.3,4.9,68.6-38.9,71.2-33.2c2.5,5.4-58.5,27.7-56.3,32.4c2.4,5.1,55.4-31.8,57.7-26.9c0,0-28.7,28.2-28.3,29l26.7-12.4
					l-13.9,12.6c0.1,0.1,11.4-5.3,11.4-5.3"/>
			</g>
			<g>
				<path class="st1" d="M395.4,143.7c-2.3,0.2-4.6,0.5-6.9,0.5c1.8,0-2.1-0.3-2.7-0.3c-1.2-0.1-2.4-0.3-3.6-0.4
					c-5-0.3-10,0.3-14.9,0.5c-1.6,0.1,1.4,0.1-0.2,0.1c-0.5,0-1-0.1-1.5-0.1c-1.5-0.1-3-0.3-4.4-0.4c-2.6-0.2-5.1,0.2-7.6,0.3
					c-4.5,0.2-9.1-0.2-13.6-0.1c-5.9,0.1-8.6,0.6-13.4,0c-4.5-0.6-9.1,0.1-13.6,0.3c-4.5,0.2-9-0.1-13.5-0.3
					c-4.6-0.2-9,0.3-13.6,0.3c-10.6,0-16.9-0.5-27.8-0.3c-9.6,0.2-19.1,0.3-28.6,0.2c-4.7,0-9.3,0.2-14,0.2c-1.2,0,0.1,0.1,0.3,0.1
					c-0.7,0-1.3-0.1-2-0.1c-1.5-0.1-3-0.2-4.4-0.3c-2.6-0.1-5.1,0.1-7.6,0.3c-9.1,0.5-18.1-0.8-27.2-0.1c-11.9,1-19.5-0.2-31.1,0.2
					c-10,0.3-20-0.7-30.1-0.2c1.2,1,2.4,2,3.5,3c0.6-9.5-0.2-18.9,0.1-28.3c0.3-9.5,0.5-18.9,0-28.4c-2.2,1.9-4.4,3.7-6.6,5.6
					c4.9,0.3,9.4,0.6,14.3-0.1c2.1-0.3-0.5-0.2,1.6-0.1c1.6,0.1,3.3,0.3,4.9,0.4c2.4,0.2,4.7,0.2,7.1,0.2c9,0,18-0.1,27-0.2
					c2.3,0,4.5-0.1,6.8-0.1c1.4,0,2.8,0,4.2,0c1,0-1.6-0.1-0.1,0c0.8,0,1.7,0.1,2.5,0.2c4.7,0.4,9.1-0.5,13.8-0.5
					c1.5,0,3.1,0.2,4.6,0.3c2,0.1-0.5-0.1,2,0.1c2.4,0.2,4.8,0.5,7.2,0.4c4.7-0.2,9.2-0.5,14-0.6c18.8-0.1,37.6,0.2,56.4,0.5
					c4.5,0.1,9.1,0.1,13.6,0.1c4.5,0.1,9-0.8,13.5-0.8c9,0,18,0.5,27,0.3c10.7-0.3,21.6,1.4,32.3-0.1c2.4-0.3,0.1-0.2,2-0.1
					c1.8,0.1,3.5,0.3,5.3,0.4c2.8,0.1,5.5-0.3,8.3-0.5c1.5-0.1-1-0.1-0.1-0.1c0.9,0,1.8,0.1,2.7,0.2c1.4,0.1,2.7,0.2,4.1,0.3
					c2.8,0.1,5.6,0,8.3,0c-1.2-1-2.4-2-3.5-3c-0.3,4.8-0.2,9.3,0.1,14.1c0.1,1.2,0.1,2.4,0.2,3.5c0,0.4,0.2,4.5,0.3,2.6
					c0,2.7-0.8,5.3-0.8,8c0,4.8,0.6,9.3,0.4,14.1c-0.2,4.7-0.3,9.3-0.1,14c0.2,5.7,9.2,2,9-2.7c-0.1-4.7-0.1-9.3,0.1-14
					c0.1-2.3,0.3-4.7,0.3-7.1c0-1.2-0.2-2.4-0.3-3.5c0-0.4-0.4-4.5-0.4-2.6c0-5.1,0.8-9.9,0.5-15c-0.3-4.8-0.4-9.3-0.1-14.1
					c0.1-2-1.9-3-3.5-3c-2.4,0-4.7,0.1-7.1,0.1c1.8,0-1.6-0.1-2.2-0.2c-1.4-0.1-2.7-0.3-4.1-0.3c-2.6-0.1-5.1,0.3-7.7,0.5
					c-1.6,0.1,1.4,0.1-0.2,0.1c-0.5,0-1-0.1-1.5-0.1c-1.6-0.1-3.3-0.3-4.9-0.4c-4.8-0.2-9.6,0.5-14.4,0.4c-4.6-0.1-9.1,0-13.6-0.3
					c-18-1.1-36.2,0.6-54.2,0.4c-9.2-0.1-18.5,0.4-27.7-0.1c-9.4-0.5-18.9-0.8-28.3-0.6c-4.6,0.1-9.2,0-13.8,0
					c-2.1,0-4.2,0.3-6.4,0.5c-0.7,0.1-1.3,0.2-2,0.2c0.2,0,1.5,0,0.3,0c-1.7,0-3.5-0.2-5.3-0.4c-4.7-0.3-9.1-0.6-13.8,0
					c-0.4,0.1-4.1,0.5-2.2,0.5c-1.3,0-2.7-0.2-3.9-0.3c-2.5-0.2-4.9-0.3-7.3-0.3c-10.6,0.1-21.2,0.1-31.8,0.3
					c-6.5,0.1-8.4-0.3-14.6-0.5c-2.8-0.1-5.5,0.5-8.3,0.7c1.9-0.2-2.1-0.1-2.7-0.2c-1.2-0.1-2.4-0.2-3.7-0.2
					c-3.1-0.2-6.8,2.1-6.6,5.6c0.6,9.5,0.3,18.9,0,28.4c-0.3,9.5,0.5,18.9-0.1,28.3c-0.1,1.9,1.9,3,3.5,3c9.3-0.5,18.5,0,27.8,0.2
					c2.1,0,4.3-0.1,6.4-0.2c0.7,0,1.3-0.1,2-0.1c-1.4,0.1-0.7,0-0.3,0c1.8,0,3.5,0.3,5.3,0.4c4.6,0.3,9.2,0,13.8,0
					c4.5,0,9-0.6,13.5-0.4c4.5,0.2,9,0.5,13.5,0.5c2.1,0,4.3-0.1,6.4-0.2c1.5-0.1,3.1-0.2,4.6-0.3c0.2,0,2.3-0.1,0.4-0.2
					c0.7,0,1.3,0.1,2,0.1c4.7,0.3,9.3,0.3,14,0.2c9.5-0.1,18.9,0.1,28.3-0.2c4.8-0.1,9.5-0.2,14.3-0.4c-1.9,0,1.7,0.1,2.2,0.1
					c1.3,0.1,2.6,0.2,3.9,0.3c2.6,0.1,5.2,0,7.9,0c9.2,0,18.2-0.2,27.4,0.2c4.5,0.2,9-0.1,13.5-0.5c0.6,0,4-0.2,2.2-0.3
					c1.3,0.1,2.6,0.4,3.9,0.5c2.6,0.3,4.8,0.4,7.3,0.2c5.2-0.4,10.3-0.5,15.5-0.3c2.8,0.1,5.4,0,8.2-0.2c0.5,0,1-0.1,1.5-0.1
					c1-0.1-1.2-0.1,0.9,0c1.6,0.1,3.3,0.3,4.9,0.4c5.2,0.4,10.6-0.4,15.9-0.5c1.5,0-1-0.1-0.1,0c0.9,0.1,1.8,0.2,2.7,0.3
					c1.4,0.2,2.7,0.4,4.1,0.5c2.7,0.2,5.5-0.3,8.2-0.5C398.2,152,401.6,143.2,395.4,143.7z"/>
			</g>
		</g>
		<g>
			<g>
				<g>
					<polyline class="st3" points="180.1,91.7 179.7,98.7 180.3,105.8 179.7,112.9 179.6,119.9 179.9,127 179.3,134.1 179.6,141.1 
						179.4,148.2 					"/>
				</g>
				<g>
					<polyline class="st3" points="253.4,91.7 253.6,98.7 253.7,105.8 253.4,112.9 253.5,119.9 253.1,127 253.8,134.1 253.5,141.1 
						253.4,148.2 					"/>
				</g>
				<g>
					<polyline class="st3" points="325.4,91.7 325.2,98.7 325.7,105.8 325.5,112.9 325.5,119.9 324.8,127 325.4,134.1 325.6,141.1 
						324.8,148.2 					"/>
				</g>
			</g>
		</g>
	</g>
</g>
<g id="strokes">
	<g>
		<g>
			<path class="st1" d="M309.7,238.8c-0.3,18.9-11.3,36.8-29.2,43.8c-17.9,7-38.5,1.4-50.5-13.6c-11.9-14.8-13.5-36-4.2-52.5
				c9.2-16.4,28.1-25.8,46.7-22.7C294.1,197.5,309.4,217.3,309.7,238.8c0.1,5,10,6,9.9,1.1c-0.3-22.6-14.1-42.6-35.3-50.7
				c-21.3-8.2-46.8-2.2-61.7,15.3c-14.7,17.2-17,42.4-5.4,61.9c11.6,19.4,35,29.9,57.3,26c25.5-4.5,44.8-26.3,45.1-52.4
				C319.7,234.9,309.8,233.9,309.7,238.8z"/>
		</g>
		<g class="st4">
			<path class="st5" d="M225.6,204.1c0.6,1.3,36.5-17,36.5-17c0.2,0.3-43.1,23.1-43.1,23.1c0.7,1.4,47.2-22,47.2-22
				c1.2,2.7-52.9,25.1-50.6,30c0,0,61.7-32.7,63.2-29.5l-62.6,30.7c0.6,1.4,65.8-33.5,66.8-31.2c0.7,1.6-75.1,46.5-75.1,46.5
				c2.8,6,87.6-40.8,87.6-40.8c2.9,6.2-87.6,42.5-87.6,42.5c2.2,4.7,89.6-44.8,90.8-42.3l-86.6,47c0,0,92.5-46.1,93.6-43.6
				c0.3,0.6-97,48.3-97,48.3s97.2-50.5,99.2-46.3c3.9,8.3-100.1,51-100.1,51s94.9-50.8,97.4-45.4c3.2,6.9-95.6,50.6-95.6,50.6
				c2.6,5.6,97-49.5,98.6-46c0.3,0.7-97.5,49.7-96.6,51.6l105.7-49.3c0,0-102.7,49.2-99.6,56l99.6-46.5c1.5,3.3-96.8,47.3-96.8,47.3
				c2.8,6,97.6-45.5,97.6-45.5l-96.1,48.8l100.3-46.8c2.1,4.5-98.3,44.6-96.6,48.2c0,0,92.7-46.9,94.1-43.9L226,276.9
				c2.2,4.8,94.1-46.5,95.1-44.3c1.8,3.8-94.2,45.2-94.2,45.2s92.4-46.3,93.6-43.7c0,0-86.9,42.4-83.1,50.6
				c1.8,3.9,82.9-38.6,82.9-38.6c0.4,0.8-71.8,45.2-71.7,45.5c1.2,2.5,61.7-28.8,61.7-28.8l-38,26.6c0.2,0.5,26.6-12.6,26.7-12.4"/>
		</g>
	</g>
	<g>
		<g>
			<path class="st1" d="M569.9,216.5c-0.3,18.9-12.2,36.5-30.3,42.4c-18.3,6-38.7-0.8-50.4-15.9c-11.6-15-13.1-36.5-3.2-52.8
				c9.8-16.2,29.2-24.1,47.6-20C555.1,175.1,569.6,194.9,569.9,216.5c0.1,5.2,9.6,2.1,9.5-2.6C579,191.4,564.4,171,543,164
				c-21.8-7.2-46.5,0.2-61,18c-14.2,17.5-16.3,43-4.1,62.2c12.2,19.3,35.3,28.4,57.4,23.8c25.5-5.3,43.7-28.3,44-54.1
				C579.4,208.7,569.9,211.8,569.9,216.5z"/>
		</g>
		<g class="st4">
			<path class="st5" d="M487.6,179c0,0,34.8-17.4,35.3-16.5l-37.1,18.9c0.6,1.4,41.1-22.2,42.2-19.7c2.2,4.8-56.5,37.5-56.5,37.5
				c2.5,5.4,73-34.1,73-34.1s-77.8,37.5-74.8,43.9c0,0,81.1-43.1,83.1-38.8c3.2,6.9-86.2,48.5-86.2,48.5s95.2-49.8,97.3-45.4
				l-92.5,48.2c0,0,91.4-51.4,94.8-44.2L469.5,225c0,0,98.3-46.6,98.6-46c0,0-98,45.9-95.2,52l99.9-46.6c0,0-104,51.7-101.5,57
				c0,0,100.4-54.7,103.4-48.2l-100.5,49l100.6-46.9c4.2,9.1-97.9,42.6-95,48.9c0,0,95.3-48.9,97-45.2c4.9,10.4-105,38.1-100.4,48
				c1.4,3,98.1-50.2,99.8-46.5c0,0-94.6,44.5-90.3,53.6c0,0,89.5-45.6,90.9-42.4l-78.6,48.6c0,0,76.4-43.7,79.4-37
				c0,0-75.8,36.6-73.3,42c2,4.3,67.7-31.6,67.7-31.6c2.5,5.4-65.3,34.3-65.3,34.3s64.6-34.8,66.4-31c0,0-45.6,29.9-45.4,30.3
				l31.6-14.7"/>
		</g>
	</g>
	<g>
		<g>
			<path class="st1" d="M1031.4,239.5c-0.3,19-11.7,36.6-29.7,43.4c-18,6.8-38.5,0.4-50.3-14.5c-11.8-14.9-13.3-36.4-3.6-52.8
				c9.6-16.2,28.3-25.2,46.9-21.6C1016.4,198.1,1031.1,218,1031.4,239.5c0.1,5,10.1,4.7,10-0.3c-0.3-22.4-14.6-42.8-35.9-50.3
				c-21.7-7.7-46.5-1.4-61.5,16.2c-14.7,17.2-16.6,42.6-4.8,61.9c11.9,19.5,35.2,29.2,57.6,25.2c25.6-4.6,44.3-27.1,44.7-52.9
				C1041.5,234.3,1031.5,234.5,1031.4,239.5z"/>
		</g>
		<g class="st4">
			<path class="st5" d="M950.1,202.8c0.1,0.1,32.3-17,33-15.4c0.3,0.7-45.2,26.7-44.3,28.6l60.9-28.4L938,222
				c0,0,68.8-33.7,69.5-32.4c1.8,4-76.7,37.3-75.2,40.6c2.9,6.1,82.5-38.5,82.5-38.5c2.7,5.7-81.1,41.5-81.1,41.5l86.5-40.3l-91,49
				l97.1-45.3c3.1,6.6-92.8,51.2-92.8,51.2l96.1-44.8l-94.1,45.6c2.3,4.9,96.8-45.1,96.8-45.1c2.9,6.1-102.7,49.5-102.7,49.5
				c1.8,3.8,102.9-48,102.9-48c2.8,5.9-95,53.6-95,53.6l100.2-46.7L935,264.3l103.2-48.1c5,10.8-103.9,46.6-99.2,56.6l102.7-47.9
				l-92.4,53.6l90.1-42c0,0-84.9,45.4-83.7,48l87.7-40.9l-80.4,42.6c1.4,3.1,75.9-43.3,78.9-36.8c1.3,2.8-71.1,37.5-68.3,43.5
				c0.3,0.7,57.9-27,57.9-27c0.7,1.4-42,24.2-42,24.2c1.3,2.8,37.2-17.4,37.2-17.4c0.2,0.4-36.1,18.3-36.1,18.3l34.6-16.1"/>
		</g>
	</g>
	<g>
		<g>
			<path class="st1" d="M787.8,438.4c-0.3,19.1-12,36.6-29.9,43.5c-17.9,6.9-38.5,1-50.3-14c-11.8-14.9-13.1-36.4-3.3-52.7
				c9.6-16.1,28.5-25.5,47.2-22C773,397.2,787.5,416.8,787.8,438.4c0.1,4.8,9.9,5.8,9.8,0.4c-0.3-22.6-14.9-42.8-36.1-50.5
				c-21.6-7.9-46.3-1.8-61.3,15.7c-14.8,17.3-16.4,42.9-4.5,62.1c11.9,19.3,35.2,29.5,57.5,25.5c25.7-4.6,44-26.9,44.4-52.7
				C797.7,434.1,787.9,433,787.8,438.4z"/>
		</g>
		<g class="st4">
			<path class="st5" d="M708.9,400.9l28-13c0,0-46.7,23.7-44.8,28c1.4,3.1,63.1-29.4,63.1-29.4c0.4,0.8-58.8,30.5-58.8,30.5
				l59.9-27.9c1.6,3.3-63.9,35.9-63.9,35.9c2.4,5.1,75.6-35.3,75.6-35.3l-77.2,42.6c0.2,0.5,79.6-41,81.1-37.8
				c0,0-82.6,44.8-81.5,47.1c2.5,5.3,88.8-41.4,88.8-41.4l-91.6,45.7c2.2,4.7,97.8-45.6,97.8-45.6s-97,42.7-95.3,46.4
				c0,0,91.8-45.7,93-43.3c0,0-94.1,49.9-92.6,53.1l98.9-46.1c2.2,4.7-94.4,49.4-93.2,52.1c0.7,1.5,91.5-53.5,95.7-44.6
				c0,0-98.4,42.1-95.9,47.6c1.8,3.8,97.9-45.7,97.9-45.7c0.3,0.6-104.4,44.1-101.9,49.5l100.6-46.9c0.4,0.9-94.1,50-94.1,50
				l94.5-44.1l-90.1,53.7c1.7,3.7,91.6-49.9,94.4-44c1.1,2.4-86.2,40.8-85.2,43c0,0,84.6-40.4,85-39.6l-76.4,47.5
				c1.7,3.7,76.6-35.7,76.6-35.7l-66.4,38.1l59.8-27.9c0,0-44.3,25.1-43.5,26.6c0.7,1.6,35.1-16.4,35.1-16.4"/>
		</g>
	</g>
	<g>
		<g>
			<path class="st1" d="M555.1,588c-0.3,18.9-12,36.7-30.1,43.1c-18.1,6.4-38.4-0.1-50.1-15.1c-11.7-15-13-36.5-3.3-52.8
				c9.6-16.1,28.7-25,47.2-21C540.4,546.7,554.8,566.4,555.1,588c0.1,4.9,10,3.8,9.9-1.2c-0.3-22.6-14.9-42.5-36.2-50.1
				c-21.6-7.7-46.9-0.7-61.5,17c-14.3,17.4-16.4,42.8-4.3,62c12.1,19.1,35.4,28.9,57.6,24.4c25.6-5.2,43.9-27.2,44.3-53.3
				C565.1,581.9,555.2,583,555.1,588z"/>
		</g>
		<g class="st4">
			<path class="st5" d="M473.7,550.9c0,0,28.6-15,29.2-13.6c0,0-45,30.2-44.3,31.7c1.9,4.1,66.3-34.6,67.7-31.6l-70.9,41.1
				c0,0,81.4-45.2,84.2-39.3c2.5,5.5-80.7,40.2-80.7,40.2s76.4-41.7,78.7-36.7c2.7,5.8-79.1,48.5-79.1,48.5
				c3,6.5,90.6-42.2,90.6-42.2s-99.9,38.5-95.4,48c0.9,1.9,94.7-54.3,98.6-46L459,605.7l99.2-46.3c1.6,3.4-95.4,51.2-95.4,51.2
				c0.5,1.1,92.9-48.6,94.9-44.3c3.6,7.7-93.1,45.8-90.9,50.4l94.3-43.9c3.1,6.7-97.2,36.5-92.7,46.2l94.9-44.3l-91.6,47.1
				c0,0,88.6-47.2,90.8-42.4l-87.3,49.5c0,0,88-42.8,88.6-41.3l-80.9,46.9c0,0,83.2-38.8,83.2-38.8c0,0-77.3,37.7-77,38.3l70.6-32.9
				c0.7,1.6-60,37.2-60,37.2s59.7-28.3,59.9-27.9c0,0-51.6,26.3-50.5,28.6c1.4,3.1,44.1-20.6,44.1-20.6c0.1,0.2-39.9,20.7-39.8,20.8
				l35.6-16.6"/>
		</g>
	</g>
	<g>
		<g>
			<path class="st1" d="M878.6,657.1c-0.3,19-11.7,36.7-29.7,43.6c-17.9,6.9-38.5,1.6-50.5-13.5c-11.8-14.9-13.3-36.3-3.6-52.7
				c9.6-16.2,28.4-25.5,47.1-22.3C863.5,615.9,878.3,635.6,878.6,657.1c0.1,4.8,9.8,6.5,9.8,1.2c-0.3-22.7-14.7-42.7-35.8-50.8
				c-21.4-8.2-46.5-2.1-61.4,15.3c-14.8,17.3-16.5,42.6-4.9,62c11.6,19.4,35.2,30,57.4,26.1c25.6-4.6,44.3-26.5,44.6-52.5
				C888.4,653.5,878.7,651.7,878.6,657.1z"/>
		</g>
		<g class="st4">
			<path class="st5" d="M793.7,622.7c0.6,1.3,38.1-17.8,38.1-17.8l-46.7,33.5c1.7,3.7,67.6-31.5,67.6-31.5
				c2.9,6.2-74.9,35.2-73.3,38.8l81.7-38.1l-84.3,47.3c0,0,90.3-43.7,90.9-42.4c3.5,7.4-89.2,49.5-89.2,49.5l94.7-44.1
				c2.1,4.5-99.7,44.1-95.8,52.6c1.6,3.5,96.7-54.3,100.3-46.8c1.4,3-94.6,52.5-94.6,52.5c3,6.5,100.9-47,100.9-47l-102.9,55.7
				c0.3,0.7,97.2-56.1,101.3-47.3c0,0-99.5,49.4-98.7,51c4,8.6,100.9-47.1,100.9-47.1c3.9,8.3-96.3,45.8-92.6,53.9
				c0.2,0.4,97.8-45.6,97.8-45.6l-89.6,53.5c0.9,1.9,85-39.6,85-39.6c1.6,3.5-71.7,42.3-71.7,42.3s68.6-38.5,71.1-33.1
				c0.1,0.2-71.9,29.5-68.5,36.8l70.1-32.7c1.4,2.9-69.2,29.3-67.1,33.8l62.8-29.3l-44.2,27.9c0.8,1.8,32.8-15.3,32.8-15.3"/>
		</g>
	</g>
	<g>
		<g>
			<path class="st1" d="M1110.6,558.8c-0.3,18.8-12,36.5-30.1,42.6c-18.3,6.1-38.6-0.7-50.4-15.7c-11.8-15-13.1-36.4-3.3-52.7
				c9.7-16.2,29.1-24.3,47.5-20.2C1095.7,517.5,1110.3,537.2,1110.6,558.8c0.1,5.2,9.6,2.5,9.6-2.3c-0.3-22.5-14.8-42.7-36.1-49.9
				c-21.7-7.4-46.7,0-61.1,17.8c-14.2,17.5-16.5,43-4.3,62.2c12.2,19.2,35.2,28.5,57.4,23.9c25.5-5.3,43.8-28.1,44.2-53.9
				C1120.2,551.3,1110.7,554,1110.6,558.8z"/>
		</g>
		<g class="st4">
			<path class="st5" d="M1029.5,520.9c0,0,30.1-15.2,30.6-14.2l-44.9,28.3c0.8,1.6,61.6-28.7,61.6-28.7c0.4,1-60.1,25.4-58,29.8
				c1.4,2.9,60.9-28.4,60.9-28.4c0.8,1.8-71.8,37.8-69.2,43.3c1.9,4.1,80.5-44.7,83.3-38.8c0,0-82.6,42.1-82.1,43.1l90.3-42.1
				c4.3,9.2-93.1,50.3-93.1,50.3c0.6,1.2,94.3-45.2,94.8-44.2c1.5,3.2-93.4,51.7-93.4,51.7c2.3,4.9,102.7-47.9,102.7-47.9
				c4.1,8.9-99.9,44.5-97.7,49.3c0.8,1.8,96.4-54.5,100-46.6c0.9,1.9-99.6,48.1-99.6,48.1s97.5-48.1,98.5-45.9l-95.2,52.3
				c0,0,96.8-49.5,98.5-45.9c0,0-104.2,46.6-102,51.4c1.5,3.2,99-46.1,99-46.1s-96.7,49.1-96.1,50.5l103.9-48.5l-99.4,47.5
				c3.3,7.1,93.5-43.6,93.5-43.6c0.2,0.4-91.1,54-91.1,54l98.4-45.9c4.4,9.5-92.2,49.6-92.2,49.6c0.3,0.6,90.6-42.3,90.6-42.3
				l-86.9,44.4c0,0,83.6-45.2,86-40.1l-73.9,41.1c2.4,5.1,70.4-32.8,70.4-32.8c1.5,3.1-52.2,30.8-50.1,35.3
				c1.1,2.3,34.3-16.8,34.6-16.1c0.5,1.1-33.9,17.2-33.9,17.2l33.4-15.6"/>
		</g>
	</g>
	<g>
		<g>
			<path class="st1" d="M645,807.4c-0.3,19-11.7,36.7-29.7,43.6c-17.9,6.9-38.5,1.6-50.5-13.5c-11.8-14.9-13.3-36.3-3.6-52.7
				c9.6-16.2,28.4-25.5,47.1-22.3C629.9,766.2,644.7,786,645,807.4c0.1,4.8,9.9,6.5,9.8,1.2c-0.3-22.7-14.7-42.7-35.8-50.8
				c-21.4-8.2-46.5-2.1-61.4,15.3c-14.8,17.3-16.5,42.6-4.9,62c11.6,19.4,35.2,30,57.4,26.1c25.6-4.6,44.3-26.5,44.6-52.5
				C654.8,803.8,645,802.1,645,807.4z"/>
		</g>
		<g class="st4">
			<path class="st5" d="M566.8,770c0.9,1.9,30.8-15.1,31.1-14.5l-44.5,26.1c0.4,0.9,57.7-26.9,57.7-26.9l-60.9,35.9
				c0.6,1.3,67.8-31.6,67.8-31.6c1,2.2-69,28.8-66.8,33.5c0,0,74.9-35.8,75.3-35.1c3.5,7.4-82.9,47.4-82.5,48.2l86.1-40.2
				c0.6,1.3-84.5,34.9-81.9,40.5c0.7,1.5,85.8-40,85.8-40l-88.1,43.8l88.1-41.1c0.7,1.5-92.7,48.1-90,53.8c2.9,6.2,96.9-56,101-47.1
				c4.6,9.9-99.8,40.3-96.2,47.9c0,0,96.4-56.3,100.7-47c2.1,4.6-96,55.7-96,55.7c4,8.6,94.3-50,96.6-45.1
				c2,4.2-97.2,56.7-97.2,56.7s101.2-53.1,103.5-48.3c1.4,3-100.8,43.4-98.9,47.5c3.7,7.9,95.6-44.6,95.6-44.6s-95.7,46.3-94.4,49
				l95.5-44.5c3.9,8.3-87.3,42.4-84.5,48.5c2.1,4.4,78.4-44.6,81.5-38c0,0-77.9,40.3-77.1,42.1c0.5,1,80.2-37.4,80.2-37.4
				c0.6,1.2-70.8,43-70.8,43c1.6,3.5,66.6-31.1,66.6-31.1s-48.7,28.5-48.5,29c0,0,37.4-18.5,37.8-17.6c0.9,1.9-32.7,16.1-32.4,16.8
				l32-14.9"/>
		</g>
	</g>
	<g>
		<g>
			<path class="st1" d="M1000.2,931.4c-0.3,19.2-11.4,37-29.5,44.1c-17.7,6.9-37.9,1.3-50-13.2c-12.5-15-13.9-37.1-3.9-53.8
				c9.7-16.2,28.7-25.2,47.3-21.6c21.7,4.2,35.9,24.1,36.2,45.5c0.1,4.7,9.9,5.2,9.8-0.2c-0.3-22.5-15.1-42.8-36.3-50.4
				c-21.4-7.6-46.2-1.7-61,15.8c-14.6,17.2-16.7,42.6-4.9,61.9c12,19.4,34.9,29.5,57.3,25.7c25.3-4.2,44.4-26.5,44.8-52.1
				C1010.1,928.2,1000.2,926.6,1000.2,931.4z"/>
		</g>
		<g class="st4">
			<path class="st5" d="M917.2,896.8l34.8-16.2c1.3,2.8-51.3,38.2-51.3,38.2l74.8-34.9c0,0-74,42.4-72.7,45.3l84.7-39.5
				c2.4,5.2-93.7,42.8-89.4,52.1c2.2,4.8,99.8-46.5,99.8-46.5c2.3,4.9-91.6,55.9-91.6,55.9l97-45.2c0,0-92.3,58.8-92.1,59.1
				c0,0,100.8-49.3,101.7-47.4l-101.9,54.7c1.8,3.8,93.7-53.6,97.5-45.5c2,4.3-84.4,51.2-84.4,51.2l82.7-38.6
				c2.6,5.5-71.8,40.5-71.8,40.5c3.1,6.6,74.1-34.6,74.1-34.6l-54.6,38.2c0,0,45-23.1,45.8-21.4"/>
		</g>
	</g>
	<g>
		<g>
			<path class="st1" d="M359.8,891.6c-0.3,18.9-11.2,36.6-29.3,43.3c-18,6.7-38.8,0.3-50.6-14.7c-11.8-14.9-13.6-36-4.1-52.5
				c9.3-16.4,28.3-25.2,46.9-21.6C344.2,850.3,359.5,870,359.8,891.6c0.1,5.4,9.9,4.3,9.8-0.4c-0.3-22.4-14.1-42.8-35.5-50.4
				c-21.7-7.7-46.6-1.1-61.5,16.4c-14.7,17.2-16.9,42.5-5.3,62c11.7,19.6,35,29.1,57.2,25.1c25.5-4.6,44.7-27.2,45.1-53.1
				C369.7,885.8,359.9,886.9,359.8,891.6z"/>
		</g>
		<g class="st4">
			<path class="st5" d="M279.2,854.5l29.5-13.8c0.1,0.2-36,18-35.6,18.9l41.4-19.3l-46.9,23.6c0,0,50.9-28.4,52.7-24.6
				c2.8,6.1-61.5,33.2-59.2,38.2c1.1,2.3,74.6-34.8,74.6-34.8c1.3,2.7-76.3,40.7-76.3,40.7l81.1-37.8l-79.8,43.1
				c0,0,83-48.2,86.6-40.4l-87.1,42.1c0.5,1,89-41.5,89-41.5c2.7,5.8-90.3,50.1-90.3,50.1c2.3,4.9,96.3-47.8,97.4-45.4
				c2.4,5.1-98.1,39.4-94.8,46.5l95.2-44.4c0,0-98.4,50.2-97.3,52.7c0,0,100.4-53,102.8-47.9c3.3,7.1-96.5,51.7-95.4,54.1
				c4.1,8.9,97.2-45.3,97.2-45.3s-98.4,41.2-96,46.4l94.6-44.1c0,0-99.9,45.9-96.3,53.6c0,0,98.5-56.9,102.7-47.9
				c3.3,7.1-94.8,44.2-91.5,51.4c0,0,88.1-42.6,88.7-41.3c0,0-89.1,36.5-86.6,41.7c0,0,92.2-45.8,93.3-43.5
				c3.8,8.1-93.6,45.8-93.6,45.8c0.4,0.9,93.3-43.5,93.3-43.5c2.6,5.6-94.7,40.8-90.6,49.7c2.9,6.1,84.6-46.5,87.3-40.7l-78.1,41.4
				c0.6,1.4,79.7-37.2,79.7-37.2c2,4.2-70.7,36.1-68.8,40l63.1-29.4c0,0-63.3,28.9-62.6,30.5l63.4-29.6c0,0-45.6,29-45.3,29.6
				c0,0,30.2-16.8,31.2-14.6"/>
		</g>
	</g>
	<g>
		<g>
			<path class="st1" d="M200.4,515.2c-0.3,19-11.2,36.7-29.1,43.8c-17.9,7.1-38.4,1.5-50.5-13.2c-12.1-14.7-13.7-36.1-4.4-52.7
				c9.2-16.4,28-25.9,46.7-22.8C184.7,473.8,200.1,493.7,200.4,515.2c0.1,5,10,6.3,9.9,1.4c-0.3-22.6-14-42.6-35.2-50.8
				c-21.3-8.2-46.8-2.3-61.8,15.1c-14.7,17.2-17.1,42.3-5.5,61.8c11.7,19.5,34.8,29.8,57.2,26.1c25.5-4.3,44.9-26.3,45.3-52.3
				C210.4,511.6,200.5,510.3,200.4,515.2z"/>
		</g>
		<g class="st4">
			<path class="st5" d="M116.2,480.6c0.3,0.7,30.9-14.4,30.9-14.4c1.7,3.7-41.3,29.9-41.3,29.9l65.7-30.6c0,0-71.4,40.7-70.3,43
				c0.1,0.2,82-41.9,83.3-38.9c0.3,0.6-84.5,39.1-83.6,41.1c0,0,86.4-41.2,86.8-40.5c3.3,7-88.1,52.2-88.1,52.2s95.2-49.1,97-45.2
				c4.2,9-99,48-98.2,49.5l97.2-45.3l-94.1,52.6c2,4.3,104.7-49.3,104.8-48.9c0.1,0.2-99.3,50-99.3,50s96.5-48.3,97.7-45.6
				c0,0-104.7,43.8-101.4,50.9c1.8,3.8,100.3-55.8,103.7-48.4c3.2,6.8-98.9,47.5-98.6,48.2c3.3,7.1,92.9-48.1,94.7-44.2
				c2.9,6.3-95.6,46.5-95.2,47.5l96.5-45l-95.7,52.8c1.2,2.6,97.2-46.8,97.7-45.6c0,0-92.4,41.3-88.6,49.3l96.1-44.8
				c2.4,5.1-99,47.5-99,47.5c3.9,8.4,96.3-49.2,97.9-45.7c0.6,1.3-82.6,50.2-82.6,50.2c1.4,3,75.7-35.3,75.7-35.3L135,567.7
				c0,0,66.6-35,68.1-31.8c0,0-56.4,29.6-55.7,31.1c0.4,0.9,56.1-27.6,56.7-26.4c2.3,5-56.6,28.7-56.6,28.7
				c1.6,3.5,52.2-24.4,52.2-24.4c1.5,3.3-41.5,22.5-41.2,23l36.7-17.1"/>
		</g>
	</g>
</g>
<g>
	<path class="st1" d="M131.7,50.5V29.9h2.6v3.4c1.1-1.1,2.2-2,3.3-2.6c1-0.6,2.2-0.9,3.6-0.9c1.4,0,2.6,0.5,3.5,1.4
		c1,0.9,1.4,2.3,1.4,4.1v15.4h-2.6V35.1c0-1-0.3-1.8-1-2.4c-0.7-0.6-1.4-0.9-2.3-0.9c-1.9,0-3.9,1.1-6,3.4v15.3H131.7z"/>
	<path class="st1" d="M149.8,40c0-3.1,0.7-5.7,2.1-7.5c1.4-1.9,3.4-2.8,5.9-2.8s4.5,1,5.9,2.9c1.4,1.9,2.1,4.4,2.1,7.6
		c0,3.2-0.7,5.7-2.1,7.7c-1.4,1.9-3.4,2.9-5.9,2.9c-2.6,0-4.6-1-6-3C150.5,45.8,149.8,43.2,149.8,40z M152.3,40.2
		c0,4.1,1.1,6.7,3.2,7.9c0.7,0.3,1.4,0.5,2.2,0.5c0.8,0,1.6-0.2,2.3-0.5c0.7-0.3,1.2-0.8,1.6-1.3c0.4-0.5,0.7-1.2,1-1.9
		c0.4-1.3,0.6-2.8,0.6-4.6c0-5.6-1.8-8.3-5.4-8.3S152.3,34.6,152.3,40.2z"/>
	<path class="st1" d="M181.8,47.2c-1.3,2.3-3.2,3.5-5.5,3.5c-1.2,0-2.3-0.3-3.2-0.9c-1-0.6-1.8-1.4-2.4-2.4c-1.2-2-1.9-4.4-1.9-6.9
		c0-1.9,0.3-3.7,0.9-5.3c0.6-1.6,1.5-3,2.7-4c1.2-1,2.5-1.5,3.8-1.5c1.4,0,2.6,0.4,3.6,1.1c1,0.7,1.7,1.3,1.9,1.9V20.9h2.6v26.7
		c0,0.4,0.1,0.9,0.2,1.5c0.1,0.6,0.2,1.1,0.3,1.3h-2.6C181.9,50.3,181.8,49.3,181.8,47.2z M171.3,40.5c0,2.3,0.4,4.2,1.2,5.7
		c0.9,1.5,2.2,2.3,4.1,2.3c1.2,0,2.3-0.4,3-1.1c0.6-0.6,1.3-1.4,2.1-2.4V34.8c-1.4-2-2.9-2.9-4.6-2.9
		C173.3,31.9,171.3,34.7,171.3,40.5z"/>
	<path class="st1" d="M189.9,47.6c-0.6-1-1.1-2-1.5-3.2S188,42,188,40.7s0.1-2.5,0.3-3.5c0.2-1.1,0.4-2,0.7-2.7
		c0.3-0.7,0.7-1.4,1.1-2c0.4-0.6,0.9-1,1.3-1.4c0.5-0.4,1-0.6,1.5-0.9c0.9-0.4,1.8-0.6,2.6-0.6c0.8,0,1.5,0.1,2.1,0.2
		c0.6,0.1,1.2,0.5,1.9,0.9c0.7,0.5,1.2,1.1,1.7,1.8c1.1,1.8,1.7,4.4,1.7,7.8h-12.4c0,3.5,0.9,5.8,2.6,7.1c0.9,0.6,1.8,0.9,2.9,0.9
		c2,0,3.7-1.2,5.1-3.7L203,46c-0.5,0.9-1.2,1.8-2,2.5c-1.6,1.4-3.1,2.1-4.6,2.1s-2.8-0.3-3.9-0.8C191.4,49.3,190.6,48.5,189.9,47.6z
		 M190.7,38.3h9.7c0-1.9-0.4-3.5-1.3-4.8c-0.8-1.1-1.8-1.6-3.2-1.6c-2.3,0-3.8,1.1-4.6,3.2C190.8,36,190.7,37.1,190.7,38.3z"/>
	<path class="st1" d="M225.5,20.9v2.2h-1.7c-2,0-2.9,0.8-2.9,2.5v4.4h4.7v2.2h-4.7v18.4h-2.6V32.1h-3.4v-2.2h3.4v-4.4
		c0-2.1,0.9-3.6,2.8-4.3c0.9-0.3,1.8-0.5,2.8-0.5C224.8,20.7,225.3,20.8,225.5,20.9z"/>
	<path class="st1" d="M229.1,47.6c-0.6-1-1.1-2-1.5-3.2s-0.5-2.4-0.5-3.7s0.1-2.5,0.3-3.5c0.2-1.1,0.4-2,0.7-2.7
		c0.3-0.7,0.7-1.4,1.1-2c0.4-0.6,0.9-1,1.3-1.4c0.5-0.4,1-0.6,1.5-0.9c0.9-0.4,1.8-0.6,2.6-0.6c0.8,0,1.5,0.1,2.1,0.2
		c0.6,0.1,1.2,0.5,1.9,0.9c0.7,0.5,1.2,1.1,1.7,1.8c1.1,1.8,1.7,4.4,1.7,7.8h-12.4c0,3.5,0.9,5.8,2.6,7.1c0.9,0.6,1.8,0.9,2.9,0.9
		c2,0,3.7-1.2,5.1-3.7l1.8,1.2c-0.5,0.9-1.2,1.8-2,2.5c-1.6,1.4-3.1,2.1-4.6,2.1s-2.8-0.3-3.9-0.8C230.6,49.3,229.8,48.5,229.1,47.6
		z M229.9,38.3h9.7c0-1.9-0.4-3.5-1.3-4.8c-0.8-1.1-1.8-1.6-3.2-1.6c-2.3,0-3.8,1.1-4.6,3.2C230,36,229.9,37.1,229.9,38.3z"/>
	<path class="st1" d="M245.2,45.5c0-0.9,0.1-1.7,0.4-2.4c0.2-0.7,0.6-1.3,1.1-1.9c0.5-0.5,1.1-1,1.7-1.4c0.6-0.4,1.4-0.8,2.4-1.1
		c1.7-0.6,3.8-1.2,6.3-1.7c0-2.1-0.4-3.4-1.2-4.1c-0.7-0.6-1.7-0.9-3.1-0.9c-1.6,0-3.1,0.6-4.2,1.9c-0.5,0.5-0.9,1-1.1,1.4l-1.9-1.2
		c1.5-2.8,3.9-4.2,7.4-4.2c3.1,0,5.1,1.2,6,3.6c0.4,1,0.5,2.2,0.5,3.6v10.7c0,0.4,0.1,0.9,0.2,1.5c0.1,0.7,0.3,1.1,0.4,1.3h-2.6
		c-0.4-0.2-0.6-1.3-0.6-3.3c-1.8,2.4-3.9,3.5-6.1,3.5c-2.4,0-4.1-0.9-5.1-2.6C245.4,47.3,245.2,46.4,245.2,45.5z M248.2,43.2
		c-0.3,0.6-0.5,1.4-0.5,2.3c0,1,0.3,1.7,1,2.2c0.7,0.5,1.4,0.8,2.3,0.8c0.8,0,1.6-0.1,2.2-0.4c0.6-0.2,1.2-0.6,1.7-1
		c1-0.7,1.7-1.4,2.1-1.9v-6.2c-2.5,0.6-3.9,1-4.4,1.2C250.4,41,248.9,42,248.2,43.2z"/>
	<path class="st1" d="M262.6,32.1v-2.2h3.5v-7.5h2.6v7.5h4.7v2.2h-4.7v13.1c0,1.3,0.2,2.2,0.6,2.7c0.4,0.5,1.1,0.7,2,0.7
		c0.4,0,0.8,0,1.3-0.1c0.5-0.1,0.8-0.1,0.8-0.1v1.9c-0.9,0.3-1.7,0.5-2.5,0.5c-0.8,0-1.4,0-1.7-0.1c-0.3,0-0.7-0.2-1.1-0.4
		s-0.8-0.5-1.1-0.9c-0.7-0.9-1-2.3-1-4.3V32.1H262.6z"/>
	<path class="st1" d="M276.3,45.2V29.9h2.6v15.4c0,1,0.3,1.8,1,2.4c0.7,0.6,1.4,0.9,2.3,0.9c1.9,0,3.9-1.1,6-3.4V29.9h2.6v20.6h-2.6
		v-3.4c-1.8,1.8-3.4,2.9-4.7,3.3c-0.6,0.2-1.3,0.3-2,0.3c-1.5,0-2.7-0.5-3.7-1.4C276.7,48.4,276.3,47.1,276.3,45.2z"/>
	<path class="st1" d="M295.2,50.5V29.9h2.6v5.5c0.6-1.4,1.1-2.3,1.4-2.8c1.3-2,2.9-3,5-3c0.2,0,0.4,0,0.7,0v2.2
		c-0.9,0.1-1.6,0.3-2.2,0.5s-1.2,0.6-1.7,1c-1,0.8-2,2.4-3.1,4.8v12.2H295.2z"/>
	<path class="st1" d="M308.8,47.6c-0.6-1-1.1-2-1.5-3.2s-0.5-2.4-0.5-3.7s0.1-2.5,0.3-3.5c0.2-1.1,0.4-2,0.7-2.7
		c0.3-0.7,0.7-1.4,1.1-2c0.4-0.6,0.9-1,1.3-1.4c0.5-0.4,1-0.6,1.5-0.9c0.9-0.4,1.8-0.6,2.6-0.6c0.8,0,1.5,0.1,2.1,0.2
		c0.6,0.1,1.2,0.5,1.9,0.9c0.7,0.5,1.2,1.1,1.7,1.8c1.1,1.8,1.7,4.4,1.7,7.8h-12.4c0,3.5,0.9,5.8,2.6,7.1c0.9,0.6,1.8,0.9,2.9,0.9
		c2,0,3.7-1.2,5.1-3.7l1.8,1.2c-0.5,0.9-1.2,1.8-2,2.5c-1.6,1.4-3.1,2.1-4.6,2.1s-2.8-0.3-3.9-0.8C310.2,49.3,309.4,48.5,308.8,47.6
		z M309.5,38.3h9.7c0-1.9-0.4-3.5-1.3-4.8c-0.8-1.1-1.8-1.6-3.2-1.6c-2.3,0-3.8,1.1-4.6,3.2C309.7,36,309.5,37.1,309.5,38.3z"/>
	<path class="st1" d="M338.1,48.7c0.7,0.5,1.7,0.8,3,0.8c1.2,0,2.4-0.6,3.3-1.8c1-1.2,1.6-2.5,2-3.9l2.7-10.6c0.4-1.9,0.6-3.2,0.6-4
		c0-1-0.3-1.9-0.8-2.6c-0.6-0.7-1.3-1.1-2.3-1.1c-1.3,0-2.5,0.4-3.6,1.2c-1.1,0.8-2,1.8-2.8,3c-0.8,1.2-1.3,2.5-1.6,3.7
		c-0.1,0.3-0.2,0.4-0.5,0.4h-0.7c-0.3,0-0.5-0.2-0.5-0.6v-0.2c0.4-1.5,1.1-2.9,2-4.3s2.1-2.6,3.4-3.4s2.8-1.3,4.3-1.3
		c1.5,0,2.8,0.4,4,1.2c1.2,0.8,2,1.8,2.5,3.2c0.7-1.2,1.6-2.3,2.6-3.1c1.1-0.8,2.2-1.3,3.5-1.3c0.9,0,1.7,0.2,2.6,0.5
		c0.9,0.3,1.6,0.8,2.2,1.4c0.6,0.6,0.9,1.4,0.9,2.3c0,1-0.3,1.9-1,2.6c-0.7,0.7-1.5,1.1-2.5,1.1c-0.6,0-1.2-0.2-1.6-0.6
		c-0.4-0.4-0.6-0.9-0.6-1.6c0-0.8,0.3-1.6,0.9-2.2c0.6-0.6,1.3-1,2.1-1.1c-0.7-0.6-1.7-0.8-3-0.8c-1.3,0-2.4,0.6-3.4,1.8
		c-0.9,1.2-1.6,2.5-2,4l-2.6,10.6c-0.4,1.6-0.6,2.9-0.6,4c0,1,0.3,1.9,0.9,2.6c0.6,0.7,1.3,1.1,2.3,1.1c1.9,0,3.6-0.8,5-2.5
		c1.5-1.6,2.4-3.5,2.9-5.4c0.1-0.2,0.2-0.4,0.5-0.4h0.7c0.2,0,0.3,0.1,0.4,0.2c0.1,0.1,0.1,0.2,0.1,0.4c0,0,0,0.1-0.1,0.2
		c-0.6,2.4-1.8,4.5-3.6,6.4s-3.9,2.8-6.2,2.8c-1.5,0-2.8-0.4-4-1.2c-1.2-0.8-2-1.9-2.5-3.2c-0.6,1.2-1.5,2.2-2.6,3.1
		c-1.1,0.9-2.3,1.3-3.5,1.3c-0.9,0-1.7-0.2-2.6-0.5s-1.6-0.8-2.2-1.4c-0.6-0.6-0.8-1.4-0.8-2.4c0-0.9,0.3-1.8,1-2.6
		c0.7-0.8,1.5-1.2,2.4-1.2c0.7,0,1.2,0.2,1.7,0.6c0.4,0.4,0.7,0.9,0.7,1.6c0,0.8-0.3,1.6-0.8,2.2C339.6,48.2,338.9,48.6,338.1,48.7z
		"/>
	<path class="st1" d="M370.4,68c0-0.4,0.1-0.9,0.3-1.4l2.8-7.5c0.3-0.9,0.5-1.6,0.5-2.1c0-0.7-0.3-1-0.8-1c-0.9,0-1.7,0.5-2.3,1.4
		c-0.6,0.9-1,2-1.3,3.2c0,0.1-0.1,0.2-0.3,0.2h-0.4c-0.2,0-0.3-0.1-0.3-0.3v-0.1c0.4-1.4,1-2.6,1.7-3.7c0.8-1.1,1.8-1.6,2.9-1.6
		c0.8,0,1.5,0.3,2.1,0.8c0.6,0.5,0.9,1.2,0.9,2.1c0,0.4-0.1,0.9-0.3,1.4l-2.8,7.5c-0.3,0.8-0.5,1.5-0.5,2.1c0,0.7,0.3,1,0.8,1
		c0.9,0,1.7-0.5,2.3-1.5c0.6-1,1-2,1.3-3.1c0-0.1,0.1-0.2,0.3-0.2h0.4c0.1,0,0.2,0,0.2,0.1c0.1,0.1,0.1,0.1,0.1,0.2c0,0,0,0.1,0,0.1
		c-0.3,1.3-0.9,2.5-1.7,3.7s-1.8,1.7-2.9,1.7c-0.8,0-1.5-0.3-2.1-0.8C370.7,69.5,370.4,68.8,370.4,68z M374.3,49.3
		c0-0.5,0.2-0.9,0.6-1.3c0.4-0.4,0.9-0.6,1.3-0.6c0.4,0,0.7,0.1,1,0.4c0.3,0.2,0.4,0.6,0.4,0.9c0,0.5-0.2,1-0.6,1.4
		c-0.4,0.4-0.9,0.6-1.4,0.6c-0.4,0-0.7-0.1-0.9-0.4C374.5,50,374.3,49.6,374.3,49.3z"/>
</g>
<g>
	<path class="st1" d="M1292,320.1c0-1.9,4.6-3.9,6.2-4.1h0.4c4.3,2.2,7,3.3,12,3.3c1,0,1.9-0.1,2.8-0.5c4.4-2.9,7.5-11.8,9-16.7
		c-4.7,3.8-10.8,7-17,7c-9.7,0-14-7.5-14-16.3c0-18.3,15.8-34.6,34.2-34.6h0.5c3.7,0,9.8,0.6,9.8,5.4c0,3.3-3.9,8.8-6.2,11
		c-1.4,1.2-3.1,2.2-5,2.3h-0.4c-0.3-0.2-0.6-0.2-0.6-0.6c0-1,5-6.2,5-9.3c0-3.8-5.6-4.2-8.5-4.2c-7.2,0-12.3,2.9-16.3,8.8
		c-3.4,5.1-5.4,11.5-5.4,17.7c0,7.6,3.8,15,12.2,15c7.9,0,13.4-8.7,15.2-15.6c0.6-2,4.2-3.8,6.2-3.9h0.4c0.3,0.2,0.6,0.3,0.6,0.7
		c-2.1,8.6-4.2,17.8-8.6,25.4c-3.9,7-10.8,13-19.3,13h-0.4c-4.5,0-8.9-1.1-12.7-3.4C1292.1,320.5,1292,320.3,1292,320.1z"/>
	<path class="st1" d="M1356.9,286.7c0-0.8,0.6-1.6,1.5-1.6h50.4c0.8,0,1.4,0.8,1.4,1.6c0,0.8-0.6,1.6-1.4,1.6h-50.4
		C1357.5,288.3,1356.9,287.5,1356.9,286.7z M1356.9,302.3c0-0.8,0.6-1.6,1.5-1.6h50.4c0.8,0,1.4,0.8,1.4,1.6c0,0.8-0.6,1.6-1.4,1.6
		h-50.4C1357.5,303.9,1356.9,303.1,1356.9,302.3z"/>
	<path class="st1" d="M1449.2,294.5c0-14.8,5-30.4,17-39.8c0-0.1,0.2-0.2,0.4-0.2h0.7c0.3,0,0.6,0.4,0.6,0.7c0,0.2-0.1,0.4-0.2,0.5
		c-10.6,10.3-13.7,24.5-13.7,38.8c0,14.1,3.1,28.5,13.6,38.6c0.2,0.2,0.2,0.4,0.2,0.6c0,0.3-0.3,0.7-0.6,0.7h-0.7
		c-0.2,0-0.4-0.1-0.4-0.2C1454.1,324.9,1449.2,309.3,1449.2,294.5z"/>
	<path class="st1" d="M1487.3,314.9c0.6-4,1.8-13.1,1.8-22.6c0-9.1-1-28.2-13.6-28.2c-0.4-0.2-0.6-0.3-0.6-0.7c0-1.8,3.4-3.3,5-3.4
		h0.6c13.6,0,14.8,19.8,14.8,29.5c0,6-0.5,12-1.2,17.9c7.1-5.8,13.8-12.1,19.5-19.2c2.5-3.1,7.7-10.1,7.7-14c0-4.1-3.1-6.6-7-6.6
		c-0.5,0-0.6-1.2-0.6-1.4c0-1.5,1.4-6.2,3.3-6.2c5.4,0,8.2,4.5,8.2,9.4c0,16.3-23.9,40-36.9,48.8c-0.2,0.2-0.5,0.2-0.6,0.2
		c-0.6,0-0.6-1.1-0.6-1.4C1487,316.9,1487.1,316.2,1487.3,314.9z"/>
	<path class="st1" d="M1529.7,328.3c3.8-3.7,6.1-8.7,6.1-14.1c0-0.3,0-0.6,0-1c-0.9,0.9-2,1.3-3.2,1.3c-2.5,0-4.4-1.9-4.4-4.4
		c0-2.5,1.9-4.4,4.4-4.4c4.2,0,5.3,5.1,5.3,8.5c0,6-2.6,11.5-6.8,15.7c-0.2,0.1-0.3,0.2-0.5,0.2c-0.6,0-1.2-0.6-1.2-1.1
		C1529.4,328.7,1529.6,328.4,1529.7,328.3z"/>
	<path class="st1" d="M1589.2,285.5c-3.9-1.5-7.2-4.4-7.2-9c0-10.8,15.1-18.5,24.3-18.5h0.5c3.5,0,8.7,1,8.7,5.4
		c0,4-3.6,7.5-7.4,7.9h-0.4c-0.3-0.2-0.6-0.2-0.6-0.6c0-0.2,0-0.2,0.1-0.4c0.6-1,1.2-2.1,1.2-3.4c0-3.6-4.6-4.2-7.4-4.2
		c-6.2,0-11.9,3.8-11.9,10.3c0,6.9,8.2,9,13.6,9c0.3,0.2,0.6,0.2,0.6,0.6c0,1.9-4.6,3.9-6.1,4.1c-4.6,0-8.7,1.7-12,4.8
		c-2.7,2.9-5.4,7.2-5.4,11.2c0,6.2,6.6,8.7,11.8,8.7c10.6,0,10.5-9.6,17.7-10.3h0.4c0.3,0.2,0.6,0.2,0.6,0.6c0,0.3-0.2,0.6-0.3,0.9
		c-5,7.4-14.8,13.5-23.6,13.5h-0.5c-5.9,0-13.2-3-13.2-9.9C1572.7,297.5,1582.1,289.1,1589.2,285.5z"/>
	<path class="st1" d="M1617,333.8c0-0.2,0.1-0.4,0.2-0.5c10.6-10.3,13.7-24.5,13.7-38.8c0-14.1-3.1-28.5-13.5-38.6
		c-0.2-0.2-0.3-0.4-0.3-0.6c0-0.3,0.3-0.7,0.7-0.7h0.7c0.1,0,0.3,0.1,0.4,0.2c12,9.4,17,25,17,39.8s-5,30.4-17,39.8
		c-0.1,0.1-0.3,0.2-0.4,0.2h-0.7C1617.3,334.5,1617,334.1,1617,333.8z"/>
</g>
<g>
	<path class="st1" d="M1279.7,493.6v-4.1c6.3,0,9.7-0.2,10.2-0.7l16.4-21.9l-17.4-24.2h-8.1v-4.1h27.8v4.1h-6.4l10.8,15.2l10.9-14.5
		c-0.1-0.2-1.2-0.3-3.1-0.5c-1.9-0.1-3.4-0.2-4.3-0.2v-4.1h23.3v4.1c-2.1,0-4.2,0-6.4,0.1c-2.2,0.1-3.4,0.3-3.7,0.6l-13.9,18.3
		l19.8,27.7h8.1v4.1H1316v-4.1h6.4l-13.4-18.7l-13.4,18c0.1,0.2,1,0.3,2.9,0.5c1.8,0.1,3.4,0.2,4.5,0.2v4.1H1279.7z"/>
	<path class="st1" d="M1405.9,450.5c0.4,0,4.3-0.1,8.7-0.1h7.9c0.7,0.3,1.2,0.8,1.2,1.6c0,0.7-0.5,1.1-1,1.5l-8.3,0.1
		c-9,0.1-8.9,0.1-11,0.5c-8,2-14,7.4-15.9,14.8c-0.2,1-0.5,2.6-0.5,3v0.2h35.5c0.6,0.3,1.2,0.7,1.2,1.6s-0.6,1.3-1.2,1.6H1387v0.2
		c0,0.4,0.2,2,0.5,3c1.9,7.1,7.9,13,15.8,14.7c2.2,0.5,2.1,0.5,11,0.6h8.3c0.6,0.4,1,0.9,1,1.6c0,0.8-0.5,1.3-1.2,1.6h-7.8
		c-8,0-8.7,0-10.6-0.3c-9.7-1.6-18-8.8-19.9-18.2c-0.4-1.8-0.4-2.6-0.4-4.6C1383.8,460.4,1394.2,451.7,1405.9,450.5z"/>
	<path class="st1" d="M1451.8,492.2c0-0.7,0.6-1.2,1.3-1.4c0.1,0,0.2,0,0.2,0c4.6,0,5.6,0,5.6-4.7v-39.9c0-4.6-1.4-4.6-5.8-4.6
		c-0.7,0-1.3-0.7-1.3-1.4c0-0.7,0.6-1.2,1.3-1.4h26.5c9.1,0,21.3,3.8,21.3,14.9c0,9-6.1,12.5-14.1,13.9c2.5,3.8,14.5,23.2,18.7,23.2
		c0.7,0,1.3,0.7,1.3,1.4c0,0.8-0.6,1.3-1.3,1.4h-13.8c-0.4,0-0.7-0.3-1-0.6l-15.8-24.6c-1,0-1.9,0-2.9,0v17.8c0,4.6,1.4,4.6,5.8,4.6
		c0.7,0,1.3,0.7,1.3,1.4c0,0.8-0.6,1.3-1.3,1.4H1453C1452.3,493.6,1451.8,492.9,1451.8,492.2z M1469.8,490.8c-0.6-1.4-0.7-3-0.7-4.6
		v-41.6c0-1.1,0.4-2.2,1-3h-9.2c0.6,1.4,0.7,3,0.7,4.6v40.1c0,1.6-0.1,3.1-0.7,4.6H1469.8z M1487,453.7c0-7.8-2.1-12.1-10.6-12.1
		c-1.9,0-4.6,0.9-4.6,3.2v20.9C1482.6,465.7,1487,465.5,1487,453.7z M1500.2,490.8c-6.1-5.9-11.8-15.5-16.6-22.8
		c-1.8,0.2-3.6,0.3-5.6,0.4l14.4,22.4H1500.2z M1498,453.7c0-6.6-5.6-9.9-11.3-11.3c2.6,3,3.1,7.4,3.1,11.3c0,3.6-0.1,8-2.6,11
		C1493.6,463.4,1498,460.6,1498,453.7z"/>
	<path class="st1" d="M1518.2,467.4c-1.4,0-2.7-0.3-3.8-1c-1.1-0.7-1.9-1.6-2.5-2.8c-0.6-1.2-0.9-2.5-0.9-3.9c0-2.1,0.6-4.1,1.7-6.2
		c1.1-2.1,2.6-3.7,4.5-5.1c1.9-1.3,3.9-2,6-2c1,0,1.8,0.2,2.7,0.7c0.8,0.5,1.5,1.1,2,1.9l2.5-10.2c0.2-0.5,0.2-0.9,0.2-1.3
		c0-0.4-1-0.6-2.9-0.6c-0.4-0.1-0.6-0.4-0.6-0.8l0.2-0.7c0.1-0.2,0.3-0.3,0.5-0.4l6.5-0.5c0.2,0,0.3,0.1,0.5,0.2
		c0.2,0.1,0.2,0.3,0.2,0.5l-6.7,26.8c-0.1,0.7-0.2,1.2-0.2,1.6c0,0.6,0.1,1.1,0.3,1.5s0.6,0.7,1.1,0.7c1,0,1.7-0.6,2.2-1.7
		c0.5-1.1,0.9-2.5,1.3-4.1c0.1-0.3,0.3-0.4,0.5-0.4h0.8c0.2,0,0.3,0.1,0.4,0.2s0.1,0.2,0.1,0.4c0,0.1,0,0.1,0,0.2
		c-1.2,4.7-3,7-5.4,7c-1.1,0-2.1-0.3-3.1-0.8s-1.5-1.3-1.8-2.4C1522.6,466.4,1520.4,467.4,1518.2,467.4z M1518.3,465.9
		c1.2,0,2.4-0.4,3.5-1.2c1.1-0.8,2.1-1.8,2.9-3l2.5-9.8c-0.2-0.7-0.4-1.4-0.8-2c-0.4-0.6-0.8-1.1-1.4-1.4c-0.6-0.4-1.2-0.5-1.9-0.5
		c-0.9,0-1.8,0.3-2.6,0.8c-0.8,0.6-1.5,1.3-2.2,2.1c-0.6,0.8-1.1,1.7-1.5,2.6c-0.5,1.3-0.9,2.7-1.3,4.2s-0.6,2.8-0.6,4
		c0,1.1,0.3,2.1,0.9,3C1516.3,465.5,1517.2,465.9,1518.3,465.9z"/>
	<path class="st1" d="M1544.5,466l10.6-10.7l-10.6-10.6c-0.2-0.2-0.3-0.5-0.3-0.7c0-0.6,0.5-1.1,1.2-1.1c0.2,0,0.5,0.1,0.7,0.2
		l10.6,10.7l10.5-10.5c0.2-0.2,0.5-0.4,0.9-0.4c0.6,0,1.1,0.5,1.1,1.1c0,0.3-0.1,0.6-0.2,0.7l-10.7,10.6L1569,466
		c0.1,0.2,0.2,0.5,0.2,0.7c0,0.7-0.5,1.2-1.1,1.2c-0.3,0-0.6-0.1-0.7-0.2l-10.6-10.7l-10.4,10.5c-0.3,0.2-0.6,0.4-0.9,0.4
		c-0.7,0-1.2-0.5-1.2-1.2C1544.3,466.4,1544.3,466.2,1544.5,466z"/>
	<path class="st1" d="M1584.4,433.1c0.1-0.6,0.5-1.1,1.2-1.1c0.6,0,1,0.5,1.1,1.1v44.5c-0.1,0.6-0.5,1.1-1.1,1.1
		c-0.7,0-1.1-0.5-1.2-1.1V433.1z"/>
	<path class="st1" d="M1604.3,468.3c0-0.2,0-0.4,0-0.6c0.2-1.4,0.7-5.5,0.7-10.2c0-5.9-0.6-19.6-8.9-19.6c-0.2,0-0.4-0.3-0.4-0.5
		c0-1.1,2.4-2.3,3.4-2.3h0.2c9,0,9.7,14.2,9.7,20.7c0,2.3-0.2,4.8-0.2,7c3.4-2.5,6.7-5.2,9.7-8.2c2.1-2.1,7.4-8,7.4-10.8
		c0-2.5-2.5-3.9-4.7-3.9c-0.3,0-0.4-0.7-0.4-0.8v-0.2c0-1,0.8-3.7,2.1-3.7c3.2,0,5.4,2.5,5.4,5.6v0.3c0,4.9-4,10.8-7.1,14.5
		c-4.2,4.9-9.7,9.6-15,13.1c-0.3,0.2-1,0.8-1.4,0.8c-0.4,0-0.4-0.6-0.5-0.8V468.3z"/>
	<path class="st1" d="M1637.7,433.1c0.1-0.6,0.5-1.1,1.2-1.1c0.6,0,1,0.5,1.1,1.1v44.5c-0.1,0.6-0.5,1.1-1.1,1.1
		c-0.7,0-1.1-0.5-1.2-1.1V433.1z"/>
</g>
<g>
	<path class="st1" d="M1280.9,662.7c-0.4,0-0.8-0.1-1-0.4c-0.3-0.3-0.4-0.6-0.4-1.1v-0.9c0-0.4,0.1-0.7,0.4-1l22.3-29h-5.1
		c-2.9,0-5.2,0.3-7,0.9c-1.7,0.6-3,1.7-3.9,3.3c-0.9,1.6-1.3,3.9-1.3,6.9h-4.1l1-14.3h30.5c0.4,0,0.8,0.1,1.1,0.4
		c0.3,0.3,0.4,0.6,0.4,1.1v0.7c0,0.2-0.1,0.5-0.3,1l-22.3,28.9h5.6c1.6,0,2.8-0.1,3.9-0.2c1-0.1,2.1-0.4,3.2-0.8
		c1.1-0.4,2.1-1,3-1.8c1.1-1.1,1.8-2.4,2.2-4c0.4-1.6,0.7-3.7,0.9-6.2h4.1l-1.4,16.5H1280.9z"/>
	<path class="st1" d="M1324.4,683.9c0-1.4,0.2-2.8,0.7-4.2s1.2-3.3,2.1-5.6c0.3-0.9,0.5-1.7,0.5-2.3c0-0.4-0.1-0.8-0.3-1.1
		s-0.5-0.4-0.9-0.4c-1.2,0-2.3,0.6-3.1,1.8s-1.5,2.5-1.9,4c0,0.3-0.2,0.4-0.5,0.4h-0.7c-0.1,0-0.3-0.1-0.4-0.2
		c-0.1-0.1-0.2-0.3-0.2-0.4v-0.2c0.3-1.2,0.8-2.3,1.4-3.3c0.6-1.1,1.4-1.9,2.3-2.6s2-1,3.1-1c0.8,0,1.6,0.2,2.2,0.5
		c0.7,0.3,1.3,0.8,1.7,1.4c0.4,0.6,0.6,1.3,0.6,2.1c0,0.5-0.1,1.1-0.3,1.7c-1,2.3-1.7,4.3-2.2,5.8c-0.5,1.5-0.8,3-0.8,4.3
		c0,1.1,0.3,2,0.8,2.7c0.5,0.7,1.3,1.1,2.4,1.1c1.1,0,2.1-0.4,3.2-1.2c0.5-0.3,1-0.8,1.5-1.5c0.6-0.6,0.9-1.1,1-1.5l3.3-13.2
		c0.1-0.5,0.4-0.9,0.8-1.2c0.4-0.3,0.9-0.5,1.4-0.5c0.5,0,0.8,0.1,1.2,0.4c0.3,0.3,0.5,0.6,0.5,1.1c0,0.1,0,0.3-0.1,0.5l-3.3,13.2
		c-0.1,0.7-0.2,1.2-0.2,1.6c0,0.6,0.1,1.1,0.4,1.5s0.6,0.7,1.2,0.7c0.5,0,1-0.2,1.4-0.6c0.4-0.4,0.7-0.9,1-1.5
		c0.2-0.6,0.5-1.2,0.7-2c0.2-0.8,0.4-1.4,0.4-1.7c0.1-0.3,0.3-0.4,0.5-0.4h0.8c0.2,0,0.3,0.1,0.4,0.2c0.1,0.1,0.1,0.2,0.1,0.4
		c0,0.1,0,0.1,0,0.2c-1.1,4.7-2.9,7-5.4,7c-1.1,0-2.1-0.3-3-0.8c-0.9-0.5-1.5-1.3-1.9-2.2c-1.8,2-3.7,3-5.9,3c-2,0-3.6-0.5-4.8-1.5
		S1324.4,685.8,1324.4,683.9z"/>
	<path class="st1" d="M1357.6,676.4c3.8-3.7,6.1-8.7,6.1-14.1c0-0.3,0-0.6,0-1c-0.9,0.9-2,1.3-3.2,1.3c-2.5,0-4.4-1.9-4.4-4.4
		s1.9-4.4,4.4-4.4c4.2,0,5.3,5.1,5.3,8.5c0,6-2.6,11.5-6.8,15.7c-0.2,0.1-0.3,0.2-0.5,0.2c-0.6,0-1.2-0.6-1.2-1.1
		C1357.3,676.8,1357.4,676.6,1357.6,676.4z"/>
	<path class="st1" d="M1399.8,607.2c0.5,0,1,0.2,1.2,0.6c0.2,0.2,1.8,4.5,3.8,9.6l3.5,9.3h24.3l3.4-9.2c1.9-5,3.6-9.3,3.7-9.5
		c0.2-0.4,1-0.7,1.5-0.7c0.8,0.1,1.4,0.8,1.4,1.6c0,0.4-20.7,54.8-21,55.1c-0.2,0.3-0.7,0.6-1.2,0.6c-0.5,0-1-0.2-1.2-0.6
		c-0.3-0.4-21-54.6-21-55C1398.2,608,1398.9,607.2,1399.8,607.2z M1420.5,629.8c-8.7,0-10.9,0-10.9,0.1l10.9,28.4l10.9-28.4
		C1431.3,629.8,1429.2,629.8,1420.5,629.8z"/>
	<path class="st1" d="M1461.1,654c0-1.7,0.2-3.5,0.7-5.4s1.1-3.9,2-6.1c0.8-2.3,1.6-4.2,2.2-5.9c0.7-2,1.1-3.6,1.1-4.8
		c0-1.6-0.6-2.4-1.8-2.4c-2.1,0-3.8,1.1-5.2,3.3s-2.4,4.6-3,7.3c-0.1,0.3-0.3,0.5-0.7,0.5h-0.9c-0.4,0-0.7-0.2-0.7-0.7v-0.2
		c0.9-3.2,2.2-6,3.9-8.4c1.8-2.5,4-3.7,6.7-3.7c1.9,0,3.5,0.6,4.8,1.9c1.3,1.2,2,2.8,2,4.8c0,1-0.2,2-0.7,3.1
		c-0.2,0.7-0.8,2.1-1.6,4.3c-0.8,2.2-1.5,4-1.9,5.4c-0.4,1.4-0.8,2.8-1.1,4.2c-0.3,1.4-0.4,2.8-0.4,4.1c0,1.8,0.4,3.3,1.1,4.5
		c0.8,1.2,2,1.8,3.7,1.8c3.4,0,6.4-2.1,9-6.3c0.1-0.2,0.1-0.4,0.1-0.6s0.1-0.4,0.1-0.6l5.7-23.2c0.2-0.7,0.6-1.3,1.2-1.8
		c0.7-0.5,1.4-0.8,2.1-0.8c0.7,0,1.2,0.2,1.7,0.6c0.5,0.4,0.7,1,0.7,1.6c0,0.3,0,0.5-0.1,0.6l-5.8,23c-0.4,1.6-0.5,2.9-0.5,3.9
		c0,2.3,0.8,3.4,2.3,3.4c1.7,0,3-1.1,3.8-3.2c0.8-2.1,1.6-4.6,2.2-7.4c0.1-0.3,0.3-0.5,0.6-0.5h1c0.2,0,0.4,0.1,0.5,0.3
		c0.1,0.2,0.2,0.4,0.2,0.5c-0.6,2.3-1.1,4.3-1.7,5.9c-0.5,1.6-1.4,3.1-2.5,4.5c-1.1,1.3-2.6,2-4.3,2c-1.7,0-3.2-0.5-4.6-1.4
		c-1.3-0.9-2.2-2.2-2.7-3.8c-1.2,1.6-2.6,2.8-4.3,3.8c-1.6,0.9-3.3,1.4-5.1,1.4c-3.1,0-5.5-0.8-7.3-2.5
		C1462,659.4,1461.1,657,1461.1,654z"/>
	<path class="st1" d="M1547.1,619.6c0.4,0,4.3-0.1,8.7-0.1h7.9c0.7,0.3,1.2,0.8,1.2,1.6c0,0.7-0.5,1.1-1,1.5l-8.3,0.1
		c-9,0.1-8.9,0.1-11,0.5c-8,2-14,7.4-15.9,14.8c-0.2,1-0.5,2.6-0.5,3v0.2h35.5c0.6,0.3,1.2,0.7,1.2,1.6s-0.6,1.3-1.2,1.6h-35.5v0.2
		c0,0.4,0.2,2,0.5,3c1.9,7.1,7.9,13,15.8,14.7c2.2,0.5,2.1,0.5,11,0.6h8.3c0.6,0.4,1,0.9,1,1.6c0,0.8-0.5,1.3-1.2,1.6h-7.8
		c-8,0-8.7,0-10.6-0.3c-9.7-1.6-18-8.8-19.9-18.2c-0.4-1.8-0.4-2.6-0.4-4.6C1525,629.5,1535.4,620.8,1547.1,619.6z"/>
	<path class="st1" d="M1606.6,663.1c0.6-4,1.8-13.1,1.8-22.6c0-9.1-1-28.2-13.6-28.2c-0.4-0.2-0.6-0.3-0.6-0.7c0-1.8,3.4-3.3,5-3.4
		h0.6c13.6,0,14.8,19.8,14.8,29.5c0,6-0.5,12-1.2,17.9c7.1-5.8,13.8-12.1,19.5-19.2c2.5-3.1,7.7-10.1,7.7-14c0-4.1-3.1-6.6-7-6.6
		c-0.5,0-0.6-1.2-0.6-1.4c0-1.5,1.4-6.2,3.3-6.2c5.4,0,8.2,4.5,8.2,9.4c0,16.3-23.9,40-36.9,48.8c-0.2,0.2-0.5,0.2-0.6,0.2
		c-0.6,0-0.6-1.1-0.6-1.4C1606.2,665.1,1606.3,664.4,1606.6,663.1z"/>
</g>
<rect x="1925.7" y="154.4" class="st6" width="401" height="630.5"/>
<g>
	<path class="st1" d="M1983.6,90.4v2.2h-1.7c-2,0-2.9,0.8-2.9,2.5v4.4h4.7v2.2h-4.7V120h-2.6v-18.4h-3.4v-2.2h3.4V95
		c0-2.1,0.9-3.6,2.8-4.3c0.9-0.3,1.8-0.5,2.8-0.5C1982.9,90.2,1983.5,90.3,1983.6,90.4z"/>
	<path class="st1" d="M1987.2,117.1c-0.6-1-1.1-2-1.5-3.2s-0.5-2.4-0.5-3.7s0.1-2.5,0.3-3.5c0.2-1.1,0.4-2,0.7-2.7
		c0.3-0.7,0.7-1.4,1.1-2c0.4-0.6,0.9-1,1.3-1.4c0.5-0.4,1-0.6,1.5-0.9c0.9-0.4,1.8-0.6,2.6-0.6c0.8,0,1.5,0.1,2.1,0.2
		c0.6,0.1,1.2,0.5,1.9,0.9c0.7,0.5,1.2,1.1,1.7,1.8c1.1,1.8,1.7,4.4,1.7,7.8h-12.4c0,3.5,0.9,5.8,2.6,7.1c0.9,0.6,1.8,0.9,2.9,0.9
		c2,0,3.7-1.2,5.1-3.7l1.8,1.2c-0.5,0.9-1.2,1.8-2,2.5c-1.6,1.4-3.1,2.1-4.6,2.1s-2.8-0.3-3.9-0.8
		C1988.7,118.8,1987.9,118.1,1987.2,117.1z M1988,107.8h9.7c0-1.9-0.4-3.5-1.3-4.8c-0.8-1.1-1.8-1.6-3.2-1.6c-2.3,0-3.8,1.1-4.6,3.2
		C1988.2,105.5,1988,106.6,1988,107.8z"/>
	<path class="st1" d="M2003.3,115c0-0.9,0.1-1.7,0.4-2.4c0.2-0.7,0.6-1.3,1.1-1.9c0.5-0.5,1.1-1,1.7-1.4c0.6-0.4,1.4-0.8,2.4-1.1
		c1.7-0.6,3.8-1.2,6.3-1.7c0-2.1-0.4-3.4-1.2-4.1c-0.7-0.6-1.7-0.9-3.1-0.9c-1.6,0-3.1,0.6-4.2,1.9c-0.5,0.5-0.9,1-1.1,1.4l-1.9-1.2
		c1.5-2.8,3.9-4.2,7.4-4.2c3.1,0,5.1,1.2,6,3.6c0.4,1,0.5,2.2,0.5,3.6v10.7c0,0.4,0.1,0.9,0.2,1.5c0.1,0.7,0.3,1.1,0.4,1.3h-2.6
		c-0.4-0.2-0.6-1.3-0.6-3.3c-1.8,2.4-3.9,3.5-6.1,3.5c-2.4,0-4.1-0.9-5.1-2.6C2003.5,116.8,2003.3,115.9,2003.3,115z M2006.4,112.7
		c-0.3,0.6-0.5,1.4-0.5,2.3c0,1,0.3,1.7,1,2.2c0.7,0.5,1.4,0.8,2.3,0.8c0.8,0,1.6-0.1,2.2-0.4c0.6-0.2,1.2-0.6,1.7-1
		c1-0.7,1.7-1.4,2.1-1.9v-6.2c-2.5,0.6-3.9,1-4.4,1.2C2008.5,110.6,2007,111.5,2006.4,112.7z"/>
	<path class="st1" d="M2020.7,101.6v-2.2h3.5v-7.5h2.6v7.5h4.7v2.2h-4.7v13.1c0,1.3,0.2,2.2,0.6,2.7c0.4,0.5,1.1,0.7,2,0.7
		c0.4,0,0.8,0,1.3-0.1c0.5-0.1,0.8-0.1,0.8-0.1v1.9c-0.9,0.3-1.7,0.5-2.5,0.5c-0.8,0-1.4,0-1.7-0.1c-0.3,0-0.7-0.2-1.1-0.4
		s-0.8-0.5-1.1-0.9c-0.7-0.9-1-2.3-1-4.3v-13.1H2020.7z"/>
	<path class="st1" d="M2034.4,114.8V99.4h2.6v15.4c0,1,0.3,1.8,1,2.4c0.7,0.6,1.4,0.9,2.3,0.9c1.9,0,3.9-1.1,6-3.4V99.4h2.6V120
		h-2.6v-3.4c-1.8,1.8-3.4,2.9-4.7,3.3c-0.6,0.2-1.3,0.3-2,0.3c-1.5,0-2.7-0.5-3.7-1.4C2034.9,117.9,2034.4,116.6,2034.4,114.8z"/>
	<path class="st1" d="M2053.3,120V99.4h2.6v5.5c0.6-1.4,1.1-2.3,1.4-2.8c1.3-2,2.9-3,5-3c0.2,0,0.4,0,0.7,0v2.2
		c-0.9,0.1-1.6,0.3-2.2,0.5s-1.2,0.6-1.7,1c-1,0.8-2,2.4-3.1,4.8V120H2053.3z"/>
	<path class="st1" d="M2066.9,117.1c-0.6-1-1.1-2-1.5-3.2s-0.5-2.4-0.5-3.7s0.1-2.5,0.3-3.5c0.2-1.1,0.4-2,0.7-2.7
		c0.3-0.7,0.7-1.4,1.1-2c0.4-0.6,0.9-1,1.3-1.4c0.5-0.4,1-0.6,1.5-0.9c0.9-0.4,1.8-0.6,2.6-0.6c0.8,0,1.5,0.1,2.1,0.2
		c0.6,0.1,1.2,0.5,1.9,0.9c0.7,0.5,1.2,1.1,1.7,1.8c1.1,1.8,1.7,4.4,1.7,7.8h-12.4c0,3.5,0.9,5.8,2.6,7.1c0.9,0.6,1.8,0.9,2.9,0.9
		c2,0,3.7-1.2,5.1-3.7l1.8,1.2c-0.5,0.9-1.2,1.8-2,2.5c-1.6,1.4-3.1,2.1-4.6,2.1s-2.8-0.3-3.9-0.8
		C2068.4,118.8,2067.5,118.1,2066.9,117.1z M2067.6,107.8h9.7c0-1.9-0.4-3.5-1.3-4.8c-0.8-1.1-1.8-1.6-3.2-1.6
		c-2.3,0-3.8,1.1-4.6,3.2C2067.8,105.5,2067.6,106.6,2067.6,107.8z"/>
	<path class="st1" d="M2093.9,120V99.4h2.6v3.4c1.8-1.8,3.4-2.9,4.7-3.3c0.6-0.2,1.4-0.3,2.4-0.3c1,0,1.9,0.3,2.8,0.9
		c0.9,0.6,1.5,1.6,1.8,2.8c1.9-1.9,3.5-3,4.9-3.5c0.6-0.2,1.3-0.3,2-0.3c1.5,0,2.7,0.5,3.7,1.4c1,0.9,1.4,2.3,1.4,4.1V120h-2.6
		v-15.4c0-1-0.3-1.8-1-2.4c-0.7-0.6-1.4-0.9-2.3-0.9c-1.9,0-3.9,1.1-6,3.4V120h-2.6v-15.4c0-1-0.3-1.8-1-2.4
		c-0.7-0.6-1.4-0.9-2.3-0.9c-1.9,0-3.9,1.1-6,3.4V120H2093.9z"/>
	<path class="st1" d="M2123.7,115c0-0.9,0.1-1.7,0.4-2.4c0.2-0.7,0.6-1.3,1.1-1.9c0.5-0.5,1.1-1,1.7-1.4c0.6-0.4,1.4-0.8,2.4-1.1
		c1.7-0.6,3.8-1.2,6.3-1.7c0-2.1-0.4-3.4-1.2-4.1c-0.7-0.6-1.7-0.9-3.1-0.9c-1.6,0-3.1,0.6-4.2,1.9c-0.5,0.5-0.9,1-1.1,1.4l-1.9-1.2
		c1.5-2.8,3.9-4.2,7.4-4.2c3.1,0,5.1,1.2,6,3.6c0.4,1,0.5,2.2,0.5,3.6v10.7c0,0.4,0.1,0.9,0.2,1.5c0.1,0.7,0.3,1.1,0.4,1.3h-2.6
		c-0.4-0.2-0.6-1.3-0.6-3.3c-1.8,2.4-3.9,3.5-6.1,3.5c-2.4,0-4.1-0.9-5.1-2.6C2124,116.8,2123.7,115.9,2123.7,115z M2126.8,112.7
		c-0.3,0.6-0.5,1.4-0.5,2.3c0,1,0.3,1.7,1,2.2c0.7,0.5,1.4,0.8,2.3,0.8c0.8,0,1.6-0.1,2.2-0.4c0.6-0.2,1.2-0.6,1.7-1
		c1-0.7,1.7-1.4,2.1-1.9v-6.2c-2.5,0.6-3.9,1-4.4,1.2C2128.9,110.6,2127.5,111.5,2126.8,112.7z"/>
	<path class="st1" d="M2141.1,101.6v-2.2h3.5v-7.5h2.6v7.5h4.7v2.2h-4.7v13.1c0,1.3,0.2,2.2,0.6,2.7c0.4,0.5,1.1,0.7,2,0.7
		c0.4,0,0.8,0,1.3-0.1c0.5-0.1,0.8-0.1,0.8-0.1v1.9c-0.9,0.3-1.7,0.5-2.5,0.5c-0.8,0-1.4,0-1.7-0.1c-0.3,0-0.7-0.2-1.1-0.4
		s-0.8-0.5-1.1-0.9c-0.7-0.9-1-2.3-1-4.3v-13.1H2141.1z"/>
	<path class="st1" d="M2154.6,120V99.4h2.6v5.5c0.6-1.4,1.1-2.3,1.4-2.8c1.3-2,2.9-3,5-3c0.2,0,0.4,0,0.7,0v2.2
		c-0.9,0.1-1.6,0.3-2.2,0.5s-1.2,0.6-1.7,1c-1,0.8-2,2.4-3.1,4.8V120H2154.6z"/>
	<path class="st1" d="M2167.1,96.8v-2.9h2.9v2.9H2167.1z M2167.3,120V99.4h2.6V120H2167.3z"/>
	<path class="st1" d="M2173.4,120l6.4-10.6l-6.2-10h2.9l4.8,7.6l5-7.6h2.9l-6.5,9.9l6.7,10.7h-2.9l-5.2-8.3l-5,8.3H2173.4z"/>
	<path class="st1" d="M2204.5,119c0-0.2,0-0.4,0.1-0.5l4.5-17.9c0.3-1.1,0.4-2.1,0.4-2.9c0-1.7-0.6-2.6-1.8-2.6
		c-1.2,0-2.2,0.7-2.8,2.2c-0.6,1.5-1.2,3.4-1.8,5.7c0,0.1-0.1,0.2-0.2,0.3c-0.1,0.1-0.2,0.1-0.3,0.1h-0.7c-0.1,0-0.3-0.1-0.4-0.2
		s-0.1-0.3-0.1-0.4c0.4-1.7,0.8-3.2,1.2-4.4c0.4-1.2,1-2.3,1.9-3.3s1.9-1.5,3.2-1.5c1.5,0,2.8,0.5,4,1.4c1.2,0.9,1.7,2.2,1.7,3.6
		c1.2-1.6,2.6-2.8,4.2-3.7c1.6-0.9,3.3-1.3,5.1-1.3c1.4,0,2.7,0.2,3.7,0.7c1,0.5,1.8,1.2,2.4,2.2c0.6,1,0.9,2.2,0.9,3.5
		c0,1.6-0.4,3.6-1.1,5.9c-0.7,2.3-1.6,4.9-2.7,7.8c-0.6,1.3-0.8,2.5-0.8,3.6c0,1.2,0.5,1.8,1.4,1.8c1.6,0,2.9-0.8,3.9-2.5
		c1-1.7,1.8-3.5,2.2-5.4c0.1-0.2,0.2-0.4,0.5-0.4h0.7c0.2,0,0.3,0,0.4,0.1c0.1,0.1,0.2,0.2,0.2,0.4c0,0,0,0.1-0.1,0.2
		c-0.5,2.3-1.5,4.4-2.9,6.3c-1.4,1.9-3.1,2.9-5.1,2.9c-1.4,0-2.6-0.5-3.6-1.5s-1.5-2.1-1.5-3.5c0-0.7,0.2-1.5,0.5-2.3
		c0.5-1.3,1.1-2.9,1.7-4.7c0.7-1.8,1.2-3.6,1.6-5.2c0.4-1.7,0.6-3.1,0.6-4.4c0-1.1-0.2-2.1-0.7-2.8c-0.5-0.8-1.2-1.2-2.3-1.2
		c-1.5,0-2.8,0.3-4,1s-2.3,1.5-3.2,2.6s-1.8,2.3-2.5,3.8l-4.1,16.3c-0.1,0.5-0.4,1-0.9,1.4c-0.5,0.4-1,0.6-1.6,0.6
		c-0.5,0-0.9-0.2-1.3-0.5S2204.5,119.5,2204.5,119z"/>
	<path class="st1" d="M2240.6,118.2c0.7,0.5,1.7,0.8,3,0.8c1.2,0,2.4-0.6,3.3-1.8c1-1.2,1.6-2.5,2-3.9l2.7-10.6
		c0.4-1.9,0.6-3.2,0.6-4c0-1-0.3-1.9-0.8-2.6c-0.6-0.7-1.3-1.1-2.3-1.1c-1.3,0-2.5,0.4-3.6,1.2c-1.1,0.8-2,1.8-2.8,3
		c-0.8,1.2-1.3,2.5-1.6,3.7c-0.1,0.3-0.2,0.4-0.5,0.4h-0.7c-0.3,0-0.5-0.2-0.5-0.6v-0.2c0.4-1.5,1.1-2.9,2-4.3
		c0.9-1.4,2.1-2.6,3.4-3.4c1.4-0.9,2.8-1.3,4.3-1.3c1.5,0,2.8,0.4,4,1.2c1.2,0.8,2,1.8,2.5,3.2c0.7-1.2,1.6-2.3,2.6-3.1
		c1.1-0.8,2.2-1.3,3.5-1.3c0.9,0,1.7,0.2,2.6,0.5c0.9,0.3,1.6,0.8,2.2,1.4c0.6,0.6,0.9,1.4,0.9,2.3c0,1-0.3,1.9-1,2.6
		s-1.5,1.1-2.5,1.1c-0.6,0-1.2-0.2-1.6-0.6s-0.6-0.9-0.6-1.6c0-0.8,0.3-1.6,0.9-2.2c0.6-0.6,1.3-1,2.1-1.1c-0.7-0.6-1.7-0.8-3-0.8
		c-1.3,0-2.4,0.6-3.4,1.8c-0.9,1.2-1.6,2.5-2,4l-2.6,10.6c-0.4,1.6-0.6,2.9-0.6,4c0,1,0.3,1.9,0.9,2.6s1.3,1.1,2.3,1.1
		c1.9,0,3.6-0.8,5-2.5c1.5-1.6,2.4-3.5,2.9-5.4c0.1-0.2,0.2-0.4,0.5-0.4h0.7c0.2,0,0.3,0.1,0.4,0.2c0.1,0.1,0.1,0.2,0.1,0.4
		c0,0,0,0.1-0.1,0.2c-0.6,2.4-1.8,4.5-3.6,6.4s-3.9,2.8-6.2,2.8c-1.5,0-2.8-0.4-4-1.2c-1.2-0.8-2-1.9-2.5-3.2
		c-0.6,1.2-1.5,2.2-2.6,3.1c-1.1,0.9-2.3,1.3-3.5,1.3c-0.9,0-1.7-0.2-2.7-0.5c-0.9-0.3-1.6-0.8-2.2-1.4c-0.6-0.6-0.8-1.4-0.8-2.4
		c0-0.9,0.3-1.8,1-2.6c0.7-0.8,1.5-1.2,2.4-1.2c0.7,0,1.2,0.2,1.7,0.6s0.7,0.9,0.7,1.6c0,0.8-0.3,1.6-0.8,2.2
		C2242.1,117.7,2241.4,118.1,2240.6,118.2z"/>
	<path class="st1" d="M2280.6,120.7c-2.5,0-4.5-1-6-2.9s-2.2-4.2-2.2-6.8c0-2.6,0.7-5.2,2-8c1.3-2.8,3.1-5,5.4-6.9
		c2.3-1.8,4.7-2.7,7.3-2.7c1.2,0,2.2,0.3,3.2,1c0.9,0.7,1.7,1.5,2.2,2.6l3.4-13.4c0.2-0.7,0.3-1.2,0.3-1.6c0-0.6-1.3-1-3.9-1
		c-0.4,0-0.6-0.3-0.6-0.8c0-0.1,0.1-0.3,0.1-0.5c0.1-0.3,0.2-0.4,0.3-0.6c0.1-0.1,0.3-0.2,0.5-0.2l8.1-0.6c0.5,0,0.7,0.3,0.7,0.8
		l-8.6,34.5c-0.3,0.7-0.4,1.6-0.4,2.9c0,1.7,0.6,2.6,1.7,2.6c1.2,0,2.2-0.8,2.9-2.4c0.7-1.6,1.2-3.4,1.7-5.5
		c0.1-0.2,0.2-0.4,0.5-0.4h0.7c0.2,0,0.3,0.1,0.4,0.2c0.1,0.1,0.1,0.3,0.1,0.4c-0.7,2.8-1.5,5-2.3,6.7c-0.8,1.7-2.2,2.5-4.1,2.5
		c-1.3,0-2.5-0.4-3.6-1.2c-1-0.8-1.7-1.9-1.9-3.2C2285.8,119.2,2283.2,120.7,2280.6,120.7z M2280.6,119.1c1.4,0,2.8-0.5,4.2-1.6
		c1.4-1.1,2.5-2.4,3.5-3.8c0,0,0.1-0.1,0.1-0.2l3.3-13.2c-0.2-1.4-0.8-2.6-1.6-3.6c-0.8-1-1.9-1.5-3.2-1.5c-1.3,0-2.6,0.6-3.8,1.7
		c-1.2,1.1-2.1,2.4-2.9,3.9c-0.8,1.6-1.5,3.8-2.2,6.6c-0.7,2.8-1.1,5-1.1,6.5c0,1.4,0.3,2.6,0.9,3.7
		C2278.4,118.5,2279.4,119.1,2280.6,119.1z"/>
</g>
<g>
	<path class="st1" d="M2083.4,871.8v-4.1c6.3,0,9.7-0.2,10.2-0.7l16.4-21.9l-17.4-24.2h-8.1v-4.1h27.8v4.1h-6.4l10.8,15.2l10.9-14.5
		c-0.1-0.2-1.2-0.3-3.1-0.5c-1.9-0.1-3.4-0.2-4.3-0.2v-4.1h23.3v4.1c-2.1,0-4.2,0-6.4,0.1c-2.2,0.1-3.4,0.3-3.7,0.6l-13.9,18.3
		l19.8,27.7h8.1v4.1h-27.8v-4.1h6.4l-13.4-18.7l-13.4,18c0.1,0.2,1,0.3,2.9,0.5c1.8,0.1,3.4,0.2,4.5,0.2v4.1H2083.4z"/>
</g>
<g>
	<path class="st1" d="M1973.2,50.5l8.4-29.6h4.2l8.4,29.6h-3l-2.5-9.3h-9.9l-2.6,9.3H1973.2z M1979.5,38.7h8.6l-4.3-15.4
		L1979.5,38.7z"/>
	<path class="st1" d="M1997.1,50.5V29.9h2.6v5.5c0.6-1.4,1.1-2.3,1.4-2.8c1.3-2,2.9-3,5-3c0.2,0,0.4,0,0.7,0v2.2
		c-0.9,0.1-1.6,0.3-2.2,0.5s-1.2,0.6-1.7,1c-1,0.8-2,2.4-3.1,4.8v12.2H1997.1z"/>
	<path class="st1" d="M2012.2,47.2c0,2-0.2,3.1-0.5,3.2h-2.6c0.3-0.7,0.5-1.7,0.5-2.9V20.9h2.6v11.7c0.2-0.5,0.9-1.2,1.9-1.9
		c1-0.7,2.2-1.1,3.4-1.1c2.3,0,4.2,1,5.6,3s2.1,4.6,2.1,7.8c0,1.9-0.4,3.7-1.1,5.4c-0.8,2-2,3.3-3.6,4.1c-0.9,0.4-1.7,0.6-2.6,0.6
		s-1.7-0.1-2.3-0.4s-1.2-0.6-1.7-1C2013.1,48.6,2012.6,47.9,2012.2,47.2z M2012.2,45.1c1.3,1.8,2.5,2.9,3.5,3.2
		c0.5,0.2,1.1,0.3,1.9,0.3c0.8,0,1.5-0.2,2.2-0.6c0.7-0.4,1.2-1,1.7-1.7c0.8-1.5,1.2-3.4,1.2-5.7c0-5.8-1.9-8.7-5.8-8.7
		c-1.7,0-3.2,1-4.6,2.9V45.1z"/>
	<path class="st1" d="M2029,27.3v-2.9h2.9v2.9H2029z M2029.2,50.5V29.9h2.6v20.6H2029.2z"/>
	<path class="st1" d="M2035.5,32.1v-2.2h3.5v-7.5h2.6v7.5h4.7v2.2h-4.7v13.1c0,1.3,0.2,2.2,0.6,2.7c0.4,0.5,1.1,0.7,2,0.7
		c0.4,0,0.8,0,1.3-0.1c0.5-0.1,0.8-0.1,0.8-0.1v1.9c-0.9,0.3-1.7,0.5-2.5,0.5c-0.8,0-1.4,0-1.7-0.1c-0.3,0-0.7-0.2-1.1-0.4
		s-0.8-0.5-1.1-0.9c-0.7-0.9-1-2.3-1-4.3V32.1H2035.5z"/>
	<path class="st1" d="M2049,50.5V29.9h2.6v5.5c0.6-1.4,1.1-2.3,1.4-2.8c1.3-2,2.9-3,5-3c0.2,0,0.4,0,0.7,0v2.2
		c-0.9,0.1-1.6,0.3-2.2,0.5s-1.2,0.6-1.7,1c-1,0.8-2,2.4-3.1,4.8v12.2H2049z"/>
	<path class="st1" d="M2060.5,45.5c0-0.9,0.1-1.7,0.4-2.4c0.2-0.7,0.6-1.3,1.1-1.9c0.5-0.5,1.1-1,1.7-1.4c0.6-0.4,1.4-0.8,2.4-1.1
		c1.7-0.6,3.8-1.2,6.3-1.7c0-2.1-0.4-3.4-1.2-4.1c-0.7-0.6-1.7-0.9-3.1-0.9c-1.6,0-3.1,0.6-4.2,1.9c-0.5,0.5-0.9,1-1.1,1.4l-1.9-1.2
		c1.5-2.8,3.9-4.2,7.4-4.2c3.1,0,5.1,1.2,6,3.6c0.4,1,0.5,2.2,0.5,3.6v10.7c0,0.4,0.1,0.9,0.2,1.5c0.1,0.7,0.3,1.1,0.4,1.3h-2.6
		c-0.4-0.2-0.6-1.3-0.6-3.3c-1.8,2.4-3.9,3.5-6.1,3.5c-2.4,0-4.1-0.9-5.1-2.6C2060.8,47.3,2060.5,46.4,2060.5,45.5z M2063.6,43.2
		c-0.3,0.6-0.5,1.4-0.5,2.3c0,1,0.3,1.7,1,2.2c0.7,0.5,1.4,0.8,2.3,0.8c0.8,0,1.6-0.1,2.2-0.4c0.6-0.2,1.2-0.6,1.7-1
		c1-0.7,1.7-1.4,2.1-1.9v-6.2c-2.5,0.6-3.9,1-4.4,1.2C2065.7,41,2064.3,42,2063.6,43.2z"/>
	<path class="st1" d="M2079.6,50.5V29.9h2.6v5.5c0.6-1.4,1.1-2.3,1.4-2.8c1.3-2,2.9-3,5-3c0.2,0,0.4,0,0.7,0v2.2
		c-0.9,0.1-1.6,0.3-2.2,0.5s-1.2,0.6-1.7,1c-1,0.8-2,2.4-3.1,4.8v12.2H2079.6z"/>
	<path class="st1" d="M2095.1,57.9c-0.8,0.2-1.6,0.3-2.4,0.3s-1.6-0.1-2.4-0.2l0.2-2.4c0.5,0.2,1.1,0.3,1.9,0.3s1.4-0.1,1.9-0.3
		c0.5-0.2,0.9-0.5,1.2-0.8c0.3-0.3,0.6-0.7,0.9-1.1c0.3-0.4,0.5-0.8,0.6-1.2c0.3-0.7,0.5-1.4,0.6-2.1l-7.4-20.7h2.8l5.8,16.8
		l5.5-16.8h2.6l-7.2,21.9c-0.7,2.2-1.5,3.7-2.2,4.5C2096.7,57.1,2095.9,57.7,2095.1,57.9z"/>
	<path class="st1" d="M2118.9,40c0-3.1,0.7-5.7,2.1-7.5c1.4-1.9,3.4-2.8,5.9-2.8s4.5,1,5.9,2.9c1.4,1.9,2.1,4.4,2.1,7.6
		c0,3.2-0.7,5.7-2.1,7.7c-1.4,1.9-3.4,2.9-5.9,2.9c-2.6,0-4.6-1-6-3C2119.6,45.8,2118.9,43.2,2118.9,40z M2121.4,40.2
		c0,4.1,1.1,6.7,3.2,7.9c0.7,0.3,1.4,0.5,2.2,0.5c0.8,0,1.6-0.2,2.3-0.5c0.7-0.3,1.2-0.8,1.6-1.3c0.4-0.5,0.7-1.2,1-1.9
		c0.4-1.3,0.6-2.8,0.6-4.6c0-5.6-1.8-8.3-5.4-8.3S2121.4,34.6,2121.4,40.2z"/>
	<path class="st1" d="M2138.7,50.5V29.9h2.6v5.5c0.6-1.4,1.1-2.3,1.4-2.8c1.3-2,2.9-3,5-3c0.2,0,0.4,0,0.7,0v2.2
		c-0.9,0.1-1.6,0.3-2.2,0.5s-1.2,0.6-1.7,1c-1,0.8-2,2.4-3.1,4.8v12.2H2138.7z"/>
	<path class="st1" d="M2163.4,47.2c-1.3,2.3-3.2,3.5-5.5,3.5c-1.2,0-2.3-0.3-3.2-0.9c-1-0.6-1.8-1.4-2.4-2.4c-1.2-2-1.9-4.4-1.9-6.9
		c0-1.9,0.3-3.7,0.9-5.3c0.6-1.6,1.5-3,2.7-4c1.2-1,2.5-1.5,3.8-1.5c1.4,0,2.6,0.4,3.6,1.1c1,0.7,1.7,1.3,1.9,1.9V20.9h2.6v26.7
		c0,0.4,0.1,0.9,0.2,1.5c0.1,0.6,0.2,1.1,0.3,1.3h-2.6C2163.5,50.3,2163.4,49.3,2163.4,47.2z M2152.9,40.5c0,2.3,0.4,4.2,1.2,5.7
		c0.9,1.5,2.2,2.3,4.1,2.3c1.2,0,2.3-0.4,3-1.1c0.6-0.6,1.3-1.4,2.1-2.4V34.8c-1.4-2-2.9-2.9-4.6-2.9
		C2154.8,31.9,2152.9,34.7,2152.9,40.5z"/>
	<path class="st1" d="M2171.5,47.6c-0.6-1-1.1-2-1.5-3.2s-0.5-2.4-0.5-3.7s0.1-2.5,0.3-3.5c0.2-1.1,0.4-2,0.7-2.7
		c0.3-0.7,0.7-1.4,1.1-2c0.4-0.6,0.9-1,1.3-1.4c0.5-0.4,1-0.6,1.5-0.9c0.9-0.4,1.8-0.6,2.6-0.6c0.8,0,1.5,0.1,2.1,0.2
		c0.6,0.1,1.2,0.5,1.9,0.9c0.7,0.5,1.2,1.1,1.7,1.8c1.1,1.8,1.7,4.4,1.7,7.8h-12.4c0,3.5,0.9,5.8,2.6,7.1c0.9,0.6,1.8,0.9,2.9,0.9
		c2,0,3.7-1.2,5.1-3.7l1.8,1.2c-0.5,0.9-1.2,1.8-2,2.5c-1.6,1.4-3.1,2.1-4.6,2.1s-2.8-0.3-3.9-0.8
		C2173,49.3,2172.1,48.5,2171.5,47.6z M2172.2,38.3h9.7c0-1.9-0.4-3.5-1.3-4.8c-0.8-1.1-1.8-1.6-3.2-1.6c-2.3,0-3.8,1.1-4.6,3.2
		C2172.4,36,2172.2,37.1,2172.2,38.3z"/>
	<path class="st1" d="M2188.5,50.5V29.9h2.6v5.5c0.6-1.4,1.1-2.3,1.4-2.8c1.3-2,2.9-3,5-3c0.2,0,0.4,0,0.7,0v2.2
		c-0.9,0.1-1.6,0.3-2.2,0.5s-1.2,0.6-1.7,1c-1,0.8-2,2.4-3.1,4.8v12.2H2188.5z"/>
	<path class="st1" d="M2201,27.3v-2.9h2.9v2.9H2201z M2201.1,50.5V29.9h2.6v20.6H2201.1z"/>
	<path class="st1" d="M2209.1,50.5V29.9h2.6v3.4c1.1-1.1,2.2-2,3.3-2.6c1-0.6,2.2-0.9,3.6-0.9c1.4,0,2.6,0.5,3.5,1.4
		c1,0.9,1.4,2.3,1.4,4.1v15.4h-2.6V35.1c0-1-0.3-1.8-1-2.4c-0.7-0.6-1.4-0.9-2.3-0.9c-1.9,0-3.9,1.1-6,3.4v15.3H2209.1z"/>
	<path class="st1" d="M2227.3,56.3c-0.5-0.7-0.8-1.4-0.8-2.1s0.1-1.2,0.3-1.6s0.5-0.7,0.9-1.1c0.4-0.3,0.7-0.6,1-0.8
		c0.3-0.2,0.7-0.4,1.2-0.7s0.8-0.4,0.9-0.5c-1.1-0.2-1.9-0.6-2.4-1.2c-0.5-0.6-0.8-1.1-0.8-1.5c0-0.5,0.1-0.9,0.3-1.3
		c0.2-0.4,0.4-0.7,0.8-1.1c0.6-0.5,1-0.9,1.4-1.1c0.4-0.2,0.6-0.4,0.6-0.4c-0.8-0.7-1.5-1.5-2.1-2.6c-0.6-1.1-0.9-2.3-0.9-3.5
		c0-1.3,0.4-2.5,1.1-3.6c0.7-1.1,1.7-2,2.9-2.7c1.2-0.6,2.3-1,3.5-1c1.1,0,2,0.1,2.7,0.4s1.4,0.7,2.2,1.2c1-0.8,1.8-1.3,2.4-1.4
		c0.8-0.2,1.5-0.3,2.2-0.3V32h0c-2.2,0-3.3,0.2-3.3,0.6c0.7,1.2,1.1,2.1,1.2,2.7c0.2,0.6,0.2,1.2,0.2,1.7c0,2.1-0.7,3.9-2,5.3
		c-1.3,1.5-3.1,2.2-5.2,2.2c-1.1,0-2.3-0.2-3.5-0.7c-0.1,0.1-0.3,0.3-0.7,0.5c-0.8,0.5-1.2,1.1-1.2,1.6c0,0.6,0.3,1,0.8,1.2
		c0.4,0.2,0.9,0.3,1.6,0.4c0.6,0.1,1.1,0.2,1.3,0.2c0.3,0,0.7,0.1,1.3,0.1c1.5,0,3.2,0.3,5.2,0.7c1.3,0.3,2.3,0.9,3.1,1.8
		s1.2,2,1.2,3.2c0,3.7-3.1,5.6-9.4,5.6c-2.2,0-4.2-0.4-5.9-1.2C2228.6,57.6,2227.9,57,2227.3,56.3z M2229.1,53.8
		c0,1.3,0.7,2.1,2.1,2.6c1.2,0.4,2.3,0.6,3.3,0.6s1.7,0,2.1,0c0.3,0,0.8,0,1.3-0.1c0.5,0,1-0.1,1.3-0.2c0.3-0.1,0.7-0.2,1.1-0.4
		c0.4-0.2,0.7-0.4,1-0.6c0.5-0.5,0.8-1.2,0.8-2s-0.3-1.4-0.8-1.9c-0.5-0.5-1.2-0.8-2-1s-1.6-0.3-2.4-0.4s-1.5-0.1-2.2-0.2
		c-0.7,0-1.1-0.1-1.3-0.1c-1.4,0.5-2.3,0.9-2.7,1.2C2229.7,52,2229.1,52.8,2229.1,53.8z M2231.8,33.3c-1,1-1.5,2.2-1.5,3.7
		s0.5,2.8,1.4,3.8c0.9,1,2.2,1.5,3.7,1.5c1.6,0,2.8-0.5,3.6-1.5c0.8-1,1.2-2.3,1.2-3.8c0-1.5-0.4-2.7-1.2-3.7s-2-1.5-3.5-1.5
		S2232.8,32.3,2231.8,33.3z"/>
	<path class="st1" d="M2256.8,40c0-3.1,0.7-5.7,2.1-7.5c1.4-1.9,3.4-2.8,5.9-2.8s4.5,1,5.9,2.9c1.4,1.9,2.1,4.4,2.1,7.6
		c0,3.2-0.7,5.7-2.1,7.7c-1.4,1.9-3.4,2.9-5.9,2.9c-2.6,0-4.6-1-6-3C2257.5,45.8,2256.8,43.2,2256.8,40z M2259.4,40.2
		c0,4.1,1.1,6.7,3.2,7.9c0.7,0.3,1.4,0.5,2.2,0.5c0.8,0,1.6-0.2,2.3-0.5c0.7-0.3,1.2-0.8,1.6-1.3c0.4-0.5,0.7-1.2,1-1.9
		c0.4-1.3,0.6-2.8,0.6-4.6c0-5.6-1.8-8.3-5.4-8.3S2259.4,34.6,2259.4,40.2z"/>
	<path class="st1" d="M2285.2,20.9v2.2h-1.7c-2,0-2.9,0.8-2.9,2.5v4.4h4.7v2.2h-4.7v18.4h-2.6V32.1h-3.4v-2.2h3.4v-4.4
		c0-2.1,0.9-3.6,2.8-4.3c0.9-0.3,1.8-0.5,2.8-0.5C2284.5,20.7,2285.1,20.8,2285.2,20.9z"/>
	<path class="st1" d="M2297.8,50.5V29.9h2.6v3.4c1.1-1.1,2.2-2,3.3-2.6c1-0.6,2.2-0.9,3.6-0.9c1.4,0,2.6,0.5,3.5,1.4
		c1,0.9,1.4,2.3,1.4,4.1v15.4h-2.6V35.1c0-1-0.3-1.8-1-2.4c-0.7-0.6-1.4-0.9-2.3-0.9c-1.9,0-3.9,1.1-6,3.4v15.3H2297.8z"/>
	<path class="st1" d="M2315.9,40c0-3.1,0.7-5.7,2.1-7.5c1.4-1.9,3.4-2.8,5.9-2.8s4.5,1,5.9,2.9c1.4,1.9,2.1,4.4,2.1,7.6
		c0,3.2-0.7,5.7-2.1,7.7c-1.4,1.9-3.4,2.9-5.9,2.9c-2.6,0-4.6-1-6-3C2316.6,45.8,2315.9,43.2,2315.9,40z M2318.5,40.2
		c0,4.1,1.1,6.7,3.2,7.9c0.7,0.3,1.4,0.5,2.2,0.5c0.8,0,1.6-0.2,2.3-0.5c0.7-0.3,1.2-0.8,1.6-1.3c0.4-0.5,0.7-1.2,1-1.9
		c0.4-1.3,0.6-2.8,0.6-4.6c0-5.6-1.8-8.3-5.4-8.3S2318.5,34.6,2318.5,40.2z"/>
	<path class="st1" d="M2347.9,47.2c-1.3,2.3-3.2,3.5-5.5,3.5c-1.2,0-2.3-0.3-3.2-0.9c-1-0.6-1.8-1.4-2.4-2.4c-1.2-2-1.9-4.4-1.9-6.9
		c0-1.9,0.3-3.7,0.9-5.3c0.6-1.6,1.5-3,2.7-4c1.2-1,2.5-1.5,3.8-1.5c1.4,0,2.6,0.4,3.6,1.1c1,0.7,1.7,1.3,1.9,1.9V20.9h2.6v26.7
		c0,0.4,0.1,0.9,0.2,1.5c0.1,0.6,0.2,1.1,0.3,1.3h-2.6C2348.1,50.3,2347.9,49.3,2347.9,47.2z M2337.4,40.5c0,2.3,0.4,4.2,1.2,5.7
		c0.9,1.5,2.2,2.3,4.1,2.3c1.2,0,2.3-0.4,3-1.1c0.6-0.6,1.3-1.4,2.1-2.4V34.8c-1.4-2-2.9-2.9-4.6-2.9
		C2339.4,31.9,2337.4,34.7,2337.4,40.5z"/>
	<path class="st1" d="M2356,47.6c-0.6-1-1.1-2-1.5-3.2s-0.5-2.4-0.5-3.7s0.1-2.5,0.3-3.5c0.2-1.1,0.4-2,0.7-2.7
		c0.3-0.7,0.7-1.4,1.1-2c0.4-0.6,0.9-1,1.3-1.4c0.5-0.4,1-0.6,1.5-0.9c0.9-0.4,1.8-0.6,2.6-0.6c0.8,0,1.5,0.1,2.1,0.2
		c0.6,0.1,1.2,0.5,1.9,0.9c0.7,0.5,1.2,1.1,1.7,1.8c1.1,1.8,1.7,4.4,1.7,7.8h-12.4c0,3.5,0.9,5.8,2.6,7.1c0.9,0.6,1.8,0.9,2.9,0.9
		c2,0,3.7-1.2,5.1-3.7l1.8,1.2c-0.5,0.9-1.2,1.8-2,2.5c-1.6,1.4-3.1,2.1-4.6,2.1s-2.8-0.3-3.9-0.8
		C2357.5,49.3,2356.7,48.5,2356,47.6z M2356.8,38.3h9.7c0-1.9-0.4-3.5-1.3-4.8c-0.8-1.1-1.8-1.6-3.2-1.6c-2.3,0-3.8,1.1-4.6,3.2
		C2357,36,2356.8,37.1,2356.8,38.3z"/>
	<path class="st1" d="M2372.2,46.6l1.9-1.2c0.7,1.1,1.5,1.9,2.3,2.4c0.8,0.5,1.9,0.8,3.1,0.8c1.3,0,2.3-0.3,3.1-1
		c0.7-0.6,1-1.3,1-2.1c0-0.8-0.1-1.5-0.4-2c-0.3-0.5-0.7-0.9-1.2-1.2c-0.9-0.5-1.8-0.9-2.7-1.1c-0.9-0.2-1.7-0.4-2.2-0.6
		c-0.5-0.2-1.1-0.4-1.7-0.8c-0.6-0.3-1.1-0.7-1.5-1.1c-1-0.9-1.4-2.1-1.4-3.7c0-1.5,0.6-2.8,1.8-3.8c1.2-1,2.8-1.5,4.7-1.5
		c2.2,0,4.1,0.8,5.6,2.4c0.3,0.3,0.5,0.6,0.7,0.9l-1.8,1.3c-0.1-0.1-0.3-0.3-0.5-0.6s-0.4-0.5-0.5-0.6l-0.5-0.4
		c-0.2-0.2-0.4-0.3-0.6-0.4l-0.7-0.2c-0.4-0.2-1.1-0.2-2.1-0.2c-1,0-1.8,0.3-2.6,0.8c-0.7,0.6-1.1,1.2-1.1,1.9
		c0,0.7,0.1,1.2,0.4,1.6s0.6,0.8,1.1,1.1c0.8,0.5,1.6,0.9,2.6,1.2c1,0.3,1.6,0.5,2,0.6c0.3,0.1,0.7,0.3,1.3,0.5
		c0.5,0.2,1,0.4,1.3,0.6c0.3,0.2,0.7,0.5,1,0.8c0.4,0.3,0.7,0.7,0.9,1c0.5,0.9,0.8,1.8,0.8,2.9c0,1.7-0.7,3.2-2,4.3
		c-1.3,1.1-2.8,1.7-4.6,1.7c-1.7,0-3.2-0.3-4.4-1C2374.2,49.1,2373.1,48,2372.2,46.6z"/>
</g>
<rect x="2654.8" y="144.1" class="st6" width="672" height="640.8"/>
<g>
	<path class="st1" d="M2704.4,79.7l8.4-29.6h4.2l8.4,29.6h-3l-2.5-9.3h-9.9l-2.6,9.3H2704.4z M2710.6,67.9h8.6l-4.3-15.4
		L2710.6,67.9z"/>
	<path class="st1" d="M2740.5,76.4c-1.3,2.3-3.2,3.5-5.5,3.5c-1.2,0-2.3-0.3-3.2-0.9c-1-0.6-1.8-1.4-2.4-2.4c-1.2-2-1.9-4.4-1.9-6.9
		c0-1.9,0.3-3.7,0.9-5.3c0.6-1.6,1.5-3,2.7-4c1.2-1,2.5-1.5,3.8-1.5c1.4,0,2.6,0.4,3.6,1.1c1,0.7,1.7,1.3,1.9,1.9V50.1h2.6v26.7
		c0,0.4,0.1,0.9,0.2,1.5c0.1,0.6,0.2,1.1,0.3,1.3h-2.6C2740.6,79.5,2740.5,78.4,2740.5,76.4z M2730,69.7c0,2.3,0.4,4.2,1.2,5.7
		c0.9,1.5,2.2,2.3,4.1,2.3c1.2,0,2.3-0.4,3-1.1c0.6-0.6,1.3-1.4,2.1-2.4V64c-1.4-2-2.9-2.9-4.6-2.9C2731.9,61,2730,63.9,2730,69.7z"
		/>
	<path class="st1" d="M2743.9,84.1c1.3,0,2.2-0.2,2.7-0.7c0.6-0.4,0.8-1.5,0.8-3.2V59.1h2.6v20.6c0,2.2-0.3,3.8-0.8,4.6
		c-0.2,0.3-0.4,0.6-0.6,0.8c-0.2,0.2-0.4,0.4-0.7,0.5c-0.3,0.1-0.6,0.3-0.8,0.3c-0.2,0.1-0.5,0.1-0.9,0.2c-0.5,0.1-1,0.1-1.5,0.1
		h-0.7L2743.9,84.1z M2747.3,56.5v-2.9h2.9v2.9H2747.3z"/>
	<path class="st1" d="M2753.7,74.6c0-0.9,0.1-1.7,0.4-2.4c0.2-0.7,0.6-1.3,1.1-1.9c0.5-0.5,1.1-1,1.7-1.4c0.6-0.4,1.4-0.8,2.4-1.1
		c1.7-0.6,3.8-1.2,6.3-1.7c0-2.1-0.4-3.4-1.2-4.1c-0.7-0.6-1.7-0.9-3.1-0.9c-1.6,0-3.1,0.6-4.2,1.9c-0.5,0.5-0.9,1-1.1,1.4l-1.9-1.2
		c1.5-2.8,3.9-4.2,7.4-4.2c3.1,0,5.1,1.2,6,3.6c0.4,1,0.5,2.2,0.5,3.6v10.7c0,0.4,0.1,0.9,0.2,1.5c0.1,0.7,0.3,1.1,0.4,1.3h-2.6
		c-0.4-0.2-0.6-1.3-0.6-3.3c-1.8,2.4-3.9,3.5-6.1,3.5c-2.4,0-4.1-0.9-5.1-2.6C2753.9,76.5,2753.7,75.6,2753.7,74.6z M2756.7,72.4
		c-0.3,0.6-0.5,1.4-0.5,2.3c0,1,0.3,1.7,1,2.2c0.7,0.5,1.4,0.8,2.3,0.8c0.8,0,1.6-0.1,2.2-0.4c0.6-0.2,1.2-0.6,1.7-1
		c0.9-0.7,1.7-1.4,2.1-1.9v-6.2c-2.5,0.6-3.9,1-4.4,1.2C2758.9,70.2,2757.4,71.2,2756.7,72.4z"/>
	<path class="st1" d="M2771.8,69.5c0-7.1,2.8-10.7,8.3-10.7c1.4,0,2.5,0.3,3.5,1c0.9,0.7,1.5,1.2,1.8,1.8c0.5,0.9,0.9,1.6,1.1,2.2
		l-2.1,0.9c0-0.3-0.2-0.6-0.4-1.2s-0.5-0.9-0.8-1.2c-0.3-0.3-0.7-0.6-1.2-0.9c-0.5-0.3-1.2-0.4-1.8-0.4c-3.8,0-5.7,2.8-5.7,8.3
		c0,2.7,0.5,4.7,1.5,6.2c1,1.4,2.4,2.2,4.2,2.2c1.2,0,2.3-0.5,3.1-1.4c0.7-0.8,1.2-1.5,1.4-2.2l0.2-0.4l2,1
		c-0.5,1.3-1.2,2.4-2.2,3.4c-0.5,0.5-1.1,0.9-1.9,1.2c-0.8,0.4-1.7,0.6-2.6,0.6c-2.8,0-4.9-0.9-6.3-2.7S2771.8,72.8,2771.8,69.5z"/>
	<path class="st1" d="M2791.9,76.8c-0.6-1-1.1-2-1.5-3.2s-0.5-2.4-0.5-3.7s0.1-2.5,0.3-3.5c0.2-1.1,0.4-2,0.7-2.7
		c0.3-0.7,0.7-1.4,1.1-2c0.4-0.6,0.9-1,1.3-1.4c0.5-0.4,0.9-0.6,1.5-0.9c0.9-0.4,1.8-0.6,2.6-0.6c0.8,0,1.5,0.1,2.1,0.2
		c0.6,0.1,1.2,0.5,1.9,0.9c0.7,0.5,1.2,1.1,1.7,1.8c1.1,1.8,1.7,4.4,1.7,7.8h-12.4c0,3.5,0.9,5.8,2.6,7.1c0.9,0.6,1.8,0.9,2.9,0.9
		c2,0,3.7-1.2,5.1-3.7l1.8,1.2c-0.5,0.9-1.2,1.8-2,2.5c-1.6,1.4-3.1,2.1-4.6,2.1s-2.8-0.3-3.9-0.8
		C2793.4,78.5,2792.5,77.7,2791.9,76.8z M2792.6,67.5h9.7c0-1.9-0.4-3.5-1.3-4.8c-0.8-1.1-1.8-1.6-3.2-1.6c-2.3,0-3.8,1.1-4.6,3.2
		C2792.8,65.2,2792.6,66.3,2792.6,67.5z"/>
	<path class="st1" d="M2808.9,79.7V59.1h2.6v3.4c1.1-1.1,2.2-2,3.3-2.6c1-0.6,2.2-0.9,3.6-0.9c1.4,0,2.6,0.5,3.5,1.4
		c1,0.9,1.4,2.3,1.4,4.1v15.4h-2.6V64.3c0-1-0.3-1.8-1-2.4c-0.7-0.6-1.4-0.9-2.3-0.9c-1.9,0-3.9,1.1-6,3.4v15.3H2808.9z"/>
	<path class="st1" d="M2826.9,69.5c0-7.1,2.8-10.7,8.3-10.7c1.4,0,2.5,0.3,3.5,1c0.9,0.7,1.5,1.2,1.8,1.8c0.5,0.9,0.9,1.6,1.1,2.2
		l-2.1,0.9c0-0.3-0.2-0.6-0.4-1.2s-0.5-0.9-0.8-1.2c-0.3-0.3-0.7-0.6-1.2-0.9c-0.5-0.3-1.2-0.4-1.8-0.4c-3.8,0-5.7,2.8-5.7,8.3
		c0,2.7,0.5,4.7,1.5,6.2c1,1.4,2.4,2.2,4.2,2.2c1.2,0,2.3-0.5,3.1-1.4c0.7-0.8,1.2-1.5,1.4-2.2l0.2-0.4l2,1
		c-0.5,1.3-1.2,2.4-2.2,3.4c-0.5,0.5-1.1,0.9-1.9,1.2c-0.8,0.4-1.7,0.6-2.6,0.6c-2.8,0-4.9-0.9-6.3-2.7S2826.9,72.8,2826.9,69.5z"/>
	<path class="st1" d="M2848.9,87c-0.8,0.2-1.6,0.3-2.4,0.3s-1.6-0.1-2.4-0.2l0.2-2.4c0.5,0.2,1.1,0.3,1.9,0.3s1.4-0.1,1.9-0.3
		c0.5-0.2,0.9-0.5,1.2-0.8c0.3-0.3,0.6-0.7,0.9-1.1c0.3-0.4,0.5-0.8,0.6-1.2c0.3-0.7,0.5-1.4,0.6-2.1l-7.4-20.7h2.8l5.8,16.8
		l5.5-16.8h2.6l-7.2,21.9c-0.7,2.2-1.5,3.7-2.2,4.5C2850.5,86.3,2849.7,86.8,2848.9,87z"/>
	<path class="st1" d="M2873.6,79.7V59.1h2.6v3.4c1.8-1.8,3.4-2.9,4.7-3.3c0.6-0.2,1.4-0.3,2.4-0.3c1,0,1.9,0.3,2.8,0.9
		c0.9,0.6,1.5,1.6,1.8,2.8c1.9-1.9,3.5-3,4.9-3.5c0.6-0.2,1.3-0.3,2-0.3c1.5,0,2.7,0.5,3.7,1.4c1,0.9,1.4,2.3,1.4,4.1v15.4h-2.6
		V64.3c0-1-0.3-1.8-1-2.4c-0.7-0.6-1.4-0.9-2.3-0.9c-1.9,0-3.9,1.1-6,3.4v15.3h-2.6V64.3c0-1-0.3-1.8-1-2.4
		c-0.7-0.6-1.4-0.9-2.3-0.9c-1.9,0-3.9,1.1-6,3.4v15.3H2873.6z"/>
	<path class="st1" d="M2903.4,74.6c0-0.9,0.1-1.7,0.4-2.4c0.2-0.7,0.6-1.3,1.1-1.9c0.5-0.5,1.1-1,1.7-1.4c0.6-0.4,1.4-0.8,2.4-1.1
		c1.7-0.6,3.8-1.2,6.3-1.7c0-2.1-0.4-3.4-1.2-4.1c-0.7-0.6-1.7-0.9-3.1-0.9c-1.6,0-3.1,0.6-4.2,1.9c-0.5,0.5-0.9,1-1.1,1.4l-1.9-1.2
		c1.5-2.8,3.9-4.2,7.4-4.2c3.1,0,5.1,1.2,6,3.6c0.4,1,0.5,2.2,0.5,3.6v10.7c0,0.4,0.1,0.9,0.2,1.5c0.1,0.7,0.3,1.1,0.4,1.3h-2.6
		c-0.4-0.2-0.6-1.3-0.6-3.3c-1.8,2.4-3.9,3.5-6.1,3.5c-2.4,0-4.1-0.9-5.1-2.6C2903.7,76.5,2903.4,75.6,2903.4,74.6z M2906.5,72.4
		c-0.3,0.6-0.5,1.4-0.5,2.3c0,1,0.3,1.7,1,2.2c0.7,0.5,1.4,0.8,2.3,0.8c0.8,0,1.6-0.1,2.2-0.4c0.6-0.2,1.2-0.6,1.7-1
		c0.9-0.7,1.7-1.4,2.1-1.9v-6.2c-2.5,0.6-3.9,1-4.4,1.2C2908.6,70.2,2907.2,71.2,2906.5,72.4z"/>
	<path class="st1" d="M2920.9,61.3v-2.2h3.5v-7.5h2.6v7.5h4.7v2.2h-4.7v13.1c0,1.3,0.2,2.2,0.6,2.7c0.4,0.5,1.1,0.7,2,0.7
		c0.4,0,0.8,0,1.3-0.1c0.5-0.1,0.8-0.1,0.8-0.1v1.9c-0.9,0.3-1.7,0.5-2.5,0.5c-0.8,0-1.4,0-1.7-0.1c-0.3,0-0.7-0.2-1.1-0.4
		s-0.8-0.5-1.1-0.9c-0.7-0.9-1-2.3-1-4.3V61.3H2920.9z"/>
	<path class="st1" d="M2934.3,79.7V59.1h2.6v5.5c0.6-1.4,1.1-2.3,1.4-2.8c1.3-2,2.9-3,5-3c0.2,0,0.4,0,0.7,0v2.2
		c-0.9,0.1-1.6,0.3-2.2,0.5s-1.2,0.6-1.7,1c-1,0.8-2,2.4-3.1,4.8v12.2H2934.3z"/>
	<path class="st1" d="M2946.8,56.5v-2.9h2.9v2.9H2946.8z M2947,79.7V59.1h2.6v20.6H2947z"/>
	<path class="st1" d="M2953.1,79.7l6.4-10.6l-6.2-10h2.9l4.8,7.6l5-7.6h2.9l-6.5,9.9l6.7,10.7h-2.9l-5.2-8.3l-5,8.3H2953.1z"/>
	<path class="st1" d="M2982,79.7V59.1h2.6v3.4c1.1-1.1,2.2-2,3.3-2.6c1-0.6,2.2-0.9,3.6-0.9c1.4,0,2.6,0.5,3.5,1.4
		c1,0.9,1.4,2.3,1.4,4.1v15.4h-2.6V64.3c0-1-0.3-1.8-1-2.4c-0.7-0.6-1.4-0.9-2.3-0.9c-1.9,0-3.9,1.1-6,3.4v15.3H2982z"/>
	<path class="st1" d="M2999,79.7l6.4-10.6l-6.2-10h2.9l4.8,7.6l5-7.6h2.9l-6.5,9.9l6.7,10.7h-2.9l-5.2-8.3l-5,8.3H2999z"/>
	<path class="st1" d="M3017.9,79.7V59.1h2.6v3.4c1.1-1.1,2.2-2,3.3-2.6c1-0.6,2.2-0.9,3.6-0.9c1.4,0,2.6,0.5,3.5,1.4
		c1,0.9,1.4,2.3,1.4,4.1v15.4h-2.6V64.3c0-1-0.3-1.8-1-2.4c-0.7-0.6-1.4-0.9-2.3-0.9c-1.9,0-3.9,1.1-6,3.4v15.3H3017.9z"/>
</g>
<g>
	<path class="st1" d="M2083.8,952.5v-4.1h8.6v-46.8h-8.6v-4.1h32.9c2.7,0,5.3,0.3,7.8,0.8c2.5,0.6,4.8,1.5,6.9,2.7
		c2.1,1.2,3.8,2.9,5.1,5s1.9,4.5,1.9,7.3c0,3.6-1.1,6.6-3.3,8.8c-2.2,2.3-4.9,3.9-8.2,4.9c-3.3,1-6.7,1.5-10.2,1.5h-12.6v19.8h8.6
		v4.1H2083.8z M2103.6,925h9.9c3.2,0,5.6-0.3,7.4-1c1.7-0.7,3-1.8,3.7-3.5c0.7-1.7,1.1-4.1,1.1-7.2c0-3.1-0.4-5.5-1.1-7.2
		c-0.7-1.7-2-2.8-3.7-3.5c-1.8-0.7-4.2-1-7.4-1h-9.9V925z"/>
	<path class="st1" d="M2146.3,952.5v-4.1c6.3,0,9.7-0.2,10.2-0.7l16.4-21.9l-17.4-24.2h-8.1v-4.1h27.8v4.1h-6.4l10.8,15.2l10.9-14.5
		c-0.1-0.2-1.2-0.3-3.1-0.5c-1.9-0.1-3.4-0.2-4.3-0.2v-4.1h23.3v4.1c-2.1,0-4.2,0-6.4,0.1c-2.2,0.1-3.4,0.3-3.7,0.6l-13.9,18.3
		l19.8,27.7h8.1v4.1h-27.8v-4.1h6.4l-13.4-18.7l-13.4,18c0.1,0.2,1,0.3,2.9,0.5c1.8,0.1,3.4,0.2,4.5,0.2v4.1H2146.3z"/>
</g>
<g>
	<path class="st1" d="M2915.4,902.3v-4.1h8.6v-46.8h-8.6v-4.1h32.9c2.7,0,5.3,0.3,7.8,0.8c2.5,0.6,4.8,1.5,6.9,2.7
		c2.1,1.2,3.8,2.9,5.1,5s1.9,4.5,1.9,7.3c0,3.6-1.1,6.6-3.3,8.8c-2.2,2.3-4.9,3.9-8.2,4.9c-3.3,1-6.7,1.5-10.2,1.5h-12.6v19.8h8.6
		v4.1H2915.4z M2935.3,874.9h9.9c3.2,0,5.6-0.3,7.4-1c1.7-0.7,3-1.8,3.7-3.5c0.7-1.7,1.1-4.1,1.1-7.2c0-3.1-0.4-5.5-1.1-7.2
		c-0.7-1.7-2-2.8-3.7-3.5c-1.8-0.7-4.2-1-7.4-1h-9.9V874.9z"/>
	<path class="st1" d="M2978.5,902.3v-4.1c5.1,0,7.8-0.2,8.2-0.7l20.2-49.6c0.1-0.4,0.4-0.7,0.8-1c0.4-0.3,0.9-0.4,1.3-0.4h1.8
		c0.4,0,0.9,0.1,1.3,0.4s0.7,0.6,0.9,1l20.5,50.4h7.9v4.1h-27.5v-4.1h7.5l-4.5-11h-21.1l-4.2,10.3c0,0.3,0.7,0.4,2.1,0.4
		c1.6,0.2,3.3,0.3,5.1,0.3v4.1H2978.5z M2997.4,883.2h17.8l-8.9-21.9L2997.4,883.2z"/>
	<path class="st1" d="M3047.9,902.3v-4.1h8.6v-46.8h-8.6v-4.1h32.9c2.7,0,5.3,0.3,7.8,0.8c2.5,0.6,4.8,1.5,6.9,2.7
		c2.1,1.2,3.8,2.9,5.1,5s1.9,4.5,1.9,7.3c0,3.6-1.1,6.6-3.3,8.8c-2.2,2.3-4.9,3.9-8.2,4.9c-3.3,1-6.7,1.5-10.2,1.5h-12.6v19.8h8.6
		v4.1H3047.9z M3067.7,874.9h9.9c3.2,0,5.6-0.3,7.4-1c1.7-0.7,3-1.8,3.7-3.5c0.7-1.7,1.1-4.1,1.1-7.2c0-3.1-0.4-5.5-1.1-7.2
		c-0.7-1.7-2-2.8-3.7-3.5c-1.8-0.7-4.2-1-7.4-1h-9.9V874.9z"/>
	<path class="st1" d="M3121.5,902.3v-4.1h12.3v-46.8h-5.8c-4.4,0-7.6,1-9.6,3.1c-1.1,1.1-1.8,2.6-2.2,4.4c-0.4,1.8-0.8,4.5-1.2,8
		h-4.1l1.7-19.6h53.8l1.7,19.6h-4.1c-0.3-3-0.6-5.6-1-7.6c-0.4-2.1-1.2-3.7-2.3-4.8c-2-2.1-5.2-3.1-9.5-3.1h-5.7v46.8h12.2v4.1
		H3121.5z"/>
</g>
<g>
	<path class="st1" d="M128.6,285.6c0-1,0.3-1.8,1-2.5c0.7-0.7,1.5-1.1,2.5-1.1c0.6,0,1.2,0.2,1.6,0.6c0.4,0.4,0.7,0.9,0.7,1.6
		c0,0.8-0.2,1.5-0.7,2.1c-0.5,0.6-1.1,1-1.8,1.2c0.7,0.3,1.4,0.4,2.1,0.4c1.7,0,3.2-0.8,4.4-2.4c1.2-1.6,2.1-3.3,2.6-5.3l5.6-22.6
		c0.3-1.2,0.4-2.1,0.4-2.9c0-1.7-0.6-2.6-1.8-2.6c-1.8,0-3.3,0.8-4.6,2.4c-1.3,1.6-2.4,3.4-3.2,5.5c-0.1,0.3-0.2,0.4-0.5,0.4h-0.7
		c-0.3,0-0.5-0.2-0.5-0.6v-0.2c0.9-2.4,2.2-4.5,3.8-6.4c1.7-1.8,3.6-2.8,5.8-2.8c1.7,0,3,0.5,4.1,1.6c1.1,1,1.6,2.4,1.6,4
		c0,0.6-0.1,1.1-0.2,1.7l-5.7,22.8c-0.4,1.6-1.2,3.1-2.3,4.5s-2.5,2.4-4.1,3.2c-1.6,0.8-3.2,1.2-4.9,1.2c-1.3,0-2.6-0.3-3.6-1
		C129.1,287.8,128.6,286.8,128.6,285.6z M147.5,240.7c0-0.9,0.3-1.6,1-2.3c0.7-0.7,1.5-1,2.3-1c0.7,0,1.3,0.2,1.7,0.6
		c0.4,0.4,0.7,0.9,0.7,1.6c0,0.9-0.4,1.7-1.1,2.3c-0.7,0.7-1.5,1-2.4,1c-0.6,0-1.2-0.2-1.6-0.7C147.7,241.9,147.5,241.3,147.5,240.7
		z"/>
</g>
<g>
	<path class="st1" d="M56,532.5c0-0.7,0.2-1.5,0.5-2.3l4.9-12.9c0.5-1.5,0.8-2.7,0.8-3.6c0-1.2-0.4-1.8-1.3-1.8
		c-1.6,0-2.9,0.8-3.9,2.4c-1,1.6-1.8,3.4-2.3,5.5c-0.1,0.3-0.2,0.4-0.5,0.4h-0.7c-0.3,0-0.5-0.2-0.5-0.6v-0.2c0.6-2.4,1.6-4.5,3-6.3
		c1.3-1.8,3-2.8,5-2.8c1.4,0,2.6,0.5,3.6,1.4c1,0.9,1.5,2.1,1.5,3.6c0,0.7-0.2,1.5-0.5,2.3l-4.9,12.9c-0.5,1.3-0.8,2.5-0.8,3.6
		c0,1.2,0.5,1.8,1.4,1.8c1.6,0,2.9-0.8,3.9-2.5c1-1.7,1.8-3.5,2.2-5.4c0.1-0.2,0.2-0.4,0.5-0.4h0.7c0.2,0,0.3,0.1,0.4,0.2
		c0.1,0.1,0.1,0.2,0.1,0.4c0,0,0,0.1-0.1,0.2c-0.5,2.3-1.5,4.4-2.9,6.3c-1.4,1.9-3,2.9-5.1,2.9c-1.4,0-2.6-0.5-3.6-1.5
		S56,533.8,56,532.5z M62.8,500.4c0-0.8,0.4-1.6,1.1-2.3s1.5-1,2.3-1c0.7,0,1.2,0.2,1.7,0.6c0.4,0.4,0.7,0.9,0.7,1.6
		c0,0.9-0.4,1.7-1.1,2.3c-0.7,0.7-1.5,1-2.4,1c-0.6,0-1.2-0.2-1.6-0.7C63,501.6,62.8,501,62.8,500.4z"/>
</g>
<g>
	<g>
		<path class="st1" d="M175.8,490.2c-10.9,14.3-22.8,42.4-22.3,49.1c0.1,0.8-0.1,1.3,0.1,1.5s0.5,0.3,0.9,0.2c0.7,0,0.5,0.8-0.1,1.2
			c-0.6,0.4-1.8,0.4-2.3-0.3c-0.3-0.4-0.5-1.1-0.4-2.2c0.5-10.8,11.5-33.1,17.3-42.2c1-1.5-0.6-0.5-1.1,0
			c-8.3,7.7-17.8,16.9-26.3,24.1c-1.1,0.9-5.4,2.6-3.1-2.1c4-7.9,10.8-19.8,17-25.9c1.3-1.3,3.2-0.7,2.7,0.2
			c-0.6,0.9-1.1,1.8-1.7,2.8c-0.8,1.4-0.9-0.3-1.8,0.8c-4.5,5.1-14,20.6-14.4,23.8l34.6-32C175.1,489,176.3,489.6,175.8,490.2z"/>
	</g>
	<g>
		<path class="st1" d="M253.1,265.8c-0.3,1.5,1.3,0.4,0.6,2.1c-0.6,1.4-2.5,1.1-2.5-0.8c-0.1-1.3,0.8-4.9,1.1-5.7
			c4.2-14.1,17.7-37.1,19.7-48.9c-4.6,2.1-9,6.9-12,10.8c-0.4,0.5-1.7-0.4-1.3-1c1.9-2.5,8.7-9.7,11.7-10.6c1.7-0.5,3.7,0.5,3.3,2.1
			C268.9,231.7,256.8,249.1,253.1,265.8z"/>
	</g>
	<g>
		<path class="st1" d="M516.3,233.8c-4,3.7-4.9,5-9.4,7.4c-1.3,0.7-8.5-2.3,8.5-9.9c4.3-1.9,23.7-31.4,23.6-42.2
			c0-4.8-14.2,2.7-16.7,10.8c-4.5-2,6.9-12.6,13.2-13.7c3.6-0.6,6.2,3,4.7,7.8c-4,13.2-13.8,26.2-20.7,36.3c4.7-0.8,17.4-3.2,20.2,4
			c0.3,0.7-0.9,1.2-1.2,0.4c-0.3-1-0.6-2.5-2.8-3.3C531.3,229.7,519.2,231.1,516.3,233.8z M513.8,234c-2.9,1-6.7,3.8-7.7,5.6
			C508.3,238.7,511.8,236.1,513.8,234z"/>
	</g>
	<g>
		<path class="st1" d="M972,267.4c-0.5,1.1-2.1,0.4-1.7-0.6c3.1-7.9,21.9-19.8,25-27.6c1.9-5-12.7-1.3-14.9-1.1
			c-0.8,0-1.7-2.2-1.1-2.9c6-5.5,22-17.2,21.7-21.8c-3.8-1.9-19.9,3.6-23.2,9.1c-0.3,0.5-0.2,0.9,0.2,1c0.6,0.3,0.3,0.9-0.4,0.8
			c-0.9-0.1-2.2-0.9-1.4-2.5c0.5-1,1.7-2.3,4.3-4c5-3.3,10.5-5.3,16.4-6.1c3.5-0.4,6.1,1.3,5.2,4.2c-1.3,4.2-17.4,16.6-21.4,20.5
			c4.1-0.5,8-1.7,12.4-1c4,0.6,5,4.4,1.6,8.3C988.7,250.8,974.8,261.2,972,267.4z"/>
	</g>
	<g>
		<path class="st1" d="M754.3,415.5c0.3-0.6-0.1-0.8-0.5-0.4c-9.8,10.8-20.9,31.7-23,43.2c-0.1,0.6,0,0.8,0.5,0.3
			c6.2-6.8,12-12.8,19.9-17.6c1-0.6,5.3-0.8,4.2,2.5c-2.2,7.1-15.1,22-21.4,23c-2.9,0.4-4.3-0.7-5.1-2.2c-0.8,0.8-1.7,1.9-1.9,3.2
			c-0.1,0.5-1.4,0.4-1.3-0.2c0.1-1.9,2.9-4.4,3-5.8c0.2-12.2,14.7-38.7,24.9-48.5c2.5-2.4,4.7-1.4,2.1,2.8
			c-0.9,1.5-6.6,10.6-7.5,11.7c-0.2,0.3-0.7,0-0.6-0.3C748.1,425.9,752.8,418,754.3,415.5z M730.7,462.4
			c0.1,12.3,22.8-14.4,23.2-20.6C747.9,443.2,730.6,460.4,730.7,462.4z"/>
	</g>
	<g>
		<path class="st1" d="M500.6,612.7c-1,0.6-4.7,1.4-4.3-0.8c0.1-0.7,0.6-1.6,1.1-2.1c0.4-0.4,1.4-0.1,1,0.4c-1,1.3-1.6,3.3,0.8,1.9
			c5.6-3.2,14.7-12.1,17.8-18.8c4.2-9-4.1-7.5-10.4-8.1c-3.8-0.4-7-1.4-5.9-4.5c1.7-4.7,7.7-12,11.1-16.1c-1.2,0.3-2.1,0.6-2.7,1.3
			c-0.8,0.9-2.7-1.2,0.3-2.3c7-2.8,16.5-3.8,21.3-2.5c0.7,0.2,0.3,1.8-0.6,1.5c-2.6-0.8-8-0.8-14.8,0.9c-0.4,0.1-0.8,0.4-1.1,0.6
			c-2.3,3-9.8,12.1-11.4,16.8c-1,3,1.2,3.2,4.2,3.4c6.4,0.5,16.5-0.7,11.9,9C515.7,600.6,507.6,608.5,500.6,612.7z"/>
	</g>
	<g>
		<path class="st1" d="M818.2,683.3c-3.7-1-5.1-3.5-5.1-6.7c0-8,9.1-20.4,12.5-24.1c1.2-1.3,2.5-2.7,2.9-3.7
			c3-7.9,12.2-17.5,19-18.8c0.3-0.1,0.6-0.1,0.9-0.1c1.5,0,2.1,0.9,2.1,2.1c0,0.6-0.1,1.3-0.4,2c-2.7,7.2-13.4,20.9-18.1,28.1
			c0.6,0.8,2.1,2,3,2.7c2.3,1.7,5.2,3.3,7.1,5.4c1,1.1,1.4,2.1,1.4,3.2c0,2.2-1.8,4.1-3.9,5.5c-4.4,2.9-10.3,5-15.9,5
			C821.8,684,820,683.8,818.2,683.3z M841.6,673.2c0-1.3-0.7-2.5-2.3-3.8c-2.5-2-5.7-4.1-8.1-6.1c-2.9,4.3-5.6,8.7-8.2,13.2
			c-0.1,0.2-0.3,0.2-0.4,0.2c-0.3,0-0.7-0.3-0.7-0.6l0.1-0.2c2.3-4.3,5.6-9.2,8.4-13.7c-1.9-2.3-2.7-4.8-2.7-7.5c0-0.5,0-1,0.1-1.5
			v-0.2c0-0.3-0.1-0.4-0.2-0.4c-0.1,0-0.3,0.1-0.5,0.4c-4.3,5.2-12.3,16.6-12.3,23.8c0,3.1,1.4,5.4,5.2,6.2c0.7,0.1,1.5,0.2,2.4,0.2
			C829.6,683,841.6,678.4,841.6,673.2z M849,631.6c0-0.2-0.1-0.4-0.1-0.6c-5.7,0.5-16.3,11.1-18.6,18c0.6,0.2,1.1,0.8,1.1,1.1
			c0,0.2-0.1,0.4-0.5,0.4h-0.2c-1,0-1.1,0.7-1.3,1.4c-0.1,0.8-0.2,1.7-0.2,2.8c0,2,0.4,4.3,2,6.4C833.2,658.2,849,636.2,849,631.6z"
			/>
	</g>
	<g>
		<path class="st1" d="M1056.1,578.3c-0.6,1.7,1.4,1.2,0.6,2.4c-0.3,0.4-0.9,0.6-1.4,0.4c-1.1-0.3-1.8-1.7-0.1-5.3
			c5.7-12.1,9.2-17.6,15.5-29.1c-1.8,0.3-6.4,3.5-8,5.5c-0.5,0.6-2.1-0.7-1.2-1.8c2-2.5,8.4-5.6,10-6.3c0.6-0.3,1.1-0.8,1.5-1.4
			c2-3.3,5.2-9.8,5.9-13.9c-3.8-1.3-17.1,5.6-19.6,8.8c-0.5,0.6-0.2,0.9,0.3,1.1c0.3,0.1,0.2,0.6-0.6,0.7c-1.7,0.2-3.8-0.8,0.8-4.4
			c4.5-3.6,10.7-6.6,16.2-7.8c2.6-0.6,4.8,1.4,4.4,3.4c-0.8,3.5-2.9,7.9-5,12c1.5-0.4,4.8-0.9,6.5-0.6c0.3,0.1,0.5,1.3-0.1,1.3
			c-2.7,0-7.2,0.6-8.3,2.4C1069.3,552.8,1059.2,569.5,1056.1,578.3z"/>
	</g>
	<g>
		<path class="st1" d="M289.5,920.4c-0.3,1.5,1.3,0.4,0.6,2.1c-0.6,1.4-2.5,1.1-2.5-0.8c-0.1-1.3,0.8-4.9,1.1-5.7
			c4.2-14.1,17.7-37.1,19.7-48.9c-4.6,2.1-9,6.9-12,10.8c-0.4,0.5-1.7-0.4-1.3-1c1.9-2.5,8.7-9.7,11.7-10.6c1.7-0.5,3.7,0.5,3.3,2.1
			C305.3,886.3,293.2,903.7,289.5,920.4z"/>
		<path class="st1" d="M317.6,920.6c-3.2,2.1-7.3,2.2-9.4-1.4c-4.9-8.3,4.5-33.8,10-41.2c0.8-1.1,2.4,0.3,1.8,1.1
			c-5.7,7.7-15.4,33.8-9.4,40.9c3.6,4.3,11.1-5.6,13.1-8.3c6-8.1,10.4-17,12.9-26.7c1.6-6.1,2.9-17.5-2.4-19c-9.3-2.8-22,13.9-23,22
			c-0.1,0.7-1.4,0.7-1.3-0.2c3.1-14.7,16.1-24.4,24.1-22.5c3.5,0.8,5.8,3.9,5.6,11.2C339.3,890.5,328.6,913.3,317.6,920.6z"/>
	</g>
	<g>
		<path class="st1" d="M615,795c-2.5,9.6-11.2,33.6-18.8,39.5c-3.3,2.5-6.8,2.4-9-1.3c-0.5-0.9,1.3-1.8,1.8-0.8
			c1.3,2.6,2.5,3.9,4.9,2.1c8.9-6.8,21-40.7,21.3-51.1c0.1-3.2-0.6-3.1-2.6-0.8l-18.8,21.9c-3.5,4-6.6,6.6-8.1,5.9
			c-1.2-0.5-1.6-2.9,0.6-7.7c2.7-5.9,7.1-11.9,11.1-16.2c2.1-2.3,6.2-6.1,9.7-5.6c0.8,0.1,1.9,0.5,2.2,1.3c0.3,0.8-0.6,1.3-0.9,1
			c-0.7-0.5-0.4-2.1-2-1.5c-7.4,2.8-15.6,15.6-18.6,21.8c-0.5,1-3.3,8.1,0.3,4.5c7.3-7.5,13.7-15.5,20.6-23.6
			c1.2-1.4,2.5-2.8,3.9-4.1c1.6-1.6,4.1-0.4,4.2,0.9C617.2,785.3,616.2,790.3,615,795z"/>
	</g>
	<g>
		<path class="st1" d="M936.2,958.2c-0.3,1.5,1.3,0.4,0.6,2.1c-0.6,1.4-2.5,1.1-2.5-0.8c-0.1-1.3,0.8-4.9,1.1-5.7
			c4.2-14.1,17.7-37.1,19.7-48.9c-4.6,2.1-9,6.9-12,10.8c-0.4,0.5-1.7-0.4-1.3-1c1.9-2.5,8.7-9.7,11.7-10.6c1.7-0.5,3.7,0.5,3.3,2.1
			C952,924.1,939.9,941.5,936.2,958.2z"/>
		<path class="st1" d="M953.4,958.2c-0.3,1.5,1.3,0.4,0.6,2.1c-0.6,1.4-2.5,1.1-2.5-0.8c-0.1-1.3,0.8-4.9,1.1-5.7
			c4.2-14.1,17.7-37.1,19.7-48.9c-4.6,2.1-9,6.9-12,10.8c-0.4,0.5-1.7-0.4-1.3-1c1.9-2.5,8.7-9.7,11.7-10.6c1.7-0.5,3.7,0.5,3.3,2.1
			C969.2,924.1,957.1,941.5,953.4,958.2z"/>
	</g>
</g>
<g>
	<path class="st1" d="M1877.1,322.4c-4,3.7-4.9,5-9.4,7.4c-1.3,0.7-8.5-2.3,8.5-9.9c4.3-1.9,23.7-31.4,23.6-42.2
		c0-4.8-14.2,2.7-16.7,10.8c-4.5-2,6.9-12.6,13.2-13.7c3.6-0.6,6.2,3,4.7,7.8c-4,13.2-13.8,26.2-20.7,36.3c4.7-0.8,17.4-3.2,20.2,4
		c0.3,0.7-0.9,1.2-1.2,0.4c-0.3-1-0.6-2.5-2.8-3.3C1892.1,318.2,1880,319.7,1877.1,322.4z M1874.6,322.6c-2.9,1-6.7,3.8-7.7,5.6
		C1869.1,327.3,1872.6,324.7,1874.6,322.6z"/>
</g>
<g>
	<path class="st1" d="M1870.6,246.8c-0.3,1.5,1.3,0.4,0.6,2.1c-0.6,1.4-2.5,1.1-2.5-0.8c-0.1-1.3,0.8-4.9,1.1-5.7
		c4.2-14.1,17.7-37.1,19.7-48.9c-4.6,2.1-9,6.9-12,10.8c-0.4,0.5-1.7-0.4-1.3-1c1.9-2.5,8.7-9.7,11.7-10.6c1.7-0.5,3.7,0.5,3.3,2.1
		C1886.4,212.7,1874.3,230.2,1870.6,246.8z"/>
</g>
<g>
	<path class="st1" d="M1872.1,407.5c-0.5,1.1-2.1,0.4-1.7-0.6c3.1-7.9,21.9-19.8,25-27.6c1.9-5-12.7-1.3-14.9-1.1
		c-0.8,0-1.7-2.2-1.1-2.9c6-5.5,22-17.2,21.7-21.8c-3.8-1.9-19.9,3.6-23.2,9.1c-0.3,0.5-0.2,0.9,0.2,1c0.6,0.3,0.3,0.9-0.4,0.8
		c-0.9-0.1-2.2-0.9-1.4-2.5c0.5-1,1.7-2.3,4.3-4c5-3.3,10.5-5.3,16.4-6.1c3.5-0.4,6.1,1.3,5.2,4.2c-1.3,4.2-17.4,16.6-21.4,20.5
		c4.1-0.5,8-1.7,12.4-1c4,0.6,5,4.4,1.6,8.3C1888.8,390.9,1874.9,401.3,1872.1,407.5z"/>
</g>
<g>
	<g>
		<path class="st7" d="M2613.8,926.3c31.2-33.6,57.1-40.8,75.2-40.9c43.9-0.2,62.8,41,112.8,47.4c32.6,4.2,61.7-8.6,82.2-21.2"/>
		<g>
			<polygon class="st1" points="2881.7,927.2 2878.8,926.4 2883,912.2 2868.5,909 2869.1,906.1 2886.8,909.9 			"/>
		</g>
	</g>
</g>
<g>
	<path class="st1" d="M2374.6,952.5v-20.6h2.6v3.4c1.1-1.1,2.2-2,3.3-2.6s2.2-0.9,3.6-0.9s2.6,0.5,3.5,1.4s1.4,2.3,1.4,4.1v15.4
		h-2.6v-15.4c0-1-0.3-1.8-1-2.4s-1.4-0.9-2.3-0.9c-1.9,0-3.9,1.1-6,3.4v15.3H2374.6z"/>
	<path class="st1" d="M2393,924.2h2.9l-0.4,22.4h-2L2393,924.2z M2393,952.5v-2.9h2.9v2.9H2393z"/>
	<path class="st1" d="M2410.3,960.5v-28.6h2.6v3.2c0.3-0.6,0.8-1.2,1.5-1.8c1.4-1.1,2.8-1.7,4.2-1.7c2.7,0,4.8,1.5,6.2,4.5
		c0.8,1.7,1.2,3.6,1.2,5.6c0,3.6-0.9,6.5-2.6,8.6c-1.3,1.5-3,2.3-5.1,2.3c-1.2,0-2.4-0.4-3.5-1.1s-1.8-1.3-2.1-1.9v10.7H2410.3z
		 M2412.9,947.5c0.6,0.9,1.3,1.6,2.2,2.1s1.7,0.8,2.5,0.8s1.4-0.1,2-0.2s1-0.4,1.6-0.8s1-0.9,1.3-1.6c0.8-1.4,1.2-3.4,1.2-6.1
		c0-3.3-0.8-5.5-2.3-6.9c-0.8-0.7-1.8-1.1-3-1.1c-1.6,0-3.1,0.7-4.3,2.1c-0.3,0.4-0.7,0.8-1.1,1.3V947.5z"/>
	<path class="st1" d="M2431,949.6c-0.6-1-1.1-2-1.5-3.2s-0.5-2.4-0.5-3.7s0.1-2.5,0.3-3.5s0.4-2,0.7-2.7s0.7-1.4,1.1-2
		s0.9-1,1.3-1.4s1-0.6,1.5-0.9c0.9-0.4,1.8-0.6,2.6-0.6s1.5,0.1,2.1,0.2s1.2,0.5,1.9,0.9s1.2,1.1,1.7,1.8c1.1,1.8,1.7,4.4,1.7,7.8
		h-12.4c0,3.5,0.9,5.8,2.6,7.1c0.9,0.6,1.8,0.9,2.9,0.9c2,0,3.7-1.2,5.1-3.7l1.8,1.2c-0.5,0.9-1.2,1.8-2,2.5
		c-1.6,1.4-3.1,2.1-4.6,2.1s-2.8-0.3-3.9-0.8S2431.6,950.5,2431,949.6z M2431.7,940.3h9.7c0-1.9-0.4-3.5-1.3-4.8
		c-0.8-1.1-1.8-1.6-3.2-1.6c-2.3,0-3.8,1.1-4.6,3.2C2431.9,938,2431.7,939.1,2431.7,940.3z"/>
	<path class="st1" d="M2448,952.5v-20.6h2.6v5.5c0.6-1.4,1.1-2.3,1.4-2.8c1.3-2,2.9-3,5-3c0.2,0,0.4,0,0.7,0v2.2
		c-0.9,0.1-1.6,0.3-2.2,0.5s-1.2,0.6-1.7,1c-1,0.8-2,2.4-3.1,4.8v12.2H2448z"/>
	<path class="st1" d="M2460.5,952.5v-20.6h2.6v3.4c1.8-1.8,3.4-2.9,4.7-3.3c0.6-0.2,1.4-0.3,2.4-0.3s1.9,0.3,2.8,0.9
		s1.5,1.6,1.8,2.8c1.9-1.9,3.5-3,4.9-3.5c0.6-0.2,1.3-0.3,2-0.3c1.5,0,2.7,0.5,3.7,1.4s1.4,2.3,1.4,4.1v15.4h-2.6v-15.4
		c0-1-0.3-1.8-1-2.4s-1.4-0.9-2.3-0.9c-1.9,0-3.9,1.1-6,3.4v15.3h-2.6v-15.4c0-1-0.3-1.8-1-2.4s-1.4-0.9-2.3-0.9
		c-1.9,0-3.9,1.1-6,3.4v15.3H2460.5z"/>
	<path class="st1" d="M2491.4,947.2v-15.4h2.6v15.4c0,1,0.3,1.8,1,2.4s1.4,0.9,2.3,0.9c1.9,0,3.9-1.1,6-3.4v-15.3h2.6v20.6h-2.6
		v-3.4c-1.8,1.8-3.4,2.9-4.7,3.3c-0.6,0.2-1.3,0.3-2,0.3c-1.5,0-2.7-0.5-3.7-1.4S2491.4,949,2491.4,947.2z"/>
	<path class="st1" d="M2508.8,934.1v-2.2h3.5v-7.5h2.6v7.5h4.7v2.2h-4.7v13.1c0,1.3,0.2,2.2,0.6,2.7s1.1,0.7,2,0.7
		c0.4,0,0.8,0,1.3-0.1s0.8-0.1,0.8-0.1v1.9c-0.9,0.3-1.7,0.5-2.5,0.5s-1.4,0-1.7-0.1s-0.7-0.2-1.1-0.4s-0.8-0.5-1.1-0.9
		c-0.7-0.9-1-2.3-1-4.3v-13.1H2508.8z"/>
	<path class="st1" d="M2521.3,947.4c0-0.9,0.1-1.7,0.4-2.4s0.6-1.3,1.1-1.9s1.1-1,1.7-1.4s1.4-0.8,2.4-1.1c1.7-0.6,3.8-1.2,6.3-1.7
		c0-2.1-0.4-3.4-1.2-4.1c-0.7-0.6-1.7-0.9-3.1-0.9c-1.6,0-3.1,0.6-4.2,1.9c-0.5,0.5-0.9,1-1.1,1.4l-1.9-1.2c1.5-2.8,3.9-4.2,7.4-4.2
		c3.1,0,5.1,1.2,6,3.6c0.4,1,0.5,2.2,0.5,3.6v10.7c0,0.4,0.1,0.9,0.2,1.5s0.3,1.1,0.4,1.3h-2.6c-0.4-0.2-0.6-1.3-0.6-3.3
		c-1.8,2.4-3.9,3.5-6.1,3.5c-2.4,0-4.1-0.9-5.1-2.6C2521.5,949.3,2521.3,948.4,2521.3,947.4z M2524.4,945.2
		c-0.3,0.6-0.5,1.4-0.5,2.3s0.3,1.7,1,2.2s1.4,0.8,2.3,0.8s1.6-0.1,2.2-0.4s1.2-0.6,1.7-1c1-0.7,1.7-1.4,2.1-1.9v-6.2
		c-2.5,0.6-3.9,1-4.4,1.2C2526.5,943,2525,944,2524.4,945.2z"/>
	<path class="st1" d="M2538.7,934.1v-2.2h3.5v-7.5h2.6v7.5h4.7v2.2h-4.7v13.1c0,1.3,0.2,2.2,0.6,2.7s1.1,0.7,2,0.7
		c0.4,0,0.8,0,1.3-0.1s0.8-0.1,0.8-0.1v1.9c-0.9,0.3-1.7,0.5-2.5,0.5s-1.4,0-1.7-0.1s-0.7-0.2-1.1-0.4s-0.8-0.5-1.1-0.9
		c-0.7-0.9-1-2.3-1-4.3v-13.1H2538.7z"/>
	<path class="st1" d="M2552.2,929.3v-2.9h2.9v2.9H2552.2z M2552.4,952.5v-20.6h2.6v20.6H2552.4z"/>
	<path class="st1" d="M2559.5,942c0-3.1,0.7-5.7,2.1-7.5s3.4-2.8,5.9-2.8s4.5,1,5.9,2.9s2.1,4.4,2.1,7.6s-0.7,5.7-2.1,7.7
		s-3.4,2.9-5.9,2.9c-2.6,0-4.6-1-6-3C2560.1,947.7,2559.5,945.2,2559.5,942z M2562,942.2c0,4.1,1.1,6.7,3.2,7.9
		c0.7,0.3,1.4,0.5,2.2,0.5s1.6-0.2,2.3-0.5s1.2-0.8,1.6-1.3s0.7-1.2,1-1.9c0.4-1.3,0.6-2.8,0.6-4.6c0-5.6-1.8-8.3-5.4-8.3
		S2562,936.6,2562,942.2z"/>
	<path class="st1" d="M2579.3,952.5v-20.6h2.6v3.4c1.1-1.1,2.2-2,3.3-2.6s2.2-0.9,3.6-0.9s2.6,0.5,3.5,1.4s1.4,2.3,1.4,4.1v15.4
		h-2.6v-15.4c0-1-0.3-1.8-1-2.4s-1.4-0.9-2.3-0.9c-1.9,0-3.9,1.1-6,3.4v15.3H2579.3z"/>
	<path class="st1" d="M2597.5,948.6l1.9-1.2c0.7,1.1,1.5,1.9,2.3,2.4s1.9,0.8,3.1,0.8c1.3,0,2.3-0.3,3.1-1c0.7-0.6,1-1.3,1-2.1
		s-0.1-1.5-0.4-2s-0.7-0.9-1.2-1.2c-0.9-0.5-1.8-0.9-2.7-1.1s-1.7-0.4-2.2-0.6s-1.1-0.4-1.7-0.8s-1.1-0.7-1.5-1.1
		c-1-0.9-1.4-2.1-1.4-3.7s0.6-2.8,1.8-3.8s2.8-1.5,4.7-1.5c2.2,0,4.1,0.8,5.6,2.4c0.3,0.3,0.5,0.6,0.7,0.9l-1.8,1.3
		c-0.1-0.1-0.3-0.3-0.5-0.6s-0.4-0.5-0.5-0.6l-0.5-0.4c-0.2-0.2-0.4-0.3-0.6-0.4l-0.7-0.2c-0.4-0.2-1.1-0.2-2.1-0.2
		s-1.8,0.3-2.6,0.8s-1.1,1.2-1.1,1.9s0.1,1.2,0.4,1.6s0.6,0.8,1.1,1.1c0.8,0.5,1.6,0.9,2.6,1.2s1.6,0.5,2,0.6s0.7,0.3,1.3,0.5
		s1,0.4,1.3,0.6s0.7,0.5,1,0.8s0.7,0.7,0.9,1c0.5,0.9,0.8,1.8,0.8,2.9c0,1.7-0.7,3.2-2,4.3s-2.8,1.7-4.6,1.7s-3.2-0.3-4.4-1
		S2598.4,950,2597.5,948.6z"/>
</g>
<g>
</g>
<g>
</g>
<g>
</g>
<g>
</g>
<g>
</g>
<g>
</g>
<g>
</g>
<g>
</g>
<g>
</g>
<g>
</g>
<g>
</g>
<g>
</g>
<g>
</g>
<g>
</g>
<g>
</g>
<g>
</g>
</svg>
