<?xml version="1.0" encoding="utf-8"?>
<!-- Generator: Adobe Illustrator 25.1.0, SVG Export Plug-In . SVG Version: 6.00 Build 0)  -->
<svg version="1.1" id="Layer_1" xmlns="http://www.w3.org/2000/svg" xmlns:xlink="http://www.w3.org/1999/xlink" x="0px" y="0px"
	 viewBox="0 0 699.4 681.8" style="enable-background:new 0 0 699.4 681.8;" xml:space="preserve">
<style type="text/css">
	.st0{fill:none;stroke:#FFFFFF;stroke-width:2;stroke-miterlimit:10;}
	.st1{fill:#FFFFFF;}
	.st2{fill:none;stroke:#2DC6D6;stroke-miterlimit:10;}
	.st3{fill:#808080;}
</style>
<g id="axis">
	<g>
		<g>
			<g>
				<line class="st0" x1="265.4" y1="32.4" x2="265.4" y2="401.8"/>
				<g>
					<polygon class="st1" points="257.9,38 265.4,34.8 272.8,38 265.4,20.4 					"/>
				</g>
			</g>
		</g>
		<g>
			<g>
				<line class="st0" x1="663.9" y1="401.8" x2="265.4" y2="401.8"/>
				<g>
					<polygon class="st1" points="658.2,394.4 661.4,401.8 658.2,409.2 675.8,401.8 					"/>
				</g>
			</g>
		</g>
	</g>
	<g>
		<g>
			<path class="st1" d="M237.7,23.8c-0.6,0.8-1.4,1.7-2.7,1.7c-1.4,0-2.6-0.9-2.6-2.3c0-1.1,0.7-2,1.8-2c0.7,0,1.2,0.5,1.2,1.2
				c0,0.1,0,0.2,0,0.3c-0.1,0.5-0.5,1-1,1.2L234,24c0.2,0.3,0.7,0.5,1.1,0.5c0.8,0,1.5-0.8,1.9-2c0.1-0.4,1.7-6.6,1.8-7.1
				c0.1-0.3,0.1-0.5,0.1-0.8c0-0.9-0.4-1.5-1.3-1.5c-1,0-1.6,0.6-2.2,1.2c-0.5,0.6-0.9,1.4-1.2,2.2c-0.1,0.4,0,0.3-0.7,0.3H233
				c-0.2-0.2-0.2-0.2-0.1-0.7c0.4-1.2,1.3-2.6,2.2-3.3c0.8-0.6,1.5-0.9,2.5-0.9c1.4,0,2.4,0.7,2.9,1.7c0.2-0.2,0.3-0.4,0.5-0.7
				c0.7-0.7,1.5-1,2.3-1c1.4,0,2.6,0.9,2.6,2.3c0,1.1-0.7,2-1.8,2c-0.6,0-1.2-0.4-1.2-1c0-0.8,0.5-1.4,1.1-1.7
				c0.1,0,0.2-0.1,0.2-0.1s-0.2-0.4-1-0.4c-0.3,0-0.3,0-0.5,0.1c-0.5,0.3-1,0.9-1.3,1.8c-0.1,0.3-1.7,6.4-1.8,7.1
				c-0.1,0.3-0.1,0.6-0.1,0.9c0,0.9,0.4,1.5,1.3,1.5c0.2,0,0.4,0,0.5-0.1c0.9-0.3,1.9-1.2,2.4-2.4c0.1-0.3,0.4-1.1,0.4-1.1l0.2-0.2
				h0.5c0.6,0,0.7-0.1,0.7,0.3c0,0.3-0.5,1.4-0.8,2c-0.6,0.9-1.4,1.7-2.2,2.1c-0.6,0.3-1.2,0.5-1.9,0.5
				C239.1,25.5,238.3,24.7,237.7,23.8z"/>
			<path class="st1" d="M248.5,26.4c0-0.1,0.1-0.5,0.1-0.5c0-0.1,0.1-0.1,0.3-0.1c0.4,0,0.6-0.1,1-0.2c0.8-0.3,1.6-1,2.2-1.8
				c0.1-0.1,0.1-0.2,0.2-0.2c0,0,0.1,0,0.1,0c0.1,0,0.2,0,0.2,0.1s-0.1,0.7-1.3,5.2c-0.7,2.9-1.3,5.2-1.3,5.2c0,0.1,0,0.1,0.1,0.1
				c0.2,0.1,0.4,0.1,1,0.1h0.6c0,0.1,0.1,0.1,0.1,0.2c0,0.1-0.1,0.5-0.1,0.5c-0.1,0.1-0.1,0.1-0.3,0.1c-0.7,0-1.4,0-2.5,0
				c-1.1,0-1.7,0-2.4,0c-0.2,0-0.3-0.1-0.3-0.2c0-0.1,0.1-0.5,0.1-0.5c0-0.1,0.1-0.1,0.5-0.1c0.6,0,1.1,0,1.3-0.1
				c0.1,0,0.2-0.1,0.2-0.2c0-0.1,0.1-0.3,1-4.1l1-4c0,0-0.8,0.5-1.8,0.6C248.6,26.6,248.5,26.6,248.5,26.4z"/>
		</g>
		<g>
			<path class="st1" d="M682.9,418.8c-0.6,0.8-1.4,1.7-2.7,1.7c-1.4,0-2.6-0.9-2.6-2.3c0-1.1,0.7-2,1.8-2c0.7,0,1.2,0.5,1.2,1.2
				c0,0.1,0,0.2,0,0.3c-0.1,0.5-0.5,1-1,1.2l-0.3,0.1c0.2,0.3,0.7,0.5,1.1,0.5c0.8,0,1.5-0.8,1.9-2c0.1-0.4,1.7-6.6,1.8-7.1
				c0.1-0.3,0.1-0.5,0.1-0.8c0-0.9-0.4-1.5-1.3-1.5c-1,0-1.7,0.6-2.2,1.2c-0.5,0.6-0.9,1.4-1.2,2.2c-0.1,0.4,0,0.3-0.7,0.3h-0.5
				c-0.2-0.2-0.2-0.2-0.1-0.7c0.4-1.2,1.3-2.6,2.2-3.3c0.8-0.6,1.5-0.9,2.5-0.9c1.4,0,2.4,0.7,2.9,1.7c0.2-0.2,0.3-0.4,0.5-0.7
				c0.7-0.7,1.5-1,2.3-1c1.4,0,2.6,0.9,2.6,2.3c0,1.1-0.7,2-1.8,2c-0.6,0-1.2-0.4-1.2-1c0-0.8,0.5-1.4,1.1-1.7
				c0.1,0,0.2-0.1,0.2-0.1s-0.2-0.4-1-0.4c-0.3,0-0.3,0-0.5,0.1c-0.5,0.3-1,0.9-1.3,1.8c-0.1,0.3-1.7,6.4-1.8,7.1
				c-0.1,0.3-0.1,0.6-0.1,0.9c0,0.9,0.4,1.5,1.3,1.5c0.2,0,0.4,0,0.5-0.1c0.9-0.3,1.9-1.2,2.4-2.4c0.1-0.3,0.4-1,0.4-1.1l0.2-0.2
				h0.5c0.6,0,0.7-0.1,0.7,0.3c0,0.3-0.5,1.4-0.8,2c-0.6,0.9-1.4,1.7-2.2,2.1c-0.6,0.3-1.2,0.5-1.9,0.5
				C684.3,420.4,683.5,419.7,682.9,418.8z"/>
			<path class="st1" d="M692.5,423.2V423c0-0.3,0-0.5,0.2-1c0.3-1,0.8-1.8,1.5-2.4c0.4-0.4,0.7-0.6,1.1-0.8c0.5-0.2,0.8-0.3,1.3-0.3
				c1.6,0,2.7,1.2,2.7,3c0,0.3,0,0.6-0.1,0.9c-0.1,0.7-0.5,1.3-1.1,2c-0.6,0.6-1.4,1.1-2.7,1.9c-0.6,0.4-0.8,0.5-1.1,0.7
				c-0.6,0.4-1.1,0.9-1.5,1.5c-0.1,0.1-0.1,0.2-0.1,0.2c0,0,0.1,0,0.1,0c0.3,0,0.9,0.1,1.5,0.2c1,0.2,1.3,0.2,1.8,0.2
				c0.2,0,0.3,0,0.4,0c0.6-0.2,1.2-0.8,1.5-1.6c0.1-0.3,0.1-0.3,0.3-0.3h0.4c0.1,0.1,0.1,0.1,0.1,0.4c-0.3,0.9-0.8,1.8-1.3,2.3
				c-0.5,0.5-1,0.7-1.6,0.7h-0.1c-0.5,0-0.9-0.2-1.6-0.6c-0.6-0.4-0.9-0.5-1.2-0.6c-0.1,0-0.3-0.1-0.4-0.1c-0.2,0-0.3,0.1-0.4,0.1
				c-0.2,0.2-0.3,0.4-0.5,0.8c0,0.1-0.1,0.2-0.1,0.2c0,0.1-0.1,0.1-0.4,0.1h-0.3c0,0-0.1-0.1-0.1-0.2c0-0.1,0-0.1,0.1-0.3
				c0.5-1.7,1.7-3.2,3.4-4.2c1-0.6,1.7-1.2,2.3-1.9c0.5-0.7,0.8-1.3,1-2.3c0.1-0.4,0.1-0.7,0.1-1c0-0.9-0.5-1.6-1.3-1.6
				c-0.1,0-0.3,0-0.4,0.1c-1,0.2-2,1.3-2.6,2.8c-0.2,0.6-0.3,0.9-0.3,1.2s0,0.5,0.3,0.5c0.8-0.1,1.3-1.1,1.5-1.9c0-0.1,0-0.2,0-0.2
				c0-0.2,0-0.3-0.1-0.5c-0.1-0.1-0.1-0.2-0.1-0.2c0-0.1,0.3-0.3,0.4-0.3c0.3,0,0.4,0.6,0.4,1c0,0.1,0,0.3,0,0.4
				c-0.3,1.1-1,2.3-2.2,2.4h-0.1C692.9,424.2,692.5,423.8,692.5,423.2z"/>
		</g>
	</g>
</g>
<g>
	<line class="st2" x1="307.6" y1="135.8" x2="307.6" y2="286.7"/>
	<line class="st2" x1="349.8" y1="135.8" x2="349.8" y2="286.7"/>
	<line class="st2" x1="392.1" y1="135.6" x2="392.1" y2="286.5"/>
	<line class="st2" x1="434.3" y1="135.6" x2="434.3" y2="286.5"/>
	<line class="st2" x1="476.5" y1="135.6" x2="476.5" y2="286.5"/>
	<line class="st2" x1="307.6" y1="135.8" x2="476.5" y2="135.6"/>
	<line class="st2" x1="307.6" y1="173.2" x2="476.5" y2="173.2"/>
	<line class="st2" x1="307.6" y1="211" x2="476.5" y2="211"/>
	<line class="st2" x1="307.6" y1="248.7" x2="476.5" y2="248.7"/>
	<line class="st2" x1="307.6" y1="286.3" x2="476.5" y2="286.3"/>
</g>
<g>
	<g>
		<circle class="st3" cx="307.6" cy="135.8" r="7.5"/>
	</g>
	<g>
		<circle class="st3" cx="349.8" cy="135.8" r="7.5"/>
	</g>
	<g>
		<circle class="st3" cx="392.1" cy="135.6" r="7.5"/>
	</g>
	<g>
		<circle class="st3" cx="476.5" cy="135.6" r="7.5"/>
	</g>
	<g>
		<circle class="st3" cx="434.3" cy="135.6" r="7.5"/>
	</g>
	<g>
		<circle class="st3" cx="307.6" cy="173.2" r="7.5"/>
	</g>
	<g>
		<circle class="st3" cx="349.8" cy="173.2" r="7.5"/>
	</g>
	<g>
		<circle class="st3" cx="392.1" cy="173" r="7.5"/>
	</g>
	<g>
		<circle class="st3" cx="434.3" cy="173" r="7.5"/>
	</g>
	<g>
		<circle class="st3" cx="476.5" cy="173" r="7.5"/>
	</g>
	<g>
		<circle class="st3" cx="307.6" cy="210.9" r="7.5"/>
	</g>
	<g>
		<circle class="st3" cx="349.8" cy="210.9" r="7.5"/>
	</g>
	<g>
		<circle class="st3" cx="392.1" cy="210.7" r="7.5"/>
	</g>
	<g>
		<circle class="st3" cx="434.3" cy="210.7" r="7.5"/>
	</g>
	<g>
		<circle class="st3" cx="476.5" cy="210.7" r="7.5"/>
	</g>
	<g>
		<circle class="st3" cx="307.6" cy="248.7" r="7.5"/>
	</g>
	<g>
		<circle class="st3" cx="349.8" cy="248.7" r="7.5"/>
	</g>
	<g>
		<circle class="st3" cx="392.1" cy="248.5" r="7.5"/>
	</g>
	<g>
		<circle class="st3" cx="434.3" cy="248.5" r="7.5"/>
	</g>
	<g>
		<circle class="st3" cx="476.5" cy="248.5" r="7.5"/>
	</g>
	<g>
		<circle class="st3" cx="307.6" cy="286.7" r="7.5"/>
	</g>
	<g>
		<circle class="st3" cx="349.8" cy="286.7" r="7.5"/>
	</g>
	<g>
		<circle class="st3" cx="392.1" cy="286.5" r="7.5"/>
	</g>
	<g>
		<circle class="st3" cx="434.3" cy="286.5" r="7.5"/>
	</g>
	<g>
		<circle class="st3" cx="476.5" cy="286.5" r="7.5"/>
	</g>
</g>
<path class="st2" d="M521.6,211.3"/>
<path class="st2" d="M563.9,211.3"/>
<line class="st2" x1="521.6" y1="211.3" x2="648.3" y2="211.2"/>
<g>
	<circle class="st3" cx="521.6" cy="211.3" r="7.5"/>
</g>
<g>
	<circle class="st3" cx="563.9" cy="211.3" r="7.5"/>
</g>
<g>
	<circle class="st3" cx="606.1" cy="211.1" r="7.5"/>
</g>
<g>
	<circle class="st3" cx="648.3" cy="211.1" r="7.5"/>
</g>
<g>
</g>
</svg>
