<?xml version="1.0" encoding="utf-8"?>
<!-- Generator: Adobe Illustrator 25.1.0, SVG Export Plug-In . SVG Version: 6.00 Build 0)  -->
<svg version="1.1" id="Layer_1" xmlns="http://www.w3.org/2000/svg" xmlns:xlink="http://www.w3.org/1999/xlink" x="0px" y="0px"
	 viewBox="0 0 1920 1080" style="enable-background:new 0 0 1920 1080;" xml:space="preserve">
<g>
	<path d="M257.8,224.1c0-3.7-0.1-6.7-0.2-9.5h4.7l0.2,5h0.1c2.2-3.5,5.6-5.6,10.3-5.6c7,0,12.3,5.9,12.3,14.8
		c0,10.4-6.4,15.6-13.2,15.6c-3.8,0-7.2-1.7-8.9-4.6H263v15.8h-5.2V224.1z M263,231.8c0,0.8,0.1,1.5,0.2,2.2c1,3.7,4.1,6.2,7.9,6.2
		c5.6,0,8.8-4.6,8.8-11.2c0-5.8-3.1-10.8-8.6-10.8c-3.6,0-7,2.6-8,6.5c-0.2,0.7-0.4,1.4-0.4,2.2V231.8z"/>
	<path d="M294.8,230.1c0.1,7.1,4.7,10.1,10,10.1c3.8,0,6.1-0.7,8-1.5l0.9,3.8c-1.9,0.8-5,1.8-9.7,1.8c-8.9,0-14.3-5.9-14.3-14.6
		s5.2-15.7,13.6-15.7c9.5,0,12,8.3,12,13.7c0,1.1-0.1,1.9-0.2,2.5H294.8z M310.3,226.3c0.1-3.4-1.4-8.6-7.3-8.6
		c-5.3,0-7.7,4.9-8.1,8.6H310.3z"/>
	<path d="M322,223.7c0-3.4-0.1-6.4-0.2-9.1h4.6l0.2,5.7h0.2c1.3-3.9,4.5-6.4,8-6.4c0.6,0,1,0.1,1.5,0.2v5c-0.5-0.1-1.1-0.2-1.8-0.2
		c-3.7,0-6.4,2.8-7.1,6.8c-0.1,0.7-0.2,1.6-0.2,2.5v15.5H322V223.7z"/>
	<path d="M341.8,222.5c0-3-0.1-5.5-0.2-7.9h4.6l0.2,4.7h0.2c1.6-2.8,4.3-5.3,9.1-5.3c4,0,7,2.4,8.2,5.8h0.1c0.9-1.6,2-2.9,3.2-3.8
		c1.7-1.3,3.7-2,6.4-2c3.8,0,9.5,2.5,9.5,12.6v17.1h-5.2v-16.4c0-5.6-2-8.9-6.3-8.9c-3,0-5.3,2.2-6.2,4.8c-0.2,0.7-0.4,1.7-0.4,2.6
		v17.9H360v-17.4c0-4.6-2-8-6.1-8c-3.3,0-5.7,2.6-6.5,5.3c-0.3,0.8-0.4,1.7-0.4,2.6v17.5h-5.2V222.5z"/>
	<path d="M416.2,235.7c0,3,0.1,5.6,0.2,7.9h-4.7l-0.3-4.7h-0.1c-1.4,2.3-4.4,5.4-9.6,5.4c-4.6,0-10-2.5-10-12.7v-17h5.3v16.1
		c0,5.5,1.7,9.2,6.5,9.2c3.5,0,6-2.5,7-4.8c0.3-0.8,0.5-1.7,0.5-2.7v-17.8h5.3V235.7z"/>
	<path d="M431.3,206.3v8.3h7.6v4h-7.6v15.7c0,3.6,1,5.6,4,5.6c1.4,0,2.4-0.2,3.1-0.4l0.2,4c-1,0.4-2.6,0.7-4.7,0.7
		c-2.5,0-4.4-0.8-5.7-2.2c-1.5-1.6-2-4.1-2-7.6v-15.8h-4.5v-4h4.5v-7L431.3,206.3z"/>
	<path d="M460.9,243.6l-0.4-3.7h-0.2c-1.6,2.3-4.7,4.3-8.9,4.3c-5.9,0-8.9-4.1-8.9-8.3c0-7,6.2-10.9,17.5-10.8v-0.6
		c0-2.4-0.7-6.7-6.6-6.7c-2.7,0-5.5,0.8-7.6,2.2l-1.2-3.5c2.4-1.6,5.9-2.6,9.5-2.6c8.9,0,11,6.1,11,11.9v10.9c0,2.5,0.1,5,0.5,7
		H460.9z M460.1,228.8c-5.8-0.1-12.3,0.9-12.3,6.5c0,3.4,2.3,5,5,5c3.8,0,6.2-2.4,7-4.9c0.2-0.5,0.3-1.1,0.3-1.7V228.8z"/>
	<path d="M479.8,206.3v8.3h7.6v4h-7.6v15.7c0,3.6,1,5.6,4,5.6c1.4,0,2.4-0.2,3.1-0.4l0.2,4c-1,0.4-2.6,0.7-4.7,0.7
		c-2.5,0-4.4-0.8-5.7-2.2c-1.5-1.6-2-4.1-2-7.6v-15.8h-4.5v-4h4.5v-7L479.8,206.3z"/>
	<path d="M499.2,206.4c0.1,1.8-1.3,3.2-3.4,3.2c-1.9,0-3.2-1.4-3.2-3.2c0-1.9,1.4-3.3,3.3-3.3C497.9,203.1,499.2,204.6,499.2,206.4z
		 M493.3,243.6v-29h5.3v29H493.3z"/>
	<path d="M533.6,228.9c0,10.7-7.4,15.4-14.5,15.4c-7.9,0-13.9-5.8-13.9-14.9c0-9.7,6.4-15.4,14.4-15.4
		C528,213.9,533.6,220,533.6,228.9z M510.6,229.2c0,6.4,3.7,11.2,8.8,11.2c5,0,8.8-4.7,8.8-11.3c0-4.9-2.5-11.2-8.7-11.2
		C513.3,217.9,510.6,223.7,510.6,229.2z"/>
	<path d="M540.3,222.5c0-3-0.1-5.5-0.2-7.9h4.7l0.3,4.8h0.1c1.4-2.8,4.8-5.5,9.6-5.5c4,0,10.3,2.4,10.3,12.4v17.3h-5.3v-16.7
		c0-4.7-1.7-8.6-6.7-8.6c-3.5,0-6.2,2.5-7.1,5.4c-0.2,0.7-0.4,1.6-0.4,2.5v17.5h-5.3V222.5z"/>
	<path d="M598.6,225.5v3.9h-14.8v-3.9H598.6z"/>
	<path d="M623.3,206.4c0.1,1.8-1.3,3.2-3.4,3.2c-1.9,0-3.2-1.4-3.2-3.2c0-1.9,1.4-3.3,3.3-3.3C622.1,203.1,623.3,204.6,623.3,206.4z
		 M617.5,243.6v-29h5.3v29H617.5z"/>
	<path d="M631.5,222.5c0-3-0.1-5.5-0.2-7.9h4.7l0.3,4.8h0.1c1.4-2.8,4.8-5.5,9.6-5.5c4,0,10.3,2.4,10.3,12.4v17.3h-5.3v-16.7
		c0-4.7-1.7-8.6-6.7-8.6c-3.5,0-6.2,2.5-7.1,5.4c-0.2,0.7-0.4,1.6-0.4,2.5v17.5h-5.3V222.5z"/>
	<path d="M666.1,214.6l5.7,16.3c1,2.6,1.7,5,2.3,7.4h0.2c0.7-2.4,1.5-4.8,2.5-7.4l5.6-16.3h5.5l-11.4,29h-5l-11-29H666.1z"/>
	<path d="M708.7,243.6l-0.4-3.7h-0.2c-1.6,2.3-4.7,4.3-8.9,4.3c-5.9,0-8.9-4.1-8.9-8.3c0-7,6.2-10.9,17.5-10.8v-0.6
		c0-2.4-0.7-6.7-6.6-6.7c-2.7,0-5.5,0.8-7.6,2.2l-1.2-3.5c2.4-1.6,5.9-2.6,9.5-2.6c8.9,0,11,6.1,11,11.9v10.9c0,2.5,0.1,5,0.5,7
		H708.7z M707.9,228.8c-5.8-0.1-12.3,0.9-12.3,6.5c0,3.4,2.3,5,5,5c3.8,0,6.2-2.4,7-4.9c0.2-0.5,0.3-1.1,0.3-1.7V228.8z"/>
	<path d="M721.6,223.7c0-3.4-0.1-6.4-0.2-9.1h4.6l0.2,5.7h0.2c1.3-3.9,4.5-6.4,8-6.4c0.6,0,1,0.1,1.5,0.2v5
		c-0.5-0.1-1.1-0.2-1.8-0.2c-3.7,0-6.4,2.8-7.1,6.8c-0.1,0.7-0.2,1.6-0.2,2.5v15.5h-5.2V223.7z"/>
	<path d="M747.3,206.4c0.1,1.8-1.3,3.2-3.4,3.2c-1.9,0-3.2-1.4-3.2-3.2c0-1.9,1.4-3.3,3.3-3.3C746,203.1,747.3,204.6,747.3,206.4z
		 M741.4,243.6v-29h5.3v29H741.4z"/>
	<path d="M771.5,243.6l-0.4-3.7h-0.2c-1.6,2.3-4.7,4.3-8.9,4.3c-5.9,0-8.9-4.1-8.9-8.3c0-7,6.2-10.9,17.5-10.8v-0.6
		c0-2.4-0.7-6.7-6.6-6.7c-2.7,0-5.5,0.8-7.6,2.2l-1.2-3.5c2.4-1.6,5.9-2.6,9.5-2.6c8.9,0,11,6.1,11,11.9v10.9c0,2.5,0.1,5,0.5,7
		H771.5z M770.8,228.8c-5.8-0.1-12.3,0.9-12.3,6.5c0,3.4,2.3,5,5,5c3.8,0,6.2-2.4,7-4.9c0.2-0.5,0.3-1.1,0.3-1.7V228.8z"/>
	<path d="M784.4,222.5c0-3-0.1-5.5-0.2-7.9h4.7l0.3,4.8h0.1c1.4-2.8,4.8-5.5,9.6-5.5c4,0,10.3,2.4,10.3,12.4v17.3h-5.3v-16.7
		c0-4.7-1.7-8.6-6.7-8.6c-3.5,0-6.2,2.5-7.1,5.4c-0.2,0.7-0.4,1.6-0.4,2.5v17.5h-5.3V222.5z"/>
	<path d="M823.8,206.3v8.3h7.6v4h-7.6v15.7c0,3.6,1,5.6,4,5.6c1.4,0,2.4-0.2,3.1-0.4l0.2,4c-1,0.4-2.6,0.7-4.7,0.7
		c-2.5,0-4.4-0.8-5.7-2.2c-1.5-1.6-2-4.1-2-7.6v-15.8h-4.5v-4h4.5v-7L823.8,206.3z"/>
	<path d="M258.3,387.6v-25h-4.1v-4h4.1v-1.4c0-4.1,0.9-7.8,3.4-10.1c2-1.9,4.6-2.7,7.1-2.7c1.9,0,3.5,0.4,4.5,0.8l-0.7,4.1
		c-0.8-0.4-1.9-0.7-3.4-0.7c-4.5,0-5.6,4-5.6,8.4v1.6h7v4h-7v25H258.3z"/>
	<path d="M286.7,346c-4.4,5.9-7.6,13.7-7.6,24.5c0,10.7,3.3,18.4,7.6,24.4h-4.1c-3.8-5-7.9-12.7-7.9-24.4
		c0.1-11.8,4.1-19.5,7.9-24.5H286.7z"/>
	<path d="M292.5,347.7c2.5-0.4,5.8-0.8,10-0.8c5.2,0,8.9,1.2,11.3,3.4c2.2,1.9,3.5,4.9,3.5,8.5c0,3.7-1.1,6.5-3.1,8.6
		c-2.8,2.9-7.3,4.4-12.4,4.4c-1.6,0-3-0.1-4.2-0.4v16.2h-5.2V347.7z M297.7,367.2c1.1,0.3,2.6,0.4,4.3,0.4c6.3,0,10.1-3.1,10.1-8.6
		c0-5.3-3.8-7.9-9.5-7.9c-2.3,0-4,0.2-4.9,0.4V367.2z"/>
	<path d="M345.8,387.6l-5.2-8.9c-2.1-3.4-3.4-5.6-4.7-8h-0.1c-1.1,2.3-2.3,4.5-4.4,8l-4.9,8.9h-6l12.4-20.5l-11.9-20h6.1l5.3,9.5
		c1.5,2.6,2.6,4.7,3.7,6.8h0.2c1.1-2.4,2.2-4.3,3.7-6.8l5.5-9.5h6l-12.3,19.7l12.6,20.8H345.8z"/>
	<path d="M354.3,395c1.3-3.5,2.9-10,3.6-14.3l5.9-0.6c-1.4,5.1-4,11.8-5.7,14.6L354.3,395z"/>
	<path d="M370.3,347.7c2.5-0.4,5.8-0.8,10-0.8c5.2,0,8.9,1.2,11.3,3.4c2.2,1.9,3.5,4.9,3.5,8.5c0,3.7-1.1,6.5-3.1,8.6
		c-2.8,2.9-7.3,4.4-12.4,4.4c-1.6,0-3-0.1-4.2-0.4v16.2h-5.2V347.7z M375.5,367.2c1.1,0.3,2.6,0.4,4.3,0.4c6.3,0,10.1-3.1,10.1-8.6
		c0-5.3-3.8-7.9-9.5-7.9c-2.3,0-4,0.2-4.9,0.4V367.2z"/>
	<path d="M403.7,374.9l-4.2,12.7h-5.4l13.7-40.4h6.3l13.8,40.4h-5.6l-4.3-12.7H403.7z M417,370.8l-4-11.6c-0.9-2.6-1.5-5-2.1-7.4
		h-0.1c-0.6,2.4-1.3,4.9-2,7.3l-4,11.7H417z"/>
	<path d="M433.9,347.7c2.5-0.4,5.8-0.8,10-0.8c5.2,0,8.9,1.2,11.3,3.4c2.2,1.9,3.5,4.9,3.5,8.5c0,3.7-1.1,6.5-3.1,8.6
		c-2.8,2.9-7.3,4.4-12.4,4.4c-1.6,0-3-0.1-4.2-0.4v16.2h-5.2V347.7z M439.1,367.2c1.1,0.3,2.6,0.4,4.3,0.4c6.3,0,10.1-3.1,10.1-8.6
		c0-5.3-3.8-7.9-9.5-7.9c-2.3,0-4,0.2-4.9,0.4V367.2z"/>
	<path d="M473.5,351.6h-12.3v-4.4h29.9v4.4h-12.4v36h-5.3V351.6z"/>
	<path d="M495.9,394.9c4.3-5.9,7.6-13.7,7.6-24.5c0-10.7-3.2-18.4-7.6-24.4h4.1c3.8,4.9,7.9,12.6,7.9,24.4c0,11.8-4,19.4-7.9,24.5
		H495.9z"/>
	<path d="M526.9,367.4v-3.6h31v3.6H526.9z M526.9,379.2v-3.6h31v3.6H526.9z"/>
	<path d="M577.9,387.6v-25h-4.1v-4h4.1v-1.4c0-4.1,0.9-7.8,3.4-10.1c2-1.9,4.6-2.7,7.1-2.7c1.9,0,3.5,0.4,4.5,0.8l-0.7,4.1
		c-0.8-0.4-1.9-0.7-3.4-0.7c-4.5,0-5.6,4-5.6,8.4v1.6h7v4h-7v25H577.9z"/>
	<path d="M606.3,346c-4.4,5.9-7.6,13.7-7.6,24.5c0,10.7,3.3,18.4,7.6,24.4h-4.1c-3.8-5-7.9-12.7-7.9-24.4
		c0.1-11.8,4.1-19.5,7.9-24.5H606.3z"/>
	<path d="M634.9,387.6l-5.2-8.9c-2.1-3.4-3.4-5.6-4.7-8h-0.1c-1.1,2.3-2.3,4.5-4.4,8l-4.9,8.9h-6l12.4-20.5l-11.9-20h6.1l5.3,9.5
		c1.5,2.6,2.6,4.7,3.7,6.8h0.2c1.1-2.4,2.2-4.3,3.7-6.8l5.5-9.5h6l-12.3,19.7l12.6,20.8H634.9z"/>
	<path d="M643.4,395c1.3-3.5,2.9-10,3.6-14.3l5.9-0.6c-1.4,5.1-4,11.8-5.7,14.6L643.4,395z"/>
	<path d="M665.9,374.9l-4.2,12.7h-5.4l13.7-40.4h6.3l13.8,40.4h-5.6l-4.3-12.7H665.9z M679.2,370.8l-4-11.6c-0.9-2.6-1.5-5-2.1-7.4
		H673c-0.6,2.4-1.3,4.9-2,7.3l-4,11.7H679.2z"/>
	<path d="M692.2,394.9c4.3-5.9,7.6-13.7,7.6-24.5c0-10.7-3.2-18.4-7.6-24.4h4.1c3.8,4.9,7.9,12.6,7.9,24.4c0,11.8-4,19.4-7.9,24.5
		H692.2z"/>
</g>
<g>
	<path d="M257.8,555.6c0-3.7-0.1-6.7-0.2-9.5h4.7l0.2,5h0.1c2.2-3.5,5.6-5.6,10.3-5.6c7,0,12.3,5.9,12.3,14.8
		c0,10.4-6.4,15.6-13.2,15.6c-3.8,0-7.2-1.7-8.9-4.6H263V587h-5.2V555.6z M263,563.3c0,0.8,0.1,1.5,0.2,2.2c1,3.7,4.1,6.2,7.9,6.2
		c5.6,0,8.8-4.6,8.8-11.2c0-5.8-3.1-10.8-8.6-10.8c-3.6,0-7,2.6-8,6.5c-0.2,0.7-0.4,1.4-0.4,2.2V563.3z"/>
	<path d="M294.8,561.6c0.1,7.1,4.7,10.1,10,10.1c3.8,0,6.1-0.7,8-1.5l0.9,3.8c-1.9,0.8-5,1.8-9.7,1.8c-8.9,0-14.3-5.9-14.3-14.6
		s5.2-15.7,13.6-15.7c9.5,0,12,8.3,12,13.7c0,1.1-0.1,1.9-0.2,2.5H294.8z M310.3,557.8c0.1-3.4-1.4-8.6-7.3-8.6
		c-5.3,0-7.7,4.9-8.1,8.6H310.3z"/>
	<path d="M322,555.2c0-3.4-0.1-6.4-0.2-9.1h4.6l0.2,5.7h0.2c1.3-3.9,4.5-6.4,8-6.4c0.6,0,1,0.1,1.5,0.2v5c-0.5-0.1-1.1-0.2-1.8-0.2
		c-3.7,0-6.4,2.8-7.1,6.8c-0.1,0.7-0.2,1.6-0.2,2.5v15.5H322V555.2z"/>
	<path d="M341.8,554c0-3-0.1-5.5-0.2-7.9h4.6l0.2,4.7h0.2c1.6-2.8,4.3-5.3,9.1-5.3c4,0,7,2.4,8.2,5.8h0.1c0.9-1.6,2-2.9,3.2-3.8
		c1.7-1.3,3.7-2,6.4-2c3.8,0,9.5,2.5,9.5,12.6v17.1h-5.2v-16.4c0-5.6-2-8.9-6.3-8.9c-3,0-5.3,2.2-6.2,4.8c-0.2,0.7-0.4,1.7-0.4,2.6
		v17.9H360v-17.4c0-4.6-2-8-6.1-8c-3.3,0-5.7,2.6-6.5,5.3c-0.3,0.8-0.4,1.7-0.4,2.6v17.5h-5.2V554z"/>
	<path d="M416.2,567.2c0,3,0.1,5.6,0.2,7.9h-4.7l-0.3-4.7h-0.1c-1.4,2.3-4.4,5.4-9.6,5.4c-4.6,0-10-2.5-10-12.7v-17h5.3v16.1
		c0,5.5,1.7,9.2,6.5,9.2c3.5,0,6-2.5,7-4.8c0.3-0.8,0.5-1.7,0.5-2.7v-17.8h5.3V567.2z"/>
	<path d="M431.3,537.8v8.3h7.6v4h-7.6v15.7c0,3.6,1,5.6,4,5.6c1.4,0,2.4-0.2,3.1-0.4l0.2,4c-1,0.4-2.6,0.7-4.7,0.7
		c-2.5,0-4.4-0.8-5.7-2.2c-1.5-1.6-2-4.1-2-7.6v-15.8h-4.5v-4h4.5v-7L431.3,537.8z"/>
	<path d="M460.9,575.1l-0.4-3.7h-0.2c-1.6,2.3-4.7,4.3-8.9,4.3c-5.9,0-8.9-4.1-8.9-8.3c0-7,6.2-10.9,17.5-10.8v-0.6
		c0-2.4-0.7-6.7-6.6-6.7c-2.7,0-5.5,0.8-7.6,2.2l-1.2-3.5c2.4-1.6,5.9-2.6,9.5-2.6c8.9,0,11,6.1,11,11.9v10.9c0,2.5,0.1,5,0.5,7
		H460.9z M460.1,560.3c-5.8-0.1-12.3,0.9-12.3,6.5c0,3.4,2.3,5,5,5c3.8,0,6.2-2.4,7-4.9c0.2-0.5,0.3-1.1,0.3-1.7V560.3z"/>
	<path d="M479.8,537.8v8.3h7.6v4h-7.6v15.7c0,3.6,1,5.6,4,5.6c1.4,0,2.4-0.2,3.1-0.4l0.2,4c-1,0.4-2.6,0.7-4.7,0.7
		c-2.5,0-4.4-0.8-5.7-2.2c-1.5-1.6-2-4.1-2-7.6v-15.8h-4.5v-4h4.5v-7L479.8,537.8z"/>
	<path d="M499.2,537.9c0.1,1.8-1.3,3.2-3.4,3.2c-1.9,0-3.2-1.4-3.2-3.2c0-1.9,1.4-3.3,3.3-3.3C497.9,534.6,499.2,536.1,499.2,537.9z
		 M493.3,575.1v-29h5.3v29H493.3z"/>
	<path d="M533.6,560.4c0,10.7-7.4,15.4-14.5,15.4c-7.9,0-13.9-5.8-13.9-14.9c0-9.7,6.4-15.4,14.4-15.4
		C528,545.4,533.6,551.5,533.6,560.4z M510.6,560.7c0,6.4,3.7,11.2,8.8,11.2c5,0,8.8-4.7,8.8-11.3c0-4.9-2.5-11.2-8.7-11.2
		C513.3,549.4,510.6,555.2,510.6,560.7z"/>
	<path d="M540.3,554c0-3-0.1-5.5-0.2-7.9h4.7l0.3,4.8h0.1c1.4-2.8,4.8-5.5,9.6-5.5c4,0,10.3,2.4,10.3,12.4v17.3h-5.3v-16.7
		c0-4.7-1.7-8.6-6.7-8.6c-3.5,0-6.2,2.5-7.1,5.4c-0.2,0.7-0.4,1.6-0.4,2.5v17.5h-5.3V554z"/>
	<path d="M598.6,557v3.9h-14.8V557H598.6z"/>
	<path d="M620.4,561.6c0.1,7.1,4.7,10.1,10,10.1c3.8,0,6.1-0.7,8-1.5l0.9,3.8c-1.9,0.8-5,1.8-9.7,1.8c-8.9,0-14.3-5.9-14.3-14.6
		s5.2-15.7,13.6-15.7c9.5,0,12,8.3,12,13.7c0,1.1-0.1,1.9-0.2,2.5H620.4z M635.9,557.8c0.1-3.4-1.4-8.6-7.3-8.6
		c-5.3,0-7.7,4.9-8.1,8.6H635.9z"/>
	<path d="M667.3,570.6h-0.1c-1.6,2.9-4.8,5.2-9.5,5.2c-6.8,0-12.3-5.9-12.3-14.7c0-10.9,7-15.7,13.1-15.7c4.5,0,7.5,2.2,8.9,5h0.1
		l0.2-4.4h5c-0.1,2.5-0.2,5-0.2,8V587h-5.3V570.6z M667.3,557.9c0-0.7-0.1-1.6-0.2-2.2c-0.8-3.2-3.6-6-7.6-6
		c-5.5,0-8.8,4.6-8.8,11.2c0,5.8,2.8,10.8,8.6,10.8c3.4,0,6.4-2.1,7.6-5.8c0.2-0.7,0.4-1.7,0.4-2.5V557.9z"/>
	<path d="M705.6,567.2c0,3,0.1,5.6,0.2,7.9h-4.7l-0.3-4.7h-0.1c-1.4,2.3-4.4,5.4-9.6,5.4c-4.6,0-10-2.5-10-12.7v-17h5.3v16.1
		c0,5.5,1.7,9.2,6.5,9.2c3.5,0,6-2.5,7-4.8c0.3-0.8,0.5-1.7,0.5-2.7v-17.8h5.3V567.2z"/>
	<path d="M720.2,537.9c0.1,1.8-1.3,3.2-3.4,3.2c-1.9,0-3.2-1.4-3.2-3.2c0-1.9,1.4-3.3,3.3-3.3C719,534.6,720.2,536.1,720.2,537.9z
		 M714.4,575.1v-29h5.3v29H714.4z"/>
	<path d="M730.4,546.1l5.7,16.3c1,2.6,1.7,5,2.3,7.4h0.2c0.7-2.4,1.5-4.8,2.5-7.4l5.6-16.3h5.5l-11.4,29h-5l-11-29H730.4z"/>
	<path d="M773.1,575.1l-0.4-3.7h-0.2c-1.6,2.3-4.7,4.3-8.9,4.3c-5.9,0-8.9-4.1-8.9-8.3c0-7,6.2-10.9,17.5-10.8v-0.6
		c0-2.4-0.7-6.7-6.6-6.7c-2.7,0-5.5,0.8-7.6,2.2l-1.2-3.5c2.4-1.6,5.9-2.6,9.5-2.6c8.9,0,11,6.1,11,11.9v10.9c0,2.5,0.1,5,0.5,7
		H773.1z M772.3,560.3c-5.8-0.1-12.3,0.9-12.3,6.5c0,3.4,2.3,5,5,5c3.8,0,6.2-2.4,7-4.9c0.2-0.5,0.3-1.1,0.3-1.7V560.3z"/>
	<path d="M785.9,555.2c0-3.4-0.1-6.4-0.2-9.1h4.6l0.2,5.7h0.2c1.3-3.9,4.5-6.4,8-6.4c0.6,0,1,0.1,1.5,0.2v5
		c-0.5-0.1-1.1-0.2-1.8-0.2c-3.7,0-6.4,2.8-7.1,6.8c-0.1,0.7-0.2,1.6-0.2,2.5v15.5h-5.2V555.2z"/>
	<path d="M807.9,561.6c0.1,7.1,4.7,10.1,10,10.1c3.8,0,6.1-0.7,8-1.5l0.9,3.8c-1.9,0.8-5,1.8-9.7,1.8c-8.9,0-14.3-5.9-14.3-14.6
		s5.2-15.7,13.6-15.7c9.5,0,12,8.3,12,13.7c0,1.1-0.1,1.9-0.2,2.5H807.9z M823.4,557.8c0.1-3.4-1.4-8.6-7.3-8.6
		c-5.3,0-7.7,4.9-8.1,8.6H823.4z"/>
	<path d="M835,554c0-3-0.1-5.5-0.2-7.9h4.7l0.3,4.8h0.1c1.4-2.8,4.8-5.5,9.6-5.5c4,0,10.3,2.4,10.3,12.4v17.3h-5.3v-16.7
		c0-4.7-1.7-8.6-6.7-8.6c-3.5,0-6.2,2.5-7.1,5.4c-0.2,0.7-0.4,1.6-0.4,2.5v17.5H835V554z"/>
	<path d="M874.4,537.8v8.3h7.6v4h-7.6v15.7c0,3.6,1,5.6,4,5.6c1.4,0,2.4-0.2,3.1-0.4l0.2,4c-1,0.4-2.6,0.7-4.7,0.7
		c-2.5,0-4.4-0.8-5.7-2.2c-1.5-1.6-2-4.1-2-7.6v-15.8h-4.5v-4h4.5v-7L874.4,537.8z"/>
	<path d="M258.3,719.1v-25h-4.1v-4h4.1v-1.4c0-4.1,0.9-7.8,3.4-10.1c2-1.9,4.6-2.7,7.1-2.7c1.9,0,3.5,0.4,4.5,0.8l-0.7,4.1
		c-0.8-0.4-1.9-0.7-3.4-0.7c-4.5,0-5.6,4-5.6,8.4v1.6h7v4h-7v25H258.3z"/>
	<path d="M286.7,677.5c-4.4,5.9-7.6,13.7-7.6,24.5c0,10.7,3.3,18.4,7.6,24.4h-4.1c-3.8-5-7.9-12.7-7.9-24.4
		c0.1-11.8,4.1-19.5,7.9-24.5H286.7z"/>
	<path d="M292.5,679.2c2.5-0.4,5.8-0.8,10-0.8c5.2,0,8.9,1.2,11.3,3.4c2.2,1.9,3.5,4.9,3.5,8.5c0,3.7-1.1,6.5-3.1,8.6
		c-2.8,2.9-7.3,4.4-12.4,4.4c-1.6,0-3-0.1-4.2-0.4v16.2h-5.2V679.2z M297.7,698.7c1.1,0.3,2.6,0.4,4.3,0.4c6.3,0,10.1-3.1,10.1-8.6
		c0-5.3-3.8-7.9-9.5-7.9c-2.3,0-4,0.2-4.9,0.4V698.7z"/>
	<path d="M345.8,719.1l-5.2-8.9c-2.1-3.4-3.4-5.6-4.7-8h-0.1c-1.1,2.3-2.3,4.5-4.4,8l-4.9,8.9h-6l12.4-20.5l-11.9-20h6.1l5.3,9.5
		c1.5,2.6,2.6,4.7,3.7,6.8h0.2c1.1-2.4,2.2-4.3,3.7-6.8l5.5-9.5h6l-12.3,19.7l12.6,20.8H345.8z"/>
	<path d="M354.3,726.5c1.3-3.5,2.9-10,3.6-14.3l5.9-0.6c-1.4,5.1-4,11.8-5.7,14.6L354.3,726.5z"/>
	<path d="M370.3,679.2c2.5-0.4,5.8-0.8,10-0.8c5.2,0,8.9,1.2,11.3,3.4c2.2,1.9,3.5,4.9,3.5,8.5c0,3.7-1.1,6.5-3.1,8.6
		c-2.8,2.9-7.3,4.4-12.4,4.4c-1.6,0-3-0.1-4.2-0.4v16.2h-5.2V679.2z M375.5,698.7c1.1,0.3,2.6,0.4,4.3,0.4c6.3,0,10.1-3.1,10.1-8.6
		c0-5.3-3.8-7.9-9.5-7.9c-2.3,0-4,0.2-4.9,0.4V698.7z"/>
	<path d="M403.7,706.4l-4.2,12.7h-5.4l13.7-40.4h6.3l13.8,40.4h-5.6l-4.3-12.7H403.7z M417,702.3l-4-11.6c-0.9-2.6-1.5-5-2.1-7.4
		h-0.1c-0.6,2.4-1.3,4.9-2,7.3l-4,11.7H417z"/>
	<path d="M433.9,679.2c2.5-0.4,5.8-0.8,10-0.8c5.2,0,8.9,1.2,11.3,3.4c2.2,1.9,3.5,4.9,3.5,8.5c0,3.7-1.1,6.5-3.1,8.6
		c-2.8,2.9-7.3,4.4-12.4,4.4c-1.6,0-3-0.1-4.2-0.4v16.2h-5.2V679.2z M439.1,698.7c1.1,0.3,2.6,0.4,4.3,0.4c6.3,0,10.1-3.1,10.1-8.6
		c0-5.3-3.8-7.9-9.5-7.9c-2.3,0-4,0.2-4.9,0.4V698.7z"/>
	<path d="M473.5,683.1h-12.3v-4.4h29.9v4.4h-12.4v36h-5.3V683.1z"/>
	<path d="M495.9,726.4c4.3-5.9,7.6-13.7,7.6-24.5c0-10.7-3.2-18.4-7.6-24.4h4.1c3.8,4.9,7.9,12.6,7.9,24.4c0,11.8-4,19.4-7.9,24.5
		H495.9z"/>
	<path d="M526.9,698.9v-3.6h31v3.6H526.9z M526.9,710.7v-3.6h31v3.6H526.9z"/>
	<path d="M577.5,679.2c2.5-0.4,5.8-0.8,10-0.8c5.2,0,8.9,1.2,11.3,3.4c2.2,1.9,3.5,4.9,3.5,8.5c0,3.7-1.1,6.5-3.1,8.6
		c-2.8,2.9-7.3,4.4-12.4,4.4c-1.6,0-3-0.1-4.2-0.4v16.2h-5.2V679.2z M582.7,698.7c1.1,0.3,2.6,0.4,4.3,0.4c6.3,0,10.1-3.1,10.1-8.6
		c0-5.3-3.8-7.9-9.5-7.9c-2.3,0-4,0.2-4.9,0.4V698.7z"/>
	<path d="M609.4,678.7h21.8v4.4h-16.6v13.4h15.3v4.3h-15.3v18.3h-5.2V678.7z"/>
	<path d="M649.9,677.5c-4.4,5.9-7.6,13.7-7.6,24.5c0,10.7,3.3,18.4,7.6,24.4h-4.1c-3.8-5-7.9-12.7-7.9-24.4
		c0.1-11.8,4.1-19.5,7.9-24.5H649.9z"/>
	<path d="M678.5,719.1l-5.2-8.9c-2.1-3.4-3.4-5.6-4.7-8h-0.1c-1.1,2.3-2.3,4.5-4.4,8l-4.9,8.9h-6l12.4-20.5l-11.9-20h6.1l5.3,9.5
		c1.5,2.6,2.6,4.7,3.7,6.8h0.2c1.1-2.4,2.2-4.3,3.7-6.8l5.5-9.5h6l-12.3,19.7l12.6,20.8H678.5z"/>
	<path d="M687,726.5c1.3-3.5,2.9-10,3.6-14.3l5.9-0.6c-1.4,5.1-4,11.8-5.7,14.6L687,726.5z"/>
	<path d="M709.6,706.4l-4.2,12.7H700l13.7-40.4h6.3l13.8,40.4h-5.6l-4.3-12.7H709.6z M722.8,702.3l-4-11.6c-0.9-2.6-1.5-5-2.1-7.4
		h-0.1c-0.6,2.4-1.3,4.9-2,7.3l-4,11.7H722.8z"/>
	<path d="M735.8,726.4c4.3-5.9,7.6-13.7,7.6-24.5c0-10.7-3.2-18.4-7.6-24.4h4.1c3.8,4.9,7.9,12.6,7.9,24.4c0,11.8-4,19.4-7.9,24.5
		H735.8z"/>
</g>
<g>
</g>
<g>
</g>
<g>
</g>
<g>
</g>
<g>
</g>
<g>
</g>
<g>
</g>
<g>
</g>
<g>
</g>
<g>
</g>
<g>
</g>
<g>
</g>
<g>
</g>
<g>
</g>
<g>
</g>
</svg>
