<?xml version="1.0" encoding="utf-8"?>
<!-- Generator: Adobe Illustrator 25.1.0, SVG Export Plug-In . SVG Version: 6.00 Build 0)  -->
<svg version="1.1" id="Layer_1" xmlns="http://www.w3.org/2000/svg" xmlns:xlink="http://www.w3.org/1999/xlink" x="0px" y="0px"
	 viewBox="0 0 295.1 177.6" style="enable-background:new 0 0 295.1 177.6;" xml:space="preserve">
<style type="text/css">
	.st0{fill:none;stroke:#2DC6D6;stroke-width:50;stroke-miterlimit:10;}
	.st1{fill:#2DC6D6;}
	.st2{fill:#FFFFFF;}
</style>
<g>
	<g>
		<line class="st0" x1="31.2" y1="113.3" x2="263.9" y2="113.3"/>
		<g>
			<polygon class="st1" points="40.7,48.9 0,113.3 40.7,177.6 41.1,177.6 41.1,48.9 			"/>
		</g>
		<g>
			<polygon class="st1" points="254.4,48.9 295.1,113.3 254.4,177.6 254,177.6 254,48.9 			"/>
		</g>
	</g>
</g>
<g>
	<path class="st2" d="M110.2,25.5h7.9l7.6,26.2l7.8-26.2h7.9l-11.4,37.1h-8.7L110.2,25.5z"/>
	<path class="st2" d="M144.1,55.2l5.2-3.2c0.8,1.2,1.6,2.1,2.3,2.8c1.7,1.6,3.8,2.5,6.3,2.5c2,0,3.5-0.4,4.4-1.3
		c0.8-0.8,1.2-1.9,1.2-3.5c0-1.8-0.6-3.1-1.7-4c-1-0.8-2.1-1.3-3.1-1.6l-3.3-0.9c-3.8-1.1-6.6-2.5-8.3-4.4c-1.7-1.9-2.6-4.3-2.6-7.3
		c0-2.6,1.1-4.8,3.2-6.5c2.2-1.9,5.5-2.8,9.7-2.8c3.8,0,7,1.3,9.7,3.9c1.2,1.1,1.9,2,2.2,2.8l-4.4,3.4c-1.6-2-3.3-3.2-4.9-3.7
		c-0.8-0.3-2-0.4-3.3-0.4s-2.5,0.4-3.5,1.1s-1.5,1.7-1.5,3.1c0,1.6,0.7,2.8,2.1,3.7c1.2,0.8,2.4,1.3,3.7,1.7l3.2,0.9
		c5,1.4,8.1,3.8,9.2,7.1c0.5,1.4,0.7,3,0.7,4.8s-0.6,3.6-1.7,5.1s-2.7,2.7-4.6,3.6s-3.8,1.3-5.7,1.3s-3.5-0.1-4.8-0.4
		c-1.3-0.2-2.5-0.6-3.6-1.2C147.9,60.5,145.8,58.4,144.1,55.2z"/>
	<path class="st2" d="M174.8,62.6v-8.5h8.6v8.5H174.8z"/>
</g>
<g>
</g>
<g>
</g>
<g>
</g>
<g>
</g>
<g>
</g>
<g>
</g>
<g>
</g>
<g>
</g>
<g>
</g>
<g>
</g>
<g>
</g>
<g>
</g>
<g>
</g>
<g>
</g>
<g>
</g>
<g>
</g>
</svg>
