<?xml version="1.0" encoding="utf-8"?>
<!-- Generator: Adobe Illustrator 25.1.0, SVG Export Plug-In . SVG Version: 6.00 Build 0)  -->
<svg version="1.1" id="Layer_1" xmlns="http://www.w3.org/2000/svg" xmlns:xlink="http://www.w3.org/1999/xlink" x="0px" y="0px"
	 viewBox="0 0 1132.4 514" style="enable-background:new 0 0 1132.4 514;" xml:space="preserve">
<style type="text/css">
	.st0{fill:#FFFFFF;}
	.st1{fill:#2DC6D6;}
	.st2{fill:none;stroke:#FFFFFF;stroke-width:3;stroke-miterlimit:10;}
	.st3{fill:none;stroke:#000000;stroke-width:3;stroke-miterlimit:10;}
</style>
<g>
	<path class="st0" d="M406.4,493.5l2.4-0.8c0,0,0,0.1,0.1,0.3s0.1,0.5,0.2,0.8s0.3,0.7,0.4,1.1s0.5,0.8,0.8,1.2s0.7,0.7,1.2,1.1
		c1,0.7,2.3,1.1,4,1.1s2.9-0.5,3.7-1.4s1.2-2,1.2-3.3s-0.3-2.4-0.8-3.1s-1.4-1.4-2.7-1.9c-0.4-0.2-0.9-0.3-1.5-0.5l-1.7-0.6
		c-2.9-1-4.8-2.2-5.8-3.7c-0.7-1-1-2.3-1-3.7c0-1.7,0.7-3.2,2-4.6c0.6-0.7,1.4-1.2,2.4-1.6s2-0.6,3-0.6s2,0.1,2.8,0.4s1.5,0.6,2,1.1
		s0.9,0.9,1.3,1.5s0.7,1,0.9,1.5l0.5,1.3c0.2,0.4,0.2,0.7,0.3,0.7l-2.3,0.9c0-0.1-0.1-0.2-0.2-0.6s-0.2-0.6-0.2-0.8
		s-0.2-0.5-0.3-0.8s-0.3-0.6-0.5-0.9s-0.4-0.5-0.7-0.8s-0.6-0.5-0.9-0.7c-0.8-0.4-1.6-0.6-2.6-0.6c-1.4,0-2.6,0.4-3.5,1.3
		s-1.4,2-1.4,3.4c0,1.5,0.4,2.6,1.2,3.2c0.4,0.3,0.8,0.6,1.1,0.7s0.7,0.3,1.1,0.4s0.7,0.3,0.9,0.3s0.6,0.2,1.1,0.4l1.5,0.5
		c2.7,0.8,4.6,2.1,5.6,3.7c0.7,1.1,1,2.5,1,4c0,1.1-0.4,2.3-1.1,3.6c-0.9,1.6-2.3,2.6-4.1,3.2c-0.7,0.2-1.5,0.3-2.4,0.3
		s-1.8-0.1-2.7-0.4s-1.6-0.6-2.2-1s-1.1-0.8-1.6-1.3s-0.9-1-1.2-1.4c-0.5-0.9-0.9-1.6-1.1-2.3L406.4,493.5z"/>
	<path class="st0" d="M424.5,483.4v-2h3.1v-6.8h2.3v6.8h4.3v2h-4.3v11.8c0,1.2,0.2,2,0.5,2.4s1,0.7,1.8,0.7c0.3,0,0.7,0,1.2-0.1
		s0.7-0.1,0.7-0.1v1.7c-0.8,0.3-1.5,0.4-2.3,0.4s-1.2,0-1.5-0.1s-0.6-0.1-1-0.3s-0.7-0.5-0.9-0.8c-0.6-0.8-0.9-2.1-0.9-3.9v-11.8
		H424.5z"/>
	<path class="st0" d="M435.7,495.5c0-0.8,0.1-1.6,0.3-2.2s0.5-1.2,1-1.7s1-0.9,1.5-1.3s1.3-0.7,2.1-1c1.6-0.6,3.5-1,5.7-1.5
		c0-1.9-0.4-3.1-1.1-3.7c-0.6-0.6-1.6-0.8-2.8-0.8c-1.5,0-2.7,0.6-3.8,1.7c-0.5,0.5-0.8,0.9-0.9,1.2l-1.7-1.1
		c1.3-2.5,3.5-3.8,6.7-3.8c2.8,0,4.6,1.1,5.4,3.3c0.3,0.9,0.5,1.9,0.5,3.2v9.7c0,0.3,0.1,0.8,0.2,1.4s0.2,1,0.4,1.2H447
		c-0.4-0.2-0.5-1.2-0.5-3c-1.7,2.1-3.5,3.2-5.5,3.2c-2.2,0-3.7-0.8-4.6-2.3C436,497.1,435.7,496.3,435.7,495.5z M438.5,493.5
		c-0.3,0.5-0.4,1.2-0.4,2.1s0.3,1.5,0.9,2s1.3,0.7,2,0.7s1.4-0.1,2-0.3s1.1-0.5,1.6-0.9c0.9-0.6,1.5-1.2,1.9-1.7v-5.6
		c-2.2,0.6-3.5,0.9-4,1.1C440.4,491.5,439.1,492.4,438.5,493.5z"/>
	<path class="st0" d="M452.9,500v-18.5h2.3v5c0.6-1.2,1-2.1,1.3-2.5c1.1-1.8,2.6-2.7,4.5-2.7c0.1,0,0.4,0,0.6,0v2
		c-0.8,0.1-1.5,0.3-2,0.4s-1,0.5-1.5,0.9c-0.9,0.7-1.8,2.2-2.8,4.3v11H452.9z"/>
	<path class="st0" d="M471.5,475.5v-2.2h17.8v2.2h-7.6V500H479v-24.5H471.5z"/>
	<path class="st0" d="M491.8,500v-18.5h2.3v5c0.6-1.2,1-2.1,1.3-2.5c1.1-1.8,2.6-2.7,4.5-2.7c0.1,0,0.4,0,0.6,0v2
		c-0.8,0.1-1.5,0.3-2,0.4s-1,0.5-1.5,0.9c-0.9,0.7-1.8,2.2-2.8,4.3v11H491.8z"/>
	<path class="st0" d="M504,497.4c-0.6-0.9-1-1.8-1.3-2.9s-0.4-2.2-0.4-3.3s0.1-2.2,0.2-3.2s0.4-1.8,0.7-2.4s0.6-1.3,1-1.8
		s0.8-0.9,1.2-1.3s0.9-0.6,1.3-0.8c0.8-0.4,1.6-0.5,2.4-0.5s1.4,0.1,1.9,0.2s1.1,0.4,1.7,0.8s1.1,1,1.6,1.6c1,1.6,1.5,3.9,1.5,7
		h-11.1c0,3.1,0.8,5.3,2.4,6.4c0.8,0.6,1.7,0.8,2.6,0.8c1.8,0,3.3-1.1,4.6-3.4l1.6,1.1c-0.5,0.8-1.1,1.6-1.8,2.3
		c-1.4,1.3-2.8,1.9-4.2,1.9s-2.5-0.3-3.5-0.8S504.6,498.2,504,497.4z M504.7,489h8.7c0-1.7-0.4-3.2-1.2-4.3c-0.7-1-1.6-1.4-2.9-1.4
		c-2.1,0-3.4,0.9-4.1,2.8C504.8,487,504.7,487.9,504.7,489z"/>
	<path class="st0" d="M519.5,500v-26.6h2.3v17.3l7.1-9.2h2.8l-4.9,6.3l5.9,12.2h-2.6l-5-10.2l-3.4,4.3v6H519.5z"/>
</g>
<g>
	<path class="st0" d="M592,493.5l2.4-0.8c0,0,0,0.1,0.1,0.3s0.1,0.5,0.2,0.8s0.3,0.7,0.4,1.1s0.5,0.8,0.8,1.2s0.7,0.7,1.2,1.1
		c1,0.7,2.3,1.1,4,1.1s2.9-0.5,3.7-1.4s1.2-2,1.2-3.3s-0.3-2.4-0.8-3.1s-1.4-1.4-2.7-1.9c-0.4-0.2-0.9-0.3-1.5-0.5l-1.7-0.6
		c-2.9-1-4.8-2.2-5.8-3.7c-0.7-1-1-2.3-1-3.7c0-1.7,0.7-3.2,2-4.6c0.6-0.7,1.4-1.2,2.4-1.6s2-0.6,3-0.6s2,0.1,2.8,0.4s1.5,0.6,2,1.1
		s0.9,0.9,1.3,1.5s0.7,1,0.9,1.5l0.5,1.3c0.2,0.4,0.2,0.7,0.3,0.7l-2.3,0.9c0-0.1-0.1-0.2-0.2-0.6s-0.2-0.6-0.2-0.8
		s-0.2-0.5-0.3-0.8s-0.3-0.6-0.5-0.9s-0.4-0.5-0.7-0.8s-0.6-0.5-0.9-0.7c-0.8-0.4-1.6-0.6-2.6-0.6c-1.4,0-2.6,0.4-3.5,1.3
		s-1.4,2-1.4,3.4c0,1.5,0.4,2.6,1.2,3.2c0.4,0.3,0.8,0.6,1.1,0.7s0.7,0.3,1.1,0.4s0.7,0.3,0.9,0.3s0.6,0.2,1.1,0.4l1.5,0.5
		c2.7,0.8,4.6,2.1,5.6,3.7c0.7,1.1,1,2.5,1,4c0,1.1-0.4,2.3-1.1,3.6c-0.9,1.6-2.3,2.6-4.1,3.2c-0.7,0.2-1.5,0.3-2.4,0.3
		s-1.8-0.1-2.7-0.4s-1.6-0.6-2.2-1s-1.1-0.8-1.6-1.3s-0.9-1-1.2-1.4c-0.5-0.9-0.9-1.6-1.1-2.3L592,493.5z"/>
	<path class="st0" d="M610.1,483.4v-2h3.1v-6.8h2.3v6.8h4.3v2h-4.3v11.8c0,1.2,0.2,2,0.5,2.4s1,0.7,1.8,0.7c0.3,0,0.7,0,1.2-0.1
		s0.7-0.1,0.7-0.1v1.7c-0.8,0.3-1.5,0.4-2.3,0.4s-1.2,0-1.5-0.1s-0.6-0.1-1-0.3s-0.7-0.5-0.9-0.8c-0.6-0.8-0.9-2.1-0.9-3.9v-11.8
		H610.1z"/>
	<path class="st0" d="M621.4,495.5c0-0.8,0.1-1.6,0.3-2.2s0.5-1.2,1-1.7s1-0.9,1.5-1.3s1.3-0.7,2.1-1c1.6-0.6,3.5-1,5.7-1.5
		c0-1.9-0.4-3.1-1.1-3.7c-0.6-0.6-1.6-0.8-2.8-0.8c-1.5,0-2.7,0.6-3.8,1.7c-0.5,0.5-0.8,0.9-0.9,1.2l-1.7-1.1
		c1.3-2.5,3.5-3.8,6.7-3.8c2.8,0,4.6,1.1,5.4,3.3c0.3,0.9,0.5,1.9,0.5,3.2v9.7c0,0.3,0.1,0.8,0.2,1.4s0.2,1,0.4,1.2h-2.3
		c-0.4-0.2-0.5-1.2-0.5-3c-1.7,2.1-3.5,3.2-5.5,3.2c-2.2,0-3.7-0.8-4.6-2.3C621.6,497.1,621.4,496.3,621.4,495.5z M624.2,493.5
		c-0.3,0.5-0.4,1.2-0.4,2.1s0.3,1.5,0.9,2s1.3,0.7,2,0.7s1.4-0.1,2-0.3s1.1-0.5,1.6-0.9c0.9-0.6,1.5-1.2,1.9-1.7v-5.6
		c-2.2,0.6-3.5,0.9-4,1.1C626.1,491.5,624.8,492.4,624.2,493.5z"/>
	<path class="st0" d="M638.6,500v-18.5h2.3v5c0.6-1.2,1-2.1,1.3-2.5c1.1-1.8,2.6-2.7,4.5-2.7c0.1,0,0.4,0,0.6,0v2
		c-0.8,0.1-1.5,0.3-2,0.4s-1,0.5-1.5,0.9c-0.9,0.7-1.8,2.2-2.8,4.3v11H638.6z"/>
	<path class="st0" d="M657.1,473.4h2.7l4.6,21.1h0.2l4.8-21.1h3l4.8,21.1h0.2l4.6-21.1h2.7l-6.2,26.6h-2.7l-4.8-21.1h-0.2L666,500
		h-2.7L657.1,473.4z"/>
	<path class="st0" d="M686.3,495.5c0-0.8,0.1-1.6,0.3-2.2s0.5-1.2,1-1.7s1-0.9,1.5-1.3s1.3-0.7,2.1-1c1.6-0.6,3.5-1,5.7-1.5
		c0-1.9-0.4-3.1-1.1-3.7c-0.6-0.6-1.6-0.8-2.8-0.8c-1.5,0-2.7,0.6-3.8,1.7c-0.5,0.5-0.8,0.9-0.9,1.2l-1.7-1.1
		c1.3-2.5,3.5-3.8,6.7-3.8c2.8,0,4.6,1.1,5.4,3.3c0.3,0.9,0.5,1.9,0.5,3.2v9.7c0,0.3,0.1,0.8,0.2,1.4s0.2,1,0.4,1.2h-2.3
		c-0.4-0.2-0.5-1.2-0.5-3c-1.7,2.1-3.5,3.2-5.5,3.2c-2.2,0-3.7-0.8-4.6-2.3C686.5,497.1,686.3,496.3,686.3,495.5z M689.1,493.5
		c-0.3,0.5-0.4,1.2-0.4,2.1s0.3,1.5,0.9,2s1.3,0.7,2,0.7s1.4-0.1,2-0.3s1.1-0.5,1.6-0.9c0.9-0.6,1.5-1.2,1.9-1.7v-5.6
		c-2.2,0.6-3.5,0.9-4,1.1C691,491.5,689.7,492.4,689.1,493.5z"/>
	<path class="st0" d="M703.5,500v-18.5h2.3v5c0.6-1.2,1-2.1,1.3-2.5c1.1-1.8,2.6-2.7,4.5-2.7c0.1,0,0.4,0,0.6,0v2
		c-0.8,0.1-1.5,0.3-2,0.4s-1,0.5-1.5,0.9c-0.9,0.7-1.8,2.2-2.8,4.3v11H703.5z"/>
	<path class="st0" d="M714,496.5l1.7-1.1c0.6,1,1.3,1.7,2.1,2.2s1.7,0.7,2.8,0.7c1.1,0,2.1-0.3,2.8-0.9c0.6-0.5,0.9-1.1,0.9-1.9
		s-0.1-1.3-0.4-1.8s-0.6-0.8-1.1-1.1c-0.8-0.4-1.6-0.8-2.5-1s-1.5-0.4-2-0.6s-1-0.4-1.5-0.7s-1-0.6-1.3-1c-0.9-0.8-1.3-1.9-1.3-3.3
		s0.5-2.5,1.6-3.4s2.5-1.3,4.2-1.3c2,0,3.7,0.7,5.1,2.2c0.3,0.3,0.5,0.5,0.7,0.8l-1.6,1.2c-0.1-0.1-0.2-0.3-0.5-0.5
		s-0.4-0.4-0.5-0.5l-0.5-0.4c-0.2-0.2-0.4-0.3-0.5-0.4l-0.6-0.2c-0.4-0.1-1-0.2-1.9-0.2s-1.7,0.3-2.3,0.8s-1,1.1-1,1.7
		s0.1,1.1,0.3,1.5s0.5,0.7,0.9,1c0.7,0.4,1.5,0.8,2.4,1s1.5,0.5,1.8,0.5s0.7,0.2,1.2,0.4s0.9,0.4,1.1,0.6s0.6,0.4,0.9,0.7
		s0.6,0.6,0.8,0.9c0.5,0.8,0.7,1.7,0.7,2.6c0,1.6-0.6,2.8-1.8,3.8s-2.6,1.5-4.1,1.5s-2.9-0.3-3.9-0.9S714.8,497.8,714,496.5z"/>
</g>
<g>
	<path class="st0" d="M459,24.8l2.4-0.8c0,0,0,0.1,0.1,0.3s0.1,0.5,0.2,0.8s0.3,0.7,0.4,1.1s0.5,0.8,0.8,1.2s0.7,0.7,1.2,1.1
		c1,0.7,2.3,1.1,4,1.1s2.9-0.5,3.7-1.4s1.2-2,1.2-3.3s-0.3-2.4-0.8-3.1s-1.4-1.4-2.7-1.9c-0.4-0.2-0.9-0.3-1.5-0.5l-1.7-0.6
		c-2.9-1-4.8-2.2-5.8-3.7c-0.7-1-1-2.3-1-3.7c0-1.7,0.7-3.2,2-4.6c0.6-0.7,1.4-1.2,2.4-1.6s2-0.6,3-0.6s2,0.1,2.8,0.4s1.5,0.6,2,1.1
		s0.9,0.9,1.3,1.5s0.7,1,0.9,1.5l0.5,1.3c0.2,0.4,0.2,0.7,0.3,0.7l-2.3,0.9c0-0.1-0.1-0.2-0.2-0.6s-0.2-0.6-0.2-0.8
		s-0.2-0.5-0.3-0.8s-0.3-0.6-0.5-0.9s-0.4-0.5-0.7-0.8s-0.6-0.5-0.9-0.7c-0.8-0.4-1.6-0.6-2.6-0.6c-1.4,0-2.6,0.4-3.5,1.3
		s-1.4,2-1.4,3.4c0,1.5,0.4,2.6,1.2,3.2c0.4,0.3,0.8,0.6,1.1,0.7s0.7,0.3,1.1,0.4s0.7,0.3,0.9,0.3s0.6,0.2,1.1,0.4l1.5,0.5
		c2.7,0.8,4.6,2.1,5.6,3.7c0.7,1.1,1,2.5,1,4c0,1.1-0.4,2.3-1.1,3.6c-0.9,1.6-2.3,2.6-4.1,3.2c-0.7,0.2-1.5,0.3-2.4,0.3
		s-1.8-0.1-2.7-0.4s-1.6-0.6-2.2-1s-1.1-0.8-1.6-1.3s-0.9-1-1.2-1.4c-0.5-0.9-0.9-1.6-1.1-2.3L459,24.8z"/>
	<path class="st0" d="M477.8,22.2c0-6.4,2.5-9.6,7.5-9.6c1.2,0,2.3,0.3,3.1,0.9c0.8,0.6,1.4,1.1,1.7,1.6c0.5,0.8,0.8,1.5,1,2
		l-1.9,0.8c0-0.2-0.1-0.6-0.4-1s-0.5-0.8-0.7-1.1s-0.6-0.6-1.1-0.8s-1-0.4-1.6-0.4c-3.4,0-5.2,2.5-5.2,7.5c0,2.4,0.5,4.3,1.4,5.6
		s2.2,2,3.8,2c1.1,0,2-0.4,2.8-1.3c0.6-0.7,1.1-1.4,1.3-2l0.2-0.4l1.8,0.9c-0.4,1.1-1.1,2.2-2,3.1c-0.4,0.4-1,0.8-1.7,1.1
		s-1.5,0.5-2.3,0.5c-2.6,0-4.4-0.8-5.7-2.5S477.8,25.1,477.8,22.2z"/>
	<path class="st0" d="M494.8,10.4V7.8h2.6v2.6H494.8z M495,31.3V12.8h2.3v18.5H495z"/>
	<path class="st0" d="M503.1,28.7c-0.6-0.9-1-1.8-1.3-2.9s-0.4-2.2-0.4-3.3s0.1-2.2,0.2-3.2s0.4-1.8,0.7-2.4s0.6-1.3,1-1.8
		s0.8-0.9,1.2-1.3s0.9-0.6,1.3-0.8c0.8-0.4,1.6-0.5,2.4-0.5s1.4,0.1,1.9,0.2s1.1,0.4,1.7,0.8s1.1,1,1.6,1.6c1,1.6,1.5,3.9,1.5,7
		h-11.1c0,3.1,0.8,5.3,2.4,6.4c0.8,0.6,1.7,0.8,2.6,0.8c1.8,0,3.3-1.1,4.6-3.4l1.6,1.1c-0.5,0.8-1.1,1.6-1.8,2.3
		c-1.4,1.3-2.8,1.9-4.2,1.9s-2.5-0.3-3.5-0.8S503.7,29.6,503.1,28.7z M503.8,20.3h8.7c0-1.7-0.4-3.2-1.2-4.3c-0.7-1-1.6-1.4-2.9-1.4
		c-2.1,0-3.4,0.9-4.1,2.8C504,18.3,503.8,19.3,503.8,20.3z"/>
	<path class="st0" d="M518.4,31.3V12.8h2.3v3c1-1,2-1.8,2.9-2.4s2-0.9,3.3-0.9s2.3,0.4,3.2,1.2s1.3,2.1,1.3,3.7v13.8h-2.3V17.5
		c0-0.9-0.3-1.6-0.9-2.1s-1.3-0.8-2-0.8c-1.7,0-3.5,1-5.4,3v13.7H518.4z"/>
	<path class="st0" d="M534.7,22.2c0-6.4,2.5-9.6,7.5-9.6c1.2,0,2.3,0.3,3.1,0.9c0.8,0.6,1.4,1.1,1.7,1.6c0.5,0.8,0.8,1.5,1,2
		l-1.9,0.8c0-0.2-0.1-0.6-0.4-1s-0.5-0.8-0.7-1.1s-0.6-0.6-1.1-0.8s-1-0.4-1.6-0.4c-3.4,0-5.2,2.5-5.2,7.5c0,2.4,0.5,4.3,1.4,5.6
		s2.2,2,3.8,2c1.1,0,2-0.4,2.8-1.3c0.6-0.7,1.1-1.4,1.3-2l0.2-0.4l1.8,0.9c-0.4,1.1-1.1,2.2-2,3.1c-0.4,0.4-1,0.8-1.7,1.1
		s-1.5,0.5-2.3,0.5c-2.6,0-4.4-0.8-5.7-2.5S534.7,25.1,534.7,22.2z"/>
	<path class="st0" d="M552.7,28.7c-0.6-0.9-1-1.8-1.3-2.9s-0.4-2.2-0.4-3.3s0.1-2.2,0.2-3.2s0.4-1.8,0.7-2.4s0.6-1.3,1-1.8
		s0.8-0.9,1.2-1.3s0.9-0.6,1.3-0.8c0.8-0.4,1.6-0.5,2.4-0.5s1.4,0.1,1.9,0.2s1.1,0.4,1.7,0.8s1.1,1,1.6,1.6c1,1.6,1.5,3.9,1.5,7
		h-11.1c0,3.1,0.8,5.3,2.4,6.4c0.8,0.6,1.7,0.8,2.6,0.8c1.8,0,3.3-1.1,4.6-3.4l1.6,1.1c-0.5,0.8-1.1,1.6-1.8,2.3
		c-1.4,1.3-2.8,1.9-4.2,1.9s-2.5-0.3-3.5-0.8S553.3,29.6,552.7,28.7z M553.4,20.3h8.7c0-1.7-0.4-3.2-1.2-4.3c-0.7-1-1.6-1.4-2.9-1.4
		c-2.1,0-3.4,0.9-4.1,2.8C553.5,18.3,553.4,19.3,553.4,20.3z"/>
	<path class="st0" d="M577.3,31.3V4.7h14.4v2.2h-11.8v9.4h8.5v2.2h-8.5v12.9H577.3z"/>
	<path class="st0" d="M595,10.4V7.8h2.6v2.6H595z M595.2,31.3V12.8h2.3v18.5H595.2z"/>
	<path class="st0" d="M601.5,22.2c0-6.4,2.5-9.6,7.5-9.6c1.2,0,2.3,0.3,3.1,0.9c0.8,0.6,1.4,1.1,1.7,1.6c0.5,0.8,0.8,1.5,1,2
		l-1.9,0.8c0-0.2-0.1-0.6-0.4-1s-0.5-0.8-0.7-1.1s-0.6-0.6-1.1-0.8s-1-0.4-1.6-0.4c-3.4,0-5.2,2.5-5.2,7.5c0,2.4,0.5,4.3,1.4,5.6
		s2.2,2,3.8,2c1.1,0,2-0.4,2.8-1.3c0.6-0.7,1.1-1.4,1.3-2l0.2-0.4l1.8,0.9c-0.4,1.1-1.1,2.2-2,3.1c-0.4,0.4-1,0.8-1.7,1.1
		s-1.5,0.5-2.3,0.5c-2.6,0-4.4-0.8-5.7-2.5S601.5,25.1,601.5,22.2z"/>
	<path class="st0" d="M617.1,14.7v-2h3.1V6h2.3v6.8h4.3v2h-4.3v11.8c0,1.2,0.2,2,0.5,2.4s1,0.7,1.8,0.7c0.3,0,0.7,0,1.2-0.1
		s0.7-0.1,0.7-0.1v1.7c-0.8,0.3-1.5,0.4-2.3,0.4s-1.2,0-1.5-0.1s-0.6-0.1-1-0.3s-0.7-0.5-0.9-0.8c-0.6-0.8-0.9-2.1-0.9-3.9V14.7
		H617.1z"/>
	<path class="st0" d="M629.3,10.4V7.8h2.6v2.6H629.3z M629.4,31.3V12.8h2.3v18.5H629.4z"/>
	<path class="st0" d="M635.8,21.9c0-2.8,0.6-5.1,1.9-6.8s3-2.5,5.3-2.5s4.1,0.9,5.3,2.6s1.9,4,1.9,6.9s-0.6,5.2-1.9,6.9
		s-3,2.6-5.3,2.6c-2.3,0-4.1-0.9-5.4-2.7C636.4,27,635.8,24.8,635.8,21.9z M638.1,22c0,3.7,1,6.1,2.9,7.1c0.6,0.3,1.3,0.5,2,0.5
		s1.4-0.2,2-0.5s1.1-0.7,1.4-1.2s0.6-1.1,0.9-1.7c0.4-1.2,0.6-2.6,0.6-4.1c0-5-1.6-7.5-4.9-7.5S638.1,17,638.1,22z"/>
	<path class="st0" d="M653.7,31.3V12.8h2.3v3c1-1,2-1.8,2.9-2.4s2-0.9,3.3-0.9s2.3,0.4,3.2,1.2s1.3,2.1,1.3,3.7v13.8h-2.3V17.5
		c0-0.9-0.3-1.6-0.9-2.1s-1.3-0.8-2-0.8c-1.7,0-3.5,1-5.4,3v13.7H653.7z"/>
</g>
<g>
	<circle class="st1" cx="105.8" cy="402.9" r="48.5"/>
	<path class="st0" d="M105.8,355.9c25.9,0,47,21.1,47,47s-21.1,47-47,47s-47-21.1-47-47S79.8,355.9,105.8,355.9 M105.8,352.9
		c-27.6,0-50,22.4-50,50c0,27.6,22.4,50,50,50s50-22.4,50-50C155.8,375.3,133.4,352.9,105.8,352.9L105.8,352.9z"/>
</g>
<g>
	<path class="st0" d="M63.8,24.8l2.4-0.8c0,0,0,0.1,0.1,0.3s0.1,0.5,0.2,0.8s0.3,0.7,0.4,1.1s0.5,0.8,0.8,1.2s0.7,0.7,1.2,1.1
		c1,0.7,2.3,1.1,4,1.1s2.9-0.5,3.7-1.4s1.2-2,1.2-3.3s-0.3-2.4-0.8-3.1s-1.4-1.4-2.7-1.9c-0.4-0.2-0.9-0.3-1.5-0.5l-1.7-0.6
		c-2.9-1-4.8-2.2-5.8-3.7c-0.7-1-1-2.3-1-3.7c0-1.7,0.7-3.2,2-4.6C67,5.9,67.7,5.4,68.7,5s2-0.6,3-0.6s2,0.1,2.8,0.4s1.5,0.6,2,1.1
		s0.9,0.9,1.3,1.5s0.7,1,0.9,1.5l0.5,1.3c0.2,0.4,0.2,0.7,0.3,0.7l-2.3,0.9c0-0.1-0.1-0.2-0.2-0.6s-0.2-0.6-0.2-0.8
		s-0.2-0.5-0.3-0.8S76.2,8.9,76,8.7s-0.4-0.5-0.7-0.8s-0.6-0.5-0.9-0.7c-0.8-0.4-1.6-0.6-2.6-0.6c-1.4,0-2.6,0.4-3.5,1.3
		s-1.4,2-1.4,3.4c0,1.5,0.4,2.6,1.2,3.2c0.4,0.3,0.8,0.6,1.1,0.7s0.7,0.3,1.1,0.4s0.7,0.3,0.9,0.3s0.6,0.2,1.1,0.4l1.5,0.5
		c2.7,0.8,4.6,2.1,5.6,3.7c0.7,1.1,1,2.5,1,4c0,1.1-0.4,2.3-1.1,3.6c-0.9,1.6-2.3,2.6-4.1,3.2c-0.7,0.2-1.5,0.3-2.4,0.3
		s-1.8-0.1-2.7-0.4s-1.6-0.6-2.2-1s-1.1-0.8-1.6-1.3s-0.9-1-1.2-1.4c-0.5-0.9-0.9-1.6-1.1-2.3L63.8,24.8z"/>
	<path class="st0" d="M83.5,38.5V12.8h2.3v2.9c0.3-0.5,0.7-1.1,1.4-1.6c1.2-1,2.5-1.5,3.8-1.5c2.5,0,4.3,1.3,5.6,4
		c0.7,1.5,1.1,3.2,1.1,5.1c0,3.2-0.8,5.8-2.4,7.7c-1.1,1.4-2.7,2.1-4.6,2.1c-1.1,0-2.1-0.3-3.1-1s-1.6-1.2-1.8-1.7v9.7H83.5z
		 M85.8,26.9c0.5,0.8,1.2,1.4,2,1.9s1.5,0.8,2.2,0.8s1.3-0.1,1.8-0.2s0.9-0.4,1.4-0.7s0.9-0.8,1.2-1.4c0.7-1.3,1.1-3.1,1.1-5.5
		c0-2.9-0.7-5-2-6.2c-0.7-0.6-1.6-1-2.7-1c-1.5,0-2.8,0.6-3.9,1.9c-0.3,0.3-0.6,0.7-1,1.2V26.9z"/>
	<path class="st0" d="M100.4,21.9c0-2.8,0.6-5.1,1.9-6.8s3-2.5,5.3-2.5s4.1,0.9,5.3,2.6s1.9,4,1.9,6.9s-0.6,5.2-1.9,6.9
		s-3,2.6-5.3,2.6c-2.3,0-4.1-0.9-5.4-2.7C101,27,100.4,24.8,100.4,21.9z M102.7,22c0,3.7,1,6.1,2.9,7.1c0.6,0.3,1.3,0.5,2,0.5
		s1.4-0.2,2-0.5s1.1-0.7,1.4-1.2s0.6-1.1,0.9-1.7c0.4-1.2,0.6-2.6,0.6-4.1c0-5-1.6-7.5-4.9-7.5S102.7,17,102.7,22z"/>
	<path class="st0" d="M117.5,22.2c0-6.4,2.5-9.6,7.5-9.6c1.2,0,2.3,0.3,3.1,0.9c0.8,0.6,1.4,1.1,1.7,1.6c0.5,0.8,0.8,1.5,1,2
		l-1.9,0.8c0-0.2-0.1-0.6-0.4-1s-0.5-0.8-0.7-1.1s-0.6-0.6-1.1-0.8s-1-0.4-1.6-0.4c-3.4,0-5.2,2.5-5.2,7.5c0,2.4,0.5,4.3,1.4,5.6
		s2.2,2,3.8,2c1.1,0,2-0.4,2.8-1.3c0.6-0.7,1.1-1.4,1.3-2l0.2-0.4l1.8,0.9c-0.4,1.1-1.1,2.2-2,3.1c-0.4,0.4-1,0.8-1.7,1.1
		s-1.5,0.5-2.3,0.5c-2.6,0-4.4-0.8-5.7-2.5S117.5,25.1,117.5,22.2z"/>
	<path class="st0" d="M134.7,31.3V4.7h2.3v17.3l7.1-9.2h2.8l-4.9,6.3l5.9,12.2h-2.6l-5-10.2l-3.4,4.3v6H134.7z"/>
</g>
<g>
	<path class="st0" d="M2.4,500v-26.6H5v24.1h11.8v2.5H2.4z"/>
	<path class="st0" d="M20.3,497.4c-0.6-0.9-1-1.8-1.3-2.9s-0.4-2.2-0.4-3.3s0.1-2.2,0.2-3.2s0.4-1.8,0.7-2.4s0.6-1.3,1-1.8
		s0.8-0.9,1.2-1.3s0.9-0.6,1.3-0.8c0.8-0.4,1.6-0.5,2.4-0.5s1.4,0.1,1.9,0.2s1.1,0.4,1.7,0.8s1.1,1,1.6,1.6c1,1.6,1.5,3.9,1.5,7
		H20.9c0,3.1,0.8,5.3,2.4,6.4c0.8,0.6,1.7,0.8,2.6,0.8c1.8,0,3.3-1.1,4.6-3.4l1.6,1.1c-0.5,0.8-1.1,1.6-1.8,2.3
		c-1.4,1.3-2.8,1.9-4.2,1.9s-2.5-0.3-3.5-0.8S20.9,498.2,20.3,497.4z M21,489h8.7c0-1.7-0.4-3.2-1.2-4.3c-0.7-1-1.6-1.4-2.9-1.4
		c-2.1,0-3.4,0.9-4.1,2.8C21.1,487,21,487.9,21,489z"/>
	<path class="st0" d="M34.8,490.6c0-2.8,0.6-5.1,1.9-6.8s3-2.5,5.3-2.5s4.1,0.9,5.3,2.6s1.9,4,1.9,6.9s-0.6,5.2-1.9,6.9
		s-3,2.6-5.3,2.6c-2.3,0-4.1-0.9-5.4-2.7C35.4,495.7,34.8,493.4,34.8,490.6z M37.1,490.7c0,3.7,1,6.1,2.9,7.1c0.6,0.3,1.3,0.5,2,0.5
		s1.4-0.2,2-0.5s1.1-0.7,1.4-1.2s0.6-1.1,0.9-1.7c0.4-1.2,0.6-2.6,0.6-4.1c0-5-1.6-7.5-4.9-7.5S37.1,485.7,37.1,490.7z"/>
	<path class="st0" d="M52.7,500v-18.5H55v3c1-1,2-1.8,2.9-2.4s2-0.9,3.3-0.9s2.3,0.4,3.2,1.2s1.3,2.1,1.3,3.7V500h-2.3v-13.8
		c0-0.9-0.3-1.6-0.9-2.1s-1.3-0.8-2-0.8c-1.7,0-3.5,1-5.4,3V500H52.7z"/>
	<path class="st0" d="M68.9,495.5c0-0.8,0.1-1.6,0.3-2.2s0.5-1.2,1-1.7s1-0.9,1.5-1.3s1.3-0.7,2.1-1c1.6-0.6,3.5-1,5.7-1.5
		c0-1.9-0.4-3.1-1.1-3.7c-0.6-0.6-1.6-0.8-2.8-0.8c-1.5,0-2.7,0.6-3.8,1.7c-0.5,0.5-0.8,0.9-0.9,1.2l-1.7-1.1
		c1.3-2.5,3.5-3.8,6.7-3.8c2.8,0,4.6,1.1,5.4,3.3c0.3,0.9,0.5,1.9,0.5,3.2v9.7c0,0.3,0.1,0.8,0.2,1.4s0.2,1,0.4,1.2h-2.3
		c-0.4-0.2-0.5-1.2-0.5-3c-1.7,2.1-3.5,3.2-5.5,3.2c-2.2,0-3.7-0.8-4.6-2.3C69.1,497.1,68.9,496.3,68.9,495.5z M71.6,493.5
		c-0.3,0.5-0.4,1.2-0.4,2.1s0.3,1.5,0.9,2s1.3,0.7,2,0.7s1.4-0.1,2-0.3s1.1-0.5,1.6-0.9c0.9-0.6,1.5-1.2,1.9-1.7v-5.6
		c-2.2,0.6-3.5,0.9-4,1.1C73.6,491.5,72.2,492.4,71.6,493.5z"/>
	<path class="st0" d="M86,500v-18.5h2.3v5c0.6-1.2,1-2.1,1.3-2.5c1.1-1.8,2.6-2.7,4.5-2.7c0.1,0,0.4,0,0.6,0v2
		c-0.8,0.1-1.5,0.3-2,0.4s-1,0.5-1.5,0.9c-0.9,0.7-1.8,2.2-2.8,4.3v11H86z"/>
	<path class="st0" d="M108.2,497.1c-1.2,2.1-2.9,3.1-5,3.1c-1.1,0-2-0.3-2.9-0.8s-1.6-1.2-2.1-2.1c-1.1-1.8-1.7-3.9-1.7-6.2
		c0-1.7,0.3-3.3,0.8-4.8s1.4-2.7,2.5-3.6s2.2-1.4,3.5-1.4s2.3,0.3,3.2,0.9s1.5,1.2,1.7,1.7v-10.5h2.3v24.1c0,0.4,0,0.8,0.1,1.4
		s0.2,1,0.3,1.2h-2.3C108.4,499.9,108.2,498.9,108.2,497.1z M98.8,491c0,2.1,0.4,3.8,1.1,5.1c0.8,1.4,2,2.1,3.7,2.1
		c1.1,0,2-0.3,2.7-0.9c0.6-0.5,1.2-1.2,1.9-2.2v-9.2c-1.2-1.8-2.6-2.7-4.2-2.7C100.6,483.2,98.8,485.8,98.8,491z"/>
	<path class="st0" d="M123.7,500v-26.6h4.1l10.7,20.3v-20.3h2.6V500H139l-12.7-24v24H123.7z"/>
	<path class="st0" d="M145.6,479.1v-2.6h2.6v2.6H145.6z M145.7,500v-18.5h2.3V500H145.7z"/>
	<path class="st0" d="M152.9,500v-18.5h2.3v3.1c1.6-1.6,3-2.6,4.3-3c0.6-0.2,1.3-0.3,2.2-0.3s1.7,0.3,2.5,0.8s1.3,1.4,1.6,2.5
		c1.7-1.7,3.2-2.7,4.4-3.1c0.6-0.2,1.2-0.3,1.8-0.3c1.3,0,2.5,0.4,3.3,1.2s1.3,2.1,1.3,3.7V500h-2.3v-13.8c0-0.9-0.3-1.6-0.9-2.1
		s-1.3-0.8-2-0.8c-1.7,0-3.5,1-5.4,3V500h-2.3v-13.8c0-0.9-0.3-1.6-0.9-2.1s-1.3-0.8-2-0.8c-1.7,0-3.5,1-5.4,3V500H152.9z"/>
	<path class="st0" d="M179.8,490.6c0-2.8,0.6-5.1,1.9-6.8s3-2.5,5.3-2.5s4.1,0.9,5.3,2.6s1.9,4,1.9,6.9s-0.6,5.2-1.9,6.9
		s-3,2.6-5.3,2.6c-2.3,0-4.1-0.9-5.4-2.7C180.4,495.7,179.8,493.4,179.8,490.6z M182.1,490.7c0,3.7,1,6.1,2.9,7.1
		c0.6,0.3,1.3,0.5,2,0.5s1.4-0.2,2-0.5s1.1-0.7,1.4-1.2s0.6-1.1,0.9-1.7c0.4-1.2,0.6-2.6,0.6-4.1c0-5-1.6-7.5-4.9-7.5
		S182.1,485.7,182.1,490.7z"/>
	<path class="st0" d="M200.4,506.6c-0.7,0.2-1.4,0.3-2.2,0.3s-1.5,0-2.2-0.1l0.2-2.1c0.4,0.2,1,0.3,1.7,0.3s1.3-0.1,1.7-0.3
		s0.8-0.4,1.1-0.7s0.6-0.6,0.8-0.9s0.4-0.7,0.6-1c0.2-0.7,0.4-1.3,0.5-1.9l-6.7-18.6h2.5l5.3,15.1l4.9-15.1h2.4l-6.5,19.7
		c-0.7,2-1.3,3.4-2,4.1C201.8,506,201.1,506.4,200.4,506.6z"/>
</g>
<g>
	<path class="st0" d="M76.9,263.1V246h1.5v1.9c0.2-0.4,0.5-0.7,0.9-1.1c0.8-0.7,1.7-1,2.5-1c1.6,0,2.9,0.9,3.8,2.7
		c0.5,1,0.7,2.2,0.7,3.4c0,2.2-0.5,3.9-1.6,5.1c-0.8,0.9-1.8,1.4-3.1,1.4c-0.7,0-1.4-0.2-2.1-0.7s-1.1-0.8-1.2-1.1v6.4H76.9z
		 M78.5,255.4c0.4,0.5,0.8,0.9,1.3,1.3s1,0.5,1.5,0.5s0.9,0,1.2-0.1s0.6-0.3,0.9-0.5s0.6-0.5,0.8-0.9c0.5-0.8,0.7-2.1,0.7-3.7
		c0-2-0.5-3.3-1.4-4.1c-0.5-0.4-1.1-0.6-1.8-0.6c-1,0-1.8,0.4-2.6,1.2c-0.2,0.2-0.4,0.5-0.6,0.8V255.4z"/>
	<path class="st0" d="M88.8,258.4v-17.8h1.5v17.8H88.8z"/>
	<path class="st0" d="M93.1,255.3c0-0.6,0.1-1,0.2-1.5s0.4-0.8,0.7-1.1s0.6-0.6,1-0.9s0.9-0.5,1.4-0.7c1-0.4,2.3-0.7,3.8-1
		c0-1.2-0.2-2.1-0.7-2.5c-0.4-0.4-1-0.6-1.8-0.6c-1,0-1.8,0.4-2.5,1.1c-0.3,0.3-0.5,0.6-0.6,0.8l-1.1-0.7c0.9-1.7,2.4-2.5,4.5-2.5
		c1.9,0,3.1,0.7,3.6,2.2c0.2,0.6,0.3,1.3,0.3,2.1v6.4c0,0.2,0,0.5,0.1,0.9s0.2,0.7,0.2,0.8h-1.6c-0.2-0.1-0.4-0.8-0.4-2
		c-1.1,1.4-2.3,2.1-3.6,2.1c-1.5,0-2.5-0.5-3.1-1.5C93.2,256.4,93.1,255.9,93.1,255.3z M94.9,254c-0.2,0.4-0.3,0.8-0.3,1.4
		s0.2,1,0.6,1.3s0.9,0.5,1.4,0.5s0.9-0.1,1.3-0.2s0.7-0.3,1-0.6c0.6-0.4,1-0.8,1.3-1.1v-3.7c-1.5,0.4-2.4,0.6-2.6,0.7
		C96.2,252.7,95.3,253.3,94.9,254z"/>
	<path class="st0" d="M106.3,262.8c-0.5,0.1-1,0.2-1.5,0.2s-1,0-1.4-0.1l0.1-1.4c0.3,0.1,0.7,0.2,1.1,0.2s0.9-0.1,1.2-0.2
		s0.6-0.3,0.8-0.5s0.4-0.4,0.5-0.6s0.3-0.5,0.4-0.7c0.2-0.4,0.3-0.9,0.4-1.3l-4.4-12.4h1.7l3.5,10.1l3.3-10.1h1.6l-4.3,13.1
		c-0.4,1.3-0.9,2.2-1.3,2.7C107.3,262.3,106.8,262.6,106.3,262.8z"/>
	<path class="st0" d="M115.7,256.6c-0.4-0.6-0.7-1.2-0.9-1.9s-0.3-1.4-0.3-2.2s0.1-1.5,0.2-2.1s0.3-1.2,0.4-1.6s0.4-0.8,0.7-1.2
		s0.5-0.6,0.8-0.8s0.6-0.4,0.9-0.5c0.6-0.2,1.1-0.4,1.6-0.4s0.9,0,1.3,0.1s0.7,0.3,1.1,0.6s0.7,0.6,1,1.1c0.7,1.1,1,2.6,1,4.7h-7.4
		c0,2.1,0.5,3.5,1.6,4.3c0.5,0.4,1.1,0.6,1.7,0.6c1.2,0,2.2-0.7,3.1-2.2l1.1,0.7c-0.3,0.6-0.7,1.1-1.2,1.5c-0.9,0.9-1.9,1.3-2.8,1.3
		s-1.7-0.2-2.3-0.5S116.1,257.2,115.7,256.6z M116.2,251h5.8c0-1.2-0.3-2.1-0.8-2.9c-0.5-0.6-1.1-1-1.9-1c-1.4,0-2.3,0.6-2.7,1.9
		C116.3,249.7,116.2,250.3,116.2,251z"/>
	<path class="st0" d="M133.2,256.4c-0.8,1.4-1.9,2.1-3.3,2.1c-0.7,0-1.4-0.2-1.9-0.5s-1.1-0.8-1.4-1.4c-0.8-1.2-1.1-2.6-1.1-4.2
		c0-1.1,0.2-2.2,0.6-3.2s0.9-1.8,1.6-2.4s1.5-0.9,2.3-0.9s1.5,0.2,2.2,0.6s1,0.8,1.2,1.1v-7h1.5v16c0,0.2,0,0.5,0.1,0.9
		s0.1,0.6,0.2,0.8h-1.6C133.3,258.2,133.2,257.6,133.2,256.4z M127,252.4c0,1.4,0.2,2.5,0.7,3.4c0.5,0.9,1.3,1.4,2.4,1.4
		c0.7,0,1.4-0.2,1.8-0.6c0.4-0.3,0.8-0.8,1.3-1.4v-6.2c-0.8-1.2-1.8-1.8-2.8-1.8C128.1,247.2,127,248.9,127,252.4z"/>
</g>
<g>
	<path class="st0" d="M236.5,252.2c0-4.3,1.7-6.4,5-6.4c0.8,0,1.5,0.2,2.1,0.6c0.6,0.4,0.9,0.7,1.1,1.1c0.3,0.5,0.5,1,0.6,1.3
		l-1.2,0.6c0-0.2-0.1-0.4-0.3-0.7s-0.3-0.6-0.5-0.8s-0.4-0.4-0.7-0.5s-0.7-0.2-1.1-0.2c-2.3,0-3.4,1.7-3.4,5c0,1.6,0.3,2.8,0.9,3.7
		s1.4,1.3,2.5,1.3c0.7,0,1.4-0.3,1.9-0.9c0.4-0.5,0.7-0.9,0.9-1.3l0.1-0.3l1.2,0.6c-0.3,0.8-0.7,1.4-1.3,2.1
		c-0.3,0.3-0.7,0.5-1.1,0.8s-1,0.3-1.5,0.3c-1.7,0-3-0.5-3.8-1.6S236.5,254.2,236.5,252.2z"/>
	<path class="st0" d="M248,258.3v-17.8h1.5v7.4c1.2-1.1,2.1-1.8,2.8-2c0.4-0.1,0.8-0.2,1.2-0.2c0.9,0,1.6,0.3,2.2,0.8
		s0.9,1.4,0.9,2.5v9.2h-1.5v-9.2c0-0.6-0.2-1.1-0.6-1.4s-0.9-0.5-1.4-0.5c-1.2,0-2.4,0.7-3.6,2v9.2H248z"/>
	<path class="st0" d="M258.8,255.3c0-0.6,0.1-1,0.2-1.5s0.4-0.8,0.7-1.1s0.6-0.6,1-0.9s0.9-0.5,1.4-0.7c1-0.4,2.3-0.7,3.8-1
		c0-1.2-0.2-2.1-0.7-2.5c-0.4-0.4-1-0.6-1.8-0.6c-1,0-1.8,0.4-2.5,1.1c-0.3,0.3-0.5,0.6-0.6,0.8l-1.1-0.7c0.9-1.7,2.4-2.5,4.5-2.5
		c1.9,0,3.1,0.7,3.6,2.2c0.2,0.6,0.3,1.3,0.3,2.1v6.4c0,0.2,0,0.5,0.1,0.9s0.2,0.7,0.2,0.8h-1.6c-0.2-0.1-0.4-0.8-0.4-2
		c-1.1,1.4-2.3,2.1-3.6,2.1c-1.5,0-2.5-0.5-3.1-1.5C259,256.4,258.8,255.9,258.8,255.3z M260.7,254c-0.2,0.4-0.3,0.8-0.3,1.4
		s0.2,1,0.6,1.3s0.9,0.5,1.4,0.5s0.9-0.1,1.3-0.2s0.7-0.3,1-0.6c0.6-0.4,1-0.8,1.3-1.1v-3.7c-1.5,0.4-2.4,0.6-2.6,0.7
		C262,252.7,261.1,253.3,260.7,254z"/>
	<path class="st0" d="M270.3,258.3V246h1.5v3.3c0.4-0.8,0.6-1.4,0.8-1.7c0.8-1.2,1.8-1.8,3-1.8c0.1,0,0.2,0,0.4,0v1.3
		c-0.5,0.1-1,0.2-1.3,0.3s-0.7,0.3-1,0.6c-0.6,0.5-1.2,1.4-1.9,2.9v7.3H270.3z"/>
	<path class="st0" d="M277.2,255.3c0-0.6,0.1-1,0.2-1.5s0.4-0.8,0.7-1.1s0.6-0.6,1-0.9s0.9-0.5,1.4-0.7c1-0.4,2.3-0.7,3.8-1
		c0-1.2-0.2-2.1-0.7-2.5c-0.4-0.4-1-0.6-1.8-0.6c-1,0-1.8,0.4-2.5,1.1c-0.3,0.3-0.5,0.6-0.6,0.8l-1.1-0.7c0.9-1.7,2.4-2.5,4.5-2.5
		c1.9,0,3.1,0.7,3.6,2.2c0.2,0.6,0.3,1.3,0.3,2.1v6.4c0,0.2,0,0.5,0.1,0.9s0.2,0.7,0.2,0.8h-1.6c-0.2-0.1-0.4-0.8-0.4-2
		c-1.1,1.4-2.3,2.1-3.6,2.1c-1.5,0-2.5-0.5-3.1-1.5C277.3,256.4,277.2,255.9,277.2,255.3z M279,254c-0.2,0.4-0.3,0.8-0.3,1.4
		s0.2,1,0.6,1.3s0.9,0.5,1.4,0.5s0.9-0.1,1.3-0.2s0.7-0.3,1-0.6c0.6-0.4,1-0.8,1.3-1.1v-3.7c-1.5,0.4-2.4,0.6-2.6,0.7
		C280.3,252.7,279.4,253.3,279,254z"/>
	<path class="st0" d="M288.1,252.2c0-4.3,1.7-6.4,5-6.4c0.8,0,1.5,0.2,2.1,0.6c0.6,0.4,0.9,0.7,1.1,1.1c0.3,0.5,0.5,1,0.6,1.3
		l-1.2,0.6c0-0.2-0.1-0.4-0.3-0.7s-0.3-0.6-0.5-0.8s-0.4-0.4-0.7-0.5s-0.7-0.2-1.1-0.2c-2.3,0-3.4,1.7-3.4,5c0,1.6,0.3,2.8,0.9,3.7
		s1.4,1.3,2.5,1.3c0.7,0,1.4-0.3,1.9-0.9c0.4-0.5,0.7-0.9,0.9-1.3l0.1-0.3l1.2,0.6c-0.3,0.8-0.7,1.4-1.3,2.1
		c-0.3,0.3-0.7,0.5-1.1,0.8s-1,0.3-1.5,0.3c-1.7,0-3-0.5-3.8-1.6S288.1,254.2,288.1,252.2z"/>
	<path class="st0" d="M298.5,247.3V246h2.1v-4.5h1.5v4.5h2.8v1.3h-2.8v7.8c0,0.8,0.1,1.3,0.4,1.6s0.6,0.4,1.2,0.4
		c0.2,0,0.5,0,0.8-0.1s0.5-0.1,0.5-0.1v1.2c-0.5,0.2-1,0.3-1.5,0.3s-0.8,0-1,0s-0.4-0.1-0.7-0.2s-0.5-0.3-0.6-0.5
		c-0.4-0.5-0.6-1.4-0.6-2.6v-7.8H298.5z"/>
	<path class="st0" d="M307.2,256.6c-0.4-0.6-0.7-1.2-0.9-1.9s-0.3-1.4-0.3-2.2s0.1-1.5,0.2-2.1s0.3-1.2,0.4-1.6s0.4-0.8,0.7-1.2
		s0.5-0.6,0.8-0.8s0.6-0.4,0.9-0.5c0.6-0.2,1.1-0.4,1.6-0.4s0.9,0,1.3,0.1s0.7,0.3,1.1,0.6s0.7,0.6,1,1.1c0.7,1.1,1,2.6,1,4.7h-7.4
		c0,2.1,0.5,3.5,1.6,4.3c0.5,0.4,1.1,0.6,1.7,0.6c1.2,0,2.2-0.7,3.1-2.2l1.1,0.7c-0.3,0.6-0.7,1.1-1.2,1.5c-0.9,0.9-1.9,1.3-2.8,1.3
		s-1.7-0.2-2.3-0.5S307.6,257.2,307.2,256.6z M307.7,251h5.8c0-1.2-0.3-2.1-0.8-2.9c-0.5-0.6-1.1-1-1.9-1c-1.4,0-2.3,0.6-2.7,1.9
		C307.8,249.7,307.7,250.3,307.7,251z"/>
	<path class="st0" d="M317.4,258.3V246h1.5v3.3c0.4-0.8,0.6-1.4,0.8-1.7c0.8-1.2,1.8-1.8,3-1.8c0.1,0,0.2,0,0.4,0v1.3
		c-0.5,0.1-1,0.2-1.3,0.3s-0.7,0.3-1,0.6c-0.6,0.5-1.2,1.4-1.9,2.9v7.3H317.4z"/>
	<path class="st0" d="M325.1,258.3v-17.8h1.7v17.8H325.1z"/>
	<path class="st0" d="M329.8,258.3V246h1.5v2c0.7-0.7,1.3-1.2,2-1.6s1.3-0.6,2.2-0.6s1.5,0.3,2.1,0.8s0.9,1.4,0.9,2.5v9.2h-1.5v-9.2
		c0-0.6-0.2-1.1-0.6-1.4s-0.9-0.5-1.4-0.5c-1.2,0-2.4,0.7-3.6,2v9.2H329.8z"/>
</g>
<g>
	<path class="st0" d="M247.1,406.4l1.2-0.8c0.4,0.6,0.9,1.1,1.4,1.4s1.1,0.5,1.9,0.5c0.8,0,1.4-0.2,1.9-0.6c0.4-0.3,0.6-0.8,0.6-1.3
		s-0.1-0.9-0.3-1.2s-0.4-0.5-0.7-0.7c-0.5-0.3-1.1-0.5-1.6-0.7s-1-0.3-1.3-0.4s-0.7-0.3-1-0.5s-0.6-0.4-0.9-0.7
		c-0.6-0.6-0.9-1.3-0.9-2.2s0.4-1.7,1.1-2.3s1.7-0.9,2.8-0.9c1.3,0,2.5,0.5,3.4,1.4c0.2,0.2,0.3,0.4,0.4,0.5l-1.1,0.8
		c-0.1-0.1-0.2-0.2-0.3-0.3s-0.3-0.3-0.3-0.3l-0.3-0.2c-0.1-0.1-0.3-0.2-0.4-0.2l-0.4-0.1c-0.2-0.1-0.7-0.1-1.3-0.1
		s-1.1,0.2-1.5,0.5s-0.6,0.7-0.6,1.1s0.1,0.7,0.2,1s0.4,0.5,0.6,0.6c0.5,0.3,1,0.5,1.6,0.7s1,0.3,1.2,0.4s0.4,0.2,0.8,0.3
		s0.6,0.3,0.8,0.4s0.4,0.3,0.6,0.5s0.4,0.4,0.5,0.6c0.3,0.5,0.5,1.1,0.5,1.7c0,1-0.4,1.9-1.2,2.6s-1.7,1-2.7,1s-1.9-0.2-2.6-0.6
		S247.6,407.2,247.1,406.4z"/>
	<path class="st0" d="M256.8,397.7v-1.3h2.1v-4.5h1.5v4.5h2.8v1.3h-2.8v7.8c0,0.8,0.1,1.3,0.4,1.6s0.6,0.4,1.2,0.4
		c0.2,0,0.5,0,0.8-0.1s0.5-0.1,0.5-0.1v1.2c-0.5,0.2-1,0.3-1.5,0.3s-0.8,0-1,0s-0.4-0.1-0.7-0.2s-0.5-0.3-0.6-0.5
		c-0.4-0.5-0.6-1.4-0.6-2.6v-7.8H256.8z"/>
	<path class="st0" d="M264.4,405.7c0-0.6,0.1-1,0.2-1.5s0.4-0.8,0.7-1.1s0.6-0.6,1-0.9s0.9-0.5,1.4-0.7c1-0.4,2.3-0.7,3.8-1
		c0-1.2-0.2-2.1-0.7-2.5c-0.4-0.4-1-0.6-1.8-0.6c-1,0-1.8,0.4-2.5,1.1c-0.3,0.3-0.5,0.6-0.6,0.8l-1.1-0.7c0.9-1.7,2.4-2.5,4.5-2.5
		c1.9,0,3.1,0.7,3.6,2.2c0.2,0.6,0.3,1.3,0.3,2.1v6.4c0,0.2,0,0.5,0.1,0.9s0.2,0.7,0.2,0.8h-1.6c-0.2-0.1-0.4-0.8-0.4-2
		c-1.1,1.4-2.3,2.1-3.6,2.1c-1.5,0-2.5-0.5-3.1-1.5C264.5,406.8,264.4,406.3,264.4,405.7z M266.2,404.4c-0.2,0.4-0.3,0.8-0.3,1.4
		s0.2,1,0.6,1.3s0.9,0.5,1.4,0.5s0.9-0.1,1.3-0.2s0.7-0.3,1-0.6c0.6-0.4,1-0.8,1.3-1.1v-3.7c-1.5,0.4-2.4,0.6-2.6,0.7
		C267.5,403.1,266.6,403.6,266.2,404.4z"/>
	<path class="st0" d="M275.8,408.7v-12.4h1.5v3.3c0.4-0.8,0.6-1.4,0.8-1.7c0.8-1.2,1.8-1.8,3-1.8c0.1,0,0.2,0,0.4,0v1.3
		c-0.5,0.1-1,0.2-1.3,0.3s-0.7,0.3-1,0.6c-0.6,0.5-1.2,1.4-1.9,2.9v7.3H275.8z"/>
	<path class="st0" d="M283.3,408.7v-12.4h1.5v3.3c0.4-0.8,0.6-1.4,0.8-1.7c0.8-1.2,1.8-1.8,3-1.8c0.1,0,0.2,0,0.4,0v1.3
		c-0.5,0.1-1,0.2-1.3,0.3s-0.7,0.3-1,0.6c-0.6,0.5-1.2,1.4-1.9,2.9v7.3H283.3z"/>
	<path class="st0" d="M291.4,407c-0.4-0.6-0.7-1.2-0.9-1.9s-0.3-1.4-0.3-2.2s0.1-1.5,0.2-2.1s0.3-1.2,0.4-1.6s0.4-0.8,0.7-1.2
		s0.5-0.6,0.8-0.8s0.6-0.4,0.9-0.5c0.6-0.2,1.1-0.4,1.6-0.4s0.9,0,1.3,0.1s0.7,0.3,1.1,0.6s0.7,0.6,1,1.1c0.7,1.1,1,2.6,1,4.7h-7.4
		c0,2.1,0.5,3.5,1.6,4.3c0.5,0.4,1.1,0.6,1.7,0.6c1.2,0,2.2-0.7,3.1-2.2l1.1,0.7c-0.3,0.6-0.7,1.1-1.2,1.5c-0.9,0.9-1.9,1.3-2.8,1.3
		s-1.7-0.2-2.3-0.5S291.8,407.6,291.4,407z M291.9,401.4h5.8c0-1.2-0.3-2.1-0.8-2.9c-0.5-0.6-1.1-1-1.9-1c-1.4,0-2.3,0.6-2.7,1.9
		C292,400,291.9,400.7,291.9,401.4z"/>
	<path class="st0" d="M308.9,406.8c-0.8,1.4-1.9,2.1-3.3,2.1c-0.7,0-1.4-0.2-1.9-0.5s-1.1-0.8-1.4-1.4c-0.8-1.2-1.1-2.6-1.1-4.2
		c0-1.1,0.2-2.2,0.6-3.2s0.9-1.8,1.6-2.4s1.5-0.9,2.3-0.9s1.5,0.2,2.2,0.6s1,0.8,1.2,1.1v-7h1.5v16c0,0.2,0,0.5,0.1,0.9
		s0.1,0.6,0.2,0.8h-1.6C309,408.6,308.9,408,308.9,406.8z M302.6,402.8c0,1.4,0.2,2.5,0.7,3.4c0.5,0.9,1.3,1.4,2.4,1.4
		c0.7,0,1.4-0.2,1.8-0.6c0.4-0.3,0.8-0.8,1.3-1.4v-6.2c-0.8-1.2-1.8-1.8-2.8-1.8C303.8,397.5,302.6,399.3,302.6,402.8z"/>
	<path class="st0" d="M313.3,408.7V391h1.7v17.8H313.3z"/>
	<path class="st0" d="M318.1,408.7v-12.4h1.5v2c0.7-0.7,1.3-1.2,2-1.6s1.3-0.6,2.2-0.6s1.5,0.3,2.1,0.8s0.9,1.4,0.9,2.5v9.2h-1.5
		v-9.2c0-0.6-0.2-1.1-0.6-1.4s-0.9-0.5-1.4-0.5c-1.2,0-2.4,0.7-3.6,2v9.2H318.1z"/>
</g>
<g>
	<path class="st0" d="M484.5,261.8c-0.3-0.4-0.5-0.9-0.5-1.3s0.1-0.8,0.2-1s0.3-0.4,0.5-0.6s0.4-0.3,0.6-0.5s0.4-0.2,0.7-0.4
		s0.5-0.2,0.6-0.3c-0.6-0.1-1.1-0.4-1.5-0.7s-0.5-0.6-0.5-0.9s0.1-0.5,0.2-0.8s0.3-0.4,0.5-0.6c0.3-0.3,0.6-0.5,0.9-0.7
		s0.4-0.2,0.4-0.2c-0.5-0.4-0.9-0.9-1.2-1.6s-0.5-1.4-0.5-2.1s0.2-1.5,0.6-2.2s1-1.2,1.7-1.6s1.4-0.6,2.1-0.6s1.2,0.1,1.6,0.2
		s0.8,0.4,1.3,0.7c0.6-0.5,1.1-0.8,1.5-0.8c0.5-0.1,0.9-0.2,1.3-0.2v1.4h0c-1.3,0-2,0.1-2,0.4c0.4,0.7,0.6,1.3,0.7,1.6
		s0.1,0.7,0.1,1c0,1.3-0.4,2.3-1.2,3.2s-1.9,1.3-3.1,1.3c-0.7,0-1.4-0.1-2.1-0.4c-0.1,0.1-0.2,0.2-0.4,0.3c-0.5,0.3-0.7,0.7-0.7,1
		c0,0.4,0.2,0.6,0.5,0.7c0.2,0.1,0.6,0.2,0.9,0.2s0.6,0.1,0.8,0.1s0.4,0,0.8,0c0.9,0,1.9,0.2,3.1,0.4c0.8,0.2,1.4,0.5,1.9,1.1
		s0.7,1.2,0.7,1.9c0,2.2-1.9,3.4-5.6,3.4c-1.3,0-2.5-0.2-3.5-0.7C485.2,262.6,484.8,262.3,484.5,261.8z M485.5,260.3
		c0,0.8,0.4,1.3,1.2,1.6c0.7,0.2,1.4,0.4,2,0.4s1,0,1.2,0s0.5,0,0.8,0s0.6-0.1,0.8-0.1s0.4-0.1,0.7-0.2s0.4-0.2,0.6-0.4
		c0.3-0.3,0.5-0.7,0.5-1.2s-0.2-0.8-0.5-1.1s-0.7-0.5-1.2-0.6s-1-0.2-1.4-0.3s-0.9-0.1-1.3-0.1s-0.7,0-0.8-0.1
		c-0.8,0.3-1.4,0.5-1.6,0.7C485.8,259.2,485.5,259.7,485.5,260.3z M487.1,248c-0.6,0.6-0.9,1.3-0.9,2.2s0.3,1.7,0.8,2.3
		s1.3,0.9,2.2,0.9s1.7-0.3,2.1-0.9s0.7-1.4,0.7-2.2s-0.2-1.6-0.7-2.2s-1.2-0.9-2.1-0.9S487.7,247.5,487.1,248z"/>
	<path class="st0" d="M497.3,256.6c-0.4-0.6-0.7-1.2-0.9-1.9s-0.3-1.4-0.3-2.2s0.1-1.5,0.2-2.1s0.3-1.2,0.4-1.6s0.4-0.8,0.7-1.2
		s0.5-0.6,0.8-0.8s0.6-0.4,0.9-0.5c0.6-0.2,1.1-0.4,1.6-0.4s0.9,0,1.3,0.1s0.7,0.3,1.1,0.6s0.7,0.6,1,1.1c0.7,1.1,1,2.6,1,4.7h-7.4
		c0,2.1,0.5,3.5,1.6,4.3c0.5,0.4,1.1,0.6,1.7,0.6c1.2,0,2.2-0.7,3.1-2.2l1.1,0.7c-0.3,0.6-0.7,1.1-1.2,1.5c-0.9,0.9-1.9,1.3-2.8,1.3
		s-1.7-0.2-2.3-0.5S497.7,257.2,497.3,256.6z M497.8,251h5.8c0-1.2-0.3-2.1-0.8-2.9c-0.5-0.6-1.1-1-1.9-1c-1.4,0-2.3,0.6-2.7,1.9
		C497.9,249.7,497.8,250.3,497.8,251z"/>
	<path class="st0" d="M507.5,258.3V246h1.5v2c0.7-0.7,1.3-1.2,2-1.6s1.3-0.6,2.2-0.6s1.5,0.3,2.1,0.8s0.9,1.4,0.9,2.5v9.2h-1.5v-9.2
		c0-0.6-0.2-1.1-0.6-1.4s-0.9-0.5-1.4-0.5c-1.2,0-2.4,0.7-3.6,2v9.2H507.5z"/>
	<path class="st0" d="M518.9,258.3V246h1.5v3.3c0.4-0.8,0.6-1.4,0.8-1.7c0.8-1.2,1.8-1.8,3-1.8c0.1,0,0.2,0,0.4,0v1.3
		c-0.5,0.1-1,0.2-1.3,0.3s-0.7,0.3-1,0.6c-0.6,0.5-1.2,1.4-1.9,2.9v7.3H518.9z"/>
	<path class="st0" d="M527,256.6c-0.4-0.6-0.7-1.2-0.9-1.9s-0.3-1.4-0.3-2.2s0.1-1.5,0.2-2.1s0.3-1.2,0.4-1.6s0.4-0.8,0.7-1.2
		s0.5-0.6,0.8-0.8s0.6-0.4,0.9-0.5c0.6-0.2,1.1-0.4,1.6-0.4s0.9,0,1.3,0.1s0.7,0.3,1.1,0.6s0.7,0.6,1,1.1c0.7,1.1,1,2.6,1,4.7h-7.4
		c0,2.1,0.5,3.5,1.6,4.3c0.5,0.4,1.1,0.6,1.7,0.6c1.2,0,2.2-0.7,3.1-2.2l1.1,0.7c-0.3,0.6-0.7,1.1-1.2,1.5c-0.9,0.9-1.9,1.3-2.8,1.3
		s-1.7-0.2-2.3-0.5S527.4,257.2,527,256.6z M527.5,251h5.8c0-1.2-0.3-2.1-0.8-2.9c-0.5-0.6-1.1-1-1.9-1c-1.4,0-2.3,0.6-2.7,1.9
		C527.6,249.7,527.5,250.3,527.5,251z"/>
</g>
<g>
	<path class="st0" d="M596,261.8c-0.3-0.4-0.5-0.9-0.5-1.3s0.1-0.8,0.2-1s0.3-0.4,0.5-0.6s0.4-0.3,0.6-0.5s0.4-0.2,0.7-0.4
		s0.5-0.2,0.6-0.3c-0.6-0.1-1.1-0.4-1.5-0.7s-0.5-0.6-0.5-0.9s0.1-0.5,0.2-0.8s0.3-0.4,0.5-0.6c0.3-0.3,0.6-0.5,0.9-0.7
		s0.4-0.2,0.4-0.2c-0.5-0.4-0.9-0.9-1.2-1.6s-0.5-1.4-0.5-2.1s0.2-1.5,0.6-2.2s1-1.2,1.7-1.6s1.4-0.6,2.1-0.6s1.2,0.1,1.6,0.2
		s0.8,0.4,1.3,0.7c0.6-0.5,1.1-0.8,1.5-0.8c0.5-0.1,0.9-0.2,1.3-0.2v1.4h0c-1.3,0-2,0.1-2,0.4c0.4,0.7,0.6,1.3,0.7,1.6
		s0.1,0.7,0.1,1c0,1.3-0.4,2.3-1.2,3.2s-1.9,1.3-3.1,1.3c-0.7,0-1.4-0.1-2.1-0.4c-0.1,0.1-0.2,0.2-0.4,0.3c-0.5,0.3-0.7,0.7-0.7,1
		c0,0.4,0.2,0.6,0.5,0.7c0.2,0.1,0.6,0.2,0.9,0.2s0.6,0.1,0.8,0.1s0.4,0,0.8,0c0.9,0,1.9,0.2,3.1,0.4c0.8,0.2,1.4,0.5,1.9,1.1
		s0.7,1.2,0.7,1.9c0,2.2-1.9,3.4-5.6,3.4c-1.3,0-2.5-0.2-3.5-0.7C596.8,262.6,596.4,262.3,596,261.8z M597.1,260.3
		c0,0.8,0.4,1.3,1.2,1.6c0.7,0.2,1.4,0.4,2,0.4s1,0,1.2,0s0.5,0,0.8,0s0.6-0.1,0.8-0.1s0.4-0.1,0.7-0.2s0.4-0.2,0.6-0.4
		c0.3-0.3,0.5-0.7,0.5-1.2s-0.2-0.8-0.5-1.1s-0.7-0.5-1.2-0.6s-1-0.2-1.4-0.3s-0.9-0.1-1.3-0.1s-0.7,0-0.8-0.1
		c-0.8,0.3-1.4,0.5-1.6,0.7C597.4,259.2,597.1,259.7,597.1,260.3z M598.7,248c-0.6,0.6-0.9,1.3-0.9,2.2s0.3,1.7,0.8,2.3
		s1.3,0.9,2.2,0.9s1.7-0.3,2.1-0.9s0.7-1.4,0.7-2.2s-0.2-1.6-0.7-2.2s-1.2-0.9-2.1-0.9S599.3,247.5,598.7,248z"/>
	<path class="st0" d="M608.9,256.6c-0.4-0.6-0.7-1.2-0.9-1.9s-0.3-1.4-0.3-2.2s0.1-1.5,0.2-2.1s0.3-1.2,0.4-1.6s0.4-0.8,0.7-1.2
		s0.5-0.6,0.8-0.8s0.6-0.4,0.9-0.5c0.6-0.2,1.1-0.4,1.6-0.4s0.9,0,1.3,0.1s0.7,0.3,1.1,0.6s0.7,0.6,1,1.1c0.7,1.1,1,2.6,1,4.7h-7.4
		c0,2.1,0.5,3.5,1.6,4.3c0.5,0.4,1.1,0.6,1.7,0.6c1.2,0,2.2-0.7,3.1-2.2l1.1,0.7c-0.3,0.6-0.7,1.1-1.2,1.5c-0.9,0.9-1.9,1.3-2.8,1.3
		s-1.7-0.2-2.3-0.5S609.3,257.2,608.9,256.6z M609.3,251h5.8c0-1.2-0.3-2.1-0.8-2.9c-0.5-0.6-1.1-1-1.9-1c-1.4,0-2.3,0.6-2.7,1.9
		C609.5,249.7,609.3,250.3,609.3,251z"/>
	<path class="st0" d="M619.1,258.3V246h1.5v2c0.7-0.7,1.3-1.2,2-1.6s1.3-0.6,2.2-0.6s1.5,0.3,2.1,0.8s0.9,1.4,0.9,2.5v9.2h-1.5v-9.2
		c0-0.6-0.2-1.1-0.6-1.4s-0.9-0.5-1.4-0.5c-1.2,0-2.4,0.7-3.6,2v9.2H619.1z"/>
	<path class="st0" d="M630.5,258.3V246h1.5v3.3c0.4-0.8,0.6-1.4,0.8-1.7c0.8-1.2,1.8-1.8,3-1.8c0.1,0,0.2,0,0.4,0v1.3
		c-0.5,0.1-1,0.2-1.3,0.3s-0.7,0.3-1,0.6c-0.6,0.5-1.2,1.4-1.9,2.9v7.3H630.5z"/>
	<path class="st0" d="M638.6,256.6c-0.4-0.6-0.7-1.2-0.9-1.9s-0.3-1.4-0.3-2.2s0.1-1.5,0.2-2.1s0.3-1.2,0.4-1.6s0.4-0.8,0.7-1.2
		s0.5-0.6,0.8-0.8s0.6-0.4,0.9-0.5c0.6-0.2,1.1-0.4,1.6-0.4s0.9,0,1.3,0.1s0.7,0.3,1.1,0.6s0.7,0.6,1,1.1c0.7,1.1,1,2.6,1,4.7H639
		c0,2.1,0.5,3.5,1.6,4.3c0.5,0.4,1.1,0.6,1.7,0.6c1.2,0,2.2-0.7,3.1-2.2l1.1,0.7c-0.3,0.6-0.7,1.1-1.2,1.5c-0.9,0.9-1.9,1.3-2.8,1.3
		s-1.7-0.2-2.3-0.5S639,257.2,638.6,256.6z M639,251h5.8c0-1.2-0.3-2.1-0.8-2.9c-0.5-0.6-1.1-1-1.9-1c-1.4,0-2.3,0.6-2.7,1.9
		C639.2,249.7,639,250.3,639,251z"/>
</g>
<g>
	<circle class="st1" cx="1021.4" cy="402.9" r="48.5"/>
	<path class="st0" d="M1021.4,355.9c25.9,0,47,21.1,47,47s-21.1,47-47,47s-47-21.1-47-47S995.5,355.9,1021.4,355.9 M1021.4,352.9
		c-27.6,0-50,22.4-50,50c0,27.6,22.4,50,50,50s50-22.4,50-50C1071.4,375.3,1049.1,352.9,1021.4,352.9L1021.4,352.9z"/>
</g>
<g>
	<path class="st0" d="M923.7,500l7.6-26.6h3.8l7.6,26.6H940l-2.3-8.4h-8.9l-2.3,8.4H923.7z M929.3,489.4h7.7l-3.9-13.8L929.3,489.4z
		"/>
	<path class="st0" d="M945.4,500v-26.7h2.3V500H945.4z"/>
	<path class="st0" d="M953.5,497.4c-0.6-0.9-1-1.8-1.3-2.9s-0.4-2.2-0.4-3.3s0.1-2.2,0.2-3.2s0.4-1.8,0.7-2.4s0.6-1.3,1-1.8
		s0.8-0.9,1.2-1.3s0.9-0.6,1.3-0.8c0.8-0.4,1.6-0.5,2.4-0.5s1.4,0.1,1.9,0.2s1.1,0.4,1.7,0.8s1.1,1,1.6,1.6c1,1.6,1.5,3.9,1.5,7
		h-11.1c0,3.1,0.8,5.3,2.4,6.4c0.8,0.6,1.7,0.8,2.6,0.8c1.8,0,3.3-1.1,4.6-3.4l1.6,1.1c-0.5,0.8-1.1,1.6-1.8,2.3
		c-1.4,1.3-2.8,1.9-4.2,1.9s-2.5-0.3-3.5-0.8S954.1,498.2,953.5,497.4z M954.2,489h8.7c0-1.7-0.4-3.2-1.2-4.3
		c-0.7-1-1.6-1.4-2.9-1.4c-2.1,0-3.4,0.9-4.1,2.8C954.3,487,954.2,487.9,954.2,489z"/>
	<path class="st0" d="M968,490.9c0-6.4,2.5-9.6,7.5-9.6c1.2,0,2.3,0.3,3.1,0.9c0.8,0.6,1.4,1.1,1.7,1.6c0.5,0.8,0.8,1.5,1,2
		l-1.9,0.8c0-0.2-0.1-0.6-0.4-1s-0.5-0.8-0.7-1.1s-0.6-0.6-1.1-0.8s-1-0.4-1.6-0.4c-3.4,0-5.2,2.5-5.2,7.5c0,2.4,0.5,4.3,1.4,5.6
		s2.2,2,3.8,2c1.1,0,2-0.4,2.8-1.3c0.6-0.7,1.1-1.4,1.3-2l0.2-0.4l1.8,0.9c-0.4,1.1-1.1,2.2-2,3.1c-0.4,0.4-1,0.8-1.7,1.1
		s-1.5,0.5-2.3,0.5c-2.6,0-4.4-0.8-5.7-2.5S968,493.8,968,490.9z"/>
	<path class="st0" d="M994.8,494.2c-0.5-1.2-0.9-2.4-1.1-3.7s-0.3-2.5-0.3-3.8s0.1-2.4,0.2-3.5s0.4-2.1,0.7-3.1s0.8-1.9,1.3-2.8
		s1.2-1.6,1.9-2.2c1.5-1.4,3.4-2,5.6-2c1.7,0,3.2,0.5,4.7,1.5c1.7,1.2,2.9,3.2,3.7,6.1l-2.5,0.6c0-0.1,0-0.2,0-0.3s-0.1-0.4-0.2-0.9
		s-0.2-0.8-0.4-1.2s-0.4-0.8-0.7-1.3s-0.7-0.9-1-1.2c-0.9-0.8-2-1.2-3.4-1.2s-2.5,0.3-3.5,0.9s-1.7,1.5-2.2,2.6
		c-1,2.1-1.5,4.7-1.5,7.7c0,3.6,0.5,6.3,1.4,8.1c1.2,2.3,3.2,3.5,5.8,3.5c3.3,0,5.2-1.9,5.7-5.7c0.1-0.8,0.2-1.8,0.2-2.8h-5.9v-2.2
		h8.5V500h-2.1v-3.4c-1.3,1.8-2.7,3-4.2,3.4c-0.7,0.2-1.5,0.3-2.6,0.3s-2.2-0.3-3.3-0.8s-2-1.3-2.8-2.1S995.3,495.4,994.8,494.2z"/>
	<path class="st0" d="M1016.1,495.3v-13.8h2.3v13.8c0,0.9,0.3,1.6,0.9,2.1s1.3,0.8,2,0.8c1.7,0,3.5-1,5.4-3v-13.7h2.3V500h-2.3v-3.1
		c-1.7,1.6-3.1,2.6-4.3,3c-0.6,0.2-1.2,0.3-1.8,0.3c-1.3,0-2.5-0.4-3.3-1.2S1016.1,496.9,1016.1,495.3z"/>
	<path class="st0" d="M1033.2,479.1v-2.6h2.6v2.6H1033.2z M1033.4,500v-18.5h2.3V500H1033.4z"/>
	<path class="st0" d="M1040.5,500v-18.5h2.3v3c1-1,2-1.8,2.9-2.4s2-0.9,3.3-0.9s2.3,0.4,3.2,1.2s1.3,2.1,1.3,3.7V500h-2.3v-13.8
		c0-0.9-0.3-1.6-0.9-2.1s-1.3-0.8-2-0.8c-1.7,0-3.5,1-5.4,3V500H1040.5z"/>
	<path class="st0" d="M1057.6,500v-18.5h2.3v3c1-1,2-1.8,2.9-2.4s2-0.9,3.3-0.9s2.3,0.4,3.2,1.2s1.3,2.1,1.3,3.7V500h-2.3v-13.8
		c0-0.9-0.3-1.6-0.9-2.1s-1.3-0.8-2-0.8c-1.7,0-3.5,1-5.4,3V500H1057.6z"/>
	<path class="st0" d="M1075.6,497.4c-0.6-0.9-1-1.8-1.3-2.9s-0.4-2.2-0.4-3.3s0.1-2.2,0.2-3.2s0.4-1.8,0.7-2.4s0.6-1.3,1-1.8
		s0.8-0.9,1.2-1.3s0.9-0.6,1.3-0.8c0.8-0.4,1.6-0.5,2.4-0.5s1.4,0.1,1.9,0.2s1.1,0.4,1.7,0.8s1.1,1,1.6,1.6c1,1.6,1.5,3.9,1.5,7
		h-11.1c0,3.1,0.8,5.3,2.4,6.4c0.8,0.6,1.7,0.8,2.6,0.8c1.8,0,3.3-1.1,4.6-3.4l1.6,1.1c-0.5,0.8-1.1,1.6-1.8,2.3
		c-1.4,1.3-2.8,1.9-4.2,1.9s-2.5-0.3-3.5-0.8S1076.2,498.2,1075.6,497.4z M1076.3,489h8.7c0-1.7-0.4-3.2-1.2-4.3
		c-0.7-1-1.6-1.4-2.9-1.4c-2.1,0-3.4,0.9-4.1,2.8C1076.4,487,1076.3,487.9,1076.3,489z"/>
	<path class="st0" d="M1090.2,496.5l1.7-1.1c0.6,1,1.3,1.7,2.1,2.2s1.7,0.7,2.8,0.7c1.1,0,2.1-0.3,2.8-0.9c0.6-0.5,0.9-1.1,0.9-1.9
		s-0.1-1.3-0.4-1.8s-0.6-0.8-1.1-1.1c-0.8-0.4-1.6-0.8-2.5-1s-1.5-0.4-2-0.6s-1-0.4-1.5-0.7s-1-0.6-1.3-1c-0.9-0.8-1.3-1.9-1.3-3.3
		s0.5-2.5,1.6-3.4s2.5-1.3,4.2-1.3c2,0,3.7,0.7,5.1,2.2c0.3,0.3,0.5,0.5,0.7,0.8l-1.6,1.2c-0.1-0.1-0.2-0.3-0.5-0.5
		s-0.4-0.4-0.5-0.5l-0.5-0.4c-0.2-0.2-0.4-0.3-0.5-0.4l-0.6-0.2c-0.4-0.1-1-0.2-1.9-0.2s-1.7,0.3-2.3,0.8s-1,1.1-1,1.7
		s0.1,1.1,0.3,1.5s0.5,0.7,0.9,1c0.7,0.4,1.5,0.8,2.4,1s1.5,0.5,1.8,0.5s0.7,0.2,1.2,0.4s0.9,0.4,1.1,0.6s0.6,0.4,0.9,0.7
		s0.6,0.6,0.8,0.9c0.5,0.8,0.7,1.7,0.7,2.6c0,1.6-0.6,2.8-1.8,3.8s-2.6,1.5-4.1,1.5s-2.9-0.3-3.9-0.9S1091,497.8,1090.2,496.5z"/>
	<path class="st0" d="M1105.6,496.5l1.7-1.1c0.6,1,1.3,1.7,2.1,2.2s1.7,0.7,2.8,0.7c1.1,0,2.1-0.3,2.8-0.9c0.6-0.5,0.9-1.1,0.9-1.9
		s-0.1-1.3-0.4-1.8s-0.6-0.8-1.1-1.1c-0.8-0.4-1.6-0.8-2.5-1s-1.5-0.4-2-0.6s-1-0.4-1.5-0.7s-1-0.6-1.3-1c-0.9-0.8-1.3-1.9-1.3-3.3
		s0.5-2.5,1.6-3.4s2.5-1.3,4.2-1.3c2,0,3.7,0.7,5.1,2.2c0.3,0.3,0.5,0.5,0.7,0.8l-1.6,1.2c-0.1-0.1-0.2-0.3-0.5-0.5
		s-0.4-0.4-0.5-0.5l-0.5-0.4c-0.2-0.2-0.4-0.3-0.5-0.4l-0.6-0.2c-0.4-0.1-1-0.2-1.9-0.2s-1.7,0.3-2.3,0.8s-1,1.1-1,1.7
		s0.1,1.1,0.3,1.5s0.5,0.7,0.9,1c0.7,0.4,1.5,0.8,2.4,1s1.5,0.5,1.8,0.5s0.7,0.2,1.2,0.4s0.9,0.4,1.1,0.6s0.6,0.4,0.9,0.7
		s0.6,0.6,0.8,0.9c0.5,0.8,0.7,1.7,0.7,2.6c0,1.6-0.6,2.8-1.8,3.8s-2.6,1.5-4.1,1.5s-2.9-0.3-3.9-0.9S1106.4,497.8,1105.6,496.5z"/>
</g>
<g>
	<path class="st0" d="M913.4,25.7c-0.5-1.2-0.9-2.4-1.2-3.7s-0.4-2.6-0.4-3.9s0.1-2.7,0.3-3.9s0.6-2.5,1.1-3.7s1.1-2.2,1.9-3.1
		s1.7-1.6,2.8-2.1s2.4-0.8,3.7-0.8s2.6,0.3,3.7,0.8s2,1.3,2.7,2.2s1.3,1.9,1.8,3.1c0.9,2.2,1.4,4.8,1.4,7.6c0,5.1-1.3,9-4,11.5
		c-1.4,1.4-3.3,2-5.5,2c-1.3,0-2.5-0.3-3.6-0.8s-2-1.2-2.8-2.1S913.9,26.8,913.4,25.7z M915.5,11.5c-0.4,1-0.6,2-0.8,3.1
		s-0.2,2.3-0.2,3.7s0.1,2.8,0.4,4.1s0.7,2.5,1.2,3.6s1.3,1.9,2.3,2.5s2,0.9,3.2,0.9s2.1-0.2,3-0.7s1.5-1.1,2-1.8s0.9-1.6,1.2-2.6
		c0.6-1.8,0.9-3.9,0.9-6.2c0-3.9-0.7-6.8-2.1-9c-0.5-0.8-1.2-1.4-2-1.9s-1.8-0.7-2.8-0.7s-2,0.2-2.8,0.6s-1.5,1-2.1,1.7
		S915.8,10.5,915.5,11.5z"/>
	<path class="st0" d="M937.1,28.4c0,1.8-0.1,2.8-0.4,2.9h-2.3c0.3-0.6,0.5-1.5,0.5-2.6V4.7h2.3v10.5c0.2-0.5,0.8-1,1.7-1.7
		s1.9-0.9,3-0.9c2.1,0,3.8,0.9,5.1,2.7s1.9,4.2,1.9,7.1c0,1.7-0.3,3.4-1,4.9c-0.8,1.8-1.8,3-3.2,3.7c-0.8,0.4-1.6,0.6-2.4,0.6
		s-1.5-0.1-2.1-0.4s-1.1-0.5-1.5-0.9C938,29.6,937.4,29,937.1,28.4z M937.1,26.4c1.2,1.6,2.2,2.6,3.1,2.9c0.4,0.2,1,0.2,1.7,0.2
		s1.4-0.2,2-0.6s1.1-0.9,1.5-1.5c0.7-1.3,1.1-3,1.1-5.1c0-5.2-1.7-7.8-5.2-7.8c-1.5,0-2.9,0.9-4.2,2.7V26.4z"/>
	<path class="st0" d="M952.2,10.4V7.8h2.6v2.6H952.2z M952.4,31.3V12.8h2.3v18.5H952.4z"/>
	<path class="st0" d="M957.5,22.1v-2h9v2H957.5z"/>
	<path class="st0" d="M966.9,4.7h2.7l4.6,21.1h0.2l4.8-21.1h3l4.8,21.1h0.2l4.6-21.1h2.7l-6.2,26.6h-2.7l-4.8-21.1h-0.2l-4.8,21.1
		h-2.7L966.9,4.7z"/>
	<path class="st0" d="M996.1,26.8c0-0.8,0.1-1.6,0.3-2.2s0.5-1.2,1-1.7s1-0.9,1.5-1.3s1.3-0.7,2.1-1c1.6-0.6,3.5-1,5.7-1.5
		c0-1.9-0.4-3.1-1.1-3.7c-0.6-0.6-1.6-0.8-2.8-0.8c-1.5,0-2.7,0.6-3.8,1.7c-0.5,0.5-0.8,0.9-0.9,1.2l-1.7-1.1
		c1.3-2.5,3.5-3.8,6.7-3.8c2.8,0,4.6,1.1,5.4,3.3c0.3,0.9,0.5,1.9,0.5,3.2v9.7c0,0.3,0.1,0.8,0.2,1.4s0.2,1,0.4,1.2h-2.3
		c-0.4-0.2-0.5-1.2-0.5-3c-1.7,2.1-3.5,3.2-5.5,3.2c-2.2,0-3.7-0.8-4.6-2.3C996.3,28.4,996.1,27.6,996.1,26.8z M998.9,24.8
		c-0.3,0.5-0.4,1.2-0.4,2.1s0.3,1.5,0.9,2s1.3,0.7,2,0.7s1.4-0.1,2-0.3s1.1-0.5,1.6-0.9c0.9-0.6,1.5-1.2,1.9-1.7v-5.6
		c-2.2,0.6-3.5,0.9-4,1.1C1000.8,22.8,999.5,23.7,998.9,24.8z"/>
	<path class="st0" d="M1013.3,31.3V12.8h2.3v3c1-1,2-1.8,2.9-2.4s2-0.9,3.3-0.9s2.3,0.4,3.2,1.2s1.3,2.1,1.3,3.7v13.8h-2.3V17.5
		c0-0.9-0.3-1.6-0.9-2.1s-1.3-0.8-2-0.8c-1.7,0-3.5,1-5.4,3v13.7H1013.3z"/>
	<path class="st0" d="M1039.6,31.3V4.7h2.6v14.5L1053,4.7h2.8l-7.6,10l8.6,16.6h-2.9l-7.3-14.4l-4.4,5.7v8.7H1039.6z"/>
	<path class="st0" d="M1060.3,28.7c-0.6-0.9-1-1.8-1.3-2.9s-0.4-2.2-0.4-3.3s0.1-2.2,0.2-3.2s0.4-1.8,0.7-2.4s0.6-1.3,1-1.8
		s0.8-0.9,1.2-1.3s0.9-0.6,1.3-0.8c0.8-0.4,1.6-0.5,2.4-0.5s1.4,0.1,1.9,0.2s1.1,0.4,1.7,0.8s1.1,1,1.6,1.6c1,1.6,1.5,3.9,1.5,7
		h-11.1c0,3.1,0.8,5.3,2.4,6.4c0.8,0.6,1.7,0.8,2.6,0.8c1.8,0,3.3-1.1,4.6-3.4l1.6,1.1c-0.5,0.8-1.1,1.6-1.8,2.3
		c-1.4,1.3-2.8,1.9-4.2,1.9s-2.5-0.3-3.5-0.8S1060.9,29.6,1060.3,28.7z M1061,20.3h8.7c0-1.7-0.4-3.2-1.2-4.3
		c-0.7-1-1.6-1.4-2.9-1.4c-2.1,0-3.4,0.9-4.1,2.8C1061.1,18.3,1061,19.3,1061,20.3z"/>
	<path class="st0" d="M1075.6,31.3V12.8h2.3v3c1-1,2-1.8,2.9-2.4s2-0.9,3.3-0.9s2.3,0.4,3.2,1.2s1.3,2.1,1.3,3.7v13.8h-2.3V17.5
		c0-0.9-0.3-1.6-0.9-2.1s-1.3-0.8-2-0.8c-1.7,0-3.5,1-5.4,3v13.7H1075.6z"/>
	<path class="st0" d="M1091.9,21.9c0-2.8,0.6-5.1,1.9-6.8s3-2.5,5.3-2.5s4.1,0.9,5.3,2.6s1.9,4,1.9,6.9s-0.6,5.2-1.9,6.9
		s-3,2.6-5.3,2.6c-2.3,0-4.1-0.9-5.4-2.7C1092.5,27.1,1091.9,24.8,1091.9,21.9z M1094.2,22c0,3.7,1,6.1,2.9,7.1
		c0.6,0.3,1.3,0.5,2,0.5s1.4-0.2,2-0.5s1.1-0.7,1.4-1.2s0.6-1.1,0.9-1.7c0.4-1.2,0.6-2.6,0.6-4.1c0-5-1.6-7.5-4.9-7.5
		S1094.2,17,1094.2,22z"/>
	<path class="st0" d="M1112.1,28.4c0,1.8-0.1,2.8-0.4,2.9h-2.3c0.3-0.6,0.5-1.5,0.5-2.6V4.7h2.3v10.5c0.2-0.5,0.8-1,1.7-1.7
		s1.9-0.9,3-0.9c2.1,0,3.8,0.9,5.1,2.7s1.9,4.2,1.9,7.1c0,1.7-0.3,3.4-1,4.9c-0.8,1.8-1.8,3-3.2,3.7c-0.8,0.4-1.6,0.6-2.4,0.6
		s-1.5-0.1-2.1-0.4s-1.1-0.5-1.5-0.9C1112.9,29.6,1112.4,29,1112.1,28.4z M1112.1,26.4c1.2,1.6,2.2,2.6,3.1,2.9
		c0.4,0.2,1,0.2,1.7,0.2s1.4-0.2,2-0.6s1.1-0.9,1.5-1.5c0.7-1.3,1.1-3,1.1-5.1c0-5.2-1.7-7.8-5.2-7.8c-1.5,0-2.9,0.9-4.2,2.7V26.4z"
		/>
	<path class="st0" d="M1127.2,10.4V7.8h2.6v2.6H1127.2z M1127.4,31.3V12.8h2.3v18.5H1127.4z"/>
</g>
<g>
	<path class="st0" d="M992.6,263.1V246h1.5v1.9c0.2-0.4,0.5-0.7,0.9-1.1c0.8-0.7,1.7-1,2.5-1c1.6,0,2.9,0.9,3.8,2.7
		c0.5,1,0.7,2.2,0.7,3.4c0,2.2-0.5,3.9-1.6,5.1c-0.8,0.9-1.8,1.4-3.1,1.4c-0.7,0-1.4-0.2-2.1-0.7s-1.1-0.8-1.2-1.1v6.4H992.6z
		 M994.2,255.4c0.4,0.5,0.8,0.9,1.3,1.3s1,0.5,1.5,0.5s0.9,0,1.2-0.1s0.6-0.3,0.9-0.5s0.6-0.5,0.8-0.9c0.5-0.8,0.7-2.1,0.7-3.7
		c0-2-0.5-3.3-1.4-4.1c-0.5-0.4-1.1-0.6-1.8-0.6c-1,0-1.8,0.4-2.6,1.2c-0.2,0.2-0.4,0.5-0.6,0.8V255.4z"/>
	<path class="st0" d="M1004.5,258.4v-17.8h1.5v17.8H1004.5z"/>
	<path class="st0" d="M1008.8,255.3c0-0.6,0.1-1,0.2-1.5s0.4-0.8,0.7-1.1s0.6-0.6,1-0.9s0.9-0.5,1.4-0.7c1-0.4,2.3-0.7,3.8-1
		c0-1.2-0.2-2.1-0.7-2.5c-0.4-0.4-1-0.6-1.8-0.6c-1,0-1.8,0.4-2.5,1.1c-0.3,0.3-0.5,0.6-0.6,0.8l-1.1-0.7c0.9-1.7,2.4-2.5,4.5-2.5
		c1.9,0,3.1,0.7,3.6,2.2c0.2,0.6,0.3,1.3,0.3,2.1v6.4c0,0.2,0,0.5,0.1,0.9s0.2,0.7,0.2,0.8h-1.6c-0.2-0.1-0.4-0.8-0.4-2
		c-1.1,1.4-2.3,2.1-3.6,2.1c-1.5,0-2.5-0.5-3.1-1.5C1008.9,256.4,1008.8,255.9,1008.8,255.3z M1010.6,254c-0.2,0.4-0.3,0.8-0.3,1.4
		s0.2,1,0.6,1.3s0.9,0.5,1.4,0.5s0.9-0.1,1.3-0.2s0.7-0.3,1-0.6c0.6-0.4,1-0.8,1.3-1.1v-3.7c-1.5,0.4-2.4,0.6-2.6,0.7
		C1011.9,252.7,1011,253.3,1010.6,254z"/>
	<path class="st0" d="M1022,262.8c-0.5,0.1-1,0.2-1.5,0.2s-1,0-1.4-0.1l0.1-1.4c0.3,0.1,0.7,0.2,1.1,0.2s0.9-0.1,1.2-0.2
		s0.6-0.3,0.8-0.5s0.4-0.4,0.5-0.6s0.3-0.5,0.4-0.7c0.2-0.4,0.3-0.9,0.4-1.3l-4.4-12.4h1.7l3.5,10.1l3.3-10.1h1.6l-4.3,13.1
		c-0.4,1.3-0.9,2.2-1.3,2.7C1023,262.3,1022.5,262.6,1022,262.8z"/>
	<path class="st0" d="M1031.4,256.6c-0.4-0.6-0.7-1.2-0.9-1.9s-0.3-1.4-0.3-2.2s0.1-1.5,0.2-2.1s0.3-1.2,0.4-1.6s0.4-0.8,0.7-1.2
		s0.5-0.6,0.8-0.8s0.6-0.4,0.9-0.5c0.6-0.2,1.1-0.4,1.6-0.4s0.9,0,1.3,0.1s0.7,0.3,1.1,0.6s0.7,0.6,1,1.1c0.7,1.1,1,2.6,1,4.7h-7.4
		c0,2.1,0.5,3.5,1.6,4.3c0.5,0.4,1.1,0.6,1.7,0.6c1.2,0,2.2-0.7,3.1-2.2l1.1,0.7c-0.3,0.6-0.7,1.1-1.2,1.5c-0.9,0.9-1.9,1.3-2.8,1.3
		s-1.7-0.2-2.3-0.5S1031.8,257.2,1031.4,256.6z M1031.9,251h5.8c0-1.2-0.3-2.1-0.8-2.9c-0.5-0.6-1.1-1-1.9-1c-1.4,0-2.3,0.6-2.7,1.9
		C1032,249.7,1031.9,250.3,1031.9,251z"/>
	<path class="st0" d="M1048.9,256.4c-0.8,1.4-1.9,2.1-3.3,2.1c-0.7,0-1.4-0.2-1.9-0.5s-1.1-0.8-1.4-1.4c-0.8-1.2-1.1-2.6-1.1-4.2
		c0-1.1,0.2-2.2,0.6-3.2s0.9-1.8,1.6-2.4s1.5-0.9,2.3-0.9s1.5,0.2,2.2,0.6s1,0.8,1.2,1.1v-7h1.5v16c0,0.2,0,0.5,0.1,0.9
		s0.1,0.6,0.2,0.8h-1.6C1049,258.2,1048.9,257.6,1048.9,256.4z M1042.7,252.4c0,1.4,0.2,2.5,0.7,3.4c0.5,0.9,1.3,1.4,2.4,1.4
		c0.7,0,1.4-0.2,1.8-0.6c0.4-0.3,0.8-0.8,1.3-1.4v-6.2c-0.8-1.2-1.8-1.8-2.8-1.8C1043.8,247.2,1042.7,248.9,1042.7,252.4z"/>
</g>
<g>
	<path class="st0" d="M784.6,252.2c0-4.3,1.7-6.4,5-6.4c0.8,0,1.5,0.2,2.1,0.6c0.6,0.4,0.9,0.7,1.1,1.1c0.3,0.5,0.5,1,0.6,1.3
		l-1.2,0.6c0-0.2-0.1-0.4-0.3-0.7s-0.3-0.6-0.5-0.8s-0.4-0.4-0.7-0.5s-0.7-0.2-1.1-0.2c-2.3,0-3.4,1.7-3.4,5c0,1.6,0.3,2.8,0.9,3.7
		s1.4,1.3,2.5,1.3c0.7,0,1.4-0.3,1.9-0.9c0.4-0.5,0.7-0.9,0.9-1.3l0.1-0.3l1.2,0.6c-0.3,0.8-0.7,1.4-1.3,2.1
		c-0.3,0.3-0.7,0.5-1.1,0.8s-1,0.3-1.5,0.3c-1.7,0-3-0.5-3.8-1.6S784.6,254.2,784.6,252.2z"/>
	<path class="st0" d="M796.1,258.3v-17.8h1.5v7.4c1.2-1.1,2.1-1.8,2.8-2c0.4-0.1,0.8-0.2,1.2-0.2c0.9,0,1.6,0.3,2.2,0.8
		s0.9,1.4,0.9,2.5v9.2h-1.5v-9.2c0-0.6-0.2-1.1-0.6-1.4s-0.9-0.5-1.4-0.5c-1.2,0-2.4,0.7-3.6,2v9.2H796.1z"/>
	<path class="st0" d="M806.9,255.3c0-0.6,0.1-1,0.2-1.5s0.4-0.8,0.7-1.1s0.6-0.6,1-0.9s0.9-0.5,1.4-0.7c1-0.4,2.3-0.7,3.8-1
		c0-1.2-0.2-2.1-0.7-2.5c-0.4-0.4-1-0.6-1.8-0.6c-1,0-1.8,0.4-2.5,1.1c-0.3,0.3-0.5,0.6-0.6,0.8l-1.1-0.7c0.9-1.7,2.4-2.5,4.5-2.5
		c1.9,0,3.1,0.7,3.6,2.2c0.2,0.6,0.3,1.3,0.3,2.1v6.4c0,0.2,0,0.5,0.1,0.9s0.2,0.7,0.2,0.8h-1.6c-0.2-0.1-0.4-0.8-0.4-2
		c-1.1,1.4-2.3,2.1-3.6,2.1c-1.5,0-2.5-0.5-3.1-1.5C807.1,256.4,806.9,255.9,806.9,255.3z M808.8,254c-0.2,0.4-0.3,0.8-0.3,1.4
		s0.2,1,0.6,1.3s0.9,0.5,1.4,0.5s0.9-0.1,1.3-0.2s0.7-0.3,1-0.6c0.6-0.4,1-0.8,1.3-1.1v-3.7c-1.5,0.4-2.4,0.6-2.6,0.7
		C810,252.7,809.2,253.3,808.8,254z"/>
	<path class="st0" d="M818.4,258.3V246h1.5v3.3c0.4-0.8,0.6-1.4,0.8-1.7c0.8-1.2,1.8-1.8,3-1.8c0.1,0,0.2,0,0.4,0v1.3
		c-0.5,0.1-1,0.2-1.3,0.3s-0.7,0.3-1,0.6c-0.6,0.5-1.2,1.4-1.9,2.9v7.3H818.4z"/>
	<path class="st0" d="M825.3,255.3c0-0.6,0.1-1,0.2-1.5s0.4-0.8,0.7-1.1s0.6-0.6,1-0.9s0.9-0.5,1.4-0.7c1-0.4,2.3-0.7,3.8-1
		c0-1.2-0.2-2.1-0.7-2.5c-0.4-0.4-1-0.6-1.8-0.6c-1,0-1.8,0.4-2.5,1.1c-0.3,0.3-0.5,0.6-0.6,0.8l-1.1-0.7c0.9-1.7,2.4-2.5,4.5-2.5
		c1.9,0,3.1,0.7,3.6,2.2c0.2,0.6,0.3,1.3,0.3,2.1v6.4c0,0.2,0,0.5,0.1,0.9s0.2,0.7,0.2,0.8h-1.6c-0.2-0.1-0.4-0.8-0.4-2
		c-1.1,1.4-2.3,2.1-3.6,2.1c-1.5,0-2.5-0.5-3.1-1.5C825.4,256.4,825.3,255.9,825.3,255.3z M827.1,254c-0.2,0.4-0.3,0.8-0.3,1.4
		s0.2,1,0.6,1.3s0.9,0.5,1.4,0.5s0.9-0.1,1.3-0.2s0.7-0.3,1-0.6c0.6-0.4,1-0.8,1.3-1.1v-3.7c-1.5,0.4-2.4,0.6-2.6,0.7
		C828.4,252.7,827.5,253.3,827.1,254z"/>
	<path class="st0" d="M836.2,252.2c0-4.3,1.7-6.4,5-6.4c0.8,0,1.5,0.2,2.1,0.6c0.6,0.4,0.9,0.7,1.1,1.1c0.3,0.5,0.5,1,0.6,1.3
		l-1.2,0.6c0-0.2-0.1-0.4-0.3-0.7s-0.3-0.6-0.5-0.8s-0.4-0.4-0.7-0.5s-0.7-0.2-1.1-0.2c-2.3,0-3.4,1.7-3.4,5c0,1.6,0.3,2.8,0.9,3.7
		s1.4,1.3,2.5,1.3c0.7,0,1.4-0.3,1.9-0.9c0.4-0.5,0.7-0.9,0.9-1.3l0.1-0.3l1.2,0.6c-0.3,0.8-0.7,1.4-1.3,2.1
		c-0.3,0.3-0.7,0.5-1.1,0.8s-1,0.3-1.5,0.3c-1.7,0-3-0.5-3.8-1.6S836.2,254.2,836.2,252.2z"/>
	<path class="st0" d="M846.6,247.3V246h2.1v-4.5h1.5v4.5h2.8v1.3h-2.8v7.8c0,0.8,0.1,1.3,0.4,1.6s0.6,0.4,1.2,0.4
		c0.2,0,0.5,0,0.8-0.1s0.5-0.1,0.5-0.1v1.2c-0.5,0.2-1,0.3-1.5,0.3s-0.8,0-1,0s-0.4-0.1-0.7-0.2s-0.5-0.3-0.6-0.5
		c-0.4-0.5-0.6-1.4-0.6-2.6v-7.8H846.6z"/>
	<path class="st0" d="M855.3,256.6c-0.4-0.6-0.7-1.2-0.9-1.9s-0.3-1.4-0.3-2.2s0.1-1.5,0.2-2.1s0.3-1.2,0.4-1.6s0.4-0.8,0.7-1.2
		s0.5-0.6,0.8-0.8s0.6-0.4,0.9-0.5c0.6-0.2,1.1-0.4,1.6-0.4s0.9,0,1.3,0.1s0.7,0.3,1.1,0.6s0.7,0.6,1,1.1c0.7,1.1,1,2.6,1,4.7h-7.4
		c0,2.1,0.5,3.5,1.6,4.3c0.5,0.4,1.1,0.6,1.7,0.6c1.2,0,2.2-0.7,3.1-2.2l1.1,0.7c-0.3,0.6-0.7,1.1-1.2,1.5c-0.9,0.9-1.9,1.3-2.8,1.3
		s-1.7-0.2-2.3-0.5S855.7,257.2,855.3,256.6z M855.8,251h5.8c0-1.2-0.3-2.1-0.8-2.9c-0.5-0.6-1.1-1-1.9-1c-1.4,0-2.3,0.6-2.7,1.9
		C855.9,249.7,855.8,250.3,855.8,251z"/>
	<path class="st0" d="M865.5,258.3V246h1.5v3.3c0.4-0.8,0.6-1.4,0.8-1.7c0.8-1.2,1.8-1.8,3-1.8c0.1,0,0.2,0,0.4,0v1.3
		c-0.5,0.1-1,0.2-1.3,0.3s-0.7,0.3-1,0.6c-0.6,0.5-1.2,1.4-1.9,2.9v7.3H865.5z"/>
	<path class="st0" d="M873.2,258.3v-17.8h1.7v17.8H873.2z"/>
	<path class="st0" d="M877.9,258.3V246h1.5v2c0.7-0.7,1.3-1.2,2-1.6s1.3-0.6,2.2-0.6s1.5,0.3,2.1,0.8s0.9,1.4,0.9,2.5v9.2H885v-9.2
		c0-0.6-0.2-1.1-0.6-1.4s-0.9-0.5-1.4-0.5c-1.2,0-2.4,0.7-3.6,2v9.2H877.9z"/>
</g>
<g>
	<path class="st0" d="M800.1,406.4l1.2-0.8c0.4,0.6,0.9,1.1,1.4,1.4s1.1,0.5,1.9,0.5c0.8,0,1.4-0.2,1.9-0.6c0.4-0.3,0.6-0.8,0.6-1.3
		s-0.1-0.9-0.3-1.2s-0.4-0.5-0.7-0.7c-0.5-0.3-1.1-0.5-1.6-0.7s-1-0.3-1.3-0.4s-0.7-0.3-1-0.5s-0.6-0.4-0.9-0.7
		c-0.6-0.6-0.9-1.3-0.9-2.2s0.4-1.7,1.1-2.3s1.7-0.9,2.8-0.9c1.3,0,2.5,0.5,3.4,1.4c0.2,0.2,0.3,0.4,0.4,0.5l-1.1,0.8
		c-0.1-0.1-0.2-0.2-0.3-0.3s-0.3-0.3-0.3-0.3l-0.3-0.2c-0.1-0.1-0.3-0.2-0.4-0.2l-0.4-0.1c-0.2-0.1-0.7-0.1-1.3-0.1
		s-1.1,0.2-1.5,0.5s-0.6,0.7-0.6,1.1s0.1,0.7,0.2,1s0.4,0.5,0.6,0.6c0.5,0.3,1,0.5,1.6,0.7s1,0.3,1.2,0.4s0.4,0.2,0.8,0.3
		s0.6,0.3,0.8,0.4s0.4,0.3,0.6,0.5s0.4,0.4,0.5,0.6c0.3,0.5,0.5,1.1,0.5,1.7c0,1-0.4,1.9-1.2,2.6s-1.7,1-2.7,1s-1.9-0.2-2.6-0.6
		S800.7,407.2,800.1,406.4z"/>
	<path class="st0" d="M809.9,397.7v-1.3h2.1v-4.5h1.5v4.5h2.8v1.3h-2.8v7.8c0,0.8,0.1,1.3,0.4,1.6s0.6,0.4,1.2,0.4
		c0.2,0,0.5,0,0.8-0.1s0.5-0.1,0.5-0.1v1.2c-0.5,0.2-1,0.3-1.5,0.3s-0.8,0-1,0s-0.4-0.1-0.7-0.2s-0.5-0.3-0.6-0.5
		c-0.4-0.5-0.6-1.4-0.6-2.6v-7.8H809.9z"/>
	<path class="st0" d="M817.4,405.7c0-0.6,0.1-1,0.2-1.5s0.4-0.8,0.7-1.1s0.6-0.6,1-0.9s0.9-0.5,1.4-0.7c1-0.4,2.3-0.7,3.8-1
		c0-1.2-0.2-2.1-0.7-2.5c-0.4-0.4-1-0.6-1.8-0.6c-1,0-1.8,0.4-2.5,1.1c-0.3,0.3-0.5,0.6-0.6,0.8l-1.1-0.7c0.9-1.7,2.4-2.5,4.5-2.5
		c1.9,0,3.1,0.7,3.6,2.2c0.2,0.6,0.3,1.3,0.3,2.1v6.4c0,0.2,0,0.5,0.1,0.9s0.2,0.7,0.2,0.8h-1.6c-0.2-0.1-0.4-0.8-0.4-2
		c-1.1,1.4-2.3,2.1-3.6,2.1c-1.5,0-2.5-0.5-3.1-1.5C817.6,406.8,817.4,406.3,817.4,405.7z M819.3,404.4c-0.2,0.4-0.3,0.8-0.3,1.4
		s0.2,1,0.6,1.3s0.9,0.5,1.4,0.5s0.9-0.1,1.3-0.2s0.7-0.3,1-0.6c0.6-0.4,1-0.8,1.3-1.1v-3.7c-1.5,0.4-2.4,0.6-2.6,0.7
		C820.5,403.1,819.7,403.6,819.3,404.4z"/>
	<path class="st0" d="M828.9,408.7v-12.4h1.5v3.3c0.4-0.8,0.6-1.4,0.8-1.7c0.8-1.2,1.8-1.8,3-1.8c0.1,0,0.2,0,0.4,0v1.3
		c-0.5,0.1-1,0.2-1.3,0.3s-0.7,0.3-1,0.6c-0.6,0.5-1.2,1.4-1.9,2.9v7.3H828.9z"/>
	<path class="st0" d="M836.3,408.7v-12.4h1.5v3.3c0.4-0.8,0.6-1.4,0.8-1.7c0.8-1.2,1.8-1.8,3-1.8c0.1,0,0.2,0,0.4,0v1.3
		c-0.5,0.1-1,0.2-1.3,0.3s-0.7,0.3-1,0.6c-0.6,0.5-1.2,1.4-1.9,2.9v7.3H836.3z"/>
	<path class="st0" d="M844.5,407c-0.4-0.6-0.7-1.2-0.9-1.9s-0.3-1.4-0.3-2.2s0.1-1.5,0.2-2.1s0.3-1.2,0.4-1.6s0.4-0.8,0.7-1.2
		s0.5-0.6,0.8-0.8s0.6-0.4,0.9-0.5c0.6-0.2,1.1-0.4,1.6-0.4s0.9,0,1.3,0.1s0.7,0.3,1.1,0.6s0.7,0.6,1,1.1c0.7,1.1,1,2.6,1,4.7h-7.4
		c0,2.1,0.5,3.5,1.6,4.3c0.5,0.4,1.1,0.6,1.7,0.6c1.2,0,2.2-0.7,3.1-2.2l1.1,0.7c-0.3,0.6-0.7,1.1-1.2,1.5c-0.9,0.9-1.9,1.3-2.8,1.3
		s-1.7-0.2-2.3-0.5S844.9,407.6,844.5,407z M844.9,401.4h5.8c0-1.2-0.3-2.1-0.8-2.9c-0.5-0.6-1.1-1-1.9-1c-1.4,0-2.3,0.6-2.7,1.9
		C845,400,844.9,400.7,844.9,401.4z"/>
	<path class="st0" d="M862,406.8c-0.8,1.4-1.9,2.1-3.3,2.1c-0.7,0-1.4-0.2-1.9-0.5s-1.1-0.8-1.4-1.4c-0.8-1.2-1.1-2.6-1.1-4.2
		c0-1.1,0.2-2.2,0.6-3.2s0.9-1.8,1.6-2.4s1.5-0.9,2.3-0.9s1.5,0.2,2.2,0.6s1,0.8,1.2,1.1v-7h1.5v16c0,0.2,0,0.5,0.1,0.9
		s0.1,0.6,0.2,0.8h-1.6C862.1,408.6,862,408,862,406.8z M855.7,402.8c0,1.4,0.2,2.5,0.7,3.4c0.5,0.9,1.3,1.4,2.4,1.4
		c0.7,0,1.4-0.2,1.8-0.6c0.4-0.3,0.8-0.8,1.3-1.4v-6.2c-0.8-1.2-1.8-1.8-2.8-1.8C856.9,397.5,855.7,399.3,855.7,402.8z"/>
	<path class="st0" d="M866.4,408.7V391h1.7v17.8H866.4z"/>
	<path class="st0" d="M871.1,408.7v-12.4h1.5v2c0.7-0.7,1.3-1.2,2-1.6s1.3-0.6,2.2-0.6s1.5,0.3,2.1,0.8s0.9,1.4,0.9,2.5v9.2h-1.5
		v-9.2c0-0.6-0.2-1.1-0.6-1.4s-0.9-0.5-1.4-0.5c-1.2,0-2.4,0.7-3.6,2v9.2H871.1z"/>
</g>
<line class="st2" x1="105.8" y1="352.9" x2="105.8" y2="285.2"/>
<g>
	<g>
		<line class="st2" x1="105.8" y1="218" x2="105.8" y2="159.6"/>
		<g>
			<polygon class="st0" points="96.6,160.8 114.9,160.8 105.8,151.7 			"/>
		</g>
	</g>
</g>
<line class="st2" x1="1021.4" y1="352.9" x2="1021.4" y2="285.2"/>
<g>
	<g>
		<line class="st2" x1="1021.4" y1="218" x2="1021.4" y2="159.6"/>
		<g>
			<polygon class="st0" points="1012.3,160.8 1030.6,160.8 1021.4,151.7 			"/>
		</g>
	</g>
</g>
<path class="st3" d="M552.6,150.5"/>
<path class="st3" d="M467.5,356.8"/>
<line class="st2" x1="467.8" y1="356" x2="497.4" y2="284.2"/>
<line class="st2" x1="658.8" y1="356" x2="629.2" y2="284.2"/>
<g>
	<g>
		<line class="st2" x1="601.8" y1="218" x2="577" y2="157.8"/>
		<g>
			<polygon class="st0" points="569,162.4 585.9,155.4 574,150.5 			"/>
		</g>
	</g>
</g>
<g>
	<g>
		<line class="st2" x1="524.8" y1="218" x2="549.6" y2="157.8"/>
		<g>
			<polygon class="st0" points="540.8,155.4 557.6,162.4 552.6,150.5 			"/>
		</g>
	</g>
</g>
<g>
	<circle class="st1" cx="563.6" cy="101.7" r="48.5"/>
	<path class="st0" d="M563.6,54.7c25.9,0,47,21.1,47,47s-21.1,47-47,47s-47-21.1-47-47S537.7,54.7,563.6,54.7 M563.6,51.7
		c-27.6,0-50,22.4-50,50c0,27.6,22.4,50,50,50c27.6,0,50-22.4,50-50C613.6,74.1,591.2,51.7,563.6,51.7L563.6,51.7z"/>
</g>
<g>
	<path class="st1" d="M468.4,451.4c-13,0-25.1-5-34.3-14.2c-9.2-9.2-14.2-21.3-14.2-34.3c0-13,5-25.1,14.2-34.3s21.3-14.2,34.3-14.2
		s25.1,5,34.3,14.2s14.2,21.3,14.2,34.3c0,13-5,25.1-14.2,34.3C493.5,446.4,481.4,451.4,468.4,451.4z"/>
	<path class="st0" d="M468.4,355.9c12.6,0,24.4,4.9,33.2,13.8c8.9,8.9,13.8,20.7,13.8,33.2s-4.9,24.4-13.8,33.2
		c-8.9,8.9-20.7,13.8-33.2,13.8c-12.6,0-24.4-4.9-33.2-13.8s-13.8-20.7-13.8-33.2s4.9-24.4,13.8-33.2S455.9,355.9,468.4,355.9
		 M468.4,352.9c-13.8,0-26.3,5.6-35.4,14.6s-14.6,21.5-14.6,35.4s5.6,26.3,14.6,35.4s21.5,14.6,35.4,14.6c13.8,0,26.3-5.6,35.4-14.6
		c9-9,14.6-21.5,14.6-35.4s-5.6-26.3-14.6-35.4C494.7,358.5,482.2,352.9,468.4,352.9L468.4,352.9z"/>
</g>
<line class="st2" x1="243.6" y1="218" x2="141.1" y2="137.1"/>
<g>
	<g>
		<line class="st2" x1="427.2" y1="363" x2="327.5" y2="284.2"/>
		<g>
			<polygon class="st0" points="420.6,369.4 431.9,355.1 433.4,367.9 			"/>
		</g>
	</g>
</g>
<line class="st2" x1="883.8" y1="217.6" x2="986.3" y2="136.7"/>
<g>
	<g>
		<line class="st2" x1="700.2" y1="362.7" x2="799.9" y2="283.9"/>
		<g>
			<polygon class="st0" points="695.5,354.7 706.8,369 694,367.5 			"/>
		</g>
	</g>
</g>
<line class="st2" x1="231.8" y1="402.9" x2="155.8" y2="402.9"/>
<g>
	<g>
		<line class="st2" x1="410.6" y1="402.9" x2="342.4" y2="402.9"/>
		<g>
			<polygon class="st0" points="409.4,412.1 409.4,393.8 418.5,402.9 			"/>
		</g>
	</g>
</g>
<line class="st2" x1="895.5" y1="402.9" x2="971.5" y2="402.9"/>
<g>
	<g>
		<line class="st2" x1="716.7" y1="402.9" x2="784.8" y2="402.9"/>
		<g>
			<polygon class="st0" points="717.9,393.8 717.9,412.1 708.8,402.9 			"/>
		</g>
	</g>
</g>
<g>
	<path class="st1" d="M105.8,150.2c-13,0-25.1-5-34.3-14.2c-9.2-9.2-14.2-21.3-14.2-34.3c0-13,5-25.1,14.2-34.3
		c9.2-9.2,21.3-14.2,34.3-14.2s25.1,5,34.3,14.2c9.2,9.2,14.2,21.3,14.2,34.3s-5,25.1-14.2,34.3
		C130.9,145.2,118.7,150.2,105.8,150.2z"/>
	<path class="st0" d="M105.8,54.7c12.6,0,24.4,4.9,33.2,13.8c8.9,8.9,13.8,20.7,13.8,33.2c0,12.6-4.9,24.4-13.8,33.2
		s-20.7,13.8-33.2,13.8s-24.4-4.9-33.2-13.8c-8.9-8.9-13.8-20.7-13.8-33.2c0-12.6,4.9-24.4,13.8-33.2
		C81.4,59.6,93.2,54.7,105.8,54.7 M105.8,51.7c-13.8,0-26.3,5.6-35.4,14.6s-14.6,21.5-14.6,35.4c0,13.8,5.6,26.3,14.6,35.4
		s21.5,14.6,35.4,14.6s26.3-5.6,35.4-14.6s14.6-21.5,14.6-35.4c0-13.8-5.6-26.3-14.6-35.4S119.6,51.7,105.8,51.7L105.8,51.7z"/>
</g>
<g>
	<circle class="st1" cx="1021.4" cy="101.7" r="48.5"/>
	<path class="st0" d="M1021.4,54.7c25.9,0,47,21.1,47,47s-21.1,47-47,47s-47-21.1-47-47S995.5,54.7,1021.4,54.7 M1021.4,51.7
		c-27.6,0-50,22.4-50,50c0,27.6,22.4,50,50,50s50-22.4,50-50C1071.4,74.1,1049.1,51.7,1021.4,51.7L1021.4,51.7z"/>
</g>
<g>
	<circle class="st1" cx="658.8" cy="402.9" r="48.5"/>
	<path class="st0" d="M658.8,355.9c25.9,0,47,21.1,47,47s-21.1,47-47,47s-47-21.1-47-47S632.9,355.9,658.8,355.9 M658.8,352.9
		c-27.6,0-50,22.4-50,50c0,27.6,22.4,50,50,50c27.6,0,50-22.4,50-50C708.8,375.3,686.4,352.9,658.8,352.9L658.8,352.9z"/>
</g>
<g>
</g>
<g>
</g>
<g>
</g>
<g>
</g>
<g>
</g>
<g>
</g>
<g>
</g>
<g>
</g>
<g>
</g>
<g>
</g>
<g>
</g>
<g>
</g>
<g>
</g>
<g>
</g>
<g>
</g>
<g>
</g>
</svg>
