<?xml version="1.0" encoding="utf-8"?>
<!-- Generator: Adobe Illustrator 25.1.0, SVG Export Plug-In . SVG Version: 6.00 Build 0)  -->
<svg version="1.1" id="Layer_1" xmlns="http://www.w3.org/2000/svg" xmlns:xlink="http://www.w3.org/1999/xlink" x="0px" y="0px"
	 viewBox="0 0 1746 456.6" style="enable-background:new 0 0 1746 456.6;" xml:space="preserve">
<style type="text/css">
	.st0{fill:#2DC6D6;}
	.st1{fill:none;stroke:#000000;stroke-width:2;stroke-miterlimit:10;}
	.st2{fill-rule:evenodd;clip-rule:evenodd;fill:#2DC6D6;}
	.st3{fill:none;stroke:#FFFFFF;stroke-miterlimit:10;}
	.st4{fill:#FFFFFF;}
	.st5{opacity:0.5;filter:url(#AI_GaussianBlur_4);}
	.st6{fill:none;stroke:#2DC6D6;stroke-miterlimit:10;}
	.st7{fill:#808080;}
</style>
<filter  id="AI_GaussianBlur_4">
	<feGaussianBlur  stdDeviation="4"></feGaussianBlur>
</filter>
<g id="Layer_x5F_1_x5F_Dots">
	<g>
		<circle class="st0" cx="411.9" cy="20" r="19"/>
		<path d="M411.9,2c9.9,0,18,8.1,18,18s-8.1,18-18,18s-18-8.1-18-18S402,2,411.9,2 M411.9,0c-11,0-20,9-20,20s9,20,20,20s20-9,20-20
			S423,0,411.9,0L411.9,0z"/>
	</g>
	<g>
		<circle class="st0" cx="383.8" cy="35.2" r="19"/>
		<path d="M383.8,17.2c9.9,0,18,8.1,18,18s-8.1,18-18,18s-18-8.1-18-18S373.9,17.2,383.8,17.2 M383.8,15.2c-11,0-20,9-20,20
			s9,20,20,20c11,0,20-9,20-20S394.9,15.2,383.8,15.2L383.8,15.2z"/>
	</g>
	<g>
		<circle class="st0" cx="355.7" cy="50.5" r="19"/>
		<path d="M355.7,32.5c9.9,0,18,8.1,18,18s-8.1,18-18,18s-18-8.1-18-18S345.8,32.5,355.7,32.5 M355.7,30.5c-11,0-20,9-20,20
			s9,20,20,20c11,0,20-9,20-20S366.8,30.5,355.7,30.5L355.7,30.5z"/>
	</g>
	<g>
		<circle class="st0" cx="327.6" cy="65.7" r="19"/>
		<path d="M327.6,47.7c9.9,0,18,8.1,18,18s-8.1,18-18,18s-18-8.1-18-18S317.7,47.7,327.6,47.7 M327.6,45.7c-11,0-20,9-20,20
			c0,11,9,20,20,20c11,0,20-9,20-20C347.6,54.7,338.7,45.7,327.6,45.7L327.6,45.7z"/>
	</g>
	<g>
		<circle class="st0" cx="299.5" cy="81" r="19"/>
		<path d="M299.5,63c9.9,0,18,8.1,18,18s-8.1,18-18,18s-18-8.1-18-18S289.6,63,299.5,63 M299.5,61c-11,0-20,9-20,20c0,11,9,20,20,20
			s20-9,20-20C319.5,70,310.6,61,299.5,61L299.5,61z"/>
	</g>
	<g>
		<path class="st1" d="M282,65.7"/>
		<path class="st2" d="M282,65.7"/>
	</g>
	<g>
		<circle class="st0" cx="411.9" cy="72.6" r="19"/>
		<path d="M411.9,54.6c9.9,0,18,8.1,18,18s-8.1,18-18,18s-18-8.1-18-18S402,54.6,411.9,54.6 M411.9,52.6c-11,0-20,9-20,20
			s9,20,20,20s20-9,20-20S423,52.6,411.9,52.6L411.9,52.6z"/>
	</g>
	<g>
		<circle class="st0" cx="383.8" cy="87.8" r="19"/>
		<path d="M383.8,69.8c9.9,0,18,8.1,18,18c0,9.9-8.1,18-18,18s-18-8.1-18-18C365.8,77.9,373.9,69.8,383.8,69.8 M383.8,67.8
			c-11,0-20,9-20,20s9,20,20,20c11,0,20-9,20-20S394.9,67.8,383.8,67.8L383.8,67.8z"/>
	</g>
	<g>
		<circle class="st0" cx="355.7" cy="103.1" r="19"/>
		<path d="M355.7,85.1c9.9,0,18,8.1,18,18c0,9.9-8.1,18-18,18s-18-8.1-18-18C337.7,93.2,345.8,85.1,355.7,85.1 M355.7,83.1
			c-11,0-20,9-20,20s9,20,20,20c11,0,20-9,20-20S366.8,83.1,355.7,83.1L355.7,83.1z"/>
	</g>
	<g>
		<path class="st0" d="M327.6,137.3c-10.5,0-19-8.5-19-19c0-10.5,8.5-19,19-19s19,8.5,19,19C346.6,128.8,338.1,137.3,327.6,137.3z"
			/>
		<path d="M327.6,100.3c9.9,0,18,8.1,18,18s-8.1,18-18,18s-18-8.1-18-18S317.7,100.3,327.6,100.3 M327.6,98.3c-11,0-20,9-20,20
			c0,11,9,20,20,20c11,0,20-9,20-20C347.6,107.3,338.7,98.3,327.6,98.3L327.6,98.3z"/>
	</g>
	<g>
		<path class="st0" d="M299.5,152.6c-10.5,0-19-8.5-19-19c0-10.5,8.5-19,19-19s19,8.5,19,19C318.5,144.1,310,152.6,299.5,152.6z"/>
		<path d="M299.5,115.6c9.9,0,18,8.1,18,18s-8.1,18-18,18s-18-8.1-18-18S289.6,115.6,299.5,115.6 M299.5,113.6c-11,0-20,9-20,20
			c0,11,9,20,20,20s20-9,20-20C319.5,122.5,310.6,113.6,299.5,113.6L299.5,113.6z"/>
	</g>
	<g>
		<path class="st0" d="M411.9,144.2c-10.5,0-19-8.5-19-19c0-10.5,8.5-19,19-19s19,8.5,19,19C430.9,135.6,422.4,144.2,411.9,144.2z"
			/>
		<path d="M411.9,107.2c9.9,0,18,8.1,18,18s-8.1,18-18,18s-18-8.1-18-18S402,107.2,411.9,107.2 M411.9,105.2c-11,0-20,9-20,20
			s9,20,20,20s20-9,20-20S423,105.2,411.9,105.2L411.9,105.2z"/>
	</g>
	<g>
		<circle class="st0" cx="383.8" cy="140.4" r="19"/>
		<path d="M383.8,122.4c9.9,0,18,8.1,18,18s-8.1,18-18,18s-18-8.1-18-18S373.9,122.4,383.8,122.4 M383.8,120.4c-11,0-20,9-20,20
			s9,20,20,20c11,0,20-9,20-20S394.9,120.4,383.8,120.4L383.8,120.4z"/>
	</g>
	<g>
		<circle class="st0" cx="355.7" cy="155.7" r="19"/>
		<path d="M355.7,137.7c9.9,0,18,8.1,18,18s-8.1,18-18,18s-18-8.1-18-18S345.8,137.7,355.7,137.7 M355.7,135.7c-11,0-20,9-20,20
			c0,11,9,20,20,20c11,0,20-9,20-20C375.7,144.6,366.8,135.7,355.7,135.7L355.7,135.7z"/>
	</g>
	<g>
		<circle class="st0" cx="327.6" cy="170.9" r="19"/>
		<path d="M327.6,152.9c9.9,0,18,8.1,18,18s-8.1,18-18,18s-18-8.1-18-18S317.7,152.9,327.6,152.9 M327.6,150.9c-11,0-20,9-20,20
			c0,11,9,20,20,20c11,0,20-9,20-20C347.6,159.9,338.7,150.9,327.6,150.9L327.6,150.9z"/>
	</g>
	<g>
		<circle class="st0" cx="299.5" cy="186.2" r="19"/>
		<path d="M299.5,168.2c9.9,0,18,8.1,18,18s-8.1,18-18,18s-18-8.1-18-18S289.6,168.2,299.5,168.2 M299.5,166.2c-11,0-20,9-20,20
			c0,11,9,20,20,20s20-9,20-20C319.5,175.1,310.6,166.2,299.5,166.2L299.5,166.2z"/>
	</g>
	<g>
		<circle class="st0" cx="411.9" cy="177.8" r="19"/>
		<path d="M411.9,159.8c9.9,0,18,8.1,18,18s-8.1,18-18,18s-18-8.1-18-18S402,159.8,411.9,159.8 M411.9,157.8c-11,0-20,9-20,20
			c0,11,9,20,20,20s20-9,20-20C431.9,166.7,423,157.8,411.9,157.8L411.9,157.8z"/>
	</g>
	<g>
		<circle class="st0" cx="383.8" cy="193" r="19"/>
		<path d="M383.8,175c9.9,0,18,8.1,18,18s-8.1,18-18,18s-18-8.1-18-18S373.9,175,383.8,175 M383.8,173c-11,0-20,9-20,20
			c0,11,9,20,20,20c11,0,20-9,20-20C403.8,182,394.9,173,383.8,173L383.8,173z"/>
	</g>
	<g>
		<circle class="st0" cx="355.7" cy="208.3" r="19"/>
		<path d="M355.7,190.3c9.9,0,18,8.1,18,18s-8.1,18-18,18s-18-8.1-18-18S345.8,190.3,355.7,190.3 M355.7,188.3c-11,0-20,9-20,20
			c0,11,9,20,20,20c11,0,20-9,20-20C375.7,197.2,366.8,188.3,355.7,188.3L355.7,188.3z"/>
	</g>
	<g>
		<circle class="st0" cx="327.6" cy="223.5" r="19"/>
		<path d="M327.6,205.5c9.9,0,18,8.1,18,18s-8.1,18-18,18s-18-8.1-18-18S317.7,205.5,327.6,205.5 M327.6,203.5c-11,0-20,9-20,20
			c0,11,9,20,20,20c11,0,20-9,20-20C347.6,212.5,338.7,203.5,327.6,203.5L327.6,203.5z"/>
	</g>
	<g>
		<circle class="st0" cx="299.5" cy="238.7" r="19"/>
		<path d="M299.5,220.7c9.9,0,18,8.1,18,18s-8.1,18-18,18s-18-8.1-18-18S289.6,220.7,299.5,220.7 M299.5,218.7c-11,0-20,9-20,20
			c0,11,9,20,20,20s20-9,20-20C319.5,227.7,310.6,218.7,299.5,218.7L299.5,218.7z"/>
	</g>
	<g>
		<circle class="st0" cx="411.9" cy="230.3" r="19"/>
		<path d="M411.9,212.3c9.9,0,18,8.1,18,18s-8.1,18-18,18s-18-8.1-18-18S402,212.3,411.9,212.3 M411.9,210.3c-11,0-20,9-20,20
			s9,20,20,20s20-9,20-20S423,210.3,411.9,210.3L411.9,210.3z"/>
	</g>
	<g>
		<circle class="st0" cx="383.8" cy="245.6" r="19"/>
		<path d="M383.8,227.6c9.9,0,18,8.1,18,18s-8.1,18-18,18s-18-8.1-18-18S373.9,227.6,383.8,227.6 M383.8,225.6c-11,0-20,9-20,20
			c0,11,9,20,20,20c11,0,20-9,20-20C403.8,234.5,394.9,225.6,383.8,225.6L383.8,225.6z"/>
	</g>
	<g>
		<circle class="st0" cx="355.7" cy="260.8" r="19"/>
		<path d="M355.7,242.8c9.9,0,18,8.1,18,18s-8.1,18-18,18s-18-8.1-18-18S345.8,242.8,355.7,242.8 M355.7,240.8c-11,0-20,9-20,20
			c0,11,9,20,20,20c11,0,20-9,20-20C375.7,249.8,366.8,240.8,355.7,240.8L355.7,240.8z"/>
	</g>
	<g>
		<circle class="st0" cx="327.6" cy="276.1" r="19"/>
		<path d="M327.6,258.1c9.9,0,18,8.1,18,18s-8.1,18-18,18s-18-8.1-18-18S317.7,258.1,327.6,258.1 M327.6,256.1c-11,0-20,9-20,20
			c0,11,9,20,20,20c11,0,20-9,20-20C347.6,265,338.7,256.1,327.6,256.1L327.6,256.1z"/>
	</g>
	<g>
		<circle class="st0" cx="299.5" cy="291.3" r="19"/>
		<path d="M299.5,273.3c9.9,0,18,8.1,18,18s-8.1,18-18,18s-18-8.1-18-18S289.6,273.3,299.5,273.3 M299.5,271.3c-11,0-20,9-20,20
			c0,11,9,20,20,20s20-9,20-20C319.5,280.3,310.6,271.3,299.5,271.3L299.5,271.3z"/>
	</g>
</g>
<g id="Layer_x5F_1_x5F_Lines">
	<line class="st3" x1="299.5" y1="81" x2="563.8" y2="136.8"/>
	<line class="st3" x1="299.5" y1="133.6" x2="563.8" y2="136.8"/>
	<line class="st3" x1="355.7" y1="50.5" x2="563.8" y2="136.8"/>
	<line class="st3" x1="327.6" y1="65.7" x2="563.8" y2="136.8"/>
	<line class="st3" x1="299.5" y1="186.2" x2="563.8" y2="136.8"/>
	<line class="st3" x1="355.7" y1="103.1" x2="563.8" y2="136.8"/>
	<line class="st3" x1="327.6" y1="118.3" x2="563.8" y2="136.8"/>
	<line class="st3" x1="327.6" y1="170.9" x2="563.8" y2="136.8"/>
	<line class="st3" x1="355.7" y1="155.7" x2="563.8" y2="136.8"/>
</g>
<g id="Layer_x5F_2_x5F_Dots">
	<g>
		<circle class="st0" cx="619.9" cy="53.9" r="19"/>
		<path d="M619.9,35.9c9.9,0,18,8.1,18,18s-8.1,18-18,18s-18-8.1-18-18S610,35.9,619.9,35.9 M619.9,33.9c-11,0-20,9-20,20
			c0,11,9,20,20,20c11,0,20-9,20-20C639.9,42.9,630.9,33.9,619.9,33.9L619.9,33.9z"/>
	</g>
	<g>
		<circle class="st0" cx="591.8" cy="69.2" r="19"/>
		<path d="M591.8,51.2c9.9,0,18,8.1,18,18s-8.1,18-18,18s-18-8.1-18-18S581.9,51.2,591.8,51.2 M591.8,49.2c-11,0-20,9-20,20
			c0,11,9,20,20,20c11,0,20-9,20-20C611.8,58.1,602.8,49.2,591.8,49.2L591.8,49.2z"/>
	</g>
	<g>
		<circle class="st0" cx="563.7" cy="84.4" r="19"/>
		<path d="M563.7,66.4c9.9,0,18,8.1,18,18s-8.1,18-18,18s-18-8.1-18-18S553.8,66.4,563.7,66.4 M563.7,64.4c-11,0-20,9-20,20
			c0,11,9,20,20,20c11,0,20-9,20-20C583.7,73.4,574.7,64.4,563.7,64.4L563.7,64.4z"/>
	</g>
	<g>
		<circle class="st0" cx="535.6" cy="99.7" r="19"/>
		<path d="M535.6,81.7c9.9,0,18,8.1,18,18s-8.1,18-18,18s-18-8.1-18-18S525.7,81.7,535.6,81.7 M535.6,79.7c-11,0-20,9-20,20
			c0,11,9,20,20,20c11,0,20-9,20-20C555.6,88.6,546.6,79.7,535.6,79.7L535.6,79.7z"/>
	</g>
	<g>
		<circle class="st0" cx="619.9" cy="106.5" r="19"/>
		<path d="M619.9,88.5c9.9,0,18,8.1,18,18s-8.1,18-18,18s-18-8.1-18-18S610,88.5,619.9,88.5 M619.9,86.5c-11,0-20,9-20,20
			c0,11,9,20,20,20c11,0,20-9,20-20C639.9,95.5,630.9,86.5,619.9,86.5L619.9,86.5z"/>
	</g>
	<g>
		<circle class="st0" cx="591.8" cy="121.7" r="19"/>
		<path d="M591.8,103.8c9.9,0,18,8.1,18,18s-8.1,18-18,18s-18-8.1-18-18S581.9,103.8,591.8,103.8 M591.8,101.8c-11,0-20,9-20,20
			c0,11,9,20,20,20c11,0,20-9,20-20C611.8,110.7,602.8,101.8,591.8,101.8L591.8,101.8z"/>
	</g>
	<g>
		<circle class="st0" cx="563.7" cy="137" r="19"/>
		<path d="M563.7,119c9.9,0,18,8.1,18,18s-8.1,18-18,18s-18-8.1-18-18S553.8,119,563.7,119 M563.7,117c-11,0-20,9-20,20
			c0,11,9,20,20,20c11,0,20-9,20-20C583.7,126,574.7,117,563.7,117L563.7,117z"/>
	</g>
	<g>
		<path class="st0" d="M535.6,171.2c-10.5,0-19-8.5-19-19s8.5-19,19-19s19,8.5,19,19S546.1,171.2,535.6,171.2z"/>
		<path d="M535.6,134.2c9.9,0,18,8.1,18,18s-8.1,18-18,18s-18-8.1-18-18S525.7,134.2,535.6,134.2 M535.6,132.2c-11,0-20,9-20,20
			c0,11,9,20,20,20c11,0,20-9,20-20C555.6,141.2,546.6,132.2,535.6,132.2L535.6,132.2z"/>
	</g>
	<g>
		<circle class="st0" cx="619.9" cy="159.1" r="19"/>
		<path d="M619.9,141.1c9.9,0,18,8.1,18,18s-8.1,18-18,18s-18-8.1-18-18S610,141.1,619.9,141.1 M619.9,139.1c-11,0-20,9-20,20
			s9,20,20,20c11,0,20-9,20-20S630.9,139.1,619.9,139.1L619.9,139.1z"/>
	</g>
	<g>
		<circle class="st0" cx="591.8" cy="174.3" r="19"/>
		<path d="M591.8,156.3c9.9,0,18,8.1,18,18s-8.1,18-18,18s-18-8.1-18-18S581.9,156.3,591.8,156.3 M591.8,154.3c-11,0-20,9-20,20
			s9,20,20,20c11,0,20-9,20-20S602.8,154.3,591.8,154.3L591.8,154.3z"/>
	</g>
	<g>
		<circle class="st0" cx="563.7" cy="189.6" r="19"/>
		<path d="M563.7,171.6c9.9,0,18,8.1,18,18s-8.1,18-18,18s-18-8.1-18-18S553.8,171.6,563.7,171.6 M563.7,169.6c-11,0-20,9-20,20
			s9,20,20,20c11,0,20-9,20-20S574.7,169.6,563.7,169.6L563.7,169.6z"/>
	</g>
	<g>
		<circle class="st0" cx="535.6" cy="204.8" r="19"/>
		<path d="M535.6,186.8c9.9,0,18,8.1,18,18s-8.1,18-18,18s-18-8.1-18-18S525.7,186.8,535.6,186.8 M535.6,184.8c-11,0-20,9-20,20
			s9,20,20,20c11,0,20-9,20-20S546.6,184.8,535.6,184.8L535.6,184.8z"/>
	</g>
	<g>
		<circle class="st0" cx="619.9" cy="211.7" r="19"/>
		<path d="M619.9,193.7c9.9,0,18,8.1,18,18s-8.1,18-18,18s-18-8.1-18-18S610,193.7,619.9,193.7 M619.9,191.7c-11,0-20,9-20,20
			c0,11,9,20,20,20c11,0,20-9,20-20C639.9,200.6,630.9,191.7,619.9,191.7L619.9,191.7z"/>
	</g>
	<g>
		<circle class="st0" cx="591.8" cy="226.9" r="19"/>
		<path d="M591.8,208.9c9.9,0,18,8.1,18,18s-8.1,18-18,18s-18-8.1-18-18S581.9,208.9,591.8,208.9 M591.8,206.9c-11,0-20,9-20,20
			c0,11,9,20,20,20c11,0,20-9,20-20C611.8,215.9,602.8,206.9,591.8,206.9L591.8,206.9z"/>
	</g>
	<g>
		<circle class="st0" cx="563.7" cy="242.2" r="19"/>
		<path d="M563.7,224.2c9.9,0,18,8.1,18,18s-8.1,18-18,18s-18-8.1-18-18S553.8,224.2,563.7,224.2 M563.7,222.2c-11,0-20,9-20,20
			c0,11,9,20,20,20c11,0,20-9,20-20C583.7,231.1,574.7,222.2,563.7,222.2L563.7,222.2z"/>
	</g>
	<g>
		<circle class="st0" cx="535.6" cy="257.4" r="19"/>
		<path d="M535.6,239.4c9.9,0,18,8.1,18,18s-8.1,18-18,18s-18-8.1-18-18S525.7,239.4,535.6,239.4 M535.6,237.4c-11,0-20,9-20,20
			c0,11,9,20,20,20c11,0,20-9,20-20C555.6,246.4,546.6,237.4,535.6,237.4L535.6,237.4z"/>
	</g>
</g>
<g id="Layer_x5F_2_x5F_Lines">
	<line class="st3" x1="535.2" y1="100.7" x2="748.1" y2="137"/>
	<line class="st3" x1="535.2" y1="153.3" x2="748.1" y2="137"/>
	<line class="st3" x1="591.5" y1="70.2" x2="748.1" y2="137"/>
	<line class="st3" x1="563.4" y1="85.5" x2="748.1" y2="137"/>
	<line class="st3" x1="535.2" y1="205.9" x2="748.1" y2="137"/>
	<line class="st3" x1="591.5" y1="122.8" x2="748.1" y2="137"/>
	<line class="st3" x1="563.4" y1="138.1" x2="748.1" y2="137"/>
	<line class="st3" x1="563.4" y1="190.7" x2="748.1" y2="137"/>
	<line class="st3" x1="591.5" y1="175.4" x2="748.1" y2="137"/>
</g>
<g id="Layer_x5F_3_x5F_Dots">
	<g>
		<circle class="st0" cx="804.3" cy="53.9" r="19"/>
		<path d="M804.3,35.9c9.9,0,18,8.1,18,18s-8.1,18-18,18s-18-8.1-18-18S794.3,35.9,804.3,35.9 M804.3,33.9c-11,0-20,9-20,20
			c0,11,9,20,20,20s20-9,20-20C824.3,42.9,815.3,33.9,804.3,33.9L804.3,33.9z"/>
	</g>
	<g>
		<circle class="st0" cx="776.2" cy="69.2" r="19"/>
		<path d="M776.2,51.2c9.9,0,18,8.1,18,18s-8.1,18-18,18s-18-8.1-18-18S766.2,51.2,776.2,51.2 M776.2,49.2c-11,0-20,9-20,20
			c0,11,9,20,20,20s20-9,20-20C796.2,58.1,787.2,49.2,776.2,49.2L776.2,49.2z"/>
	</g>
	<g>
		<circle class="st0" cx="748.1" cy="84.4" r="19"/>
		<path d="M748.1,66.4c9.9,0,18,8.1,18,18s-8.1,18-18,18s-18-8.1-18-18S738.1,66.4,748.1,66.4 M748.1,64.4c-11,0-20,9-20,20
			c0,11,9,20,20,20c11,0,20-9,20-20C768.1,73.4,759.1,64.4,748.1,64.4L748.1,64.4z"/>
	</g>
	<g>
		<circle class="st0" cx="720" cy="99.7" r="19"/>
		<path d="M720,81.7c9.9,0,18,8.1,18,18s-8.1,18-18,18s-18-8.1-18-18S710,81.7,720,81.7 M720,79.7c-11,0-20,9-20,20c0,11,9,20,20,20
			c11,0,20-9,20-20C740,88.6,731,79.7,720,79.7L720,79.7z"/>
	</g>
	<g>
		<circle class="st0" cx="804.3" cy="106.5" r="19"/>
		<path d="M804.3,88.5c9.9,0,18,8.1,18,18s-8.1,18-18,18s-18-8.1-18-18S794.3,88.5,804.3,88.5 M804.3,86.5c-11,0-20,9-20,20
			c0,11,9,20,20,20s20-9,20-20C824.3,95.5,815.3,86.5,804.3,86.5L804.3,86.5z"/>
	</g>
	<g>
		<circle class="st0" cx="776.2" cy="121.7" r="19"/>
		<path d="M776.2,103.8c9.9,0,18,8.1,18,18s-8.1,18-18,18s-18-8.1-18-18S766.2,103.8,776.2,103.8 M776.2,101.8c-11,0-20,9-20,20
			c0,11,9,20,20,20s20-9,20-20C796.2,110.7,787.2,101.8,776.2,101.8L776.2,101.8z"/>
	</g>
	<g>
		<circle class="st0" cx="748.1" cy="137" r="19"/>
		<path d="M748.1,119c9.9,0,18,8.1,18,18s-8.1,18-18,18s-18-8.1-18-18S738.1,119,748.1,119 M748.1,117c-11,0-20,9-20,20
			c0,11,9,20,20,20c11,0,20-9,20-20C768.1,126,759.1,117,748.1,117L748.1,117z"/>
	</g>
	<g>
		<path class="st0" d="M720,171.2c-10.5,0-19-8.5-19-19s8.5-19,19-19s19,8.5,19,19S730.4,171.2,720,171.2z"/>
		<path d="M720,134.2c9.9,0,18,8.1,18,18s-8.1,18-18,18s-18-8.1-18-18S710,134.2,720,134.2 M720,132.2c-11,0-20,9-20,20
			c0,11,9,20,20,20c11,0,20-9,20-20C740,141.2,731,132.2,720,132.2L720,132.2z"/>
	</g>
	<g>
		<circle class="st0" cx="804.3" cy="159.1" r="19"/>
		<path d="M804.3,141.1c9.9,0,18,8.1,18,18s-8.1,18-18,18s-18-8.1-18-18S794.3,141.1,804.3,141.1 M804.3,139.1c-11,0-20,9-20,20
			s9,20,20,20s20-9,20-20S815.3,139.1,804.3,139.1L804.3,139.1z"/>
	</g>
	<g>
		<circle class="st0" cx="776.2" cy="174.3" r="19"/>
		<path d="M776.2,156.3c9.9,0,18,8.1,18,18s-8.1,18-18,18s-18-8.1-18-18S766.2,156.3,776.2,156.3 M776.2,154.3c-11,0-20,9-20,20
			s9,20,20,20s20-9,20-20S787.2,154.3,776.2,154.3L776.2,154.3z"/>
	</g>
	<g>
		<circle class="st0" cx="748.1" cy="189.6" r="19"/>
		<path d="M748.1,171.6c9.9,0,18,8.1,18,18s-8.1,18-18,18s-18-8.1-18-18S738.1,171.6,748.1,171.6 M748.1,169.6c-11,0-20,9-20,20
			s9,20,20,20c11,0,20-9,20-20S759.1,169.6,748.1,169.6L748.1,169.6z"/>
	</g>
	<g>
		<circle class="st0" cx="720" cy="204.8" r="19"/>
		<path d="M720,186.8c9.9,0,18,8.1,18,18s-8.1,18-18,18s-18-8.1-18-18S710,186.8,720,186.8 M720,184.8c-11,0-20,9-20,20s9,20,20,20
			c11,0,20-9,20-20S731,184.8,720,184.8L720,184.8z"/>
	</g>
	<g>
		<circle class="st0" cx="804.3" cy="211.7" r="19"/>
		<path d="M804.3,193.7c9.9,0,18,8.1,18,18s-8.1,18-18,18s-18-8.1-18-18S794.3,193.7,804.3,193.7 M804.3,191.7c-11,0-20,9-20,20
			c0,11,9,20,20,20s20-9,20-20C824.3,200.6,815.3,191.7,804.3,191.7L804.3,191.7z"/>
	</g>
	<g>
		<circle class="st0" cx="776.2" cy="226.9" r="19"/>
		<path d="M776.2,208.9c9.9,0,18,8.1,18,18s-8.1,18-18,18s-18-8.1-18-18S766.2,208.9,776.2,208.9 M776.2,206.9c-11,0-20,9-20,20
			c0,11,9,20,20,20s20-9,20-20C796.2,215.9,787.2,206.9,776.2,206.9L776.2,206.9z"/>
	</g>
	<g>
		<circle class="st0" cx="748.1" cy="242.2" r="19"/>
		<path d="M748.1,224.2c9.9,0,18,8.1,18,18s-8.1,18-18,18s-18-8.1-18-18S738.1,224.2,748.1,224.2 M748.1,222.2c-11,0-20,9-20,20
			c0,11,9,20,20,20c11,0,20-9,20-20C768.1,231.1,759.1,222.2,748.1,222.2L748.1,222.2z"/>
	</g>
	<g>
		<circle class="st0" cx="720" cy="257.4" r="19"/>
		<path d="M720,239.4c9.9,0,18,8.1,18,18s-8.1,18-18,18s-18-8.1-18-18S710,239.4,720,239.4 M720,237.4c-11,0-20,9-20,20
			c0,11,9,20,20,20c11,0,20-9,20-20C740,246.4,731,237.4,720,237.4L720,237.4z"/>
	</g>
</g>
<g id="Layer_x5F_3_x5F_Lines">
	<line class="st3" x1="720" y1="99.7" x2="951" y2="155.7"/>
	<line class="st3" x1="720" y1="152.2" x2="951" y2="155.7"/>
	<line class="st3" x1="776.2" y1="69.2" x2="951" y2="155.7"/>
	<line class="st3" x1="748.1" y1="84.4" x2="951" y2="155.7"/>
	<line class="st3" x1="720" y1="204.8" x2="951" y2="155.7"/>
	<line class="st3" x1="776.2" y1="121.8" x2="951" y2="155.7"/>
	<line class="st3" x1="748.1" y1="137" x2="951" y2="155.7"/>
	<line class="st3" x1="748.1" y1="189.6" x2="951" y2="155.7"/>
	<line class="st3" x1="776.2" y1="174.3" x2="951" y2="155.7"/>
</g>
<g id="Layer_x5F_4_x5F_Dots">
	<g>
		<circle class="st0" cx="979.1" cy="87.8" r="19"/>
		<path d="M979.1,69.8c9.9,0,18,8.1,18,18c0,9.9-8.1,18-18,18s-18-8.1-18-18C961.1,77.9,969.2,69.8,979.1,69.8 M979.1,67.8
			c-11,0-20,9-20,20s9,20,20,20c11,0,20-9,20-20S990.1,67.8,979.1,67.8L979.1,67.8z"/>
	</g>
	<g>
		<circle class="st0" cx="951" cy="103.1" r="19"/>
		<path d="M951,85.1c9.9,0,18,8.1,18,18c0,9.9-8.1,18-18,18s-18-8.1-18-18C933,93.2,941.1,85.1,951,85.1 M951,83.1c-11,0-20,9-20,20
			s9,20,20,20c11,0,20-9,20-20S962,83.1,951,83.1L951,83.1z"/>
	</g>
	<g>
		<path class="st0" d="M922.9,137.3c-10.5,0-19-8.5-19-19c0-10.5,8.5-19,19-19s19,8.5,19,19C941.9,128.8,933.4,137.3,922.9,137.3z"
			/>
		<path d="M922.9,100.3c9.9,0,18,8.1,18,18s-8.1,18-18,18s-18-8.1-18-18S913,100.3,922.9,100.3 M922.9,98.3c-11,0-20,9-20,20
			c0,11,9,20,20,20c11,0,20-9,20-20C942.9,107.3,933.9,98.3,922.9,98.3L922.9,98.3z"/>
	</g>
	<g>
		<circle class="st0" cx="979.1" cy="140.4" r="19"/>
		<path d="M979.1,122.4c9.9,0,18,8.1,18,18s-8.1,18-18,18s-18-8.1-18-18S969.2,122.4,979.1,122.4 M979.1,120.4c-11,0-20,9-20,20
			s9,20,20,20c11,0,20-9,20-20S990.1,120.4,979.1,120.4L979.1,120.4z"/>
	</g>
	<g>
		<circle class="st0" cx="951" cy="155.7" r="19"/>
		<path d="M951,137.7c9.9,0,18,8.1,18,18s-8.1,18-18,18s-18-8.1-18-18S941.1,137.7,951,137.7 M951,135.7c-11,0-20,9-20,20
			c0,11,9,20,20,20c11,0,20-9,20-20C971,144.6,962,135.7,951,135.7L951,135.7z"/>
	</g>
	<g>
		<circle class="st0" cx="922.9" cy="170.9" r="19"/>
		<path d="M922.9,152.9c9.9,0,18,8.1,18,18s-8.1,18-18,18s-18-8.1-18-18S913,152.9,922.9,152.9 M922.9,150.9c-11,0-20,9-20,20
			c0,11,9,20,20,20c11,0,20-9,20-20C942.9,159.9,933.9,150.9,922.9,150.9L922.9,150.9z"/>
	</g>
	<g>
		<circle class="st0" cx="979.1" cy="193" r="19"/>
		<path d="M979.1,175c9.9,0,18,8.1,18,18s-8.1,18-18,18s-18-8.1-18-18S969.2,175,979.1,175 M979.1,173c-11,0-20,9-20,20
			c0,11,9,20,20,20c11,0,20-9,20-20C999.1,182,990.1,173,979.1,173L979.1,173z"/>
	</g>
	<g>
		<circle class="st0" cx="951" cy="208.3" r="19"/>
		<path d="M951,190.3c9.9,0,18,8.1,18,18s-8.1,18-18,18s-18-8.1-18-18S941.1,190.3,951,190.3 M951,188.3c-11,0-20,9-20,20
			c0,11,9,20,20,20c11,0,20-9,20-20C971,197.2,962,188.3,951,188.3L951,188.3z"/>
	</g>
	<g>
		<circle class="st0" cx="922.9" cy="223.5" r="19"/>
		<path d="M922.9,205.5c9.9,0,18,8.1,18,18s-8.1,18-18,18s-18-8.1-18-18S913,205.5,922.9,205.5 M922.9,203.5c-11,0-20,9-20,20
			c0,11,9,20,20,20c11,0,20-9,20-20C942.9,212.5,933.9,203.5,922.9,203.5L922.9,203.5z"/>
	</g>
</g>
<g id="Layer_x5F_4_x5F_Lines">
	<line class="st3" x1="922.9" y1="118.3" x2="1106.8" y2="155.7"/>
	<line class="st3" x1="922.9" y1="170.9" x2="1106.8" y2="155.7"/>
	<line class="st3" x1="979.1" y1="87.8" x2="1106.8" y2="155.7"/>
	<line class="st3" x1="951" y1="103.1" x2="1106.8" y2="155.7"/>
	<line class="st3" x1="922.9" y1="223.5" x2="1106.8" y2="155.7"/>
	<line class="st3" x1="979.1" y1="140.4" x2="1106.8" y2="155.7"/>
	<line class="st3" x1="951" y1="155.7" x2="1106.8" y2="155.7"/>
	<line class="st3" x1="951" y1="208.3" x2="1106.8" y2="155.7"/>
	<line class="st3" x1="979.1" y1="193" x2="1106.8" y2="155.7"/>
</g>
<g id="Layer_x5F_5_x5F_Dots">
	<g>
		<circle class="st0" cx="1134.9" cy="87.8" r="19"/>
		<path d="M1134.9,69.8c9.9,0,18,8.1,18,18c0,9.9-8.1,18-18,18s-18-8.1-18-18C1116.9,77.9,1125,69.8,1134.9,69.8 M1134.9,67.8
			c-11,0-20,9-20,20s9,20,20,20c11,0,20-9,20-20S1146,67.8,1134.9,67.8L1134.9,67.8z"/>
	</g>
	<g>
		<circle class="st0" cx="1106.8" cy="103.1" r="19"/>
		<path d="M1106.8,85.1c9.9,0,18,8.1,18,18c0,9.9-8.1,18-18,18s-18-8.1-18-18C1088.8,93.2,1096.9,85.1,1106.8,85.1 M1106.8,83.1
			c-11,0-20,9-20,20s9,20,20,20c11,0,20-9,20-20S1117.9,83.1,1106.8,83.1L1106.8,83.1z"/>
	</g>
	<g>
		<path class="st0" d="M1078.7,137.3c-10.5,0-19-8.5-19-19c0-10.5,8.5-19,19-19s19,8.5,19,19
			C1097.7,128.8,1089.2,137.3,1078.7,137.3z"/>
		<path d="M1078.7,100.3c9.9,0,18,8.1,18,18s-8.1,18-18,18s-18-8.1-18-18S1068.8,100.3,1078.7,100.3 M1078.7,98.3c-11,0-20,9-20,20
			c0,11,9,20,20,20c11,0,20-9,20-20C1098.7,107.3,1089.8,98.3,1078.7,98.3L1078.7,98.3z"/>
	</g>
	<g>
		<circle class="st0" cx="1134.9" cy="140.4" r="19"/>
		<path d="M1134.9,122.4c9.9,0,18,8.1,18,18s-8.1,18-18,18s-18-8.1-18-18S1125,122.4,1134.9,122.4 M1134.9,120.4c-11,0-20,9-20,20
			s9,20,20,20c11,0,20-9,20-20S1146,120.4,1134.9,120.4L1134.9,120.4z"/>
	</g>
	<g>
		<circle class="st0" cx="1106.8" cy="155.7" r="19"/>
		<path d="M1106.8,137.7c9.9,0,18,8.1,18,18s-8.1,18-18,18s-18-8.1-18-18S1096.9,137.7,1106.8,137.7 M1106.8,135.7c-11,0-20,9-20,20
			c0,11,9,20,20,20c11,0,20-9,20-20C1126.8,144.6,1117.9,135.7,1106.8,135.7L1106.8,135.7z"/>
	</g>
	<g>
		<circle class="st0" cx="1078.7" cy="170.9" r="19"/>
		<path d="M1078.7,152.9c9.9,0,18,8.1,18,18s-8.1,18-18,18s-18-8.1-18-18S1068.8,152.9,1078.7,152.9 M1078.7,150.9c-11,0-20,9-20,20
			c0,11,9,20,20,20c11,0,20-9,20-20C1098.7,159.9,1089.8,150.9,1078.7,150.9L1078.7,150.9z"/>
	</g>
	<g>
		<circle class="st0" cx="1134.9" cy="193" r="19"/>
		<path d="M1134.9,175c9.9,0,18,8.1,18,18s-8.1,18-18,18s-18-8.1-18-18S1125,175,1134.9,175 M1134.9,173c-11,0-20,9-20,20
			c0,11,9,20,20,20c11,0,20-9,20-20C1154.9,182,1146,173,1134.9,173L1134.9,173z"/>
	</g>
	<g>
		<circle class="st0" cx="1106.8" cy="208.3" r="19"/>
		<path d="M1106.8,190.3c9.9,0,18,8.1,18,18s-8.1,18-18,18s-18-8.1-18-18S1096.9,190.3,1106.8,190.3 M1106.8,188.3c-11,0-20,9-20,20
			c0,11,9,20,20,20c11,0,20-9,20-20C1126.8,197.2,1117.9,188.3,1106.8,188.3L1106.8,188.3z"/>
	</g>
	<g>
		<circle class="st0" cx="1078.7" cy="223.5" r="19"/>
		<path d="M1078.7,205.5c9.9,0,18,8.1,18,18s-8.1,18-18,18s-18-8.1-18-18S1068.8,205.5,1078.7,205.5 M1078.7,203.5c-11,0-20,9-20,20
			c0,11,9,20,20,20c11,0,20-9,20-20C1098.7,212.5,1089.8,203.5,1078.7,203.5L1078.7,203.5z"/>
	</g>
</g>
<g id="Layer_x5F_5_x5F_Lines">
	<line class="st3" x1="1078.7" y1="118.3" x2="1279.6" y2="155.7"/>
	<line class="st3" x1="1078.7" y1="170.9" x2="1279.6" y2="155.7"/>
	<line class="st3" x1="1134.9" y1="87.8" x2="1279.6" y2="155.7"/>
	<line class="st3" x1="1106.8" y1="103.1" x2="1279.6" y2="155.7"/>
	<line class="st3" x1="1078.7" y1="223.5" x2="1279.6" y2="155.7"/>
	<line class="st3" x1="1134.9" y1="140.4" x2="1279.6" y2="155.7"/>
	<line class="st3" x1="1106.8" y1="155.7" x2="1279.6" y2="155.7"/>
	<line class="st3" x1="1106.8" y1="208.3" x2="1279.6" y2="155.7"/>
	<line class="st3" x1="1134.9" y1="193" x2="1279.6" y2="155.7"/>
</g>
<g id="Layer_x5F_6_x5F_Dots">
	<g>
		<circle class="st0" cx="1279.5" cy="50.5" r="19"/>
		<path d="M1279.6,32.5c9.9,0,18,8.1,18,18s-8.1,18-18,18s-18-8.1-18-18S1269.6,32.5,1279.6,32.5 M1279.6,30.5c-11,0-20,9-20,20
			s9,20,20,20c11,0,20-9,20-20S1290.6,30.5,1279.6,30.5L1279.6,30.5z"/>
	</g>
	<g>
		<circle class="st0" cx="1279.5" cy="103.1" r="19"/>
		<path d="M1279.6,85.1c9.9,0,18,8.1,18,18c0,9.9-8.1,18-18,18s-18-8.1-18-18C1261.6,93.2,1269.6,85.1,1279.6,85.1 M1279.6,83.1
			c-11,0-20,9-20,20s9,20,20,20c11,0,20-9,20-20S1290.6,83.1,1279.6,83.1L1279.6,83.1z"/>
	</g>
	<g>
		<circle class="st0" cx="1279.5" cy="155.7" r="19"/>
		<path d="M1279.6,137.7c9.9,0,18,8.1,18,18s-8.1,18-18,18s-18-8.1-18-18S1269.6,137.7,1279.6,137.7 M1279.6,135.7c-11,0-20,9-20,20
			c0,11,9,20,20,20c11,0,20-9,20-20C1299.6,144.6,1290.6,135.7,1279.6,135.7L1279.6,135.7z"/>
	</g>
	<g>
		<circle class="st0" cx="1279.5" cy="208.3" r="19"/>
		<path d="M1279.6,190.3c9.9,0,18,8.1,18,18s-8.1,18-18,18s-18-8.1-18-18S1269.6,190.3,1279.6,190.3 M1279.6,188.3c-11,0-20,9-20,20
			c0,11,9,20,20,20c11,0,20-9,20-20C1299.6,197.2,1290.6,188.3,1279.6,188.3L1279.6,188.3z"/>
	</g>
	<g>
		<circle class="st0" cx="1279.5" cy="260.8" r="19"/>
		<path d="M1279.6,242.8c9.9,0,18,8.1,18,18s-8.1,18-18,18s-18-8.1-18-18S1269.6,242.8,1279.6,242.8 M1279.6,240.8c-11,0-20,9-20,20
			c0,11,9,20,20,20c11,0,20-9,20-20C1299.6,249.8,1290.6,240.8,1279.6,240.8L1279.6,240.8z"/>
	</g>
</g>
<g id="Layer_x5F_6_x5F_Lines">
	<line class="st3" x1="1279.6" y1="50.5" x2="1373.3" y2="103.1"/>
	<line class="st3" x1="1279.6" y1="103.1" x2="1373.3" y2="155.7"/>
	<line class="st3" x1="1279.6" y1="155.7" x2="1373.3" y2="208.3"/>
	<line class="st3" x1="1279.6" y1="260.8" x2="1373.3" y2="208.3"/>
	<line class="st3" x1="1279.6" y1="208.3" x2="1373.3" y2="155.7"/>
	<line class="st3" x1="1279.6" y1="155.7" x2="1373.3" y2="103.1"/>
	<line class="st3" x1="1279.6" y1="50.5" x2="1373.3" y2="155.7"/>
	<line class="st3" x1="1279.6" y1="103.1" x2="1373.6" y2="208.3"/>
	<line class="st3" x1="1279.6" y1="50.5" x2="1373.6" y2="208.3"/>
	<line class="st3" x1="1279.6" y1="103.1" x2="1373.3" y2="103.1"/>
	<line class="st3" x1="1279.6" y1="260.8" x2="1373.3" y2="103.1"/>
	<line class="st3" x1="1279.6" y1="208.3" x2="1373.3" y2="103.1"/>
	<line class="st3" x1="1279.6" y1="155.7" x2="1373.3" y2="155.7"/>
	<line class="st3" x1="1279.6" y1="260.8" x2="1373.3" y2="155.7"/>
	<line class="st3" x1="1279.6" y1="208.3" x2="1373.6" y2="208.3"/>
</g>
<g id="Layer_x5F_7_x5F_Dots">
	<g>
		<circle class="st0" cx="1373.4" cy="103.1" r="19"/>
		<path d="M1373.4,85.1c9.9,0,18,8.1,18,18c0,9.9-8.1,18-18,18s-18-8.1-18-18C1355.4,93.2,1363.5,85.1,1373.4,85.1 M1373.4,83.1
			c-11,0-20,9-20,20s9,20,20,20c11,0,20-9,20-20S1384.5,83.1,1373.4,83.1L1373.4,83.1z"/>
	</g>
	<g>
		<circle class="st0" cx="1373.4" cy="155.7" r="19"/>
		<path d="M1373.4,137.7c9.9,0,18,8.1,18,18s-8.1,18-18,18s-18-8.1-18-18S1363.5,137.7,1373.4,137.7 M1373.4,135.7c-11,0-20,9-20,20
			c0,11,9,20,20,20c11,0,20-9,20-20C1393.4,144.6,1384.5,135.7,1373.4,135.7L1373.4,135.7z"/>
	</g>
	<g>
		<circle class="st0" cx="1373.4" cy="208.3" r="19"/>
		<path d="M1373.4,190.3c9.9,0,18,8.1,18,18s-8.1,18-18,18s-18-8.1-18-18S1363.5,190.3,1373.4,190.3 M1373.4,188.3c-11,0-20,9-20,20
			c0,11,9,20,20,20c11,0,20-9,20-20C1393.4,197.2,1384.5,188.3,1373.4,188.3L1373.4,188.3z"/>
	</g>
</g>
<g id="Layer_x5F_7_x5F_Lines">
	<line class="st3" x1="1373.3" y1="103.1" x2="1466.4" y2="103.1"/>
	<line class="st3" x1="1373.3" y1="155.7" x2="1466.4" y2="155.7"/>
	<line class="st3" x1="1373.3" y1="208.3" x2="1466.4" y2="208.3"/>
	<line class="st3" x1="1373.3" y1="155.7" x2="1466.4" y2="103.1"/>
	<line class="st3" x1="1373.3" y1="208.3" x2="1466.4" y2="103.1"/>
	<line class="st3" x1="1373.3" y1="103.1" x2="1466.4" y2="155.7"/>
	<line class="st3" x1="1373.3" y1="103.1" x2="1466.4" y2="208.3"/>
	<line class="st3" x1="1373.3" y1="155.7" x2="1466.4" y2="208.3"/>
	<line class="st3" x1="1373.3" y1="208.3" x2="1466.4" y2="155.7"/>
</g>
<g id="Layer_x5F_8_x5F_Dots">
	<g>
		<circle class="st0" cx="1466.4" cy="155.7" r="19"/>
		<path d="M1466.4,137.7c9.9,0,18,8.1,18,18s-8.1,18-18,18s-18-8.1-18-18S1456.5,137.7,1466.4,137.7 M1466.4,135.7c-11,0-20,9-20,20
			c0,11,9,20,20,20c11,0,20-9,20-20C1486.4,144.6,1477.5,135.7,1466.4,135.7L1466.4,135.7z"/>
	</g>
	<g>
		<circle class="st0" cx="1466.4" cy="208.3" r="19"/>
		<path d="M1466.4,190.3c9.9,0,18,8.1,18,18s-8.1,18-18,18s-18-8.1-18-18S1456.5,190.3,1466.4,190.3 M1466.4,188.3c-11,0-20,9-20,20
			c0,11,9,20,20,20c11,0,20-9,20-20C1486.4,197.2,1477.5,188.3,1466.4,188.3L1466.4,188.3z"/>
	</g>
</g>
<g>
	<path class="st4" d="M60.3,389.8v-35.5h11.4c3.3,0,5.9,0.8,7.8,2.5c1.8,1.6,2.7,3.6,2.7,6c0,4-1.5,6.6-4.4,7.7
		c-0.5,0.2-1.1,0.4-1.8,0.5c2,0.4,3.6,1.3,4.9,2.8c1.4,1.6,2,3.7,2,6.3c0,3.7-1.2,6.4-3.5,7.9c-1.8,1.2-4.3,1.7-7.6,1.7H60.3z
		 M65.9,369h5.8c1.6,0,2.9-0.6,4.1-1.8c0.9-0.9,1.4-2.2,1.4-3.7c0-3-1.8-4.4-5.5-4.4h-5.8V369z M65.9,385.1h6c2.2,0,3.7-0.5,4.6-1.5
		c0.8-0.9,1.1-2.1,1.1-3.8c0-1.4-0.5-2.7-1.6-3.9c-1.1-1.3-2.5-2-4.2-2h-6V385.1z"/>
	<path class="st4" d="M86.5,362.9v-5.7h5.7v5.7H86.5z M86.8,389.8v-24.7h5v24.7H86.8z"/>
	<path class="st4" d="M97.4,389.9v-35.6h5v35.6H97.4z"/>
	<path class="st4" d="M126.7,386.5c0,1.1,0.2,2.2,0.7,3.4h-5.3c0-0.1-0.1-0.2-0.1-0.3l-0.2-1.5c-1.2,1.5-2.9,2.3-5.2,2.3
		c-3.9,0-6.8-1.8-8.6-5.5c-1-2-1.5-4.3-1.5-6.9c0-6,1.5-9.9,4.4-11.7c1.6-1,3.6-1.5,6-1.5c1.2,0,2.2,0.2,3.1,0.7s1.5,0.9,1.7,1.3
		v-12.4h5V386.5z M121.7,371.3c-1.5-1.6-3.2-2.4-5.1-2.4c-1.9,0-3.3,0.8-4.1,2.5c-0.7,1.4-1.1,3.6-1.1,6.5c0,3.2,0.5,5.4,1.5,6.6
		c0.9,1,2.2,1.6,3.9,1.6c1.8,0,3.3-0.8,4.5-2.4c0.2-0.3,0.3-0.4,0.3-0.4V371.3z"/>
</g>
<g>
	<path class="st4" d="M1542.2,152.2h-2.3l-3.6-6.9v-4.6h5.7v5.7h-1.7L1542.2,152.2z M1549.5,152.2h-2.3l-3.6-6.9v-4.6h5.7v5.7h-1.7
		L1549.5,152.2z"/>
	<path class="st4" d="M1551.9,162.3c-0.2-1.5-0.4-3-0.4-4.5s0.1-3,0.4-4.4s0.6-2.9,1-4.3s1.1-2.7,1.8-3.8s1.6-2.2,2.5-3.1
		c2-1.9,4.6-2.8,7.6-2.8c3.8,0,6.9,1.9,9.1,5.7c1.1,1.9,1.8,3.8,2.2,5.7v0l-4.9,1.3c-0.2-1.7-0.5-2.9-0.9-3.7s-0.7-1.4-1-1.9
		s-0.7-1-1.1-1.3c-1-0.8-2.1-1.2-3.3-1.2s-2.3,0.3-3.2,0.8s-1.6,1.3-2.2,2.2s-1,1.9-1.4,3.2c-0.7,2.2-1,4.7-1,7.5
		c0,7.4,1.8,11.8,5.2,13.2c0.8,0.3,1.5,0.5,2.4,0.5s1.6-0.1,2.3-0.3s1.2-0.5,1.7-0.9s0.9-0.8,1.2-1.3s0.6-1,0.8-1.5s0.4-1,0.5-1.5
		c0.2-0.9,0.4-1.8,0.4-2.5l5.2,0.7c-0.7,3-1.9,5.6-3.7,7.8c-2.2,2.8-5,4.1-8.4,4.1c-4.1,0-7.4-2-10-5.9
		C1553.4,168.2,1552.4,165.5,1551.9,162.3z"/>
	<path class="st4" d="M1598.8,157.1v18.5h-5v-17.2c0-1.1-0.3-2-1-2.7s-1.5-1-2.4-1s-1.9,0.3-2.8,0.8s-1.6,1.1-2.1,1.7v18.4h-5v-35.5
		h5v13.4c2-2,4.1-3,6.3-3c2,0,3.6,0.5,4.9,1.5C1598.2,153.2,1598.8,154.9,1598.8,157.1z"/>
	<path class="st4" d="M1603.7,175.7v-24.7h5v3.4c0.1-0.1,0.2-0.3,0.4-0.6l0.6-0.8c1.2-1.6,3.1-2.4,5.7-2.4c0.3,0,0.6,0,0.8,0.1v4.2
		c-2.8,0-4.9,0.8-6.1,2.4c-0.6,0.7-1,1.6-1.4,2.6v15.9H1603.7z"/>
	<path class="st4" d="M1618.5,148.8v-5.7h5.7v5.7H1618.5z M1618.8,175.7v-24.7h5v24.7H1618.8z"/>
	<path class="st4" d="M1628.1,170.7l3.5-2.1c0.5,0.8,1.1,1.4,1.5,1.9c1.1,1.1,2.5,1.6,4.2,1.6c1.4,0,2.3-0.3,2.9-0.8
		c0.5-0.5,0.8-1.3,0.8-2.3c0-1.2-0.4-2.1-1.1-2.7c-0.7-0.5-1.4-0.9-2-1.1l-2.2-0.6c-2.5-0.7-4.4-1.7-5.5-2.9
		c-1.1-1.2-1.7-2.9-1.7-4.9c0-1.7,0.7-3.2,2.1-4.4c1.5-1.2,3.6-1.9,6.4-1.9c2.5,0,4.7,0.9,6.5,2.6c0.8,0.7,1.3,1.4,1.5,1.9l-2.9,2.3
		c-1.1-1.3-2.2-2.1-3.3-2.5c-0.6-0.2-1.3-0.3-2.2-0.3s-1.7,0.2-2.3,0.7s-1,1.2-1,2.1c0,1,0.5,1.9,1.4,2.4c0.8,0.5,1.6,0.9,2.5,1.1
		l2.1,0.6c3.3,0.9,5.4,2.5,6.2,4.8c0.3,0.9,0.5,2,0.5,3.2s-0.4,2.4-1.2,3.4s-1.8,1.8-3.1,2.4s-2.5,0.8-3.8,0.8s-2.4-0.1-3.2-0.2
		s-1.6-0.4-2.4-0.8C1630.6,174.3,1629.3,172.8,1628.1,170.7z"/>
	<path class="st4" d="M1647.8,155.2v-4.2h3.7v-9h5v9h5.2v4.2h-5.2v13.3c0,1.3,0.2,2.2,0.7,2.7s1.3,0.7,2.4,0.7c0.5,0,0.9,0,1.4-0.1
		s0.7-0.1,0.7-0.1v3.5c-0.8,0.4-1.5,0.6-2,0.8s-1,0.2-1.7,0.2s-1.2,0-1.5,0s-0.7-0.1-1.2-0.2s-0.9-0.2-1.2-0.4s-0.7-0.4-1-0.7
		s-0.7-0.7-0.9-1.1c-0.5-1-0.8-2.3-0.8-3.9v-14.7H1647.8z"/>
	<path class="st4" d="M1663.2,163.3c0-3.9,0.9-7,2.7-9.3s4.3-3.5,7.4-3.5c2.1,0,3.9,0.5,5.4,1.6c3.1,2.2,4.7,5.9,4.7,11.2
		c0,6.6-2.1,10.7-6.2,12.2c-1.1,0.4-2.4,0.6-3.9,0.6s-2.8-0.2-3.9-0.6s-2.1-1-2.9-1.8s-1.4-1.7-1.9-2.8
		C1663.6,168.9,1663.2,166.4,1663.2,163.3z M1668.3,160.5c-0.1,0.8-0.1,1.7-0.1,2.7s0,1.8,0.1,2.6s0.3,1.5,0.5,2.3s0.6,1.4,0.9,2
		c0.8,1.2,2,1.9,3.6,1.9c3.4,0,5.1-2.9,5.1-8.6c0-3.3-0.5-5.7-1.5-7c-0.8-1.1-2-1.6-3.6-1.6C1670.4,154.8,1668.8,156.7,1668.3,160.5
		z"/>
	<path class="st4" d="M1692.6,152.8c1.2-1.5,2.9-2.3,5.2-2.3c3.9,0,6.8,1.8,8.6,5.5c1,2,1.5,4.3,1.5,6.9c0,6-1.5,9.9-4.4,11.7
		c-1.6,1-3.6,1.5-6,1.5c-1.2,0-2.2-0.2-3.1-0.7s-1.5-0.9-1.8-1.3v11.2h-5v-34.3h5V152.8z M1692.6,169.4c1.5,1.6,3.2,2.4,5.1,2.4
		c1.9,0,3.3-0.8,4.1-2.5c0.7-1.4,1.1-3.6,1.1-6.5c0-3.2-0.5-5.4-1.5-6.6c-0.9-1-2.2-1.6-3.9-1.6c-1.8,0-3.3,0.8-4.5,2.4
		c-0.2,0.3-0.3,0.4-0.3,0.4V169.4z"/>
	<path class="st4" d="M1730,157.1v18.5h-5v-17.2c0-1.1-0.3-2-1-2.7s-1.5-1-2.4-1s-1.9,0.3-2.8,0.8s-1.6,1.1-2.1,1.7v18.4h-5v-35.5h5
		v13.4c2-2,4.1-3,6.3-3c2,0,3.6,0.5,4.9,1.5C1729.3,153.2,1730,154.9,1730,157.1z"/>
	<path class="st4" d="M1732.8,152.2l1.9-5.9h-1.7v-5.7h5.7v4.6l-3.6,6.9H1732.8z M1740.1,152.2l1.9-5.9h-1.7v-5.7h5.7v4.6l-3.6,6.9
		H1740.1z"/>
</g>
<g id="Layer_x5F_1_x5F_Shadow" class="st5">
	<g>
		<ellipse transform="matrix(0.9712 -0.2382 0.2382 0.9712 -56.6788 106.5213)" cx="412.4" cy="287.8" rx="20" ry="9.9"/>
	</g>
	<g>
		<ellipse transform="matrix(0.9712 -0.2382 0.2382 0.9712 -60.7545 100.8515)" cx="386.9" cy="301.8" rx="20" ry="9.9"/>
	</g>
	<g>
		<ellipse transform="matrix(0.9712 -0.2382 0.2382 0.9712 -64.8301 95.1817)" cx="361.4" cy="315.8" rx="20" ry="9.9"/>
	</g>
	<g>
		<ellipse transform="matrix(0.9712 -0.2382 0.2382 0.9712 -68.9057 89.5119)" cx="335.9" cy="329.8" rx="20" ry="9.9"/>
	</g>
	<g>
		<ellipse transform="matrix(0.9712 -0.2382 0.2382 0.9712 -72.9813 83.8421)" cx="310.4" cy="343.9" rx="20" ry="9.9"/>
	</g>
</g>
<g id="Layer_x5F_2_x5F_Shadow" class="st5">
	<ellipse transform="matrix(0.9712 -0.2382 0.2382 0.9712 -52.3618 156.2687)" cx="620.3" cy="294.8" rx="20" ry="9.9"/>
	<ellipse transform="matrix(0.9712 -0.2382 0.2382 0.9712 -56.4375 150.5989)" cx="594.8" cy="308.8" rx="20" ry="9.9"/>
	<ellipse transform="matrix(0.9712 -0.2382 0.2382 0.9712 -60.5131 144.9291)" cx="569.3" cy="322.8" rx="20" ry="9.9"/>
	<ellipse transform="matrix(0.9712 -0.2382 0.2382 0.9712 -64.5887 139.2594)" cx="543.9" cy="336.8" rx="20" ry="9.9"/>
</g>
<g id="Layer_x5F_3_x5F_Shadow" class="st5">
	<g>
		<ellipse transform="matrix(0.9712 -0.2382 0.2382 0.9712 -47.0541 200.1873)" cx="804.7" cy="294.8" rx="20" ry="9.9"/>
	</g>
	<g>
		<ellipse transform="matrix(0.9712 -0.2382 0.2382 0.9712 -51.1297 194.5176)" cx="779.2" cy="308.8" rx="20" ry="9.9"/>
	</g>
	<g>
		<ellipse transform="matrix(0.9712 -0.2382 0.2382 0.9712 -55.2053 188.8478)" cx="753.7" cy="322.8" rx="20" ry="9.9"/>
	</g>
	<g>
		<ellipse transform="matrix(0.9712 -0.2382 0.2382 0.9712 -59.2809 183.178)" cx="728.2" cy="336.8" rx="20" ry="9.9"/>
	</g>
</g>
<g id="Layer_x5F_4_x5F_Shadow" class="st5">
	<g>
		<ellipse transform="matrix(0.9712 -0.2382 0.2382 0.9712 -43.6912 242.04)" cx="979.5" cy="301.8" rx="20" ry="9.9"/>
	</g>
	<g>
		<ellipse transform="matrix(0.9712 -0.2382 0.2382 0.9712 -47.7668 236.3702)" cx="954" cy="315.8" rx="20" ry="9.9"/>
	</g>
	<g>
		<ellipse transform="matrix(0.9712 -0.2382 0.2382 0.9712 -51.8424 230.7005)" cx="928.5" cy="329.8" rx="20" ry="9.9"/>
	</g>
</g>
<g id="Layer_x5F_5_x5F_Shadow" class="st5">
	<g>
		<ellipse transform="matrix(0.9712 -0.2382 0.2382 0.9712 -39.2045 279.1644)" cx="1135.4" cy="301.8" rx="20" ry="9.9"/>
	</g>
	<g>
		<ellipse transform="matrix(0.9712 -0.2382 0.2382 0.9712 -43.2802 273.4946)" cx="1109.9" cy="315.8" rx="20" ry="9.9"/>
	</g>
	<g>
		<ellipse transform="matrix(0.9712 -0.2382 0.2382 0.9712 -47.3558 267.8249)" cx="1084.4" cy="329.8" rx="20" ry="9.9"/>
	</g>
</g>
<g id="Layer_x5F_6_x5F_Shadow">
	<g id="Layer_x5F_1_x5F_Shadow_8_" class="st5">
		<g>
			<ellipse transform="matrix(0.9712 -0.2382 0.2382 0.9712 -38.3823 314.0218)" cx="1280" cy="315.8" rx="20" ry="9.9"/>
		</g>
	</g>
	<g id="Layer_x5F_1_x5F_Shadow_10_" class="st5">
		<g>
			<ellipse transform="matrix(0.9712 -0.2382 0.2382 0.9712 -35.6912 336.2886)" cx="1373.4" cy="315.8" rx="20" ry="9.9"/>
		</g>
	</g>
	<g id="Layer_x5F_1_x5F_Shadow_12_" class="st5">
		<g>
			<ellipse transform="matrix(0.9712 -0.2382 0.2382 0.9712 -33.0138 358.4424)" cx="1466.4" cy="315.8" rx="20" ry="9.9"/>
		</g>
	</g>
</g>
<g id="Image_x5F_pixel">
	<g>
		<line class="st6" x1="8.3" y1="96.1" x2="8.3" y2="247"/>
		<line class="st6" x1="50.5" y1="96.1" x2="50.5" y2="247"/>
		<line class="st6" x1="92.7" y1="95.9" x2="92.7" y2="246.8"/>
		<line class="st6" x1="135" y1="95.9" x2="135" y2="246.8"/>
		<line class="st6" x1="177.2" y1="95.9" x2="177.2" y2="246.8"/>
		<line class="st6" x1="8.3" y1="96.1" x2="177.2" y2="95.9"/>
		<line class="st6" x1="8.3" y1="133.5" x2="177.2" y2="133.5"/>
		<line class="st6" x1="8.3" y1="171.4" x2="177.2" y2="171.4"/>
		<line class="st6" x1="8.3" y1="209" x2="177.2" y2="209"/>
		<line class="st6" x1="8.3" y1="246.6" x2="177.2" y2="246.6"/>
	</g>
	<g>
		<g>
			<circle class="st7" cx="8.3" cy="96.1" r="7.5"/>
		</g>
		<g>
			<circle class="st7" cx="50.5" cy="96.1" r="7.5"/>
		</g>
		<g>
			<circle class="st7" cx="92.7" cy="95.9" r="7.5"/>
		</g>
		<g>
			<circle class="st7" cx="177.2" cy="95.9" r="7.5"/>
		</g>
		<g>
			<circle class="st7" cx="135" cy="95.9" r="7.5"/>
		</g>
		<g>
			<circle class="st7" cx="8.3" cy="133.5" r="7.5"/>
		</g>
		<g>
			<circle class="st7" cx="50.5" cy="133.5" r="7.5"/>
		</g>
		<g>
			<circle class="st7" cx="92.7" cy="133.3" r="7.5"/>
		</g>
		<g>
			<circle class="st7" cx="135" cy="133.3" r="7.5"/>
		</g>
		<g>
			<circle class="st7" cx="177.2" cy="133.3" r="7.5"/>
		</g>
		<g>
			<circle class="st7" cx="8.3" cy="171.2" r="7.5"/>
		</g>
		<g>
			<circle class="st7" cx="50.5" cy="171.2" r="7.5"/>
		</g>
		<g>
			<circle class="st7" cx="92.7" cy="171" r="7.5"/>
		</g>
		<g>
			<circle class="st7" cx="135" cy="171" r="7.5"/>
		</g>
		<g>
			<circle class="st7" cx="177.2" cy="171" r="7.5"/>
		</g>
		<g>
			<circle class="st7" cx="8.3" cy="209" r="7.5"/>
		</g>
		<g>
			<circle class="st7" cx="50.5" cy="209" r="7.5"/>
		</g>
		<g>
			<circle class="st7" cx="92.7" cy="208.8" r="7.5"/>
		</g>
		<g>
			<circle class="st7" cx="135" cy="208.8" r="7.5"/>
		</g>
		<g>
			<circle class="st7" cx="177.2" cy="208.8" r="7.5"/>
		</g>
		<g>
			<circle class="st7" cx="8.3" cy="247" r="7.5"/>
		</g>
		<g>
			<circle class="st7" cx="50.5" cy="247" r="7.5"/>
		</g>
		<g>
			<circle class="st7" cx="92.7" cy="246.8" r="7.5"/>
		</g>
		<g>
			<circle class="st7" cx="135" cy="246.8" r="7.5"/>
		</g>
		<g>
			<circle class="st7" cx="177.2" cy="246.8" r="7.5"/>
		</g>
	</g>
	<g id="Shadow">
		<g class="st5">
			<circle cx="8.6" cy="314.8" r="7.5"/>
		</g>
		<g class="st5">
			<circle cx="50.8" cy="314.8" r="7.5"/>
		</g>
		<g class="st5">
			<circle cx="93" cy="314.6" r="7.5"/>
		</g>
		<g class="st5">
			<circle cx="135.2" cy="314.6" r="7.5"/>
		</g>
		<g class="st5">
			<circle cx="177.5" cy="314.6" r="7.5"/>
		</g>
	</g>
</g>
<g>
	<path class="st4" d="M277.9,389.8v-26.6h2.6v26.6H277.9z"/>
	<path class="st4" d="M285,389.8v-18.5h2.3v3c1-1,2-1.8,2.9-2.4s2-0.9,3.3-0.9s2.3,0.4,3.2,1.2s1.3,2.1,1.3,3.7v13.8h-2.3V376
		c0-0.9-0.3-1.6-0.9-2.1s-1.3-0.8-2-0.8c-1.7,0-3.5,1-5.4,3v13.7H285z"/>
	<path class="st4" d="M302.2,397v-25.8h2.3v2.9c0.3-0.5,0.7-1.1,1.4-1.6c1.2-1,2.5-1.5,3.8-1.5c2.5,0,4.3,1.3,5.6,4
		c0.7,1.5,1.1,3.2,1.1,5.1c0,3.2-0.8,5.8-2.4,7.7c-1.1,1.4-2.7,2.1-4.6,2.1c-1.1,0-2.1-0.3-3.1-1s-1.6-1.2-1.8-1.7v9.7H302.2z
		 M304.5,385.3c0.5,0.8,1.2,1.4,2,1.9s1.5,0.8,2.2,0.8s1.3-0.1,1.8-0.2s0.9-0.4,1.4-0.7s0.9-0.8,1.2-1.4c0.7-1.3,1.1-3.1,1.1-5.5
		c0-2.9-0.7-5-2-6.2c-0.7-0.6-1.6-1-2.7-1c-1.5,0-2.8,0.6-3.9,1.9c-0.3,0.3-0.6,0.7-1,1.2V385.3z"/>
	<path class="st4" d="M320,385.1v-13.8h2.3v13.8c0,0.9,0.3,1.6,0.9,2.1s1.3,0.8,2,0.8c1.7,0,3.5-1,5.4-3v-13.7h2.3v18.5h-2.3v-3.1
		c-1.7,1.6-3.1,2.6-4.3,3c-0.6,0.2-1.2,0.3-1.8,0.3c-1.3,0-2.5-0.4-3.3-1.2S320,386.7,320,385.1z"/>
	<path class="st4" d="M335.6,373.2v-2h3.1v-6.8h2.3v6.8h4.3v2h-4.3V385c0,1.2,0.2,2,0.5,2.4s1,0.7,1.8,0.7c0.3,0,0.7,0,1.2-0.1
		s0.7-0.1,0.7-0.1v1.7c-0.8,0.3-1.5,0.4-2.3,0.4s-1.2,0-1.5-0.1s-0.6-0.1-1-0.3s-0.7-0.5-0.9-0.8c-0.6-0.8-0.9-2.1-0.9-3.9v-11.8
		H335.6z"/>
	<path class="st4" d="M357,389.8v-26.6h2.6v24.1h11.8v2.5H357z"/>
	<path class="st4" d="M373.1,385.3c0-0.8,0.1-1.6,0.3-2.2s0.5-1.2,1-1.7s1-0.9,1.5-1.3s1.3-0.7,2.1-1c1.6-0.6,3.5-1,5.7-1.5
		c0-1.9-0.4-3.1-1.1-3.7c-0.6-0.6-1.6-0.8-2.8-0.8c-1.5,0-2.7,0.6-3.8,1.7c-0.5,0.5-0.8,0.9-0.9,1.2l-1.7-1.1
		c1.3-2.5,3.5-3.8,6.7-3.8c2.8,0,4.6,1.1,5.4,3.3c0.3,0.9,0.5,1.9,0.5,3.2v9.7c0,0.3,0.1,0.8,0.2,1.4s0.2,1,0.4,1.2h-2.3
		c-0.4-0.2-0.5-1.2-0.5-3c-1.7,2.1-3.5,3.2-5.5,3.2c-2.2,0-3.7-0.8-4.6-2.3C373.3,386.9,373.1,386.1,373.1,385.3z M375.9,383.3
		c-0.3,0.5-0.4,1.2-0.4,2.1s0.3,1.5,0.9,2s1.3,0.7,2,0.7s1.4-0.1,2-0.3s1.1-0.5,1.6-0.9c0.9-0.6,1.5-1.2,1.9-1.7v-5.6
		c-2.2,0.6-3.5,0.9-4,1.1C377.8,381.3,376.5,382.2,375.9,383.3z"/>
	<path class="st4" d="M393,396.4c-0.7,0.2-1.4,0.3-2.2,0.3s-1.5,0-2.2-0.1l0.2-2.1c0.4,0.2,1,0.3,1.7,0.3s1.3-0.1,1.7-0.3
		s0.8-0.4,1.1-0.7s0.6-0.6,0.8-0.9s0.4-0.7,0.6-1c0.2-0.7,0.4-1.3,0.5-1.9l-6.7-18.6h2.5l5.3,15.1l4.9-15.1h2.4l-6.5,19.7
		c-0.7,2-1.3,3.4-2,4.1C394.4,395.8,393.7,396.3,393,396.4z"/>
	<path class="st4" d="M407.1,387.2c-0.6-0.9-1-1.8-1.3-2.9s-0.4-2.2-0.4-3.3s0.1-2.2,0.2-3.2s0.4-1.8,0.7-2.4s0.6-1.3,1-1.8
		s0.8-0.9,1.2-1.3s0.9-0.6,1.3-0.8c0.8-0.4,1.6-0.5,2.4-0.5s1.4,0.1,1.9,0.2s1.1,0.4,1.7,0.8s1.1,1,1.6,1.6c1,1.6,1.5,3.9,1.5,7
		h-11.1c0,3.1,0.8,5.3,2.4,6.4c0.8,0.6,1.7,0.8,2.6,0.8c1.8,0,3.3-1.1,4.6-3.4l1.6,1.1c-0.5,0.8-1.1,1.6-1.8,2.3
		c-1.4,1.3-2.8,1.9-4.2,1.9s-2.5-0.3-3.5-0.8S407.7,388.1,407.1,387.2z M407.8,378.8h8.7c0-1.7-0.4-3.2-1.2-4.3
		c-0.7-1-1.6-1.4-2.9-1.4c-2.1,0-3.4,0.9-4.1,2.8C408,376.8,407.8,377.8,407.8,378.8z"/>
	<path class="st4" d="M422.4,389.8v-18.5h2.3v5c0.6-1.2,1-2.1,1.3-2.5c1.1-1.8,2.6-2.7,4.5-2.7c0.1,0,0.4,0,0.6,0v2
		c-0.8,0.1-1.5,0.3-2,0.4s-1,0.5-1.5,0.9c-0.9,0.7-1.8,2.2-2.8,4.3v11H422.4z"/>
</g>
<g>
	<path class="st4" d="M766.5,389.8v-26.6h2.6v11.5h12.1v-11.5h2.6v26.6h-2.6v-12.9h-12.1v12.9H766.5z"/>
	<path class="st4" d="M788.2,368.9v-2.6h2.6v2.6H788.2z M788.4,389.8v-18.5h2.3v18.5H788.4z"/>
	<path class="st4" d="M806.5,386.9c-1.2,2.1-2.9,3.1-5,3.1c-1.1,0-2-0.3-2.9-0.8s-1.6-1.2-2.1-2.1c-1.1-1.8-1.7-3.9-1.7-6.2
		c0-1.7,0.3-3.3,0.8-4.8s1.4-2.7,2.5-3.6s2.2-1.4,3.5-1.4s2.3,0.3,3.2,0.9s1.5,1.2,1.7,1.7v-10.5h2.3v24.1c0,0.4,0,0.8,0.1,1.4
		s0.2,1,0.3,1.2h-2.3C806.7,389.7,806.5,388.7,806.5,386.9z M797.1,380.8c0,2.1,0.4,3.8,1.1,5.1c0.8,1.4,2,2.1,3.7,2.1
		c1.1,0,2-0.3,2.7-0.9c0.6-0.5,1.2-1.2,1.9-2.2v-9.2c-1.2-1.8-2.6-2.7-4.2-2.7C798.9,373,797.1,375.6,797.1,380.8z"/>
	<path class="st4" d="M823.8,386.9c-1.2,2.1-2.9,3.1-5,3.1c-1.1,0-2-0.3-2.9-0.8s-1.6-1.2-2.1-2.1c-1.1-1.8-1.7-3.9-1.7-6.2
		c0-1.7,0.3-3.3,0.8-4.8s1.4-2.7,2.5-3.6s2.2-1.4,3.5-1.4s2.3,0.3,3.2,0.9s1.5,1.2,1.7,1.7v-10.5h2.3v24.1c0,0.4,0,0.8,0.1,1.4
		s0.2,1,0.3,1.2h-2.3C824,389.7,823.8,388.7,823.8,386.9z M814.4,380.8c0,2.1,0.4,3.8,1.1,5.1c0.8,1.4,2,2.1,3.7,2.1
		c1.1,0,2-0.3,2.7-0.9c0.6-0.5,1.2-1.2,1.9-2.2v-9.2c-1.2-1.8-2.6-2.7-4.2-2.7C816.1,373,814.4,375.6,814.4,380.8z"/>
	<path class="st4" d="M831.1,387.2c-0.6-0.9-1-1.8-1.3-2.9s-0.4-2.2-0.4-3.3s0.1-2.2,0.2-3.2s0.4-1.8,0.7-2.4s0.6-1.3,1-1.8
		s0.8-0.9,1.2-1.3s0.9-0.6,1.3-0.8c0.8-0.4,1.6-0.5,2.4-0.5s1.4,0.1,1.9,0.2s1.1,0.4,1.7,0.8s1.1,1,1.6,1.6c1,1.6,1.5,3.9,1.5,7
		h-11.1c0,3.1,0.8,5.3,2.4,6.4c0.8,0.6,1.7,0.8,2.6,0.8c1.8,0,3.3-1.1,4.6-3.4l1.6,1.1c-0.5,0.8-1.1,1.6-1.8,2.3
		c-1.4,1.3-2.8,1.9-4.2,1.9s-2.5-0.3-3.5-0.8S831.7,388.1,831.1,387.2z M831.8,378.8h8.7c0-1.7-0.4-3.2-1.2-4.3
		c-0.7-1-1.6-1.4-2.9-1.4c-2.1,0-3.4,0.9-4.1,2.8C832,376.8,831.8,377.8,831.8,378.8z"/>
	<path class="st4" d="M846.4,389.8v-18.5h2.3v3c1-1,2-1.8,2.9-2.4s2-0.9,3.3-0.9s2.3,0.4,3.2,1.2s1.3,2.1,1.3,3.7v13.8h-2.3V376
		c0-0.9-0.3-1.6-0.9-2.1s-1.3-0.8-2-0.8c-1.7,0-3.5,1-5.4,3v13.7H846.4z"/>
	<path class="st4" d="M872.7,389.8v-26.6h2.6v24.1h11.8v2.5H872.7z"/>
	<path class="st4" d="M888.9,385.3c0-0.8,0.1-1.6,0.3-2.2s0.5-1.2,1-1.7s1-0.9,1.5-1.3s1.3-0.7,2.1-1c1.6-0.6,3.5-1,5.7-1.5
		c0-1.9-0.4-3.1-1.1-3.7c-0.6-0.6-1.6-0.8-2.8-0.8c-1.5,0-2.7,0.6-3.8,1.7c-0.5,0.5-0.8,0.9-0.9,1.2l-1.7-1.1
		c1.3-2.5,3.5-3.8,6.7-3.8c2.8,0,4.6,1.1,5.4,3.3c0.3,0.9,0.5,1.9,0.5,3.2v9.7c0,0.3,0.1,0.8,0.2,1.4s0.2,1,0.4,1.2h-2.3
		c-0.4-0.2-0.5-1.2-0.5-3c-1.7,2.1-3.5,3.2-5.5,3.2c-2.2,0-3.7-0.8-4.6-2.3C889.1,386.9,888.9,386.1,888.9,385.3z M891.6,383.3
		c-0.3,0.5-0.4,1.2-0.4,2.1s0.3,1.5,0.9,2s1.3,0.7,2,0.7s1.4-0.1,2-0.3s1.1-0.5,1.6-0.9c0.9-0.6,1.5-1.2,1.9-1.7v-5.6
		c-2.2,0.6-3.5,0.9-4,1.1C893.5,381.3,892.2,382.2,891.6,383.3z"/>
	<path class="st4" d="M908.7,396.4c-0.7,0.2-1.4,0.3-2.2,0.3s-1.5,0-2.2-0.1l0.2-2.1c0.4,0.2,1,0.3,1.7,0.3s1.3-0.1,1.7-0.3
		s0.8-0.4,1.1-0.7s0.6-0.6,0.8-0.9s0.4-0.7,0.6-1c0.2-0.7,0.4-1.3,0.5-1.9l-6.7-18.6h2.5l5.3,15.1l4.9-15.1h2.4l-6.5,19.7
		c-0.7,2-1.3,3.4-2,4.1C910.2,395.8,909.4,396.3,908.7,396.4z"/>
	<path class="st4" d="M922.9,387.2c-0.6-0.9-1-1.8-1.3-2.9s-0.4-2.2-0.4-3.3s0.1-2.2,0.2-3.2s0.4-1.8,0.7-2.4s0.6-1.3,1-1.8
		s0.8-0.9,1.2-1.3s0.9-0.6,1.3-0.8c0.8-0.4,1.6-0.5,2.4-0.5s1.4,0.1,1.9,0.2s1.1,0.4,1.7,0.8s1.1,1,1.6,1.6c1,1.6,1.5,3.9,1.5,7
		h-11.1c0,3.1,0.8,5.3,2.4,6.4c0.8,0.6,1.7,0.8,2.6,0.8c1.8,0,3.3-1.1,4.6-3.4l1.6,1.1c-0.5,0.8-1.1,1.6-1.8,2.3
		c-1.4,1.3-2.8,1.9-4.2,1.9s-2.5-0.3-3.5-0.8S923.5,388.1,922.9,387.2z M923.6,378.8h8.7c0-1.7-0.4-3.2-1.2-4.3
		c-0.7-1-1.6-1.4-2.9-1.4c-2.1,0-3.4,0.9-4.1,2.8C923.7,376.8,923.6,377.8,923.6,378.8z"/>
	<path class="st4" d="M938.2,389.8v-18.5h2.3v5c0.6-1.2,1-2.1,1.3-2.5c1.1-1.8,2.6-2.7,4.5-2.7c0.1,0,0.4,0,0.6,0v2
		c-0.8,0.1-1.5,0.3-2,0.4s-1,0.5-1.5,0.9c-0.9,0.7-1.8,2.2-2.8,4.3v11H938.2z"/>
</g>
<g>
	<path class="st4" d="M1282.9,384.2c-0.5-1.2-0.9-2.4-1.2-3.7s-0.4-2.6-0.4-3.9s0.1-2.7,0.3-3.9s0.6-2.5,1.1-3.7s1.1-2.2,1.9-3.1
		s1.7-1.6,2.8-2.1s2.4-0.8,3.7-0.8s2.6,0.3,3.7,0.8s2,1.3,2.7,2.2s1.3,1.9,1.8,3.1c0.9,2.2,1.4,4.8,1.4,7.6c0,5.1-1.3,9-4,11.5
		c-1.4,1.4-3.3,2-5.5,2c-1.3,0-2.5-0.3-3.6-0.8s-2-1.2-2.8-2.1S1283.5,385.3,1282.9,384.2z M1285,369.9c-0.4,1-0.6,2-0.8,3.1
		s-0.2,2.3-0.2,3.7s0.1,2.8,0.4,4.1s0.7,2.5,1.2,3.6s1.3,1.9,2.3,2.5s2,0.9,3.2,0.9s2.1-0.2,3-0.7s1.5-1.1,2-1.8s0.9-1.6,1.2-2.6
		c0.6-1.8,0.9-3.9,0.9-6.2c0-3.9-0.7-6.8-2.1-9c-0.5-0.8-1.2-1.4-2-1.9s-1.8-0.7-2.8-0.7s-2,0.2-2.8,0.6s-1.5,1-2.1,1.7
		S1285.3,368.9,1285,369.9z"/>
	<path class="st4" d="M1304.5,385.1v-13.8h2.3v13.8c0,0.9,0.3,1.6,0.9,2.1s1.3,0.8,2,0.8c1.7,0,3.5-1,5.4-3v-13.7h2.3v18.5h-2.3
		v-3.1c-1.7,1.6-3.1,2.6-4.3,3c-0.6,0.2-1.2,0.3-1.8,0.3c-1.3,0-2.5-0.4-3.3-1.2S1304.5,386.7,1304.5,385.1z"/>
	<path class="st4" d="M1320,373.2v-2h3.1v-6.8h2.3v6.8h4.3v2h-4.3V385c0,1.2,0.2,2,0.5,2.4s1,0.7,1.8,0.7c0.3,0,0.7,0,1.2-0.1
		s0.7-0.1,0.7-0.1v1.7c-0.8,0.3-1.5,0.4-2.3,0.4s-1.2,0-1.5-0.1s-0.6-0.1-1-0.3s-0.7-0.5-0.9-0.8c-0.6-0.8-0.9-2.1-0.9-3.9v-11.8
		H1320z"/>
	<path class="st4" d="M1332.3,397v-25.8h2.3v2.9c0.3-0.5,0.7-1.1,1.4-1.6c1.2-1,2.5-1.5,3.8-1.5c2.5,0,4.3,1.3,5.6,4
		c0.7,1.5,1.1,3.2,1.1,5.1c0,3.2-0.8,5.8-2.4,7.7c-1.1,1.4-2.7,2.1-4.6,2.1c-1.1,0-2.1-0.3-3.1-1s-1.6-1.2-1.8-1.7v9.7H1332.3z
		 M1334.6,385.3c0.5,0.8,1.2,1.4,2,1.9s1.5,0.8,2.2,0.8s1.3-0.1,1.8-0.2s0.9-0.4,1.4-0.7s0.9-0.8,1.2-1.4c0.7-1.3,1.1-3.1,1.1-5.5
		c0-2.9-0.7-5-2-6.2c-0.7-0.6-1.6-1-2.7-1c-1.5,0-2.8,0.6-3.9,1.9c-0.3,0.3-0.6,0.7-1,1.2V385.3z"/>
	<path class="st4" d="M1350.2,385.1v-13.8h2.3v13.8c0,0.9,0.3,1.6,0.9,2.1s1.3,0.8,2,0.8c1.7,0,3.5-1,5.4-3v-13.7h2.3v18.5h-2.3
		v-3.1c-1.7,1.6-3.1,2.6-4.3,3c-0.6,0.2-1.2,0.3-1.8,0.3c-1.3,0-2.5-0.4-3.3-1.2S1350.2,386.7,1350.2,385.1z"/>
	<path class="st4" d="M1365.7,373.2v-2h3.1v-6.8h2.3v6.8h4.3v2h-4.3V385c0,1.2,0.2,2,0.5,2.4s1,0.7,1.8,0.7c0.3,0,0.7,0,1.2-0.1
		s0.7-0.1,0.7-0.1v1.7c-0.8,0.3-1.5,0.4-2.3,0.4s-1.2,0-1.5-0.1s-0.6-0.1-1-0.3s-0.7-0.5-0.9-0.8c-0.6-0.8-0.9-2.1-0.9-3.9v-11.8
		H1365.7z"/>
	<path class="st4" d="M1387.1,389.8v-26.6h2.6v24.1h11.8v2.5H1387.1z"/>
	<path class="st4" d="M1403.2,385.3c0-0.8,0.1-1.6,0.3-2.2s0.5-1.2,1-1.7s1-0.9,1.5-1.3s1.3-0.7,2.1-1c1.6-0.6,3.5-1,5.7-1.5
		c0-1.9-0.4-3.1-1.1-3.7c-0.6-0.6-1.6-0.8-2.8-0.8c-1.5,0-2.7,0.6-3.8,1.7c-0.5,0.5-0.8,0.9-0.9,1.2l-1.7-1.1
		c1.3-2.5,3.5-3.8,6.7-3.8c2.8,0,4.6,1.1,5.4,3.3c0.3,0.9,0.5,1.9,0.5,3.2v9.7c0,0.3,0.1,0.8,0.2,1.4s0.2,1,0.4,1.2h-2.3
		c-0.4-0.2-0.5-1.2-0.5-3c-1.7,2.1-3.5,3.2-5.5,3.2c-2.2,0-3.7-0.8-4.6-2.3C1403.5,386.9,1403.2,386.1,1403.2,385.3z M1406,383.3
		c-0.3,0.5-0.4,1.2-0.4,2.1s0.3,1.5,0.9,2s1.3,0.7,2,0.7s1.4-0.1,2-0.3s1.1-0.5,1.6-0.9c0.9-0.6,1.5-1.2,1.9-1.7v-5.6
		c-2.2,0.6-3.5,0.9-4,1.1C1407.9,381.3,1406.6,382.2,1406,383.3z"/>
	<path class="st4" d="M1423.1,396.4c-0.7,0.2-1.4,0.3-2.2,0.3s-1.5,0-2.2-0.1l0.2-2.1c0.4,0.2,1,0.3,1.7,0.3s1.3-0.1,1.7-0.3
		s0.8-0.4,1.1-0.7s0.6-0.6,0.8-0.9s0.4-0.7,0.6-1c0.2-0.7,0.4-1.3,0.5-1.9l-6.7-18.6h2.5l5.3,15.1l4.9-15.1h2.4l-6.5,19.7
		c-0.7,2-1.3,3.4-2,4.1C1424.5,395.8,1423.8,396.3,1423.1,396.4z"/>
	<path class="st4" d="M1437.3,387.2c-0.6-0.9-1-1.8-1.3-2.9s-0.4-2.2-0.4-3.3s0.1-2.2,0.2-3.2s0.4-1.8,0.7-2.4s0.6-1.3,1-1.8
		s0.8-0.9,1.2-1.3s0.9-0.6,1.3-0.8c0.8-0.4,1.6-0.5,2.4-0.5s1.4,0.1,1.9,0.2s1.1,0.4,1.7,0.8s1.1,1,1.6,1.6c1,1.6,1.5,3.9,1.5,7
		h-11.1c0,3.1,0.8,5.3,2.4,6.4c0.8,0.6,1.7,0.8,2.6,0.8c1.8,0,3.3-1.1,4.6-3.4l1.6,1.1c-0.5,0.8-1.1,1.6-1.8,2.3
		c-1.4,1.3-2.8,1.9-4.2,1.9s-2.5-0.3-3.5-0.8S1437.8,388.1,1437.3,387.2z M1437.9,378.8h8.7c0-1.7-0.4-3.2-1.2-4.3
		c-0.7-1-1.6-1.4-2.9-1.4c-2.1,0-3.4,0.9-4.1,2.8C1438.1,376.8,1437.9,377.8,1437.9,378.8z"/>
	<path class="st4" d="M1452.6,389.8v-18.5h2.3v5c0.6-1.2,1-2.1,1.3-2.5c1.1-1.8,2.6-2.7,4.5-2.7c0.1,0,0.4,0,0.6,0v2
		c-0.8,0.1-1.5,0.3-2,0.4s-1,0.5-1.5,0.9c-0.9,0.7-1.8,2.2-2.8,4.3v11H1452.6z"/>
</g>
<g>
	<circle class="st0" cx="1466.4" cy="103.1" r="19"/>
	<path d="M1466.4,85.1c9.9,0,18,8.1,18,18c0,9.9-8.1,18-18,18s-18-8.1-18-18C1448.4,93.2,1456.5,85.1,1466.4,85.1 M1466.4,83.1
		c-11,0-20,9-20,20s9,20,20,20c11,0,20-9,20-20S1477.5,83.1,1466.4,83.1L1466.4,83.1z"/>
</g>
<g>
</g>
<g>
</g>
<g>
</g>
<g>
</g>
<g>
</g>
<g>
</g>
<g>
</g>
<g>
</g>
<g>
</g>
<g>
</g>
<g>
</g>
<g>
</g>
<g>
</g>
<g>
</g>
<g>
</g>
</svg>
