<?xml version="1.0" encoding="utf-8"?>
<!-- Generator: Adobe Illustrator 25.1.0, SVG Export Plug-In . SVG Version: 6.00 Build 0)  -->
<svg version="1.1" id="Layer_1" xmlns="http://www.w3.org/2000/svg" xmlns:xlink="http://www.w3.org/1999/xlink" x="0px" y="0px"
	 viewBox="0 0 3330.5 1244.9" style="enable-background:new 0 0 3330.5 1244.9;" xml:space="preserve">
<style type="text/css">
	.st0{fill:#FFFFFF;}
	.st1{fill:none;stroke:#98A6AD;stroke-width:3;stroke-miterlimit:10;}
	.st2{fill:#2DC6D6;}
	.st3{fill:#D62DC6;}
	.st4{fill:#98A6AD;}
	.st5{fill:none;stroke:#FFFFFF;stroke-width:3;stroke-miterlimit:10;}
</style>
<g>
	<g>
		<path class="st0" d="M480,471.9c9.4,0,17,7.6,17,17v360c0,9.4-7.6,17-17,17H20c-9.4,0-17-7.6-17-17v-360c0-9.4,7.6-17,17-17H480
			 M480,468.9H20c-11,0-20,9-20,20v360c0,11,9,20,20,20h460c11,0,20-9,20-20v-360C500,477.8,491,468.9,480,468.9L480,468.9z"/>
	</g>
	<g id="Network">
		<g>
			<line class="st1" x1="74.8" y1="643.5" x2="194.4" y2="543.8"/>
			<line class="st1" x1="186.7" y1="643.5" x2="194.4" y2="543.8"/>
			<line class="st1" x1="296.8" y1="591.4" x2="194.4" y2="543.8"/>
			<line class="st1" x1="186.7" y1="643.5" x2="296.8" y2="591.4"/>
			<line class="st1" x1="186.7" y1="643.5" x2="74.8" y2="643.5"/>
			<line class="st1" x1="296.8" y1="591.4" x2="316.8" y2="697.7"/>
			<line class="st1" x1="186.7" y1="643.5" x2="316.8" y2="697.7"/>
			<line class="st1" x1="74.8" y1="643.5" x2="107.2" y2="726.4"/>
			<line class="st1" x1="107.2" y1="726.4" x2="186.7" y2="643.5"/>
			<line class="st1" x1="246.2" y1="773.9" x2="186.7" y2="643.5"/>
			<line class="st1" x1="246.2" y1="773.9" x2="107.2" y2="726.4"/>
			<line class="st1" x1="316.8" y1="697.7" x2="246.2" y2="773.9"/>
			<line class="st1" x1="316.8" y1="697.7" x2="405.2" y2="793.9"/>
			<line class="st1" x1="316.8" y1="697.7" x2="425.2" y2="657.7"/>
		</g>
		<g>
			<circle class="st2" cx="74.8" cy="643.5" r="20"/>
			<circle class="st2" cx="194.4" cy="543.8" r="20"/>
			<circle class="st2" cx="296.8" cy="591.4" r="20"/>
			<circle class="st2" cx="186.7" cy="643.5" r="20"/>
			<circle class="st2" cx="107.2" cy="726.4" r="20"/>
			<circle class="st2" cx="246.2" cy="773.9" r="20"/>
			<circle class="st2" cx="316.8" cy="697.7" r="20"/>
			<circle class="st2" cx="425.2" cy="657.7" r="20"/>
			<circle class="st2" cx="405.2" cy="793.9" r="20"/>
		</g>
	</g>
</g>
<g>
	<g>
		<path class="st0" d="M1146,95.9c9.4,0,17,7.6,17,17v1112c0,9.4-7.6,17-17,17H686c-9.4,0-17-7.6-17-17v-1112c0-9.4,7.6-17,17-17
			H1146 M1146,92.9H686c-11,0-20,9-20,20v1112c0,11,9,20,20,20h460c11,0,20-9,20-20v-1112C1166,101.8,1157,92.9,1146,92.9L1146,92.9
			z"/>
	</g>
	<g>
		<g id="Network_1_">
			<g>
				<line class="st1" x1="744.6" y1="262.2" x2="864.1" y2="162.5"/>
				<line class="st1" x1="856.4" y1="262.2" x2="864.1" y2="162.5"/>
				<line class="st1" x1="966.5" y1="210.1" x2="864.1" y2="162.5"/>
				<line class="st1" x1="856.4" y1="262.2" x2="966.5" y2="210.1"/>
				<line class="st1" x1="856.4" y1="262.2" x2="744.6" y2="262.2"/>
				<line class="st1" x1="966.5" y1="210.1" x2="986.5" y2="316.3"/>
				<line class="st1" x1="856.4" y1="262.2" x2="986.5" y2="316.3"/>
				<line class="st1" x1="744.6" y1="262.2" x2="776.9" y2="345.1"/>
				<line class="st1" x1="776.9" y1="345.1" x2="856.4" y2="262.2"/>
				<line class="st1" x1="915.9" y1="392.6" x2="856.4" y2="262.2"/>
				<line class="st1" x1="915.9" y1="392.6" x2="776.9" y2="345.1"/>
				<line class="st1" x1="986.5" y1="316.3" x2="915.9" y2="392.6"/>
				<line class="st1" x1="986.5" y1="316.3" x2="1074.9" y2="412.6"/>
				<line class="st1" x1="986.5" y1="316.3" x2="1094.9" y2="276.3"/>
			</g>
			<g>
				<circle class="st3" cx="744.6" cy="262.2" r="20"/>
				<circle class="st2" cx="864.1" cy="162.5" r="20"/>
				<circle class="st2" cx="966.5" cy="210.1" r="20"/>
				<circle class="st2" cx="856.4" cy="262.2" r="20"/>
				<circle class="st2" cx="776.9" cy="345.1" r="20"/>
				<circle class="st2" cx="915.9" cy="392.6" r="20"/>
				<circle class="st2" cx="986.5" cy="316.3" r="20"/>
				<circle class="st2" cx="1094.9" cy="276.3" r="20"/>
				<circle class="st2" cx="1074.9" cy="412.6" r="20"/>
			</g>
		</g>
		<g id="Network_2_">
			<g>
				<line class="st1" x1="735.4" y1="585.1" x2="854.9" y2="485.4"/>
				<line class="st1" x1="847.2" y1="585.1" x2="854.9" y2="485.4"/>
				<line class="st1" x1="957.3" y1="533" x2="854.9" y2="485.4"/>
				<line class="st1" x1="847.2" y1="585.1" x2="957.3" y2="533"/>
				<line class="st1" x1="847.2" y1="585.1" x2="735.4" y2="585.1"/>
				<line class="st1" x1="957.3" y1="533" x2="977.3" y2="639.3"/>
				<line class="st1" x1="847.2" y1="585.1" x2="977.3" y2="639.3"/>
				<line class="st1" x1="735.4" y1="585.1" x2="767.7" y2="668"/>
				<line class="st1" x1="767.7" y1="668" x2="847.2" y2="585.1"/>
				<line class="st1" x1="906.7" y1="715.5" x2="847.2" y2="585.1"/>
				<line class="st1" x1="906.7" y1="715.5" x2="767.7" y2="668"/>
				<line class="st1" x1="977.3" y1="639.3" x2="906.7" y2="715.5"/>
				<line class="st1" x1="977.3" y1="639.3" x2="1065.7" y2="735.5"/>
				<line class="st1" x1="977.3" y1="639.3" x2="1085.7" y2="599.3"/>
			</g>
			<g>
				<circle class="st2" cx="735.4" cy="585.1" r="20"/>
				<circle class="st2" cx="854.9" cy="485.4" r="20"/>
				<circle class="st2" cx="957.3" cy="533" r="20"/>
				<circle class="st3" cx="847.2" cy="585.1" r="20"/>
				<circle class="st2" cx="767.7" cy="668" r="20"/>
				<circle class="st2" cx="906.7" cy="715.5" r="20"/>
				<circle class="st2" cx="977.3" cy="639.3" r="20"/>
				<circle class="st2" cx="1085.7" cy="599.3" r="20"/>
				<circle class="st2" cx="1065.7" cy="735.5" r="20"/>
			</g>
		</g>
		<g id="Network_3_">
			<g>
				<line class="st1" x1="746.3" y1="1024.9" x2="865.8" y2="925.2"/>
				<line class="st1" x1="858.1" y1="1024.9" x2="865.8" y2="925.2"/>
				<line class="st1" x1="968.2" y1="972.8" x2="865.8" y2="925.2"/>
				<line class="st1" x1="858.1" y1="1024.9" x2="968.2" y2="972.8"/>
				<line class="st1" x1="858.1" y1="1024.9" x2="746.3" y2="1024.9"/>
				<line class="st1" x1="968.2" y1="972.8" x2="988.2" y2="1079"/>
				<line class="st1" x1="858.1" y1="1024.9" x2="988.2" y2="1079"/>
				<line class="st1" x1="746.3" y1="1024.9" x2="778.7" y2="1107.7"/>
				<line class="st1" x1="778.7" y1="1107.7" x2="858.1" y2="1024.9"/>
				<line class="st1" x1="917.6" y1="1155.2" x2="858.1" y2="1024.9"/>
				<line class="st1" x1="917.6" y1="1155.2" x2="778.7" y2="1107.7"/>
				<line class="st1" x1="988.2" y1="1079" x2="917.6" y2="1155.2"/>
				<line class="st1" x1="988.2" y1="1079" x2="1076.6" y2="1175.2"/>
				<line class="st1" x1="988.2" y1="1079" x2="1096.6" y2="1039"/>
			</g>
			<g>
				<circle class="st2" cx="746.3" cy="1024.9" r="20"/>
				<circle class="st2" cx="865.8" cy="925.2" r="20"/>
				<circle class="st2" cx="968.2" cy="972.8" r="20"/>
				<circle class="st2" cx="858.1" cy="1024.9" r="20"/>
				<circle class="st2" cx="778.7" cy="1107.7" r="20"/>
				<circle class="st2" cx="917.6" cy="1155.2" r="20"/>
				<circle class="st2" cx="988.2" cy="1079" r="20"/>
				<circle class="st2" cx="1096.6" cy="1039" r="20"/>
				<circle class="st3" cx="1076.6" cy="1175.2" r="20"/>
			</g>
		</g>
		<g>
			<path class="st4" d="M899.4,849.2v-8.3h8.3v8.3H899.4z"/>
			<path class="st4" d="M911.1,849.2v-8.3h8.3v8.3H911.1z"/>
			<path class="st4" d="M922.8,849.2v-8.3h8.3v8.3H922.8z"/>
		</g>
	</g>
</g>
<g>
	<g>
		<path class="st0" d="M1990.9,95.9c9.4,0,17,7.6,17,17v1112c0,9.4-7.6,17-17,17h-460c-9.4,0-17-7.6-17-17v-1112c0-9.4,7.6-17,17-17
			H1990.9 M1990.9,92.9h-460c-11,0-20,9-20,20v1112c0,11,9,20,20,20h460c11,0,20-9,20-20v-1112
			C2010.9,101.8,2001.9,92.9,1990.9,92.9L1990.9,92.9z"/>
	</g>
	<g>
		<g id="Network_6_">
			<g>
				<line class="st1" x1="1589.4" y1="262.2" x2="1709" y2="162.5"/>
				<line class="st1" x1="1701.3" y1="262.2" x2="1709" y2="162.5"/>
				<line class="st1" x1="1811.3" y1="210.1" x2="1709" y2="162.5"/>
				<line class="st1" x1="1701.3" y1="262.2" x2="1811.3" y2="210.1"/>
				<line class="st1" x1="1701.3" y1="262.2" x2="1589.4" y2="262.2"/>
				<line class="st1" x1="1811.3" y1="210.1" x2="1831.3" y2="316.3"/>
				<line class="st1" x1="1701.3" y1="262.2" x2="1831.3" y2="316.3"/>
				<line class="st1" x1="1589.4" y1="262.2" x2="1621.8" y2="345.1"/>
				<line class="st1" x1="1621.8" y1="345.1" x2="1701.3" y2="262.2"/>
				<line class="st1" x1="1760.8" y1="392.6" x2="1701.3" y2="262.2"/>
				<line class="st1" x1="1760.8" y1="392.6" x2="1621.8" y2="345.1"/>
				<line class="st1" x1="1831.3" y1="316.3" x2="1760.8" y2="392.6"/>
				<line class="st1" x1="1831.3" y1="316.3" x2="1919.7" y2="412.6"/>
				<line class="st1" x1="1831.3" y1="316.3" x2="1939.7" y2="276.3"/>
			</g>
			<g>
				<circle class="st3" cx="1589.4" cy="262.2" r="20"/>
				<circle class="st2" cx="1709" cy="162.5" r="20"/>
				<circle class="st2" cx="1811.3" cy="210.1" r="20"/>
				<circle class="st2" cx="1701.3" cy="262.2" r="20"/>
				<circle class="st2" cx="1621.8" cy="345.1" r="20"/>
				<circle class="st2" cx="1760.8" cy="392.6" r="20"/>
				<circle class="st2" cx="1831.3" cy="316.3" r="20"/>
				<circle class="st2" cx="1939.7" cy="276.3" r="20"/>
				<circle class="st2" cx="1919.7" cy="412.6" r="20"/>
			</g>
		</g>
		<g id="Network_5_">
			<g>
				<line class="st1" x1="1580.2" y1="585.1" x2="1699.8" y2="485.4"/>
				<line class="st1" x1="1692.1" y1="585.1" x2="1699.8" y2="485.4"/>
				<line class="st1" x1="1802.1" y1="533" x2="1699.8" y2="485.4"/>
				<line class="st1" x1="1692.1" y1="585.1" x2="1802.1" y2="533"/>
				<line class="st1" x1="1692.1" y1="585.1" x2="1580.2" y2="585.1"/>
				<line class="st1" x1="1802.1" y1="533" x2="1822.1" y2="639.3"/>
				<line class="st1" x1="1692.1" y1="585.1" x2="1822.1" y2="639.3"/>
				<line class="st1" x1="1580.2" y1="585.1" x2="1612.6" y2="668"/>
				<line class="st1" x1="1612.6" y1="668" x2="1692.1" y2="585.1"/>
				<line class="st1" x1="1751.6" y1="715.5" x2="1692.1" y2="585.1"/>
				<line class="st1" x1="1751.6" y1="715.5" x2="1612.6" y2="668"/>
				<line class="st1" x1="1822.1" y1="639.3" x2="1751.6" y2="715.5"/>
				<line class="st1" x1="1822.1" y1="639.3" x2="1910.5" y2="735.5"/>
				<line class="st1" x1="1822.1" y1="639.3" x2="1930.5" y2="599.3"/>
			</g>
			<g>
				<circle class="st2" cx="1580.2" cy="585.1" r="20"/>
				<circle class="st2" cx="1699.8" cy="485.4" r="20"/>
				<circle class="st2" cx="1802.1" cy="533" r="20"/>
				<circle class="st3" cx="1692.1" cy="585.1" r="20"/>
				<circle class="st2" cx="1612.6" cy="668" r="20"/>
				<circle class="st2" cx="1751.6" cy="715.5" r="20"/>
				<circle class="st2" cx="1822.1" cy="639.3" r="20"/>
				<circle class="st2" cx="1930.5" cy="599.3" r="20"/>
				<circle class="st2" cx="1910.5" cy="735.5" r="20"/>
			</g>
		</g>
		<g id="Network_4_">
			<g>
				<line class="st1" x1="1591.2" y1="1024.9" x2="1710.7" y2="925.2"/>
				<line class="st1" x1="1703" y1="1024.9" x2="1710.7" y2="925.2"/>
				<line class="st1" x1="1813.1" y1="972.8" x2="1710.7" y2="925.2"/>
				<line class="st1" x1="1703" y1="1024.9" x2="1813.1" y2="972.8"/>
				<line class="st1" x1="1703" y1="1024.9" x2="1591.2" y2="1024.9"/>
				<line class="st1" x1="1813.1" y1="972.8" x2="1833.1" y2="1079"/>
				<line class="st1" x1="1703" y1="1024.9" x2="1833.1" y2="1079"/>
				<line class="st1" x1="1591.2" y1="1024.9" x2="1623.5" y2="1107.7"/>
				<line class="st1" x1="1623.5" y1="1107.7" x2="1703" y2="1024.9"/>
				<line class="st1" x1="1762.5" y1="1155.2" x2="1703" y2="1024.9"/>
				<line class="st1" x1="1762.5" y1="1155.2" x2="1623.5" y2="1107.7"/>
				<line class="st1" x1="1833.1" y1="1079" x2="1762.5" y2="1155.2"/>
				<line class="st1" x1="1833.1" y1="1079" x2="1921.5" y2="1175.2"/>
				<line class="st1" x1="1833.1" y1="1079" x2="1941.5" y2="1039"/>
			</g>
			<g>
				<circle class="st2" cx="1591.2" cy="1024.9" r="20"/>
				<circle class="st2" cx="1710.7" cy="925.2" r="20"/>
				<circle class="st2" cx="1813.1" cy="972.8" r="20"/>
				<circle class="st2" cx="1703" cy="1024.9" r="20"/>
				<circle class="st2" cx="1623.5" cy="1107.7" r="20"/>
				<circle class="st2" cx="1762.5" cy="1155.2" r="20"/>
				<circle class="st2" cx="1833.1" cy="1079" r="20"/>
				<circle class="st2" cx="1941.5" cy="1039" r="20"/>
				<circle class="st3" cx="1921.5" cy="1175.2" r="20"/>
			</g>
		</g>
		<g>
			<path class="st4" d="M1744.2,849.2v-8.3h8.3v8.3H1744.2z"/>
			<path class="st4" d="M1755.9,849.2v-8.3h8.3v8.3H1755.9z"/>
			<path class="st4" d="M1767.7,849.2v-8.3h8.3v8.3H1767.7z"/>
		</g>
	</g>
</g>
<g>
	<g>
		<path class="st0" d="M3082.3,471.9c9.4,0,17,7.6,17,17v360c0,9.4-7.6,17-17,17h-460c-9.4,0-17-7.6-17-17v-360c0-9.4,7.6-17,17-17
			H3082.3 M3082.3,468.9h-460c-11,0-20,9-20,20v360c0,11,9,20,20,20h460c11,0,20-9,20-20v-360
			C3102.3,477.8,3093.4,468.9,3082.3,468.9L3082.3,468.9z"/>
	</g>
	<g id="Network_7_">
		<g>
			<line class="st1" x1="2677.2" y1="643.5" x2="2796.7" y2="543.8"/>
			<line class="st1" x1="2789" y1="643.5" x2="2796.7" y2="543.8"/>
			<line class="st1" x1="2899.1" y1="591.4" x2="2796.7" y2="543.8"/>
			<line class="st1" x1="2789" y1="643.5" x2="2899.1" y2="591.4"/>
			<line class="st1" x1="2789" y1="643.5" x2="2677.2" y2="643.5"/>
			<line class="st1" x1="2899.1" y1="591.4" x2="2919.1" y2="697.7"/>
			<line class="st1" x1="2789" y1="643.5" x2="2919.1" y2="697.7"/>
			<line class="st1" x1="2677.2" y1="643.5" x2="2709.5" y2="726.4"/>
			<line class="st1" x1="2709.5" y1="726.4" x2="2789" y2="643.5"/>
			<line class="st1" x1="2848.5" y1="773.9" x2="2789" y2="643.5"/>
			<line class="st1" x1="2848.5" y1="773.9" x2="2709.5" y2="726.4"/>
			<line class="st1" x1="2919.1" y1="697.7" x2="2848.5" y2="773.9"/>
			<line class="st1" x1="2919.1" y1="697.7" x2="3007.5" y2="793.9"/>
			<line class="st1" x1="2919.1" y1="697.7" x2="3027.5" y2="657.7"/>
		</g>
		<g>
			<circle class="st2" cx="2677.2" cy="643.5" r="20"/>
			<circle class="st2" cx="2796.7" cy="543.8" r="20"/>
			<circle class="st2" cx="2899.1" cy="591.4" r="20"/>
			<circle class="st2" cx="2789" cy="643.5" r="20"/>
			<circle class="st2" cx="2709.5" cy="726.4" r="20"/>
			<circle class="st2" cx="2848.5" cy="773.9" r="20"/>
			<circle class="st2" cx="2919.1" cy="697.7" r="20"/>
			<circle class="st2" cx="3027.5" cy="657.7" r="20"/>
			<circle class="st2" cx="3007.5" cy="793.9" r="20"/>
		</g>
	</g>
</g>
<g>
	<g>
		<line class="st5" x1="647.9" y1="668.9" x2="500" y2="668.9"/>
		<g>
			<path class="st0" d="M666,668.9c-8.5-3.2-19.1-8.6-25.6-14.3l5.2,14.3l-5.2,14.3C646.9,677.4,657.5,672,666,668.9z"/>
		</g>
	</g>
</g>
<g>
	<g>
		<line class="st5" x1="1245.2" y1="668.9" x2="1165.3" y2="668.9"/>
		<g>
			<path class="st0" d="M1263.3,668.9c-8.5-3.2-19.1-8.6-25.6-14.3l5.2,14.3l-5.2,14.3C1244.2,677.4,1254.7,672,1263.3,668.9z"/>
		</g>
	</g>
</g>
<g>
	<g>
		<line class="st5" x1="1492.7" y1="668.9" x2="1411.8" y2="668.9"/>
		<g>
			<path class="st0" d="M1510.8,668.9c-8.5-3.2-19.1-8.6-25.6-14.3l5.2,14.3l-5.2,14.3C1491.7,677.4,1502.3,672,1510.8,668.9z"/>
		</g>
	</g>
</g>
<g>
	<g>
		<path class="st0" d="M1410.6,596.9v144h-144v-144H1410.6 M1413.6,593.9h-150v150h150V593.9L1413.6,593.9z"/>
	</g>
	<polyline class="st1" points="1280.5,724.6 1352.6,693.9 1396.6,613.2 	"/>
</g>
<g>
	<g>
		<line class="st5" x1="2089.3" y1="668.9" x2="2009.5" y2="668.9"/>
		<g>
			<path class="st0" d="M2107.4,668.9c-8.5-3.2-19.1-8.6-25.6-14.3l5.2,14.3l-5.2,14.3C2088.3,677.4,2098.9,672,2107.4,668.9z"/>
		</g>
	</g>
</g>
<g>
	<g>
		<line class="st5" x1="2336.9" y1="668.9" x2="2256" y2="668.9"/>
		<g>
			<path class="st0" d="M2355,668.9c-8.5-3.2-19.1-8.6-25.6-14.3l5.2,14.3l-5.2,14.3C2335.9,677.4,2346.4,672,2355,668.9z"/>
		</g>
	</g>
</g>
<g>
	<g>
		<path class="st0" d="M2254.7,596.9v144h-144v-144H2254.7 M2257.7,593.9h-150v150h150V593.9L2257.7,593.9z"/>
	</g>
	<polyline class="st1" points="2124.7,724.6 2196.7,693.9 2240.8,613.2 	"/>
</g>
<g>
	<g>
		<line class="st5" x1="2584.2" y1="668.9" x2="2503.4" y2="668.9"/>
		<g>
			<path class="st0" d="M2602.4,668.9c-8.5-3.2-19.1-8.6-25.6-14.3l5.2,14.3l-5.2,14.3C2583.3,677.4,2593.8,672,2602.4,668.9z"/>
		</g>
	</g>
</g>
<g>
	<path class="st0" d="M2421.2,687.8v-8.3h8.3v8.3H2421.2z"/>
	<path class="st0" d="M2433,687.8v-8.3h8.3v8.3H2433z"/>
	<path class="st0" d="M2444.7,687.8v-8.3h8.3v8.3H2444.7z"/>
</g>
<g>
	<path class="st0" d="M1267.9,575.4v-51.8h17.4c5.4,0,9.5,2.1,12.2,6.4c1.5,2.3,2.2,4.7,2.2,7.2c0,3.1-0.7,5.8-2.2,8.4
		c-1.6,2.8-4.2,4.6-7.8,5.3l9.8,24.5h-5.5l-9.4-23.7h-11.7v23.7H1267.9z M1272.9,547.5h12.9c2.4,0,4.4-0.8,6.1-2.3
		c1.9-1.7,2.8-4.3,2.8-7.8c0-4.7-2.5-7.7-7.6-9c-1.5-0.4-3.1-0.6-4.9-0.6h-9.3V547.5z"/>
	<path class="st0" d="M1306.6,570.3c-1.1-1.7-2-3.5-2.5-5.6c-0.6-2.1-0.9-4.2-0.9-6.5s0.2-4.3,0.5-6.2c0.3-1.9,0.7-3.4,1.3-4.7
		c0.5-1.3,1.2-2.5,1.9-3.5c0.8-1,1.5-1.8,2.3-2.4c0.8-0.6,1.7-1.1,2.6-1.5c1.6-0.7,3.2-1,4.6-1c1.5,0,2.7,0.1,3.7,0.4
		c1,0.3,2.1,0.8,3.3,1.6c1.2,0.8,2.2,1.9,3,3.2c2,3.1,2.9,7.7,2.9,13.7h-21.7c0,6.1,1.5,10.2,4.6,12.4c1.5,1.1,3.2,1.6,5.1,1.6
		c3.5,0,6.5-2.2,9-6.5l3.1,2.2c-0.9,1.6-2.1,3.1-3.5,4.4c-2.7,2.5-5.4,3.8-8.1,3.8s-4.9-0.5-6.8-1.5
		C1309.2,573.3,1307.7,572,1306.6,570.3z M1307.9,554h17c0-3.4-0.8-6.2-2.4-8.4c-1.3-1.9-3.2-2.8-5.6-2.8c-4,0-6.7,1.8-8,5.5
		C1308.2,550,1307.9,551.9,1307.9,554z"/>
	<path class="st0" d="M1336.9,575.4v-51.8h5.1v46.9h23v4.9H1336.9z"/>
	<path class="st0" d="M1370.4,559.8v-36.2h5.1v36.2c0,3.1,0.8,5.7,2.3,7.8c1.9,2.7,4.9,4,8.9,4c6,0,9.6-2.7,10.7-8.1
		c0.3-1.3,0.4-2.5,0.4-3.7v-36.2h5.2v36.2c0,3.7-1,7.1-3,10c-2.7,4.1-7.1,6.1-13.2,6.1c-7.3,0-12.2-2.9-14.7-8.7
		C1370.9,564.8,1370.4,562.4,1370.4,559.8z"/>
</g>
<g>
	<path class="st0" d="M2113,575.4v-51.8h17.4c5.4,0,9.5,2.1,12.2,6.4c1.5,2.3,2.2,4.7,2.2,7.2c0,3.1-0.7,5.8-2.2,8.4
		c-1.6,2.8-4.2,4.6-7.8,5.3l9.8,24.5h-5.5l-9.4-23.7h-11.7v23.7H2113z M2118.1,547.5h12.9c2.4,0,4.4-0.8,6.1-2.3
		c1.9-1.7,2.8-4.3,2.8-7.8c0-4.7-2.5-7.7-7.6-9c-1.5-0.4-3.1-0.6-4.9-0.6h-9.3V547.5z"/>
	<path class="st0" d="M2151.8,570.3c-1.1-1.7-2-3.5-2.5-5.6c-0.6-2.1-0.9-4.2-0.9-6.5s0.2-4.3,0.5-6.2c0.3-1.9,0.7-3.4,1.3-4.7
		c0.5-1.3,1.2-2.5,1.9-3.5c0.8-1,1.5-1.8,2.3-2.4c0.8-0.6,1.7-1.1,2.6-1.5c1.6-0.7,3.2-1,4.6-1c1.5,0,2.7,0.1,3.7,0.4
		c1,0.3,2.1,0.8,3.3,1.6c1.2,0.8,2.2,1.9,3,3.2c2,3.1,2.9,7.7,2.9,13.7h-21.7c0,6.1,1.5,10.2,4.6,12.4c1.5,1.1,3.2,1.6,5.1,1.6
		c3.5,0,6.5-2.2,9-6.5l3.1,2.2c-0.9,1.6-2.1,3.1-3.5,4.4c-2.7,2.5-5.4,3.8-8.1,3.8s-4.9-0.5-6.8-1.5
		C2154.4,573.3,2152.9,572,2151.8,570.3z M2153.1,554h17c0-3.4-0.8-6.2-2.4-8.4c-1.3-1.9-3.2-2.8-5.6-2.8c-4,0-6.7,1.8-8,5.5
		C2153.4,550,2153.1,551.9,2153.1,554z"/>
	<path class="st0" d="M2182,575.4v-51.8h5.1v46.9h23v4.9H2182z"/>
	<path class="st0" d="M2215.5,559.8v-36.2h5.1v36.2c0,3.1,0.8,5.7,2.3,7.8c1.9,2.7,4.9,4,8.9,4c6,0,9.6-2.7,10.7-8.1
		c0.3-1.3,0.4-2.5,0.4-3.7v-36.2h5.2v36.2c0,3.7-1,7.1-3,10c-2.7,4.1-7.1,6.1-13.2,6.1c-7.3,0-12.2-2.9-14.7-8.7
		C2216,564.8,2215.5,562.4,2215.5,559.8z"/>
</g>
<g>
	<path class="st0" d="M44.2,962.7v-51.8h8.2v51.8H44.2z"/>
	<path class="st0" d="M86.3,935.6v27h-7.3v-25.1c0-1.6-0.5-2.9-1.5-3.9s-2.2-1.5-3.5-1.5s-2.7,0.4-4.1,1.2c-1.3,0.8-2.3,1.6-3,2.4
		v26.9h-7.3v-36.1h7.3v3.8c1.3-1.3,2.7-2.4,4.2-3.2c1.4-0.8,3.1-1.2,5.1-1.2c3,0,5.4,0.8,7.3,2.4C85.3,930,86.3,932.4,86.3,935.6z"
		/>
	<path class="st0" d="M100.9,929.3c1.7-2.2,4.3-3.3,7.6-3.3c5.7,0,9.9,2.7,12.5,8c1.5,3,2.2,6.3,2.2,10c0,8.7-2.1,14.4-6.4,17.1
		c-2.3,1.5-5.2,2.2-8.8,2.2c-1.7,0-3.2-0.3-4.5-1c-1.3-0.7-2.2-1.3-2.6-2v16.4h-7.3v-50.1h7.3V929.3z M100.9,953.6
		c2.3,2.3,4.7,3.5,7.4,3.5c2.8,0,4.8-1.2,6-3.6c1.1-2.1,1.6-5.2,1.6-9.4c0-4.6-0.8-7.8-2.3-9.6c-1.3-1.5-3.2-2.3-5.7-2.3
		c-2.6,0-4.8,1.2-6.6,3.5c-0.3,0.4-0.5,0.6-0.5,0.6V953.6z"/>
	<path class="st0" d="M128.7,953.7v-27h7.3v25.1c0,1.6,0.5,2.9,1.5,3.9s2.2,1.5,3.5,1.5c1.4,0,2.7-0.4,4.1-1.2
		c1.4-0.8,2.4-1.6,3-2.4v-26.9h7.3v36.1h-7.3v-3.8c-3,3-6,4.4-9.2,4.4c-2.9,0-5.3-0.8-7.1-2.3C129.8,959.4,128.7,957,128.7,953.7z"
		/>
	<path class="st0" d="M159.4,932.8v-6.2h5.4v-13.2h7.3v13.2h7.6v6.2h-7.6v19.3c0,1.9,0.3,3.3,1,4c0.7,0.7,1.9,1.1,3.5,1.1
		c0.7,0,1.3,0,2-0.1c0.7-0.1,1-0.1,1-0.2v5.2c-1.2,0.6-2.2,0.9-2.9,1.1c-0.7,0.2-1.5,0.2-2.5,0.2c-1,0-1.7,0-2.2,0
		c-0.5,0-1-0.1-1.7-0.2c-0.7-0.1-1.3-0.3-1.7-0.6c-0.5-0.2-1-0.6-1.5-1c-0.5-0.5-1-1-1.3-1.6c-0.8-1.5-1.1-3.3-1.1-5.7v-21.4H159.4z
		"/>
	<path class="st0" d="M181.5,934.9v-8.3h8.3v8.3H181.5z M181.5,962.7v-8.3h8.3v8.3H181.5z"/>
	<path class="st0" d="M213.4,962.7v-51.8h8.1l20.9,39.4v-39.4h5.1v51.8h-4.3l-24.6-46.8v46.8H213.4z"/>
	<path class="st0" d="M257.8,957.6c-1.1-1.7-2-3.5-2.5-5.6s-0.9-4.2-0.9-6.5s0.2-4.3,0.5-6.2c0.3-1.9,0.7-3.4,1.3-4.7
		s1.2-2.5,1.9-3.5c0.8-1,1.5-1.8,2.3-2.4s1.7-1.1,2.6-1.5c1.6-0.7,3.2-1,4.6-1s2.7,0.1,3.7,0.4c1,0.3,2.1,0.8,3.3,1.6
		c1.2,0.8,2.2,1.9,3,3.2c2,3.1,2.9,7.7,2.9,13.7h-21.7c0,6.1,1.5,10.2,4.6,12.4c1.5,1.1,3.2,1.6,5.1,1.6c3.5,0,6.5-2.2,9-6.5
		l3.1,2.2c-0.9,1.6-2.1,3.1-3.5,4.4c-2.7,2.5-5.4,3.8-8.1,3.8s-4.9-0.5-6.8-1.5C260.4,960.6,258.9,959.3,257.8,957.6z M259.1,941.3
		h17c0-3.4-0.8-6.2-2.4-8.4c-1.3-1.9-3.2-2.8-5.6-2.8c-4,0-6.7,1.8-8,5.5C259.4,937.3,259.1,939.2,259.1,941.3z"/>
	<path class="st0" d="M284.6,930.4v-3.8h6.1v-13.2h4.5v13.2h8.3v3.8h-8.3v22.9c0,2.3,0.4,3.9,1.1,4.7c0.7,0.8,1.9,1.3,3.5,1.3
		c0.7,0,1.4-0.1,2.4-0.2c0.9-0.1,1.4-0.2,1.4-0.2v3.4c-1.5,0.5-3,0.8-4.4,0.8c-1.4,0-2.4,0-2.9-0.1s-1.2-0.3-1.9-0.6
		s-1.4-0.9-1.8-1.5c-1.1-1.6-1.7-4.1-1.7-7.5v-22.9H284.6z"/>
	<path class="st0" d="M305,962.7v-2.9l19.1-29.3h-17.3v-3.8h23.1v2.5l-19.4,29.4h19.4v4.1H305z"/>
	<path class="st0" d="M331.6,926.6h4.2l7.9,27.2l7.1-27.2h4.1l7.7,27.3l7.6-27.3h4.6l-10.3,36.1h-4l-7.7-27.7l-6.9,27.7h-4.6
		L331.6,926.6z"/>
	<path class="st0" d="M381.7,957.6c-1.1-1.7-2-3.5-2.5-5.6s-0.9-4.2-0.9-6.5s0.2-4.3,0.5-6.2c0.3-1.9,0.7-3.4,1.3-4.7
		s1.2-2.5,1.9-3.5c0.8-1,1.5-1.8,2.3-2.4s1.7-1.1,2.6-1.5c1.6-0.7,3.2-1,4.6-1s2.7,0.1,3.7,0.4c1,0.3,2.1,0.8,3.3,1.6
		c1.2,0.8,2.2,1.9,3,3.2c2,3.1,2.9,7.7,2.9,13.7h-21.7c0,6.1,1.5,10.2,4.6,12.4c1.5,1.1,3.2,1.6,5.1,1.6c3.5,0,6.5-2.2,9-6.5
		l3.1,2.2c-0.9,1.6-2.1,3.1-3.5,4.4c-2.7,2.5-5.4,3.8-8.1,3.8s-4.9-0.5-6.8-1.5C384.3,960.6,382.8,959.3,381.7,957.6z M383,941.3h17
		c0-3.4-0.8-6.2-2.4-8.4c-1.3-1.9-3.2-2.8-5.6-2.8c-4,0-6.7,1.8-8,5.5C383.3,937.3,383,939.2,383,941.3z"/>
	<path class="st0" d="M411.4,962.7v-36.1h4.5v9.7c1.1-2.4,1.9-4,2.5-4.9c2.2-3.5,5.1-5.2,8.7-5.2c0.3,0,0.7,0,1.2,0.1v3.8
		c-1.5,0.2-2.8,0.5-3.9,0.9c-1,0.4-2,1-3,1.8c-1.7,1.4-3.5,4.2-5.5,8.4v21.4H411.4z"/>
	<path class="st0" d="M433.6,962.7v-51.8h4.5v33.6l13.8-17.8h5.4l-9.4,12.3l11.6,23.8h-5l-9.6-19.9l-6.7,8.3v11.6H433.6z"/>
</g>
<g>
	<path class="st0" d="M657.7,49.6c-1-2.3-1.7-4.7-2.1-7.2c-0.4-2.5-0.6-4.9-0.6-7.3c0-2.4,0.2-4.6,0.5-6.7c0.3-2.1,0.8-4.1,1.4-6
		c0.6-2,1.5-3.8,2.5-5.4c1.1-1.7,2.3-3.1,3.6-4.4c2.9-2.6,6.6-4,10.9-4c3.2,0,6.2,1,9.1,2.9c3.3,2.3,5.7,6.2,7.2,11.9l-5,1.2
		c0-0.2-0.1-0.4-0.1-0.7c0-0.3-0.2-0.8-0.4-1.7c-0.2-0.8-0.5-1.6-0.8-2.3c-0.3-0.7-0.7-1.6-1.4-2.5c-0.6-0.9-1.3-1.7-2-2.3
		c-1.7-1.5-3.9-2.3-6.6-2.3c-2.6,0-4.9,0.6-6.8,1.8c-1.9,1.2-3.3,2.9-4.3,5.1c-2,4.1-3,9.1-3,15c0,7,0.9,12.3,2.7,15.7
		c2.4,4.6,6.2,6.8,11.3,6.8c6.4,0,10.1-3.7,11.1-11.1c0.2-1.6,0.3-3.4,0.3-5.4H674v-4.2h16.5v24.4h-4.1v-6.6
		c-2.6,3.6-5.3,5.7-8.2,6.6c-1.3,0.4-3,0.5-5.1,0.5c-2.1,0-4.2-0.5-6.4-1.6c-2.2-1-4-2.4-5.4-4.2C659.9,54,658.7,51.9,657.7,49.6z"
		/>
	<path class="st0" d="M699,60.9V24.8h4.5v9.7c1.1-2.4,1.9-4,2.5-4.9c2.2-3.5,5.1-5.2,8.7-5.2c0.3,0,0.7,0,1.2,0.1v3.8
		c-1.5,0.2-2.8,0.5-3.9,0.9c-1,0.4-2,1-3,1.8c-1.7,1.4-3.5,4.2-5.5,8.4v21.4H699z"/>
	<path class="st0" d="M719.2,52.1c0-1.6,0.2-3.1,0.6-4.3c0.4-1.2,1.1-2.3,1.9-3.2c0.9-0.9,1.9-1.8,3-2.5c1.1-0.7,2.5-1.4,4.2-2
		c3-1.1,6.7-2,11.1-2.9c0-3.6-0.7-6-2.1-7.2c-1.2-1.1-3-1.6-5.4-1.6c-2.9,0-5.3,1.1-7.4,3.3c-0.9,0.9-1.5,1.7-1.8,2.4l-3.2-2.2
		c2.6-4.9,6.9-7.3,13-7.3c5.5,0,9,2.1,10.5,6.3c0.6,1.7,0.9,3.8,0.9,6.2v18.8c0,0.7,0.1,1.6,0.4,2.7c0.3,1.1,0.5,1.9,0.7,2.4H741
		c-0.7-0.3-1-2.3-1-5.7c-3.2,4.1-6.8,6.2-10.6,6.2c-4.3,0-7.3-1.5-8.9-4.5C719.6,55.3,719.2,53.7,719.2,52.1z M724.5,48.2
		c-0.6,1-0.9,2.4-0.9,4.1c0,1.7,0.6,3,1.8,3.9c1.2,0.9,2.5,1.4,3.9,1.4c1.4,0,2.7-0.2,3.8-0.6c1.1-0.4,2.1-1,3-1.7
		c1.7-1.3,2.9-2.4,3.7-3.3V41c-4.3,1.1-6.9,1.8-7.7,2.1C728.3,44.3,725.7,46.1,724.5,48.2z"/>
	<path class="st0" d="M752.8,74.9V24.8h4.5v5.6c0.5-1,1.4-2.1,2.7-3.1c2.4-1.9,4.8-2.9,7.4-2.9c4.8,0,8.4,2.6,10.9,7.9
		c1.4,3,2.2,6.3,2.2,9.9c0,6.3-1.5,11.3-4.6,15c-2.2,2.7-5.2,4.1-8.9,4.1c-2.1,0-4.1-0.6-6.1-1.9c-2-1.3-3.2-2.4-3.6-3.3v18.8H752.8
		z M757.3,52.2c1,1.5,2.3,2.8,3.8,3.7c1.5,1,2.9,1.5,4.3,1.5c1.4,0,2.5-0.1,3.4-0.4c0.9-0.3,1.8-0.7,2.7-1.4
		c0.9-0.7,1.7-1.6,2.3-2.7c1.4-2.5,2.1-6,2.1-10.7c0-5.7-1.3-9.7-4-12c-1.4-1.3-3.2-1.9-5.3-1.9c-2.9,0-5.4,1.2-7.5,3.6
		c-0.5,0.6-1.2,1.4-1.9,2.4V52.2z"/>
	<path class="st0" d="M787.5,60.9V9.1h4.5v21.6c3.4-3.2,6.1-5.1,8.3-5.8c1.1-0.3,2.3-0.5,3.5-0.5c2.6,0,4.8,0.8,6.5,2.4
		c1.7,1.6,2.5,4,2.5,7.2v26.9h-4.5V34c0-1.7-0.6-3.1-1.8-4.2c-1.2-1.1-2.5-1.6-3.9-1.6c-3.4,0-6.9,2-10.5,5.9v26.7H787.5z"/>
	<path class="st0" d="M836.6,43.1c0-12.4,4.8-18.7,14.5-18.7c2.4,0,4.4,0.6,6,1.7c1.6,1.1,2.7,2.2,3.2,3.1c0.9,1.5,1.5,2.8,1.9,3.9
		l-3.6,1.6c0-0.5-0.3-1.1-0.7-2s-0.9-1.6-1.4-2.2c-0.5-0.6-1.2-1.1-2.2-1.6c-0.9-0.5-2-0.7-3.2-0.7c-6.7,0-10,4.8-10,14.5
		c0,4.7,0.9,8.3,2.6,10.8c1.8,2.5,4.2,3.8,7.4,3.8c2.2,0,4-0.8,5.4-2.5c1.3-1.4,2.1-2.7,2.5-3.8l0.3-0.8l3.6,1.7
		c-0.8,2.2-2.1,4.2-3.9,6c-0.8,0.8-1.9,1.5-3.3,2.2c-1.4,0.7-2.9,1-4.5,1c-5,0-8.6-1.6-11-4.8C837.8,53.3,836.6,48.9,836.6,43.1z"/>
	<path class="st0" d="M868.3,42.6c0-5.5,1.2-9.9,3.7-13.2c2.5-3.3,5.9-5,10.4-5s7.9,1.7,10.3,5c2.4,3.3,3.7,7.8,3.7,13.3
		c0,5.6-1.2,10-3.7,13.4c-2.5,3.4-5.9,5.1-10.3,5.1c-4.5,0-8-1.8-10.5-5.3C869.5,52.6,868.3,48.1,868.3,42.6z M872.8,42.8
		c0,7.2,1.9,11.8,5.6,13.7c1.1,0.6,2.4,0.9,3.9,0.9c1.5,0,2.8-0.3,3.9-0.9c1.2-0.6,2.1-1.4,2.8-2.3c0.7-0.9,1.2-2.1,1.7-3.4
		c0.8-2.3,1.1-5,1.1-8c0-9.7-3.2-14.6-9.5-14.6S872.8,33.1,872.8,42.8z"/>
	<path class="st0" d="M903,60.9V24.8h4.5v5.9c2-2,3.9-3.5,5.7-4.6s3.9-1.7,6.4-1.7c2.4,0,4.5,0.8,6.2,2.4c1.7,1.6,2.5,4,2.5,7.2
		v26.9h-4.5V34c0-1.7-0.6-3.1-1.8-4.2c-1.2-1.1-2.5-1.6-3.9-1.6c-3.4,0-6.9,2-10.5,5.9v26.7H903z"/>
	<path class="st0" d="M933,24.8h4.7l9.5,31.1h0.7l9.5-31.1h4.7L951,60.9H944L933,24.8z"/>
	<path class="st0" d="M965.5,42.6c0-5.5,1.2-9.9,3.7-13.2c2.5-3.3,5.9-5,10.4-5s7.9,1.7,10.3,5c2.4,3.3,3.7,7.8,3.7,13.3
		c0,5.6-1.2,10-3.7,13.4c-2.5,3.4-5.9,5.1-10.3,5.1c-4.5,0-8-1.8-10.5-5.3C966.7,52.6,965.5,48.1,965.5,42.6z M970,42.8
		c0,7.2,1.9,11.8,5.6,13.7c1.1,0.6,2.4,0.9,3.9,0.9c1.5,0,2.8-0.3,3.9-0.9c1.2-0.6,2.1-1.4,2.8-2.3c0.7-0.9,1.2-2.1,1.7-3.4
		c0.8-2.3,1.1-5,1.1-8c0-9.7-3.2-14.6-9.5-14.6S970,33.1,970,42.8z"/>
	<path class="st0" d="M1000.5,61V9.1h4.5V61H1000.5z"/>
	<path class="st0" d="M1014.8,51.7V24.8h4.5v26.9c0,1.7,0.6,3.1,1.8,4.2c1.2,1.1,2.5,1.6,3.9,1.6c3.4,0,6.9-2,10.5-5.9V24.8h4.5
		v36.1h-4.5v-5.9c-3.2,3.2-6,5.1-8.3,5.8c-1.1,0.3-2.3,0.5-3.5,0.5c-2.6,0-4.8-0.8-6.5-2.4C1015.6,57.3,1014.8,54.9,1014.8,51.7z"/>
	<path class="st0" d="M1045.1,28.7v-3.8h6.1V11.7h4.5v13.2h8.3v3.8h-8.3v22.9c0,2.3,0.4,3.9,1.1,4.7c0.7,0.8,1.9,1.3,3.5,1.3
		c0.7,0,1.4-0.1,2.4-0.2c0.9-0.1,1.4-0.2,1.4-0.2v3.4c-1.5,0.5-3,0.8-4.4,0.8c-1.4,0-2.4,0-2.9-0.1c-0.5-0.1-1.2-0.3-1.9-0.6
		s-1.4-0.9-1.8-1.5c-1.1-1.6-1.7-4.1-1.7-7.5V28.7H1045.1z"/>
	<path class="st0" d="M1068.6,20.3v-5.1h5.1v5.1H1068.6z M1069,60.9V24.8h4.5v36.1H1069z"/>
	<path class="st0" d="M1081.4,42.6c0-5.5,1.2-9.9,3.7-13.2c2.5-3.3,5.9-5,10.4-5s7.9,1.7,10.3,5c2.4,3.3,3.7,7.8,3.7,13.3
		c0,5.6-1.2,10-3.7,13.4c-2.5,3.4-5.9,5.1-10.3,5.1c-4.5,0-8-1.8-10.5-5.3C1082.6,52.6,1081.4,48.1,1081.4,42.6z M1085.9,42.8
		c0,7.2,1.9,11.8,5.6,13.7c1.1,0.6,2.4,0.9,3.9,0.9c1.5,0,2.8-0.3,3.9-0.9c1.2-0.6,2.1-1.4,2.8-2.3c0.7-0.9,1.2-2.1,1.7-3.4
		c0.8-2.3,1.1-5,1.1-8c0-9.7-3.2-14.6-9.5-14.6S1085.9,33.1,1085.9,42.8z"/>
	<path class="st0" d="M1116.1,60.9V24.8h4.5v5.9c2-2,3.9-3.5,5.7-4.6c1.8-1.1,3.9-1.7,6.4-1.7c2.4,0,4.5,0.8,6.2,2.4
		c1.7,1.6,2.5,4,2.5,7.2v26.9h-4.5V34c0-1.7-0.6-3.1-1.8-4.2c-1.2-1.1-2.5-1.6-3.9-1.6c-3.4,0-6.9,2-10.5,5.9v26.7H1116.1z"/>
	<path class="st0" d="M1147.9,54.1l3.4-2.2c1.2,1.9,2.6,3.3,4,4.2c1.5,0.9,3.3,1.4,5.4,1.4c2.2,0,4-0.6,5.4-1.8
		c1.2-1,1.7-2.2,1.7-3.7c0-1.5-0.3-2.6-0.8-3.5c-0.5-0.9-1.2-1.6-2.1-2.1c-1.5-0.9-3.1-1.5-4.8-1.9c-1.7-0.4-3-0.8-3.9-1.1
		c-0.9-0.3-1.9-0.8-2.9-1.4c-1-0.6-1.9-1.2-2.6-1.9c-1.7-1.6-2.5-3.8-2.5-6.4c0-2.7,1.1-4.9,3.2-6.6c2.1-1.7,4.8-2.6,8.2-2.6
		c3.9,0,7.2,1.4,9.9,4.2c0.5,0.5,0.9,1,1.3,1.5l-3.1,2.3c-0.2-0.2-0.5-0.5-1-1c-0.5-0.5-0.8-0.8-0.9-1l-0.9-0.7
		c-0.4-0.4-0.8-0.6-1-0.7l-1.2-0.4c-0.7-0.3-2-0.4-3.7-0.4c-1.7,0-3.2,0.5-4.5,1.5c-1.3,1-1.9,2.1-1.9,3.3c0,1.2,0.2,2.1,0.6,2.9
		c0.4,0.7,1,1.3,1.8,1.9c1.3,0.8,2.8,1.5,4.6,2c1.7,0.5,2.9,0.9,3.4,1.1c0.6,0.2,1.3,0.5,2.3,0.8c0.9,0.4,1.7,0.7,2.2,1.1
		s1.1,0.8,1.8,1.4s1.2,1.1,1.6,1.8c0.9,1.5,1.3,3.2,1.3,5.1c0,3-1.2,5.5-3.5,7.5c-2.3,1.9-5,2.9-8,2.9c-3,0-5.6-0.6-7.6-1.7
		S1149.5,56.6,1147.9,54.1z"/>
</g>
<g>
	<path class="st0" d="M1501.2,49.6c-1-2.3-1.7-4.7-2.1-7.2c-0.4-2.5-0.6-4.9-0.6-7.3c0-2.4,0.2-4.6,0.5-6.7c0.3-2.1,0.8-4.1,1.4-6
		c0.6-2,1.5-3.8,2.5-5.4c1.1-1.7,2.3-3.1,3.6-4.4c2.9-2.6,6.6-4,10.9-4c3.2,0,6.2,1,9.1,2.9c3.3,2.3,5.7,6.2,7.2,11.9l-5,1.2
		c0-0.2-0.1-0.4-0.1-0.7c0-0.3-0.2-0.8-0.4-1.7c-0.2-0.8-0.5-1.6-0.8-2.3s-0.7-1.6-1.3-2.5c-0.6-0.9-1.3-1.7-2-2.3
		c-1.7-1.5-3.9-2.3-6.6-2.3s-4.9,0.6-6.8,1.8s-3.3,2.9-4.3,5.1c-2,4.1-3,9.1-3,15c0,7,0.9,12.3,2.7,15.7c2.4,4.6,6.2,6.8,11.3,6.8
		c6.4,0,10.1-3.7,11.1-11.1c0.2-1.6,0.3-3.4,0.3-5.4h-11.5v-4.2h16.5v24.4h-4.1v-6.6c-2.6,3.6-5.3,5.7-8.2,6.6
		c-1.3,0.4-3,0.5-5.1,0.5s-4.2-0.5-6.4-1.6c-2.2-1-4-2.4-5.4-4.2C1503.4,54,1502.2,51.9,1501.2,49.6z"/>
	<path class="st0" d="M1542.5,60.9V24.8h4.5v9.7c1.1-2.4,1.9-4,2.5-4.9c2.2-3.5,5.1-5.2,8.7-5.2c0.3,0,0.7,0,1.2,0.1v3.8
		c-1.5,0.2-2.8,0.5-3.9,0.9c-1,0.4-2,1-3,1.8c-1.7,1.4-3.5,4.2-5.5,8.4v21.4H1542.5z"/>
	<path class="st0" d="M1562.7,52.1c0-1.6,0.2-3.1,0.6-4.3c0.4-1.2,1.1-2.3,1.9-3.2c0.9-0.9,1.9-1.8,3-2.5c1.1-0.7,2.5-1.4,4.2-2
		c3-1.1,6.7-2,11.1-2.9c0-3.6-0.7-6-2.1-7.2c-1.2-1.1-3-1.6-5.4-1.6c-2.9,0-5.3,1.1-7.4,3.3c-0.9,0.9-1.5,1.7-1.8,2.4l-3.2-2.2
		c2.6-4.9,6.9-7.3,13-7.3c5.5,0,9,2.1,10.5,6.3c0.6,1.7,0.9,3.8,0.9,6.2v18.8c0,0.7,0.1,1.6,0.4,2.7c0.3,1.1,0.5,1.9,0.7,2.4h-4.5
		c-0.7-0.3-1-2.3-1-5.7c-3.2,4.1-6.8,6.2-10.6,6.2c-4.3,0-7.3-1.5-8.9-4.5C1563.1,55.3,1562.7,53.7,1562.7,52.1z M1568,48.2
		c-0.6,1-0.9,2.4-0.9,4.1c0,1.7,0.6,3,1.8,3.9c1.2,0.9,2.5,1.4,3.9,1.4c1.4,0,2.7-0.2,3.8-0.6c1.1-0.4,2.1-1,3-1.7
		c1.7-1.3,2.9-2.4,3.7-3.3V41c-4.3,1.1-6.9,1.8-7.7,2.1C1571.8,44.3,1569.2,46.1,1568,48.2z"/>
	<path class="st0" d="M1596.3,74.9V24.8h4.5v5.6c0.5-1,1.4-2.1,2.7-3.1c2.4-1.9,4.8-2.9,7.4-2.9c4.8,0,8.4,2.6,10.9,7.9
		c1.4,3,2.2,6.3,2.2,9.9c0,6.3-1.5,11.3-4.6,15c-2.2,2.7-5.2,4.1-8.9,4.1c-2.1,0-4.1-0.6-6.1-1.9c-2-1.3-3.2-2.4-3.6-3.3v18.8
		H1596.3z M1600.9,52.2c1,1.5,2.3,2.8,3.8,3.7c1.5,1,2.9,1.5,4.3,1.5c1.4,0,2.5-0.1,3.4-0.4c0.9-0.3,1.8-0.7,2.7-1.4
		c0.9-0.7,1.7-1.6,2.3-2.7c1.4-2.5,2.1-6,2.1-10.7c0-5.7-1.3-9.7-4-12c-1.4-1.3-3.2-1.9-5.3-1.9c-2.9,0-5.4,1.2-7.5,3.6
		c-0.5,0.6-1.2,1.4-1.9,2.4V52.2z"/>
	<path class="st0" d="M1631,60.9V9.1h4.5v21.6c3.4-3.2,6.1-5.1,8.3-5.8c1.1-0.3,2.3-0.5,3.5-0.5c2.6,0,4.8,0.8,6.5,2.4
		c1.7,1.6,2.5,4,2.5,7.2v26.9h-4.5V34c0-1.7-0.6-3.1-1.8-4.2c-1.2-1.1-2.5-1.6-3.9-1.6c-3.4,0-6.9,2-10.5,5.9v26.7H1631z"/>
	<path class="st0" d="M1680.1,43.1c0-12.4,4.8-18.7,14.5-18.7c2.4,0,4.4,0.6,6,1.7c1.6,1.1,2.7,2.2,3.2,3.1c0.9,1.5,1.5,2.8,1.9,3.9
		l-3.6,1.6c0-0.5-0.3-1.1-0.7-2s-0.9-1.6-1.4-2.2c-0.5-0.6-1.2-1.1-2.2-1.6c-0.9-0.5-2-0.7-3.2-0.7c-6.7,0-10,4.8-10,14.5
		c0,4.7,0.9,8.3,2.6,10.8c1.8,2.5,4.2,3.8,7.4,3.8c2.2,0,4-0.8,5.4-2.5c1.3-1.4,2.1-2.7,2.5-3.8l0.3-0.8l3.6,1.7
		c-0.8,2.2-2.1,4.2-3.9,6c-0.8,0.8-1.9,1.5-3.3,2.2s-2.9,1-4.5,1c-5,0-8.6-1.6-11-4.8C1681.3,53.3,1680.1,48.9,1680.1,43.1z"/>
	<path class="st0" d="M1711.8,42.6c0-5.5,1.2-9.9,3.7-13.2c2.5-3.3,5.9-5,10.4-5s7.9,1.7,10.3,5c2.4,3.3,3.7,7.8,3.7,13.3
		c0,5.6-1.2,10-3.7,13.4c-2.5,3.4-5.9,5.1-10.3,5.1c-4.5,0-8-1.8-10.5-5.3C1713,52.6,1711.8,48.1,1711.8,42.6z M1716.3,42.8
		c0,7.2,1.9,11.8,5.6,13.7c1.1,0.6,2.4,0.9,3.9,0.9s2.8-0.3,3.9-0.9c1.2-0.6,2.1-1.4,2.8-2.3c0.7-0.9,1.2-2.1,1.7-3.4
		c0.8-2.3,1.1-5,1.1-8c0-9.7-3.2-14.6-9.5-14.6S1716.3,33.1,1716.3,42.8z"/>
	<path class="st0" d="M1746.6,60.9V24.8h4.5v5.9c2-2,3.9-3.5,5.7-4.6s3.9-1.7,6.4-1.7s4.5,0.8,6.2,2.4c1.7,1.6,2.5,4,2.5,7.2v26.9
		h-4.5V34c0-1.7-0.6-3.1-1.8-4.2c-1.2-1.1-2.5-1.6-3.9-1.6c-3.4,0-6.9,2-10.5,5.9v26.7H1746.6z"/>
	<path class="st0" d="M1776.5,24.8h4.7l9.5,31.1h0.6l9.5-31.1h4.7l-11.1,36.1h-6.9L1776.5,24.8z"/>
	<path class="st0" d="M1809,42.6c0-5.5,1.2-9.9,3.7-13.2c2.5-3.3,5.9-5,10.4-5s7.9,1.7,10.3,5c2.4,3.3,3.7,7.8,3.7,13.3
		c0,5.6-1.2,10-3.7,13.4c-2.5,3.4-5.9,5.1-10.3,5.1c-4.5,0-8-1.8-10.5-5.3C1810.2,52.6,1809,48.1,1809,42.6z M1813.5,42.8
		c0,7.2,1.9,11.8,5.6,13.7c1.1,0.6,2.4,0.9,3.9,0.9s2.8-0.3,3.9-0.9c1.2-0.6,2.1-1.4,2.8-2.3c0.7-0.9,1.2-2.1,1.7-3.4
		c0.8-2.3,1.1-5,1.1-8c0-9.7-3.2-14.6-9.5-14.6S1813.5,33.1,1813.5,42.8z"/>
	<path class="st0" d="M1844,61V9.1h4.5V61H1844z"/>
	<path class="st0" d="M1858.3,51.7V24.8h4.5v26.9c0,1.7,0.6,3.1,1.8,4.2c1.2,1.1,2.5,1.6,3.9,1.6c3.4,0,6.9-2,10.5-5.9V24.8h4.5
		v36.1h-4.5v-5.9c-3.2,3.2-6,5.1-8.3,5.8c-1.1,0.3-2.3,0.5-3.5,0.5c-2.6,0-4.8-0.8-6.5-2.4C1859.1,57.3,1858.3,54.9,1858.3,51.7z"/>
	<path class="st0" d="M1888.6,28.7v-3.8h6.1V11.7h4.5v13.2h8.3v3.8h-8.3v22.9c0,2.3,0.4,3.9,1.1,4.7c0.7,0.8,1.9,1.3,3.5,1.3
		c0.7,0,1.4-0.1,2.4-0.2c0.9-0.1,1.4-0.2,1.4-0.2v3.4c-1.5,0.5-3,0.8-4.4,0.8c-1.4,0-2.4,0-2.9-0.1s-1.2-0.3-1.9-0.6
		s-1.4-0.9-1.8-1.5c-1.1-1.6-1.7-4.1-1.7-7.5V28.7H1888.6z"/>
	<path class="st0" d="M1912.2,20.3v-5.1h5.1v5.1H1912.2z M1912.5,60.9V24.8h4.5v36.1H1912.5z"/>
	<path class="st0" d="M1924.9,42.6c0-5.5,1.2-9.9,3.7-13.2c2.5-3.3,5.9-5,10.4-5s7.9,1.7,10.3,5c2.4,3.3,3.7,7.8,3.7,13.3
		c0,5.6-1.2,10-3.7,13.4c-2.5,3.4-5.9,5.1-10.3,5.1c-4.5,0-8-1.8-10.5-5.3C1926.1,52.6,1924.9,48.1,1924.9,42.6z M1929.4,42.8
		c0,7.2,1.9,11.8,5.6,13.7c1.1,0.6,2.4,0.9,3.9,0.9s2.8-0.3,3.9-0.9c1.2-0.6,2.1-1.4,2.8-2.3c0.7-0.9,1.2-2.1,1.7-3.4
		c0.8-2.3,1.1-5,1.1-8c0-9.7-3.2-14.6-9.5-14.6S1929.4,33.1,1929.4,42.8z"/>
	<path class="st0" d="M1959.6,60.9V24.8h4.5v5.9c2-2,3.9-3.5,5.7-4.6s3.9-1.7,6.4-1.7s4.5,0.8,6.2,2.4c1.7,1.6,2.5,4,2.5,7.2v26.9
		h-4.5V34c0-1.7-0.6-3.1-1.8-4.2c-1.2-1.1-2.5-1.6-3.9-1.6c-3.4,0-6.9,2-10.5,5.9v26.7H1959.6z"/>
	<path class="st0" d="M1991.4,54.1l3.4-2.2c1.2,1.9,2.6,3.3,4,4.2c1.5,0.9,3.3,1.4,5.4,1.4c2.2,0,4-0.6,5.4-1.8
		c1.2-1,1.7-2.2,1.7-3.7c0-1.5-0.3-2.6-0.8-3.5c-0.5-0.9-1.2-1.6-2.1-2.1c-1.5-0.9-3.1-1.5-4.8-1.9c-1.7-0.4-3-0.8-3.9-1.1
		c-0.9-0.3-1.9-0.8-2.9-1.4c-1-0.6-1.9-1.2-2.6-1.9c-1.7-1.6-2.5-3.8-2.5-6.4c0-2.7,1.1-4.9,3.2-6.6c2.1-1.7,4.8-2.6,8.2-2.6
		c3.9,0,7.2,1.4,9.9,4.2c0.5,0.5,0.9,1,1.3,1.5l-3.1,2.3c-0.2-0.2-0.5-0.5-1-1c-0.5-0.5-0.8-0.8-0.9-1l-0.9-0.7
		c-0.4-0.4-0.8-0.6-1-0.7l-1.2-0.4c-0.7-0.3-2-0.4-3.7-0.4s-3.2,0.5-4.5,1.5c-1.3,1-1.9,2.1-1.9,3.3c0,1.2,0.2,2.1,0.6,2.9
		c0.4,0.7,1,1.3,1.8,1.9c1.3,0.8,2.8,1.5,4.6,2c1.7,0.5,2.9,0.9,3.4,1.1c0.6,0.2,1.3,0.5,2.3,0.8c0.9,0.4,1.7,0.7,2.2,1.1
		c0.5,0.3,1.1,0.8,1.8,1.4s1.2,1.1,1.6,1.8c0.9,1.5,1.3,3.2,1.3,5.1c0,3-1.2,5.5-3.5,7.5c-2.3,1.9-5,2.9-8,2.9s-5.6-0.6-7.6-1.7
		C1994.8,58.4,1993,56.6,1991.4,54.1z"/>
</g>
<g>
	<path class="st0" d="M2393.9,962.7v-51.8h17.7c6.4,0,10.9,1.8,13.5,5.5c1.5,2.1,2.2,4.8,2.2,7.8c0,5.5-1.7,9.7-5,12.7
		c-2.4,2.2-5.7,3.2-9.6,3.2H2402v22.5H2393.9z M2419.1,924.6c0-4.5-3.8-6.8-11.4-6.8h-5.6v15.6h5.6c3.5,0,6.3-0.8,8.3-2.3
		S2419.1,927.4,2419.1,924.6z"/>
	<path class="st0" d="M2432.4,962.7v-36.1h7.3v5c0.1-0.1,0.3-0.4,0.6-0.9l0.8-1.2c1.7-2.3,4.5-3.5,8.3-3.5c0.4,0,0.8,0,1.2,0.1v6.1
		c-4.1,0.1-7.1,1.2-9,3.5c-0.8,1-1.5,2.3-2.1,3.9v23.1H2432.4z"/>
	<path class="st0" d="M2453.9,955.7c-0.7-1.6-1.2-3.2-1.5-4.8s-0.4-3.7-0.4-6.3c0-2.5,0.3-5,0.9-7.3c0.6-2.4,1.4-4.3,2.3-5.7
		c0.9-1.4,2.1-2.5,3.4-3.4c2.3-1.5,4.9-2.2,8-2.2c2.9,0,5.4,0.9,7.5,2.6c4,3.2,5.9,9.2,5.7,18h-20.5c0,4.6,1.2,7.7,3.7,9.3
		c1.3,0.8,2.6,1.2,3.9,1.2s2.5-0.2,3.4-0.5c0.9-0.3,1.6-0.7,2.2-1.2c0.5-0.4,1-0.9,1.5-1.5c0.6-0.8,1-1.5,1.3-2.1l4.6,3
		c-1.7,2.9-3.5,5-5.4,6.3c-2.1,1.4-4.4,2.1-7,2.1s-4.7-0.3-6.5-1s-3.2-1.5-4.4-2.6S2454.6,957.2,2453.9,955.7z M2459.6,940.4h12.6
		c0-1.8-0.3-3.3-0.9-4.6c-1.2-2.4-2.8-3.6-4.9-3.6c-1.3,0-2.4,0.3-3.3,0.8s-1.7,1.3-2.1,2.2C2460.1,936.9,2459.6,938.6,2459.6,940.4
		z"/>
	<path class="st0" d="M2513.6,957.8c0,1.6,0.3,3.2,1,4.9h-7.7c-0.1-0.1-0.1-0.3-0.2-0.5l-0.3-2.2c-1.7,2.2-4.3,3.3-7.6,3.3
		c-5.7,0-9.9-2.7-12.5-8c-1.5-3-2.2-6.3-2.2-10c0-8.7,2.1-14.4,6.4-17.1c2.3-1.5,5.2-2.2,8.8-2.2c1.8,0,3.3,0.3,4.6,1
		c1.3,0.7,2.1,1.4,2.5,2v-18.1h7.3V957.8z M2506.2,935.7c-2.3-2.3-4.7-3.5-7.4-3.5c-2.8,0-4.8,1.2-6,3.6c-1.1,2.1-1.6,5.2-1.6,9.4
		c0,4.6,0.8,7.8,2.3,9.6c1.3,1.5,3.2,2.3,5.7,2.3c2.6,0,4.8-1.2,6.6-3.5c0.3-0.4,0.5-0.6,0.5-0.6V935.7z"/>
	<path class="st0" d="M2519,923.5v-8.3h8.3v8.3H2519z M2519.5,962.7v-36.1h7.3v36.1H2519.5z"/>
	<path class="st0" d="M2532.7,944.9c0-7.2,1.6-12.2,4.7-15.3c2.5-2.4,5.9-3.6,10.3-3.6s7.9,1.9,10.4,5.6c0.8,1.2,1.4,2.3,1.7,3.4
		l-6.2,2.7c-0.2-1.9-0.9-3.3-2.3-4.4c-0.9-0.7-2-1.1-3.4-1.1c-5.3,0-8,4.1-8,12.4c0,4.1,0.7,7.2,2.1,9.3c1.4,2.1,3.4,3.2,6.1,3.2
		c1.9,0,3.4-0.7,4.5-2.1c1-1.2,1.7-2.4,2.2-3.8l5.6,2.5c-0.5,2-1.6,4-3.3,5.8c-2.4,2.5-5.5,3.8-9.2,3.8
		C2537.8,963.3,2532.7,957.2,2532.7,944.9z"/>
	<path class="st0" d="M2563.3,932.8v-6.2h5.4v-13.2h7.3v13.2h7.6v6.2h-7.6v19.3c0,1.9,0.3,3.3,1,4c0.7,0.7,1.9,1.1,3.5,1.1
		c0.7,0,1.3,0,2-0.1c0.7-0.1,1-0.1,1-0.2v5.2c-1.2,0.6-2.2,0.9-2.9,1.1c-0.7,0.2-1.5,0.2-2.5,0.2s-1.7,0-2.2,0c-0.5,0-1-0.1-1.7-0.2
		s-1.3-0.3-1.7-0.6c-0.5-0.2-1-0.6-1.5-1c-0.5-0.5-1-1-1.3-1.6c-0.8-1.5-1.1-3.3-1.1-5.7v-21.4H2563.3z"/>
	<path class="st0" d="M2586.8,923.5v-8.3h8.3v8.3H2586.8z M2587.4,962.7v-36.1h7.3v36.1H2587.4z"/>
	<path class="st0" d="M2600.6,944.6c0-5.7,1.3-10.2,3.9-13.6s6.2-5,10.9-5c3.1,0,5.7,0.8,7.9,2.3c4.5,3.2,6.8,8.6,6.8,16.3
		c0,9.6-3,15.6-9,17.7c-1.7,0.6-3.6,0.9-5.7,0.9s-4-0.3-5.7-0.9c-1.7-0.6-3.1-1.5-4.2-2.6c-1.1-1.1-2.1-2.4-2.8-4
		C2601.3,952.8,2600.6,949.1,2600.6,944.6z M2608.1,940.5c-0.1,1.2-0.2,2.5-0.2,3.9c0,1.4,0.1,2.6,0.2,3.8c0.1,1.1,0.4,2.2,0.7,3.3
		c0.4,1.1,0.8,2.1,1.4,2.9c1.2,1.8,3,2.7,5.2,2.7c4.9,0,7.4-4.2,7.4-12.5c0-4.9-0.7-8.3-2.2-10.2c-1.2-1.5-2.9-2.3-5.2-2.3
		C2611.2,932.2,2608.7,935,2608.1,940.5z"/>
	<path class="st0" d="M2662.6,935.6v27h-7.3v-25.1c0-1.6-0.5-2.9-1.5-3.9s-2.2-1.5-3.5-1.5s-2.7,0.4-4.1,1.2c-1.3,0.8-2.3,1.6-3,2.4
		v26.9h-7.3v-36.1h7.3v3.8c1.3-1.3,2.7-2.4,4.2-3.2s3.1-1.2,5.1-1.2c3,0,5.4,0.8,7.3,2.4C2661.7,930,2662.6,932.4,2662.6,935.6z"/>
	<path class="st0" d="M2668.2,955.4l5.1-3.1c0.8,1.1,1.5,2.1,2.2,2.7c1.6,1.6,3.7,2.4,6.1,2.4c2,0,3.4-0.4,4.2-1.2
		c0.8-0.8,1.2-1.9,1.2-3.4c0-1.7-0.6-3-1.7-3.9c-1-0.8-2-1.3-3-1.5l-3.2-0.9c-3.7-1-6.4-2.5-8-4.2c-1.7-1.8-2.5-4.2-2.5-7.1
		c0-2.5,1-4.6,3.1-6.4c2.2-1.8,5.3-2.7,9.4-2.7c3.7,0,6.8,1.3,9.5,3.8c1.1,1.1,1.9,2,2.2,2.7l-4.2,3.3c-1.6-1.9-3.2-3.1-4.8-3.6
		c-0.8-0.2-1.9-0.4-3.2-0.4s-2.5,0.3-3.4,1s-1.4,1.7-1.4,3c0,1.5,0.7,2.7,2,3.6c1.2,0.8,2.4,1.3,3.6,1.7l3.1,0.9
		c4.8,1.4,7.8,3.7,9,6.9c0.5,1.3,0.7,2.9,0.7,4.7c0,1.8-0.6,3.5-1.7,5s-2.6,2.7-4.5,3.5s-3.7,1.2-5.6,1.2s-3.4-0.1-4.6-0.3
		c-1.2-0.2-2.4-0.6-3.5-1.2C2671.9,960.6,2669.9,958.5,2668.2,955.4z"/>
	<path class="st0" d="M2698,934.9v-8.3h8.3v8.3H2698z M2698,962.7v-8.3h8.3v8.3H2698z"/>
	<path class="st0" d="M2730.2,962.7v-51.8h5.1v28.2l21.1-28.2h5.4l-14.8,19.4l16.7,32.3h-5.7l-14.3-28.1l-8.5,11.2v16.9H2730.2z"/>
	<path class="st0" d="M2768.6,962.7v-36.1h4.5v5.9c2-2,3.9-3.5,5.7-4.6c1.8-1.1,3.9-1.7,6.4-1.7c2.4,0,4.5,0.8,6.2,2.4
		c1.7,1.6,2.5,4,2.5,7.2v26.9h-4.5v-26.9c0-1.7-0.6-3.1-1.8-4.2c-1.2-1.1-2.5-1.6-3.9-1.6c-3.4,0-6.9,2-10.5,5.9v26.7H2768.6z"/>
	<path class="st0" d="M2800.2,944.4c0-5.5,1.2-9.9,3.7-13.2c2.5-3.3,5.9-5,10.4-5s7.9,1.7,10.3,5c2.4,3.3,3.7,7.8,3.7,13.3
		c0,5.6-1.2,10-3.7,13.4c-2.5,3.4-5.9,5.1-10.3,5.1c-4.5,0-8-1.8-10.5-5.3C2801.4,954.4,2800.2,949.9,2800.2,944.4z M2804.7,944.6
		c0,7.2,1.9,11.8,5.6,13.7c1.1,0.6,2.4,0.9,3.9,0.9c1.5,0,2.8-0.3,3.9-0.9c1.2-0.6,2.1-1.4,2.8-2.3c0.7-0.9,1.2-2.1,1.7-3.4
		c0.8-2.3,1.1-5,1.1-8c0-9.7-3.2-14.6-9.5-14.6S2804.7,934.9,2804.7,944.6z"/>
	<path class="st0" d="M2832.1,930.4v-3.8h6.1v-13.2h4.5v13.2h8.3v3.8h-8.3v22.9c0,2.3,0.4,3.9,1.1,4.7c0.7,0.8,1.9,1.3,3.5,1.3
		c0.7,0,1.4-0.1,2.4-0.2c0.9-0.1,1.4-0.2,1.4-0.2v3.4c-1.5,0.5-3,0.8-4.4,0.8s-2.4,0-2.9-0.1c-0.5-0.1-1.2-0.3-1.9-0.6
		s-1.4-0.9-1.8-1.5c-1.1-1.6-1.7-4.1-1.7-7.5v-22.9H2832.1z"/>
	<path class="st0" d="M2857.6,957.6c-1.1-1.7-2-3.5-2.5-5.6s-0.9-4.2-0.9-6.5s0.2-4.3,0.5-6.2c0.3-1.9,0.7-3.4,1.3-4.7
		c0.5-1.3,1.2-2.5,1.9-3.5c0.8-1,1.5-1.8,2.3-2.4c0.8-0.6,1.7-1.1,2.6-1.5c1.6-0.7,3.2-1,4.6-1c1.5,0,2.7,0.1,3.7,0.4
		c1,0.3,2.1,0.8,3.3,1.6s2.2,1.9,3,3.2c2,3.1,2.9,7.7,2.9,13.7h-21.7c0,6.1,1.5,10.2,4.6,12.4c1.5,1.1,3.2,1.6,5.1,1.6
		c3.5,0,6.5-2.2,9-6.5l3.1,2.2c-0.9,1.6-2.1,3.1-3.5,4.4c-2.7,2.5-5.4,3.8-8.1,3.8s-4.9-0.5-6.8-1.5
		C2860.2,960.6,2858.7,959.3,2857.6,957.6z M2858.9,941.3h17c0-3.4-0.8-6.2-2.4-8.4c-1.3-1.9-3.2-2.8-5.6-2.8c-4,0-6.7,1.8-8,5.5
		C2859.2,937.3,2858.9,939.2,2858.9,941.3z"/>
	<path class="st0" d="M2887.3,962.7v-36.1h4.5v5.9c2-2,3.9-3.5,5.7-4.6c1.8-1.1,3.9-1.7,6.4-1.7c2.4,0,4.5,0.8,6.2,2.4
		c1.7,1.6,2.5,4,2.5,7.2v26.9h-4.5v-26.9c0-1.7-0.6-3.1-1.8-4.2c-1.2-1.1-2.5-1.6-3.9-1.6c-3.4,0-6.9,2-10.5,5.9v26.7H2887.3z"/>
	<path class="st0" d="M2925,957c0,3.5-0.3,5.4-0.9,5.7h-4.5c0.6-1.3,0.9-2.9,0.9-5v-46.8h4.5v20.4c0.4-0.9,1.6-2,3.4-3.2
		c1.8-1.2,3.8-1.8,5.9-1.8c4.1,0,7.4,1.8,9.8,5.3c2.5,3.5,3.7,8.1,3.7,13.7c0,3.3-0.6,6.5-1.9,9.5c-1.5,3.4-3.5,5.8-6.2,7.2
		c-1.5,0.8-3,1.1-4.6,1.1s-2.9-0.2-4.1-0.7s-2.1-1-2.9-1.8C2926.7,959.4,2925.7,958.2,2925,957z M2925,953.2c2.3,3.2,4.3,5,6.1,5.6
		c0.9,0.3,2,0.4,3.3,0.4c1.3,0,2.6-0.4,3.8-1.1c1.2-0.7,2.2-1.7,2.9-3c1.4-2.6,2.2-5.9,2.2-9.9c0-10.1-3.4-15.2-10.2-15.2
		c-3,0-5.7,1.7-8.1,5.2V953.2z"/>
	<path class="st0" d="M2956.3,957.6c-1.1-1.7-2-3.5-2.5-5.6s-0.9-4.2-0.9-6.5s0.2-4.3,0.5-6.2c0.3-1.9,0.7-3.4,1.3-4.7
		c0.5-1.3,1.2-2.5,1.9-3.5c0.8-1,1.5-1.8,2.3-2.4c0.8-0.6,1.7-1.1,2.6-1.5c1.6-0.7,3.2-1,4.6-1c1.5,0,2.7,0.1,3.7,0.4
		c1,0.3,2.1,0.8,3.3,1.6s2.2,1.9,3,3.2c2,3.1,2.9,7.7,2.9,13.7h-21.7c0,6.1,1.5,10.2,4.6,12.4c1.5,1.1,3.2,1.6,5.1,1.6
		c3.5,0,6.5-2.2,9-6.5l3.1,2.2c-0.9,1.6-2.1,3.1-3.5,4.4c-2.7,2.5-5.4,3.8-8.1,3.8s-4.9-0.5-6.8-1.5
		C2958.9,960.6,2957.4,959.3,2956.3,957.6z M2957.6,941.3h17c0-3.4-0.8-6.2-2.4-8.4c-1.3-1.9-3.2-2.8-5.6-2.8c-4,0-6.7,1.8-8,5.5
		C2957.9,937.3,2957.6,939.2,2957.6,941.3z"/>
	<path class="st0" d="M2984.7,955.8l3.4-2.2c1.2,1.9,2.6,3.3,4,4.2c1.5,0.9,3.3,1.4,5.4,1.4c2.2,0,4-0.6,5.4-1.8
		c1.2-1,1.7-2.2,1.7-3.7c0-1.5-0.3-2.6-0.8-3.5c-0.5-0.9-1.2-1.6-2.1-2.1c-1.5-0.9-3.1-1.5-4.8-1.9s-3-0.8-3.9-1.1s-1.9-0.8-2.9-1.4
		c-1-0.6-1.9-1.2-2.6-1.9c-1.7-1.6-2.5-3.8-2.5-6.4c0-2.7,1.1-4.9,3.2-6.6c2.1-1.7,4.8-2.6,8.2-2.6c3.9,0,7.2,1.4,9.9,4.2
		c0.5,0.5,0.9,1,1.3,1.5l-3.1,2.3c-0.2-0.2-0.5-0.5-1-1c-0.5-0.5-0.8-0.8-0.9-1l-0.9-0.7c-0.4-0.4-0.8-0.6-1-0.7l-1.2-0.4
		c-0.7-0.3-2-0.4-3.7-0.4c-1.7,0-3.2,0.5-4.5,1.5c-1.3,1-1.9,2.1-1.9,3.3c0,1.2,0.2,2.1,0.6,2.9c0.4,0.7,1,1.3,1.8,1.9
		c1.3,0.8,2.8,1.5,4.6,2c1.7,0.5,2.9,0.9,3.4,1.1c0.6,0.2,1.3,0.5,2.3,0.8c0.9,0.4,1.7,0.7,2.2,1.1s1.1,0.8,1.8,1.4s1.2,1.1,1.6,1.8
		c0.9,1.5,1.3,3.2,1.3,5.1c0,3-1.2,5.5-3.5,7.5c-2.3,1.9-5,2.9-8,2.9c-3,0-5.6-0.6-7.6-1.7S2986.3,958.3,2984.7,955.8z"/>
	<path class="st0" d="M3014.5,944.9c0-12.4,4.8-18.7,14.5-18.7c2.4,0,4.4,0.6,6,1.7c1.6,1.1,2.7,2.2,3.2,3.1
		c0.9,1.5,1.5,2.8,1.9,3.9l-3.6,1.6c0-0.5-0.3-1.1-0.7-2s-0.9-1.6-1.4-2.2c-0.5-0.6-1.2-1.1-2.2-1.6s-2-0.7-3.2-0.7
		c-6.7,0-10,4.8-10,14.5c0,4.7,0.9,8.3,2.6,10.8s4.2,3.8,7.4,3.8c2.2,0,4-0.8,5.4-2.5c1.3-1.4,2.1-2.7,2.5-3.8l0.3-0.8l3.6,1.7
		c-0.8,2.2-2.1,4.2-3.9,6c-0.8,0.8-1.9,1.5-3.3,2.2c-1.4,0.7-2.9,1-4.5,1c-5,0-8.6-1.6-11-4.8
		C3015.7,955.1,3014.5,950.6,3014.5,944.9z"/>
	<path class="st0" d="M3048,962.7v-51.8h4.5v21.6c3.4-3.2,6.1-5.1,8.3-5.8c1.1-0.3,2.3-0.5,3.5-0.5c2.6,0,4.8,0.8,6.5,2.4
		c1.7,1.6,2.5,4,2.5,7.2v26.9h-4.5v-26.9c0-1.7-0.6-3.1-1.8-4.2c-1.2-1.1-2.5-1.6-3.9-1.6c-3.4,0-6.9,2-10.5,5.9v26.7H3048z"/>
	<path class="st0" d="M3081.2,962.7v-36.1h4.5v9.7c1.1-2.4,1.9-4,2.5-4.9c2.2-3.5,5.1-5.2,8.7-5.2c0.3,0,0.7,0,1.2,0.1v3.8
		c-1.5,0.2-2.8,0.5-3.9,0.9c-1,0.4-2,1-3,1.8c-1.7,1.4-3.5,4.2-5.5,8.4v21.4H3081.2z"/>
	<path class="st0" d="M3103,922.1v-5.1h5.1v5.1H3103z M3103.3,962.7v-36.1h4.5v36.1H3103.3z"/>
	<path class="st0" d="M3132.2,910.9v3.8h-3c-3.4,0-5.1,1.4-5.1,4.3v7.6h8.2v3.8h-8.2v32.2h-4.5v-32.2h-5.9v-3.8h5.9V919
		c0-3.7,1.6-6.2,4.8-7.5c1.5-0.6,3.1-0.9,4.9-0.9S3132,910.7,3132.2,910.9z"/>
	<path class="st0" d="M3133.9,930.4v-3.8h6.1v-13.2h4.5v13.2h8.3v3.8h-8.3v22.9c0,2.3,0.4,3.9,1.1,4.7c0.7,0.8,1.9,1.3,3.5,1.3
		c0.7,0,1.4-0.1,2.4-0.2c0.9-0.1,1.4-0.2,1.4-0.2v3.4c-1.5,0.5-3,0.8-4.4,0.8s-2.4,0-2.9-0.1c-0.5-0.1-1.2-0.3-1.9-0.6
		s-1.4-0.9-1.8-1.5c-1.1-1.6-1.7-4.1-1.7-7.5v-22.9H3133.9z"/>
	<path class="st0" d="M3157.8,953.5v-26.9h4.5v26.9c0,1.7,0.6,3.1,1.8,4.2c1.2,1.1,2.5,1.6,3.9,1.6c3.4,0,6.9-2,10.5-5.9v-26.7h4.5
		v36.1h-4.5v-5.9c-3.2,3.2-6,5.1-8.3,5.8c-1.1,0.3-2.3,0.5-3.5,0.5c-2.6,0-4.8-0.8-6.5-2.4C3158.6,959.1,3157.8,956.7,3157.8,953.5z
		"/>
	<path class="st0" d="M3190.9,962.7v-36.1h4.5v5.9c2-2,3.9-3.5,5.7-4.6c1.8-1.1,3.9-1.7,6.4-1.7c2.4,0,4.5,0.8,6.2,2.4
		c1.7,1.6,2.5,4,2.5,7.2v26.9h-4.5v-26.9c0-1.7-0.6-3.1-1.8-4.2c-1.2-1.1-2.5-1.6-3.9-1.6c-3.4,0-6.9,2-10.5,5.9v26.7H3190.9z"/>
	<path class="st0" d="M3222.8,972.8c-0.9-1.3-1.4-2.5-1.4-3.7s0.2-2.2,0.5-2.9s0.9-1.3,1.6-1.8c0.7-0.5,1.3-1,1.8-1.3
		c0.5-0.3,1.2-0.7,2.1-1.2c0.9-0.4,1.4-0.7,1.6-0.8c-1.9-0.4-3.3-1.1-4.2-2.1c-1-1-1.4-1.9-1.4-2.7s0.2-1.5,0.5-2.2
		c0.3-0.7,0.8-1.3,1.4-1.8c1-0.9,1.8-1.5,2.5-1.9c0.7-0.4,1-0.6,1.1-0.7c-1.4-1.2-2.6-2.7-3.6-4.6c-1-1.9-1.6-3.9-1.6-6.2
		s0.6-4.4,1.9-6.3c1.2-2,2.9-3.5,5-4.6c2.1-1.1,4.1-1.7,6.1-1.7c2,0,3.5,0.2,4.7,0.7c1.2,0.5,2.5,1.2,3.8,2.1
		c1.7-1.4,3.1-2.2,4.2-2.4c1.4-0.3,2.7-0.5,3.9-0.5v4.1h-0.1c-3.9,0-5.8,0.4-5.8,1.1c1.2,2.1,1.9,3.7,2.2,4.7c0.3,1,0.4,2,0.4,3.1
		c0,3.7-1.2,6.8-3.5,9.3c-2.4,2.5-5.4,3.8-9.2,3.8c-2,0-4-0.4-6.1-1.3c-0.2,0.2-0.6,0.5-1.2,0.9c-1.4,1-2.1,1.9-2.1,2.9
		c0,1,0.5,1.8,1.4,2.2c0.7,0.3,1.6,0.5,2.7,0.7c1.1,0.2,1.8,0.3,2.3,0.3c0.4,0.1,1.2,0.1,2.2,0.1c2.6,0,5.6,0.5,9.1,1.3
		c2.2,0.5,4,1.6,5.4,3.1c1.4,1.6,2.1,3.5,2.1,5.6c0,6.5-5.5,9.8-16.4,9.8c-3.9,0-7.3-0.7-10.3-2.1
		C3224.9,975.1,3223.7,974.1,3222.8,972.8z M3225.9,968.5c0,2.2,1.2,3.7,3.6,4.5c2.1,0.7,4,1.1,5.8,1.1c1.8,0,3,0,3.6,0
		c0.6,0,1.4-0.1,2.3-0.1c0.9-0.1,1.7-0.2,2.3-0.3c0.6-0.1,1.2-0.4,1.9-0.7c0.7-0.3,1.3-0.6,1.7-1.1c1-1,1.4-2.1,1.4-3.5
		s-0.5-2.5-1.4-3.3c-0.9-0.8-2.1-1.4-3.5-1.7c-1.4-0.3-2.8-0.6-4.2-0.7c-1.4-0.1-2.7-0.3-3.9-0.3c-1.2-0.1-2-0.1-2.2-0.2
		c-2.4,0.9-4,1.6-4.8,2C3226.9,965.2,3225.9,966.7,3225.9,968.5z M3230.7,932.6c-1.7,1.7-2.5,3.9-2.5,6.5s0.8,4.9,2.4,6.6
		c1.6,1.8,3.8,2.6,6.5,2.6c2.7,0,4.8-0.9,6.3-2.7c1.4-1.8,2.1-4,2.1-6.6c0-2.6-0.7-4.7-2.1-6.5c-1.4-1.7-3.4-2.6-6.1-2.6
		S3232.4,930.9,3230.7,932.6z"/>
	<path class="st0" d="M3260.3,957.6c-1.1-1.7-2-3.5-2.5-5.6c-0.6-2.1-0.9-4.2-0.9-6.5s0.2-4.3,0.5-6.2c0.3-1.9,0.7-3.4,1.3-4.7
		c0.5-1.3,1.2-2.5,1.9-3.5c0.8-1,1.5-1.8,2.3-2.4c0.8-0.6,1.7-1.1,2.6-1.5c1.6-0.7,3.2-1,4.6-1c1.5,0,2.7,0.1,3.7,0.4
		c1,0.3,2.1,0.8,3.3,1.6c1.2,0.8,2.2,1.9,3,3.2c2,3.1,2.9,7.7,2.9,13.7h-21.7c0,6.1,1.5,10.2,4.6,12.4c1.5,1.1,3.2,1.6,5.1,1.6
		c3.5,0,6.5-2.2,9-6.5l3.1,2.2c-0.9,1.6-2.1,3.1-3.5,4.4c-2.7,2.5-5.4,3.8-8.1,3.8s-4.9-0.5-6.8-1.5
		C3262.9,960.6,3261.4,959.3,3260.3,957.6z M3261.6,941.3h17c0-3.4-0.8-6.2-2.4-8.4c-1.3-1.9-3.2-2.8-5.6-2.8c-4,0-6.7,1.8-8,5.5
		C3261.9,937.3,3261.6,939.2,3261.6,941.3z"/>
	<path class="st0" d="M3290.1,962.7v-36.1h4.5v5.9c2-2,3.9-3.5,5.7-4.6c1.8-1.1,3.9-1.7,6.4-1.7c2.4,0,4.5,0.8,6.2,2.4
		c1.7,1.6,2.5,4,2.5,7.2v26.9h-4.5v-26.9c0-1.7-0.6-3.1-1.8-4.2c-1.2-1.1-2.5-1.6-3.9-1.6c-3.4,0-6.9,2-10.5,5.9v26.7H3290.1z"/>
	<path class="st0" d="M3321.5,971.2l3-8.5h-2.2v-5.1h5.1v5.1c-0.6,1.3-1.5,3-2.6,5.2c-1.1,2.2-1.7,3.3-1.8,3.3H3321.5z"/>
	<path class="st0" d="M2393.8,1046.7v-36.1h4.5v5.9c2-2,3.9-3.5,5.7-4.6c1.8-1.1,3.9-1.7,6.4-1.7c2.4,0,4.5,0.8,6.2,2.4
		c1.7,1.6,2.5,4,2.5,7.2v26.9h-4.5v-26.9c0-1.7-0.6-3.1-1.8-4.2c-1.2-1.1-2.5-1.6-3.9-1.6c-3.4,0-6.9,2-10.5,5.9v26.7H2393.8z"/>
	<path class="st0" d="M2428.8,1041.6c-1.1-1.7-2-3.5-2.5-5.6s-0.9-4.2-0.9-6.5s0.2-4.3,0.5-6.2c0.3-1.9,0.7-3.4,1.3-4.7
		c0.5-1.3,1.2-2.5,1.9-3.5c0.8-1,1.5-1.8,2.3-2.4c0.8-0.6,1.7-1.1,2.6-1.5c1.6-0.7,3.2-1,4.6-1c1.5,0,2.7,0.1,3.7,0.4
		c1,0.3,2.1,0.8,3.3,1.6s2.2,1.9,3,3.2c2,3.1,2.9,7.7,2.9,13.7h-21.7c0,6.1,1.5,10.2,4.6,12.4c1.5,1.1,3.2,1.6,5.1,1.6
		c3.5,0,6.5-2.2,9-6.5l3.1,2.2c-0.9,1.6-2.1,3.1-3.5,4.4c-2.7,2.5-5.4,3.8-8.1,3.8s-4.9-0.5-6.8-1.5
		C2431.4,1044.6,2429.9,1043.3,2428.8,1041.6z M2430.1,1025.3h17c0-3.4-0.8-6.2-2.4-8.4c-1.3-1.9-3.2-2.8-5.6-2.8
		c-4,0-6.7,1.8-8,5.5C2430.4,1021.3,2430.1,1023.2,2430.1,1025.3z"/>
	<path class="st0" d="M2458.8,1037.5v-26.9h4.5v26.9c0,1.7,0.6,3.1,1.8,4.2c1.2,1.1,2.5,1.6,3.9,1.6c3.4,0,6.9-2,10.5-5.9v-26.7h4.5
		v36.1h-4.5v-5.9c-3.2,3.2-6,5.1-8.3,5.8c-1.1,0.3-2.3,0.5-3.5,0.5c-2.6,0-4.8-0.8-6.5-2.4
		C2459.7,1043.1,2458.8,1040.7,2458.8,1037.5z"/>
	<path class="st0" d="M2493.9,1041.6c-1.1-1.7-2-3.5-2.5-5.6s-0.9-4.2-0.9-6.5s0.2-4.3,0.5-6.2c0.3-1.9,0.7-3.4,1.3-4.7
		c0.5-1.3,1.2-2.5,1.9-3.5c0.8-1,1.5-1.8,2.3-2.4c0.8-0.6,1.7-1.1,2.6-1.5c1.6-0.7,3.2-1,4.6-1c1.5,0,2.7,0.1,3.7,0.4
		c1,0.3,2.1,0.8,3.3,1.6s2.2,1.9,3,3.2c2,3.1,2.9,7.7,2.9,13.7H2495c0,6.1,1.5,10.2,4.6,12.4c1.5,1.1,3.2,1.6,5.1,1.6
		c3.5,0,6.5-2.2,9-6.5l3.1,2.2c-0.9,1.6-2.1,3.1-3.5,4.4c-2.7,2.5-5.4,3.8-8.1,3.8s-4.9-0.5-6.8-1.5
		C2496.5,1044.6,2495,1043.3,2493.9,1041.6z M2495.2,1025.3h17c0-3.4-0.8-6.2-2.4-8.4c-1.3-1.9-3.2-2.8-5.6-2.8c-4,0-6.7,1.8-8,5.5
		C2495.5,1021.3,2495.2,1023.2,2495.2,1025.3z"/>
	<path class="st0" d="M2537.9,994.9h5.3l12.7,42.9l12.7-42.9h5.3l-15.4,51.8h-5.3L2537.9,994.9z"/>
	<path class="st0" d="M2580.7,1041.6c-1.1-1.7-2-3.5-2.5-5.6s-0.9-4.2-0.9-6.5s0.2-4.3,0.5-6.2c0.3-1.9,0.7-3.4,1.3-4.7
		c0.5-1.3,1.2-2.5,1.9-3.5c0.8-1,1.5-1.8,2.3-2.4c0.8-0.6,1.7-1.1,2.6-1.5c1.6-0.7,3.2-1,4.6-1c1.5,0,2.7,0.1,3.7,0.4
		c1,0.3,2.1,0.8,3.3,1.6s2.2,1.9,3,3.2c2,3.1,2.9,7.7,2.9,13.7h-21.7c0,6.1,1.5,10.2,4.6,12.4c1.5,1.1,3.2,1.6,5.1,1.6
		c3.5,0,6.5-2.2,9-6.5l3.1,2.2c-0.9,1.6-2.1,3.1-3.5,4.4c-2.7,2.5-5.4,3.8-8.1,3.8s-4.9-0.5-6.8-1.5
		C2583.3,1044.6,2581.8,1043.3,2580.7,1041.6z M2582,1025.3h17c0-3.4-0.8-6.2-2.4-8.4c-1.3-1.9-3.2-2.8-5.6-2.8c-4,0-6.7,1.8-8,5.5
		C2582.3,1021.3,2582,1023.2,2582,1025.3z"/>
	<path class="st0" d="M2610.5,1046.7v-36.1h4.5v9.7c1.1-2.4,1.9-4,2.5-4.9c2.2-3.5,5.1-5.2,8.7-5.2c0.3,0,0.7,0,1.2,0.1v3.8
		c-1.5,0.2-2.8,0.5-3.9,0.9c-1,0.4-2,1-3,1.8c-1.7,1.4-3.5,4.2-5.5,8.4v21.4H2610.5z"/>
	<path class="st0" d="M2632.6,1046.7v-51.8h4.5v33.6l13.8-17.8h5.4l-9.4,12.3l11.6,23.8h-5l-9.6-19.9l-6.7,8.3v11.6H2632.6z"/>
	<path class="st0" d="M2663.4,1046.7v-36.1h4.5v5.9c2-2,3.9-3.5,5.7-4.6c1.8-1.1,3.9-1.7,6.4-1.7c2.4,0,4.5,0.8,6.2,2.4
		c1.7,1.6,2.5,4,2.5,7.2v26.9h-4.5v-26.9c0-1.7-0.6-3.1-1.8-4.2c-1.2-1.1-2.5-1.6-3.9-1.6c-3.4,0-6.9,2-10.5,5.9v26.7H2663.4z"/>
	<path class="st0" d="M2696.9,1037.5v-26.9h4.5v26.9c0,1.7,0.6,3.1,1.8,4.2c1.2,1.1,2.5,1.6,3.9,1.6c3.4,0,6.9-2,10.5-5.9v-26.7h4.5
		v36.1h-4.5v-5.9c-3.2,3.2-6,5.1-8.3,5.8c-1.1,0.3-2.3,0.5-3.5,0.5c-2.6,0-4.8-0.8-6.5-2.4
		C2697.7,1043.1,2696.9,1040.7,2696.9,1037.5z M2701.5,1006.1v-5.1h5.1v5.1H2701.5z M2712.4,1006.1v-5.1h5.1v5.1H2712.4z"/>
	<path class="st0" d="M2730.4,1060.7v-50.1h4.5v5.6c0.5-1,1.4-2.1,2.7-3.1c2.4-1.9,4.8-2.9,7.4-2.9c4.8,0,8.4,2.6,10.9,7.9
		c1.4,3,2.2,6.3,2.2,9.9c0,6.3-1.5,11.3-4.6,15c-2.2,2.7-5.2,4.1-8.9,4.1c-2.1,0-4.1-0.6-6.1-1.9c-2-1.3-3.2-2.4-3.6-3.3v18.8
		H2730.4z M2734.9,1038c1,1.5,2.3,2.8,3.8,3.7c1.5,1,2.9,1.5,4.3,1.5s2.5-0.1,3.4-0.4c0.9-0.3,1.8-0.7,2.7-1.4
		c0.9-0.7,1.7-1.6,2.3-2.7c1.4-2.5,2.1-6,2.1-10.7c0-5.7-1.3-9.7-4-12c-1.4-1.3-3.2-1.9-5.3-1.9c-2.9,0-5.4,1.2-7.5,3.6
		c-0.5,0.6-1.2,1.4-1.9,2.4V1038z"/>
	<path class="st0" d="M2779.7,994.9v3.8h-3c-3.4,0-5.1,1.4-5.1,4.3v7.6h8.2v3.8h-8.2v32.2h-4.5v-32.2h-5.9v-3.8h5.9v-7.6
		c0-3.7,1.6-6.2,4.8-7.5c1.5-0.6,3.1-0.9,4.9-0.9S2779.5,994.7,2779.7,994.9z"/>
	<path class="st0" d="M2784.5,1037.5v-26.9h4.5v26.9c0,1.7,0.6,3.1,1.8,4.2c1.2,1.1,2.5,1.6,3.9,1.6c3.4,0,6.9-2,10.5-5.9v-26.7h4.5
		v36.1h-4.5v-5.9c-3.2,3.2-6,5.1-8.3,5.8c-1.1,0.3-2.3,0.5-3.5,0.5c-2.6,0-4.8-0.8-6.5-2.4
		C2785.4,1043.1,2784.5,1040.7,2784.5,1037.5z"/>
	<path class="st0" d="M2817.7,1046.7v-36.1h4.5v5.9c2-2,3.9-3.5,5.7-4.6c1.8-1.1,3.9-1.7,6.4-1.7c2.4,0,4.5,0.8,6.2,2.4
		c1.7,1.6,2.5,4,2.5,7.2v26.9h-4.5v-26.9c0-1.7-0.6-3.1-1.8-4.2c-1.2-1.1-2.5-1.6-3.9-1.6c-3.4,0-6.9,2-10.5,5.9v26.7H2817.7z"/>
	<path class="st0" d="M2849.6,1056.8c-0.9-1.3-1.4-2.5-1.4-3.7s0.2-2.2,0.5-2.9s0.9-1.3,1.6-1.8s1.3-1,1.8-1.3s1.2-0.7,2.1-1.2
		c0.9-0.4,1.4-0.7,1.6-0.8c-1.9-0.4-3.3-1.1-4.2-2.1c-1-1-1.4-1.9-1.4-2.7s0.2-1.5,0.5-2.2c0.3-0.7,0.8-1.3,1.4-1.8
		c1-0.9,1.8-1.5,2.5-1.9c0.7-0.4,1-0.6,1.1-0.7c-1.4-1.2-2.6-2.7-3.6-4.6c-1-1.9-1.6-3.9-1.6-6.2s0.6-4.4,1.9-6.3s2.9-3.5,5-4.6
		c2.1-1.1,4.1-1.7,6.1-1.7c2,0,3.5,0.2,4.7,0.7s2.5,1.2,3.8,2.1c1.7-1.4,3.1-2.2,4.2-2.4c1.4-0.3,2.7-0.5,3.9-0.5v4.1h-0.1
		c-3.9,0-5.8,0.4-5.8,1.1c1.2,2.1,1.9,3.7,2.2,4.7c0.3,1,0.4,2,0.4,3.1c0,3.7-1.2,6.8-3.5,9.3c-2.4,2.5-5.4,3.8-9.2,3.8
		c-2,0-4-0.4-6.1-1.3c-0.2,0.2-0.6,0.5-1.2,0.9c-1.4,1-2.1,1.9-2.1,2.9c0,1,0.5,1.8,1.4,2.2c0.7,0.3,1.6,0.5,2.7,0.7
		c1.1,0.2,1.8,0.3,2.3,0.3s1.2,0.1,2.2,0.1c2.6,0,5.6,0.5,9.1,1.3c2.2,0.5,4,1.6,5.4,3.1s2.1,3.5,2.1,5.6c0,6.5-5.5,9.8-16.4,9.8
		c-3.9,0-7.3-0.7-10.3-2.1C2851.7,1059.1,2850.5,1058.1,2849.6,1056.8z M2852.7,1052.5c0,2.2,1.2,3.7,3.6,4.5c2.1,0.7,4,1.1,5.8,1.1
		s3,0,3.6,0c0.6,0,1.4-0.1,2.3-0.1c0.9-0.1,1.7-0.2,2.3-0.3c0.6-0.1,1.2-0.4,1.9-0.7c0.7-0.3,1.3-0.6,1.7-1.1c1-1,1.4-2.1,1.4-3.5
		s-0.5-2.5-1.4-3.3c-0.9-0.8-2.1-1.4-3.5-1.7s-2.8-0.6-4.2-0.7c-1.4-0.1-2.7-0.3-3.9-0.3c-1.2-0.1-2-0.1-2.2-0.2
		c-2.4,0.9-4,1.6-4.8,2C2853.6,1049.2,2852.7,1050.7,2852.7,1052.5z M2857.4,1016.6c-1.7,1.7-2.5,3.9-2.5,6.5s0.8,4.9,2.4,6.6
		c1.6,1.8,3.8,2.6,6.5,2.6s4.8-0.9,6.3-2.7c1.4-1.8,2.1-4,2.1-6.6c0-2.6-0.7-4.7-2.1-6.5c-1.4-1.7-3.4-2.6-6.1-2.6
		S2859.1,1014.9,2857.4,1016.6z"/>
	<path class="st0" d="M2887.1,1041.6c-1.1-1.7-2-3.5-2.5-5.6s-0.9-4.2-0.9-6.5s0.2-4.3,0.5-6.2c0.3-1.9,0.7-3.4,1.3-4.7
		c0.5-1.3,1.2-2.5,1.9-3.5c0.8-1,1.5-1.8,2.3-2.4c0.8-0.6,1.7-1.1,2.6-1.5c1.6-0.7,3.2-1,4.6-1c1.5,0,2.7,0.1,3.7,0.4
		c1,0.3,2.1,0.8,3.3,1.6s2.2,1.9,3,3.2c2,3.1,2.9,7.7,2.9,13.7h-21.7c0,6.1,1.5,10.2,4.6,12.4c1.5,1.1,3.2,1.6,5.1,1.6
		c3.5,0,6.5-2.2,9-6.5l3.1,2.2c-0.9,1.6-2.1,3.1-3.5,4.4c-2.7,2.5-5.4,3.8-8.1,3.8s-4.9-0.5-6.8-1.5
		C2889.7,1044.6,2888.2,1043.3,2887.1,1041.6z M2888.4,1025.3h17c0-3.4-0.8-6.2-2.4-8.4c-1.3-1.9-3.2-2.8-5.6-2.8
		c-4,0-6.7,1.8-8,5.5C2888.7,1021.3,2888.4,1023.2,2888.4,1025.3z"/>
	<path class="st0" d="M2916.8,1046.7v-36.1h4.5v5.9c2-2,3.9-3.5,5.7-4.6c1.8-1.1,3.9-1.7,6.4-1.7c2.4,0,4.5,0.8,6.2,2.4
		c1.7,1.6,2.5,4,2.5,7.2v26.9h-4.5v-26.9c0-1.7-0.6-3.1-1.8-4.2c-1.2-1.1-2.5-1.6-3.9-1.6c-3.4,0-6.9,2-10.5,5.9v26.7H2916.8z"/>
	<path class="st0" d="M2948.3,1055.2l3-8.5h-2.2v-5.1h5.1v5.1c-0.6,1.3-1.5,3-2.6,5.2c-1.1,2.2-1.7,3.3-1.8,3.3H2948.3z"/>
	<path class="st0" d="M2977.6,1056.8c-0.9-1.3-1.4-2.5-1.4-3.7s0.2-2.2,0.5-2.9s0.9-1.3,1.6-1.8s1.3-1,1.8-1.3s1.2-0.7,2.1-1.2
		c0.9-0.4,1.4-0.7,1.6-0.8c-1.9-0.4-3.3-1.1-4.2-2.1c-1-1-1.4-1.9-1.4-2.7s0.2-1.5,0.5-2.2c0.3-0.7,0.8-1.3,1.4-1.8
		c1-0.9,1.8-1.5,2.5-1.9c0.7-0.4,1-0.6,1.1-0.7c-1.4-1.2-2.6-2.7-3.6-4.6c-1-1.9-1.6-3.9-1.6-6.2s0.6-4.4,1.9-6.3s2.9-3.5,5-4.6
		c2.1-1.1,4.1-1.7,6.1-1.7c2,0,3.5,0.2,4.7,0.7s2.5,1.2,3.8,2.1c1.7-1.4,3.1-2.2,4.2-2.4c1.4-0.3,2.7-0.5,3.9-0.5v4.1h-0.1
		c-3.9,0-5.8,0.4-5.8,1.1c1.2,2.1,1.9,3.7,2.2,4.7c0.3,1,0.4,2,0.4,3.1c0,3.7-1.2,6.8-3.5,9.3c-2.4,2.5-5.4,3.8-9.2,3.8
		c-2,0-4-0.4-6.1-1.3c-0.2,0.2-0.6,0.5-1.2,0.9c-1.4,1-2.1,1.9-2.1,2.9c0,1,0.5,1.8,1.4,2.2c0.7,0.3,1.6,0.5,2.7,0.7
		c1.1,0.2,1.8,0.3,2.3,0.3s1.2,0.1,2.2,0.1c2.6,0,5.6,0.5,9.1,1.3c2.2,0.5,4,1.6,5.4,3.1s2.1,3.5,2.1,5.6c0,6.5-5.5,9.8-16.4,9.8
		c-3.9,0-7.3-0.7-10.3-2.1C2979.7,1059.1,2978.5,1058.1,2977.6,1056.8z M2980.7,1052.5c0,2.2,1.2,3.7,3.6,4.5c2.1,0.7,4,1.1,5.8,1.1
		s3,0,3.6,0c0.6,0,1.4-0.1,2.3-0.1c0.9-0.1,1.7-0.2,2.3-0.3c0.6-0.1,1.2-0.4,1.9-0.7c0.7-0.3,1.3-0.6,1.7-1.1c1-1,1.4-2.1,1.4-3.5
		s-0.5-2.5-1.4-3.3c-0.9-0.8-2.1-1.4-3.5-1.7s-2.8-0.6-4.2-0.7c-1.4-0.1-2.7-0.3-3.9-0.3c-1.2-0.1-2-0.1-2.2-0.2
		c-2.4,0.9-4,1.6-4.8,2C2981.7,1049.2,2980.7,1050.7,2980.7,1052.5z M2985.5,1016.6c-1.7,1.7-2.5,3.9-2.5,6.5s0.8,4.9,2.4,6.6
		c1.6,1.8,3.8,2.6,6.5,2.6s4.8-0.9,6.3-2.7c1.4-1.8,2.1-4,2.1-6.6c0-2.6-0.7-4.7-2.1-6.5c-1.4-1.7-3.4-2.6-6.1-2.6
		S2987.2,1014.9,2985.5,1016.6z"/>
	<path class="st0" d="M3015.1,1041.6c-1.1-1.7-2-3.5-2.5-5.6s-0.9-4.2-0.9-6.5s0.2-4.3,0.5-6.2c0.3-1.9,0.7-3.4,1.3-4.7
		c0.5-1.3,1.2-2.5,1.9-3.5c0.8-1,1.5-1.8,2.3-2.4c0.8-0.6,1.7-1.1,2.6-1.5c1.6-0.7,3.2-1,4.6-1c1.5,0,2.7,0.1,3.7,0.4
		c1,0.3,2.1,0.8,3.3,1.6s2.2,1.9,3,3.2c2,3.1,2.9,7.7,2.9,13.7h-21.7c0,6.1,1.5,10.2,4.6,12.4c1.5,1.1,3.2,1.6,5.1,1.6
		c3.5,0,6.5-2.2,9-6.5l3.1,2.2c-0.9,1.6-2.1,3.1-3.5,4.4c-2.7,2.5-5.4,3.8-8.1,3.8s-4.9-0.5-6.8-1.5
		C3017.7,1044.6,3016.2,1043.3,3015.1,1041.6z M3016.4,1025.3h17c0-3.4-0.8-6.2-2.4-8.4c-1.3-1.9-3.2-2.8-5.6-2.8
		c-4,0-6.7,1.8-8,5.5C3016.7,1021.3,3016.4,1023.2,3016.4,1025.3z"/>
	<path class="st0" d="M3044.8,1046.7v-36.1h4.5v5.9c2-2,3.9-3.5,5.7-4.6c1.8-1.1,3.9-1.7,6.4-1.7c2.4,0,4.5,0.8,6.2,2.4
		c1.7,1.6,2.5,4,2.5,7.2v26.9h-4.5v-26.9c0-1.7-0.6-3.1-1.8-4.2c-1.2-1.1-2.5-1.6-3.9-1.6c-3.4,0-6.9,2-10.5,5.9v26.7H3044.8z"/>
	<path class="st0" d="M3079.9,1041.6c-1.1-1.7-2-3.5-2.5-5.6s-0.9-4.2-0.9-6.5s0.2-4.3,0.5-6.2c0.3-1.9,0.7-3.4,1.3-4.7
		c0.5-1.3,1.2-2.5,1.9-3.5c0.8-1,1.5-1.8,2.3-2.4c0.8-0.6,1.7-1.1,2.6-1.5c1.6-0.7,3.2-1,4.6-1c1.5,0,2.7,0.1,3.7,0.4
		c1,0.3,2.1,0.8,3.3,1.6s2.2,1.9,3,3.2c2,3.1,2.9,7.7,2.9,13.7H3081c0,6.1,1.5,10.2,4.6,12.4c1.5,1.1,3.2,1.6,5.1,1.6
		c3.5,0,6.5-2.2,9-6.5l3.1,2.2c-0.9,1.6-2.1,3.1-3.5,4.4c-2.7,2.5-5.4,3.8-8.1,3.8s-4.9-0.5-6.8-1.5
		C3082.5,1044.6,3081,1043.3,3079.9,1041.6z M3081.2,1025.3h17c0-3.4-0.8-6.2-2.4-8.4c-1.3-1.9-3.2-2.8-5.6-2.8c-4,0-6.7,1.8-8,5.5
		C3081.5,1021.3,3081.2,1023.2,3081.2,1025.3z"/>
	<path class="st0" d="M3109.6,1046.7v-36.1h4.5v9.7c1.1-2.4,1.9-4,2.5-4.9c2.2-3.5,5.1-5.2,8.7-5.2c0.3,0,0.7,0,1.2,0.1v3.8
		c-1.5,0.2-2.8,0.5-3.9,0.9c-1,0.4-2,1-3,1.8c-1.7,1.4-3.5,4.2-5.5,8.4v21.4H3109.6z"/>
	<path class="st0" d="M3131.5,1006.1v-5.1h5.1v5.1H3131.5z M3131.8,1046.7v-36.1h4.5v36.1H3131.8z"/>
	<path class="st0" d="M3147.6,1041.6c-1.1-1.7-2-3.5-2.5-5.6c-0.6-2.1-0.9-4.2-0.9-6.5s0.2-4.3,0.5-6.2c0.3-1.9,0.7-3.4,1.3-4.7
		c0.5-1.3,1.2-2.5,1.9-3.5c0.8-1,1.5-1.8,2.3-2.4c0.8-0.6,1.7-1.1,2.6-1.5c1.6-0.7,3.2-1,4.6-1c1.5,0,2.7,0.1,3.7,0.4
		c1,0.3,2.1,0.8,3.3,1.6c1.2,0.8,2.2,1.9,3,3.2c2,3.1,2.9,7.7,2.9,13.7h-21.7c0,6.1,1.5,10.2,4.6,12.4c1.5,1.1,3.2,1.6,5.1,1.6
		c3.5,0,6.5-2.2,9-6.5l3.1,2.2c-0.9,1.6-2.1,3.1-3.5,4.4c-2.7,2.5-5.4,3.8-8.1,3.8s-4.9-0.5-6.8-1.5
		C3150.2,1044.6,3148.7,1043.3,3147.6,1041.6z M3148.9,1025.3h17c0-3.4-0.8-6.2-2.4-8.4c-1.3-1.9-3.2-2.8-5.6-2.8
		c-4,0-6.7,1.8-8,5.5C3149.2,1021.3,3148.9,1023.2,3148.9,1025.3z"/>
	<path class="st0" d="M3177.3,1046.7v-36.1h4.5v9.7c1.1-2.4,1.9-4,2.5-4.9c2.2-3.5,5.1-5.2,8.7-5.2c0.3,0,0.7,0,1.2,0.1v3.8
		c-1.5,0.2-2.8,0.5-3.9,0.9c-1,0.4-2,1-3,1.8c-1.7,1.4-3.5,4.2-5.5,8.4v21.4H3177.3z"/>
	<path class="st0" d="M3196.3,1014.4v-3.8h6.1v-13.2h4.5v13.2h8.3v3.8h-8.3v22.9c0,2.3,0.4,3.9,1.1,4.7c0.7,0.8,1.9,1.3,3.5,1.3
		c0.7,0,1.4-0.1,2.4-0.2c0.9-0.1,1.4-0.2,1.4-0.2v3.4c-1.5,0.5-3,0.8-4.4,0.8s-2.4,0-2.9-0.1c-0.5-0.1-1.2-0.3-1.9-0.6
		s-1.4-0.9-1.8-1.5c-1.1-1.6-1.7-4.1-1.7-7.5v-22.9H3196.3z"/>
	<path class="st0" d="M3221.8,1041.6c-1.1-1.7-2-3.5-2.5-5.6c-0.6-2.1-0.9-4.2-0.9-6.5s0.2-4.3,0.5-6.2c0.3-1.9,0.7-3.4,1.3-4.7
		c0.5-1.3,1.2-2.5,1.9-3.5c0.8-1,1.5-1.8,2.3-2.4c0.8-0.6,1.7-1.1,2.6-1.5c1.6-0.7,3.2-1,4.6-1c1.5,0,2.7,0.1,3.7,0.4
		c1,0.3,2.1,0.8,3.3,1.6c1.2,0.8,2.2,1.9,3,3.2c2,3.1,2.9,7.7,2.9,13.7h-21.7c0,6.1,1.5,10.2,4.6,12.4c1.5,1.1,3.2,1.6,5.1,1.6
		c3.5,0,6.5-2.2,9-6.5l3.1,2.2c-0.9,1.6-2.1,3.1-3.5,4.4c-2.7,2.5-5.4,3.8-8.1,3.8s-4.9-0.5-6.8-1.5
		C3224.4,1044.6,3222.9,1043.3,3221.8,1041.6z M3223.1,1025.3h17c0-3.4-0.8-6.2-2.4-8.4c-1.3-1.9-3.2-2.8-5.6-2.8
		c-4,0-6.7,1.8-8,5.5C3223.4,1021.3,3223.1,1023.2,3223.1,1025.3z"/>
	<path class="st0" d="M2395.1,1119.4c-1-2.3-1.7-4.7-2.1-7.2c-0.4-2.5-0.6-4.9-0.6-7.3c0-2.4,0.2-4.6,0.5-6.7c0.3-2.1,0.8-4.1,1.4-6
		c0.6-2,1.5-3.8,2.5-5.4c1.1-1.7,2.3-3.1,3.6-4.4c2.9-2.6,6.6-4,10.9-4c3.2,0,6.2,1,9.1,2.9c3.3,2.3,5.7,6.2,7.2,11.9l-5,1.2
		c0-0.2-0.1-0.4-0.1-0.7c0-0.3-0.2-0.8-0.4-1.7s-0.5-1.6-0.8-2.3c-0.3-0.7-0.7-1.6-1.4-2.5s-1.3-1.7-2-2.3c-1.7-1.5-3.9-2.3-6.6-2.3
		c-2.6,0-4.9,0.6-6.8,1.8c-1.9,1.2-3.3,2.9-4.3,5.1c-2,4.1-3,9.1-3,15c0,7,0.9,12.3,2.7,15.7c2.4,4.6,6.2,6.8,11.3,6.8
		c6.4,0,10.1-3.7,11.1-11.1c0.2-1.6,0.3-3.4,0.3-5.4h-11.5v-4.2h16.5v24.4h-4.1v-6.6c-2.6,3.6-5.3,5.7-8.2,6.6
		c-1.3,0.4-3,0.5-5.1,0.5c-2.1,0-4.2-0.5-6.4-1.6s-4-2.4-5.4-4.2C2397.3,1123.7,2396.1,1121.7,2395.1,1119.4z"/>
	<path class="st0" d="M2436.3,1130.7v-36.1h4.5v9.7c1.1-2.4,1.9-4,2.5-4.9c2.2-3.5,5.1-5.2,8.7-5.2c0.3,0,0.7,0,1.2,0.1v3.8
		c-1.5,0.2-2.8,0.5-3.9,0.9c-1,0.4-2,1-3,1.8c-1.7,1.4-3.5,4.2-5.5,8.4v21.4H2436.3z"/>
	<path class="st0" d="M2456.5,1121.9c0-1.6,0.2-3.1,0.6-4.3c0.4-1.2,1.1-2.3,1.9-3.2s1.9-1.8,3-2.5c1.1-0.7,2.5-1.4,4.2-2
		c3-1.1,6.7-2,11.1-2.9c0-3.6-0.7-6-2.1-7.2c-1.2-1.1-3-1.6-5.4-1.6c-2.9,0-5.3,1.1-7.4,3.3c-0.9,0.9-1.5,1.7-1.8,2.4l-3.2-2.2
		c2.6-4.9,6.9-7.3,13-7.3c5.5,0,9,2.1,10.5,6.3c0.6,1.7,0.9,3.8,0.9,6.2v18.8c0,0.7,0.1,1.6,0.4,2.7c0.2,1.1,0.5,1.9,0.7,2.4h-4.5
		c-0.7-0.3-1-2.3-1-5.7c-3.2,4.1-6.8,6.2-10.6,6.2c-4.3,0-7.3-1.5-8.9-4.5C2457,1125.1,2456.5,1123.5,2456.5,1121.9z M2461.9,1118
		c-0.6,1-0.9,2.4-0.9,4.1c0,1.7,0.6,3,1.8,3.9c1.2,0.9,2.5,1.4,3.9,1.4s2.7-0.2,3.8-0.6c1.1-0.4,2.1-1,3-1.7
		c1.7-1.3,2.9-2.4,3.7-3.3v-10.8c-4.3,1.1-6.9,1.8-7.7,2.1C2465.7,1114.1,2463.1,1115.8,2461.9,1118z"/>
	<path class="st0" d="M2490.2,1144.7v-50.1h4.5v5.6c0.5-1,1.4-2.1,2.7-3.1c2.4-1.9,4.8-2.9,7.4-2.9c4.8,0,8.4,2.6,10.9,7.9
		c1.4,3,2.2,6.3,2.2,9.9c0,6.3-1.5,11.3-4.6,15c-2.2,2.7-5.2,4.1-8.9,4.1c-2.1,0-4.1-0.6-6.1-1.9c-2-1.3-3.2-2.4-3.6-3.3v18.8
		H2490.2z M2494.7,1122c1,1.5,2.3,2.8,3.8,3.7c1.5,1,2.9,1.5,4.3,1.5s2.5-0.1,3.4-0.4c0.9-0.3,1.8-0.7,2.7-1.4
		c0.9-0.7,1.7-1.6,2.3-2.7c1.4-2.5,2.1-6,2.1-10.7c0-5.7-1.3-9.7-4-12c-1.4-1.3-3.2-1.9-5.3-1.9c-2.9,0-5.4,1.2-7.5,3.6
		c-0.5,0.6-1.2,1.4-1.9,2.4V1122z"/>
	<path class="st0" d="M2524.9,1130.7v-51.8h4.5v21.6c3.4-3.2,6.1-5.1,8.3-5.8c1.1-0.3,2.3-0.5,3.5-0.5c2.6,0,4.8,0.8,6.5,2.4
		c1.7,1.6,2.5,4,2.5,7.2v26.9h-4.5v-26.9c0-1.7-0.6-3.1-1.8-4.2c-1.2-1.1-2.5-1.6-3.9-1.6c-3.4,0-6.9,2-10.5,5.9v26.7H2524.9z"/>
	<path class="st0" d="M2559.9,1125.6c-1.1-1.7-2-3.5-2.5-5.6s-0.9-4.2-0.9-6.5s0.2-4.3,0.5-6.2c0.3-1.9,0.7-3.4,1.3-4.7
		c0.5-1.3,1.2-2.5,1.9-3.5c0.8-1,1.5-1.8,2.3-2.4c0.8-0.6,1.7-1.1,2.6-1.5c1.6-0.7,3.2-1,4.6-1c1.5,0,2.7,0.1,3.7,0.4
		c1,0.3,2.1,0.8,3.3,1.6s2.2,1.9,3,3.2c2,3.1,2.9,7.7,2.9,13.7H2561c0,6.1,1.5,10.2,4.6,12.4c1.5,1.1,3.2,1.6,5.1,1.6
		c3.5,0,6.5-2.2,9-6.5l3.1,2.2c-0.9,1.6-2.1,3.1-3.5,4.4c-2.7,2.5-5.4,3.8-8.1,3.8s-4.9-0.5-6.8-1.5
		C2562.5,1128.6,2561.1,1127.3,2559.9,1125.6z M2561.2,1109.3h17c0-3.4-0.8-6.2-2.4-8.4c-1.3-1.9-3.2-2.8-5.6-2.8
		c-4,0-6.7,1.8-8,5.5C2561.6,1105.3,2561.2,1107.2,2561.2,1109.3z"/>
	<path class="st0" d="M2589.7,1130.7v-36.1h4.5v5.9c2-2,3.9-3.5,5.7-4.6c1.8-1.1,3.9-1.7,6.4-1.7c2.4,0,4.5,0.8,6.2,2.4
		c1.7,1.6,2.5,4,2.5,7.2v26.9h-4.5v-26.9c0-1.7-0.6-3.1-1.8-4.2c-1.2-1.1-2.5-1.6-3.9-1.6c-3.4,0-6.9,2-10.5,5.9v26.7H2589.7z"/>
	<path class="st0" d="M2640.6,1121.5v-26.9h4.5v26.9c0,1.7,0.6,3.1,1.8,4.2c1.2,1.1,2.5,1.6,3.9,1.6c3.4,0,6.9-2,10.5-5.9v-26.7h4.5
		v36.1h-4.5v-5.9c-3.2,3.2-6,5.1-8.3,5.8c-1.1,0.3-2.3,0.5-3.5,0.5c-2.6,0-4.8-0.8-6.5-2.4
		C2641.5,1127.1,2640.6,1124.7,2640.6,1121.5z"/>
	<path class="st0" d="M2673.8,1130.7v-36.1h4.5v5.9c2-2,3.9-3.5,5.7-4.6c1.8-1.1,3.9-1.7,6.4-1.7c2.4,0,4.5,0.8,6.2,2.4
		c1.7,1.6,2.5,4,2.5,7.2v26.9h-4.5v-26.9c0-1.7-0.6-3.1-1.8-4.2c-1.2-1.1-2.5-1.6-3.9-1.6c-3.4,0-6.9,2-10.5,5.9v26.7H2673.8z"/>
	<path class="st0" d="M2728.2,1125c-2.3,4-5.6,6-9.7,6c-2.1,0-4-0.5-5.7-1.6c-1.7-1-3.1-2.4-4.1-4.1c-2.2-3.6-3.3-7.6-3.3-12.1
		c0-3.3,0.5-6.5,1.6-9.3s2.7-5.2,4.8-7c2.1-1.8,4.3-2.7,6.7-2.7s4.5,0.6,6.3,1.8c1.8,1.2,3,2.3,3.4,3.2v-20.4h4.5v46.8
		c0,0.7,0.1,1.6,0.3,2.7s0.4,1.9,0.6,2.3h-4.5C2728.5,1130.4,2728.2,1128.5,2728.2,1125z M2709.9,1113.2c0,4,0.7,7.3,2.2,9.9
		c1.5,2.7,3.9,4.1,7.1,4.1c2.2,0,3.9-0.6,5.3-1.8c1.1-1,2.3-2.4,3.7-4.2v-17.9c-2.4-3.4-5.1-5.2-8.1-5.2
		C2713.3,1098.1,2709.9,1103.1,2709.9,1113.2z"/>
	<path class="st0" d="M2758.6,1115.1v-36.2h5.1v36.2c0,3.1,0.8,5.7,2.3,7.8c1.9,2.7,4.9,4,8.9,4c6,0,9.6-2.7,10.7-8.1
		c0.3-1.3,0.4-2.5,0.4-3.7v-36.2h5.2v36.2c0,3.7-1,7.1-3,10c-2.7,4.1-7.1,6.1-13.2,6.1c-7.3,0-12.2-2.9-14.7-8.7
		C2759.1,1120.1,2758.6,1117.7,2758.6,1115.1z"/>
	<path class="st0" d="M2799.5,1130.7v-36.1h4.5v5.9c2-2,3.9-3.5,5.7-4.6c1.8-1.1,3.9-1.7,6.4-1.7c2.4,0,4.5,0.8,6.2,2.4
		c1.7,1.6,2.5,4,2.5,7.2v26.9h-4.5v-26.9c0-1.7-0.6-3.1-1.8-4.2c-1.2-1.1-2.5-1.6-3.9-1.6c-3.4,0-6.9,2-10.5,5.9v26.7H2799.5z"/>
	<path class="st0" d="M2829.8,1098.4v-3.8h6.1v-13.2h4.5v13.2h8.3v3.8h-8.3v22.9c0,2.3,0.4,3.9,1.1,4.7c0.7,0.8,1.9,1.3,3.5,1.3
		c0.7,0,1.4-0.1,2.4-0.2c0.9-0.1,1.4-0.2,1.4-0.2v3.4c-1.5,0.5-3,0.8-4.4,0.8s-2.4,0-2.9-0.1c-0.5-0.1-1.2-0.3-1.9-0.6
		s-1.4-0.9-1.8-1.5c-1.1-1.6-1.7-4.1-1.7-7.5v-22.9H2829.8z"/>
	<path class="st0" d="M2855.3,1125.6c-1.1-1.7-2-3.5-2.5-5.6s-0.9-4.2-0.9-6.5s0.2-4.3,0.5-6.2c0.3-1.9,0.7-3.4,1.3-4.7
		c0.5-1.3,1.2-2.5,1.9-3.5c0.8-1,1.5-1.8,2.3-2.4c0.8-0.6,1.7-1.1,2.6-1.5c1.6-0.7,3.2-1,4.6-1c1.5,0,2.7,0.1,3.7,0.4
		c1,0.3,2.1,0.8,3.3,1.6s2.2,1.9,3,3.2c2,3.1,2.9,7.7,2.9,13.7h-21.7c0,6.1,1.5,10.2,4.6,12.4c1.5,1.1,3.2,1.6,5.1,1.6
		c3.5,0,6.5-2.2,9-6.5l3.1,2.2c-0.9,1.6-2.1,3.1-3.5,4.4c-2.7,2.5-5.4,3.8-8.1,3.8s-4.9-0.5-6.8-1.5
		C2857.9,1128.6,2856.4,1127.3,2855.3,1125.6z M2856.6,1109.3h17c0-3.4-0.8-6.2-2.4-8.4c-1.3-1.9-3.2-2.8-5.6-2.8
		c-4,0-6.7,1.8-8,5.5C2856.9,1105.3,2856.6,1107.2,2856.6,1109.3z"/>
	<path class="st0" d="M2885,1130.7v-36.1h4.5v9.7c1.1-2.4,1.9-4,2.5-4.9c2.2-3.5,5.1-5.2,8.7-5.2c0.3,0,0.7,0,1.2,0.1v3.8
		c-1.5,0.2-2.8,0.5-3.9,0.9c-1,0.4-2,1-3,1.8c-1.7,1.4-3.5,4.2-5.5,8.4v21.4H2885z"/>
	<path class="st0" d="M2905.6,1140.8c-0.9-1.3-1.4-2.5-1.4-3.7s0.2-2.2,0.5-2.9s0.9-1.3,1.6-1.8s1.3-1,1.8-1.3s1.2-0.7,2.1-1.2
		c0.9-0.4,1.4-0.7,1.6-0.8c-1.9-0.4-3.3-1.1-4.2-2.1c-1-1-1.4-1.9-1.4-2.7s0.2-1.5,0.5-2.2c0.3-0.7,0.8-1.3,1.4-1.8
		c1-0.9,1.8-1.5,2.5-1.9c0.7-0.4,1-0.6,1.1-0.7c-1.4-1.2-2.6-2.7-3.6-4.6c-1-1.9-1.6-3.9-1.6-6.2s0.6-4.4,1.9-6.3s2.9-3.5,5-4.6
		c2.1-1.1,4.1-1.7,6.1-1.7c2,0,3.5,0.2,4.7,0.7s2.5,1.2,3.8,2.1c1.7-1.4,3.1-2.2,4.2-2.4c1.4-0.3,2.7-0.5,3.9-0.5v4.1h-0.1
		c-3.9,0-5.8,0.4-5.8,1.1c1.2,2.1,1.9,3.7,2.2,4.7c0.3,1,0.4,2,0.4,3.1c0,3.7-1.2,6.8-3.5,9.3c-2.4,2.5-5.4,3.8-9.2,3.8
		c-2,0-4-0.4-6.1-1.3c-0.2,0.2-0.6,0.5-1.2,0.9c-1.4,1-2.1,1.9-2.1,2.9c0,1,0.5,1.8,1.4,2.2c0.7,0.3,1.6,0.5,2.7,0.7
		c1.1,0.2,1.8,0.3,2.3,0.3s1.2,0.1,2.2,0.1c2.6,0,5.6,0.5,9.1,1.3c2.2,0.5,4,1.6,5.4,3.1s2.1,3.5,2.1,5.6c0,6.5-5.5,9.8-16.4,9.8
		c-3.9,0-7.3-0.7-10.3-2.1C2907.7,1143.1,2906.5,1142.1,2905.6,1140.8z M2908.7,1136.5c0,2.2,1.2,3.7,3.6,4.5c2.1,0.7,4,1.1,5.8,1.1
		s3,0,3.6,0c0.6,0,1.4-0.1,2.3-0.1c0.9-0.1,1.7-0.2,2.3-0.3c0.6-0.1,1.2-0.4,1.9-0.7c0.7-0.3,1.3-0.6,1.7-1.1c1-1,1.4-2.1,1.4-3.5
		s-0.5-2.5-1.4-3.3c-0.9-0.8-2.1-1.4-3.5-1.7s-2.8-0.6-4.2-0.7c-1.4-0.1-2.7-0.3-3.9-0.3c-1.2-0.1-2-0.1-2.2-0.2
		c-2.4,0.9-4,1.6-4.8,2C2909.6,1133.2,2908.7,1134.7,2908.7,1136.5z M2913.4,1100.6c-1.7,1.7-2.5,3.9-2.5,6.5s0.8,4.9,2.4,6.6
		c1.6,1.8,3.8,2.6,6.5,2.6s4.8-0.9,6.3-2.7c1.4-1.8,2.1-4,2.1-6.6c0-2.6-0.7-4.7-2.1-6.5c-1.4-1.7-3.4-2.6-6.1-2.6
		S2915.1,1098.9,2913.4,1100.6z"/>
	<path class="st0" d="M2941.2,1130.7v-36.1h4.5v9.7c1.1-2.4,1.9-4,2.5-4.9c2.2-3.5,5.1-5.2,8.7-5.2c0.3,0,0.7,0,1.2,0.1v3.8
		c-1.5,0.2-2.8,0.5-3.9,0.9c-1,0.4-2,1-3,1.8c-1.7,1.4-3.5,4.2-5.5,8.4v21.4H2941.2z"/>
	<path class="st0" d="M2961.4,1121.9c0-1.6,0.2-3.1,0.6-4.3c0.4-1.2,1.1-2.3,1.9-3.2s1.9-1.8,3-2.5c1.1-0.7,2.5-1.4,4.2-2
		c3-1.1,6.7-2,11.1-2.9c0-3.6-0.7-6-2.1-7.2c-1.2-1.1-3-1.6-5.4-1.6c-2.9,0-5.3,1.1-7.4,3.3c-0.9,0.9-1.5,1.7-1.8,2.4l-3.2-2.2
		c2.6-4.9,6.9-7.3,13-7.3c5.5,0,9,2.1,10.5,6.3c0.6,1.7,0.9,3.8,0.9,6.2v18.8c0,0.7,0.1,1.6,0.4,2.7c0.2,1.1,0.5,1.9,0.7,2.4h-4.5
		c-0.7-0.3-1-2.3-1-5.7c-3.2,4.1-6.8,6.2-10.6,6.2c-4.3,0-7.3-1.5-8.9-4.5C2961.8,1125.1,2961.4,1123.5,2961.4,1121.9z M2966.8,1118
		c-0.6,1-0.9,2.4-0.9,4.1c0,1.7,0.6,3,1.8,3.9c1.2,0.9,2.5,1.4,3.9,1.4s2.7-0.2,3.8-0.6c1.1-0.4,2.1-1,3-1.7
		c1.7-1.3,2.9-2.4,3.7-3.3v-10.8c-4.3,1.1-6.9,1.8-7.7,2.1C2970.5,1114.1,2967.9,1115.8,2966.8,1118z"/>
	<path class="st0" d="M2995.1,1144.7v-50.1h4.5v5.6c0.5-1,1.4-2.1,2.7-3.1c2.4-1.9,4.8-2.9,7.4-2.9c4.8,0,8.4,2.6,10.9,7.9
		c1.4,3,2.2,6.3,2.2,9.9c0,6.3-1.5,11.3-4.6,15c-2.2,2.7-5.2,4.1-8.9,4.1c-2.1,0-4.1-0.6-6.1-1.9c-2-1.3-3.2-2.4-3.6-3.3v18.8
		H2995.1z M2999.6,1122c1,1.5,2.3,2.8,3.8,3.7c1.5,1,2.9,1.5,4.3,1.5s2.5-0.1,3.4-0.4c0.9-0.3,1.8-0.7,2.7-1.4
		c0.9-0.7,1.7-1.6,2.3-2.7c1.4-2.5,2.1-6,2.1-10.7c0-5.7-1.3-9.7-4-12c-1.4-1.3-3.2-1.9-5.3-1.9c-2.9,0-5.4,1.2-7.5,3.6
		c-0.5,0.6-1.2,1.4-1.9,2.4V1122z"/>
	<path class="st0" d="M3029.8,1130.7v-51.8h4.5v21.6c3.4-3.2,6.1-5.1,8.3-5.8c1.1-0.3,2.3-0.5,3.5-0.5c2.6,0,4.8,0.8,6.5,2.4
		c1.7,1.6,2.5,4,2.5,7.2v26.9h-4.5v-26.9c0-1.7-0.6-3.1-1.8-4.2c-1.2-1.1-2.5-1.6-3.9-1.6c-3.4,0-6.9,2-10.5,5.9v26.7H3029.8z"/>
	<path class="st0" d="M3064.8,1125.6c-1.1-1.7-2-3.5-2.5-5.6s-0.9-4.2-0.9-6.5s0.2-4.3,0.5-6.2c0.3-1.9,0.7-3.4,1.3-4.7
		c0.5-1.3,1.2-2.5,1.9-3.5c0.8-1,1.5-1.8,2.3-2.4c0.8-0.6,1.7-1.1,2.6-1.5c1.6-0.7,3.2-1,4.6-1c1.5,0,2.7,0.1,3.7,0.4
		c1,0.3,2.1,0.8,3.3,1.6s2.2,1.9,3,3.2c2,3.1,2.9,7.7,2.9,13.7h-21.7c0,6.1,1.5,10.2,4.6,12.4c1.5,1.1,3.2,1.6,5.1,1.6
		c3.5,0,6.5-2.2,9-6.5l3.1,2.2c-0.9,1.6-2.1,3.1-3.5,4.4c-2.7,2.5-5.4,3.8-8.1,3.8s-4.9-0.5-6.8-1.5
		C3067.4,1128.6,3065.9,1127.3,3064.8,1125.6z M3066.1,1109.3h17c0-3.4-0.8-6.2-2.4-8.4c-1.3-1.9-3.2-2.8-5.6-2.8
		c-4,0-6.7,1.8-8,5.5C3066.4,1105.3,3066.1,1107.2,3066.1,1109.3z"/>
	<path class="st0" d="M3094.5,1130.7v-36.1h4.5v5.9c2-2,3.9-3.5,5.7-4.6c1.8-1.1,3.9-1.7,6.4-1.7c2.4,0,4.5,0.8,6.2,2.4
		c1.7,1.6,2.5,4,2.5,7.2v26.9h-4.5v-26.9c0-1.7-0.6-3.1-1.8-4.2c-1.2-1.1-2.5-1.6-3.9-1.6c-3.4,0-6.9,2-10.5,5.9v26.7H3094.5z"/>
</g>
<g>
</g>
<g>
</g>
<g>
</g>
<g>
</g>
<g>
</g>
<g>
</g>
<g>
</g>
<g>
</g>
<g>
</g>
<g>
</g>
<g>
</g>
<g>
</g>
<g>
</g>
<g>
</g>
<g>
</g>
<g>
</g>
</svg>
