<svg xmlns="http://www.w3.org/2000/svg" xmlns:xlink="http://www.w3.org/1999/xlink" version="1.1" x="0px" y="0px" viewBox="0 0 100 125" enable-background="new 0 0 100 100" xml:space="preserve"><path fill="#2dc6d6" d="M79.567,93.851h7.392c1.998,0,2.397-1.198,2.497-1.797H77.07C77.27,93.252,78.568,93.851,79.567,93.851z"/><path fill="#2dc6d6" d="M67.88,18.335c-0.499,0-0.499,0.101-0.698,0.3c-0.301,0.5-0.7,1.499-0.7,4.195  c0,2.697,0.399,3.796,0.7,4.195c0.199,0.2,0.299,0.3,0.698,0.3c0.5,0,0.6-0.1,0.7-0.3c0.299-0.499,0.698-1.498,0.698-4.195  c0-2.696-0.399-3.796-0.698-4.195C68.38,18.436,68.279,18.335,67.88,18.335z"/><path fill="#2dc6d6" d="M44.107,20.933c-0.8-11.986-8.99-14.783-11.987-14.783c-10.688,0-21.576,20.576-21.576,35.46v49.944H23.03  c0-2.098,0-14.385,0-26.271s0-23.273,0-24.072c0-2.497,0.2-4.096,0.6-4.994c-0.999-0.899-2.099-1.998-3.296-3.297l0.799-0.699  c6.092,6.393,8.59,8.091,11.986,8.091c2.896,0,10.089-2.696,10.888-14.583c-0.499,0-0.899-0.2-1.099-0.699  c-0.199-0.6-0.3-2.198-0.1-3.097C43.008,20.933,43.508,20.933,44.107,20.933z M32.12,30.122c-2.397,0-3.995-1.898-3.995-7.191  c0-5.295,1.498-7.192,3.995-7.192s3.995,1.897,3.995,7.192C36.115,28.224,34.518,30.122,32.12,30.122z"/><path fill="#2dc6d6" d="M32.12,18.335c-0.399,0-0.499,0.101-0.699,0.3c-0.3,0.5-0.699,1.499-0.699,4.195  c0,2.697,0.399,3.796,0.699,4.195c0.2,0.2,0.3,0.3,0.699,0.3c0.499,0,0.599-0.1,0.699-0.3c0.2-0.399,0.699-1.498,0.699-4.195  c0-2.696-0.399-3.796-0.699-4.195C32.619,18.436,32.52,18.335,32.12,18.335z"/><path fill="#2dc6d6" d="M67.88,6.149c-2.896,0-11.087,2.797-11.986,14.783c0.6,0,1.099,0,1.299,0.999  c0.199,0.898,0.101,2.597-0.1,3.097c-0.3,0.599-0.6,0.699-1.199,0.699c0.899,11.887,8.091,14.583,11.088,14.583  c3.396,0,5.894-1.798,11.986-8.091l0.799,0.699c-1.198,1.199-2.297,2.298-3.296,3.297c0.399,0.998,0.6,2.497,0.6,4.994  c0,0.799,0,12.286,0,24.072c0,11.887,0,24.174,0,26.271h12.386V41.609C89.456,26.826,78.568,6.149,67.88,6.149z M67.88,30.122  c-2.397,0-3.995-1.898-3.995-7.191c0-5.295,1.498-7.192,3.995-7.192c2.498,0,3.996,1.897,3.996,7.192  C71.876,28.224,70.378,30.122,67.88,30.122z"/><path fill="#2dc6d6" d="M13.041,93.851h7.393c0.998,0,2.297-0.599,2.497-1.797H10.544C10.645,92.652,11.043,93.851,13.041,93.851z"/></svg>