<?xml version="1.0" encoding="iso-8859-1"?>
<!-- Generator: Adobe Illustrator 17.1.0, SVG Export Plug-In . SVG Version: 6.00 Build 0)  -->
<!DOCTYPE svg PUBLIC "-//W3C//DTD SVG 1.1//EN" "http://www.w3.org/Graphics/SVG/1.1/DTD/svg11.dtd">
<svg version="1.1" id="Capa_1" xmlns="http://www.w3.org/2000/svg" xmlns:xlink="http://www.w3.org/1999/xlink" x="0px" y="0px"
	 viewBox="0 0 294 294" style="enable-background:new 0 0 294 294;" xml:space="preserve">
<path fill="#2dc6d6" d="M173.333,195.5c0,14.061-11.439,25.5-25.5,25.5s-25.5-11.439-25.5-25.5s11.439-25.5,25.5-25.5
	S173.333,181.439,173.333,195.5z M244.5,279c0,8.284-6.716,15-15,15h-165c-8.284,0-15-6.716-15-15V15c0-8.284,6.716-15,15-15h165
	c8.284,0,15,6.716,15,15V279z M220.5,31.5c0-4.142-3.358-7.5-7.5-7.5H81c-4.142,0-7.5,3.358-7.5,7.5v66c0,4.142,3.358,7.5,7.5,7.5
	h132c4.142,0,7.5-3.358,7.5-7.5V31.5z M221.333,195.5c0-40.528-32.972-73.5-73.5-73.5s-73.5,32.972-73.5,73.5s32.972,73.5,73.5,73.5
	S221.333,236.028,221.333,195.5z"/>
<g>
</g>
<g>
</g>
<g>
</g>
<g>
</g>
<g>
</g>
<g>
</g>
<g>
</g>
<g>
</g>
<g>
</g>
<g>
</g>
<g>
</g>
<g>
</g>
<g>
</g>
<g>
</g>
<g>
</g>
</svg>
